<svg width="395" height="216" viewBox="0 0 395 216" xmlns="http://www.w3.org/2000/svg" xmlns:xlink="http://www.w3.org/1999/xlink"><svg width="242.63" height="65.22" viewBox="-1 -1 242.63 65.22" id="txt1" xmlns="http://www.w3.org/2000/svg"><defs><style>.acls-1{fill:#fff;fill-rule:evenodd}</style></defs><path id="atxt1.svg" class="acls-1" d="M798.991 593.722c0 1.092-.631 1.743-1.978 1.743h-.883c-1.094 0-1.515-.525-1.515-2.121v-1.281h2.272c1.389 0 2.104.609 2.104 1.659zm-.484-5.9a1.616 1.616 0 0 1-1.893 1.638h-2.02v-3.3h2.02a1.62 1.62 0 0 1 1.893 1.661zm-7.426-4.347v9.975c0 3.339 1.283 4.725 4.334 4.725h1.64c3.64 0 5.47-1.7 5.47-4.158a3.5 3.5 0 0 0-2.461-3.444 3.343 3.343 0 0 0 1.977-3.129c0-2.331-1.83-3.969-5.322-3.969h-5.638zm17 14.7v-14.134c0-.5-.315-.735-.946-.735a9.58 9.58 0 0 0-2.567.294v13.986c0 .4.232.588.757.588h2.756zm12.051.252c1.347 0 2.125-.819 2.125-1.449a3.516 3.516 0 0 0-.231-1.3h-.4a1.846 1.846 0 0 1-1.22-.462 6.9 6.9 0 0 1-1.536-2.016 4.8 4.8 0 0 0 2.735-4.473c0-3.276-2.314-5.25-6.037-5.25h-4.818v14.112c0 .4.232.588.758.588h2.734v-4.497a5.8 5.8 0 0 0 1.41.252 10.179 10.179 0 0 0 2.251 3.549 3.145 3.145 0 0 0 2.23.945zm-5.89-12.1h1.115c1.662 0 2.672.819 2.672 2.394s-1.073 2.331-2.651 2.331a4.861 4.861 0 0 1-1.136-.1v-4.62zm15.926 11.844V586.33h4.165v-2.1a.607.607 0 0 0-.61-.756h-10.98a11.647 11.647 0 0 0-.231 2.037.674.674 0 0 0 .694.819h3.471v11.256c0 .4.232.588.757.588h2.735zm9 0v-5.943h4.986v5.355c0 .4.231.588.757.588h2.756v-14.088a.608.608 0 0 0-.758-.609h-2.755v5.926h-4.986v-5.355c0-.5-.294-.735-.946-.735a9.521 9.521 0 0 0-2.546.294v13.986c0 .4.232.588.757.588h2.735zm16.679 0c4.186 0 7.216-2.793 7.216-7.35s-3.03-7.35-7.09-7.35h-5.679v9.975c0 3.276 1.367 4.725 4.333 4.725h1.22zm3.682-7.35c0 3.045-1.557 4.494-3.745 4.494h-.463c-1.094 0-1.514-.525-1.514-2.121v-6.864h1.977c2.188 0 3.745 1.449 3.745 4.494zm7.086 7.35l.885-2.771h5.027l.715 2.226a.807.807 0 0 0 .947.546h2.945l-5.028-13.86a1.273 1.273 0 0 0-1.493-.987 6.688 6.688 0 0 0-2.524.525l-4.944 13.587a.563.563 0 0 0 .631.735h2.84zm5.07-5.481h-3.345l1.66-5.184zm8.647 4.893c0 .4.232.588.758.588h2.755v-5.082a28.762 28.762 0 0 0 4.8-8.673c.189-.63-.169-.945-.842-.945h-2.482a24.425 24.425 0 0 1-3.114 6.573l-3.218-6.237a.751.751 0 0 0-.757-.5 4.1 4.1 0 0 0-2.567 1.533l4.67 8.316v4.431zm20.383-2.016a9.027 9.027 0 0 1-3.807-.819 3.121 3.121 0 0 0-.526 1.575c0 1.008 1.893 2.1 4.8 2.1 3.471 0 5.364-1.806 5.364-4.305 0-2.226-1.367-3.591-4.354-4.494-2.125-.63-2.8-1.239-2.8-2.079a1.544 1.544 0 0 1 1.746-1.47 2.3 2.3 0 0 1 2.23 1.806 7.2 7.2 0 0 0 2.356-.588.962.962 0 0 0 .61-.861 1.552 1.552 0 0 0-.252-.819 5.729 5.729 0 0 0-5.049-2.394c-3.134 0-5.175 1.869-5.175 4.41 0 2.415 1.536 3.885 4.5 4.767 2.1.63 2.65 1.071 2.65 1.869 0 .822-.715 1.305-2.293 1.305zm11.3 2.6v-5.943H917v5.355c0 .4.231.588.757.588h2.756v-14.084a.607.607 0 0 0-.757-.609H917v5.926h-4.986v-5.355c0-.5-.294-.735-.946-.735a9.526 9.526 0 0 0-2.546.294v13.986c0 .4.232.588.758.588h2.734zm25-7.35c0-4.872-3.239-7.6-7.257-7.6-4.039 0-7.279 2.73-7.279 7.6s3.24 7.6 7.279 7.6c4.013.009 7.252-2.717 7.252-7.593zm-7.152 4.746c-2.125 0-3.871-1.869-3.871-4.914 0-3.171 1.7-4.578 3.64-4.578 2.124 0 3.87 1.869 3.87 4.914-.002 3.178-1.709 4.585-3.644 4.585zm12.632 2.6v-4.116a8.511 8.511 0 0 0 2.04.273c3.261 0 5.7-2.016 5.7-5.334 0-3.465-2.314-5.523-6.058-5.523h-5.2v14.091a.607.607 0 0 0 .757.609h2.756zm0-11.844h1.535a2.372 2.372 0 0 1 2.672 2.583c0 1.7-1.094 2.541-2.735 2.541a7.843 7.843 0 0 1-1.472-.126v-5zm12.817 11.844v-4.116a8.511 8.511 0 0 0 2.04.273c3.261 0 5.7-2.016 5.7-5.334 0-3.465-2.314-5.523-6.059-5.523h-5.2v14.091a.607.607 0 0 0 .757.609h2.756zm0-11.844h1.535a2.372 2.372 0 0 1 2.672 2.583c0 1.7-1.094 2.541-2.735 2.541a7.843 7.843 0 0 1-1.472-.126v-5zm12.854 11.844v-14.122c0-.5-.315-.735-.946-.735a9.58 9.58 0 0 0-2.567.294v13.986c0 .4.232.588.758.588h2.755zm11.21-.315a.946.946 0 0 0 .947.5 5.326 5.326 0 0 0 2.419-1.008v-13.257a.607.607 0 0 0-.757-.609h-2.756v8.358l-5.028-8.043a.945.945 0 0 0-.946-.5 5.334 5.334 0 0 0-2.42 1.008v13.272a.608.608 0 0 0 .758.609h2.755v-8.358zm15.636-9.513a5.171 5.171 0 0 0 2.5-.756 1 1 0 0 0 .484-.756 1.208 1.208 0 0 0-.211-.714 7.316 7.316 0 0 0-13.147 4.326 7.6 7.6 0 0 0 7.783 7.98c4.123 0 5.827-2.1 5.827-4.641v-2.436a.951.951 0 0 0-1.115-1.092H992.1a7.065 7.065 0 0 0-.232 1.722.719.719 0 0 0 .736.84h2.125v1.239c0 .966-.61 1.491-2.1 1.491-2.357 0-4.46-1.953-4.46-5.166 0-2.793 1.557-4.284 3.639-4.284a3.368 3.368 0 0 1 3.199 2.258zM778.05 622.174v-5.4h4.9V614.7a.607.607 0 0 0-.61-.756h-4.29v-3.614h5.827a11.178 11.178 0 0 0 .211-2.037.675.675 0 0 0-.695-.819h-8.835v14.112c0 .4.232.588.757.588h2.735zm20.99-7.35c0-4.872-3.24-7.6-7.258-7.6-4.039 0-7.278 2.73-7.278 7.6s3.239 7.6 7.278 7.6c4.018.002 7.258-2.724 7.258-7.6zm-7.153 4.746c-2.124 0-3.87-1.869-3.87-4.914 0-3.171 1.7-4.578 3.639-4.578 2.125 0 3.871 1.869 3.871 4.914 0 3.171-1.704 4.578-3.64 4.578zm18.5 2.856c1.347 0 2.125-.819 2.125-1.449a3.5 3.5 0 0 0-.232-1.3h-.4a1.846 1.846 0 0 1-1.22-.462 6.9 6.9 0 0 1-1.536-2.016 4.8 4.8 0 0 0 2.735-4.473c0-3.276-2.314-5.25-6.038-5.25h-4.817v14.112c0 .4.231.588.757.588h2.739v-4.496a5.8 5.8 0 0 0 1.41.252 10.177 10.177 0 0 0 2.25 3.549 3.147 3.147 0 0 0 2.228.945zm-5.89-12.1h1.115c1.662 0 2.672.819 2.672 2.394s-1.073 2.331-2.651 2.331a4.861 4.861 0 0 1-1.136-.1v-4.62zm18.174 11.844l.884-2.772h5.028l.715 2.226a.805.805 0 0 0 .946.546h2.945l-5.027-13.86a1.274 1.274 0 0 0-1.494-.987 6.692 6.692 0 0 0-2.524.525l-4.944 13.591a.564.564 0 0 0 .632.735h2.839zm5.07-5.481H824.4l1.662-5.187zm19.184.021h-3.365a14.266 14.266 0 0 1 3.366-5.334v5.334zm-7 .756a4.542 4.542 0 0 0 .5 1.533 1.072 1.072 0 0 0 1.094.546h5.406v2.016a.608.608 0 0 0 .758.609h2.734v-2.625h1.83v-2.075c0-.525-.189-.756-.589-.756h-1.241v-8.652c0-.5-.231-.735-.967-.735a7.535 7.535 0 0 0-3.03.525 19.648 19.648 0 0 0-6.499 9.618zm34.141-2.646c0-4.872-3.24-7.6-7.257-7.6-4.039 0-7.279 2.73-7.279 7.6s3.24 7.6 7.279 7.6c4.013.006 7.253-2.72 7.253-7.596zm-7.152 4.746c-2.125 0-3.871-1.869-3.871-4.914 0-3.171 1.7-4.578 3.639-4.578 2.125 0 3.871 1.869 3.871 4.914-.004 3.175-1.708 4.582-3.643 4.582zm18.5 2.856c1.347 0 2.125-.819 2.125-1.449a3.516 3.516 0 0 0-.231-1.3h-.4a1.848 1.848 0 0 1-1.22-.462 6.9 6.9 0 0 1-1.536-2.016 4.8 4.8 0 0 0 2.735-4.473c0-3.276-2.314-5.25-6.037-5.25h-4.818v14.112c0 .4.232.588.758.588h2.734v-4.492a5.8 5.8 0 0 0 1.41.252 10.179 10.179 0 0 0 2.251 3.549 3.145 3.145 0 0 0 2.225.945zm-5.89-12.1h1.115c1.662 0 2.672.819 2.672 2.394s-1.073 2.331-2.651 2.331a4.866 4.866 0 0 1-1.136-.1v-4.62zm20.341 9.24a9.056 9.056 0 0 1-4.039-.924 3.131 3.131 0 0 0-.526 1.575c0 .9 2.23 2.205 5.154 2.205 3.682 0 5.722-2.142 5.722-5.061 0-3.15-2.293-4.83-5.091-4.83a7.156 7.156 0 0 0-1.493.168l.336-2.373h5.743v-2.1a.607.607 0 0 0-.61-.756h-8.12l-.967 7.413.483.42a1.035 1.035 0 0 0 .737.294 2.37 2.37 0 0 0 .5-.063 11.483 11.483 0 0 1 2.166-.21c1.578 0 2.8.609 2.8 2.121s-1.221 2.129-2.799 2.129zm18.743 2.016c0 .4.231.588.757.588h2.756v-5.082a28.78 28.78 0 0 0 4.8-8.673c.189-.63-.168-.945-.842-.945h-2.482a24.452 24.452 0 0 1-3.113 6.573l-3.219-6.237a.75.75 0 0 0-.757-.5 4.1 4.1 0 0 0-2.566 1.533l4.67 8.316v4.431zm19.338.588V620.1a.607.607 0 0 0-.61-.756h-4.208c-.988 0-1.409-.525-1.409-2.121v-.945h4.922v-2.079a.607.607 0 0 0-.61-.756h-4.312v-3.113h5.827a9.618 9.618 0 0 0 .231-2.037.674.674 0 0 0-.694-.819h-8.856v9.786c0 3.717 1.262 4.914 4.523 4.914h5.2zm4.427 0l.884-2.772h5.028l.715 2.234a.806.806 0 0 0 .947.546h2.945l-5.028-13.86a1.274 1.274 0 0 0-1.494-.987 6.692 6.692 0 0 0-2.524.525l-4.946 13.587a.563.563 0 0 0 .631.735h2.839zm5.07-5.481h-3.345l1.662-5.187zm15.935 5.733c1.346 0 2.124-.819 2.124-1.449a3.516 3.516 0 0 0-.231-1.3h-.4a1.848 1.848 0 0 1-1.22-.462 6.9 6.9 0 0 1-1.536-2.016 4.8 4.8 0 0 0 2.735-4.473c0-3.276-2.314-5.25-6.037-5.25h-4.818v14.112c0 .4.232.588.758.588h2.734v-4.488a5.8 5.8 0 0 0 1.41.252 10.179 10.179 0 0 0 2.251 3.549 3.146 3.146 0 0 0 2.226.945zm-5.891-12.1h1.113c1.662 0 2.672.819 2.672 2.394s-1.073 2.331-2.651 2.331a4.866 4.866 0 0 1-1.136-.1v-4.62zm9.5 3.192a7.075 7.075 0 0 0-.253 1.848.65.65 0 0 0 .694.777h5.6v-1.974a.584.584 0 0 0-.694-.651h-5.343zm22.754 1.3c0-4.872-3.239-7.6-7.257-7.6-4.039 0-7.279 2.73-7.279 7.6s3.24 7.6 7.279 7.6c4.01.016 7.249-2.71 7.249-7.586zm-7.152 4.746c-2.125 0-3.871-1.869-3.871-4.914 0-3.171 1.7-4.578 3.639-4.578 2.125 0 3.871 1.869 3.871 4.914-.008 3.185-1.712 4.592-3.647 4.592zm18.769 2.6V620.1a.607.607 0 0 0-.61-.756h-4.251c-1.094 0-1.409-.525-1.409-2.121v-9.177c0-.5-.3-.735-.947-.735a9.513 9.513 0 0 0-2.545.294v9.618c0 3.339 1.094 4.956 4.312 4.956h5.45zm6.62 0c4.19 0 7.22-2.793 7.22-7.35s-3.03-7.35-7.09-7.35h-5.68v9.975c0 3.276 1.37 4.725 4.33 4.725h1.22zm3.69-7.35c0 3.045-1.56 4.494-3.75 4.494h-.46c-1.1 0-1.52-.525-1.52-2.121v-6.849h1.98c2.182 0 3.742 1.449 3.742 4.494zm-160.674 31.35v-14.115c0-.5-.316-.735-.947-.735a9.571 9.571 0 0 0-2.566.294v13.986c0 .4.231.588.757.588h2.756zm6.865-2.6a9.027 9.027 0 0 1-3.807-.819 3.121 3.121 0 0 0-.526 1.575c0 1.008 1.893 2.1 4.8 2.1 3.471 0 5.365-1.806 5.365-4.305 0-2.226-1.368-3.591-4.355-4.494-2.125-.63-2.8-1.239-2.8-2.079a1.544 1.544 0 0 1 1.746-1.47 2.3 2.3 0 0 1 2.23 1.806 7.2 7.2 0 0 0 2.356-.588.962.962 0 0 0 .61-.861 1.552 1.552 0 0 0-.252-.819 5.729 5.729 0 0 0-5.049-2.394c-3.134 0-5.175 1.869-5.175 4.41 0 2.415 1.536 3.885 4.5 4.767 2.1.63 2.65 1.071 2.65 1.869-.008.833-.723 1.316-2.301 1.316zm20.657 2.6V634.33h4.165v-2.1a.607.607 0 0 0-.61-.756h-10.989a11.647 11.647 0 0 0-.231 2.037.675.675 0 0 0 .694.819h3.471v11.256c0 .4.232.588.758.588h2.734zm19.216-7.35c0-4.872-3.239-7.6-7.257-7.6-4.039 0-7.279 2.73-7.279 7.6s3.24 7.6 7.279 7.6c4.01.02 7.249-2.706 7.249-7.582zm-7.152 4.746c-2.124 0-3.87-1.869-3.87-4.914 0-3.171 1.7-4.578 3.639-4.578 2.124 0 3.87 1.869 3.87 4.914-.008 3.189-1.711 4.596-3.647 4.596zm8.938-3.528c0 3.948 2.314 6.384 6.058 6.384 3.766 0 6.08-2.436 6.08-6.384v-7.959a.608.608 0 0 0-.758-.609h-2.755v8.82c0 2.079-.968 3.276-2.567 3.276-1.556 0-2.545-1.2-2.545-3.276v-8.253c0-.525-.316-.756-.968-.756a10.457 10.457 0 0 0-2.545.294v8.463zm24.273-3.7a5.168 5.168 0 0 0 2.5-.756 1 1 0 0 0 .484-.756 1.213 1.213 0 0 0-.21-.714 7.317 7.317 0 0 0-13.148 4.326 7.6 7.6 0 0 0 7.784 7.98c4.123 0 5.827-2.1 5.827-4.641v-2.436a.952.952 0 0 0-1.115-1.092h-5.033a7.116 7.116 0 0 0-.231 1.722.718.718 0 0 0 .736.84h2.125v1.239c0 .966-.611 1.491-2.1 1.491-2.356 0-4.46-1.953-4.46-5.166 0-2.793 1.557-4.284 3.639-4.284a3.368 3.368 0 0 1 3.194 2.269zm9.014 9.828v-5.943h4.985v5.355c0 .4.232.588.757.588h2.753v-14.069a.607.607 0 0 0-.757-.609h-2.756v5.926H932.8v-5.355c0-.5-.3-.735-.947-.735a9.513 9.513 0 0 0-2.545.294v13.986c0 .4.231.588.757.588h2.735zm12.865-3.423a1.66 1.66 0 0 0-1.746 1.764 1.853 1.853 0 0 0 1.851 1.911 1.66 1.66 0 0 0 1.746-1.764 1.853 1.853 0 0 0-1.859-1.889z" transform="translate(-774.562 -583.219)"/></svg><svg width="146.84" height="19.38" viewBox="-1 -1 146.84 19.38" id="txt2" x="242.63" y="44.56" xmlns="http://www.w3.org/2000/svg"><defs><style>.bcls-1{fill:#fff;fill-rule:evenodd}</style></defs><path id="btxt2.svg" class="bcls-1" d="M449.249 623.174v-13.536h4.76v-2.4a.693.693 0 0 0-.7-.864h-12.546a13.315 13.315 0 0 0-.265 2.328.771.771 0 0 0 .794.936h3.966V622.5c0 .456.265.672.866.672h3.125zm21.961-8.4c0-5.568-3.7-8.688-8.294-8.688-4.616 0-8.318 3.12-8.318 8.688s3.7 8.688 8.318 8.688c4.592 0 8.294-3.12 8.294-8.688zm-8.174 5.424c-2.428 0-4.423-2.136-4.423-5.616 0-3.624 1.947-5.232 4.159-5.232 2.428 0 4.423 2.136 4.423 5.616.005 3.624-1.947 5.234-4.159 5.234zm26.149-5.424c0-5.568-3.7-8.688-8.294-8.688-4.616 0-8.318 3.12-8.318 8.688s3.7 8.688 8.318 8.688c4.592 0 8.294-3.12 8.294-8.688zm-8.174 5.424c-2.428 0-4.423-2.136-4.423-5.616 0-3.624 1.947-5.232 4.159-5.232 2.428 0 4.423 2.136 4.423 5.616 0 3.624-1.947 5.234-4.159 5.234zm21.565 2.3c0 .456.264.672.865.672h3.149v-5.808a32.851 32.851 0 0 0 5.481-9.912c.217-.72-.192-1.08-.961-1.08h-2.837a27.92 27.92 0 0 1-3.558 7.512l-3.678-7.128a.858.858 0 0 0-.865-.576 4.687 4.687 0 0 0-2.933 1.752l5.337 9.5v5.07zm26.23-7.728c0-5.568-3.7-8.688-8.294-8.688-4.616 0-8.318 3.12-8.318 8.688s3.7 8.688 8.318 8.688c4.588.004 8.294-3.116 8.294-8.684zm-8.174 5.424c-2.428 0-4.423-2.136-4.423-5.616 0-3.624 1.947-5.232 4.159-5.232 2.428 0 4.423 2.136 4.423 5.616 0 3.628-1.947 5.238-4.159 5.238zm10.215-4.032c0 4.512 2.644 7.3 6.924 7.3 4.3 0 6.947-2.784 6.947-7.3v-9.1a.693.693 0 0 0-.865-.7H540.7v10.08c0 2.376-1.106 3.744-2.933 3.744-1.779 0-2.909-1.368-2.909-3.744v-9.432c0-.6-.361-.864-1.106-.864a11.956 11.956 0 0 0-2.909.336v9.672zm26.541 6.648a1.08 1.08 0 0 0 1.081.576 6.084 6.084 0 0 0 2.765-1.152V607.07a.693.693 0 0 0-.865-.7h-3.15v9.552l-5.745-9.192a1.081 1.081 0 0 0-1.082-.576 6.093 6.093 0 0 0-2.765 1.152v15.168a.694.694 0 0 0 .866.7h3.149v-9.552zm17.869-10.872a5.915 5.915 0 0 0 2.861-.864 1.143 1.143 0 0 0 .553-.864 1.388 1.388 0 0 0-.241-.816 8.361 8.361 0 0 0-15.025 4.944 8.681 8.681 0 0 0 8.895 9.12c4.712 0 6.659-2.4 6.659-5.3v-2.784a1.088 1.088 0 0 0-1.274-1.248h-5.746a8.132 8.132 0 0 0-.264 1.968.821.821 0 0 0 .841.96h2.428v1.416c0 1.1-.7 1.7-2.4 1.7-2.692 0-5.1-2.232-5.1-5.9 0-3.192 1.779-4.9 4.159-4.9a3.848 3.848 0 0 1 3.654 2.572zm7.957 7.32a1.9 1.9 0 0 0-2 2.016 2.118 2.118 0 0 0 2.116 2.184 1.9 1.9 0 0 0 2-2.016 2.118 2.118 0 0 0-2.116-2.18z" transform="translate(-440.5 -606.094)"/></svg><svg width="110.28" height="19.38" viewBox="-1 -1 110.28 19.38" id="txt3" x="242.63" y="63.94" xmlns="http://www.w3.org/2000/svg"><defs><style>.ccls-1{fill:#fff;fill-rule:evenodd}</style></defs><path id="ctxt3.svg" class="ccls-1" d="M467.516 623.174v-13.536h4.76v-2.4a.693.693 0 0 0-.7-.864H459.03a13.311 13.311 0 0 0-.264 2.328.771.771 0 0 0 .793.936h3.967V622.5c0 .456.264.672.865.672h3.125zm21.961-8.4c0-5.568-3.7-8.688-8.294-8.688-4.615 0-8.318 3.12-8.318 8.688s3.7 8.688 8.318 8.688c4.592 0 8.294-3.12 8.294-8.688zM481.3 620.2c-2.428 0-4.424-2.136-4.424-5.616 0-3.624 1.947-5.232 4.159-5.232 2.428 0 4.424 2.136 4.424 5.616.004 3.622-1.944 5.232-4.159 5.232zm26.148-5.424c0-5.568-3.7-8.688-8.294-8.688-4.615 0-8.317 3.12-8.317 8.688s3.7 8.688 8.317 8.688c4.596-.002 8.298-3.122 8.298-8.69zm-8.173 5.424c-2.428 0-4.424-2.136-4.424-5.616 0-3.624 1.947-5.232 4.159-5.232 2.428 0 4.424 2.136 4.424 5.616.004 3.622-1.944 5.232-4.155 5.232zm33.343-5.424c0-5.568-3.7-8.688-8.293-8.688-4.616 0-8.318 3.12-8.318 8.688s3.7 8.688 8.318 8.688c4.595-.002 8.297-3.122 8.297-8.69zm-8.173 5.424c-2.428 0-4.424-2.136-4.424-5.616 0-3.624 1.948-5.232 4.159-5.232 2.428 0 4.424 2.136 4.424 5.616.004 3.622-1.944 5.232-4.155 5.232zm21.449 2.976V620.8a.694.694 0 0 0-.7-.864h-4.856c-1.25 0-1.61-.6-1.61-2.424v-10.49c0-.576-.337-.84-1.082-.84a10.876 10.876 0 0 0-2.909.336v10.992c0 3.816 1.25 5.664 4.928 5.664h6.235zm7.572 0c4.784 0 8.246-3.192 8.246-8.4s-3.462-8.4-8.1-8.4h-6.491v11.4c0 3.744 1.562 5.4 4.952 5.4h1.394zm4.207-8.4c0 3.48-1.779 5.136-4.279 5.136h-.529c-1.25 0-1.731-.6-1.731-2.424v-7.848h2.26c2.506-.002 4.283 1.654 4.283 5.134zm7.27 4.488a1.9 1.9 0 0 0-2 2.016 2.118 2.118 0 0 0 2.115 2.184 1.9 1.9 0 0 0 2-2.016 2.118 2.118 0 0 0-2.111-2.186z" transform="translate(-458.781 -606.094)"/></svg><svg width="171.5" height="43.38" viewBox="-1 -1 171.5 43.38" id="txt4" y="171.72" xmlns="http://www.w3.org/2000/svg"><defs><style>.dcls-1{fill:#fff;fill-rule:evenodd}</style></defs><path id="dtxt4.svg" class="dcls-1" d="M844.26 611.942a5.908 5.908 0 0 0 2.86-.864 1.14 1.14 0 0 0 .553-.864 1.386 1.386 0 0 0-.24-.816 8.361 8.361 0 0 0-15.025 4.944 8.68 8.68 0 0 0 8.895 9.12c4.711 0 6.659-2.4 6.659-5.3v-2.784a1.088 1.088 0 0 0-1.274-1.248h-5.746a8.132 8.132 0 0 0-.264 1.968.821.821 0 0 0 .841.96h2.428v1.416c0 1.1-.7 1.7-2.4 1.7-2.693 0-5.1-2.232-5.1-5.9 0-3.192 1.779-4.9 4.159-4.9a3.851 3.851 0 0 1 3.654 2.568zm10.368 11.232v-16.152c0-.576-.36-.84-1.081-.84a10.943 10.943 0 0 0-2.933.336V622.5c0 .456.264.672.865.672h3.149zm17.319-16.008c.1-.48-.169-.792-.89-.792h-3.2a51.838 51.838 0 0 1-3.726 12.24l-3.847-11.688a.969.969 0 0 0-1.082-.768 6.194 6.194 0 0 0-3.029 1.176l5.65 15.84h3.077a1.434 1.434 0 0 0 1.587-.792 63.085 63.085 0 0 0 5.46-15.216zm12.688 16.008V620.8a.693.693 0 0 0-.7-.864h-4.805c-1.13 0-1.611-.6-1.611-2.424v-1.08h5.626v-2.376a.694.694 0 0 0-.7-.864h-4.929v-3.552h6.66a10.992 10.992 0 0 0 .264-2.328.77.77 0 0 0-.793-.936h-10.118v11.184c0 4.248 1.442 5.616 5.168 5.616h5.938zm16.973 0v-13.536h4.76v-2.4a.694.694 0 0 0-.7-.864h-12.546a13.22 13.22 0 0 0-.265 2.328.771.771 0 0 0 .794.936h3.966V622.5c0 .456.265.672.866.672h3.125zm10.285 0v-6.792h5.7v6.12c0 .456.265.672.866.672h3.149v-16.1a.694.694 0 0 0-.866-.7h-3.152v6.768h-5.7v-6.12c0-.576-.337-.84-1.082-.84a10.876 10.876 0 0 0-2.909.336V622.5c0 .456.264.672.865.672h3.126zm23.821 0V620.8a.693.693 0 0 0-.7-.864h-4.808c-1.13 0-1.611-.6-1.611-2.424v-1.08h5.626v-2.376a.694.694 0 0 0-.7-.864H928.6v-3.552h6.659a10.929 10.929 0 0 0 .265-2.328.771.771 0 0 0-.793-.936h-10.123v11.184c0 4.248 1.442 5.616 5.168 5.616h5.938zm16.461-.72a.78.78 0 0 0 .937.72h3.246l-1.758-16.152a.72.72 0 0 0-.866-.648H950.9l-4.111 7.56-3.823-7.08a1.075 1.075 0 0 0-1.105-.672 6.779 6.779 0 0 0-2.885.912l-1.659 15.336c-.048.552.313.744.865.744h3.174l1.009-10.536 3.03 5.568h1.947a1.124 1.124 0 0 0 1.154-.552l2.74-5.016zm-131.236 24.72V644.8a.693.693 0 0 0-.7-.864h-4.856c-1.25 0-1.611-.6-1.611-2.424v-10.49c0-.576-.336-.84-1.081-.84a10.876 10.876 0 0 0-2.909.336v10.992c0 3.816 1.25 5.664 4.928 5.664h6.226zm12.345 0V644.8a.693.693 0 0 0-.7-.864h-4.808c-1.13 0-1.611-.6-1.611-2.424v-1.08h5.626v-2.376a.694.694 0 0 0-.7-.864h-4.928v-3.552h6.659a10.929 10.929 0 0 0 .265-2.328.771.771 0 0 0-.794-.936h-10.12v11.184c0 4.248 1.442 5.616 5.168 5.616h5.938zm12.944-11.232a5.908 5.908 0 0 0 2.86-.864 1.14 1.14 0 0 0 .553-.864 1.386 1.386 0 0 0-.24-.816 8.361 8.361 0 0 0-15.025 4.944 8.68 8.68 0 0 0 8.895 9.12c4.712 0 6.659-2.4 6.659-5.3v-2.784a1.088 1.088 0 0 0-1.274-1.248h-5.746a8.132 8.132 0 0 0-.264 1.968.821.821 0 0 0 .841.96h2.428v1.416c0 1.1-.7 1.7-2.4 1.7-2.692 0-5.1-2.232-5.1-5.9 0-3.192 1.779-4.9 4.159-4.9a3.849 3.849 0 0 1 3.654 2.568zm22 2.832c0-5.568-3.7-8.688-8.294-8.688-4.616 0-8.318 3.12-8.318 8.688s3.7 8.688 8.318 8.688c4.593 0 8.296-3.12 8.296-8.688zm-8.174 5.424c-2.428 0-4.424-2.136-4.424-5.616 0-3.624 1.948-5.232 4.159-5.232 2.429 0 4.424 2.136 4.424 5.616.002 3.624-1.945 5.234-4.157 5.234zm20.049 3.264c3.582 0 5.049-2.232 5.049-6.144v-10.3c0-.576-.361-.84-1.082-.84a11.075 11.075 0 0 0-2.933.336v11.16c0 1.728-.745 2.52-2.332 2.52a7.2 7.2 0 0 1-2.332-.432 3.446 3.446 0 0 0-.528 1.8c.002.938 1.949 1.9 4.16 1.9zm7.876-7.3c0 4.512 2.645 7.3 6.924 7.3 4.3 0 6.947-2.784 6.947-7.3v-9.1a.693.693 0 0 0-.865-.7h-3.149v10.08c0 2.376-1.106 3.744-2.933 3.744-1.779 0-2.909-1.368-2.909-3.744v-9.432c0-.6-.361-.864-1.106-.864a11.956 11.956 0 0 0-2.909.336v9.672zm26.541 6.648a1.08 1.08 0 0 0 1.082.576 6.085 6.085 0 0 0 2.764-1.152V631.07a.693.693 0 0 0-.865-.7h-3.15v9.552l-5.745-9.192a1.081 1.081 0 0 0-1.082-.576 6.093 6.093 0 0 0-2.765 1.152v15.168a.694.694 0 0 0 .866.7h3.149v-9.552zm10.941.36v-16.148c0-.576-.361-.84-1.082-.84a10.943 10.943 0 0 0-2.933.336V646.5c0 .456.264.672.865.672h3.15zm18.861-8.4c0-5.568-3.7-8.688-8.294-8.688-4.615 0-8.317 3.12-8.317 8.688s3.7 8.688 8.317 8.688c4.594.004 8.296-3.116 8.296-8.684zm-8.173 5.424c-2.428 0-4.424-2.136-4.424-5.616 0-3.624 1.947-5.232 4.159-5.232 2.428 0 4.424 2.136 4.424 5.616.002 3.628-1.946 5.238-4.157 5.238zm21.143 3.264c1.539 0 2.428-.936 2.428-1.656a4.018 4.018 0 0 0-.264-1.488H959a2.109 2.109 0 0 1-1.394-.528 7.88 7.88 0 0 1-1.755-2.3 5.49 5.49 0 0 0 3.125-5.112c0-3.744-2.644-6-6.9-6h-5.5V646.5c0 .456.265.672.866.672h3.125v-5.136a6.63 6.63 0 0 0 1.611.288 11.634 11.634 0 0 0 2.572 4.056 3.6 3.6 0 0 0 2.544 1.082zm-6.731-13.824h1.274c1.9 0 3.053.936 3.053 2.736s-1.226 2.664-3.029 2.664a5.553 5.553 0 0 1-1.3-.12v-5.28zm15.811 10.56a10.317 10.317 0 0 1-4.351-.936 3.568 3.568 0 0 0-.6 1.8c0 1.152 2.164 2.4 5.481 2.4 3.967 0 6.13-2.064 6.13-4.92 0-2.544-1.562-4.1-4.976-5.136-2.428-.72-3.2-1.416-3.2-2.376a1.764 1.764 0 0 1 2-1.68 2.625 2.625 0 0 1 2.548 2.064 8.22 8.22 0 0 0 2.693-.672 1.1 1.1 0 0 0 .7-.984 1.773 1.773 0 0 0-.288-.936 6.546 6.546 0 0 0-5.77-2.736c-3.582 0-5.914 2.136-5.914 5.04 0 2.76 1.755 4.44 5.145 5.448 2.4.72 3.029 1.224 3.029 2.136.001.94-.822 1.494-2.625 1.494zm10.8 3.264a1.871 1.871 0 0 0 2.092-1.9 2 2 0 0 0-2.14-1.968 1.854 1.854 0 0 0-2.091 1.872 2.006 2.006 0 0 0 2.145 2zm-1.562-5.664a.713.713 0 0 0 .865.7h2.14a81.262 81.262 0 0 0 .577-9.24v-2.232a.884.884 0 0 0-1.106-.864 12.451 12.451 0 0 0-2.981.336v2.76a71.6 71.6 0 0 0 .511 8.546z" transform="translate(-809.781 -606.094)"/></svg><svg width="151.97" height="44.56" viewBox="-1 -1 151.97 44.56" id="txt5" x="242.63" xmlns="http://www.w3.org/2000/svg"><defs><style>.ecls-1{fill:#fefefe;fill-rule:evenodd}</style></defs><path id="etxt5.svg" class="ecls-1" d="M836.909 614.774c0-5.568-3.7-8.688-8.294-8.688-4.616 0-8.318 3.12-8.318 8.688s3.7 8.688 8.318 8.688a9.018 9.018 0 0 0 1.971-.216c.7 2.16 2.236 3.432 3.943 3.432 1.274 0 2.26-.672 2.26-1.392a3.868 3.868 0 0 0-.265-1.464h-.673a3.089 3.089 0 0 1-2.62-1.608c2.236-1.414 3.678-3.936 3.678-7.44zm-8.174 5.424c-2.428 0-4.423-2.136-4.423-5.616 0-3.624 1.947-5.232 4.159-5.232 2.428 0 4.423 2.136 4.423 5.616 0 3.624-1.947 5.234-4.159 5.234zm10.215-4.032c0 4.512 2.645 7.3 6.924 7.3 4.3 0 6.947-2.784 6.947-7.3v-9.1a.693.693 0 0 0-.865-.7h-3.149v10.08c0 2.376-1.106 3.744-2.933 3.744-1.779 0-2.909-1.368-2.909-3.744v-9.432c0-.6-.361-.864-1.106-.864a11.956 11.956 0 0 0-2.909.336v9.672zm20.858 7.008v-16.152c0-.576-.361-.84-1.082-.84a10.943 10.943 0 0 0-2.933.336V622.5c0 .456.264.672.865.672h3.15zm13.664-11.088a6.5 6.5 0 0 0 2.716-.744 1.184 1.184 0 0 0 .7-1.008 1.562 1.562 0 0 0-.217-.84c-1.106-2.016-3.462-3.408-6.635-3.408-4.567 0-8.029 3.192-8.029 8.256a8.69 8.69 0 0 0 8.991 9.12c2.885 0 5.337-1.368 5.337-2.376a3.571 3.571 0 0 0-.6-1.776 8.4 8.4 0 0 1-3.895.888 5.529 5.529 0 0 1-5.818-5.928c0-3.168 1.707-4.92 3.895-4.92a3.676 3.676 0 0 1 3.555 2.736zm18.276-2.856a1.8 1.8 0 0 0 .312-.936c0-.864-.625-1.488-2.885-2.16a27.3 27.3 0 0 1-6.466 7.128v-6.24a.863.863 0 0 0-1.082-.864 12.171 12.171 0 0 0-2.933.336v15.984a.693.693 0 0 0 .865.7h3.15v-5.668c.48-.288 1.129-.7 1.658-1.056a23.11 23.11 0 0 0 2.789 4.992 4.163 4.163 0 0 0 3.438 2.016c1.394 0 2.476-.864 2.476-1.632a4.4 4.4 0 0 0-.265-1.56h-.384a2.1 2.1 0 0 1-1.539-.744 23.665 23.665 0 0 1-3.486-5.376 22.167 22.167 0 0 0 4.352-4.92zm14.664 10.97a10.317 10.317 0 0 1-4.351-.936 3.568 3.568 0 0 0-.6 1.8c0 1.152 2.164 2.4 5.481 2.4 3.967 0 6.13-2.064 6.13-4.92 0-2.544-1.562-4.1-4.976-5.136-2.428-.72-3.2-1.416-3.2-2.376a1.764 1.764 0 0 1 2-1.68 2.625 2.625 0 0 1 2.548 2.064 8.22 8.22 0 0 0 2.693-.672 1.1 1.1 0 0 0 .7-.984 1.766 1.766 0 0 0-.289-.936 6.543 6.543 0 0 0-5.769-2.736c-3.582 0-5.914 2.136-5.914 5.04 0 2.76 1.755 4.44 5.144 5.448 2.4.72 3.03 1.224 3.03 2.136-.006.934-.824 1.488-2.627 1.488zm16.427 2.976v-13.538h4.76v-2.4a.693.693 0 0 0-.7-.864h-12.546a13.315 13.315 0 0 0-.265 2.328.771.771 0 0 0 .794.936h3.966V622.5c0 .456.265.672.866.672h3.125zm7.217 0l1.01-3.168h5.745l.818 2.544a.921.921 0 0 0 1.082.624h3.365l-5.745-15.84a1.456 1.456 0 0 0-1.707-1.128 7.647 7.647 0 0 0-2.885.6l-5.649 15.528a.644.644 0 0 0 .721.84h3.245zm5.794-6.264h-3.823l1.9-5.928zm18.21 6.552c1.539 0 2.429-.936 2.429-1.656a4.018 4.018 0 0 0-.265-1.488h-.457a2.111 2.111 0 0 1-1.394-.528 7.88 7.88 0 0 1-1.755-2.3 5.49 5.49 0 0 0 3.125-5.112c0-3.744-2.644-6-6.9-6h-5.5v16.12c0 .456.264.672.865.672h3.125v-5.136a6.63 6.63 0 0 0 1.611.288 11.649 11.649 0 0 0 2.572 4.056 3.6 3.6 0 0 0 2.544 1.082zm-6.731-13.824h1.271c1.9 0 3.053.936 3.053 2.736s-1.226 2.664-3.029 2.664a5.558 5.558 0 0 1-1.3-.12v-5.28zm18.2 13.536v-13.538h4.76v-2.4a.693.693 0 0 0-.7-.864h-12.545a13.311 13.311 0 0 0-.264 2.328.771.771 0 0 0 .793.936h3.967V622.5c0 .456.264.672.865.672h3.125zm-110.357 25.2v-4.7a9.723 9.723 0 0 0 2.331.312c3.727 0 6.515-2.3 6.515-6.1 0-3.96-2.644-6.312-6.923-6.312h-5.938v16.1a.693.693 0 0 0 .865.7h3.15zm0-13.536h1.754c1.9 0 3.054.984 3.054 2.952 0 1.944-1.25 2.9-3.126 2.9a8.962 8.962 0 0 1-1.682-.144v-5.712zm14.691 13.536v-16.154c0-.576-.361-.84-1.082-.84a10.943 10.943 0 0 0-2.933.336V647.7c0 .456.264.672.865.672h3.15zm14.114 0V646a.694.694 0 0 0-.7-.864h-4.808c-1.13 0-1.61-.6-1.61-2.424v-1.08h5.625v-2.376a.693.693 0 0 0-.7-.864h-4.928v-3.552h6.659a10.992 10.992 0 0 0 .264-2.328.77.77 0 0 0-.793-.936h-10.115v11.184c0 4.248 1.442 5.616 5.169 5.616h5.938zm12.568-11.088a6.511 6.511 0 0 0 2.717-.744 1.185 1.185 0 0 0 .7-1.008 1.562 1.562 0 0 0-.217-.84c-1.105-2.016-3.461-3.408-6.635-3.408-4.567 0-8.029 3.192-8.029 8.256a8.69 8.69 0 0 0 8.991 9.12c2.885 0 5.337-1.368 5.337-2.376a3.571 3.571 0 0 0-.6-1.776 8.4 8.4 0 0 1-3.9.888 5.529 5.529 0 0 1-5.817-5.928c0-3.168 1.706-4.92 3.894-4.92a3.676 3.676 0 0 1 3.56 2.734zm16.175 11.088V646a.694.694 0 0 0-.7-.864h-4.808c-1.129 0-1.61-.6-1.61-2.424v-1.08h5.625v-2.376a.693.693 0 0 0-.7-.864h-4.928v-3.552h6.659a10.992 10.992 0 0 0 .264-2.328.77.77 0 0 0-.793-.936h-10.115v11.184c0 4.248 1.443 5.616 5.169 5.616h5.938zm6.933-2.976a10.317 10.317 0 0 1-4.351-.936 3.568 3.568 0 0 0-.6 1.8c0 1.152 2.163 2.4 5.481 2.4 3.967 0 6.13-2.064 6.13-4.92 0-2.544-1.562-4.1-4.976-5.136-2.428-.72-3.2-1.416-3.2-2.376a1.764 1.764 0 0 1 2-1.68 2.626 2.626 0 0 1 2.548 2.064 8.22 8.22 0 0 0 2.693-.672 1.1 1.1 0 0 0 .7-.984 1.766 1.766 0 0 0-.289-.936 6.543 6.543 0 0 0-5.769-2.736c-3.582 0-5.914 2.136-5.914 5.04 0 2.76 1.755 4.44 5.144 5.448 2.4.72 3.03 1.224 3.03 2.136-.005.934-.823 1.488-2.626 1.488zm10.756-.936a1.9 1.9 0 0 0-2 2.016 2.117 2.117 0 0 0 2.115 2.184 1.9 1.9 0 0 0 2-2.016 2.118 2.118 0 0 0-2.114-2.186zm6.6 0a1.9 1.9 0 0 0-2 2.016 2.118 2.118 0 0 0 2.116 2.184 1.9 1.9 0 0 0 2-2.016 2.118 2.118 0 0 0-2.114-2.186zm6.6 0a1.9 1.9 0 0 0-2 2.016 2.118 2.118 0 0 0 2.116 2.184 1.9 1.9 0 0 0 2-2.016 2.117 2.117 0 0 0-2.112-2.186z" transform="translate(-820.312 -606.094)"/></svg><svg width="179.75" height="44.56" viewBox="-1 -1 179.75 44.56" id="txt6" y="127.16" xmlns="http://www.w3.org/2000/svg"><defs><style>.fcls-1{fill:#fefefe;fill-rule:evenodd}</style></defs><path id="ftxt6.svg" class="fcls-1" d="M807.912 619.262a1.9 1.9 0 0 0-2 2.016 2.118 2.118 0 0 0 2.116 2.184 1.9 1.9 0 0 0 2-2.016 2.117 2.117 0 0 0-2.116-2.184zm6.6 0a1.9 1.9 0 0 0-2 2.016 2.118 2.118 0 0 0 2.115 2.184 1.9 1.9 0 0 0 2-2.016 2.118 2.118 0 0 0-2.114-2.184zm6.6 0a1.9 1.9 0 0 0-2 2.016 2.118 2.118 0 0 0 2.116 2.184 1.9 1.9 0 0 0 2-2.016 2.118 2.118 0 0 0-2.113-2.184zm19.6 3.192a.78.78 0 0 0 .938.72h3.25l-1.755-16.152a.719.719 0 0 0-.865-.648h-2.837l-4.111 7.56-3.822-7.08a1.076 1.076 0 0 0-1.106-.672 6.787 6.787 0 0 0-2.885.912l-1.659 15.336c-.048.552.313.744.866.744h3.173l1.01-10.536 3.029 5.568h1.947a1.123 1.123 0 0 0 1.154-.552l2.741-5.016zm9.367.72l1.009-3.168h5.746l.817 2.544a.921.921 0 0 0 1.082.624h3.367l-5.746-15.84a1.456 1.456 0 0 0-1.707-1.128 7.651 7.651 0 0 0-2.885.6l-5.649 15.528a.644.644 0 0 0 .721.84h3.246zm5.793-6.264h-3.822l1.9-5.928zm20.543-7.68a1.8 1.8 0 0 0 .312-.936c0-.864-.625-1.488-2.885-2.16a27.3 27.3 0 0 1-6.466 7.128v-6.24a.863.863 0 0 0-1.082-.864 12.171 12.171 0 0 0-2.933.336v15.984a.693.693 0 0 0 .865.7h3.15v-5.668c.48-.288 1.129-.7 1.658-1.056a23.11 23.11 0 0 0 2.789 4.992 4.163 4.163 0 0 0 3.438 2.016c1.394 0 2.476-.864 2.476-1.632a4.4 4.4 0 0 0-.265-1.56h-.384a2.1 2.1 0 0 1-1.539-.744 23.665 23.665 0 0 1-3.486-5.376 22.167 22.167 0 0 0 4.352-4.92zm13.539 13.944V620.8a.693.693 0 0 0-.7-.864h-4.808c-1.13 0-1.611-.6-1.611-2.424v-1.08h5.626v-2.376a.694.694 0 0 0-.7-.864h-4.929v-3.552h6.66a10.992 10.992 0 0 0 .264-2.328.77.77 0 0 0-.793-.936h-10.115v11.184c0 4.248 1.442 5.616 5.168 5.616h5.938zm13.391 0v-16.152c0-.576-.361-.84-1.082-.84a10.948 10.948 0 0 0-2.933.336V622.5c0 .456.265.672.866.672h3.149zm10.289 0v-13.536h4.76v-2.4a.694.694 0 0 0-.7-.864h-12.546a13.22 13.22 0 0 0-.265 2.328.771.771 0 0 0 .794.936h3.966V622.5c0 .456.265.672.866.672h3.125zm24.786 0V620.8a.694.694 0 0 0-.7-.864h-4.808c-1.13 0-1.61-.6-1.61-2.424v-1.08h5.625v-2.376a.693.693 0 0 0-.7-.864H931.3v-3.552h6.659a10.992 10.992 0 0 0 .264-2.328.77.77 0 0 0-.793-.936h-10.117v11.184c0 4.248 1.442 5.616 5.169 5.616h5.938zm5.06 0l1.01-3.168h5.746l.817 2.544a.921.921 0 0 0 1.082.624h3.365l-5.745-15.84a1.456 1.456 0 0 0-1.707-1.128 7.651 7.651 0 0 0-2.885.6l-5.649 15.528a.644.644 0 0 0 .721.84h3.245zm5.794-6.264h-3.822l1.9-5.928zm12.153 3.288a10.318 10.318 0 0 1-4.352-.936 3.578 3.578 0 0 0-.6 1.8c0 1.152 2.164 2.4 5.481 2.4 3.967 0 6.131-2.064 6.131-4.92 0-2.544-1.563-4.1-4.977-5.136-2.428-.72-3.2-1.416-3.2-2.376a1.764 1.764 0 0 1 2-1.68 2.627 2.627 0 0 1 2.549 2.064 8.221 8.221 0 0 0 2.692-.672 1.1 1.1 0 0 0 .7-.984 1.773 1.773 0 0 0-.288-.936 6.546 6.546 0 0 0-5.77-2.736c-3.582 0-5.914 2.136-5.914 5.04 0 2.76 1.755 4.44 5.145 5.448 2.4.72 3.029 1.224 3.029 2.136-.006.936-.823 1.49-2.626 1.49zm12.686 2.3c0 .456.264.672.865.672h3.149v-5.808a32.876 32.876 0 0 0 5.482-9.912c.216-.72-.193-1.08-.962-1.08h-2.837a27.92 27.92 0 0 1-3.558 7.512l-3.678-7.128a.858.858 0 0 0-.865-.576 4.687 4.687 0 0 0-2.933 1.752l5.337 9.5v5.07zm-124.07 25.872v-13.532h4.76v-2.4a.694.694 0 0 0-.7-.864h-12.547a13.311 13.311 0 0 0-.264 2.328.771.771 0 0 0 .793.936h3.967V647.7c0 .456.264.672.865.672h3.126zm21.961-8.4c0-5.568-3.7-8.688-8.294-8.688-4.616 0-8.318 3.12-8.318 8.688s3.7 8.688 8.318 8.688c4.59.004 8.29-3.116 8.29-8.684zm-8.174 5.43c-2.428 0-4.423-2.136-4.423-5.616 0-3.624 1.947-5.232 4.159-5.232 2.428 0 4.423 2.136 4.423 5.616 0 3.622-1.947 5.232-4.159 5.232zm26.444-2.112c0 1.248-.721 1.992-2.26 1.992h-1.009c-1.25 0-1.731-.6-1.731-2.424v-1.466h2.6c1.583 0 2.4.696 2.4 1.896zm-.553-6.744c0 1.08-.673 1.872-2.163 1.872h-2.308v-3.768h2.308c1.49-.002 2.163.79 2.163 1.894zm-8.486-4.968v11.4c0 3.816 1.467 5.4 4.952 5.4h1.876c4.158 0 6.25-1.944 6.25-4.752a4 4 0 0 0-2.813-3.936 3.82 3.82 0 0 0 2.26-3.576c0-2.664-2.091-4.536-6.082-4.536h-6.443zm15.117 9.792c0 4.512 2.644 7.3 6.923 7.3 4.3 0 6.948-2.784 6.948-7.3v-9.1a.693.693 0 0 0-.865-.7h-3.15v10.08c0 2.376-1.106 3.744-2.933 3.744-1.779 0-2.908-1.368-2.908-3.744v-9.432c0-.6-.361-.864-1.106-.864a11.956 11.956 0 0 0-2.909.336v9.672zm20.857 7.008v-16.154c0-.576-.36-.84-1.082-.84a10.935 10.935 0 0 0-2.932.336V647.7c0 .456.264.672.865.672h3.149zm14.162 0V646a.693.693 0 0 0-.7-.864h-4.856c-1.25 0-1.611-.6-1.611-2.424v-10.49c0-.576-.336-.84-1.082-.84a10.868 10.868 0 0 0-2.908.336v10.992c0 3.816 1.25 5.664 4.928 5.664h6.226zm7.573 0c4.784 0 8.246-3.192 8.246-8.4s-3.462-8.4-8.1-8.4h-6.49v11.4c0 3.744 1.563 5.4 4.953 5.4h1.394zm4.207-8.4c0 3.48-1.779 5.136-4.279 5.136h-.529c-1.25 0-1.731-.6-1.731-2.424v-7.848h2.26c2.5-.002 4.279 1.654 4.279 5.134zm7.27 4.488a1.9 1.9 0 0 0-2 2.016 2.117 2.117 0 0 0 2.115 2.184 1.9 1.9 0 0 0 1.995-2.016 2.117 2.117 0 0 0-2.11-2.186z" transform="translate(-805.906 -606.094)"/></svg><svg width="98.38" height="13.56" viewBox="-1 -1 98.38 13.56" id="txt_cta" x="242.63" y="83.32" xmlns="http://www.w3.org/2000/svg"><defs><style>.gcls-1{fill:#fff;fill-rule:evenodd}</style></defs><path id="gtxt_cta.svg" class="gcls-1" d="M1252.17 685.674a7.008 7.008 0 0 1-2.86-.608 2.145 2.145 0 0 0-.32 1.008c0 .624 1.43 1.472 3.47 1.472 2.54 0 4.03-1.328 4.03-3.184 0-1.648-1.04-2.72-3.25-3.376-1.81-.528-2.39-1.056-2.39-1.824a1.423 1.423 0 0 1 1.61-1.328 1.979 1.979 0 0 1 1.97 1.488 4.908 4.908 0 0 0 1.54-.384.631.631 0 0 0 .38-.56 1.04 1.04 0 0 0-.21-.624 4.265 4.265 0 0 0-3.72-1.792c-2.29 0-3.84 1.344-3.84 3.248 0 1.856 1.26 2.976 3.57 3.632 1.6.448 2.07.88 2.07 1.616s-.66 1.216-2.05 1.216zm9.75 1.68v-4.688h4.41v4.272c0 .288.16.416.55.416h1.71v-10.768c0-.288-.16-.432-.54-.432h-1.72v4.672h-4.41v-4.3c0-.336-.19-.48-.64-.48a5.873 5.873 0 0 0-1.6.192v10.7c0 .288.16.416.54.416h1.7zm20.7-5.6c0-3.76-2.46-5.792-5.44-5.792s-5.43 2.032-5.43 5.792 2.45 5.792 5.43 5.792 5.44-2.032 5.44-5.792zm-5.34 3.92c-1.78 0-3.25-1.536-3.25-4.064 0-2.624 1.49-3.776 3.07-3.776 1.78 0 3.24 1.536 3.24 4.064 0 2.624-1.47 3.776-3.06 3.776zm10.75 1.68v-3.28a7.111 7.111 0 0 0 1.82.24c2.45 0 4.29-1.488 4.29-4 0-2.608-1.71-4.16-4.5-4.16h-3.85v10.768c0 .288.16.432.55.432h1.69zm0-9.344h1.48a2.072 2.072 0 0 1 2.35 2.224 2.1 2.1 0 0 1-2.4 2.208 7.836 7.836 0 0 1-1.43-.128v-4.3zm22.17 9.136a.614.614 0 0 0 .61.336 3.267 3.267 0 0 0 1.57-.656v-10.24c0-.288-.16-.432-.55-.432h-1.69v7.36l-4.43-7.152a.623.623 0 0 0-.61-.336 3.267 3.267 0 0 0-1.57.656v10.24c0 .288.16.432.55.432h1.7v-7.36zm16.2-5.392c0-3.76-2.45-5.792-5.43-5.792s-5.43 2.032-5.43 5.792 2.45 5.792 5.43 5.792 5.43-2.032 5.43-5.792zm-5.33 3.92c-1.78 0-3.26-1.536-3.26-4.064 0-2.624 1.49-3.776 3.08-3.776 1.78 0 3.24 1.536 3.24 4.064 0 2.624-1.48 3.776-3.06 3.776zm20.6 1.2a51.484 51.484 0 0 0 3.26-10.064c.08-.432-.15-.656-.72-.656h-1.53a41.575 41.575 0 0 1-2.39 8.624l-2.21-8.1a.758.758 0 0 0-.93-.528h-1.74a41.656 41.656 0 0 1-2.38 8.624l-2.3-8.32a.549.549 0 0 0-.63-.432 3.717 3.717 0 0 0-1.71.64l3.3 10.688h1.62a.843.843 0 0 0 .93-.48 42.978 42.978 0 0 0 2.53-7.92l2.27 8.4h1.7a.811.811 0 0 0 .93-.476z" transform="translate(-1246.56 -674.969)"/></svg><svg width="236.69" height="61.94" viewBox="-1 -1 236.69 61.94" id="txt_ef" y="65.22" xmlns="http://www.w3.org/2000/svg"><defs><style>.hcls-1{fill:#fefefe;fill-rule:evenodd}</style></defs><path id="htxt_ef.svg" class="hcls-1" d="M794.213 591.346a5.172 5.172 0 0 0 2.5-.756 1 1 0 0 0 .484-.756 1.208 1.208 0 0 0-.211-.714 7.316 7.316 0 0 0-13.147 4.326 7.6 7.6 0 0 0 7.783 7.98c4.123 0 5.827-2.1 5.827-4.641v-2.436a.952.952 0 0 0-1.115-1.092h-5.024a7.116 7.116 0 0 0-.231 1.722.719.719 0 0 0 .736.84h2.125v1.239c0 .966-.61 1.491-2.1 1.491-2.356 0-4.459-1.953-4.459-5.166 0-2.793 1.556-4.284 3.639-4.284a3.367 3.367 0 0 1 3.193 2.247zm9.073 9.828v-14.133c0-.5-.316-.735-.947-.735a9.571 9.571 0 0 0-2.566.294v13.986c0 .4.231.588.757.588h2.756zm15.154-14.007c.084-.42-.147-.693-.778-.693h-2.8a45.351 45.351 0 0 1-3.261 10.71l-3.366-10.227a.847.847 0 0 0-.946-.672 5.422 5.422 0 0 0-2.651 1.029l4.944 13.86h2.692a1.255 1.255 0 0 0 1.389-.693 55.2 55.2 0 0 0 4.777-13.314zm11.1 14.007V599.1a.607.607 0 0 0-.61-.756h-4.207c-.989 0-1.409-.525-1.409-2.121v-.945h4.922v-2.079a.607.607 0 0 0-.61-.756h-4.312v-3.113h5.827a9.618 9.618 0 0 0 .231-2.037.674.674 0 0 0-.694-.819h-8.856v9.786c0 3.717 1.262 4.914 4.522 4.914h5.2zm14.851 0V589.33h4.165v-2.1a.607.607 0 0 0-.61-.756h-10.979a11.647 11.647 0 0 0-.231 2.037.674.674 0 0 0 .694.819h3.47v11.256c0 .4.232.588.757.588h2.735zm9 0v-5.943h4.986v5.355c0 .4.231.588.757.588h2.756v-14.091a.608.608 0 0 0-.758-.609h-2.755v5.926h-4.986v-5.355c0-.5-.294-.735-.947-.735a9.518 9.518 0 0 0-2.545.294v13.986c0 .4.232.588.757.588h2.735zm20.844 0V599.1a.607.607 0 0 0-.61-.756h-4.207c-.989 0-1.409-.525-1.409-2.121v-.945h4.922v-2.079a.607.607 0 0 0-.61-.756h-4.311v-3.113h5.827a9.618 9.618 0 0 0 .231-2.037.674.674 0 0 0-.694-.819h-8.856v9.786c0 3.717 1.262 4.914 4.522 4.914h5.2zm17.838-9.828a5.172 5.172 0 0 0 2.5-.756 1 1 0 0 0 .483-.756 1.213 1.213 0 0 0-.21-.714 7.316 7.316 0 0 0-13.147 4.326 7.6 7.6 0 0 0 7.783 7.98c4.123 0 5.827-2.1 5.827-4.641v-2.436a.952.952 0 0 0-1.115-1.092h-5.028a7.116 7.116 0 0 0-.231 1.722.718.718 0 0 0 .736.84h2.129v1.239c0 .966-.61 1.491-2.1 1.491-2.356 0-4.459-1.953-4.459-5.166 0-2.793 1.556-4.284 3.639-4.284a3.368 3.368 0 0 1 3.194 2.247zm9.073 9.828v-14.133c0-.5-.316-.735-.947-.735a9.571 9.571 0 0 0-2.566.294v13.986c0 .4.231.588.757.588h2.756zm6.161 0v-5.4h4.9V593.7a.607.607 0 0 0-.61-.756h-4.291v-3.614h5.827a11.176 11.176 0 0 0 .21-2.037.674.674 0 0 0-.694-.819h-8.835v14.112c0 .4.231.588.757.588h2.735zm14.561 0V589.33h4.165v-2.1a.607.607 0 0 0-.61-.756h-10.98a11.647 11.647 0 0 0-.231 2.037.674.674 0 0 0 .694.819h3.471v11.256c0 .4.231.588.757.588h2.735zm18.742 0V589.33h4.165v-2.1a.607.607 0 0 0-.61-.756h-10.98a11.556 11.556 0 0 0-.232 2.037.675.675 0 0 0 .694.819h3.471v11.256c0 .4.232.588.758.588h2.734zm9 0v-5.943h4.99v5.355c0 .4.231.588.757.588h2.756v-14.091a.607.607 0 0 0-.757-.609H954.6v5.926h-4.99v-5.355c0-.5-.294-.735-.946-.735a9.521 9.521 0 0 0-2.546.294v13.986c0 .4.232.588.758.588h2.734zm13.232 0l.883-2.772h5.028l.715 2.226a.806.806 0 0 0 .947.546h2.945l-5.028-13.86a1.274 1.274 0 0 0-1.494-.987 6.692 6.692 0 0 0-2.524.525l-4.943 13.587a.563.563 0 0 0 .631.735h2.84zm5.069-5.481h-3.345l1.662-5.187zm11.58 5.481V589.33h4.165v-2.1a.607.607 0 0 0-.61-.756h-10.981a11.647 11.647 0 0 0-.231 2.037.674.674 0 0 0 .694.819H976v11.256c0 .4.232.588.757.588h2.735zm7.325-15.582a1.66 1.66 0 0 0-1.746 1.764 1.835 1.835 0 0 0 1.241 1.806 4.1 4.1 0 0 1-1.283 2.058 1.244 1.244 0 0 0 .568.756 2.529 2.529 0 0 0 1.851-1.134 5 5 0 0 0 1.22-3.3 1.852 1.852 0 0 0-1.851-1.95zm8.521 12.978a9.031 9.031 0 0 1-3.808-.819 3.13 3.13 0 0 0-.525 1.575c0 1.008 1.893 2.1 4.8 2.1 3.471 0 5.36-1.806 5.36-4.305 0-2.226-1.363-3.591-4.35-4.494-2.125-.63-2.8-1.239-2.8-2.079a1.544 1.544 0 0 1 1.746-1.47 2.3 2.3 0 0 1 2.23 1.806 7.147 7.147 0 0 0 2.352-.588.964.964 0 0 0 .61-.861 1.531 1.531 0 0 0-.25-.819 5.723 5.723 0 0 0-5.047-2.394c-3.135 0-5.175 1.869-5.175 4.41 0 2.415 1.535 3.885 4.5 4.767 2.1.63 2.651 1.071 2.651 1.869-.001.819-.716 1.302-2.294 1.302zM781.03 623.476c3.134 0 4.417-1.953 4.417-5.376v-9.009c0-.5-.315-.735-.946-.735a9.69 9.69 0 0 0-2.567.294v9.765c0 1.512-.652 2.205-2.04 2.205a6.292 6.292 0 0 1-2.041-.378 3.016 3.016 0 0 0-.463 1.575c0 .819 1.704 1.659 3.64 1.659zm6.891-6.384c0 3.948 2.314 6.384 6.058 6.384 3.766 0 6.08-2.436 6.08-6.384v-7.959a.608.608 0 0 0-.758-.609h-2.755v8.82c0 2.079-.968 3.276-2.567 3.276-1.557 0-2.545-1.2-2.545-3.276v-8.253c0-.525-.316-.756-.968-.756a10.457 10.457 0 0 0-2.545.294v8.463zm18.757 3.528a9.023 9.023 0 0 1-3.807-.819 3.121 3.121 0 0 0-.526 1.575c0 1.008 1.893 2.1 4.8 2.1 3.471 0 5.364-1.806 5.364-4.3 0-2.226-1.367-3.591-4.354-4.494-2.125-.63-2.8-1.239-2.8-2.079a1.544 1.544 0 0 1 1.746-1.47 2.3 2.3 0 0 1 2.23 1.806 7.2 7.2 0 0 0 2.356-.588.962.962 0 0 0 .61-.861 1.544 1.544 0 0 0-.253-.819 5.726 5.726 0 0 0-5.048-2.394c-3.135 0-5.175 1.869-5.175 4.41 0 2.415 1.535 3.885 4.5 4.767 2.1.63 2.65 1.071 2.65 1.869 0 .814-.715 1.297-2.293 1.297zm14.374 2.6v-11.84h4.165v-2.1a.607.607 0 0 0-.61-.756h-10.981a11.647 11.647 0 0 0-.231 2.037.674.674 0 0 0 .694.819h3.471v11.256c0 .4.231.588.757.588h2.735zm21.393.252c1.346 0 2.125-.819 2.125-1.449a3.515 3.515 0 0 0-.232-1.3h-.4a1.85 1.85 0 0 1-1.22-.462 6.9 6.9 0 0 1-1.535-2.016 4.8 4.8 0 0 0 2.734-4.473c0-3.276-2.314-5.25-6.037-5.25h-4.817v14.112c0 .4.231.588.757.588h2.735v-4.492a5.787 5.787 0 0 0 1.409.252 10.194 10.194 0 0 0 2.251 3.549 3.146 3.146 0 0 0 2.23.945zm-5.89-12.1h1.115c1.662 0 2.671.819 2.671 2.394s-1.073 2.331-2.65 2.331a4.856 4.856 0 0 1-1.136-.105v-4.62zm13.254 11.844v-14.125c0-.5-.315-.735-.946-.735a9.58 9.58 0 0 0-2.567.294v13.986c0 .4.231.588.757.588h2.756zm12.283-9.828a5.171 5.171 0 0 0 2.5-.756 1 1 0 0 0 .484-.756 1.208 1.208 0 0 0-.211-.714 7.316 7.316 0 0 0-13.147 4.326 7.6 7.6 0 0 0 7.783 7.98c4.123 0 5.827-2.1 5.827-4.641V616.4a.951.951 0 0 0-1.115-1.092h-5.027a7.114 7.114 0 0 0-.232 1.722.719.719 0 0 0 .737.84h2.124v1.239c0 .966-.61 1.491-2.1 1.491-2.356 0-4.46-1.953-4.46-5.166 0-2.793 1.557-4.284 3.639-4.284a3.368 3.368 0 0 1 3.198 2.25zm9.013 9.828v-5.943h4.986v5.355c0 .4.231.588.757.588h2.752v-14.083a.607.607 0 0 0-.757-.609h-2.756v5.922h-4.986v-5.355c0-.5-.294-.735-.946-.735a9.521 9.521 0 0 0-2.546.294v13.986c0 .4.232.588.758.588h2.734zm17.5 0V611.38h4.165v-2.1a.607.607 0 0 0-.61-.756h-10.983a11.651 11.651 0 0 0-.232 2.037.675.675 0 0 0 .695.819h3.471v11.256c0 .4.231.588.757.588h2.732zm15.5 0v-5.4h4.9v-2.079a.607.607 0 0 0-.61-.756h-4.291v-3.601h5.827a11.176 11.176 0 0 0 .21-2.037.674.674 0 0 0-.694-.819h-8.835v14.112c0 .4.231.588.757.588h2.735zm20.989-7.35c0-4.872-3.239-7.6-7.257-7.6-4.039 0-7.279 2.73-7.279 7.6s3.24 7.6 7.279 7.6c4.019.01 7.263-2.72 7.263-7.592zm-7.152 4.746c-2.125 0-3.871-1.869-3.871-4.914 0-3.171 1.7-4.578 3.639-4.578 2.125 0 3.871 1.869 3.871 4.914.001 3.179-1.703 4.586-3.638 4.586zm18.5 2.856c1.346 0 2.124-.819 2.124-1.449a3.516 3.516 0 0 0-.231-1.3h-.4a1.848 1.848 0 0 1-1.22-.462 6.9 6.9 0 0 1-1.536-2.016 4.8 4.8 0 0 0 2.735-4.473c0-3.276-2.314-5.25-6.037-5.25h-4.818v14.112c0 .4.232.588.758.588h2.734v-4.488a5.8 5.8 0 0 0 1.41.252 10.179 10.179 0 0 0 2.251 3.549 3.146 3.146 0 0 0 2.232.945zm-5.891-12.1h1.115c1.662 0 2.672.819 2.672 2.394s-1.073 2.331-2.651 2.331a4.866 4.866 0 0 1-1.136-.105v-4.62zm22.256 6.384h-3.366a14.266 14.266 0 0 1 3.366-5.334v5.334zm-7 .756a4.52 4.52 0 0 0 .5 1.533 1.072 1.072 0 0 0 1.094.546h5.406v2.016a.607.607 0 0 0 .757.609h2.736V620.6h1.83v-2.08c0-.525-.189-.756-.589-.756H956.3v-8.652c0-.5-.232-.735-.968-.735a7.529 7.529 0 0 0-3.029.525 19.641 19.641 0 0 0-6.503 9.618zm34.141-2.646c0-4.872-3.24-7.6-7.258-7.6-4.039 0-7.278 2.73-7.278 7.6s3.239 7.6 7.278 7.6c4.015.014 7.255-2.716 7.255-7.588zm-7.153 4.746c-2.124 0-3.87-1.869-3.87-4.914 0-3.171 1.7-4.578 3.639-4.578 2.125 0 3.871 1.869 3.871 4.914-.003 3.183-1.707 4.59-3.643 4.59zm18.5 2.856c1.346 0 2.125-.819 2.125-1.449a3.515 3.515 0 0 0-.232-1.3h-.4a1.85 1.85 0 0 1-1.221-.462 6.912 6.912 0 0 1-1.535-2.016 4.8 4.8 0 0 0 2.735-4.473c0-3.276-2.314-5.25-6.038-5.25h-4.817v14.112c0 .4.231.588.757.588h2.731v-4.484a5.8 5.8 0 0 0 1.409.252 10.194 10.194 0 0 0 2.251 3.549 3.147 3.147 0 0 0 2.233.945zm-5.89-12.1h1.115c1.662 0 2.671.819 2.671 2.394s-1.072 2.331-2.65 2.331A4.856 4.856 0 0 1 985.4 616v-4.62zm20.337 9.24a9.089 9.089 0 0 1-4.04-.924 3.154 3.154 0 0 0-.52 1.575c0 .9 2.23 2.205 5.15 2.205 3.68 0 5.72-2.142 5.72-5.061 0-3.15-2.29-4.83-5.09-4.83a7.2 7.2 0 0 0-1.49.168l.34-2.373h5.74v-2.1a.607.607 0 0 0-.61-.756h-8.12l-.97 7.413.49.42a1.022 1.022 0 0 0 .73.294 2.39 2.39 0 0 0 .51-.063 11.467 11.467 0 0 1 2.16-.21c1.58 0 2.8.609 2.8 2.121s-1.222 2.137-2.802 2.137zm-173.1 24.066c0 .4.232.588.757.588h2.756v-5.082a28.737 28.737 0 0 0 4.8-8.673c.19-.63-.168-.945-.841-.945h-2.482a24.425 24.425 0 0 1-3.114 6.573l-3.218-6.221a.752.752 0 0 0-.757-.5 4.1 4.1 0 0 0-2.567 1.533l4.67 8.316v4.431zm19.338.588V643.2a.607.607 0 0 0-.61-.756h-4.207c-.989 0-1.41-.525-1.41-2.121v-.945h4.923v-2.079a.607.607 0 0 0-.61-.756h-4.313v-3.113h5.827a9.555 9.555 0 0 0 .232-2.037.675.675 0 0 0-.694-.819h-8.857v9.786c0 3.717 1.263 4.914 4.523 4.914h5.2zm4.428 0l.883-2.772h5.028l.715 2.226a.807.807 0 0 0 .947.546h2.945l-5.028-13.86a1.273 1.273 0 0 0-1.493-.987 6.688 6.688 0 0 0-2.524.525l-4.944 13.587a.563.563 0 0 0 .631.735h2.84zm5.07-5.481h-3.345l1.662-5.187zm15.934 5.733c1.346 0 2.125-.819 2.125-1.449a3.5 3.5 0 0 0-.232-1.3h-.4a1.846 1.846 0 0 1-1.22-.462 6.9 6.9 0 0 1-1.536-2.016 4.8 4.8 0 0 0 2.735-4.473c0-3.276-2.314-5.25-6.038-5.25h-4.817v14.112c0 .4.231.588.757.588h2.735v-4.48a5.8 5.8 0 0 0 1.409.252 10.194 10.194 0 0 0 2.251 3.549 3.147 3.147 0 0 0 2.234.945zm-5.89-12.1h1.115c1.662 0 2.671.819 2.671 2.394s-1.072 2.331-2.65 2.331a4.861 4.861 0 0 1-1.136-.105v-4.62zm13.835 9.24a9.031 9.031 0 0 1-3.808-.819 3.131 3.131 0 0 0-.526 1.575c0 1.008 1.894 2.1 4.8 2.1 3.471 0 5.364-1.806 5.364-4.3 0-2.226-1.367-3.591-4.355-4.494-2.124-.63-2.8-1.239-2.8-2.079a1.544 1.544 0 0 1 1.746-1.47 2.3 2.3 0 0 1 2.229 1.806 7.2 7.2 0 0 0 2.357-.588.964.964 0 0 0 .61-.861 1.553 1.553 0 0 0-.253-.819 5.727 5.727 0 0 0-5.049-2.394c-3.134 0-5.174 1.869-5.174 4.41 0 2.415 1.535 3.885 4.5 4.767 2.1.63 2.651 1.071 2.651 1.869.004.834-.711 1.317-2.289 1.317zm27.83-4.746c0-4.872-3.24-7.6-7.257-7.6-4.039 0-7.279 2.73-7.279 7.6s3.24 7.6 7.279 7.6c4.02.022 7.26-2.704 7.26-7.58zm-7.152 4.746c-2.125 0-3.871-1.869-3.871-4.914 0-3.171 1.7-4.578 3.639-4.578 2.125 0 3.871 1.869 3.871 4.914.003 3.191-1.701 4.598-3.636 4.598zm18.768 2.6v-2.05a.607.607 0 0 0-.61-.756h-4.25c-1.094 0-1.409-.525-1.409-2.121v-9.177c0-.5-.3-.735-.947-.735a9.513 9.513 0 0 0-2.545.294v9.618c0 3.339 1.094 4.956 4.312 4.956h5.449zm6.626 0c4.186 0 7.215-2.793 7.215-7.35s-3.029-7.35-7.089-7.35h-5.68v9.975c0 3.276 1.367 4.725 4.333 4.725h1.221zm3.681-7.35c0 3.045-1.557 4.494-3.745 4.494h-.462c-1.094 0-1.515-.525-1.515-2.121v-6.843h1.977c2.191 0 3.748 1.449 3.748 4.494zm9.478 4.746a9.023 9.023 0 0 1-3.807-.819 3.121 3.121 0 0 0-.526 1.575c0 1.008 1.893 2.1 4.8 2.1 3.471 0 5.364-1.806 5.364-4.3 0-2.226-1.367-3.591-4.354-4.494-2.125-.63-2.8-1.239-2.8-2.079a1.544 1.544 0 0 1 1.746-1.47 2.3 2.3 0 0 1 2.23 1.806 7.2 7.2 0 0 0 2.356-.588.962.962 0 0 0 .61-.861 1.544 1.544 0 0 0-.253-.819 5.726 5.726 0 0 0-5.048-2.394c-3.135 0-5.175 1.869-5.175 4.41 0 2.415 1.535 3.885 4.5 4.767 2.1.63 2.65 1.071 2.65 1.869.003.838-.712 1.321-2.29 1.321zm9.411-.819a1.661 1.661 0 0 0-1.746 1.764 1.853 1.853 0 0 0 1.852 1.911 1.661 1.661 0 0 0 1.746-1.764 1.853 1.853 0 0 0-1.851-1.887z" transform="translate(-777.375 -585.594)"/></svg></svg>