<svg width="486" height="619" xmlns="http://www.w3.org/2000/svg" xmlns:xlink="http://www.w3.org/1999/xlink"><svg width="311.11" height="618.71" viewBox="-1 -1 311.11 618.71" xmlns="http://www.w3.org/2000/svg"><g data-name="Layer 2"><g data-name="Layer 1"><path fill="#fff" stroke="#000" stroke-miterlimit="10" stroke-width=".66" d="M308.78 616.39H.48L.33 95.59 154.53.39l154.1 95.2.15 520.8z"/><g data-name="Layer 2"><path d="M154.53.39L.33 95.59v165.8l154.2-95.2V.39zm0 165.8l154.1 95.2V95.59L154.53.39v165.8zm.1 189.2L.53 450.59v165.8l154.1-95.2v-165.8zm0 165.8l154.2 95.2v-165.8l-154.2-95.2v165.8z" data-name="Layer 1-2"/></g></g></g></svg><svg viewBox="-1 -1 72 12" width="72" height="12" x="311.11" y="49.15" xmlns="http://www.w3.org/2000/svg"><g data-name="Layer 2"><g data-name="Layer 1"><g data-name="Layer 2"><g data-name="Layer 1-2"><g data-name="Layer 2-2"><g data-name="Layer 1-2-2"><g data-name="Layer 2-2-2"><path d="M2.66 2.71a1.09 1.09 0 0 1 0-.49.81.81 0 0 1 .91-.63.81.81 0 0 1 .92.66.74.74 0 0 1 0 .08.74.74 0 0 1 0 .12V3H7v-.67C7 .31 5 0 3.61 0 1.83 0 .38.55.12 2.07a3 3 0 0 0 0 1.26C.57 5.24 4.13 5.78 4.64 7a1.12 1.12 0 0 1 0 .67.87.87 0 0 1-1 .63.88.88 0 0 1-1-.73.74.74 0 0 1 0-.12v-.88H0v.71C0 9.36 1.76 10 3.63 10s3.26-.57 3.53-2.14a4.33 4.33 0 0 0 0-1.55c-.43-1.93-4.22-2.51-4.5-3.6zm32.55 0a1.17 1.17 0 0 1 0-.48.81.81 0 0 1 .91-.62.8.8 0 0 1 .86.72.74.74 0 0 1 0 .12V3h2.44v-.63C39.43.37 37.5 0 36.1 0c-1.76 0-3.21.54-3.47 2a3 3 0 0 0 0 1.24c.45 1.88 4 2.43 4.48 3.64a1.18 1.18 0 0 1 0 .67.81.81 0 0 1-.95.62.88.88 0 0 1-1-.73.74.74 0 0 1 0-.11v-.79h-2.61v.71c0 2.05 1.73 2.75 3.58 2.75s3.21-.57 3.5-2.11a4.25 4.25 0 0 0 0-1.5c-.42-2-4.2-2.57-4.46-3.64zm22.65 5.1L55.51.3h-3.72v9.23h2.44l-.14-7.75 2.52 7.75h3.61V.3h-2.44zM10.71.3L8.85 9.6h2.71L13 1l1.36 8.67H17L15.15.3zM25.8.3l-1.27 7.29L23.28.3h-4.07L19 9.6h2.44l.11-8.6 1.72 8.67h2.53L27.53 1l.07 8.67h2.51L29.87.33zM49 .3h-2.5v6.9a1.53 1.53 0 0 1 0 .35 1 1 0 0 1-1.23.67 1 1 0 0 1-.7-.67 1.41 1.41 0 0 1 0-.35V.3H42v7.34c.17 1.74 1.63 2.33 3.5 2.33s3.3-.57 3.5-2.33A4.53 4.53 0 0 0 49 7V.3zm17.4 4.1v1.34h1.07v1.32a1.61 1.61 0 0 1 0 .35 1.09 1.09 0 0 1-1.34.67 1 1 0 0 1-.7-.67 2.21 2.21 0 0 1 0-.35V2.84a1.79 1.79 0 0 1 0-.44 1.09 1.09 0 0 1 1.4-.56 1 1 0 0 1 .6.56 2.27 2.27 0 0 1 0 .36v.52H70V3a5.25 5.25 0 0 0 0-.62C69.67.6 68.16.05 66.39.05s-3.26.55-3.5 2.33v4.5a5 5 0 0 0 0 .62c.16 1.7 1.75 2.33 3.5 2.33s3.34-.6 3.5-2.33V4.4z" fill="#fff" data-name="Layer 1-2-2-2"/></g></g></g></g></g></g></g></svg><svg viewBox="-1 -1 72 12" width="72" height="12" x="383.11" y="49.15" xmlns="http://www.w3.org/2000/svg"><path d="M2.7 2.7v-.5c.1-.4.5-.7.9-.6.4-.1.8.2.9.6V3H7v-.7C7 .3 5 0 3.6 0 1.8 0 .4.6.1 2.1c-.1.4-.1.8 0 1.2.4 1.9 4 2.5 4.5 3.7.1.2.1.5 0 .7-.1.4-.6.7-1 .6-.4.1-.9-.3-1-.7v-1H0v.7C0 9.4 1.8 10 3.6 10s3.3-.6 3.5-2.1c.1-.5.1-1 0-1.6-.4-1.9-4.2-2.5-4.4-3.6zm32.5 0v-.5c.1-.4.5-.7.9-.6.4 0 .8.3.9.7V3h2.4v-.6c0-2-1.9-2.4-3.3-2.4-1.8 0-3.2.5-3.5 2-.1.4-.1.8 0 1.2.5 1.9 4 2.4 4.5 3.6.1.2.1.5 0 .7-.1.4-.5.7-1 .6-.5.1-.9-.3-1-.7v-.9h-2.6v.7c0 2.1 1.7 2.8 3.6 2.8s3.2-.6 3.5-2.1c.1-.5.1-1 0-1.5-.4-2-4.2-2.6-4.4-3.7zm22.7 5.1L55.5.3h-3.7v9.2h2.4l-.1-7.8 2.5 7.8h3.6V.3h-2.4l.1 7.5zM10.7.3L8.9 9.6h2.7L13 1l1.4 8.7H17L15.1.3h-4.4zm15.1 0l-1.3 7.3L23.3.3h-4.1L19 9.6h2.4l.1-8.6 1.7 8.7h2.5L27.5 1l.1 8.7h2.5L29.9.4 25.8.3zM49 .3h-2.5v7.2c-.2.5-.7.8-1.2.7-.3-.1-.6-.3-.7-.7V.3H42v7.3c.2 1.7 1.6 2.3 3.5 2.3s3.3-.6 3.5-2.3V.3zm17.4 4.1v1.3h1.1v1.6c-.2.5-.8.8-1.3.7-.3-.1-.6-.3-.7-.7V2.4c.2-.5.9-.8 1.4-.6.3.1.5.3.6.6v.9H70v-.9C69.7.6 68.2.1 66.4.1s-3.3.6-3.5 2.3v5.1c.2 1.7 1.8 2.3 3.5 2.3s3.3-.6 3.5-2.3V4.4h-3.5z"/></svg><svg width="174" height="49.15" viewBox="-1 -1 174 49.15" x="311.11" xmlns="http://www.w3.org/2000/svg"><g data-name="Layer 2"><g data-name="Layer 1"><g data-name="Layer 2"><g data-name="Layer 1-2"><g data-name="Layer 2-2"><g data-name="Layer 1-2-2"><path d="M61.4 11.05a11.69 11.69 0 0 0-9.06-4 14.06 14.06 0 0 0-14 14.11V22a14.26 14.26 0 0 0 13.6 14.9h.28a11.49 11.49 0 0 0 9.18-4.37v3.77h6.49V7.6H61.4zm-8.1 19.76a8.77 8.77 0 0 1-8.53-8.94 8.48 8.48 0 0 1 17 0 8.56 8.56 0 0 1-8.17 8.94h-.24m51.88-19.76a11.69 11.69 0 0 0-9.06-4 14.06 14.06 0 0 0-14 14.12V22a14.24 14.24 0 0 0 13.56 14.9H96a11.51 11.51 0 0 0 9.18-4.39v3.77h6.43V7.6h-6.43zm-8.1 19.75a8.77 8.77 0 0 1-8.56-8.92 8.48 8.48 0 0 1 17 0 8.56 8.56 0 0 1-8.17 8.94h-.24m60.59-3.87L149.9 7.6h-6.92l11.57 27.18-5.09 12.37h6.7L172 7.6h-6.84l-7.4 19.35zM142.24 7.6h-7.68l-6.37 9.09-6.41-9.09h-7.92l10.2 14.09-10.61 14.61h7.96l6.69-9.56 6.9 9.56h7.95l-10.82-14.58L142.24 7.6zM72.28 0h6.55v36.3h-6.55zM17.21 22.66h11.22a10 10 0 0 1-10.14 7.74A11.69 11.69 0 0 1 6.6 18.71v-.23A11.69 11.69 0 0 1 18 6.55a10.84 10.84 0 0 1 10.2 6.21L34 9.23A17.86 17.86 0 0 0 18 .09 17.86 17.86 0 0 0 0 17.85v.62a17.92 17.92 0 0 0 17.44 18.39h.82a17.1 17.1 0 0 0 17.21-17v-3.58H17.21z" data-name="Isolation Mode"/></g></g></g></g></g></g></svg></svg>