<svg width="118" height="36" xmlns="http://www.w3.org/2000/svg" xmlns:xlink="http://www.w3.org/1999/xlink"><svg width="118" height="36" viewBox="-1 -1 118 36" xmlns="http://www.w3.org/2000/svg"><g data-name="Layer 2"><g data-name="Layer 1"><path fill="#fdf5ed" d="M22.05 0h5.8v26.61h-5.8V0zm8.62 0h5.8v26.61h-5.8V0zm27.45 7.39L48.38 34h-6.17l3.08-7.66-7.22-18.95h6.21l3.89 11.56h.07l3.71-11.56h6.17zM19.4 17.16a9.49 9.49 0 00-9.7-9.72A9.49 9.49 0 000 17.16a9.48 9.48 0 008.78 9.69l5-5.52h-4A4.17 4.17 0 119.8 13a4.15 4.15 0 014.2 4.16v9.36h5.4v-9.36z"/><path d="M71.68 21.67a1.84 1.84 0 00-1.86-2 1.86 1.86 0 00-1.89 2v4.56a.46.46 0 01-.47.42H65a.45.45 0 01-.45-.46V13.06a.45.45 0 01.45-.46h2.47a.46.46 0 01.47.42v4.48a3.91 3.91 0 012.91-1.08c3 0 4.23 2.28 4.23 5v4.84a.46.46 0 01-.47.42h-2.46a.46.46 0 01-.47-.42z" fill="#cf477e"/><path d="M86.6 21.71a5.36 5.36 0 11-5.35-5.29 5.28 5.28 0 015.35 5.29zm-3.4 0a2 2 0 10-2 2 2 2 0 002-2.02zm21.98-.32v4.84a.41.41 0 01-.45.42h-2.5a.42.42 0 01-.43-.42v-4.56a1.88 1.88 0 10-3.75-.08v4.64a.42.42 0 01-.43.42h-2.51a.44.44 0 01-.45-.42v-4.56a1.84 1.84 0 00-1.86-2 1.86 1.86 0 00-1.89 2v4.56a.42.42 0 01-.43.42H88a.43.43 0 01-.43-.46v-9a.45.45 0 01.45-.46h2.47a.46.46 0 01.47.42v.36a3.94 3.94 0 012.83-1.08A3.73 3.73 0 0197 18.08a4.46 4.46 0 013.68-1.66c3.17 0 4.5 2.28 4.5 4.97zM113 23c.1-.14.27-.38.53-.38a.64.64 0 01.33.1l1.66 1.06a.5.5 0 01.31.44.87.87 0 01-.09.32 4.86 4.86 0 01-4.53 2.46 5 5 0 01-5.18-5.2 5.11 5.11 0 015.12-5.33 4.82 4.82 0 014.85 4.9v.42c0 .28-.1.58-.53.58h-6a1.71 1.71 0 001.8 1.63 2.12 2.12 0 001.73-1zm-3.48-2.51h3.2a1.65 1.65 0 00-3.2 0z" fill="#cf477e"/></g></g></svg></svg>