<?xml version="1.0" encoding="utf-8"?><svg width="381" height="216" viewBox="0 0 381 216" xmlns="http://www.w3.org/2000/svg" xmlns:xlink="http://www.w3.org/1999/xlink"><svg id="cta_over" data-name="Layer 1" viewBox="-6 -6 133 47.2" width="133" height="47.2" x="248"><defs><style>.acls-1{fill:#5e868e}</style></defs><title>cta_over</title><path class="acls-1" d="M87.86 18.98h5.64l-2.75-6.74-2.89 6.74zM67.38 12.65a3.38 3.38 0 0 0-2.34-.69h-2.48v5.91h2.47a3.07 3.07 0 0 0 3.44-3 2.87 2.87 0 0 0-1.09-2.22zM32.04 11.69a5.915 5.915 0 1 0 0 11.83 5.87 5.87 0 0 0 5.91-5.83v-.08a6.15 6.15 0 0 0-5.91-5.92z"/><path class="acls-1" d="M0 0v35.2h121V0H0zm17.5 24.89a7.41 7.41 0 0 1-5.12-2.09 7.38 7.38 0 0 1-2.07-5.2 7.51 7.51 0 0 1 2.19-5.23 7.16 7.16 0 0 1 5.1-2.06 6.24 6.24 0 0 1 4.81 2.06v-1.64h1.24v3.43h-1.24a5.87 5.87 0 0 0-4.81-2.36 5.855 5.855 0 1 0-.1 11.71 6 6 0 0 0 4.81-2.48h1.48a6.87 6.87 0 0 1-6.29 3.86zm14.57 0a7.29 7.29 0 1 1 7.29-7.42 7.37 7.37 0 0 1-7.32 7.42zm26.5-12.93h-1.78v11.41h1.79v1.24h-4.95v-1.24h1.79V12.51l-5.64 12.1h-1.1l-5.18-12.1v10.86h1.79v1.24h-5v-1.24h1.79V11.96h-1.79v-1.23h3.85l5.09 11.83 5.5-11.83h3.85v1.23zm10 6.05a4.22 4.22 0 0 1-3.3 1.1H62.7v4.26h1.8v1.24h-5v-1.24h1.79V11.96H59.5v-1.23h5.64a4.89 4.89 0 0 1 3.3 1 4.54 4.54 0 0 1 1.65 3.3 6.31 6.31 0 0 1-1.48 2.98zm13.75 6.6h-2.71l-4.26-6h.55a5.68 5.68 0 0 0 3-.55 3.18 3.18 0 0 0 1.51-2.75 3.22 3.22 0 0 0-1.07-2.51 3.33 3.33 0 0 0-2.75-.83h-2.75v11.4h1.66v1.24h-4.82v-1.24h1.82V11.96h-1.82v-1.23h6.05a4.85 4.85 0 0 1 3.57 1.07 4.5 4.5 0 0 1 1.51 3.58 4.19 4.19 0 0 1-4.12 4.26h-.14l2.89 3.85h1.79v1.1h.14zm16.22 0H93.5v-1.24h1.79l-1.37-3.16h-6.47l-1.37 3.16h1.79v1.24h-4.96v-1.24h1.79l5.09-11.41H88v-1.23h3.71l5.5 12.65H99v1.24h-.41zm12.24 0h-2.71l-4.26-6h.55a5.68 5.68 0 0 0 3-.55 3.18 3.18 0 0 0 1.51-2.75 3.22 3.22 0 0 0-1.07-2.51 3.33 3.33 0 0 0-2.75-.83h-2.75v11.4h1.65v1.24h-4.81v-1.24h1.79V11.96h-1.79v-1.23h6.05a4.85 4.85 0 0 1 3.57 1.07 4.5 4.5 0 0 1 1.51 3.58 4.19 4.19 0 0 1-4.12 4.26h-.14l2.89 3.85h1.79v1.1h.14z"/></svg><svg id="cta_up" data-name="Layer 1" viewBox="-6 -6 133 47.2" width="133" height="47.2" x="248" y="47.2"><defs><style>.bcls-1{fill:#fff}</style></defs><title>cta_up</title><path class="bcls-1" d="M87.86 18.98h5.64l-2.75-6.74-2.89 6.74zM67.38 12.65a3.38 3.38 0 0 0-2.34-.69h-2.48v5.91h2.47a3.07 3.07 0 0 0 3.44-3 2.87 2.87 0 0 0-1.09-2.22zM32.04 11.69a5.915 5.915 0 1 0 0 11.83 5.87 5.87 0 0 0 5.91-5.83v-.08a6.15 6.15 0 0 0-5.91-5.92z"/><path class="bcls-1" d="M0 0v35.2h121V0H0zm17.5 24.89a7.41 7.41 0 0 1-5.12-2.09 7.38 7.38 0 0 1-2.07-5.2 7.51 7.51 0 0 1 2.19-5.23 7.16 7.16 0 0 1 5.1-2.06 6.24 6.24 0 0 1 4.81 2.06v-1.64h1.24v3.43h-1.24a5.87 5.87 0 0 0-4.81-2.36 5.855 5.855 0 1 0-.1 11.71 6 6 0 0 0 4.81-2.48h1.48a6.87 6.87 0 0 1-6.29 3.86zm14.57 0a7.29 7.29 0 1 1 7.29-7.42 7.37 7.37 0 0 1-7.32 7.42zm26.5-12.93h-1.78v11.41h1.79v1.24h-4.95v-1.24h1.79V12.51l-5.64 12.1h-1.1l-5.18-12.1v10.86h1.79v1.24h-5v-1.24h1.79V11.96h-1.79v-1.23h3.85l5.09 11.83 5.5-11.83h3.85v1.23zm10 6.05a4.22 4.22 0 0 1-3.3 1.1H62.7v4.26h1.8v1.24h-5v-1.24h1.79V11.96H59.5v-1.23h5.64a4.89 4.89 0 0 1 3.3 1 4.54 4.54 0 0 1 1.65 3.3 6.31 6.31 0 0 1-1.48 2.98zm13.75 6.6h-2.71l-4.26-6h.55a5.68 5.68 0 0 0 3-.55 3.18 3.18 0 0 0 1.51-2.75 3.22 3.22 0 0 0-1.07-2.51 3.33 3.33 0 0 0-2.75-.83h-2.75v11.4h1.66v1.24h-4.82v-1.24h1.82V11.96h-1.82v-1.23h6.05a4.85 4.85 0 0 1 3.57 1.07 4.5 4.5 0 0 1 1.51 3.58 4.19 4.19 0 0 1-4.12 4.26h-.14l2.89 3.85h1.79v1.1h.14zm16.22 0H93.5v-1.24h1.79l-1.37-3.16h-6.47l-1.37 3.16h1.79v1.24h-4.96v-1.24h1.79l5.09-11.41H88v-1.23h3.71l5.5 12.65H99v1.24h-.41zm12.24 0h-2.71l-4.26-6h.55a5.68 5.68 0 0 0 3-.55 3.18 3.18 0 0 0 1.51-2.75 3.22 3.22 0 0 0-1.07-2.51 3.33 3.33 0 0 0-2.75-.83h-2.75v11.4h1.65v1.24h-4.81v-1.24h1.79V11.96h-1.79v-1.23h6.05a4.85 4.85 0 0 1 3.57 1.07 4.5 4.5 0 0 1 1.51 3.58 4.19 4.19 0 0 1-4.12 4.26h-.14l2.89 3.85h1.79v1.1h.14z"/></svg><svg id="logo" data-name="Layer 1" viewBox="-6 -6 248 215.26" width="248" height="215.26"><defs><style>.ccls-1{fill:#fff}</style></defs><title>logo</title><path class="ccls-1" d="M11.43 158.58a13 13 0 0 0-4.37-1.43c-1.95-.41-4.26-1-4.26-3.42 0-2.09 1.84-3.27 3.79-3.27a4.55 4.55 0 0 1 2.72.88 3 3 0 0 1 1.25 2.35h2v-4.91h-2v1.8a4.9 4.9 0 0 0-4.37-2.13 6.64 6.64 0 0 0-5.11 2.13 5.05 5.05 0 0 0-1 3.31 4.78 4.78 0 0 0 2.28 4.08 13.7 13.7 0 0 0 4.34 1.43c2.13.44 4.41.92 4.41 3.57a3.93 3.93 0 0 1-4.19 3.68 4.71 4.71 0 0 1-4.93-4.08h-2v5.51h2v-2.3a5.79 5.79 0 0 0 5.37 2.83c2.24 0 4.7-1.07 5.62-2.83a6.06 6.06 0 0 0 .84-3 4.75 4.75 0 0 0-2.39-4.2z"/><path class="ccls-1" d="M92.37 164.02v4.08h14.23v-4.19h-2.54v-5c0-1.84.22-3.42 1.69-4.67a6 6 0 0 1 3.86-1.43v-4.59a6.53 6.53 0 0 0-5.88 3.56v-3.34h-6.69v4.19h2.54v11.25h-2.54v1.9H94.8v-24h-5.66v2.28h3.23v9.11a8.92 8.92 0 0 0-8-4.78 10.06 10.06 0 0 0-9.58 7.74 10 10 0 0 0-19.49 0 10 10 0 0 0-19.2-1 13.31 13.31 0 0 0-1-2.11 9.41 9.41 0 0 0-8.3-4.63 8.77 8.77 0 0 0-8 4.63v-4.24h-5.6v2.28h3.23v21.9H13.2v2.28h8.89v-2.28h-3.23v-9a9 9 0 0 0 8 4.59 9.86 9.86 0 0 0 9.3-6.62 10.1 10.1 0 0 0 18.68.71H52.2a7.68 7.68 0 0 1-14.26-3.35h17.08a10.08 10.08 0 0 0 19.18 3.41h-2.57a7.68 7.68 0 0 1-14.26-3.35h17.15a11.27 11.27 0 0 0 1.64 4.67 10.49 10.49 0 0 0 8.27 4.59 9 9 0 0 0 7.94-4.59zm-65.87 2.31a7.76 7.76 0 0 1-7.72-7.83c0-4.74 3.68-7.53 7.87-7.76 4-.22 7.61 3 7.61 7.79a7.83 7.83 0 0 1-7.76 7.8zm11.44-9a7.76 7.76 0 0 1 7.46-6.69 7.86 7.86 0 0 1 7.9 6.69H37.93zm19.48 0a7.76 7.76 0 0 1 7.46-6.69 7.86 7.86 0 0 1 7.9 6.69H57.42zm27.31 9a7.77 7.77 0 1 1 0-15.54 7.77 7.77 0 0 1 0 15.54z"/><path class="ccls-1" d="M119.47 164.68a6.05 6.05 0 0 1-5.88-4.7h15.88l.15-1.58a10.25 10.25 0 0 0-2.76-7.35 10.51 10.51 0 0 0-7.35-3.16 10.365 10.365 0 0 0 .11 20.73 10.08 10.08 0 0 0 9.26-6.28h-4.68a5.46 5.46 0 0 1-4.73 2.34zm-.18-12.79a6.27 6.27 0 0 1 6.17 4.63h-11.91a6.08 6.08 0 0 1 5.73-4.63zM165.72 141.85h4.48v4.74h-4.48z"/><path class="ccls-1" d="M185.97 158.18l5-5.51h2.23v-4.19h-9v3.46h1.65l-3 3.42-3-3.42h1.65v-3.46h-15.84v15.44h-4.68v-7.44c0-2.24 0-4.19-1.54-6a7.57 7.57 0 0 0-5.66-2.5 7.05 7.05 0 0 0-6.43 4.12 6.68 6.68 0 0 0-6.1-4.12 6.5 6.5 0 0 0-5.66 3.42v-2.94h-6.61v4.19h2.54v11.25h-2.54v4.19h9.56v-4.19H136v-6.06a5.73 5.73 0 0 1 1.07-4 3.83 3.83 0 0 1 3.12-1.43 3.6 3.6 0 0 1 3.23 1.8 7.75 7.75 0 0 1 .59 3.67v6h-2.54v4.19h9.56v-4.19h-2.54v-6.32a5.28 5.28 0 0 1 .92-3.71 4.35 4.35 0 0 1 3.31-1.47 3.84 3.84 0 0 1 3.2 1.62 7.31 7.31 0 0 1 .59 3.56v6.32h-2.54v4.19h27.54v-3.68h-1.54l2.9-3.49 2.87 3.49h-1.54v3.68h9.26v-4.19h-2.26zm-11.36 5.73h-4.41v-11.25h4.52l5.07 5.51z"/><path class="ccls-1" d="M233.46 163.91v-22.05h-7.06v4.19h2.57v5.29a8.18 8.18 0 0 0-6.47-3.2 10 10 0 0 0-9.48 7.09 9.71 9.71 0 0 0-2.35-4.18 10.51 10.51 0 0 0-7.35-3.16 10.365 10.365 0 0 0 .11 20.73 10.08 10.08 0 0 0 9.26-6.28h-4.67a5.46 5.46 0 0 1-4.74 2.35 6.05 6.05 0 0 1-5.88-4.7h15.3a10.17 10.17 0 0 0 9.85 8.42 7.42 7.42 0 0 0 6.43-3.23v2.94h7v-4.19h-2.54zm-36.1-7.39a6.08 6.08 0 0 1 5.73-4.63 6.27 6.27 0 0 1 6.18 4.63h-11.91zm25.77 7.76a6 6 0 1 1 6-6.06 6 6 0 0 1-6 6.06zM96.96 191.95a5.74 5.74 0 0 0-2-4.53c-1-.79-2.09-1.19-5.11-1.19h-5.24v16.55h4v-7.27c.07.11 3.5 5.93 4.41 7.2l.06.08h4.12l-4-5.74a5 5 0 0 0 3.76-5.1zm-6.84 2.63h-1.51v-4.63h1.59c1.71 0 2.74.84 2.74 2.25-.03.71-.3 2.38-2.81 2.38zM106.6 189.13a5 5 0 0 1 3.88 1.94l.23.26h4.11l-.56-1a8.35 8.35 0 0 0-2.56-2.92 9 9 0 0 0-5.14-1.64 8.74 8.74 0 1 0 7.64 13.01l.52-.93h-4.17l-.19.22a5 5 0 0 1-3.79 1.85 5.37 5.37 0 0 1-5.15-5.44 5.28 5.28 0 0 1 5.18-5.35zM125.54 197.21a3.08 3.08 0 0 1-3.1 3.32 3.11 3.11 0 0 1-3.1-3.32v-10.94h-2.9v11a6 6 0 0 0 1.72 4.43 6.77 6.77 0 0 0 8.56 0 6 6 0 0 0 1.73-4.44v-11h-2.9v10.94zM142.2 191.57a5.49 5.49 0 0 0-1.53-3.93 6 6 0 0 0-4.42-1.4h-5.15v16.54h2.57v-7.26l5.62 7.26h3.22l-4.9-6.1a4.76 4.76 0 0 0 4.59-5.11zm-8.53 3.11v-6.06h2.42c2.61 0 3.53 1.59 3.53 3 0 2-1.53 3.11-4.41 3.11h-1.55zM144.8 186.22h2.37v16.58h-2.37zM155.14 186.25l-6.41 16.53h2.06l1.94-5.09h7l1.91 5.09h2.11l-6.39-16.57h-2.2zm-1.72 9.66c.17-.44 2.49-6.63 2.78-7.42l2.81 7.42h-5.59zM167.16 186.3h-1.63v16.49h8.43v-1.6h-6.8V186.3zM75.88 194.52l-4.58 8.3h9.42v.01h1.12v-3.9H77v-2.54h4.7v-3.49H77v-2.61h4.84v-4.12H71.28l4.6 8.35z"/><path class="ccls-1" d="M70.41 186.17h-3.73l4.6 8.35-4.58 8.3h3.72l4.59-8.3-4.6-8.35z"/><path class="ccls-1" d="M65.8 186.18h-2.34l-4.37 7.75v-7.75h-5.73l-10.37 16.6h6.71c.39-.68 4.17-7.28 4.46-7.71v7.71h4.54c.31-.6 2.81-5.43 3.72-7.11v7.11h3.4l4.58-8.3zM189.76 186.67l-5.33 4.95-5.27-5a9.82 9.82 0 0 0-3.26 3.45l5 4.78-5.1 4.73a9.8 9.8 0 0 0 3.22 3.48l5.33-4.94 5.29 5a9.83 9.83 0 0 0 3.26-3.44l-5.07-4.8 5.11-4.74a9.85 9.85 0 0 0-3.18-3.47zM118.78 27.06a35.82 35.82 0 0 1 31.37 18.5l20-18.94a62.9 62.9 0 0 0-102.76 0l20 18.94a35.82 35.82 0 0 1 31.39-18.5zm9.11-18.38l5.24 1.12-.45 2.09-3-.63-.48 2.41 2.64.57-.45 2.12-2.64-.56-.55 2.51 2.94.63-.45 2.09-5.21-1.12zm-8.87-.76l2.22.12-.21 3.87 1.93-3.78 2.34.12-2.74 5.29 2.27 6.19-2.52-.14-1.46-4.16-.22 4.07-2.22-.12zm-2.73.11l.74 11.47-2.25.15-.74-11.47zm-9 1.16l3 5.44-1.17-5.85 2.13-.42 2.22 11.28-2.27.45-3-5.6 1.17 6-2.13.42-2.22-11.28zM128.33 113.33l-1.27-3.9.13 4.1 1.14-.2zM119.69 112.78H119v2.89h.65a.67.67 0 0 0 .55-.22.8.8 0 0 0 .16-.51v-.72-.42a3.2 3.2 0 0 0 0-.34.83.83 0 0 0-.19-.53.65.65 0 0 0-.48-.15zM119.6 110.96a1.2 1.2 0 0 0 .44-.09.48.48 0 0 0 .27-.37 1.48 1.48 0 0 0 0-.3v-.52-.46a1.46 1.46 0 0 0 0-.29.63.63 0 0 0-.73-.49h-.63v2.51h.63zM95.44 109.39a2.5 2.5 0 0 0-.18.66.43.43 0 0 0 .29.45.45.45 0 0 0 .55 0 2.24 2.24 0 0 0 .41-.57l.24-.47.36-.7.39-.76.31-.63.3-.62.36-.76.33-.72.22-.47a2.17 2.17 0 0 0 .2-.66.45.45 0 0 0-.31-.45.45.45 0 0 0-.53 0 1.85 1.85 0 0 0-.43.56l-.22.44-.33.65-.38.75-.37.73-.26.53-.36.76-.35.75c-.12.25-.2.42-.24.53zM103.2 113.52a.45.45 0 0 0 .53-.12 2.27 2.27 0 0 0 .31-.63l.16-.51.25-.75.26-.81.21-.67.2-.66.23-.81.22-.76.15-.5a2.18 2.18 0 0 0 .09-.69.53.53 0 0 0-.89-.27 1.86 1.86 0 0 0-.33.62l-.15.47-.23.7-.26.8-.25.78-.17.56-.24.81-.23.8c-.07.25-.12.44-.15.55a2.47 2.47 0 0 0-.07.68.43.43 0 0 0 .36.41z"/><path class="ccls-1" d="M118.78 125.78a62.81 62.81 0 0 0 51.42-26.62l-20-18.94a35.84 35.84 0 0 1-62.74 0l-20 18.94a62.81 62.81 0 0 0 51.32 26.62zm24.21-26.83l1.94 1.54-.73-2.36 1.84-1.28 1.62 5.57 5.09 3.76-2 1.36-2.31-1.86.91 2.83-1.81 1.27-1.67-5.91-4.84-3.56zm-4.87 2.83l4.17 8.37 2.38-1.19 1 1.92-4.37 2.18-5.17-10.28zm-5.43 2.26l3 8.86 2.52-.85.68 2-4.63 1.56-3.68-10.83zm-7.31 1.74l2.18-.39 4.23 10.92-2.26.4-.47-1.42-1.9.34v1.5l-2.09.37zm-4.95.46a2 2 0 0 1 1.49.5 1.66 1.66 0 0 1 .52 1.34V110.51a1.38 1.38 0 0 1-.19.87 1.06 1.06 0 0 1-.62.46 1.15 1.15 0 0 1 .7.43 1.14 1.14 0 0 1 .21.75v2.59a1.89 1.89 0 0 1-.15.86 1.94 1.94 0 0 1-.49.67 2.28 2.28 0 0 1-.74.44 2.74 2.74 0 0 1-.9.16l-3.46.06-.19-11.49zm-11-.85l6.37.9-.3 2.12-2.06-.29-1.3 9.26-2.23-.31 1.3-9.26-2.08-.29zm-7.69 2.81l.24-.75.2-.63.14-.44a5.18 5.18 0 0 1 .5-1.15 2.64 2.64 0 0 1 .76-.83 2.34 2.34 0 0 1 1.05-.39 3.37 3.37 0 0 1 1.4.17 3.5 3.5 0 0 1 1.24.63 2.22 2.22 0 0 1 .66.9 2.65 2.65 0 0 1 .16 1.11 5.3 5.3 0 0 1-.24 1.26l-.2.67-.18.6-.19.62-.22.73-.36 1.18q-.21.67-.45 1.42a5.8 5.8 0 0 1-.52 1.17 2.65 2.65 0 0 1-.75.82 2.24 2.24 0 0 1-1 .38 4.08 4.08 0 0 1-2.64-.8 2.19 2.19 0 0 1-.65-.89 2.64 2.64 0 0 1-.16-1.11 5.85 5.85 0 0 1 .22-1.27l.13-.46q.08-.29.19-.63l.23-.74.24-.78zm-4.41-6.64a2.33 2.33 0 0 1 1.1-.22 3.36 3.36 0 0 1 1.36.38 3.47 3.47 0 0 1 1.13.82 2.2 2.2 0 0 1 .51 1 2.65 2.65 0 0 1 0 1.12 5.33 5.33 0 0 1-.43 1.21l-.3.63-.27.57-.28.58-.33.68-.54 1.11-.65 1.34a5.76 5.76 0 0 1-.7 1.07 2.63 2.63 0 0 1-.87.7 2.23 2.23 0 0 1-1.09.21 4.08 4.08 0 0 1-2.48-1.2 2.18 2.18 0 0 1-.5-1 2.64 2.64 0 0 1 0-1.12 5.91 5.91 0 0 1 .42-1.22l.2-.43.28-.6.34-.7.36-.74.36-.74.35-.71.3-.59.2-.41a5.19 5.19 0 0 1 .67-1.05 2.65 2.65 0 0 1 .91-.64zm-5.13-4.27l4.29 3-1.29 1.73-2.4-1.66-1.38 2 2.13 1.47-1.28 1.85-2.07-1.47-2.66 3.84-1.91-1.27z"/><path class="ccls-1" d="M147.26 77.49l-12.5-11.83a16.17 16.17 0 0 1-12.41 13l12.55 11.87a32.11 32.11 0 0 0 12.36-13.04zM102.72 90.44l12.48-11.85a16.17 16.17 0 0 1-12.33-13L90.35 77.44a32.11 32.11 0 0 0 12.37 13zM115.14 47.1l-12.5-11.83a32.11 32.11 0 0 0-12.3 13.06l12.55 11.87a16.17 16.17 0 0 1 12.25-13.1zM134.97 35.23l-12.53 11.85a16.17 16.17 0 0 1 12.33 13l12.53-11.85a32.11 32.11 0 0 0-12.33-13zM129.2 59.32l-.87.23-14.15 3.74a3.55 3.55 0 0 1-2.85-.13c-1.48-1.08-.35-3.25.05-3.9a19.71 19.71 0 0 0-2 2.45c-.88 1.35-1.26 2.84-.66 3.79 1.07 1.72 3.64.92 5.28.23l14.43-6.09z"/></svg></svg>