<svg width="172" height="43" xmlns="http://www.w3.org/2000/svg" xmlns:xlink="http://www.w3.org/1999/xlink"><svg width="88" height="14.9" viewBox="-1 -1 88 14.9" y="27.35" xmlns="http://www.w3.org/2000/svg"><g data-name="Layer 2"><g data-name="Layer 1"><g data-name="Layer 2"><g data-name="Layer 1-2"><g data-name="Layer 2-2"><path d="M3.27 3.49a1.47 1.47 0 0 1 0-.63 1 1 0 0 1 1.12-.81A1 1 0 0 1 5.53 3a1 1 0 0 1 0 .16v.72H8.6V3c0-2.6-2.42-3-4.16-3C2.25 0 .47.71.15 2.67a4.07 4.07 0 0 0 0 1.63C.7 6.76 5.07 7.46 5.7 9a1.51 1.51 0 0 1 0 .86 1.07 1.07 0 0 1-1.2.81 1.09 1.09 0 0 1-1.22-.94 1 1 0 0 1 0-.16v-1.1H0v.91c0 2.7 2.16 3.52 4.46 3.52s4-.73 4.34-2.76a5.86 5.86 0 0 0 0-2C8.27 5.65 3.61 4.9 3.27 3.49zm40 0a1.58 1.58 0 0 1 0-.62 1 1 0 0 1 1.12-.8 1 1 0 0 1 1.06.93 1 1 0 0 1 0 .15v.71h3v-.8c0-2.58-2.37-3-4.09-3-2.16 0-3.95.7-4.26 2.64a4 4 0 0 0 0 1.6c.55 2.43 4.9 3.14 5.51 4.7a1.59 1.59 0 0 1 0 .86 1 1 0 0 1-1.19.8 1.09 1.09 0 0 1-1.21-.94 1 1 0 0 1 0-.14V8.44H40v.91c0 2.65 2.13 3.55 4.4 3.55s3.95-.73 4.3-2.72a5.75 5.75 0 0 0 0-1.94c-.52-2.58-5.16-3.31-5.48-4.7zm27.83 6.58L68.21.39h-4.58v11.9h3l-.17-10 3.1 10H74V.39h-3zM13.16.39l-2.29 12h3.33L15.92 1.3l1.67 11.18h3.29L18.61.39zm18.54 0l-1.56 9.4L28.6.39h-5l-.27 12h3l.15-11.14 2.11 11.18h3.11l2.13-11.14.08 11.18H37L36.7.43zm28.55 0h-3.11v8.9a2.07 2.07 0 0 1 0 .45 1.23 1.23 0 0 1-1.51.86 1.21 1.21 0 0 1-.86-.86 1.91 1.91 0 0 1 0-.45V.39h-3.18v9.46c.21 2.25 2 3 4.3 3s4.07-.73 4.3-3a6.14 6.14 0 0 0 0-.8V.39zm21.38 5.29V7.4h1.32v1.71a2.18 2.18 0 0 1 0 .45 1.32 1.32 0 0 1-1.65.86 1.31 1.31 0 0 1-.86-.86 3 3 0 0 1 0-.45V3.66a2.42 2.42 0 0 1 0-.57 1.32 1.32 0 0 1 1.72-.72 1.31 1.31 0 0 1 .74.72 3.07 3.07 0 0 1 0 .46v.67H86v-.35a7.11 7.11 0 0 0 0-.8c-.4-2.29-2.25-3-4.42-3s-4 .71-4.3 3v5.81a6.71 6.71 0 0 0 0 .8c.2 2.19 2.15 3 4.3 3s4.11-.77 4.3-3v-4h-4.25z" fill="#fff" data-name="Layer 1-2-2"/></g></g></g></g></g></svg><svg width="172" height="27.35" viewBox="-1 -1 172 27.35" xmlns="http://www.w3.org/2000/svg"><g data-name="Layer 2"><g data-name="Layer 1"><g data-name="Layer 2"><g data-name="Layer 1-2"><path d="M109.54 13.72L101.43.95h-3.94v18.76h3.48V6.52l8.34 13.19h3.72V.95h-3.49v12.77zm12.85-9.35a7.75 7.75 0 0 0-7.77 7.73v.1a7.77 7.77 0 0 0 15.54 0 7.77 7.77 0 0 0-7.7-7.84h-.07zm0 12.38a4.41 4.41 0 0 1-4.39-4.43v-.11a4.36 4.36 0 1 1 8.72-.36v.36a4.47 4.47 0 0 1-4.33 4.54zM136.41 0l-3.49 2.39v2.28h-2.56v3.11h2.56v5.64c0 4.78 1.41 6.27 6.05 6.27h.45v-3.24c-2.69 0-3-.41-3-3V7.78h3V4.67h-3zm11.51 4.37a7.75 7.75 0 0 0-7.79 7.7v.16A8 8 0 0 0 155 16l-2.85-1.65a4.69 4.69 0 0 1-8.76-.89h12.21V12.1a7.5 7.5 0 0 0-7.26-7.73zm-4.31 6.14a4.47 4.47 0 0 1 4.31-3.06 4 4 0 0 1 4.21 3.09zM163.33.69a6.31 6.31 0 0 0-6.63 6v.43a6 6 0 0 0 5.67 6.32h.3a3.91 3.91 0 0 0 1.08-.16l-4.13 6.45h4.1l4.85-7.78A9.08 9.08 0 0 0 170 7.07a6.38 6.38 0 0 0-6.37-6.39zm.05 9.69a3.3 3.3 0 0 1-3.26-3.29 3.37 3.37 0 0 1 3.26-3.34 3.29 3.29 0 0 1 3.23 3.32 3.27 3.27 0 0 1-3.18 3.36zM32.64 6.43a6.2 6.2 0 0 0-4.82-2.1 7.45 7.45 0 0 0-7.47 7.43v.41A7.52 7.52 0 0 0 27.56 20h.21a6.16 6.16 0 0 0 4.87-2.29v2h3.46v-15h-3.46zm-4.3 10.36a4.55 4.55 0 0 1-4.54-4.55v-.12a4.51 4.51 0 0 1 9 0 4.53 4.53 0 0 1-4.37 4.67zM56 6.43a6.2 6.2 0 0 0-4.82-2.1 7.45 7.45 0 0 0-7.47 7.43v.41A7.52 7.52 0 0 0 50.92 20h.27A6.15 6.15 0 0 0 56 17.69v2h3.46v-15H56zm-4.28 10.36a4.55 4.55 0 0 1-4.54-4.55v-.12a4.51 4.51 0 1 1 9 0 4.53 4.53 0 0 1-4.37 4.67zm32.31-2.03L79.85 4.64h-3.69l6.15 14.24-2.69 6.47h3.56l8.44-20.71h-3.64l-3.95 10.12zM75.77 4.64h-4.1l-3.39 4.75-3.41-4.75h-4.23l5.44 7.37-5.64 7.66h4.23l3.56-5.01 3.67 5.01h4.24l-5.75-7.64 5.38-7.39zM38.48.66h3.48v19.02h-3.48zM9.16 12.51h6a5.29 5.29 0 0 1-5.46 4.06 6.12 6.12 0 0 1-6.26-6v-.28a6.14 6.14 0 0 1 6-6.24h.08A5.79 5.79 0 0 1 15 7.36l3.08-1.85A9.54 9.54 0 0 0 9.57.69 9.42 9.42 0 0 0 0 10v.39A9.46 9.46 0 0 0 9.27 20h.43c5.59 0 9.16-4.34 9.16-9.4V9.17h-9.7z" fill="#fff" data-name="Layer 2-2"/></g></g></g></g></svg></svg>