<?xml version="1.0" encoding="utf-8"?><svg width="184" height="85" viewBox="0 0 184 85" xmlns="http://www.w3.org/2000/svg" xmlns:xlink="http://www.w3.org/1999/xlink"><svg id="logo" viewBox="-1 -1 58.8 10.3" width="58.8" height="10.3" y="73.93"><style>.ast0{fill-rule:evenodd;clip-rule:evenodd;fill:#fff}</style><path class="ast0" d="M31.2 3.9s-.6-.3-.9-.5c0 0-1.1-.5-1.3-.7 0 0-.4-.4-.2-.8 0 0 .1-.3.5-.3 0 0 .6 0 .6.5v.7h2v-1S32.1.2 29.5.1c0 0-2-.1-2.6.9 0 0-.2.2-.2 1.1v.6s0 .7.3 1.2c0 0 .2.3.7.6 0 0 1 .5 1.6.9 0 0 .6.3.5.9 0 0 0 .6-.6.5 0 0-.5 0-.5-.6v-.7h-2.2v1s-.1 1.8 2.7 1.8c0 0 2.7.1 2.8-1.9v-.7c.1 0 .2-1.2-.8-1.8zM20.8.3l-.7 4.3h-.2L19.3.3h-3.4l-.2 7.8h2V2.2h.2L19 8.1h2.1l1-5.9h.2v5.9h2L24.1.3h-3.3zM8.8.3L7.4 8h2.2l.8-5.9h.2l.8 5.9h2.1L12.2.3H8.8zM54.2 3.8v1.1h.6v1.2c0 .6-.5.6-.5.6-.6 0-.6-.6-.6-.6V1.9c0-.4.6-.5.6-.5.5 0 .5.5.5.5v.6h2c.1-1.3-.2-1.6-.2-1.6-.5-1-2.4-.9-2.4-.9-2.9 0-2.6 2.3-2.6 2.3v4.1c.1 2.1 3 1.9 3 1.9 1.3-.1 1.7-.6 1.7-.6.4-.3.5-.6.5-.6.1-.2.1-.9.1-.9V3.8h-2.7zM47.5 5h-.1L45.3.3h-2.5v7.8h2l-.1-4.8h.1L47 8.1h2.4V.3h-2.1l.2 4.7zM37.9 6.1s0 .6-.6.6c0 0-.6 0-.6-.6V.3h-2.2v5.8s-.2 2.2 2.9 2.2c0 0 2.7 0 2.7-2.1V.3h-2.2v5.8zM4.6 3.9s-.6-.3-.9-.5c0 0-1.1-.5-1.3-.7 0 0-.4-.4-.2-.8 0 0 .1-.3.5-.3 0 0 .6 0 .6.5v.7h2v-1S5.5.2 2.9.1h-.5S.9.2.3 1c0 0-.2.2-.2 1.1v.6s0 .7.3 1.2c0 0 .2.3.7.6 0 0 1 .5 1.6.9 0 0 .6.3.5.9 0 0 0 .6-.6.5 0 0-.5 0-.5-.6v-.7H0v1s-.1 1.8 2.7 1.8c0 0 2.7.1 2.8-1.9v-.7s.1-1.2-.9-1.8z"/></svg><svg id="txt1" viewBox="-1 -1 127.2 36.9" width="127.2" height="36.9" y="37.03"><style>.bst0{fill:#fff}</style><path id="bClean_any_item_any_time." class="bst0" d="M7.2 11.7c.5-.1 1-.3 1.4-.6l1.2-.9.9-1.2-1.4-.7C9 9 8.5 9.5 7.9 9.9c-.7.4-1.5.6-2.3.6-.6 0-1.1-.1-1.6-.3-.5-.2-1-.5-1.3-.9-1.2-1.2-1.6-2.9-.9-4.5.2-.4.5-.9.9-1.3.3-.3.8-.6 1.3-.8.5-.2 1.1-.3 1.6-.3.8 0 1.5.2 2.1.6.6.4 1.1.9 1.4 1.6l1.3-.7c-.2-.5-.5-.9-.8-1.3-.3-.3-.7-.6-1.1-.9-.5-.2-.9-.4-1.4-.5-.5-.2-1-.2-1.5-.2-.7 0-1.5.1-2.2.4-.6.2-1.2.6-1.8 1.1C1.1 3 .7 3.6.4 4.3c-.6 1.4-.6 2.9 0 4.3.3.7.7 1.2 1.2 1.7s1.1.9 1.8 1.2c.7.3 1.5.4 2.2.4.6 0 1.1 0 1.6-.2zm5 .2h1.4V.8h-1.4v11.1zm10.5-.6c.7-.5 1.3-1.1 1.6-1.8l-1.2-.6c-.2.5-.6 1-1.1 1.4-.5.3-1.2.5-1.8.5-.4 0-.8-.1-1.2-.2-.4-.1-.7-.3-1-.6-.3-.2-.5-.5-.7-.9-.2-.4-.3-.7-.3-1.1h7.7v-.7c0-1.1-.5-2.2-1.3-3-.4-.4-.9-.7-1.4-.9-.6-.2-1.2-.3-1.8-.3-.6 0-1.2.1-1.8.3-1.1.4-2 1.3-2.4 2.4-.5 1.1-.5 2.4 0 3.5.2.5.5 1 .9 1.4.4.4.9.7 1.5.9.6.2 1.3.3 1.9.3.8.1 1.6-.2 2.4-.6zM22.2 5c.5.4.9 1 1 1.6H17c.2-.6.6-1.2 1.1-1.6.3-.2.6-.3.9-.4.4-.1.7-.2 1.1-.2.7 0 1.5.2 2.1.6zm10.2 6.5c.6-.3 1.1-.7 1.4-1.2v1.6h1.4V3.1h-1.4v1.7c-.3-.5-.8-1-1.4-1.2-.6-.3-1.2-.4-1.8-.4-.6 0-1.2.1-1.7.3-.5.2-1 .5-1.4.9-.4.4-.7.9-1 1.4-.2.6-.4 1.2-.3 1.8 0 1.2.5 2.3 1.3 3.1.4.4.9.7 1.4.9.6.2 1.1.3 1.7.3.7 0 1.3-.1 1.8-.4zm-2.9-1.1c-.4-.2-.7-.4-1-.7-.6-.6-.9-1.4-.9-2.2 0-.4.1-.8.2-1.2.2-.4.4-.7.7-1 .6-.6 1.4-.9 2.2-.9.4 0 .9.1 1.3.2.8.3 1.4.9 1.7 1.6.2.5.3.9.3 1.3 0 .8-.3 1.6-.9 2.2-.3.3-.6.5-1 .6-.4.2-.8.2-1.3.2-.5.1-.9 0-1.3-.1zm8.1 1.5H39V7.2c0-.4.1-.8.2-1.1.1-.3.3-.6.6-.9.2-.2.5-.4.9-.6.3-.1.7-.2 1.1-.2.7-.1 1.4.2 1.9.7.5.6.7 1.3.6 2v4.8h1.4V7c0-.6-.1-1.1-.3-1.6-.2-.5-.4-.9-.7-1.2-.3-.3-.7-.6-1.2-.8-.5-.2-1-.3-1.6-.3-.6 0-1.2.1-1.8.4-.5.3-.9.7-1.2 1.2V3.1h-1.4l.1 8.8zm20.3-.4c.6-.3 1.1-.7 1.4-1.2v1.6h1.4V3.1h-1.4v1.7c-.3-.5-.8-1-1.4-1.2-.6-.3-1.2-.4-1.8-.4-.6 0-1.2.1-1.7.3-.5.2-1 .5-1.4.9-.4.4-.7.9-1 1.4-.2.6-.4 1.2-.3 1.8 0 1.2.5 2.3 1.3 3.1.4.4.9.7 1.4.9.6.2 1.1.3 1.7.3.6 0 1.2-.1 1.8-.4zm-3-1.1c-.4-.2-.7-.4-1-.7-.5-.6-.9-1.3-.9-2.2 0-.4.1-.8.2-1.2.2-.4.4-.7.7-1 .6-.6 1.4-.9 2.2-.9.4 0 .9.1 1.3.2.8.3 1.4.9 1.7 1.6.2.4.3.8.2 1.2 0 .8-.3 1.6-.9 2.2-.3.3-.6.5-1 .6-.4.2-.8.2-1.3.2-.3.2-.8.1-1.2 0zm8.1 1.5h1.4V7.2c0-.4.1-.8.2-1.1.1-.3.3-.6.6-.9.2-.2.5-.4.9-.6.3-.1.7-.2 1.1-.2.7-.1 1.4.2 1.9.7.5.6.7 1.3.6 2v4.8h1.4V7c0-.6-.1-1.1-.3-1.6-.2-.5-.4-.9-.7-1.2-.3-.3-.7-.6-1.2-.8-.5-.2-1-.3-1.6-.3-.6 0-1.2.1-1.8.4-.5.3-.9.7-1.2 1.2V3.1H63v8.8zm11.1 4h1.5l5.5-12.8h-1.5l-2.7 6.7-3-6.7h-1.6l3.8 8.4-2 4.4zm12.7-4h1.4V3.1h-1.4v8.8zm0-10.2c.2.2.4.3.7.3.5.1 1-.3 1-.9V.9c0-.3-.1-.5-.3-.7-.1-.1-.4-.2-.7-.2-.3 0-.5.1-.7.3-.2.2-.3.5-.3.7 0 .3.1.5.3.7zm3.1 2.7h1.5v4.1c0 .6 0 1.1.2 1.6.1.4.3.7.5 1 .3.3.6.5 1 .5.5.1 1.1.2 1.6.2h.2v-1.4c-.4 0-.7 0-1.1-.1-.2 0-.5-.1-.6-.3-.2-.2-.3-.4-.3-.6-.1-.4-.1-.7-.1-1.1V4.4h2.1V3.2h-2.1V.5l-1.4 1v1.7h-1.5v1.2zm13.4 6.9c.7-.5 1.3-1.1 1.6-1.8l-1.2-.6c-.2.5-.6 1-1.1 1.4-.5.3-1.2.5-1.8.5-.4 0-.8-.1-1.2-.2-.4-.1-.7-.3-1-.6-.3-.4-.6-.7-.7-1-.2-.4-.3-.7-.3-1.1h7.7v-.6c0-1.1-.5-2.2-1.3-3-.4-.4-.9-.7-1.4-.9-.6-.2-1.2-.3-1.8-.3-.6 0-1.2.1-1.8.3-1.1.4-2 1.3-2.4 2.4-.5 1.1-.5 2.4 0 3.5.2.5.5 1 .9 1.4.4.4.9.7 1.5.9.6.2 1.3.3 1.9.3.8.1 1.6-.2 2.4-.6zm-.5-6.3c.5.4.9 1 1 1.6h-6.1c0-.3.1-.6.3-.9.2-.3.4-.5.7-.7.3-.2.6-.3.9-.4.4-.1.7-.2 1.1-.2.7 0 1.5.2 2.1.6zm4.3 6.9h1.4V7.1c0-.4.1-.8.2-1.1.1-.3.3-.6.5-.8.2-.2.5-.4.8-.5.3-.1.7-.2 1-.2.6 0 1.3.2 1.8.6.4.5.7 1.1.6 1.7V12h1.4V7c0-.4.1-.7.2-1.1.1-.3.3-.6.5-.8.2-.2.5-.4.8-.5.3-.1.7-.2 1-.2 1.3-.1 2.4.8 2.5 2.1V11.9h1.4V6.8c0-.5-.1-1-.2-1.5-.2-.4-.4-.8-.7-1.2-.3-.3-.7-.6-1.2-.8-.5-.2-1.1-.3-1.6-.3-.7 0-1.3.2-1.9.5-.5.3-1 .8-1.3 1.3-.2-.6-.6-1-1.2-1.3-.6-.4-1.3-.5-1.9-.5-.6 0-1.1.1-1.7.4-.5.3-.9.6-1.1 1.1V3.1H107l.1 8.8zm15.9 1.8h1l1.3-3.1h-1.6l-.7 3.1zM6.3 30.5c.6-.3 1.1-.7 1.4-1.2v1.6h1.4v-8.8H7.7v1.7c-.3-.5-.8-1-1.4-1.2-.6-.3-1.2-.4-1.8-.4-.6 0-1.2.1-1.7.3-.5.2-1 .5-1.4.9-.4.4-.7.9-1 1.4-.3.5-.4 1.1-.4 1.7 0 1.2.5 2.3 1.3 3.1.4.4.9.7 1.4.9.6.2 1.1.3 1.7.3.7.1 1.3 0 1.9-.3zm-2.9-1.1c-.4-.2-.7-.4-1-.7-.6-.6-.9-1.4-.9-2.2 0-.4.1-.8.2-1.2.2-.4.4-.7.7-1 .6-.6 1.4-.9 2.2-.9.4 0 .9.1 1.3.2.8.3 1.4.9 1.7 1.6.2.4.2.8.2 1.2 0 .8-.3 1.6-.9 2.2-.3.3-.6.5-1 .7-.4.2-.8.2-1.3.2-.4.1-.8 0-1.2-.1zm8 1.5h1.4v-4.8c0-.4.1-.8.2-1.1.1-.3.3-.6.6-.9.2-.2.5-.4.9-.6.3-.1.7-.2 1.1-.2.7-.1 1.4.2 1.9.7.5.6.7 1.3.6 2v4.8h1.4V26c0-.6-.1-1.1-.3-1.6-.2-.5-.4-.9-.7-1.2-.3-.3-.7-.6-1.2-.8-.5-.2-1-.3-1.6-.3-.6 0-1.2.1-1.8.4-.5.3-.9.7-1.2 1.2v-1.6h-1.4l.1 8.8zm11.2 4h1.5l5.5-12.8H28l-2.7 6.7-3-6.7h-1.6l3.8 8.4-1.9 4.4zm12.1-11.5h1.5v4.1c0 .6 0 1.1.2 1.6.1.4.3.7.5 1 .3.3.6.5 1 .5.5.1 1.1.2 1.6.2h.2v-1.3c-.4 0-.7 0-1.1-.1-.2 0-.5-.1-.6-.3-.2-.2-.3-.4-.3-.6-.1-.4-.1-.7-.1-1.1v-4.1h2.1V22h-2.1v-2.6l-1.4 1v1.7h-1.5v1.3zm6.9 7.5H43v-8.8h-1.4v8.8zm-.1-10.2c.2.2.5.3.8.3.5.1 1-.3 1-.9v-.2c0-.3-.1-.5-.3-.7-.2-.2-.5-.3-.8-.3-.3 0-.5.1-.7.3-.2.2-.3.5-.3.7.1.4.2.6.3.8zm3.7 10.2h1.4v-4.8c0-.4.1-.8.2-1.1.1-.3.3-.6.5-.8.2-.2.5-.4.8-.5.3-.1.7-.2 1-.2.6 0 1.3.2 1.8.6.4.5.7 1.1.6 1.7V31h1.4v-5c0-.4.1-.7.2-1.1.1-.3.3-.6.5-.8.2-.2.5-.4.8-.5.3-.1.7-.2 1-.2 1.3-.1 2.4.8 2.5 2.1V30.9h1.4v-5.1c0-.5-.1-1-.2-1.5-.2-.4-.4-.8-.7-1.2-.3-.3-.7-.6-1.2-.8-.5-.2-1.1-.3-1.6-.3-.7 0-1.3.2-1.9.5-.5.3-1 .8-1.3 1.3-.2-.6-.6-1-1.2-1.3-.6-.4-1.3-.5-1.9-.5-.6 0-1.1.1-1.7.4-.5.3-.9.6-1.2 1.1V22H45v8.9h.2zm23.3-.6c.7-.5 1.3-1.1 1.6-1.8l-1.2-.6c-.2.5-.6 1-1.1 1.4-.5.3-1.2.5-1.8.5-.4 0-.8-.1-1.2-.2-.4-.1-.7-.3-1-.6-.3-.2-.5-.5-.7-.9-.2-.4-.3-.7-.3-1.1h7.7v-.6c0-1.1-.5-2.2-1.3-3-.4-.4-.9-.7-1.4-.9-.6-.2-1.2-.3-1.8-.3-.6 0-1.2.1-1.8.3-1.1.4-2 1.3-2.4 2.4-.5 1.1-.5 2.4 0 3.5.2.5.5 1 .9 1.4.4.4.9.7 1.5.9.6.2 1.3.3 1.9.3.8 0 1.7-.3 2.4-.7zM68 24c.5.4.9 1 1 1.6h-6.1c.2-.6.5-1.2 1.1-1.6.3-.2.6-.3.9-.4.4-.1.7-.2 1.1-.2.7 0 1.4.2 2 .6z"/></svg><svg width="183.28" height="37.03" viewBox="-1 -1 183.28 37.03" id="txt2"><defs><style>.ccls-1{fill:#fff;fill-rule:evenodd}</style></defs><path id="cAddWash_with_EcoBubble_technology" data-name="AddWash with EcoBubble technology" class="ccls-1" d="M19.967 31.1H21.5l.912-2.5h4.74l.93 2.505H29.6l-4.05-10.95h-1.518zm4.815-8.955l1.86 5.055h-3.72zm12.113 8.541a3.488 3.488 0 0 0 1.417-1.214V31.1h1.4V20H38.3v3.987a3.479 3.479 0 0 0-1.41-1.242 4.042 4.042 0 0 0-1.8-.435 4.592 4.592 0 0 0-1.748.333 4.38 4.38 0 0 0-1.425.925 4.3 4.3 0 0 0-.953 1.4 4.4 4.4 0 0 0-.345 1.757 4.335 4.335 0 0 0 1.313 3.145 4.437 4.437 0 0 0 1.425.918 4.553 4.553 0 0 0 1.733.333 4.13 4.13 0 0 0 1.805-.435zm-2.91-1.133a3.218 3.218 0 0 1-1-.655 3.053 3.053 0 0 1-.922-2.193 2.955 2.955 0 0 1 .247-1.2 3.13 3.13 0 0 1 .675-.982 3.185 3.185 0 0 1 2.242-.9 3.264 3.264 0 0 1 1.26.242A3.1 3.1 0 0 1 38.17 25.5a2.955 2.955 0 0 1 .248 1.2 3.053 3.053 0 0 1-.922 2.193 3.2 3.2 0 0 1-1.013.655 3.26 3.26 0 0 1-1.26.242 3.165 3.165 0 0 1-1.238-.237zm13.875 1.133a3.488 3.488 0 0 0 1.418-1.214V31.1h1.395V20h-1.41v3.987a3.479 3.479 0 0 0-1.41-1.242 4.042 4.042 0 0 0-1.8-.435 4.592 4.592 0 0 0-1.748.333 4.38 4.38 0 0 0-1.425.925 4.3 4.3 0 0 0-.953 1.4 4.4 4.4 0 0 0-.345 1.757 4.335 4.335 0 0 0 1.313 3.145 4.437 4.437 0 0 0 1.425.918 4.553 4.553 0 0 0 1.733.333 4.13 4.13 0 0 0 1.807-.435zm-2.91-1.133a3.218 3.218 0 0 1-1.005-.655 3.053 3.053 0 0 1-.922-2.193 2.955 2.955 0 0 1 .248-1.2 3.13 3.13 0 0 1 .675-.982 3.185 3.185 0 0 1 2.242-.9 3.264 3.264 0 0 1 1.26.242 3.1 3.1 0 0 1 1.687 1.635 2.955 2.955 0 0 1 .247 1.2 3.053 3.053 0 0 1-.922 2.2 3.2 3.2 0 0 1-1.012.655 3.26 3.26 0 0 1-1.26.242 3.165 3.165 0 0 1-1.238-.244zM55.532 31.1h1.485l2.79-8.685 2.76 8.685h1.455l3.255-10.95h-1.485l-2.5 8.685-2.76-8.685H59.1l-2.775 8.67-2.425-8.67h-1.53zm18.307-.414a3.488 3.488 0 0 0 1.418-1.214V31.1h1.41v-8.775h-1.41V24a3.535 3.535 0 0 0-1.41-1.249 4.018 4.018 0 0 0-1.815-.442 4.592 4.592 0 0 0-1.748.333 4.38 4.38 0 0 0-1.425.925 4.3 4.3 0 0 0-.953 1.4 4.4 4.4 0 0 0-.345 1.757 4.335 4.335 0 0 0 1.313 3.145 4.437 4.437 0 0 0 1.425.918 4.553 4.553 0 0 0 1.733.333 4.13 4.13 0 0 0 1.808-.434zm-2.91-1.133a3.218 3.218 0 0 1-1-.655A3.053 3.053 0 0 1 69 26.705a2.955 2.955 0 0 1 .248-1.2 3.13 3.13 0 0 1 .675-.982 3.185 3.185 0 0 1 2.242-.9 3.264 3.264 0 0 1 1.26.242 3.1 3.1 0 0 1 1.69 1.635 2.955 2.955 0 0 1 .248 1.2 3.053 3.053 0 0 1-.923 2.2 3.2 3.2 0 0 1-1.013.655 3.26 3.26 0 0 1-1.26.242 3.165 3.165 0 0 1-1.237-.244zm12.5 1.311a3.242 3.242 0 0 0 1.058-.638 2.509 2.509 0 0 0 .607-.847 2.242 2.242 0 0 0 .2-.875 1.888 1.888 0 0 0-.27-1.047 2.21 2.21 0 0 0-.7-.682 3.9 3.9 0 0 0-.967-.423q-.54-.158-1.065-.287-.465-.115-.885-.208a3.367 3.367 0 0 1-.72-.237 1.5 1.5 0 0 1-.48-.344.725.725 0 0 1-.18-.5 1.1 1.1 0 0 1 .457-.882 2.114 2.114 0 0 1 1.343-.366 2.813 2.813 0 0 1 1.267.272 2.939 2.939 0 0 1 .953.756l1.125-.731a3.476 3.476 0 0 0-1.4-1.115 4.655 4.655 0 0 0-1.942-.4 4.191 4.191 0 0 0-1.335.2 3.279 3.279 0 0 0-1.02.538 2.372 2.372 0 0 0-.645.782 2.01 2.01 0 0 0-.225.918 1.861 1.861 0 0 0 .263 1.026 2.291 2.291 0 0 0 .675.681 3.507 3.507 0 0 0 .945.431q.532.158 1.073.287l.862.194a4.6 4.6 0 0 1 .743.229 1.542 1.542 0 0 1 .525.337.73.73 0 0 1 .2.531 1.249 1.249 0 0 1-.488.975 2.2 2.2 0 0 1-1.462.416 3.038 3.038 0 0 1-1.455-.345 3.111 3.111 0 0 1-1.065-.921l-1.215.745a4.162 4.162 0 0 0 1.53 1.31 4.718 4.718 0 0 0 2.16.471 4.26 4.26 0 0 0 1.536-.251zm3.771.236h1.44v-4.755a2.957 2.957 0 0 1 .2-1.108 2.623 2.623 0 0 1 .563-.874 2.572 2.572 0 0 1 .847-.572 2.7 2.7 0 0 1 1.058-.206 2.421 2.421 0 0 1 1.92.734 2.9 2.9 0 0 1 .645 1.982v4.8h1.455v-4.889a4.764 4.764 0 0 0-.262-1.634 3.461 3.461 0 0 0-.75-1.23 3.19 3.19 0 0 0-1.185-.773 4.341 4.341 0 0 0-1.553-.265 3.472 3.472 0 0 0-1.747.431 3.528 3.528 0 0 0-1.223 1.137V20H87.2v11.1zm16.725 0h1.41l2.64-6.825 2.64 6.825h1.38l2.985-8.775h-1.485l-2.235 6.825-2.61-6.825h-1.32l-2.61 6.8-2.16-6.8h-1.485zm12.78 0h1.439v-8.775H116.7V31.1zm-.031-10.178a1 1 0 0 0 .75.277.947.947 0 0 0 1.035-1.02 1 1 0 0 0-.27-.727 1.018 1.018 0 0 0-.765-.277 1 1 0 0 0-.742.277.984.984 0 0 0-.278.727 1.019 1.019 0 0 0 .267.744zm3.15 2.693h1.53v4.095a7.5 7.5 0 0 0 .15 1.642 2.206 2.206 0 0 0 .518 1.043 2 2 0 0 0 1 .547 6.7 6.7 0 0 0 1.59.158h.21v-1.35a5.956 5.956 0 0 1-1.05-.075 1.2 1.2 0 0 1-.63-.293 1.123 1.123 0 0 1-.3-.622 6.074 6.074 0 0 1-.075-1.065v-4.08h2.055v-1.29h-2.055v-2.64l-1.41.975v1.665h-1.53v1.29zm6.9 7.485h1.44v-4.755a2.957 2.957 0 0 1 .2-1.108 2.622 2.622 0 0 1 .562-.874 2.575 2.575 0 0 1 .848-.572 2.694 2.694 0 0 1 1.057-.206 2.421 2.421 0 0 1 1.92.734 2.9 2.9 0 0 1 .649 1.981v4.8h1.455v-4.888a4.76 4.76 0 0 0-.262-1.634 3.457 3.457 0 0 0-.75-1.23 3.189 3.189 0 0 0-1.185-.773 4.343 4.343 0 0 0-1.553-.265 3.47 3.47 0 0 0-1.747.431 3.532 3.532 0 0 0-1.223 1.137V20h-1.41v11.1zm-106.262 19h6.6v-1.4H21.9v-3.4h5.16v-1.38H21.9v-3.39h5.16v-1.38h-6.6V50.1zm14.287-.181a4.389 4.389 0 0 0 1.185-.551 4.224 4.224 0 0 0 .93-.842 4.61 4.61 0 0 0 .652-1.067l-1.3-.534a3.35 3.35 0 0 1-1.08 1.336 2.888 2.888 0 0 1-1.77.534 3.305 3.305 0 0 1-1.275-.242 3.138 3.138 0 0 1-1.012-.662 3.048 3.048 0 0 1-.668-.975 2.979 2.979 0 0 1-.24-1.2 3.083 3.083 0 0 1 .24-1.21 2.984 2.984 0 0 1 .66-.983 3.13 3.13 0 0 1 1-.655 3.208 3.208 0 0 1 1.252-.242 3.032 3.032 0 0 1 1.725.491 3.146 3.146 0 0 1 1.125 1.357l1.275-.506A4.228 4.228 0 0 0 36.8 42.9a4.276 4.276 0 0 0-.93-.845 4.351 4.351 0 0 0-1.17-.555 4.706 4.706 0 0 0-1.365-.194 4.9 4.9 0 0 0-1.807.332 4.336 4.336 0 0 0-2.437 2.328 4.429 4.429 0 0 0-.015 3.463 4.186 4.186 0 0 0 .968 1.4 4.693 4.693 0 0 0 1.462.94 4.747 4.747 0 0 0 1.83.347 4.9 4.9 0 0 0 1.413-.197zm10.485-.144a4.617 4.617 0 0 0 1.455-.932 4.331 4.331 0 0 0 0-6.26 4.7 4.7 0 0 0-6.45 0 4.331 4.331 0 0 0 0 6.26 4.742 4.742 0 0 0 4.995.933zm-2.992-1.222a3.084 3.084 0 0 1-1.65-1.638 2.979 2.979 0 0 1-.24-1.2 3.03 3.03 0 0 1 .24-1.2 3.148 3.148 0 0 1 4.095-1.645 3.181 3.181 0 0 1 1 .662 3.04 3.04 0 0 1 .907 2.185 2.983 2.983 0 0 1-.24 1.2 3.053 3.053 0 0 1-.667.975 3.183 3.183 0 0 1-1 .662 3.117 3.117 0 0 1-1.23.242 3.078 3.078 0 0 1-1.215-.243zm7.62 1.547h4.065a4.831 4.831 0 0 0 1.47-.21 3.215 3.215 0 0 0 1.133-.615 2.714 2.714 0 0 0 .727-.99 3.273 3.273 0 0 0 .255-1.32 2.862 2.862 0 0 0-.427-1.59 2.589 2.589 0 0 0-1.238-.99 2.319 2.319 0 0 0 1.005-.937 2.713 2.713 0 0 0 .33-1.342 2.973 2.973 0 0 0-.248-1.238 2.585 2.585 0 0 0-.7-.93 3.184 3.184 0 0 0-1.1-.585 4.8 4.8 0 0 0-1.44-.2h-3.832V50.1zm4.005-4.965a2.372 2.372 0 0 1 1.657.5 1.717 1.717 0 0 1 .532 1.32 1.667 1.667 0 0 1-.57 1.313 2.276 2.276 0 0 1-1.56.5H51.3v-3.63h2.565zm-.2-4.665a2.35 2.35 0 0 1 1.523.435 1.465 1.465 0 0 1 .532 1.2 1.609 1.609 0 0 1-.488 1.207 2.049 2.049 0 0 1-1.477.473H51.3V40.47h2.37zm10.875 9.264a2.908 2.908 0 0 0 1.05-1.024v1.39h1.395v-8.775h-1.42V46.1a3.011 3.011 0 0 1-.63 1.982 2.15 2.15 0 0 1-1.755.763 2.176 2.176 0 0 1-1.822-.734 3.094 3.094 0 0 1-.578-1.967v-4.819h-1.44v4.888a4.111 4.111 0 0 0 .938 2.871 3.415 3.415 0 0 0 2.662 1.031 3.159 3.159 0 0 0 1.604-.381zm11.025.049a4.461 4.461 0 0 0 1.418-.918 4.294 4.294 0 0 0 .96-1.4 4.338 4.338 0 0 0 .352-1.75 4.4 4.4 0 0 0-.345-1.757 4.305 4.305 0 0 0-.953-1.4 4.4 4.4 0 0 0-1.418-.925 4.576 4.576 0 0 0-1.755-.332 3.971 3.971 0 0 0-1.808.442A3.546 3.546 0 0 0 70.621 43v-4h-1.4v11.1h1.38v-1.614a3.428 3.428 0 0 0 1.417 1.207 4.218 4.218 0 0 0 1.823.422 4.5 4.5 0 0 0 1.73-.332zm-3.135-1.23a3.2 3.2 0 0 1-1.013-.655 2.928 2.928 0 0 1-.668-.983 3.083 3.083 0 0 1-.24-1.21 3.04 3.04 0 0 1 .907-2.186 3.145 3.145 0 0 1 1.013-.662 3.3 3.3 0 0 1 1.275-.242 3.185 3.185 0 0 1 2.243.9 3.04 3.04 0 0 1 .907 2.186 3.088 3.088 0 0 1-.24 1.21 2.932 2.932 0 0 1-.668.983 3.222 3.222 0 0 1-1 .655 3.167 3.167 0 0 1-1.238.242 3.3 3.3 0 0 1-1.274-.238zm14.085 1.23a4.461 4.461 0 0 0 1.418-.918 4.294 4.294 0 0 0 .96-1.4 4.338 4.338 0 0 0 .352-1.75 4.4 4.4 0 0 0-.345-1.757 4.305 4.305 0 0 0-.953-1.4 4.4 4.4 0 0 0-1.418-.925 4.576 4.576 0 0 0-1.755-.332 3.971 3.971 0 0 0-1.808.442A3.546 3.546 0 0 0 81.571 43v-4h-1.4v11.1h1.38v-1.614a3.428 3.428 0 0 0 1.417 1.207 4.218 4.218 0 0 0 1.823.422 4.5 4.5 0 0 0 1.73-.332zm-3.135-1.23a3.2 3.2 0 0 1-1.013-.655 2.928 2.928 0 0 1-.668-.983 3.083 3.083 0 0 1-.24-1.21 3.04 3.04 0 0 1 .907-2.186 3.145 3.145 0 0 1 1.013-.662 3.3 3.3 0 0 1 1.275-.242 3.185 3.185 0 0 1 2.243.9 3.04 3.04 0 0 1 .907 2.186 3.088 3.088 0 0 1-.24 1.21 2.932 2.932 0 0 1-.668.983 3.222 3.222 0 0 1-1 .655 3.167 3.167 0 0 1-1.238.242 3.3 3.3 0 0 1-1.274-.238zm7.74 1.547h1.44V39h-1.44v11.1zm10.485-.645a4.657 4.657 0 0 0 1.62-1.83l-1.215-.645a3.215 3.215 0 0 1-1.132 1.357 3.126 3.126 0 0 1-1.793.5 3.583 3.583 0 0 1-1.222-.2 3.053 3.053 0 0 1-.99-.578 2.976 2.976 0 0 1-.69-.885 3.324 3.324 0 0 1-.338-1.14h7.665v-.56a4.008 4.008 0 0 0-1.29-3.008 4.2 4.2 0 0 0-1.425-.855 5.165 5.165 0 0 0-1.785-.3 4.8 4.8 0 0 0-1.815.34 4.286 4.286 0 0 0-2.4 2.357 4.647 4.647 0 0 0-.015 3.477 4.048 4.048 0 0 0 .938 1.381 4.35 4.35 0 0 0 1.463.918 5.216 5.216 0 0 0 1.9.333 4.544 4.544 0 0 0 2.528-.662zm-.54-6.29a2.475 2.475 0 0 1 .99 1.6h-6.131a2.716 2.716 0 0 1 .4-.873 2.745 2.745 0 0 1 .683-.69 3.321 3.321 0 0 1 .915-.449 3.581 3.581 0 0 1 1.095-.163 3.4 3.4 0 0 1 2.052.575zm7.845-.55h1.53v4.095a7.5 7.5 0 0 0 .15 1.642 2.205 2.205 0 0 0 .517 1.043 2 2 0 0 0 1 .547 6.7 6.7 0 0 0 1.59.157h.21V48.75a5.956 5.956 0 0 1-1.05-.075 1.2 1.2 0 0 1-.63-.292 1.123 1.123 0 0 1-.3-.623 6.074 6.074 0 0 1-.075-1.065v-4.08h2.055v-1.29h-2.055v-2.64l-1.41.975v1.665h-1.53v1.29zm13.4 6.84a4.657 4.657 0 0 0 1.62-1.83l-1.215-.645a3.21 3.21 0 0 1-1.133 1.357 3.12 3.12 0 0 1-1.792.5 3.587 3.587 0 0 1-1.223-.2 3.053 3.053 0 0 1-.99-.578 2.98 2.98 0 0 1-.69-.885 3.328 3.328 0 0 1-.337-1.14h7.665v-.56a4.008 4.008 0 0 0-1.29-3.008 4.2 4.2 0 0 0-1.425-.855 5.164 5.164 0 0 0-1.785-.3 4.8 4.8 0 0 0-1.815.34 4.282 4.282 0 0 0-2.4 2.357 4.647 4.647 0 0 0-.015 3.477 4.049 4.049 0 0 0 .937 1.381 4.352 4.352 0 0 0 1.463.918 5.217 5.217 0 0 0 1.905.333 4.544 4.544 0 0 0 2.519-.662zm-.54-6.29a2.475 2.475 0 0 1 .99 1.6h-6.135a2.747 2.747 0 0 1 1.08-1.563 3.323 3.323 0 0 1 .915-.449 3.582 3.582 0 0 1 1.095-.163 3.4 3.4 0 0 1 2.054.575zm10.028 6.754a4.387 4.387 0 0 0 1.185-.551 4.217 4.217 0 0 0 .93-.842 4.6 4.6 0 0 0 .653-1.067l-1.305-.534a3.35 3.35 0 0 1-1.08 1.336 2.887 2.887 0 0 1-1.77.534 3.305 3.305 0 0 1-1.275-.242 3.14 3.14 0 0 1-1.013-.662 3.05 3.05 0 0 1-.667-.975 2.981 2.981 0 0 1-.24-1.2 3.084 3.084 0 0 1 .24-1.21 2.989 2.989 0 0 1 .66-.983 3.131 3.131 0 0 1 1-.655 3.211 3.211 0 0 1 1.253-.242 3.032 3.032 0 0 1 1.725.491 3.143 3.143 0 0 1 1.125 1.357l1.275-.506a4.225 4.225 0 0 0-.645-1.076 4.274 4.274 0 0 0-.93-.845 4.345 4.345 0 0 0-1.17-.546 4.706 4.706 0 0 0-1.365-.194 4.906 4.906 0 0 0-1.808.332 4.337 4.337 0 0 0-2.437 2.328 4.429 4.429 0 0 0-.015 3.463 4.187 4.187 0 0 0 .967 1.4 4.722 4.722 0 0 0 3.293 1.287 4.9 4.9 0 0 0 1.414-.198zm4.523.181h1.44v-4.755a2.956 2.956 0 0 1 .2-1.108 2.624 2.624 0 0 1 .563-.874 2.571 2.571 0 0 1 .847-.572 2.7 2.7 0 0 1 1.058-.206 2.422 2.422 0 0 1 1.92.734A2.9 2.9 0 0 1 143 45.3v4.8h1.455v-4.888a4.759 4.759 0 0 0-.263-1.634 3.457 3.457 0 0 0-.75-1.23 3.189 3.189 0 0 0-1.185-.773 4.338 4.338 0 0 0-1.552-.265 3.474 3.474 0 0 0-1.748.431 3.52 3.52 0 0 0-1.222 1.137V39h-1.41v11.1zm10.319 0h1.425v-4.755a2.957 2.957 0 0 1 .2-1.108 2.622 2.622 0 0 1 .562-.874 2.554 2.554 0 0 1 .855-.572 2.752 2.752 0 0 1 1.065-.206 2.421 2.421 0 0 1 1.92.734 2.873 2.873 0 0 1 .645 1.967V50.1h1.44v-4.888a4.76 4.76 0 0 0-.262-1.634 3.516 3.516 0 0 0-.743-1.23 3.118 3.118 0 0 0-1.177-.773 4.343 4.343 0 0 0-1.553-.265 3.466 3.466 0 0 0-1.755.438 3.4 3.4 0 0 0-1.215 1.159v-1.582h-1.41V50.1zm16.283-.325a4.616 4.616 0 0 0 1.455-.932 4.331 4.331 0 0 0 0-6.26 4.614 4.614 0 0 0-1.455-.933 4.663 4.663 0 0 0-1.778-.34 4.631 4.631 0 0 0-3.217 1.272 4.331 4.331 0 0 0 0 6.26 4.742 4.742 0 0 0 4.993.934zm-2.993-1.222a3.084 3.084 0 0 1-1.65-1.638 2.981 2.981 0 0 1-.24-1.2 3.032 3.032 0 0 1 .24-1.2 3.148 3.148 0 0 1 4.095-1.645 3.182 3.182 0 0 1 1 .662 3.042 3.042 0 0 1 .907 2.185 2.981 2.981 0 0 1-.24 1.2 3.05 3.05 0 0 1-.667.975 3.184 3.184 0 0 1-1 .662 3.117 3.117 0 0 1-1.23.242 3.079 3.079 0 0 1-1.217-.243zm7.695 1.547h1.44V39h-1.44v11.1zm9.653-.325a4.616 4.616 0 0 0 1.455-.932 4.331 4.331 0 0 0 0-6.26 4.614 4.614 0 0 0-1.455-.933 4.663 4.663 0 0 0-1.778-.34 4.631 4.631 0 0 0-3.217 1.272 4.331 4.331 0 0 0 0 6.26 4.742 4.742 0 0 0 4.993.934zm-2.993-1.222a3.084 3.084 0 0 1-1.65-1.638 2.981 2.981 0 0 1-.24-1.2 3.032 3.032 0 0 1 .24-1.2 3.148 3.148 0 0 1 4.095-1.645 3.182 3.182 0 0 1 1 .662 3.042 3.042 0 0 1 .907 2.185 2.981 2.981 0 0 1-.24 1.2 3.05 3.05 0 0 1-.667.975 3.184 3.184 0 0 1-1 .662 3.117 3.117 0 0 1-1.23.242 3.079 3.079 0 0 1-1.217-.243zm13.688 1.133a3.49 3.49 0 0 0 1.417-1.214v1.358a3.588 3.588 0 0 1-.21 1.254 2.785 2.785 0 0 1-.607.978 2.717 2.717 0 0 1-.968.634 3.465 3.465 0 0 1-1.275.224 4.03 4.03 0 0 1-1.073-.127 2.736 2.736 0 0 1-.81-.368 3.043 3.043 0 0 1-.622-.562 5.505 5.505 0 0 1-.51-.728l-1.26.75a4.651 4.651 0 0 0 1.635 1.7 4.98 4.98 0 0 0 2.625.622 5.155 5.155 0 0 0 1.83-.311 4.117 4.117 0 0 0 1.418-.881 3.983 3.983 0 0 0 .922-1.377 4.755 4.755 0 0 0 .33-1.814v-8.5h-1.427v1.7a3.547 3.547 0 0 0-1.41-1.27 3.965 3.965 0 0 0-1.815-.449 4.587 4.587 0 0 0-1.747.332 4.373 4.373 0 0 0-1.425.925 4.3 4.3 0 0 0-.953 1.4 4.4 4.4 0 0 0-.345 1.757 4.318 4.318 0 0 0 .353 1.75 4.262 4.262 0 0 0 .96 1.4 4.418 4.418 0 0 0 1.425.918 4.547 4.547 0 0 0 1.732.333 4.135 4.135 0 0 0 1.808-.434zm-2.91-1.133a3.2 3.2 0 0 1-1-.655 3.056 3.056 0 0 1-.923-2.193 2.955 2.955 0 0 1 .248-1.2 3.12 3.12 0 0 1 1.68-1.645 3.164 3.164 0 0 1 1.237-.242 3.264 3.264 0 0 1 1.26.242 3.1 3.1 0 0 1 1.688 1.645 2.954 2.954 0 0 1 .247 1.2 3.05 3.05 0 0 1-.922 2.193 3.211 3.211 0 0 1-1.013.655 3.26 3.26 0 0 1-1.26.242 3.16 3.16 0 0 1-1.244-.242zm9.187 5.567h1.5l5.49-12.795h-1.53l-2.745 6.712-2.955-6.712h-1.56l3.78 8.351z" transform="translate(-19.969 -19.188)"/></svg></svg>