<svg id="cta-over.svg" xmlns="http://www.w3.org/2000/svg" width="97.25" height="33.25" viewBox="0 0 97.25 33.25">
  <defs>
    <style>
      .cls-1 {
        stroke: #000;
        stroke-width: 1.25px;
      }

      .cls-2 {
        fill: #fff;
        fill-rule: evenodd;
      }
    </style>
  </defs>
  <rect id="Rounded_Rectangle_1" data-name="Rounded Rectangle 1" class="cls-1" x="0.625" y="0.625" width="96" height="32" rx="16" ry="16"/>
  <path id="pre_copy" data-name="pre copy" class="cls-2" d="M22,20.684h0.88l-1.848-2.812a1.856,1.856,0,0,0,1.127-.713,2.282,2.282,0,0,0,.4-1.387,1.979,1.979,0,0,0-2.148-2.158h-2.3v7.07h0.716V17.94H20.25Zm-3.173-6.416h1.548a1.409,1.409,0,0,1,1.069.381,1.57,1.57,0,0,1,.363,1.123,1.613,1.613,0,0,1-.353,1.133,1.349,1.349,0,0,1-1.04.381H18.828V14.268Zm6.1,5.762V17.4h2.5V16.739h-2.5V14.268H28.26V13.614H24.217v7.07h4.16V20.03H24.932ZM31.4,20.8a2.8,2.8,0,0,0,1.219-.249,1.874,1.874,0,0,0,.808-0.708,1.974,1.974,0,0,0,.285-1.064,1.758,1.758,0,0,0-.421-1.221,2.727,2.727,0,0,0-1.311-.723l-0.793-.225a1.715,1.715,0,0,1-.847-0.464,1.162,1.162,0,0,1-.276-0.806,1.064,1.064,0,0,1,.382-0.864,1.611,1.611,0,0,1,1.059-.317,4.762,4.762,0,0,1,1.761.4l0.252-.635a4.413,4.413,0,0,0-.963-0.317,4.95,4.95,0,0,0-1.03-.112,2.326,2.326,0,0,0-1.6.527,1.8,1.8,0,0,0-.595,1.416,1.758,1.758,0,0,0,.421,1.221,2.725,2.725,0,0,0,1.311.723l0.793,0.225a1.717,1.717,0,0,1,.846.464,1.162,1.162,0,0,1,.276.806,1.124,1.124,0,0,1-.416.923,1.8,1.8,0,0,1-1.161.337,3.659,3.659,0,0,1-1.877-.527l-0.261.635a3.719,3.719,0,0,0,1,.41A4.517,4.517,0,0,0,31.4,20.8h0Zm4.5-.771V17.4h2.5V16.739H35.9V14.268h3.328V13.614H35.187v7.07h4.16V20.03H35.9Zm8.726,0.654h0.88l-1.848-2.812a1.856,1.856,0,0,0,1.127-.713,2.283,2.283,0,0,0,.4-1.387,1.978,1.978,0,0,0-2.148-2.158h-2.3v7.07h0.716V17.94h1.422Zm-3.173-6.416H43a1.409,1.409,0,0,1,1.069.381,1.57,1.57,0,0,1,.363,1.123,1.613,1.613,0,0,1-.353,1.133,1.349,1.349,0,0,1-1.04.381H41.456V14.268Zm9.171-.654-1.916,6.23-1.925-6.23H46l2.293,7.07h0.813l2.293-7.07H50.627Zm2.786,6.416V17.4h2.5V16.739h-2.5V14.268h3.328V13.614H52.7v7.07h4.16V20.03H53.413Zm11.464-6.416v5.83l-3.724-5.83H60.485v7.07h0.7v-5.84l3.725,5.84h0.667v-7.07h-0.7Zm5.089,7.2a2.5,2.5,0,0,0,2.1-.933,4.381,4.381,0,0,0,.725-2.729,4.382,4.382,0,0,0-.725-2.729,2.829,2.829,0,0,0-4.2,0,4.382,4.382,0,0,0-.725,2.73,4.381,4.381,0,0,0,.725,2.729,2.5,2.5,0,0,0,2.1.933h0Zm0-.654a1.755,1.755,0,0,1-1.548-.762,3.977,3.977,0,0,1-.522-2.246,3.977,3.977,0,0,1,.522-2.246,1.954,1.954,0,0,1,3.1,0,3.977,3.977,0,0,1,.522,2.246,3.977,3.977,0,0,1-.522,2.246,1.755,1.755,0,0,1-1.548.762h0Zm10.777-6.543L79.31,19.776l-1.374-6.152H77.143L75.789,19.8l-1.441-6.182H73.583l1.79,7.07h0.813l1.345-5.928,1.354,5.928H79.7l1.8-7.07H80.742Z" transform="translate(-1.375 -0.375)"/>
  <path id="pre_copy_2" data-name="pre copy 2" class="cls-2" d="M22,20.684h0.88l-1.848-2.812a1.856,1.856,0,0,0,1.127-.713,2.282,2.282,0,0,0,.4-1.387,1.979,1.979,0,0,0-2.148-2.158h-2.3v7.07h0.716V17.94H20.25Zm-3.173-6.416h1.548a1.409,1.409,0,0,1,1.069.381,1.57,1.57,0,0,1,.363,1.123,1.613,1.613,0,0,1-.353,1.133,1.349,1.349,0,0,1-1.04.381H18.828V14.268Zm6.1,5.762V17.4h2.5V16.739h-2.5V14.268H28.26V13.614H24.217v7.07h4.16V20.03H24.932ZM31.4,20.8a2.8,2.8,0,0,0,1.219-.249,1.874,1.874,0,0,0,.808-0.708,1.974,1.974,0,0,0,.285-1.064,1.758,1.758,0,0,0-.421-1.221,2.727,2.727,0,0,0-1.311-.723l-0.793-.225a1.715,1.715,0,0,1-.847-0.464,1.162,1.162,0,0,1-.276-0.806,1.064,1.064,0,0,1,.382-0.864,1.611,1.611,0,0,1,1.059-.317,4.762,4.762,0,0,1,1.761.4l0.252-.635a4.413,4.413,0,0,0-.963-0.317,4.95,4.95,0,0,0-1.03-.112,2.326,2.326,0,0,0-1.6.527,1.8,1.8,0,0,0-.595,1.416,1.758,1.758,0,0,0,.421,1.221,2.725,2.725,0,0,0,1.311.723l0.793,0.225a1.717,1.717,0,0,1,.846.464,1.162,1.162,0,0,1,.276.806,1.124,1.124,0,0,1-.416.923,1.8,1.8,0,0,1-1.161.337,3.659,3.659,0,0,1-1.877-.527l-0.261.635a3.719,3.719,0,0,0,1,.41A4.517,4.517,0,0,0,31.4,20.8h0Zm4.5-.771V17.4h2.5V16.739H35.9V14.268h3.328V13.614H35.187v7.07h4.16V20.03H35.9Zm8.726,0.654h0.88l-1.848-2.812a1.856,1.856,0,0,0,1.127-.713,2.283,2.283,0,0,0,.4-1.387,1.978,1.978,0,0,0-2.148-2.158h-2.3v7.07h0.716V17.94h1.422Zm-3.173-6.416H43a1.409,1.409,0,0,1,1.069.381,1.57,1.57,0,0,1,.363,1.123,1.613,1.613,0,0,1-.353,1.133,1.349,1.349,0,0,1-1.04.381H41.456V14.268Zm9.171-.654-1.916,6.23-1.925-6.23H46l2.293,7.07h0.813l2.293-7.07H50.627Zm2.786,6.416V17.4h2.5V16.739h-2.5V14.268h3.328V13.614H52.7v7.07h4.16V20.03H53.413Zm11.464-6.416v5.83l-3.724-5.83H60.485v7.07h0.7v-5.84l3.725,5.84h0.667v-7.07h-0.7Zm5.089,7.2a2.5,2.5,0,0,0,2.1-.933,4.381,4.381,0,0,0,.725-2.729,4.382,4.382,0,0,0-.725-2.729,2.829,2.829,0,0,0-4.2,0,4.382,4.382,0,0,0-.725,2.73,4.381,4.381,0,0,0,.725,2.729,2.5,2.5,0,0,0,2.1.933h0Zm0-.654a1.755,1.755,0,0,1-1.548-.762,3.977,3.977,0,0,1-.522-2.246,3.977,3.977,0,0,1,.522-2.246,1.954,1.954,0,0,1,3.1,0,3.977,3.977,0,0,1,.522,2.246,3.977,3.977,0,0,1-.522,2.246,1.755,1.755,0,0,1-1.548.762h0Zm10.777-6.543L79.31,19.776l-1.374-6.152H77.143L75.789,19.8l-1.441-6.182H73.583l1.79,7.07h0.813l1.345-5.928,1.354,5.928H79.7l1.8-7.07H80.742Z" transform="translate(-1.375 -0.375)"/>
</svg>
