<svg width="232" height="131" viewBox="0 0 232 131" xmlns="http://www.w3.org/2000/svg" xmlns:xlink="http://www.w3.org/1999/xlink"><svg width="75.94" height="56.38" viewBox="-1 -1 75.94 56.38" id="device_txt1" x="156" xmlns="http://www.w3.org/2000/svg"><defs><style>.acls-1{fill-rule:evenodd}</style></defs><path id="aJazz_Coffee_Skewed_type_" data-name="Jazz &amp; Coffee Skewed type" class="acls-1" d="M118.41 178.3a5.231 5.231 0 0 0 2.107-3.089c1.264-4.893.843-9.9 1.355-15.077a1.964 1.964 0 0 1 .6-.246.413.413 0 0 0 .21-.143 1.587 1.587 0 0 0 .843-.273c.452.011.181-.17.331-.277l.121-.013a.807.807 0 0 0 .391-.373.229.229 0 0 0 .15-.227 6.232 6.232 0 0 0-.993-.163 9.5 9.5 0 0 0-2.8.064c-1.5.163-3.01.478-5 .694-.09.01-.15-.014-.271 0a.439.439 0 0 0-.271.15.845.845 0 0 0 .181.763.8.8 0 0 0 .331.235.414.414 0 0 0 .3.148 3.814 3.814 0 0 0 1.415-.154c-.181 2.518-.271 5.207-.482 7.818a25.861 25.861 0 0 1-1.2 7.837 2.377 2.377 0 0 1-.813 1.142 1.088 1.088 0 0 1-.451.29 1.133 1.133 0 0 1-.3-.088c-.542-.091-1.626-.274-1.836.441a.994.994 0 0 0 .24.576 1.112 1.112 0 0 1 .271.3 4.343 4.343 0 0 0 .783.4 3.033 3.033 0 0 0 1.505.047c.03 0 0 .09.03.087a6.425 6.425 0 0 0 1.5-.164 3.892 3.892 0 0 0 1.753-.705zm19.234-9.016a.484.484 0 1 1 .181-.05c-.241-.064.06-.368-.121-.348-.03 0-.3.093-.181-.1a5.777 5.777 0 0 0-1.384-.03c-.271-2.408-1.2-10.374-1.866-11.837-.151-.013-.151-.013-.181-.1l-.06.006h-.03a.1.1 0 0 0-.091-.05 1.171 1.171 0 0 0 .121.318.45.45 0 0 0-.331-.145.144.144 0 0 0-.091-.14.132.132 0 0 0 .031.117c-.031 0-.031 0-.031.033a1.528 1.528 0 0 0 .211.369.569.569 0 0 1-.211-.1 2.658 2.658 0 0 0-.3-.328v.12c0-.03-.03-.027-.03 0 .03 0 0 .091 0 .091a.276.276 0 0 0-.15-.1c.06.023 0 .03 0 .03a.59.59 0 0 1 .15.194.471.471 0 0 0-.271-.031 1.688 1.688 0 0 1-.12-.257c0 .09-.151.076-.151.106a.051.051 0 0 1-.06-.053 1.283 1.283 0 0 1-.15-.014c-.392-.168 0-.331-.422-.436-2.347.075-3.642 4.46-4.515 6.06v.09c-1.083 2.526-2.137 4.989-2.98 7.458-.18.171-.662.735-.361 1.063a23.29 23.29 0 0 0-1.264 4.382 3.733 3.733 0 0 0 .15 2.151l.211.158.271.121c.03.538.361.261.662.529a1.625 1.625 0 0 0 .542.032c.452-.049 1.355-.268 1.776-.314.722-2.185 1.806-4.862 2.438-6.616.6-.156 3.281-.478 4.184-.576.241 2.532.542 4.908.9 7.336a5.018 5.018 0 0 0 .151.646.671.671 0 0 0 .18-.381v-.06l.091-.01v-.24c0-.061.03-.124.03-.244a.816.816 0 0 1 .03.237 1.556 1.556 0 0 1 .09-.281s-.03.034.06.054a.118.118 0 0 1 .03-.063.2.2 0 0 1 .061.143c0 .061-.031.184.03.178 0 .391.18-.02.09-.311a1.329 1.329 0 0 1 .12.288c.061-.007 0 .03.061.023a.087.087 0 0 1 .09-.1.341.341 0 0 1 .271.272.537.537 0 0 0 .03-.214.051.051 0 0 1 .06.053c.12-.013 0-.09.12-.1a.993.993 0 0 0 .061-.608 2.415 2.415 0 0 0 .12.528 3.2 3.2 0 0 0 .151.586 1.3 1.3 0 0 1 .06-.518.208.208 0 0 1-.06-.084c0-.06.06-.007.06-.067v-.361c.06-.1 0-.121.06-.247a.7.7 0 0 0 .211.579v-.331c.09.02.06-.007.09-.161a.873.873 0 0 1 .06.2c.211.128-.03.335.121.318a14.483 14.483 0 0 0 .15-2.3c-.15-1.609-.331-3.425-.451-5.038.21-.083.361-.1.571-.182l.091-.01-.241-.094c.09-.07-.06-.054-.06-.084l.15-.016c-.12.013.151-.077.271-.09a.2.2 0 0 1-.06-.084c-.06.037-.151.077-.151-.014.091-.039.091-.009.211-.053.151-.166.211-.022.181-.26l.12-.013c-.09-.111.03-.154.151-.167.241-.116-.091-.231.15-.287a.3.3 0 0 1-.088-.169zm-7.826.009c1.174-3.2 1.836-4.625 2.588-7.055.03 2.014.392 4.232.633 6.7-1.295.147-1.927.126-3.221.362zm7.314.92a.119.119 0 0 0-.06.036.119.119 0 0 0 .06-.034zm14.177 6.644a.872.872 0 0 1-.481-.038 8.559 8.559 0 0 0 1.565-.531c.09-.01.12-.224.211-.234.331-.156.722-.2 1.083-.359.331-.036.572-.152.9-.188a16.2 16.2 0 0 0 1.987-.337 3.181 3.181 0 0 1 .482-.383.9.9 0 0 0 .481-.444c-.782-.095-1.565-.1-2.408-.159-.873 0-1.625-.335-2.378-.374-.873 0-1.926.21-2.859.311-2.679.412-5.449.834-8.128 1.126a63.093 63.093 0 0 1 7.345-8.475c1.5-1.609 3.161-3.144 4.485-4.823a6.031 6.031 0 0 0 1.535-3.3 2.584 2.584 0 0 0-2.528-3.036 9.488 9.488 0 0 0-4.184.455 9.611 9.611 0 0 0-3.582 1.443 1.73 1.73 0 0 0 .15 2.151 2.769 2.769 0 0 0 2.288-.158 35.93 35.93 0 0 1 4.515-1.6 5.091 5.091 0 0 1 1.806.014 6.6 6.6 0 0 1-1.987 2.172c-.662.614-1.475 1.245-2.167 1.832a106.073 106.073 0 0 0-8.609 7.769 16.265 16.265 0 0 0-2.107 2.156 6.911 6.911 0 0 0-1.625 2.525 2.335 2.335 0 0 0 .211 1.632l.3.479a3.2 3.2 0 0 0 .361.563 4.212 4.212 0 0 0 4.485 1.769l2.829-.307c1.054-.235 2.107-.471 3.131-.793.481-.172.993-.318 1.475-.461a7.04 7.04 0 0 0 1.418-.395zm17.368-21.4a2.168 2.168 0 0 0-1.987-1.891 10.4 10.4 0 0 0-3.672.159c-2.017.4-4.6.8-5.96 2.214-.09.371.03.418.3.479a5.6 5.6 0 0 0 .662.5c2.077-.166 3.7-.915 5.629-.944.211-.023.421.014.361.141a.7.7 0 0 1 0 .6c-1.113 3.011-9.271 12.9-9.421 16.648a1.71 1.71 0 0 0 1.776 1.582 21.053 21.053 0 0 0 7.073-.649 4.847 4.847 0 0 0 1.6-.565c.03-.063-.151.016-.121-.047.121-.134-.03-.117.151-.2a1.954 1.954 0 0 1 .391-.073c.181-.11.361-.129.3-.213-.15-.074-.331.036-.361-.111a4.321 4.321 0 0 0 .843-.152 1.77 1.77 0 0 0 .18-.231l.091-.009c.03-.124-.181.019-.151-.1a1.255 1.255 0 0 0 .482-.173c0-.09-.151.016-.06-.114a1.13 1.13 0 0 0 .18-.14.116.116 0 0 0-.12-.077 7.885 7.885 0 0 0-1.566-.071c-1.986.216-2.979.5-4.906.715-.873.095-.783-.487-.572-.9 2.047-4.317 7.676-11.943 8.7-14.613a2.869 2.869 0 0 0 .178-1.758zm17.157-1.265a2.274 2.274 0 0 0-1.114-1.5 2.685 2.685 0 0 0-1.776-.379 6.349 6.349 0 0 1 1.324.277 4.292 4.292 0 0 0-1.746-.081 4.541 4.541 0 0 0-3.551 4.029 2.1 2.1 0 0 0 .06.626c-.06.006-.06.066-.06.127a3 3 0 0 0-.121-.409 10.082 10.082 0 0 0 .211 4.372.851.851 0 0 1-.331.548c-1.686 2.08-3.371 4.009-4 5.974-.331.939-.18 2.4.663 2.878 1.836 1.877 4.816.228 6.772-1.1a2.552 2.552 0 0 0 .331.385 1.022 1.022 0 0 0 .452.583c.03.027-.09.431.12.5.03.087.271.181.271.241.271.121 1.234.106 1.144-.155.09-.009.421.075.361-.1-.361-.8-1.114-2.347-1.294-2.9a9.21 9.21 0 0 0 2.318-4.2c.12-.434-.181-.07-.331-.205a2.259 2.259 0 0 0 0-.451c-.271.33-.512-.125-.362-.412a2.7 2.7 0 0 0-.271-.633 14.291 14.291 0 0 1-2.317 3.774 12.864 12.864 0 0 1-.994-3.022c.873-1.059 3.161-3.565 3.582-4.634a6.082 6.082 0 0 0 1.054-2.433 1.9 1.9 0 0 0-.395-1.692zm-2.318 1.938c-.933 1.095-1.927 2.136-2.8 3.254a7.79 7.79 0 0 1 .362-3.29c.6-1.48 2.558-2.265 3.551-1.711a5.178 5.178 0 0 1-1.113 1.754zm-5.84 12.676c-.12-.8 1.686-3.254 2.408-4.055a22.386 22.386 0 0 0 .994 2.661c-.362.678-3.251 2.347-3.402 1.401zm3.01-14.806a4.507 4.507 0 0 1 .512-.447c.09-.01.12-.134.211-.053a4.343 4.343 0 0 0-.572.513c-.06.037-.391.494-.391.314a.63.63 0 0 1 .12-.164zm-1.655 3.641a6.793 6.793 0 0 1 .331-1.33 3.5 3.5 0 0 1-.181.8.09.09 0 0 1 0 .09 2.459 2.459 0 0 1-.06.428.081.081 0 0 1-.09.07v-.06zm.421-.949c.06-.157.09-.431.151-.588.15-.257-.091.582-.151.709-.03.01 0-.053 0-.113zm1.174-2.144a.519.519 0 0 1-.211.234.365.365 0 0 1 .091-.221.93.93 0 0 0 .271-.3c-.03.07-.151.294-.151.294zm-.361.521c-.03.033 0 .03 0 .03a.355.355 0 0 1-.06.187c-.241.003.095-.424.06-.21zm-58.243 31.691c-3.853 2.075-7.886 8.474-7.886 13.862 0 4.184 2.016 6.463 6.351 5.991a8.872 8.872 0 0 0 4.936-1.982.11.11 0 0 0-.12-.077l.12-.134a.222.222 0 0 0-.12-.017c-.09.04-.151.017-.151-.014-.03-.087 0-.06-.12-.077l.03-.063.12-.134a.513.513 0 0 0-.21-.007c-.03 0 .03-.124 0-.15a6.33 6.33 0 0 1-2.98.986c-2.589.282-3.251-1.9-3.251-4.462a14.972 14.972 0 0 1 1.475-6.211c.993-2.065 4.214-6.479 5.207-6.256a.861.861 0 0 0 1.174-.519c.06-.789-2.318-1.945-4.575-.736zm14.689 2.194c1.264-.408 3.19-.528 3.642-1.871.271-.872-.06-.927-.3-1.563-.3-1.291-4.335-.822-5.177-.49-4.275 1.4-8.308 8.369-8.308 12.312-.241 3.759.843 5.477 3.823 7.17a5.282 5.282 0 0 0 4.936.275c3.311-1.835 5.027-6.687 5.027-10.089 0-.692-.151-2.512-.692-2.663-.061-.054 0-.211-.061-.235a1.2 1.2 0 0 0-.451-.643 1.315 1.315 0 0 0-.6-.747l-.211-.4c-.12-.047-.361-.051-.361.16a.5.5 0 0 0 0 .361 6.509 6.509 0 0 1 .3 2.165 23.734 23.734 0 0 1-1.9 7.1 6.865 6.865 0 0 1-1.535 2.154 2.941 2.941 0 0 1-1.776.856c-2.138.232-1.987-3.848-1.837-5.128.695-3.327 2.411-7.065 5.481-8.724zm17.277-4.98a.23.23 0 0 1 .241-.026 2.112 2.112 0 0 0-1.084-.3c0-.03.211-.053.211-.083-.06.006-.241-.034-.331-.024a16.943 16.943 0 0 0-3.582-.092 26.5 26.5 0 0 0-5.027.968c-1.234.586-1.625.237-1.685.665.03.449 1.535.465 1.535.5l-.121.013c0 .03.091.02.091.05a70.628 70.628 0 0 0-2.228 15.564c-.03.695.09 3.15.963 3.085.271-.029.331-.276.663-.312v-.03a.185.185 0 0 1 .15-.137.1.1 0 0 1 .09.02v-.06a.074.074 0 0 1 .061-.067.141.141 0 0 0 .15.1c.03-.214.241-.086.241-.147a.119.119 0 0 0 .03-.093.163.163 0 0 1 .06-.127l.06.023c.121.017.3-.213.452-.229s.361-.1.542-.119a.31.31 0 0 1 .09.05c.06-.1 0-.06.06-.067a.87.87 0 0 1 .151-.076c.03 0 .12.077.15.074s.03-.034.03-.064a.1.1 0 0 1-.03-.087l.091-.01a.357.357 0 0 1 .21.218.551.551 0 0 0-.06-.174v-.03a.593.593 0 0 0 .241.064 5.579 5.579 0 0 1-.09-2.037c.09-2.568.541-5.026.872-7.59 1.325-.2 2.71-.355 3.974-.613a4.162 4.162 0 0 0 .782-.3c-.12.013-.331.126-.511.146a2.712 2.712 0 0 1 .421-.166.453.453 0 0 0-.391.042l.06.024a1.008 1.008 0 0 1-.391.073c.24-.117.391-.224.662-.343a.838.838 0 0 0-.542.059c-.03 0-.06.066-.09.07 0-.03-.03-.027-.03-.057l.06-.037c.451-.169.813-.179 1.2-.342a.426.426 0 0 1-.181-.01.136.136 0 0 1 .06-.067.8.8 0 0 0 .271-.059c-.12-.047-.692.045-.722.018l.241-.026a.057.057 0 0 1-.06-.054 1.648 1.648 0 0 0 .391-.073c.03 0 0-.03 0-.03.241-.056.391-.042.542-.089-.03 0-.121-.017-.151-.013a.468.468 0 0 0 .271-.12.372.372 0 0 1-.181-.011l-.06.067c0-.06-.15-.044-.241.026l-.03-.027a.594.594 0 0 1 .151-.076.407.407 0 0 0 .15-.077.242.242 0 0 0 .211-.053c-2.2.059-3.612.3-5.569.486a39.136 39.136 0 0 1 1.355-6.5 26.206 26.206 0 0 1 3.13-.431.317.317 0 0 1 .181.011c.03-.064 0-.03 0-.091.09-.009.12.017.12-.043.181-.019.362.111.572.089a.1.1 0 0 1 .061-.067.118.118 0 0 1 .09.02.055.055 0 0 0 .06.024.162.162 0 0 1-.09-.111.759.759 0 0 0 .391.078.132.132 0 0 0-.12-.107 1.024 1.024 0 0 1-.542-.182c.15.013.331.114.421.1.06-.006.091-.01.091-.07a.738.738 0 0 0 .361.021c-.121-.047-.271-.061-.361-.111a1.767 1.767 0 0 0 .391-.012h.03c.03 0 .12.017.15.014s.031 0 .031-.033a3.875 3.875 0 0 0-.512-.065 1.168 1.168 0 0 1 .3-.214.393.393 0 0 1 .12.048.938.938 0 0 0 .151-.077c.12.017.15.014.15.044zm8.308-.934a2.119 2.119 0 0 0-.783-.307 1.217 1.217 0 0 0-.933-.319 17.579 17.579 0 0 0-3.853.3c-.632-.172-2.679.051-2.679 1.105a62.757 62.757 0 0 1-1.448 10.841c-.421 3-1.023 6.011-.12 8.953a.219.219 0 0 1 .09.14c.12.047.241-.026.181-.17a4.317 4.317 0 0 1-.181-.672s.09-.221.09.02a1.257 1.257 0 0 0 .241.606c-.06-.084-.211-.519-.03-.358h.03a.392.392 0 0 0 .121.228c0-.12-.031-.267-.031-.448.031.177.211.549.151.254a.381.381 0 0 0-.06-.113.417.417 0 0 1 0-.271 1.229 1.229 0 0 0 .09.231v-.271a.305.305 0 0 1 .09.2.1.1 0 0 1 .091.05h.03c0 .03-.03.093.06.053a.626.626 0 0 1 .03.118c0-.061.03-.214.12-.194a.376.376 0 0 0 .061.2c0-.09.03-.124.03-.214a.1.1 0 0 1 .09.05c.12-.013.03-.123.03-.214a.062.062 0 0 0 .09-.04c0 .181.121.8.061.054l.06-.006c.03 0 .03 0 .03-.034l.06-.006c0-.03-.06-.144 0-.151a1.079 1.079 0 0 0 .151.285h.03a1.249 1.249 0 0 1-.03-.148c.03 0 .06.024.06.084h.03v.06a.343.343 0 0 0 .03-.124.364.364 0 0 0 .12.108l.332-.036c-.392-3.389.481-7.1 1.113-10.747a37.157 37.157 0 0 1 4.816-.765c-.06.006-.12.013-.12-.047.211-.023.451-.079.572-.093l-.452-.041a.517.517 0 0 1 .121-.073s-.03-.027 0-.03a1.238 1.238 0 0 0 .241.034.343.343 0 0 1 .27-.09c-.03-.027 0-.06-.09-.08-.03 0-.03 0-.03-.057.211-.023.452-.019.723-.049-.211-.127-.512-.095-.693-.195.09-.01.121.017.181.01l-.03-.027h.03s.09.02.09-.01c.03 0-.06-.023.03-.063a.105.105 0 0 1-.12-.047.52.52 0 0 0 .3-.033 11.638 11.638 0 0 0-5.569-.116c.361-1.906.994-5.828.723-5.979.812-.148 2.468-.3 3.22-.38.03 0 .061-.067.091-.07a.843.843 0 0 1 .21.037.739.739 0 0 1 .452-.11.976.976 0 0 0 .6-.185.664.664 0 0 1-.271 0 2.426 2.426 0 0 1 .512-.146 1.661 1.661 0 0 1-.271-.181l.722-.079c-.12-.077-.3-.057-.451-.161a3.455 3.455 0 0 0 .552-.071zm12.431-.781c-.963-.8-3.552-.728-5.96-.556-.9.1-2.438.175-3.522.323-1.023.172-2.287.46-2.287 1.122a.773.773 0 0 0 .511.607c-.542 4.182-1.053 8-1.625 11.886-.03.846-.361 2.6-.331 4.039.03 1.351.331 2.4 1.414 2.345.091-.1.091-.311.211-.445a3.447 3.447 0 0 0 2.167.216 40.908 40.908 0 0 0 4.154-1.024c.9-.279-.21-.368 1.445-.609 0-.271.722-.229.722-.349a.026.026 0 0 0 .031.026.64.64 0 0 0 .12-.043 1.662 1.662 0 0 1-.211-.037l.091-.01c-.031-.057.632-.1.632-.159 0 0-.121-.017-.331-.024a.146.146 0 0 0 .12-.1.853.853 0 0 1-.3.032c.12-.073.181-.049.3-.123.09-.01.181.011.271 0a.241.241 0 0 0 .15-.047 1.609 1.609 0 0 0-1.444-.174 5.831 5.831 0 0 0-.693.106 6.886 6.886 0 0 0-1.053-.006l-1.626.3a6.758 6.758 0 0 1-1.384.091 4.824 4.824 0 0 1-.03-.659 37.519 37.519 0 0 1 .481-5.471c1.776-.253 2.89-.525 4-.706.481-.083.632-.1.662-.1v-.06l-.112-.05a2.444 2.444 0 0 0 .572.028l.181-.079c-.03 0-.03-.027-.06-.024.572-.092.542-.239.542-.239a.3.3 0 0 1-.181-.071.822.822 0 0 0 .271 0 1.36 1.36 0 0 0 .271-.119.582.582 0 0 1 .12.017c.09-.01-.09-.051-.09-.141a.643.643 0 0 0 .391.018c-2.107-1.035-5-.33-6.321-.125l1.234-8.141c.963-.135 4.425-.723 4.666-.779a1.111 1.111 0 0 0-.211-.037 6.911 6.911 0 0 1 .843-.062v-.03a.915.915 0 0 1-.3-.088 1.139 1.139 0 0 0 .542-.028.322.322 0 0 0-.091-.051l.151-.016a.074.074 0 0 0-.06-.054l.24.034a.3.3 0 0 0 .091-.1 1.188 1.188 0 0 1-.452-.071c0-.03.03-.034.06-.037l.151-.016c.271-.06.271 0 .271-.03a.331.331 0 0 0 .03-.093 2.787 2.787 0 0 0 .566-.007zm-.391.223a.174.174 0 0 0-.151-.074.115.115 0 0 0 .151.074zm-2.469 10.051a.1.1 0 0 0 .091-.01zm10.987-11.133a.923.923 0 0 0-.6-.325 4.472 4.472 0 0 0-2.77-.361c-1.023.111-2.648.408-3.581.57-.422.046-1.114.332-.783.958a.8.8 0 0 0 .482.429 52.27 52.27 0 0 0-.813 5.567 18.4 18.4 0 0 0-.211 1.95c-.09.341-.09.822-.15 1.22-.091.792-.181 1.615-.3 2.381l-.121.765c-.06.97-.271 2.077-.3 3.073v.181a7.982 7.982 0 0 0 .06 1.468c-.09.1-.451.35-.271.481a.056.056 0 0 0 .061.024c.03.057.03.087.09.08a.587.587 0 0 0 .331.2.489.489 0 0 0 .361.412.1.1 0 0 0 .06.054.26.26 0 0 1 .121.077.245.245 0 0 0 .18-.05.3.3 0 0 1 .211-.053 1.339 1.339 0 0 1 .482-.022h.03c.12.017.843-.092.963-.105a1.811 1.811 0 0 1 .422-.016c1.143-.124 2.317-.764 3.672-.972a1.161 1.161 0 0 1 .451-.049v-.03c0-.03.091-.01.091-.04a.209.209 0 0 0 .12-.073.268.268 0 0 1-.211-.037c0-.06.061-.037.091-.04v-.06l.06-.007a.118.118 0 0 0-.03.064.123.123 0 0 0 .03-.064 1.093 1.093 0 0 1 .18.01.81.81 0 0 1-.21-.157.619.619 0 0 1 .481-.293.267.267 0 0 1-.15-.165c.12.078.15-.016.211-.053a1.8 1.8 0 0 0-1.445-.715 8.1 8.1 0 0 0-3.4.671c.181-1.705.452-4.715.783-6.768.241-.086 1.686-.153 1.686-.243 0-.03-.241 0 .872-.336 0-.06.031 0 .061-.007 0-.06.03-.063.03-.063a1.425 1.425 0 0 1 .3-.153c.18-.05.361-.13.451-.14l.422-.046c.03 0 0-.03 0-.03a.211.211 0 0 0 .18-.08c-.06-.053-.18-.04-.18-.13 0-.031.03 0 .03-.034 0-.09-.06-.053-.151-.074a.93.93 0 0 0-.3-.178 12.487 12.487 0 0 0-3.251.023c.241-2.344.693-4.922.994-7.362a9.693 9.693 0 0 1 1.986-.367 2.818 2.818 0 0 1 .843-.032.279.279 0 0 1 .121-.133c.03 0 .18.01.12-.013a.11.11 0 0 0 .06-.037c-.06.007-.12.013-.12-.047.421.014.12-.043.331-.156l.241-.027a.413.413 0 0 0 .03-.033c-.181.02.03-.244.06-.247.151-.017.211.037.12-.1.145-.044.175-.078.386-.135z" transform="translate(-112.344 -152.312)"/></svg><svg width="77.38" height="51.66" viewBox="-1 -1 77.38 51.66" id="device_txt2" y="79" xmlns="http://www.w3.org/2000/svg"><defs><style>.bcls-1{fill:#fff;fill-rule:evenodd;opacity:.85;mix-blend-mode:screen}</style></defs><path id="bJazz_Coffee" data-name="Jazz &amp; Coffee" class="bcls-1" d="M119.937 177.39a4.505 4.505 0 0 0 2.1-2.85c1.26-4.74.84-9.779 1.35-14.879a1.761 1.761 0 0 1 .6-.18.355.355 0 0 0 .21-.12 1.456 1.456 0 0 0 .84-.18c.45.06.18-.15.33-.24h.12a.69.69 0 0 0 .39-.33c.12 0 .12-.12.15-.21a6.658 6.658 0 0 0-.99-.27 9.585 9.585 0 0 0-2.79-.24c-1.5 0-3 .15-4.98.15-.09 0-.15-.03-.27-.03a.38.38 0 0 0-.27.12.906.906 0 0 0 .18.78.938.938 0 0 0 .33.27.468.468 0 0 0 .3.18 3.712 3.712 0 0 0 1.41 0c-.18 2.49-.27 5.16-.48 7.739a24.553 24.553 0 0 1-1.2 7.68 2.045 2.045 0 0 1-.81 1.05.944.944 0 0 1-.45.24 1.254 1.254 0 0 1-.3-.12c-.54-.15-1.62-.45-1.83.24a1.1 1.1 0 0 0 .24.6 1.308 1.308 0 0 1 .27.33 4.912 4.912 0 0 0 .78.48 3.1 3.1 0 0 0 1.5.21c.03 0 0 .09.03.09a6.238 6.238 0 0 0 1.5 0 3.515 3.515 0 0 0 1.74-.51zm19.169-6.9a.461.461 0 1 1 .18-.03c-.24-.09.06-.36-.12-.36-.03 0-.3.06-.18-.12a5.893 5.893 0 0 0-1.38-.18c-.27-2.43-1.2-10.469-1.86-12-.15-.03-.15-.03-.18-.12h-.09a.111.111 0 0 0-.09-.06 1.3 1.3 0 0 0 .12.33.505.505 0 0 0-.33-.18.165.165 0 0 0-.09-.15.145.145 0 0 0 .03.12c-.03 0-.03 0-.03.03a1.687 1.687 0 0 0 .21.39.644.644 0 0 1-.21-.12 3.177 3.177 0 0 0-.3-.36v.12c0-.03-.03-.03-.03 0 .03 0 0 .09 0 .09a.325.325 0 0 0-.15-.12c.06.03 0 .03 0 .03a.693.693 0 0 1 .15.21.493.493 0 0 0-.27-.06 1.894 1.894 0 0 1-.12-.27c0 .09-.15.06-.15.09a.059.059 0 0 1-.06-.06 1.3 1.3 0 0 1-.15-.03c-.39-.21 0-.33-.42-.48-2.34-.18-3.629 4.05-4.5 5.55v.09c-1.08 2.4-2.13 4.739-2.97 7.109-.18.15-.66.66-.36 1.02a21.258 21.258 0 0 0-1.26 4.23 3.808 3.808 0 0 0 .15 2.16l.21.18.27.15c.03.54.36.3.66.6a1.7 1.7 0 0 0 .54.09c.45 0 1.35-.12 1.77-.12.72-2.1 1.8-4.65 2.429-6.33.6-.09 3.27-.12 4.17-.12.24 2.55.54 4.95.9 7.41a5.65 5.65 0 0 0 .15.66.592.592 0 0 0 .18-.36v-.06h.09v-.24c0-.06.03-.12.03-.24a.844.844 0 0 1 .03.24 1.4 1.4 0 0 1 .09-.27s-.03.03.06.06a.1.1 0 0 1 .03-.06.23.23 0 0 1 .06.15c0 .06-.03.18.03.18 0 .39.18 0 .09-.3a1.472 1.472 0 0 1 .12.3c.06 0 0 .03.06.03a.077.077 0 0 1 .09-.09.393.393 0 0 1 .27.3.511.511 0 0 0 .03-.21.059.059 0 0 1 .06.06c.12 0 0-.09.12-.09a.959.959 0 0 0 .06-.6 2.571 2.571 0 0 0 .12.54 3.509 3.509 0 0 0 .15.6 1.249 1.249 0 0 1 .06-.51.231.231 0 0 1-.06-.09c0-.06.06 0 .06-.06v-.359c.06-.09 0-.12.06-.24a.773.773 0 0 0 .21.6v-.33c.09.03.06 0 .09-.15a.93.93 0 0 1 .06.21c.21.15-.03.33.12.33a14.09 14.09 0 0 0 .15-2.28c-.15-1.62-.33-3.45-.45-5.07.21-.06.36-.06.57-.12h.09l-.24-.12c.09-.06-.06-.06-.06-.09h.15c-.12 0 .15-.06.27-.06a.231.231 0 0 1-.06-.09c-.06.03-.15.06-.15-.03.09-.03.09 0 .21-.03.15-.15.21 0 .18-.24h.12c-.09-.12.03-.15.15-.15.24-.09-.09-.24.15-.27a.342.342 0 0 1-.089-.18zm-7.8-.84c1.17-3.06 1.83-4.409 2.58-6.749.03 2.01.39 4.259.63 6.749-1.29 0-1.916-.09-3.21 0zm7.29 1.71a.1.1 0 0 0-.06.03.1.1 0 0 0 .064-.03zm14.13 8.16a.915.915 0 0 1-.48-.09 7.77 7.77 0 0 0 1.56-.36c.09 0 .12-.21.21-.21.33-.12.72-.12 1.08-.24.33 0 .57-.09.9-.09a15.538 15.538 0 0 0 1.98-.12 2.719 2.719 0 0 1 .48-.33.768.768 0 0 0 .48-.39c-.78-.18-1.56-.27-2.4-.42-.87-.09-1.62-.51-2.37-.63-.87-.09-1.92 0-2.85 0-2.67.12-5.43.24-8.1.24a53.489 53.489 0 0 1 7.32-7.65c1.5-1.44 3.15-2.79 4.47-4.319a5.321 5.321 0 0 0 1.53-3.12 2.92 2.92 0 0 0-2.52-3.3 9.3 9.3 0 0 0-4.17 0 8.663 8.663 0 0 0-3.57 1.05 1.767 1.767 0 0 0 .15 2.16 2.746 2.746 0 0 0 2.28.09 32.849 32.849 0 0 1 4.5-1.11 5.2 5.2 0 0 1 1.8.21 5.6 5.6 0 0 1-1.98 1.95c-.66.54-1.47 1.08-2.16 1.59a89.663 89.663 0 0 0-8.579 6.809 13.692 13.692 0 0 0-2.1 1.92 5.928 5.928 0 0 0-1.62 2.34 2.436 2.436 0 0 0 .21 1.65l.3.51a3.817 3.817 0 0 0 .36.6 4.682 4.682 0 0 0 4.469 2.25h2.82c1.05-.12 2.1-.24 3.12-.45.48-.12.99-.21 1.47-.3a6.577 6.577 0 0 0 1.41-.24zm17.31-19.439a2.486 2.486 0 0 0-1.98-2.1 10.427 10.427 0 0 0-3.66-.24c-2.01.18-4.59.3-5.94 1.56-.09.36.03.42.3.51a6.462 6.462 0 0 0 .66.57c2.07.06 3.69-.51 5.61-.33.21 0 .42.06.36.18a.7.7 0 0 1 0 .6c-1.11 2.88-9.24 11.849-9.39 15.569a1.951 1.951 0 0 0 1.77 1.77 20.745 20.745 0 0 0 7.05.12 4.407 4.407 0 0 0 1.59-.39c.03-.06-.15 0-.12-.06.12-.12-.03-.12.15-.18a1.845 1.845 0 0 1 .39-.03c.18-.09.36-.09.3-.18-.15-.09-.33 0-.36-.15a4.1 4.1 0 0 0 .84-.06 1.522 1.522 0 0 0 .18-.21h.09c.03-.12-.18 0-.15-.12a1.13 1.13 0 0 0 .48-.12c0-.09-.15 0-.06-.12a.934.934 0 0 0 .18-.12.131.131 0 0 0-.12-.09 8.1 8.1 0 0 0-1.56-.24c-1.98 0-2.97.18-4.89.18-.87 0-.78-.57-.57-.96 2.04-4.08 7.65-11.069 8.67-13.619a2.774 2.774 0 0 0 .18-1.74zm17.1.6a2.624 2.624 0 0 0-1.11-1.62 2.9 2.9 0 0 0-1.77-.57 6.835 6.835 0 0 1 1.32.42 4.4 4.4 0 0 0-1.74-.27c-2.19.09-3.27 1.98-3.54 3.63a2.143 2.143 0 0 0 .06.63c-.06 0-.06.06-.06.12a3.062 3.062 0 0 0-.119-.42 10.241 10.241 0 0 0 .209 4.379.735.735 0 0 1-.329.51c-1.68 1.89-3.36 3.63-3.99 5.52a2.72 2.72 0 0 0 .66 2.94c1.83 2.07 4.8.75 6.749-.36a2.93 2.93 0 0 0 .33.42 1.182 1.182 0 0 0 .45.63.587.587 0 0 0 .12.51c.03.09.27.21.27.27.27.15 1.23.24 1.14-.03.09 0 .42.12.36-.06-.36-.84-1.11-2.46-1.29-3.03a8 8 0 0 0 2.31-3.93c.12-.42-.18-.09-.33-.24a2.25 2.25 0 0 0 0-.45c-.27.3-.51-.18-.36-.45a3.061 3.061 0 0 0-.27-.66 12.308 12.308 0 0 1-2.31 3.51 14.121 14.121 0 0 1-.99-3.12c.87-.96 3.15-3.209 3.57-4.229a5.378 5.378 0 0 0 1.05-2.31 2.025 2.025 0 0 0-.391-1.74zm-2.31 1.68c-.93.99-1.92 1.92-2.79 2.94a7.5 7.5 0 0 1 .36-3.24 2.673 2.673 0 0 1 3.54-1.32 4.456 4.456 0 0 1-1.111 1.62zm-5.819 12c-.12-.81 1.679-3.06 2.4-3.78a24.916 24.916 0 0 0 .99 2.76c-.362.629-3.241 1.979-3.391 1.019zm3-14.429a3.871 3.871 0 0 1 .51-.39c.09 0 .12-.12.21-.03a3.736 3.736 0 0 0-.57.45c-.06.03-.39.45-.39.27a.527.527 0 0 1 .12-.15zm-1.65 3.45a6.263 6.263 0 0 1 .33-1.29 3.287 3.287 0 0 1-.18.78.091.091 0 0 1 0 .09 2.353 2.353 0 0 1-.06.42s0 .06-.09.06v-.06zm.42-.9c.06-.15.09-.42.15-.57.15-.24-.09.57-.15.69-.032-.002-.002-.061-.002-.121zm1.17-2.01a.443.443 0 0 1-.21.21c-.06-.03.09-.18.09-.21a.774.774 0 0 0 .27-.27c-.032.059-.152.269-.152.269zm-.36.48c-.03.03 0 .03 0 .03a.322.322 0 0 1-.06.18c-.242-.031.088-.421.058-.211zm-52.948 25.63c-3.84 1.65-7.86 7.59-7.86 12.959 0 4.17 2.01 6.66 6.33 6.66a8.009 8.009 0 0 0 4.919-1.44.126.126 0 0 0-.12-.09l.12-.12a.227.227 0 0 0-.12-.03c-.09.03-.15 0-.15-.03-.03-.09 0-.06-.12-.09l.03-.06.12-.12a.511.511 0 0 0-.21-.03c-.03 0 .03-.12 0-.15a5.8 5.8 0 0 1-2.969.66c-2.58 0-3.24-2.25-3.24-4.8a13.857 13.857 0 0 1 1.47-6.029c.99-1.95 4.2-6 5.189-5.67.45.18 1.14.12 1.17-.39.058-.781-2.312-2.191-4.561-1.231zm14.639 3.78c1.26-.27 3.18-.18 3.63-1.47.27-.84-.06-.93-.3-1.59-.3-1.32-4.32-1.29-5.16-1.05-4.259.93-8.279 7.44-8.279 11.369-.24 3.72.84 5.55 3.81 7.56a5.434 5.434 0 0 0 4.919.81c3.3-1.47 5.01-6.12 5.01-9.51 0-.69-.15-2.519-.69-2.729-.06-.06 0-.21-.06-.24a1.392 1.392 0 0 0-.45-.69 1.528 1.528 0 0 0-.6-.81l-.21-.42c-.12-.06-.36-.09-.36.12a.5.5 0 0 0 0 .36 6.777 6.777 0 0 1 .3 2.189 21.791 21.791 0 0 1-1.89 6.87 5.858 5.858 0 0 1-1.53 1.98 2.61 2.61 0 0 1-1.77.66c-2.129 0-1.98-4.05-1.83-5.31.688-3.241 2.398-6.78 5.458-8.1zm17.22-3.09a.224.224 0 0 1 .24 0 2.318 2.318 0 0 0-1.08-.42c0-.03.21-.03.21-.06-.06 0-.24-.06-.33-.06a17.355 17.355 0 0 0-3.57-.48 25.3 25.3 0 0 0-5.01.42c-1.23.45-1.62.06-1.68.48.03.45 1.53.63 1.53.66h-.12c0 .03.09.03.09.06a67.285 67.285 0 0 0-2.22 15.269c-.03.69.09 3.15.96 3.18.27 0 .33-.24.66-.24v-.03a.162.162 0 0 1 .15-.12.11.11 0 0 1 .09.03v-.061a.065.065 0 0 1 .06-.06.162.162 0 0 0 .15.12c.03-.21.24-.06.24-.12a.11.11 0 0 0 .03-.09.145.145 0 0 1 .06-.12l.06.03a4.671 4.671 0 0 0 .45-.18c.15 0 .36-.06.54-.06a.371.371 0 0 1 .09.06c.06-.09 0-.06.06-.06a.77.77 0 0 1 .15-.06c.03 0 .12.09.15.09s.03-.03.03-.06a.11.11 0 0 1-.03-.09h.09a.416.416 0 0 1 .21.24.6.6 0 0 0-.06-.18v-.03a.658.658 0 0 0 .24.09 5.673 5.673 0 0 1-.09-2.04c.09-2.55.54-4.95.87-7.47 1.32-.06 2.7-.06 3.96-.18a3.764 3.764 0 0 0 .78-.21c-.12 0-.33.09-.51.09a2.446 2.446 0 0 1 .42-.12.444.444 0 0 0-.39 0l.06.03a.961.961 0 0 1-.39.03c.24-.09.39-.18.66-.27a.838.838 0 0 0-.54 0c-.03 0-.06.06-.09.06 0-.03-.03-.03-.03-.06l.06-.03c.45-.12.81-.09 1.2-.21a.435.435 0 0 1-.18-.03.113.113 0 0 1 .06-.06.745.745 0 0 0 .27-.03c-.12-.06-.69-.03-.72-.06h.24a.065.065 0 0 1-.06-.06 1.585 1.585 0 0 0 .39-.03c.03 0 0-.03 0-.03.24-.03.39 0 .54-.03-.03 0-.12-.03-.15-.03a.419.419 0 0 0 .27-.09.381.381 0 0 1-.18-.03l-.06.06c0-.06-.15-.06-.24 0l-.03-.03a.507.507 0 0 1 .15-.06.369.369 0 0 0 .15-.06.227.227 0 0 0 .21-.03c-2.19-.18-3.6-.09-5.55-.12a36.5 36.5 0 0 1 1.35-6.329 25.424 25.424 0 0 1 3.12-.09.325.325 0 0 1 .18.03c.03-.06 0-.03 0-.09.09 0 .12.03.12-.03.18 0 .36.15.57.15a.085.085 0 0 1 .06-.06.131.131 0 0 1 .09.03.06.06 0 0 0 .06.03.186.186 0 0 1-.09-.12.806.806 0 0 0 .39.12.153.153 0 0 0-.12-.12 1.135 1.135 0 0 1-.54-.24c.15.03.33.15.42.15.06 0 .09 0 .09-.06a.761.761 0 0 0 .36.06c-.12-.06-.27-.09-.36-.15a1.711 1.711 0 0 0 .39.03h.03c.03 0 .12.03.15.03s.03 0 .03-.03a4.091 4.091 0 0 0-.51-.12 1 1 0 0 1 .3-.18.44.44 0 0 1 .12.06.77.77 0 0 0 .15-.06c.12.03.15.03.15.06zm8.28-.03a2.371 2.371 0 0 0-.78-.39 1.353 1.353 0 0 0-.93-.42 17.341 17.341 0 0 0-3.84-.12c-.63-.24-2.67-.24-2.67.81a59.873 59.873 0 0 1-1.44 10.649c-.42 2.94-1.02 5.88-.12 8.91a.255.255 0 0 1 .09.15c.12.06.24 0 .18-.15a4.748 4.748 0 0 1-.18-.69s.09-.21.09.03a1.381 1.381 0 0 0 .24.63c-.06-.09-.21-.54-.03-.36h.03a.452.452 0 0 0 .12.24c0-.12-.03-.27-.03-.45.03.18.21.57.15.27a.44.44 0 0 0-.06-.12.414.414 0 0 1 0-.27 1.361 1.361 0 0 0 .09.24v-.27a.343.343 0 0 1 .09.21.111.111 0 0 1 .09.06h.03c0 .03-.03.09.06.06a.681.681 0 0 1 .03.12c0-.06.03-.21.12-.18a.415.415 0 0 0 .06.21c0-.09.03-.12.03-.21a.111.111 0 0 1 .09.06c.12 0 .03-.12.03-.21a.057.057 0 0 0 .09-.03c0 .18.12.81.06.06h.06c.03 0 .03 0 .03-.03h.06c0-.03-.06-.15 0-.15a1.252 1.252 0 0 0 .15.3h.03a1.3 1.3 0 0 1-.03-.15.075.075 0 0 1 .06.09h.03v.06a.31.31 0 0 0 .03-.12.421.421 0 0 0 .12.12h.33c-.39-3.42.48-7.02 1.11-10.59a35.86 35.86 0 0 1 4.8-.24c-.06 0-.12 0-.12-.06.21 0 .45-.03.57-.03l-.45-.09a.427.427 0 0 1 .12-.06s-.03-.03 0-.03a1.361 1.361 0 0 0 .24.06.314.314 0 0 1 .27-.06.128.128 0 0 0-.09-.09c-.03 0-.03 0-.03-.06.21 0 .45.03.72.03-.21-.15-.51-.15-.69-.27.09 0 .12.03.18.03l-.03-.03h.03s.09.03.09 0c.03 0-.06-.03.03-.06a.117.117 0 0 1-.12-.06.509.509 0 0 0 .3 0 11.911 11.911 0 0 0-5.55-.719c.36-1.86.99-5.7.72-5.88.81-.06 2.46-.03 3.21-.03.03 0 .06-.06.09-.06a.93.93 0 0 1 .21.06.688.688 0 0 1 .45-.06.906.906 0 0 0 .6-.12.666.666 0 0 1-.27-.03 2.231 2.231 0 0 1 .51-.09 1.922 1.922 0 0 1-.27-.21h.72c-.12-.09-.3-.09-.45-.21a3.246 3.246 0 0 0 .538-.001zm12.389.57c-.96-.9-3.539-1.11-5.939-1.2-.9 0-2.43-.09-3.51-.06-1.02.06-2.28.21-2.28.87a.891.891 0 0 0 .51.66c-.54 4.11-1.05 7.859-1.62 11.669-.03.84-.36 2.55-.33 3.99.03 1.35.33 2.43 1.41 2.49.09-.09.09-.3.21-.42a3.6 3.6 0 0 0 2.16.45 38.332 38.332 0 0 0 4.14-.57c.9-.18-.21-.39 1.44-.45 0-.27.72-.15.72-.27a.029.029 0 0 0 .03.03.681.681 0 0 0 .12-.03 1.912 1.912 0 0 1-.21-.06h.09c-.03-.06.63-.03.63-.09 0 0-.12-.03-.33-.06a.126.126 0 0 0 .12-.09.867.867 0 0 1-.3 0c.12-.06.18-.03.3-.09.09 0 .18.03.27.03a.225.225 0 0 0 .15-.03 1.7 1.7 0 0 0-1.44-.33 5.545 5.545 0 0 0-.69.03 7.046 7.046 0 0 0-1.05-.12l-1.62.12a6.782 6.782 0 0 1-1.38-.06 4.861 4.861 0 0 1-.03-.66 36.478 36.478 0 0 1 .48-5.4c1.77-.06 2.88-.21 3.99-.27.48-.03.63-.03.66-.03v-.061l-.12-.06a2.52 2.52 0 0 0 .57.09l.18-.06c-.03 0-.03-.03-.06-.03.57-.03.54-.18.54-.18a.33.33 0 0 1-.18-.09.831.831 0 0 0 .27.03 1.2 1.2 0 0 0 .27-.09.681.681 0 0 1 .12.03c.09 0-.09-.06-.09-.15a.653.653 0 0 0 .39.06c-2.1-1.26-4.98-.87-6.3-.81l1.23-7.979c.96-.03 4.41-.24 4.65-.27a1.223 1.223 0 0 0-.21-.06 6.785 6.785 0 0 1 .839.03v-.03a1.01 1.01 0 0 1-.3-.12 1.13 1.13 0 0 0 .539.03.371.371 0 0 0-.09-.06h.15a.085.085 0 0 0-.06-.06l.24.06a.255.255 0 0 0 .09-.09 1.257 1.257 0 0 1-.45-.12c0-.03.03-.03.06-.03h.15c.27-.03.27.03.27 0a.3.3 0 0 0 .03-.09 2.761 2.761 0 0 0 .569.06zm-.39.18a.194.194 0 0 0-.15-.09.127.127 0 0 0 .148.089zm-2.459 9.749a.1.1 0 0 0 .09 0h-.09zm10.949-9.9a1.058 1.058 0 0 0-.6-.39 4.722 4.722 0 0 0-2.759-.66c-1.02 0-2.64.12-3.57.18-.42 0-1.11.21-.78.87a.937.937 0 0 0 .48.48 49.984 49.984 0 0 0-.81 5.46 17.857 17.857 0 0 0-.21 1.919c-.09.33-.09.81-.15 1.2-.09.78-.18 1.59-.3 2.34l-.12.75c-.06.96-.27 2.04-.3 3.03v.18a8.04 8.04 0 0 0 .06 1.47c-.09.09-.45.3-.27.45a.06.06 0 0 0 .06.03c.03.06.03.09.09.09a.678.678 0 0 0 .33.24.564.564 0 0 0 .36.45.113.113 0 0 0 .06.06.315.315 0 0 1 .12.09.231.231 0 0 0 .18-.03.288.288 0 0 1 .21-.03 1.336 1.336 0 0 1 .48.03h.03c.12.03.84 0 .96 0a1.845 1.845 0 0 1 .42.03c1.14 0 2.31-.51 3.66-.57a1.125 1.125 0 0 1 .45 0v-.03c0-.03.09 0 .09-.03a.186.186 0 0 0 .12-.06.287.287 0 0 1-.21-.06c0-.06.06-.03.09-.03v-.06h.06a.1.1 0 0 0-.03.06.1.1 0 0 0 .03-.06 1.061 1.061 0 0 1 .18.03.957.957 0 0 1-.21-.18.544.544 0 0 1 .479-.24.306.306 0 0 1-.149-.18c.119.09.149 0 .209-.03a2.038 2.038 0 0 0-1.439-.87 7.732 7.732 0 0 0-3.39.3c.18-1.68.45-4.65.78-6.66.24-.06 1.68.03 1.68-.06 0-.03-.24-.03.87-.24 0-.06.03 0 .06 0 0-.06.03-.06.03-.06a1.254 1.254 0 0 1 .3-.12c.18-.03.36-.09.45-.09h.42c.03 0 0-.03 0-.03a.191.191 0 0 0 .179-.06.3.3 0 0 1-.179-.15c0-.03.03 0 .03-.03 0-.09-.06-.06-.15-.09a1.077 1.077 0 0 0-.3-.21 12.639 12.639 0 0 0-3.24-.33c.24-2.309.69-4.829.99-7.229a9.273 9.273 0 0 1 1.98-.15 2.828 2.828 0 0 1 .839.06c-.03-.06.12-.09.12-.12.03 0 .18.03.12 0a.093.093 0 0 0 .06-.03c-.06 0-.12 0-.12-.06.42.06.12-.03.33-.12h.24c-.03 0 .03 0 .03-.03-.18 0 .03-.24.06-.24.15 0 .21.06.12-.09a3.913 3.913 0 0 1 .388-.09z" transform="translate(-113.875 -157.188)"/></svg><svg width="153" height="28" viewBox="-1 -1 153 28" id="ef_txt" y="23" xmlns="http://www.w3.org/2000/svg"><defs><style>.ccls-1{fill:#fff;fill-rule:evenodd;filter:url(#cfilter)}</style><filter id="cfilter" x="75" y="34" width="151" height="26" filterUnits="userSpaceOnUse"><feOffset result="offset" dy="1" in="SourceAlpha"/><feGaussianBlur result="blur" stdDeviation="1.732"/><feFlood result="flood" flood-opacity=".18"/><feComposite result="composite" operator="in" in2="blur"/><feBlend result="blend" in="SourceGraphic"/></filter></defs><path id="cDo_bigger_things" data-name="Do bigger things" class="ccls-1" d="M77.01 50.254h3.69a7.348 7.348 0 0 0 2.754-.5 6.662 6.662 0 0 0 2.169-1.377 6.118 6.118 0 0 0 1.413-2.079 6.7 6.7 0 0 0 .5-2.61 7.205 7.205 0 0 0-.459-2.6A5.823 5.823 0 0 0 85.731 39a6.32 6.32 0 0 0-2.187-1.386 8.1 8.1 0 0 0-2.952-.5H77.01v13.14zm3.29-10.872a6.445 6.445 0 0 1 2.124.315 4.018 4.018 0 0 1 1.494.891 3.6 3.6 0 0 1 .882 1.359 5 5 0 0 1 .288 1.737 4.3 4.3 0 0 1-.333 1.7 4.1 4.1 0 0 1-2.4 2.277 5.5 5.5 0 0 1-1.944.324h-.953v-8.6h.842zm15.695 10.482a5.489 5.489 0 0 0 1.737-1.128 5.242 5.242 0 0 0 1.17-1.683 5.25 5.25 0 0 0 0-4.129 5.249 5.249 0 0 0-1.17-1.683 5.517 5.517 0 0 0-3.861-1.535 5.592 5.592 0 0 0-2.133.408 5.294 5.294 0 0 0-2.9 2.811 5.25 5.25 0 0 0 0 4.129 5.3 5.3 0 0 0 2.9 2.811 5.594 5.594 0 0 0 2.133.407 5.527 5.527 0 0 0 2.124-.408zm-3.339-2.115a2.932 2.932 0 0 1-1.611-1.6A2.915 2.915 0 0 1 90.811 45a2.959 2.959 0 0 1 .234-1.173 2.93 2.93 0 0 1 1.611-1.6 3.127 3.127 0 0 1 1.215-.236 3.062 3.062 0 0 1 1.206.236 3.112 3.112 0 0 1 .972.642 2.933 2.933 0 0 1 .648.954A2.964 2.964 0 0 1 96.931 45a2.958 2.958 0 0 1-.882 2.111 3.108 3.108 0 0 1-.972.642 3.061 3.061 0 0 1-1.206.236 3.127 3.127 0 0 1-1.215-.24zm19.9 2.167a5.12 5.12 0 0 0 1.647-1.032 5.173 5.173 0 0 0 1.179-1.657 5.288 5.288 0 0 0 .45-2.229 5.424 5.424 0 0 0-.441-2.247 5.13 5.13 0 0 0-1.161-1.657 4.972 4.972 0 0 0-1.656-1.032 5.38 5.38 0 0 0-1.926-.356 4.5 4.5 0 0 0-1.953.423 4.015 4.015 0 0 0-1.449 1.125v-4.32h-2.43v13.32h2.412v-1.5a3.811 3.811 0 0 0 1.476 1.119 4.866 4.866 0 0 0 1.98.4 5.142 5.142 0 0 0 1.867-.357zm-3.533-2.116a3.015 3.015 0 0 1-1.656-1.64 3.071 3.071 0 0 1-.234-1.2 3.028 3.028 0 0 1 .234-1.183 2.936 2.936 0 0 1 .657-.972 3.088 3.088 0 0 1 1-.651 3.376 3.376 0 0 1 2.484 0 3.273 3.273 0 0 1 1.008.642 2.89 2.89 0 0 1 .675.964 2.974 2.974 0 0 1 .243 1.2 3.032 3.032 0 0 1-.243 1.209 2.96 2.96 0 0 1-.675.98 3.2 3.2 0 0 1-1.008.651 3.379 3.379 0 0 1-2.485 0zm7.591 2.45h2.448V39.724h-2.448v10.53zm.09-12.006a1.536 1.536 0 0 0 2.664-1.1 1.534 1.534 0 0 0-.405-1.107 1.7 1.7 0 0 0-2.241 0 1.7 1.7 0 0 0-.022 2.211zm11.967 11.628a3.287 3.287 0 0 1-.207 1.152 2.871 2.871 0 0 1-.594.972 2.926 2.926 0 0 1-.945.666 2.985 2.985 0 0 1-1.242.252 3.316 3.316 0 0 1-1.98-.522 4.652 4.652 0 0 1-1.3-1.584l-2.16 1.314a6.037 6.037 0 0 0 .864 1.215 5.362 5.362 0 0 0 1.17.954 5.753 5.753 0 0 0 1.5.63 7.178 7.178 0 0 0 1.863.225 6.145 6.145 0 0 0 2.36-.414 4.719 4.719 0 0 0 2.736-2.817 5.958 5.958 0 0 0 .351-2.062V39.724h-2.43v1.487a4.1 4.1 0 0 0-1.458-1.1 4.542 4.542 0 0 0-1.926-.407 5.452 5.452 0 0 0-1.935.356 4.984 4.984 0 0 0-2.844 2.689 5.424 5.424 0 0 0-.445 2.251 5.288 5.288 0 0 0 .45 2.229 5.105 5.105 0 0 0 1.188 1.657 5.289 5.289 0 0 0 3.546 1.388 4.474 4.474 0 0 0 1.962-.432 4 4 0 0 0 1.476-1.188v1.224zm-4.293-2.072a3.172 3.172 0 0 1-1.017-.651 2.96 2.96 0 0 1-.675-.98 3.032 3.032 0 0 1-.243-1.209 2.974 2.974 0 0 1 .243-1.2 2.89 2.89 0 0 1 .675-.964 3.246 3.246 0 0 1 1.017-.642 3.447 3.447 0 0 1 2.511 0 2.985 2.985 0 0 1 .99.651 3.129 3.129 0 0 1 .657.972 2.931 2.931 0 0 1 .243 1.183 2.973 2.973 0 0 1-.243 1.2 3.233 3.233 0 0 1-.657.98 2.923 2.923 0 0 1-.99.66 3.451 3.451 0 0 1-2.511 0zm16.568 2.073a3.287 3.287 0 0 1-.207 1.152 2.871 2.871 0 0 1-.594.972 2.926 2.926 0 0 1-.945.666 2.985 2.985 0 0 1-1.242.252 3.316 3.316 0 0 1-1.98-.522 4.652 4.652 0 0 1-1.3-1.584l-2.16 1.314a6.037 6.037 0 0 0 .864 1.215 5.362 5.362 0 0 0 1.17.954 5.753 5.753 0 0 0 1.5.63 7.178 7.178 0 0 0 1.863.225 6.145 6.145 0 0 0 2.349-.418A4.719 4.719 0 0 0 143 51.912a5.958 5.958 0 0 0 .351-2.062V39.724h-2.43v1.487a4.1 4.1 0 0 0-1.458-1.1 4.542 4.542 0 0 0-1.926-.407 5.452 5.452 0 0 0-1.935.356 4.984 4.984 0 0 0-2.844 2.689 5.424 5.424 0 0 0-.434 2.251 5.288 5.288 0 0 0 .45 2.229 5.105 5.105 0 0 0 1.188 1.657 5.289 5.289 0 0 0 3.546 1.388 4.474 4.474 0 0 0 1.962-.432 4 4 0 0 0 1.476-1.188v1.224zm-4.293-2.073a3.172 3.172 0 0 1-1.017-.651 2.96 2.96 0 0 1-.675-.98 3.032 3.032 0 0 1-.243-1.209 2.974 2.974 0 0 1 .243-1.2 2.89 2.89 0 0 1 .675-.964 3.246 3.246 0 0 1 1.017-.642 3.447 3.447 0 0 1 2.511 0 2.985 2.985 0 0 1 .99.651 3.129 3.129 0 0 1 .657.972 2.931 2.931 0 0 1 .243 1.183 2.973 2.973 0 0 1-.243 1.2 3.233 3.233 0 0 1-.657.98 2.923 2.923 0 0 1-.99.66 3.451 3.451 0 0 1-2.511 0zm16.506 1.685a5.45 5.45 0 0 0 1.917-2.061l-2-1.152a3.076 3.076 0 0 1-2.916 1.854 3.3 3.3 0 0 1-2.142-.684 3.126 3.126 0 0 1-1.1-1.8h8.568v-.857a5.008 5.008 0 0 0-.405-2.025 4.9 4.9 0 0 0-1.125-1.612 5.091 5.091 0 0 0-1.719-1.063 6.054 6.054 0 0 0-2.169-.38 5.577 5.577 0 0 0-3.888 1.544 5.2 5.2 0 0 0-1.584 3.765 5.248 5.248 0 0 0 .405 2.056 5.047 5.047 0 0 0 1.134 1.674 5.261 5.261 0 0 0 1.755 1.119 6.1 6.1 0 0 0 2.268.407 5.478 5.478 0 0 0 3.001-.781zM151.98 42.3a2.235 2.235 0 0 1 1.044 1.316h-5.976a2.651 2.651 0 0 1 1.125-1.279 3.6 3.6 0 0 1 1.9-.485 3.755 3.755 0 0 1 1.907.448zm4.765 7.958h2.43v-5.62a2.888 2.888 0 0 1 .549-1.971 2.069 2.069 0 0 1 1.611-.6 2.625 2.625 0 0 1 .855.117 2.7 2.7 0 0 1 .6.3l.918-2.3a3.77 3.77 0 0 0-.819-.324 3.921 3.921 0 0 0-1.035-.126 2.716 2.716 0 0 0-2.7 1.566v-1.576h-2.412v10.53zM168.17 41.9h1.8v3.96a8.918 8.918 0 0 0 .207 2.1 2.948 2.948 0 0 0 .693 1.35 2.7 2.7 0 0 0 1.305.729 8.161 8.161 0 0 0 2.043.216h.342v-2.287a6.981 6.981 0 0 1-1.125-.072 1.024 1.024 0 0 1-.945-.945 6.846 6.846 0 0 1-.072-1.107V41.9h2.142v-2.176h-2.142v-3.276l-2.448 1.674v1.6h-1.8V41.9zm7.46 8.352h2.448v-5.644a3.532 3.532 0 0 1 .189-1.2 2.474 2.474 0 0 1 .522-.88 2.232 2.232 0 0 1 .783-.528 2.487 2.487 0 0 1 .954-.185 2.216 2.216 0 0 1 1.782.695 2.843 2.843 0 0 1 .594 1.908v5.839h2.484v-6.134a4.533 4.533 0 0 0-1.107-3.251 4.515 4.515 0 0 0-4.878-.77 3.871 3.871 0 0 0-1.341 1.08v-4.248h-2.43v13.32zm11.331 0h2.448V39.724h-2.448v10.53zm.09-12.006a1.536 1.536 0 0 0 2.664-1.1 1.534 1.534 0 0 0-.405-1.107 1.7 1.7 0 0 0-2.241 0 1.7 1.7 0 0 0-.018 2.209zm3.687 12.006h2.43v-5.644a2.833 2.833 0 0 1 .711-2.075 2.367 2.367 0 0 1 1.755-.721 2.216 2.216 0 0 1 1.782.695 2.814 2.814 0 0 1 .594 1.89v5.857h2.466v-6.131a4.533 4.533 0 0 0-1.107-3.251 4.535 4.535 0 0 0-4.9-.767 3.853 3.853 0 0 0-1.323 1.058v-1.439h-2.412v10.53zm19.611-.378a3.287 3.287 0 0 1-.207 1.152 2.871 2.871 0 0 1-.594.972 2.926 2.926 0 0 1-.945.666 2.985 2.985 0 0 1-1.242.252 3.316 3.316 0 0 1-1.98-.522 4.652 4.652 0 0 1-1.3-1.584l-2.16 1.314a6.037 6.037 0 0 0 .864 1.215 5.362 5.362 0 0 0 1.17.954 5.753 5.753 0 0 0 1.5.63 7.178 7.178 0 0 0 1.863.225 6.145 6.145 0 0 0 2.349-.418 4.719 4.719 0 0 0 2.736-2.817 5.958 5.958 0 0 0 .351-2.062V39.724h-2.43v1.487a4.1 4.1 0 0 0-1.458-1.1 4.542 4.542 0 0 0-1.926-.407 5.452 5.452 0 0 0-1.935.356 4.984 4.984 0 0 0-2.844 2.689 5.424 5.424 0 0 0-.434 2.251 5.288 5.288 0 0 0 .45 2.229 5.105 5.105 0 0 0 1.188 1.657 5.289 5.289 0 0 0 3.546 1.388 4.474 4.474 0 0 0 1.962-.432 4 4 0 0 0 1.476-1.188v1.224zm-4.293-2.074a3.172 3.172 0 0 1-1.017-.651 2.96 2.96 0 0 1-.675-.98 3.032 3.032 0 0 1-.243-1.209 2.974 2.974 0 0 1 .243-1.2 2.89 2.89 0 0 1 .675-.964 3.246 3.246 0 0 1 1.017-.642 3.447 3.447 0 0 1 2.511 0 2.985 2.985 0 0 1 .99.651 3.129 3.129 0 0 1 .657.972 2.931 2.931 0 0 1 .243 1.183 2.973 2.973 0 0 1-.243 1.2 3.233 3.233 0 0 1-.657.98 2.923 2.923 0 0 1-.99.66 3.451 3.451 0 0 1-2.511 0zm14.192 2.159a4.116 4.116 0 0 0 1.341-.8 3.2 3.2 0 0 0 .783-1.064 2.754 2.754 0 0 0 .252-1.107 2.4 2.4 0 0 0-.333-1.313 2.715 2.715 0 0 0-.873-.858 4.974 4.974 0 0 0-1.2-.532 12.375 12.375 0 0 0-1.305-.318 14.511 14.511 0 0 1-1.8-.455.756.756 0 0 1-.613-.712.948.948 0 0 1 .414-.755 2.054 2.054 0 0 1 1.278-.326 2.785 2.785 0 0 1 1.332.308 2.3 2.3 0 0 1 .9.837l2.07-.979a4.43 4.43 0 0 0-1.665-1.6 5.364 5.364 0 0 0-2.637-.586 5.476 5.476 0 0 0-1.7.249 4.129 4.129 0 0 0-1.305.678 3.149 3.149 0 0 0-.837.987 2.611 2.611 0 0 0 .027 2.471 2.688 2.688 0 0 0 .846.858 4.433 4.433 0 0 0 1.179.523q.657.189 1.341.326.486.1.936.189a4.559 4.559 0 0 1 .783.215 1.936 1.936 0 0 1 .54.3.553.553 0 0 1 .207.446 1.071 1.071 0 0 1-.45.858 2.131 2.131 0 0 1-1.35.36 2.989 2.989 0 0 1-1.512-.371 2.669 2.669 0 0 1-1.026-1.063l-2.25 1.012a4.41 4.41 0 0 0 1.782 1.878 5.839 5.839 0 0 0 2.9.65 5.458 5.458 0 0 0 1.945-.302z" transform="translate(-75 -34)"/></svg><svg width="124" height="28" viewBox="-1 -1 124 28" id="f2_txta" y="51" xmlns="http://www.w3.org/2000/svg"><defs><style>.dcls-1{fill:#fff;fill-rule:evenodd;filter:url(#dfilter)}</style><filter id="dfilter" x="88" y="34" width="122" height="26" filterUnits="userSpaceOnUse"><feOffset result="offset" dy="1" in="SourceAlpha"/><feGaussianBlur result="blur" stdDeviation="1.732"/><feFlood result="flood" flood-opacity=".18"/><feComposite result="composite" operator="in" in2="blur"/><feBlend result="blend" in="SourceGraphic"/></filter></defs><path id="df2_txta" class="dcls-1" d="M90.521 50.254h4.464a5.536 5.536 0 0 0 3.447-.972 3.443 3.443 0 0 0 1.268-2.916 3.314 3.314 0 0 0-.495-1.854 3.222 3.222 0 0 0-1.413-1.17 2.773 2.773 0 0 0 1.44-2.556 3.264 3.264 0 0 0-1.2-2.736 5.367 5.367 0 0 0-3.375-.936h-4.14v13.14zm4.356-5.616a2.928 2.928 0 0 1 1.863.432 1.56 1.56 0 0 1 .5 1.242 1.492 1.492 0 0 1-.567 1.251 2.708 2.708 0 0 1-1.688.437h-2.016v-3.362h1.908zm-.216-5.274a2.9 2.9 0 0 1 1.62.342 1.229 1.229 0 0 1 .486 1.08 1.471 1.471 0 0 1-.467 1.134 2.416 2.416 0 0 1-1.638.432h-1.693v-2.988h1.692zm6.193 10.89h2.446v-10.53h-2.448v10.53zm.09-12.006a1.536 1.536 0 0 0 2.664-1.1 1.534 1.534 0 0 0-.405-1.107 1.7 1.7 0 0 0-2.241 0 1.7 1.7 0 0 0-.018 2.207zm11.967 11.628a3.287 3.287 0 0 1-.207 1.152 2.871 2.871 0 0 1-.594.972 2.926 2.926 0 0 1-.945.666 2.985 2.985 0 0 1-1.242.252 3.316 3.316 0 0 1-1.98-.522 4.652 4.652 0 0 1-1.3-1.584l-2.16 1.314a6.037 6.037 0 0 0 .864 1.215 5.362 5.362 0 0 0 1.17.954 5.753 5.753 0 0 0 1.5.63 7.178 7.178 0 0 0 1.863.225 6.145 6.145 0 0 0 2.349-.418 4.719 4.719 0 0 0 2.736-2.817 5.958 5.958 0 0 0 .351-2.062V39.724h-2.43v1.487a4.1 4.1 0 0 0-1.458-1.1 4.542 4.542 0 0 0-1.926-.407 5.452 5.452 0 0 0-1.935.356 4.984 4.984 0 0 0-2.844 2.689 5.424 5.424 0 0 0-.434 2.251 5.288 5.288 0 0 0 .45 2.229 5.105 5.105 0 0 0 1.188 1.657 5.289 5.289 0 0 0 3.546 1.388 4.474 4.474 0 0 0 1.962-.432 4 4 0 0 0 1.476-1.188v1.224zm-4.293-2.076a3.172 3.172 0 0 1-1.017-.651 2.96 2.96 0 0 1-.675-.98 3.032 3.032 0 0 1-.243-1.209 2.974 2.974 0 0 1 .243-1.2 2.89 2.89 0 0 1 .674-.96 3.246 3.246 0 0 1 1.017-.642 3.447 3.447 0 0 1 2.511 0 2.985 2.985 0 0 1 .99.651 3.129 3.129 0 0 1 .657.972 2.931 2.931 0 0 1 .243 1.183 2.973 2.973 0 0 1-.243 1.2 3.233 3.233 0 0 1-.657.98 2.923 2.923 0 0 1-.99.66 3.451 3.451 0 0 1-2.51-.004zm16.568 2.073a3.287 3.287 0 0 1-.207 1.152 2.871 2.871 0 0 1-.594.972 2.926 2.926 0 0 1-.945.666 2.985 2.985 0 0 1-1.242.252 3.316 3.316 0 0 1-1.98-.522 4.652 4.652 0 0 1-1.3-1.584l-2.16 1.314a6.037 6.037 0 0 0 .864 1.215 5.362 5.362 0 0 0 1.17.954 5.753 5.753 0 0 0 1.5.63 7.178 7.178 0 0 0 1.863.225 6.145 6.145 0 0 0 2.349-.418 4.719 4.719 0 0 0 2.736-2.817 5.958 5.958 0 0 0 .351-2.062V39.724h-2.43v1.487a4.1 4.1 0 0 0-1.458-1.1 4.542 4.542 0 0 0-1.926-.407 5.452 5.452 0 0 0-1.935.356 4.984 4.984 0 0 0-2.844 2.689 5.424 5.424 0 0 0-.434 2.251 5.288 5.288 0 0 0 .45 2.229 5.105 5.105 0 0 0 1.188 1.657 5.289 5.289 0 0 0 3.546 1.388 4.474 4.474 0 0 0 1.962-.432 4 4 0 0 0 1.476-1.188v1.224zm-4.293-2.073a3.172 3.172 0 0 1-1.017-.651 2.96 2.96 0 0 1-.675-.98 3.032 3.032 0 0 1-.243-1.209 2.974 2.974 0 0 1 .243-1.2 2.89 2.89 0 0 1 .675-.964 3.246 3.246 0 0 1 1.017-.642 3.447 3.447 0 0 1 2.511 0 2.985 2.985 0 0 1 .99.651 3.129 3.129 0 0 1 .657.972 2.931 2.931 0 0 1 .243 1.183 2.973 2.973 0 0 1-.243 1.2 3.233 3.233 0 0 1-.657.98 2.923 2.923 0 0 1-.99.66 3.451 3.451 0 0 1-2.511 0zm16.5 1.685a5.45 5.45 0 0 0 1.917-2.061l-2-1.152a3.076 3.076 0 0 1-2.91 1.858 3.3 3.3 0 0 1-2.142-.684 3.126 3.126 0 0 1-1.1-1.8h8.568v-.861a5.008 5.008 0 0 0-.405-2.025 4.9 4.9 0 0 0-1.125-1.612 5.091 5.091 0 0 0-1.719-1.063 6.054 6.054 0 0 0-2.169-.38 5.577 5.577 0 0 0-3.888 1.544 5.2 5.2 0 0 0-1.584 3.765 5.248 5.248 0 0 0 .405 2.056 5.047 5.047 0 0 0 1.134 1.674 5.261 5.261 0 0 0 1.755 1.119 6.1 6.1 0 0 0 2.268.407 5.478 5.478 0 0 0 3.002-.781zm-1.174-7.185a2.235 2.235 0 0 1 1.044 1.316h-5.976a2.651 2.651 0 0 1 1.125-1.279 3.6 3.6 0 0 1 1.9-.485 3.755 3.755 0 0 1 1.907.448zm4.765 7.958h2.43v-5.62a2.888 2.888 0 0 1 .549-1.971 2.069 2.069 0 0 1 1.611-.6 2.625 2.625 0 0 1 .855.117 2.7 2.7 0 0 1 .6.3l.918-2.3a3.77 3.77 0 0 0-.819-.324 3.921 3.921 0 0 0-1.035-.126 2.716 2.716 0 0 0-2.7 1.566v-1.576h-2.412v10.53zM152.41 41.9h1.8v3.96a8.865 8.865 0 0 0 .207 2.1 2.938 2.938 0 0 0 .693 1.35 2.691 2.691 0 0 0 1.3.729 8.15 8.15 0 0 0 2.043.216h.347v-2.287a6.973 6.973 0 0 1-1.125-.072 1.024 1.024 0 0 1-.945-.945 6.733 6.733 0 0 1-.072-1.107V41.9h2.142v-2.176h-2.142v-3.276l-2.448 1.674v1.6h-1.8V41.9zm7.459 8.352h2.448v-5.644a3.532 3.532 0 0 1 .189-1.2 2.474 2.474 0 0 1 .522-.88 2.232 2.232 0 0 1 .783-.528 2.487 2.487 0 0 1 .954-.185 2.216 2.216 0 0 1 1.782.695 2.843 2.843 0 0 1 .594 1.908v5.839h2.484v-6.134a4.533 4.533 0 0 0-1.107-3.251 4.515 4.515 0 0 0-4.878-.77 3.871 3.871 0 0 0-1.341 1.08v-4.248h-2.43v13.32zm11.331 0h2.448V39.724H171.2v10.53zm.09-12.006a1.536 1.536 0 0 0 2.664-1.1 1.534 1.534 0 0 0-.405-1.107 1.7 1.7 0 0 0-2.241 0 1.7 1.7 0 0 0-.018 2.209zm3.687 12.006h2.43v-5.644a2.833 2.833 0 0 1 .711-2.075 2.367 2.367 0 0 1 1.755-.721 2.216 2.216 0 0 1 1.782.695 2.814 2.814 0 0 1 .594 1.89v5.857h2.466v-6.131a4.533 4.533 0 0 0-1.107-3.251 4.535 4.535 0 0 0-4.9-.767 3.853 3.853 0 0 0-1.323 1.058v-1.439h-2.412v10.53zm19.611-.378a3.287 3.287 0 0 1-.207 1.152 2.871 2.871 0 0 1-.594.972 2.926 2.926 0 0 1-.945.666 2.985 2.985 0 0 1-1.242.252 3.316 3.316 0 0 1-1.98-.522 4.652 4.652 0 0 1-1.3-1.584l-2.16 1.314a6.037 6.037 0 0 0 .864 1.215 5.362 5.362 0 0 0 1.17.954 5.753 5.753 0 0 0 1.5.63 7.178 7.178 0 0 0 1.863.225 6.145 6.145 0 0 0 2.349-.418 4.719 4.719 0 0 0 2.736-2.817 5.958 5.958 0 0 0 .358-2.059v-10.13h-2.43v1.487a4.1 4.1 0 0 0-1.458-1.1 4.542 4.542 0 0 0-1.926-.407 5.452 5.452 0 0 0-1.935.356 4.984 4.984 0 0 0-2.844 2.689 5.424 5.424 0 0 0-.441 2.251 5.288 5.288 0 0 0 .45 2.229 5.105 5.105 0 0 0 1.188 1.657 5.289 5.289 0 0 0 3.546 1.388 4.474 4.474 0 0 0 1.962-.432 4 4 0 0 0 1.476-1.188v1.224zM190.3 47.8a3.172 3.172 0 0 1-1.017-.651 2.96 2.96 0 0 1-.675-.98 3.032 3.032 0 0 1-.243-1.209 2.974 2.974 0 0 1 .243-1.2 2.89 2.89 0 0 1 .675-.964 3.246 3.246 0 0 1 1.017-.642 3.447 3.447 0 0 1 2.511 0 2.985 2.985 0 0 1 .99.651 3.129 3.129 0 0 1 .657.972 2.931 2.931 0 0 1 .243 1.183 2.973 2.973 0 0 1-.243 1.2 3.233 3.233 0 0 1-.657.98 2.923 2.923 0 0 1-.99.66 3.451 3.451 0 0 1-2.511 0zm14.193 2.159a4.116 4.116 0 0 0 1.341-.8 3.224 3.224 0 0 0 .783-1.064 2.754 2.754 0 0 0 .252-1.107 2.4 2.4 0 0 0-.333-1.313 2.725 2.725 0 0 0-.873-.858 4.974 4.974 0 0 0-1.2-.532 12.435 12.435 0 0 0-1.305-.318 14.464 14.464 0 0 1-1.8-.455.756.756 0 0 1-.612-.712.946.946 0 0 1 .414-.755 2.054 2.054 0 0 1 1.278-.326 2.788 2.788 0 0 1 1.332.308 2.3 2.3 0 0 1 .9.837l2.07-.979a4.43 4.43 0 0 0-1.665-1.6 5.367 5.367 0 0 0-2.637-.586 5.476 5.476 0 0 0-1.7.249 4.118 4.118 0 0 0-1.305.678 3.149 3.149 0 0 0-.837.987 2.611 2.611 0 0 0 .027 2.471 2.678 2.678 0 0 0 .846.858 4.418 4.418 0 0 0 1.179.523c.438.126.884.235 1.341.326q.486.1.936.189a4.61 4.61 0 0 1 .783.215 1.936 1.936 0 0 1 .54.3.556.556 0 0 1 .207.446 1.074 1.074 0 0 1-.45.858 2.131 2.131 0 0 1-1.35.36 2.989 2.989 0 0 1-1.512-.371 2.669 2.669 0 0 1-1.026-1.063l-2.25 1.012a4.41 4.41 0 0 0 1.782 1.878 5.836 5.836 0 0 0 2.9.65 5.458 5.458 0 0 0 1.939-.302z" transform="translate(-88 -34)"/></svg><svg width="156" height="23" viewBox="-1 -1 156 23" id="f2_txtb" xmlns="http://www.w3.org/2000/svg"><defs><style>.ecls-1{fill:#fff;fill-rule:evenodd;filter:url(#efilter)}</style><filter id="efilter" x="74" y="56" width="154" height="21" filterUnits="userSpaceOnUse"><feOffset result="offset" dy="1" in="SourceAlpha"/><feGaussianBlur result="blur" stdDeviation="1.732"/><feFlood result="flood" flood-opacity=".18"/><feComposite result="composite" operator="in" in2="blur"/><feBlend result="blend" in="SourceGraphic"/></filter></defs><path id="ef2_txtb" class="ecls-1" d="M83.152 71.963a4.119 4.119 0 0 0 1.341-.8 3.2 3.2 0 0 0 .783-1.064 2.756 2.756 0 0 0 .252-1.107 2.4 2.4 0 0 0-.333-1.313 2.717 2.717 0 0 0-.873-.858 4.975 4.975 0 0 0-1.2-.532 12.387 12.387 0 0 0-1.3-.318 14.5 14.5 0 0 1-1.8-.455.756.756 0 0 1-.612-.712.948.948 0 0 1 .414-.755 2.054 2.054 0 0 1 1.278-.326 2.785 2.785 0 0 1 1.332.308 2.3 2.3 0 0 1 .9.837l2.07-.979a4.431 4.431 0 0 0-1.665-1.6 5.365 5.365 0 0 0-2.637-.586 5.475 5.475 0 0 0-1.7.249 4.126 4.126 0 0 0-1.3.678 3.149 3.149 0 0 0-.837.987 2.611 2.611 0 0 0 .027 2.471 2.686 2.686 0 0 0 .846.858 4.428 4.428 0 0 0 1.179.523q.657.189 1.341.326.486.1.936.189a4.578 4.578 0 0 1 .783.215 1.939 1.939 0 0 1 .54.3.553.553 0 0 1 .207.446 1.072 1.072 0 0 1-.45.858 2.132 2.132 0 0 1-1.35.36 2.989 2.989 0 0 1-1.512-.371 2.669 2.669 0 0 1-1.026-1.063l-2.25 1.013a4.408 4.408 0 0 0 1.782 1.878 5.838 5.838 0 0 0 2.9.65 5.458 5.458 0 0 0 1.934-.307zM85.84 63.9h1.8v3.96a8.913 8.913 0 0 0 .207 2.1 2.946 2.946 0 0 0 .693 1.35 2.7 2.7 0 0 0 1.3.729 8.16 8.16 0 0 0 2.043.216h.347v-2.287a6.98 6.98 0 0 1-1.13-.068 1.024 1.024 0 0 1-.945-.945 6.835 6.835 0 0 1-.072-1.107V63.9h2.147v-2.176h-2.142v-3.276l-2.448 1.674v1.6h-1.8V63.9zm13.774 7.965a3.974 3.974 0 0 0 1.476-1.11v1.5h2.43V61.724h-2.43v1.389a4.04 4.04 0 0 0-1.458-1.029 4.849 4.849 0 0 0-1.926-.377 5.452 5.452 0 0 0-1.935.356 4.984 4.984 0 0 0-2.844 2.689A5.422 5.422 0 0 0 92.486 67a5.286 5.286 0 0 0 .45 2.23 5.1 5.1 0 0 0 1.188 1.657 5.289 5.289 0 0 0 3.546 1.388 4.685 4.685 0 0 0 1.944-.408zm-2.8-2.064a3.172 3.172 0 0 1-1.017-.651 2.96 2.96 0 0 1-.675-.981 3.032 3.032 0 0 1-.243-1.209 2.974 2.974 0 0 1 .243-1.2 2.89 2.89 0 0 1 .678-.96 3.246 3.246 0 0 1 1.017-.642 3.447 3.447 0 0 1 2.511 0 3 3 0 0 1 .99.651 3.129 3.129 0 0 1 .657.972 2.931 2.931 0 0 1 .243 1.183 2.972 2.972 0 0 1-.243 1.2 3.233 3.233 0 0 1-.657.98 2.934 2.934 0 0 1-.99.66 3.451 3.451 0 0 1-2.513-.004zm8.288 2.451h2.43v-5.614a2.888 2.888 0 0 1 .549-1.971 2.069 2.069 0 0 1 1.611-.6 2.625 2.625 0 0 1 .855.117 2.7 2.7 0 0 1 .6.3l.918-2.3a3.77 3.77 0 0 0-.819-.324 3.921 3.921 0 0 0-1.035-.126 2.716 2.716 0 0 0-2.7 1.566v-1.576H105.1v10.53zm7.176-8.352h1.8v3.96a8.918 8.918 0 0 0 .207 2.1 2.948 2.948 0 0 0 .693 1.35 2.7 2.7 0 0 0 1.305.729 8.161 8.161 0 0 0 2.043.216h.342v-2.287a6.981 6.981 0 0 1-1.125-.072 1.024 1.024 0 0 1-.945-.945 6.846 6.846 0 0 1-.072-1.107V63.9h2.142v-2.176h-2.142v-3.276l-2.448 1.674v1.6h-1.8V63.9zm14.841 8.352h2.394l2.736-7.29 2.664 7.29h2.34l3.69-10.53h-2.466L136.066 69l-2.592-7.272h-2.412l-2.646 7.254-2.322-7.254h-2.484zm14.809 0h2.448V61.724h-2.448v10.53zm.09-12.006a1.536 1.536 0 0 0 2.664-1.1 1.534 1.534 0 0 0-.405-1.107 1.7 1.7 0 0 0-2.241 0 1.7 1.7 0 0 0-.017 2.209zm3.309 3.654h1.8v3.96a8.918 8.918 0 0 0 .207 2.1 2.938 2.938 0 0 0 .693 1.35 2.691 2.691 0 0 0 1.305.729 8.156 8.156 0 0 0 2.043.216h.342v-2.287a6.973 6.973 0 0 1-1.125-.072 1.024 1.024 0 0 1-.945-.945 6.846 6.846 0 0 1-.072-1.107V63.9h2.142v-2.176h-2.142v-3.276l-2.448 1.674v1.6h-1.8V63.9zm7.46 8.352h2.448v-5.644a3.532 3.532 0 0 1 .189-1.2 2.46 2.46 0 0 1 .522-.879 2.214 2.214 0 0 1 .784-.529 2.479 2.479 0 0 1 .954-.185 2.216 2.216 0 0 1 1.782.695 2.843 2.843 0 0 1 .594 1.908v5.839h2.484v-6.134a4.533 4.533 0 0 0-1.107-3.251 4.515 4.515 0 0 0-4.878-.77 3.862 3.862 0 0 0-1.341 1.08v-4.248h-2.43v13.32zm22.366-.387a3.975 3.975 0 0 0 1.476-1.11v1.5h2.43V61.724h-2.43v1.389a4.042 4.042 0 0 0-1.458-1.029 4.852 4.852 0 0 0-1.926-.377 5.452 5.452 0 0 0-1.935.356 4.984 4.984 0 0 0-2.844 2.689 5.408 5.408 0 0 0-.44 2.248 5.288 5.288 0 0 0 .45 2.23 5.076 5.076 0 0 0 1.188 1.657 5.289 5.289 0 0 0 3.546 1.388 4.691 4.691 0 0 0 1.944-.408zm-2.8-2.064a3.172 3.172 0 0 1-1.017-.651 2.96 2.96 0 0 1-.675-.981 3.032 3.032 0 0 1-.243-1.209 2.974 2.974 0 0 1 .243-1.2 2.89 2.89 0 0 1 .675-.963 3.246 3.246 0 0 1 1.017-.642 3.447 3.447 0 0 1 2.511 0 3 3 0 0 1 .99.651 3.129 3.129 0 0 1 .657.972 2.931 2.931 0 0 1 .243 1.183 2.972 2.972 0 0 1-.243 1.2 3.233 3.233 0 0 1-.657.98 2.933 2.933 0 0 1-.99.66 3.451 3.451 0 0 1-2.509-.001zm12.537 2.451h2.43v-5.644a2.833 2.833 0 0 1 .711-2.075 2.367 2.367 0 0 1 1.755-.721 2.216 2.216 0 0 1 1.782.695 2.814 2.814 0 0 1 .594 1.891v5.857h2.466v-6.132a4.533 4.533 0 0 0-1.107-3.251 4.535 4.535 0 0 0-4.9-.767 3.853 3.853 0 0 0-1.323 1.058v-1.439h-2.412v10.53zm18.567-.39a5.485 5.485 0 0 0 1.737-1.128 5.238 5.238 0 0 0 1.17-1.683 5.25 5.25 0 0 0 0-4.129 5.244 5.244 0 0 0-1.17-1.683 5.517 5.517 0 0 0-3.861-1.535 5.592 5.592 0 0 0-2.133.408 5.294 5.294 0 0 0-2.9 2.811 5.25 5.25 0 0 0 0 4.129 5.3 5.3 0 0 0 2.9 2.811 5.594 5.594 0 0 0 2.133.408 5.526 5.526 0 0 0 2.126-.407zm-3.339-2.115a2.932 2.932 0 0 1-1.611-1.6 2.917 2.917 0 0 1-.232-1.147 2.961 2.961 0 0 1 .234-1.173 2.93 2.93 0 0 1 1.611-1.6 3.127 3.127 0 0 1 1.215-.236 3.061 3.061 0 0 1 1.206.236 3.107 3.107 0 0 1 .972.642 2.93 2.93 0 0 1 .648.954A2.961 2.961 0 0 1 204.4 67a2.958 2.958 0 0 1-.882 2.111 3.1 3.1 0 0 1-.972.642 3.061 3.061 0 0 1-1.206.236 3.127 3.127 0 0 1-1.22-.24zM206.7 63.9h1.8v3.96a8.918 8.918 0 0 0 .207 2.1 2.948 2.948 0 0 0 .693 1.35 2.7 2.7 0 0 0 1.305.729 8.161 8.161 0 0 0 2.043.216h.342v-2.287a6.981 6.981 0 0 1-1.125-.072 1.024 1.024 0 0 1-.945-.945 6.846 6.846 0 0 1-.072-1.107V63.9h2.142v-2.176h-2.142v-3.276l-2.448 1.674v1.6h-1.8V63.9zm15.2 7.587a5.466 5.466 0 0 0 1.917-2.061l-2-1.152a3.076 3.076 0 0 1-2.916 1.854 3.3 3.3 0 0 1-2.142-.684 3.121 3.121 0 0 1-1.1-1.8h8.568v-.859a5.008 5.008 0 0 0-.405-2.025 4.912 4.912 0 0 0-1.125-1.612 5.091 5.091 0 0 0-1.719-1.063 6.054 6.054 0 0 0-2.169-.38 5.577 5.577 0 0 0-3.888 1.544 5.2 5.2 0 0 0-1.584 3.765 5.248 5.248 0 0 0 .405 2.056 5.047 5.047 0 0 0 1.134 1.674 5.261 5.261 0 0 0 1.755 1.119 6.1 6.1 0 0 0 2.268.408 5.478 5.478 0 0 0 3.01-.782zm-1.17-7.187a2.238 2.238 0 0 1 1.044 1.316H215.8a2.651 2.651 0 0 1 1.125-1.279 3.593 3.593 0 0 1 1.9-.485 3.755 3.755 0 0 1 1.905.448z" transform="translate(-74 -56)"/></svg><svg data-name="Layer 1" viewBox="-1 -1 62 11.19" width="62" height="11.19" id="logo_samsung" x="156" y="56.38" xmlns="http://www.w3.org/2000/svg"><title>logo_samsung</title><path d="M2.28 2.52a1.07 1.07 0 0 1 0-.45.71.71 0 0 1 .79-.58.73.73 0 0 1 .8.78v.53h2.14v-.6C6.01.33 4.33.04 3.11.04 1.59.04.34.55.11 1.95a3 3 0 0 0 0 1.16c.37 1.75 3.42 2.26 3.86 3.37a1.11 1.11 0 0 1 0 .63.74.74 0 0 1-.84.58.76.76 0 0 1-.86-.78v-.83h-2.3v.66c0 1.92 1.51 2.49 3.12 2.49s2.82-.53 3-2a4.26 4.26 0 0 0 0-1.4c-.31-1.81-3.56-2.31-3.81-3.31zm27.9 0a1.15 1.15 0 0 1 0-.44.7.7 0 0 1 .78-.57.72.72 0 0 1 .79.77v.52h2.1v-.6c0-1.85-1.66-2.14-2.86-2.14-1.51 0-2.74.5-3 1.89a2.86 2.86 0 0 0 0 1.14c.37 1.73 3.39 2.24 3.82 3.33a1.16 1.16 0 0 1 0 .63.73.73 0 0 1-.83.57.76.76 0 0 1-.86-.77v-.83h-2.28v.65c0 1.9 1.49 2.47 3.08 2.47s2.8-.52 3-1.94a4.18 4.18 0 0 0 0-1.39c-.28-1.78-3.5-2.29-3.74-3.29zm19.48 4.67l-2-6.91h-3.21v8.49h2.11l-.12-7.13 2.17 7.13h3.05V.28h-2.12zM9.19.28L7.6 8.86h2.32l1.2-7.94 1.17 7.94h2.3L13.01.28H9.2zm13 0l-1.08 6.7-1.08-6.7h-3.5l-.19 8.58h2.14l.06-7.94 1.48 7.94h2.18L23.68.92l.06 7.94h2.11L25.66.28h-3.5zm19.93 0h-2.17v6.35a1.51 1.51 0 0 1 0 .33.85.85 0 0 1-1.64 0 1.39 1.39 0 0 1 0-.33V.28h-2.26V7c.15 1.6 1.41 2.12 3 2.12s2.84-.52 3-2.12a4.47 4.47 0 0 0 0-.57V.28zm14.89 3.76v1.25h.84v1.23a1.57 1.57 0 0 1 0 .33.93.93 0 0 1-1.75 0 2.13 2.13 0 0 1 0-.33V2.6a1.75 1.75 0 0 1 0-.41.9.9 0 0 1 1.71 0 2.26 2.26 0 0 1 0 .33V3h2.16v-.28a5.14 5.14 0 0 0 0-.57c-.16-1.61-1.49-2.12-3-2.12s-2.82.51-3 2.12v4.18a4.89 4.89 0 0 0 0 .57c.14 1.56 1.5 2.12 3 2.12s2.87-.55 3-2.12V4.03h-3z" fill="#fff"/></svg><svg data-name="Layer 3" viewBox="-1 -1 77 13.05" width="77" height="13.05" id="logo_samsung8" x="77.38" y="79" xmlns="http://www.w3.org/2000/svg"><title>logo_samsung8</title><path d="M14.23 2.82a2.71 2.71 0 0 0-2.1-.92 3.24 3.24 0 0 0-3.24 3.41 3.28 3.28 0 0 0 3.22 3.4 2.69 2.69 0 0 0 2.12-1v.86h1.51V2.03h-1.51v.78zm-1.88 4.51a2 2 0 1 1 2-2 2 2 0 0 1-2 2zm12.08-4.51a2.71 2.71 0 0 0-2.1-.92 3.24 3.24 0 0 0-3.24 3.41 3.28 3.28 0 0 0 3.22 3.4 2.69 2.69 0 0 0 2.12-1v.86h1.51V2.03h-1.51v.78zm-1.88 4.51a2 2 0 1 1 2-2 2 2 0 0 1-2 2zm14.09-.88l-1.82-4.41h-1.61l2.69 6.2-1.18 2.81h1.56l3.67-9.01h-1.58l-1.73 4.41zm-3.6-4.41h-1.79l-1.47 2.07-1.49-2.07h-1.84l2.37 3.21-2.46 3.33h1.84l1.56-2.18 1.6 2.18h1.84l-2.5-3.32 2.34-3.22zM16.78.31h1.52v8.28h-1.52zM3.99 5.49H6.6a2.31 2.31 0 0 1-2.36 1.77 2.72 2.72 0 0 1-.06-5.43 2.52 2.52 0 0 1 2.36 1.42l1.34-.8A4.16 4.16 0 0 0 4.17.36a4.195 4.195 0 1 0 .07 8.39 3.93 3.93 0 0 0 4-4.09v-.6H3.99v1.43zm70.03-1.23a2 2 0 0 0 .77-1.61A2.36 2.36 0 0 0 72.14.32c-1.61 0-2.67.92-2.67 2.33a2 2 0 0 0 .73 1.6 2.2 2.2 0 0 0-1 1.91c0 1.57 1.05 2.55 2.9 2.55s2.92-1 2.92-2.55a2.22 2.22 0 0 0-1-1.9zm-1.87-2.65a1.06 1.06 0 1 1 0 2.07 1.07 1.07 0 0 1-1.25-1 1.13 1.13 0 0 1 1.25-1.07zm-.07 5.76a1.23 1.23 0 0 1-1.43-1.21 1.28 1.28 0 0 1 1.47-1.21 1.25 1.25 0 0 1 1.43 1.21 1.26 1.26 0 0 1-1.47 1.21zm-24.3-1.39L44.24.41h-1.73v8.18h1.53V2.85l3.64 5.74h1.62V.41h-1.52v5.57zm8.23-3a3.44 3.44 0 0 0-2.4-1 3.48 3.48 0 0 0-1.33.25 3.29 3.29 0 0 0-1.8 1.75 3.27 3.27 0 0 0 0 2.57 3.29 3.29 0 0 0 1.8 1.75 3.48 3.48 0 0 0 1.33.25 3.43 3.43 0 0 0 2.4-1 3.27 3.27 0 0 0 .73-1 3.27 3.27 0 0 0 0-2.57 3.27 3.27 0 0 0-.73-1zm-.64 3.06a1.82 1.82 0 0 1-.4.59 1.92 1.92 0 0 1-.6.4 1.9 1.9 0 0 1-.75.15 1.94 1.94 0 0 1-.76-.15 1.82 1.82 0 0 1-1-1 1.81 1.81 0 0 1-.15-.72 1.84 1.84 0 0 1 .15-.73 1.82 1.82 0 0 1 1-1 2 2 0 0 1 .76-.15 1.91 1.91 0 0 1 .75.15 1.93 1.93 0 0 1 .6.4 1.82 1.82 0 0 1 .4.59 1.84 1.84 0 0 1 .15.73 1.81 1.81 0 0 1-.15.74zM59.88 0l-1.52 1v1h-1.12v1.36h1.12v2.46a5.56 5.56 0 0 0 .13 1.3 1.83 1.83 0 0 0 .43.84 1.68 1.68 0 0 0 .81.45 5.08 5.08 0 0 0 1.27.13h.21V7.12a4.36 4.36 0 0 1-.7 0 .64.64 0 0 1-.59-.59 4.31 4.31 0 0 1 0-.69V3.39h1.33V2.03h-1.33v-2zm7.63 2.93a3.17 3.17 0 0 0-1.07-.66 3.77 3.77 0 0 0-1.35-.24 3.47 3.47 0 0 0-2.42 1 3.24 3.24 0 0 0-1 2.34 3.27 3.27 0 0 0 .25 1.28 3.13 3.13 0 0 0 .71 1 3.27 3.27 0 0 0 1.09.7 3.79 3.79 0 0 0 1.41.25 3.29 3.29 0 0 0 3.06-1.77l-1.24-.72a1.91 1.91 0 0 1-1.81 1.15 2.05 2.05 0 0 1-1.33-.43 1.94 1.94 0 0 1-.68-1.12h5.33v-.52a3.12 3.12 0 0 0-.25-1.26 3.05 3.05 0 0 0-.7-1zm-4.3 1.53a1.65 1.65 0 0 1 .7-.8 2.23 2.23 0 0 1 1.18-.3 2.34 2.34 0 0 1 1.19.28 1.39 1.39 0 0 1 .65.82h-3.72z" fill="#fff"/></svg></svg>