<?xml version="1.0" encoding="utf-8"?><svg width="102" height="22" viewBox="0 0 102 22" xmlns="http://www.w3.org/2000/svg" xmlns:xlink="http://www.w3.org/1999/xlink"><svg width="101.98" height="22" viewBox="-1 -1 101.98 22" id="logo-gpo" xmlns="http://www.w3.org/2000/svg"><defs><linearGradient id="aa" x1="9.2" y1="748.23" x2="-3.85" y2="761.28" gradientTransform="translate(0 -747)" gradientUnits="userSpaceOnUse"><stop offset="0" stop-color="#00a0ff"/><stop offset=".01" stop-color="#00a1ff"/><stop offset=".26" stop-color="#00beff"/><stop offset=".51" stop-color="#00d2ff"/><stop offset=".76" stop-color="#00dfff"/><stop offset="1" stop-color="#00e3ff"/></linearGradient><linearGradient id="ab" x1="18.55" y1="757.01" x2="-.26" y2="757.01" gradientTransform="translate(0 -747)" gradientUnits="userSpaceOnUse"><stop offset="0" stop-color="#ffe000"/><stop offset=".41" stop-color="#ffbd00"/><stop offset=".78" stop-color="orange"/><stop offset="1" stop-color="#ff9c00"/></linearGradient><linearGradient id="ac" x1="11.55" y1="758.79" x2="-6.14" y2="776.49" gradientTransform="translate(0 -747)" gradientUnits="userSpaceOnUse"><stop offset="0" stop-color="#ff3a44"/><stop offset="1" stop-color="#c31162"/></linearGradient><linearGradient id="ad" x1="-2.08" y1="741.59" x2="5.82" y2="749.49" gradientTransform="translate(0 -747)" gradientUnits="userSpaceOnUse"><stop offset="0" stop-color="#32a071"/><stop offset=".07" stop-color="#2da771"/><stop offset=".48" stop-color="#15cf74"/><stop offset=".8" stop-color="#06e775"/><stop offset="1" stop-color="#00f076"/></linearGradient></defs><g data-name="Layer 2"><g data-name="Layer 1"><g data-name="Layer 1-2"><path d="M47.86 8a3.84 3.84 0 103.85 3.83A3.77 3.77 0 0048 8zm0 6.16a2.22 2.22 0 01-2.17-2.27v-.05a2.18 2.18 0 014.31-.41 3.09 3.09 0 010 .43 2.23 2.23 0 01-2.13 2.32zm10.32-5.29h-.06a2.65 2.65 0 00-2-.85 3.84 3.84 0 000 7.67 2.6 2.6 0 002-.88h.06v.56a2 2 0 01-2 2.25 2.09 2.09 0 01-1.93-1.36l-1.48.59a3.67 3.67 0 003.41 2.27c2 0 3.65-1.17 3.65-4V8.25h-1.6zm-1.93 5.31a2.2 2.2 0 01-2.1-2.31 2.23 2.23 0 012.1-2.35 2.16 2.16 0 012 2.26v.09a2.09 2.09 0 01-1.88 2.3zM39.41 8a3.84 3.84 0 103.85 3.83A3.77 3.77 0 0039.54 8h-.13zm0 6.16a2.22 2.22 0 01-2.17-2.27v-.05a2.18 2.18 0 014.34-.43 3.09 3.09 0 010 .43 2.22 2.22 0 01-2.11 2.32h-.06zm-9.94-5v1.63h3.89a3.42 3.42 0 01-.88 2.1 4 4 0 01-3 1.15 4.29 4.29 0 01-4.29-4.29 4.29 4.29 0 014.22-4.35h.06a4.2 4.2 0 012.93 1.15l1.15-1.14a5.73 5.73 0 00-4.08-1.65 6 6 0 00-6 6 6 6 0 006 6A5.43 5.43 0 0033.68 14a5.38 5.38 0 001.41-3.8A6.23 6.23 0 0035 9.15zm40.89 1.27A3.54 3.54 0 0067.08 8a3.65 3.65 0 00-3.63 3.67v.17a3.74 3.74 0 003.66 3.83h.15A3.83 3.83 0 0070.43 14l-1.32-.87a2.18 2.18 0 01-1.88 1.05A2 2 0 0165.36 13l5.14-2.1zm-5.26 1.3a2.11 2.11 0 012-2.25h.07a1.49 1.49 0 011.43.81zm-4.21 3.73h1.68V4.22h-1.68zM78.26 4.22h-4.05v11.24h1.69v-4.28h2.36A3.59 3.59 0 0082 7.71a3.57 3.57 0 00-3.69-3.46zm0 5.44H75.9V5.74h2.4a1.94 1.94 0 010 3.88zm4.58 5.84h1.69V4.22h-1.69zM88.66 8a3.15 3.15 0 00-3 1.72l1.5.62a1.58 1.58 0 011.58-.9 1.61 1.61 0 011.76 1.44v.17a3.55 3.55 0 00-1.75-.44c-1.61 0-3.25.88-3.25 2.54a2.61 2.61 0 002.73 2.48h.08a2.4 2.4 0 002.1-1.06v.87H92v-4.33c.1-2-1.4-3.11-3.33-3.11zm-.2 6.17c-.55 0-1.32-.27-1.32-1 0-.87 1-1.2 1.79-1.2a2.85 2.85 0 011.53.38 2 2 0 01-1.95 1.73zM98 8.28l-1.94 4.89H96l-2-4.89h-1.75l3 6.84-1.7 3.8h1.74L100 8.24z" opacity=".54" style="isolation:isolate"/><path d="M.36.31A1.62 1.62 0 000 1.37V18.6a1.62 1.62 0 00.36 1.06l.06.05 9.63-9.59v-.23L.42.26z" fill="url(#aa)"/><path d="M13.26 13.33l-3.16-3.21v-.23l3.16-3.21h.07l3.8 2.16a1.19 1.19 0 01.75 1.51 1.2 1.2 0 01-.75.74l-3.8 2.1z" fill="url(#ab)"/><path d="M13.33 13.29L10.05 10 .36 19.7a1.27 1.27 0 001.64 0l11.35-6.45" fill="url(#ac)"/><path d="M13.33 6.72L2 .27A1.27 1.27 0 00.36.31L10.05 10z" fill="url(#ad)"/><path d="M13.26 13.21L2 19.62a1.29 1.29 0 01-1.56 0l-.06.07h.06a1.29 1.29 0 001.56 0l11.35-6.45z" opacity=".2" style="isolation:isolate"/><path d="M.36 19.58a1.6 1.6 0 01-.36-1v.12a1.61 1.61 0 00.36 1l.06-.07zM17.13 11l-3.87 2.19.07.08 3.8-2.11a1.37 1.37 0 00.87-1.1 1.48 1.48 0 01-.87.94z" opacity=".12" style="isolation:isolate"/><path d="M2 .39L17.13 9a1.5 1.5 0 01.87 1.05 1.37 1.37 0 00-.82-1.13L2 .27C.9-.35 0 .17 0 1.41v.11C0 .28.88-.23 2 .39z" fill="#fff" opacity=".25" style="isolation:isolate"/></g></g></g></svg></svg>