<svg xmlns="http://www.w3.org/2000/svg" width="23.67" height="23.82" viewBox="0 0 23.67 23.82"><title>in_logo</title><g id="Layer_2" data-name="Layer 2"><g id="Layer_1-2" data-name="Layer 1"><g id="Layer_1-2-2" data-name="Layer 1-2"><path d="M0,1.71A1.73,1.73,0,0,1,1.75,0H21.92a1.72,1.72,0,0,1,1.75,1.71h0V22.12a1.72,1.72,0,0,1-1.75,1.7H1.75A1.72,1.72,0,0,1,0,22.12H0Z" fill="#069"/><path d="M7.18,19.94V9.18H3.6V19.94ZM5.4,7.72A1.87,1.87,0,1,0,5.41,4a1.86,1.86,0,1,0,0,3.72ZM9.16,19.94h3.57v-6a2.58,2.58,0,0,1,.12-.87,2,2,0,0,1,1.83-1.31c1.3,0,1.81,1,1.81,2.43v5.75h3.58V13.77c0-3.3-1.76-4.84-4.12-4.84a3.56,3.56,0,0,0-3.24,1.81h0V9.19H9.16C9.2,10.19,9.16,19.94,9.16,19.94Z" fill="#fff"/></g></g></g></svg>