<svg width="282" height="134" xmlns="http://www.w3.org/2000/svg" xmlns:xlink="http://www.w3.org/1999/xlink"><svg width="89.29" height="33" viewBox="-1 -1 89.29 33" x="154.91" y="61.2" xmlns="http://www.w3.org/2000/svg"><g data-name="Layer 2"><g data-name="Layer 1"><path d="M35.27 13.25h-.12l.15-.09z" fill="#6e6f71"/><path d="M86.6 2.83a1.73 1.73 0 0 0-1.48-.58 3.6 3.6 0 0 0-2.37 1.45 9.42 9.42 0 0 0-1.57 2.52 19 19 0 0 0-.77 2.15l-1 2.31a8.91 8.91 0 0 0-.68 2.55L78 15.75v.71L77.25 18l-.68.89-1.72 1.69-.85.52a1.29 1.29 0 0 0-.65.28 1.71 1.71 0 0 1-.55.31c-.46 0-.86-.58-1-1.88l-.12-.52-.52-.65a1.46 1.46 0 0 0-2.61.12l-1.45 2.43a1.42 1.42 0 0 1-1.2.55 18.42 18.42 0 0 1 1.54-3.69 6 6 0 0 1 1.08-1.2h1.38l.65.89a.82.82 0 0 0 .89.4 1 1 0 0 0 .58-.4 1.35 1.35 0 0 0 .22-.68 2.79 2.79 0 0 0-.8-1.51 3.74 3.74 0 0 0-1.85-1 5 5 0 0 0-2.25.22 2.13 2.13 0 0 0-1 .52 1.46 1.46 0 0 0-.4.34l-.34.43a1.54 1.54 0 0 0-.77.77l-1.88 4.46a1.43 1.43 0 0 0 .05 1.07l.34 1a4.63 4.63 0 0 0 .34.68 2.31 2.31 0 0 0 1.26.74 3.77 3.77 0 0 0 3.14-1.11l1.81-1.41c.09 0 .22.09.34.37l.12.43.37.37 1.2 1a1.69 1.69 0 0 0 1 .31 3.38 3.38 0 0 0 1.88-.43l.74-.43.65-.55a1.47 1.47 0 0 1 .77-.31.21.21 0 0 1 .18.09v.22l.34 3.23.55 2.37a3.34 3.34 0 0 0 1.2 1.54 2.91 2.91 0 0 0 1.81.65c.43-.4.43-1 0-1.85a4.1 4.1 0 0 1-.62-1.85l-.1-5.42a5.89 5.89 0 0 1 .22-2.46 7.89 7.89 0 0 1 1.08-1.94l1.32-1.94 1.17-2.28 2.92-7a4.36 4.36 0 0 0 .22-2.12 2.83 2.83 0 0 0-.65-1.41M82.69 8.4A6.49 6.49 0 0 1 83 7.32a8.43 8.43 0 0 1 1.54-1.88h.12v.4l-.22.65-1.75 4.43-1 1.85a1.34 1.34 0 0 1-.4.68h-.12v-.34l.55-2.58c.12-.4.25-.74.37-1zM62.85 24.08l-.68-.8a6.18 6.18 0 0 1-.8-2.28l-.31-2.58-.65-2.15a2.44 2.44 0 0 0-1.26-1h-1.54l-.83.52a9.11 9.11 0 0 0-.8.65 3.76 3.76 0 0 0-.52 1l-.46 1a.71.71 0 0 1-.34-.68l.06-.4-.06-.43-.77-2.06a6.71 6.71 0 0 0-1.26-1.6 4.47 4.47 0 0 0-1.85-.89 2.59 2.59 0 0 0-1.2 0l-1 .09a2.65 2.65 0 0 0-1.29.77l-.89 1.32a4.82 4.82 0 0 1-1 1.29 3.24 3.24 0 0 0-.65.83l-1 2.09-.52.89a4.51 4.51 0 0 0-.31 2 3.38 3.38 0 0 0 .43 1.81A3.21 3.21 0 0 0 45 24.76a4.2 4.2 0 0 0 2.21.34 2.52 2.52 0 0 0 .89-.43l.71-.4a1.64 1.64 0 0 0 .77-1.11 7.14 7.14 0 0 0 0-3.17c-.22-.86-.34-1.51-.4-1.94a2.54 2.54 0 0 1 .52-1.85l.25-.34a.53.53 0 0 0 0-.43l-.18-.34c0-.15 0-.22.22-.22a1.22 1.22 0 0 1 1.17.55 3.45 3.45 0 0 1 .52 1.51l.43 5.35a2.32 2.32 0 0 0 .25 1.08 2.08 2.08 0 0 0 1.29 1.08 2.14 2.14 0 0 0 1.63-.12A2.27 2.27 0 0 0 56.43 23l.49-1.81a4 4 0 0 1 .55-1.66l.31-.37.12-.06.18.22a1.28 1.28 0 0 1 .46.68 11.61 11.61 0 0 1 .55 1.78 5.63 5.63 0 0 0 .74 1.75 3.9 3.9 0 0 0 1.57 1.29 3.45 3.45 0 0 0 2 .18v-.09zm-16-6.24c.46 0 .65.52.58 1.54a14.2 14.2 0 0 1-.55 2.52c-.18.34-.31.62-.43.68a.55.55 0 0 1-.65.15c-.22 0-.31-.22-.31-.55A3.52 3.52 0 0 1 45.6 21l.34-1.2a10.25 10.25 0 0 1 .89-1.94M13.56 3.17a16 16 0 0 0-1.94-1.41A9.73 9.73 0 0 0 9.4.77 8.92 8.92 0 0 0 8.2.4L7 .22A3.51 3.51 0 0 0 5.74 0H4.51L1.65.43a1.53 1.53 0 0 0-1 .34 4.53 4.53 0 0 0-.49.86 1.68 1.68 0 0 0-.16.92 1 1 0 0 0 .55.68A2.86 2.86 0 0 0 2 3.48L6 3l3.69.46a6.14 6.14 0 0 1 1 .31 4.3 4.3 0 0 1 1.63 1.38 2.63 2.63 0 0 1 .77 1.94 2.74 2.74 0 0 1-1 1.75l-1.54 1.2a3.42 3.42 0 0 1-1.75.68l.27-.72.18-.74.09-1.66.31-.74.09-.74A2.5 2.5 0 0 0 9.5 5a2 2 0 0 0-1.11-1.22h-.83a1.37 1.37 0 0 0-.74.49 2.74 2.74 0 0 0-.62 1.6l-.77 4.74a1.8 1.8 0 0 1-.74 1.17c-.31.18-.65 0-1-.68l-.43-.65a1.61 1.61 0 0 0-.65-.4.94.94 0 0 0-1.11.43 1.43 1.43 0 0 0 0 1.45 2.42 2.42 0 0 0 1 1.2l1 .43 1 .46a1.11 1.11 0 0 1 .43 1.23 8.3 8.3 0 0 1-.34 1.63L3 26.29l-.31.86a.8.8 0 0 0 .12.86 1.81 1.81 0 0 0 1.45.68A1.44 1.44 0 0 0 5.74 28a3.12 3.12 0 0 0 .46-1.51l.22-2.37a18.87 18.87 0 0 1 .4-2.71l.58-2.61a16.1 16.1 0 0 0 .22-2.28 7 7 0 0 1 .28-1.69 2.19 2.19 0 0 1 1.32-1.08l2.31-.75a11.56 11.56 0 0 0 2-1.26 11.41 11.41 0 0 0 1.72-1.54 4.07 4.07 0 0 0 .65-3.88 7.62 7.62 0 0 0-2.37-3.2M42.4 13.81a1.25 1.25 0 0 0-.22-.83 1.93 1.93 0 0 0-.65-.58 2.67 2.67 0 0 0-.92-.22 2.77 2.77 0 0 0-1 .31l-.61.21a3.89 3.89 0 0 1-.37.22l-.25.31-.34.12-.65 1.08-.22.22a.26.26 0 0 0-.09.22l-.18.46a2.37 2.37 0 0 0-.46.86 4.89 4.89 0 0 0 0 1 5.07 5.07 0 0 0 .74 2.06L38.37 21a2.73 2.73 0 0 1 .63 2c-.06.4-.43.74-1.11 1l-1.54.09-1-.31a.9.9 0 0 0-.89.22 3.21 3.21 0 0 0 0 .77l.86 1.45c.22.31.65.46 1.38.55a7.72 7.72 0 0 0 3.3-.32 3.19 3.19 0 0 0 1.41-.89 2.39 2.39 0 0 0 .78-1.56 3.68 3.68 0 0 0-1-3l-.89-1.38a3.08 3.08 0 0 1-.58-1.51 2.36 2.36 0 0 1 .46-1.88 5.22 5.22 0 0 1 1.38-1.2 1.9 1.9 0 0 0 .86-1.29" fill="#fff"/><path d="M36.19 15.32a.73.73 0 0 0 0-.68 1.24 1.24 0 0 0-.34-.74 4.63 4.63 0 0 0-2.37-.34 2.74 2.74 0 0 0-1.63.86l-1.41 1.32-1.17 1.48a3.12 3.12 0 0 1-1.38 1.23l-.31-.77a3.13 3.13 0 0 1-.12-.83 1.63 1.63 0 0 0-.65-1.23 2 2 0 0 0-1.29-.55 1.77 1.77 0 0 0-1.29.22l-.62.55-.46.65-1.08 1.17c-.43.43-1.11 1.29-2.18 2.61l-1.51 1.93c-.58.68-1.08 1-1.54.8s-.8-.52-1-1.17a1.4 1.4 0 0 1 .43-1.41l3.38-1.66 1.51-1L22 17a3 3 0 0 0-.46-2A4.89 4.89 0 0 0 20 13.5a4.55 4.55 0 0 0-2-.74 3.49 3.49 0 0 0-2.09.52 6.45 6.45 0 0 0-2.68 3.54l-.22.65-.12.22-.22.09h-1l-.55.06a.44.44 0 0 0-.22.4 1.51 1.51 0 0 0 .18.89l.68.77.55.52a1.79 1.79 0 0 1 .34 1l.43 1a5.28 5.28 0 0 0 2.21 2.77 3.82 3.82 0 0 0 3.14.34 5.42 5.42 0 0 0 2.28-1.54l1.94-2.31a7.51 7.51 0 0 1 2.25-2l.31 1.72.09 1.23-.09 1.17a2.88 2.88 0 0 0 .22 1.14 1.92 1.92 0 0 0 1.29 1 1.49 1.49 0 0 0 1.51-.77l.86-2 1.29-1.72 1.08-2.18a7.55 7.55 0 0 1 1.38-2 5.8 5.8 0 0 1 1.51-1.17l1.38-.55zm-16.79 0a1 1 0 0 1 0 .68c0 .34-.31.65-.77 1l-1.88 1.2a3.42 3.42 0 0 1-.89.31h-.25c-.06 0-.09 0-.09-.18l.09-.34a.92.92 0 0 1 .31-.55l.86-1.2a3.82 3.82 0 0 1 1-1.26.91.91 0 0 1 1.32-.12 3.07 3.07 0 0 1 .28.55" fill="#fff"/></g></g></svg><svg width="109.03" height="14.79" viewBox="-1 -1 109.03 14.79" x="154.91" y="46.41" xmlns="http://www.w3.org/2000/svg"><path d="M4.01 8.01l1.47-4.07c.08-.19.15-.41.23-.66s.15-.52.23-.81c.08.29.15.55.23.8s.16.47.23.65l1.48 4.09H4.01zM7.1.36H4.79L.01 12.65h1.77a.714.714 0 0 0 .48-.16.971.971 0 0 0 .26-.36l.9-2.51h5.04l.91 2.51a.912.912 0 0 0 .27.37.764.764 0 0 0 .48.15h1.75zm12.2 4.65a4.1 4.1 0 0 0-1.3-.9 4.26 4.26 0 0 0-1.7-.32 4.621 4.621 0 0 0-1.8.34 3.788 3.788 0 0 0-1.31.94 4.033 4.033 0 0 0-.8 1.42 6.118 6.118 0 0 0 .03 3.69 4.416 4.416 0 0 0 .84 1.42 3.643 3.643 0 0 0 1.24.88 3.791 3.791 0 0 0 1.5.3 6.97 6.97 0 0 0 .91-.07 3.927 3.927 0 0 0 1.73-.68 3.668 3.668 0 0 0 .75-.68l-.6-.77a.413.413 0 0 0-.38-.19.571.571 0 0 0-.35.12q-.15.12-.36.27a2.762 2.762 0 0 1-.52.28 2.21 2.21 0 0 1-.8.12 1.972 1.972 0 0 1-.89-.19 1.815 1.815 0 0 1-.67-.56 2.615 2.615 0 0 1-.43-.92 4.629 4.629 0 0 1-.15-1.24 4.822 4.822 0 0 1 .14-1.2 2.532 2.532 0 0 1 .41-.91 1.78 1.78 0 0 1 .68-.57 2.224 2.224 0 0 1 .96-.2 2.156 2.156 0 0 1 .72.1 2.588 2.588 0 0 1 .5.22c.14.08.26.16.36.22a.52.52 0 0 0 .31.1.4.4 0 0 0 .26-.07 1.106 1.106 0 0 0 .18-.19zM29.38 4h-6.07V1.26h-1.08a.486.486 0 0 0-.3.09.491.491 0 0 0-.16.27l-.44 2.37-1.39.24v.83a.4.4 0 0 0 .41.44h.88v4.87a2.464 2.464 0 0 0 .6 1.77 2.254 2.254 0 0 0 1.73.65 3.9 3.9 0 0 0 1.22-.2 3.033 3.033 0 0 0 1.04-.58l-.62-1.02a.92.92 0 0 0-.13-.14.246.246 0 0 0-.15-.05.3.3 0 0 0-.15.05c-.05.03-.11.07-.17.1s-.14.07-.23.1a1.038 1.038 0 0 1-.32.04.683.683 0 0 1-.55-.23.93.93 0 0 1-.19-.63V5.5h4v7.15h2.07V4zm.26-3.17a1.571 1.571 0 0 0-.29-.42 1.257 1.257 0 0 0-.43-.29 1.359 1.359 0 0 0-.53-.11 1.181 1.181 0 0 0-.5.11 1.094 1.094 0 0 0-.41.29 1.371 1.371 0 0 0-.29.42 1.4 1.4 0 0 0 0 1.04 1.371 1.371 0 0 0 .29.42 1.2 1.2 0 0 0 .41.28 1.181 1.181 0 0 0 .5.11 1.359 1.359 0 0 0 .53-.11 1.389 1.389 0 0 0 .43-.28 1.571 1.571 0 0 0 .29-.42 1.284 1.284 0 0 0 0-1.04zm8 3.1a.615.615 0 0 0-.36.11.581.581 0 0 0-.21.28l-1.7 4.66a6.566 6.566 0 0 0-.24.8c-.07.26-.13.52-.19.78q-.075-.39-.18-.78c-.06-.26-.14-.53-.23-.8l-1.67-4.66a.507.507 0 0 0-.2-.28.689.689 0 0 0-.39-.11h-1.72l3.42 8.72h1.89l3.42-8.72h-1.64zm7.09 6.47a3.582 3.582 0 0 1-.91.71 2.557 2.557 0 0 1-1.11.23 1.4 1.4 0 0 1-.85-.24.929.929 0 0 1-.32-.79.887.887 0 0 1 .16-.52 1.286 1.286 0 0 1 .53-.41 4.088 4.088 0 0 1 .98-.3 11.286 11.286 0 0 1 1.52-.15v1.47zm-4.39-4.58a.848.848 0 0 0 .24.26.586.586 0 0 0 .37.12.9.9 0 0 0 .46-.12c.14-.08.29-.17.46-.27a3.478 3.478 0 0 1 .58-.27 2.492 2.492 0 0 1 .84-.12 1.337 1.337 0 0 1 1.07.43 1.947 1.947 0 0 1 .37 1.29v.51a14.126 14.126 0 0 0-1.75.15 8.009 8.009 0 0 0-1.34.32 3.81 3.81 0 0 0-.97.46 2.8 2.8 0 0 0-.65.56 2.041 2.041 0 0 0-.35.62 1.906 1.906 0 0 0-.11.66 2.708 2.708 0 0 0 .18 1.03 2.1 2.1 0 0 0 .52.74 2.245 2.245 0 0 0 .8.45 3.288 3.288 0 0 0 1.01.15 3.757 3.757 0 0 0 .85-.09 3.278 3.278 0 0 0 .71-.23 3.558 3.558 0 0 0 .65-.38 6.972 6.972 0 0 0 .64-.52l.19.63a.6.6 0 0 0 .25.36.918.918 0 0 0 .45.09h.94V7.14a4.26 4.26 0 0 0-.21-1.36 2.945 2.945 0 0 0-.63-1.07 2.793 2.793 0 0 0-1.01-.69 3.386 3.386 0 0 0-1.35-.25 5.1 5.1 0 0 0-3.58 1.37zm8.39-5.8v12.63h2.08V.02h-2.08zm6.21 4.09a3.7 3.7 0 0 0-1.35.89 3.933 3.933 0 0 0-.86 1.41 5.765 5.765 0 0 0 0 3.73 3.976 3.976 0 0 0 .86 1.42 3.723 3.723 0 0 0 1.35.9 4.714 4.714 0 0 0 1.76.32 4.609 4.609 0 0 0 1.74-.32 3.723 3.723 0 0 0 1.35-.9 3.976 3.976 0 0 0 .86-1.42 5.947 5.947 0 0 0 0-3.73A3.933 3.933 0 0 0 59.79 5a3.7 3.7 0 0 0-1.35-.89 4.609 4.609 0 0 0-1.74-.32 4.714 4.714 0 0 0-1.76.32zm.14 6.32a4.606 4.606 0 0 1 0-4.29 1.859 1.859 0 0 1 1.62-.74 1.8 1.8 0 0 1 1.59.74 4.684 4.684 0 0 1 0 4.29 1.8 1.8 0 0 1-1.59.73 1.853 1.853 0 0 1-1.62-.73zm16.1-.03a3.417 3.417 0 0 1-.91.71 2.511 2.511 0 0 1-1.1.23 1.4 1.4 0 0 1-.85-.24.929.929 0 0 1-.32-.79.887.887 0 0 1 .16-.52 1.223 1.223 0 0 1 .53-.41 3.947 3.947 0 0 1 .98-.3 11.119 11.119 0 0 1 1.51-.15v1.47zM66.8 5.82a.848.848 0 0 0 .24.26.567.567 0 0 0 .37.12.9.9 0 0 0 .46-.12c.13-.08.29-.17.46-.27a3.139 3.139 0 0 1 .58-.27 2.492 2.492 0 0 1 .84-.12 1.3 1.3 0 0 1 1.06.43 1.893 1.893 0 0 1 .37 1.29v.51a14.3 14.3 0 0 0-1.75.15 8.257 8.257 0 0 0-1.34.32 4.167 4.167 0 0 0-.97.46 2.956 2.956 0 0 0-.64.56 2.08 2.08 0 0 0-.36.62 2.174 2.174 0 0 0-.11.66 2.525 2.525 0 0 0 .19 1.03 1.983 1.983 0 0 0 .52.74 2.163 2.163 0 0 0 .8.45 3.243 3.243 0 0 0 1.01.15 3.606 3.606 0 0 0 .84-.09 3.194 3.194 0 0 0 .72-.23 3.927 3.927 0 0 0 .65-.38 6.972 6.972 0 0 0 .64-.52l.18.63a.641.641 0 0 0 .25.36.962.962 0 0 0 .46.09h.94V7.14A4.26 4.26 0 0 0 73 5.78a3.256 3.256 0 0 0-.63-1.07 2.881 2.881 0 0 0-1.01-.69 3.42 3.42 0 0 0-1.35-.25 5.1 5.1 0 0 0-3.58 1.37zM77.24.02h-2.08v12.63h2.08V6.34a3.715 3.715 0 0 1 .89-.67 2.188 2.188 0 0 1 1.01-.25 1.353 1.353 0 0 1 1.1.44 1.909 1.909 0 0 1 .36 1.24v5.55h2.08V7.1a4.714 4.714 0 0 0-.19-1.34 3.114 3.114 0 0 0-.56-1.05 2.592 2.592 0 0 0-.91-.68 3.063 3.063 0 0 0-1.25-.24 3.131 3.131 0 0 0-1.42.3 4.5 4.5 0 0 0-1.11.77V.02zm9.46 4.09a3.876 3.876 0 0 0-1.35.89 3.933 3.933 0 0 0-.86 1.41 5.765 5.765 0 0 0 0 3.73 3.976 3.976 0 0 0 .86 1.42 3.9 3.9 0 0 0 1.35.9 4.752 4.752 0 0 0 1.76.32 4.609 4.609 0 0 0 1.74-.32 3.723 3.723 0 0 0 1.35-.9 3.976 3.976 0 0 0 .86-1.42 5.947 5.947 0 0 0 0-3.73A3.933 3.933 0 0 0 91.55 5a3.7 3.7 0 0 0-1.35-.89 4.609 4.609 0 0 0-1.74-.32 4.752 4.752 0 0 0-1.76.32zm.14 6.32a4.684 4.684 0 0 1 0-4.29 1.859 1.859 0 0 1 1.62-.74 1.8 1.8 0 0 1 1.59.74 4.684 4.684 0 0 1 0 4.29 1.8 1.8 0 0 1-1.59.73 1.853 1.853 0 0 1-1.62-.73zm9.3-5.97a.749.749 0 0 0-.17-.42.741.741 0 0 0-.45-.11H94.3v8.72h2.08V7.28a3.981 3.981 0 0 1 .31-.62 2.2 2.2 0 0 1 .37-.47 1.864 1.864 0 0 1 .49-.29 1.662 1.662 0 0 1 .61-.1 2.592 2.592 0 0 1 .48.04 2.212 2.212 0 0 0 .38.04.328.328 0 0 0 .21-.06.393.393 0 0 0 .13-.22l.13-1.57a1.561 1.561 0 0 0-.96-.26 2.071 2.071 0 0 0-1.31.44 3.818 3.818 0 0 0-.96 1.23zm8.88 5.94a3.582 3.582 0 0 1-.91.71 2.526 2.526 0 0 1-1.11.23 1.371 1.371 0 0 1-.84-.24.9.9 0 0 1-.32-.79.955.955 0 0 1 .15-.52 1.357 1.357 0 0 1 .53-.41 4.184 4.184 0 0 1 .99-.3 11.119 11.119 0 0 1 1.51-.15v1.47zm-4.39-4.58a.883.883 0 0 0 .25.26.567.567 0 0 0 .37.12.866.866 0 0 0 .45-.12c.14-.08.29-.17.46-.27a3.6 3.6 0 0 1 .59-.27 2.469 2.469 0 0 1 .83-.12 1.324 1.324 0 0 1 1.07.43 1.893 1.893 0 0 1 .37 1.29v.51a14.3 14.3 0 0 0-1.75.15 8.257 8.257 0 0 0-1.34.32 3.981 3.981 0 0 0-.97.46 2.736 2.736 0 0 0-.64.56 1.886 1.886 0 0 0-.36.62 2.174 2.174 0 0 0-.11.66 2.525 2.525 0 0 0 .19 1.03 1.876 1.876 0 0 0 .52.74 2.163 2.163 0 0 0 .8.45 3.179 3.179 0 0 0 1 .15 3.757 3.757 0 0 0 .85-.09 3.555 3.555 0 0 0 .72-.23 3.927 3.927 0 0 0 .65-.38 6.906 6.906 0 0 0 .63-.52l.19.63a.641.641 0 0 0 .25.36.962.962 0 0 0 .46.09h.94V7.14a4 4 0 0 0-.22-1.36 3.071 3.071 0 0 0-.62-1.07 2.881 2.881 0 0 0-1.01-.69 3.436 3.436 0 0 0-1.36-.25 5.136 5.136 0 0 0-3.58 1.37z" fill="#fff" fill-rule="evenodd"/></svg><svg width="147.63" height="15.19" viewBox="-1 -1 147.63 15.19" y="18.59" xmlns="http://www.w3.org/2000/svg"><path d="M7.05.28v6.28c0 .14.01.29.01.45s.03.33.04.5L1.66.59a1.2 1.2 0 0 0-.15-.16.412.412 0 0 0-.13-.1.749.749 0 0 0-.16-.04 1.342 1.342 0 0 0-.21-.01H0v10.34h1.7V4.27c0-.27-.02-.56-.04-.87l5.42 6.89a.774.774 0 0 0 .3.25.855.855 0 0 0 .38.08h.99V.28h-1.7zm8.32 3v5.31a3.23 3.23 0 0 1-.76.56 1.983 1.983 0 0 1-.87.2 1.143 1.143 0 0 1-.93-.37 1.54 1.54 0 0 1-.32-1.04V3.28h-1.77v4.66a3.675 3.675 0 0 0 .16 1.13 2.492 2.492 0 0 0 .48.88 2.156 2.156 0 0 0 .78.58 3.018 3.018 0 0 0 2.35-.08 3.761 3.761 0 0 0 1-.74l.12.59a.42.42 0 0 0 .45.32h1.08V3.28h-1.77zm5.07 2.83A2.14 2.14 0 0 1 21 4.87a1.861 1.861 0 0 1 1.91-.3 1.251 1.251 0 0 1 .49.36 1.6 1.6 0 0 1 .29.53 2.268 2.268 0 0 1 .1.65h-3.35zm4.52 1.06a.329.329 0 0 0 .33-.14 1.084 1.084 0 0 0 .09-.54 3.858 3.858 0 0 0-.24-1.41 2.988 2.988 0 0 0-.66-1.04 2.785 2.785 0 0 0-1.02-.65 3.549 3.549 0 0 0-1.28-.22 3.735 3.735 0 0 0-1.49.28 3.276 3.276 0 0 0-1.11.78 3.45 3.45 0 0 0-.7 1.15 4.094 4.094 0 0 0-.24 1.41 4.661 4.661 0 0 0 .28 1.7 3.464 3.464 0 0 0 .76 1.23 3.273 3.273 0 0 0 1.15.75 3.949 3.949 0 0 0 1.43.26 5.488 5.488 0 0 0 .8-.06 4.671 4.671 0 0 0 .82-.2 3.81 3.81 0 0 0 .76-.37 2.6 2.6 0 0 0 .66-.58l-.51-.64a.359.359 0 0 0-.33-.16.66.66 0 0 0-.34.1c-.12.06-.25.14-.41.22a4.192 4.192 0 0 1-.55.22 2.284 2.284 0 0 1-.74.1 2.22 2.22 0 0 1-.79-.13 1.66 1.66 0 0 1-.61-.4 2.18 2.18 0 0 1-.42-.68 3.766 3.766 0 0 1-.2-.98h4.56zm6.95-3.89a.48.48 0 0 0-.31.1.444.444 0 0 0-.18.23l-1.45 3.92c-.08.23-.15.45-.21.67s-.11.44-.16.66q-.06-.33-.15-.66a6.3 6.3 0 0 0-.2-.67l-1.42-3.92a.444.444 0 0 0-.18-.23.5.5 0 0 0-.33-.1h-1.47l2.93 7.34h1.61l2.92-7.34h-1.4zm4.02.15a3.32 3.32 0 0 0-1.16.75 3.429 3.429 0 0 0-.74 1.19 4.87 4.87 0 0 0 0 3.14 3.429 3.429 0 0 0 .74 1.19 3.207 3.207 0 0 0 1.16.76 4.274 4.274 0 0 0 2.99 0 3.346 3.346 0 0 0 1.15-.76 3.408 3.408 0 0 0 .73-1.19 4.87 4.87 0 0 0 0-3.14 3.408 3.408 0 0 0-.73-1.19 3.471 3.471 0 0 0-1.15-.75 4.428 4.428 0 0 0-2.99 0zm.11 5.32a3.825 3.825 0 0 1 0-3.6 1.825 1.825 0 0 1 2.75-.01 3.161 3.161 0 0 1 .44 1.81 3.1 3.1 0 0 1-.44 1.8 1.574 1.574 0 0 1-1.36.62 1.607 1.607 0 0 1-1.39-.62zm11.42-4.67a3.04 3.04 0 0 0-1.04-.66 4.035 4.035 0 0 0-2.59-.07 2.441 2.441 0 0 0-.87.49 2.037 2.037 0 0 0-.53.71 2.105 2.105 0 0 0-.18.86 1.921 1.921 0 0 0 .16.83 1.7 1.7 0 0 0 .41.57 2.11 2.11 0 0 0 .58.39 4.267 4.267 0 0 0 .67.27c.22.08.45.15.66.21a4.916 4.916 0 0 1 .59.22 1.429 1.429 0 0 1 .41.29.6.6 0 0 1 .15.42.784.784 0 0 1-.07.33.715.715 0 0 1-.21.28 1.056 1.056 0 0 1-.38.2 1.708 1.708 0 0 1-.54.08 1.993 1.993 0 0 1-.66-.1 2.876 2.876 0 0 1-.46-.2c-.13-.07-.24-.14-.34-.2a.586.586 0 0 0-.31-.09.609.609 0 0 0-.28.06.656.656 0 0 0-.18.19l-.41.67a2.789 2.789 0 0 0 .5.36 4.918 4.918 0 0 0 .61.29 4.231 4.231 0 0 0 .7.18 3.64 3.64 0 0 0 .74.07 4.054 4.054 0 0 0 1.27-.18 2.6 2.6 0 0 0 .93-.51 2.156 2.156 0 0 0 .56-.77 2.413 2.413 0 0 0 .19-.98 1.6 1.6 0 0 0-.16-.75 1.654 1.654 0 0 0-.4-.54 2.2 2.2 0 0 0-.58-.37q-.33-.15-.66-.27l-.66-.21a3.912 3.912 0 0 1-.58-.21 1.425 1.425 0 0 1-.4-.29.513.513 0 0 1-.16-.39.678.678 0 0 1 .3-.58 1.331 1.331 0 0 1 .82-.22 2.076 2.076 0 0 1 .59.07 2.518 2.518 0 0 1 .44.16c.13.06.24.11.34.16a.609.609 0 0 0 .28.07.423.423 0 0 0 .2-.05.468.468 0 0 0 .15-.16zm6.97 1.35a2.973 2.973 0 0 1 .73-.66 1.843 1.843 0 0 1 .94-.23 1.391 1.391 0 0 1 .63.13 1.217 1.217 0 0 1 .47.41 2 2 0 0 1 .3.72 4.876 4.876 0 0 1 .1 1.09A4.488 4.488 0 0 1 57.48 8a2.195 2.195 0 0 1-.35.77 1.349 1.349 0 0 1-.55.46 1.687 1.687 0 0 1-.72.15 2.008 2.008 0 0 1-.78-.15 1.787 1.787 0 0 1-.65-.51V5.43zm-.24-1.83a.435.435 0 0 0-.45-.32h-1.09v9.73h1.78v-3a2.426 2.426 0 0 0 1.84.72 2.964 2.964 0 0 0 1.31-.29 3.134 3.134 0 0 0 1-.81 3.86 3.86 0 0 0 .63-1.21 5.008 5.008 0 0 0 .22-1.53 5.875 5.875 0 0 0-.19-1.59 3.7 3.7 0 0 0-.56-1.18 2.49 2.49 0 0 0-.87-.72 2.373 2.373 0 0 0-1.1-.25 2.748 2.748 0 0 0-1.35.31 4.228 4.228 0 0 0-1.03.82zm10.66 5.12a2.637 2.637 0 0 1-.78.6 2.133 2.133 0 0 1-.94.2 1.259 1.259 0 0 1-.73-.2.792.792 0 0 1-.27-.67.727.727 0 0 1 .13-.43 1.077 1.077 0 0 1 .46-.35 3.25 3.25 0 0 1 .84-.25 8.462 8.462 0 0 1 1.29-.13v1.23zM61.1 4.87a.63.63 0 0 0 .21.22.462.462 0 0 0 .31.1.767.767 0 0 0 .4-.1c.11-.07.24-.14.39-.22a2.585 2.585 0 0 1 .5-.23 2.056 2.056 0 0 1 .71-.1 1.168 1.168 0 0 1 .91.35 1.623 1.623 0 0 1 .32 1.1v.42a12.165 12.165 0 0 0-1.49.13 7.242 7.242 0 0 0-1.15.27 4.027 4.027 0 0 0-.83.38 2.632 2.632 0 0 0-.55.48 1.7 1.7 0 0 0-.4 1.08 2.128 2.128 0 0 0 .16.86 1.579 1.579 0 0 0 .45.62 1.877 1.877 0 0 0 .68.38 2.931 2.931 0 0 0 .86.12 3.258 3.258 0 0 0 .72-.07 3.186 3.186 0 0 0 .62-.19 3.415 3.415 0 0 0 .55-.32 5.218 5.218 0 0 0 .54-.44l.16.53a.561.561 0 0 0 .22.3.811.811 0 0 0 .39.08h.8V5.99a3.511 3.511 0 0 0-.18-1.15 2.407 2.407 0 0 0-.54-.9 2.376 2.376 0 0 0-.86-.58 3.036 3.036 0 0 0-1.16-.21 4.4 4.4 0 0 0-3.06 1.15zm13.04-.68a3.644 3.644 0 0 0-1.12-.76 3.792 3.792 0 0 0-1.45-.26 3.833 3.833 0 0 0-1.53.28 3.286 3.286 0 0 0-1.13.79 3.378 3.378 0 0 0-.68 1.2 4.537 4.537 0 0 0-.23 1.5 4.44 4.44 0 0 0 .26 1.6 3.427 3.427 0 0 0 .71 1.19 2.992 2.992 0 0 0 1.06.74 3.254 3.254 0 0 0 1.28.26 5.123 5.123 0 0 0 .78-.06 3.862 3.862 0 0 0 .76-.2 3.506 3.506 0 0 0 .72-.37 3.143 3.143 0 0 0 .64-.58l-.51-.64a.353.353 0 0 0-.32-.16.453.453 0 0 0-.3.1c-.09.07-.2.15-.32.23a2.236 2.236 0 0 1-.44.23 1.842 1.842 0 0 1-.68.1 1.667 1.667 0 0 1-.76-.16 1.548 1.548 0 0 1-.58-.47 2.114 2.114 0 0 1-.36-.77 3.652 3.652 0 0 1-.13-1.04 3.966 3.966 0 0 1 .12-1.02 2.045 2.045 0 0 1 .35-.76 1.5 1.5 0 0 1 .58-.48 1.937 1.937 0 0 1 .82-.17 2.1 2.1 0 0 1 .61.08 2.5 2.5 0 0 1 .43.19c.12.07.22.13.31.19a.56.56 0 0 0 .27.08.38.38 0 0 0 .22-.06.781.781 0 0 0 .15-.16zm1.32-4.2v10.63h1.77V7.26h.4a.711.711 0 0 1 .33.05.52.52 0 0 1 .21.21l1.88 2.78a.505.505 0 0 0 .25.25.8.8 0 0 0 .36.07h1.6L79.8 7.06a3.457 3.457 0 0 0-.22-.31 1.274 1.274 0 0 0-.27-.25 1.865 1.865 0 0 0 .53-.49l2.29-2.73h-1.62a.81.81 0 0 0-.37.08.888.888 0 0 0-.25.23l-1.83 2.25a.517.517 0 0 1-.21.19.756.756 0 0 1-.29.05h-.33V-.01h-1.77zm12.72 4.09a3.139 3.139 0 0 0-1.04-.66 4.035 4.035 0 0 0-2.59-.07 2.441 2.441 0 0 0-.87.49 2.037 2.037 0 0 0-.53.71 2.105 2.105 0 0 0-.18.86 1.921 1.921 0 0 0 .16.83 1.675 1.675 0 0 0 .4.57 2.162 2.162 0 0 0 .59.39 4.161 4.161 0 0 0 .66.27c.23.08.45.15.67.21a4.728 4.728 0 0 1 .58.22 1.3 1.3 0 0 1 .41.29.565.565 0 0 1 .16.42.784.784 0 0 1-.07.33.741.741 0 0 1-.22.28.934.934 0 0 1-.37.2 1.708 1.708 0 0 1-.54.08 2.1 2.1 0 0 1-.67-.1 3.181 3.181 0 0 1-.45-.2c-.13-.07-.24-.14-.34-.2a.62.62 0 0 0-.32-.09.54.54 0 0 0-.27.06.855.855 0 0 0-.19.19l-.4.67a3.1 3.1 0 0 0 .49.36 5.07 5.07 0 0 0 .62.29 4.231 4.231 0 0 0 .7.18 3.64 3.64 0 0 0 .74.07 4.1 4.1 0 0 0 1.27-.18 2.556 2.556 0 0 0 .92-.51 2.068 2.068 0 0 0 .57-.77 2.593 2.593 0 0 0 .19-.98 1.6 1.6 0 0 0-.16-.75 1.682 1.682 0 0 0-.41-.54 2.148 2.148 0 0 0-.57-.37q-.33-.15-.66-.27l-.66-.21a3.912 3.912 0 0 1-.58-.21 1.654 1.654 0 0 1-.41-.29.544.544 0 0 1-.15-.39.678.678 0 0 1 .3-.58 1.331 1.331 0 0 1 .82-.22 2 2 0 0 1 .58.07 2.359 2.359 0 0 1 .45.16c.13.06.24.11.34.16a.6.6 0 0 0 .27.07.434.434 0 0 0 .21-.05.468.468 0 0 0 .15-.16zm7.4 1.4V1.77h1.45a3.182 3.182 0 0 1 .93.12 1.928 1.928 0 0 1 .65.36 1.388 1.388 0 0 1 .39.57 2.056 2.056 0 0 1 .13.76 2.22 2.22 0 0 1-.13.79 1.487 1.487 0 0 1-.39.6 1.765 1.765 0 0 1-.66.38 3.139 3.139 0 0 1-.92.13h-1.45zM93.65.28v10.34h1.93V6.98h1.45a5.6 5.6 0 0 0 1.77-.25 3.65 3.65 0 0 0 1.26-.7 2.921 2.921 0 0 0 .75-1.08 3.592 3.592 0 0 0 .25-1.37 3.539 3.539 0 0 0-.24-1.33 2.659 2.659 0 0 0-.73-1.05 3.447 3.447 0 0 0-1.26-.68 6.036 6.036 0 0 0-1.8-.24h-3.38zm10.21 3.45a.545.545 0 0 0-.15-.35.525.525 0 0 0-.38-.1h-1.04v7.34h1.78V6.1a3.6 3.6 0 0 1 .26-.52 1.755 1.755 0 0 1 .32-.39 1.329 1.329 0 0 1 .41-.25 1.476 1.476 0 0 1 .53-.08 2.934 2.934 0 0 1 .41.03 1.6 1.6 0 0 0 .32.04.244.244 0 0 0 .18-.06.31.31 0 0 0 .11-.18l.11-1.32a1.339 1.339 0 0 0-.81-.22 1.765 1.765 0 0 0-1.13.37 3.244 3.244 0 0 0-.81 1.04zm5.13 2.38a2.14 2.14 0 0 1 .56-1.24 1.649 1.649 0 0 1 1.21-.44 1.666 1.666 0 0 1 .69.14 1.215 1.215 0 0 1 .5.36 1.8 1.8 0 0 1 .29.53 2.269 2.269 0 0 1 .09.65h-3.34zm4.52 1.06a.348.348 0 0 0 .33-.14 1.084 1.084 0 0 0 .09-.54 3.858 3.858 0 0 0-.24-1.41 2.871 2.871 0 0 0-.67-1.04 2.746 2.746 0 0 0-1.01-.65 3.566 3.566 0 0 0-1.29-.22 3.685 3.685 0 0 0-1.48.28 3.181 3.181 0 0 0-1.11.78 3.3 3.3 0 0 0-.7 1.15 3.875 3.875 0 0 0-.25 1.41 4.883 4.883 0 0 0 .28 1.7 3.63 3.63 0 0 0 .77 1.23 3.273 3.273 0 0 0 1.15.75 3.949 3.949 0 0 0 1.43.26 5.488 5.488 0 0 0 .8-.06 4.36 4.36 0 0 0 .81-.2 3.889 3.889 0 0 0 .77-.37 2.99 2.99 0 0 0 .66-.58l-.51-.64a.359.359 0 0 0-.33-.16.635.635 0 0 0-.34.1c-.12.06-.26.14-.41.22a4.192 4.192 0 0 1-.55.22 2.325 2.325 0 0 1-.74.1 2.22 2.22 0 0 1-.79-.13 1.66 1.66 0 0 1-.61-.4 2.18 2.18 0 0 1-.42-.68 3.766 3.766 0 0 1-.2-.98h4.56zm3.66-1.74a3.007 3.007 0 0 1 .74-.66 1.843 1.843 0 0 1 .94-.23 1.451 1.451 0 0 1 .63.13 1.217 1.217 0 0 1 .47.41 2 2 0 0 1 .3.72 5.549 5.549 0 0 1 .1 1.09 4.488 4.488 0 0 1-.12 1.11 2.195 2.195 0 0 1-.35.77 1.417 1.417 0 0 1-.55.46 1.733 1.733 0 0 1-.73.15 1.994 1.994 0 0 1-.77-.15 1.815 1.815 0 0 1-.66-.51V5.43zm-.23-1.83a.446.446 0 0 0-.46-.32h-1.08v9.73h1.77v-3a2.809 2.809 0 0 0 .79.53 2.735 2.735 0 0 0 1.05.19 2.933 2.933 0 0 0 1.31-.29 3.03 3.03 0 0 0 1-.81 3.682 3.682 0 0 0 .64-1.21 5.008 5.008 0 0 0 .22-1.53 5.853 5.853 0 0 0-.2-1.59 3.5 3.5 0 0 0-.56-1.18 2.458 2.458 0 0 0-.86-.72 2.373 2.373 0 0 0-1.1-.25 2.748 2.748 0 0 0-1.35.31 4.047 4.047 0 0 0-1.03.82zm10.66 5.12a2.918 2.918 0 0 1-.78.6 2.147 2.147 0 0 1-.95.2 1.248 1.248 0 0 1-.72-.2.8.8 0 0 1-.28-.67.736.736 0 0 1 .14-.43 1.041 1.041 0 0 1 .45-.35 3.25 3.25 0 0 1 .84-.25 8.471 8.471 0 0 1 1.3-.13v1.23zm-3.75-3.85a.63.63 0 0 0 .21.22.462.462 0 0 0 .31.1.709.709 0 0 0 .39-.1c.12-.07.25-.14.39-.22a2.9 2.9 0 0 1 .5-.23 2.118 2.118 0 0 1 .72-.1 1.168 1.168 0 0 1 .91.35 1.623 1.623 0 0 1 .32 1.1v.42a12.527 12.527 0 0 0-1.5.13 7.1 7.1 0 0 0-1.14.27 3.8 3.8 0 0 0-.83.38 2.4 2.4 0 0 0-.55.48 1.561 1.561 0 0 0-.31.52 1.774 1.774 0 0 0-.09.56 2.128 2.128 0 0 0 .16.86 1.558 1.558 0 0 0 .44.62 1.964 1.964 0 0 0 .68.38 3.049 3.049 0 0 0 .87.12 3.258 3.258 0 0 0 .72-.07 2.9 2.9 0 0 0 .61-.19 3.5 3.5 0 0 0 .56-.32c.17-.13.35-.27.54-.44l.16.53a.478.478 0 0 0 .22.3.8.8 0 0 0 .38.08h.81V5.99a3.266 3.266 0 0 0-.19-1.15 2.525 2.525 0 0 0-.53-.9 2.465 2.465 0 0 0-.86-.58 3.036 3.036 0 0 0-1.16-.21 4.4 4.4 0 0 0-3.06 1.15zm9.41 1.81a1.052 1.052 0 0 1-.41-.25.948.948 0 0 1-.24-.38 1.28 1.28 0 0 1-.09-.48 1.138 1.138 0 0 1 .33-.86 1.376 1.376 0 0 1 .98-.32 1.359 1.359 0 0 1 .98.32 1.138 1.138 0 0 1 .33.86 1.525 1.525 0 0 1-.08.49 1.2 1.2 0 0 1-.25.38 1.218 1.218 0 0 1-.4.24 1.723 1.723 0 0 1-.58.09 1.7 1.7 0 0 1-.57-.09zm2.47 4.66a.879.879 0 0 1-.34.32 2.1 2.1 0 0 1-.6.21 4.224 4.224 0 0 1-.85.07 3.954 3.954 0 0 1-.83-.07 1.766 1.766 0 0 1-.55-.19.793.793 0 0 1-.31-.29.74.74 0 0 1-.09-.36.8.8 0 0 1 .18-.51 1.577 1.577 0 0 1 .48-.39q.33.045.69.06l.69.03a6.123 6.123 0 0 1 .63.06 2.25 2.25 0 0 1 .52.11.9.9 0 0 1 .36.21.5.5 0 0 1 .12.35.756.756 0 0 1-.1.39zm-.25-7.81a2.984 2.984 0 0 0-.76-.28 4.181 4.181 0 0 0-.89-.1 3.985 3.985 0 0 0-1.17.17 2.958 2.958 0 0 0-.92.47 2.153 2.153 0 0 0-.83 1.74 2.054 2.054 0 0 0 .32 1.17 2.277 2.277 0 0 0 .88.8 1.682 1.682 0 0 0-.43.28 1.426 1.426 0 0 0-.29.32 1.456 1.456 0 0 0-.18.35.863.863 0 0 0-.07.34 1.119 1.119 0 0 0 .18.66 1.284 1.284 0 0 0 .46.4 2.025 2.025 0 0 0-.85.55 1.237 1.237 0 0 0-.32.86 1.486 1.486 0 0 0 .2.73 1.994 1.994 0 0 0 .61.62 3.629 3.629 0 0 0 1.03.43 5.688 5.688 0 0 0 1.45.16 4.662 4.662 0 0 0 1.51-.22 3.741 3.741 0 0 0 1.13-.57 2.542 2.542 0 0 0 .69-.82 1.991 1.991 0 0 0 .24-.94 1.683 1.683 0 0 0-.2-.86 1.579 1.579 0 0 0-.54-.52 2.729 2.729 0 0 0-.77-.29 8.3 8.3 0 0 0-.89-.12c-.3-.02-.59-.04-.88-.05a5.855 5.855 0 0 1-.77-.05 1.744 1.744 0 0 1-.54-.15.334.334 0 0 1-.21-.32.593.593 0 0 1 .35-.47 2.629 2.629 0 0 0 .39.06c.14.01.28.02.42.02a3.494 3.494 0 0 0 1.14-.17 2.958 2.958 0 0 0 .92-.47 2.289 2.289 0 0 0 .6-.75 2.109 2.109 0 0 0 .22-.98 2.228 2.228 0 0 0-.15-.83l.66-.12a.393.393 0 0 0 .38-.39v-.66h-2.12zm5.02-.1a3.415 3.415 0 0 0-1.16.75 3.583 3.583 0 0 0-.74 1.19 4.87 4.87 0 0 0 0 3.14 3.583 3.583 0 0 0 .74 1.19 3.3 3.3 0 0 0 1.16.76 4.274 4.274 0 0 0 2.99 0 3.2 3.2 0 0 0 1.88-1.95 4.87 4.87 0 0 0 0-3.14 3.267 3.267 0 0 0-.73-1.19 3.372 3.372 0 0 0-1.15-.75 4.428 4.428 0 0 0-2.99 0zm.12 5.32a3.825 3.825 0 0 1 0-3.6 1.814 1.814 0 0 1 2.74-.01 3.161 3.161 0 0 1 .44 1.81 3.1 3.1 0 0 1-.44 1.8 1.824 1.824 0 0 1-2.74 0z" fill="#fff" fill-rule="evenodd"/></svg><svg width="154.91" height="18.59" viewBox="-1 -1 154.91 18.59" xmlns="http://www.w3.org/2000/svg"><path d="M6.81 9.84H4.75l.51-2.82h2.06zm3.32-4.98l.63-3.38a.8.8 0 0 0-.21-.73A1 1 0 0 0 9.8.46H8.44l-.82 4.4H5.56l.81-4.4H4.98a1.332 1.332 0 0 0-.83.27 1.148 1.148 0 0 0-.45.73l-.64 3.4H2.05a1.605 1.605 0 0 0-.95.22 1.022 1.022 0 0 0-.4.68L.47 7.02h2.29l-.51 2.82H.21l-.16.96a1.34 1.34 0 0 0 .1.93.739.739 0 0 0 .65.27h1.14l-.8 4.42h1.34a1.561 1.561 0 0 0 .88-.25 1.183 1.183 0 0 0 .49-.83l.6-3.34h2.06l-.59 3.19a1.073 1.073 0 0 0-.01.47 1.167 1.167 0 0 0 .18.39.879.879 0 0 0 .31.27.756.756 0 0 0 .39.1H8.2L9.01 12h2.3l.16-.95a1.34 1.34 0 0 0-.1-.93.739.739 0 0 0-.66-.28H9.32l.51-2.82h.92a1.683 1.683 0 0 0 .95-.22 1.077 1.077 0 0 0 .39-.69l.23-1.25h-2.19zm7.78 5.5l1.72-4.86c.1-.26.21-.56.33-.91s.22-.73.32-1.14c.11.41.21.78.33 1.12s.22.65.32.91l1.74 4.88h-4.76zm4.07-9.9h-3.39l-6.26 15.96h2.59a1.067 1.067 0 0 0 .7-.22 1.393 1.393 0 0 0 .39-.5l1.08-3.05h6.39l1.08 3.05a1.28 1.28 0 0 0 .4.52 1.183 1.183 0 0 0 .7.2h2.58zm10 5.36a1.011 1.011 0 0 0-.25-.57.944.944 0 0 0-.64-.17h-1.8v11.34h3.05V9.48a5.532 5.532 0 0 1 .38-.73 2.17 2.17 0 0 1 .46-.53 1.8 1.8 0 0 1 .58-.35 2.088 2.088 0 0 1 .74-.12 4.689 4.689 0 0 1 .62.05 2.852 2.852 0 0 0 .51.05.428.428 0 0 0 .49-.38l.2-2.25a2.088 2.088 0 0 0-1.26-.36 2.6 2.6 0 0 0-1.66.56 5.116 5.116 0 0 0-1.25 1.53zm8.33 0a1.011 1.011 0 0 0-.25-.57.944.944 0 0 0-.64-.17h-1.8v11.34h3.05V9.48a5.532 5.532 0 0 1 .38-.73 2.4 2.4 0 0 1 .46-.53 1.8 1.8 0 0 1 .58-.35 2.127 2.127 0 0 1 .74-.12 4.56 4.56 0 0 1 .62.05 2.852 2.852 0 0 0 .51.05.428.428 0 0 0 .49-.38l.2-2.25a2.088 2.088 0 0 0-1.26-.36 2.6 2.6 0 0 0-1.66.56 5.116 5.116 0 0 0-1.25 1.53zm11.46 7.62a4.063 4.063 0 0 1-1.11.84 2.99 2.99 0 0 1-1.32.27 1.727 1.727 0 0 1-1.03-.27 1.1 1.1 0 0 1-.37-.94 1.114 1.114 0 0 1 .18-.61 1.545 1.545 0 0 1 .62-.5 4.245 4.245 0 0 1 1.18-.36 15.181 15.181 0 0 1 1.85-.19v1.76zM46.1 7.62a1.626 1.626 0 0 0 .36.38.885.885 0 0 0 .54.16 1.316 1.316 0 0 0 .64-.15c.18-.1.38-.2.59-.32a5.85 5.85 0 0 1 .74-.32 3.177 3.177 0 0 1 1.05-.14 1.646 1.646 0 0 1 1.3.5 2.271 2.271 0 0 1 .45 1.56v.59a14.21 14.21 0 0 0-3.25.38 6.907 6.907 0 0 0-2.08.84 3.118 3.118 0 0 0-1.1 1.14 2.8 2.8 0 0 0-.32 1.26 3.519 3.519 0 0 0 .24 1.34 2.661 2.661 0 0 0 .7.97 2.883 2.883 0 0 0 1.06.59 4.531 4.531 0 0 0 1.37.2 6.067 6.067 0 0 0 1.1-.1 4.3 4.3 0 0 0 .92-.29 5.042 5.042 0 0 0 .84-.48c.27-.19.54-.41.83-.66l.25.72a.834.834 0 0 0 .37.51 1.42 1.42 0 0 0 .65.12h1.39V9.29a5.115 5.115 0 0 0-.29-1.78 4.069 4.069 0 0 0-.86-1.4 3.85 3.85 0 0 0-1.36-.92 4.725 4.725 0 0 0-1.82-.33 7.527 7.527 0 0 0-2.63.45 6.7 6.7 0 0 0-2.22 1.34zm13.67-2.01a.738.738 0 0 0-.76-.53h-1.88v11.34h3.05V8.27a4.18 4.18 0 0 1 1.07-.77 2.781 2.781 0 0 1 1.21-.27 1.6 1.6 0 0 1 1.3.52 2.188 2.188 0 0 1 .44 1.47v7.2h3.04v-7.2a5.673 5.673 0 0 0-.25-1.74 3.779 3.779 0 0 0-.74-1.37 3.494 3.494 0 0 0-1.21-.89 4.066 4.066 0 0 0-1.64-.32 4.9 4.9 0 0 0-1.05.11 4.66 4.66 0 0 0-.89.31 4.273 4.273 0 0 0-.79.48 7.789 7.789 0 0 0-.71.6zm18.95.92a5.422 5.422 0 0 0-1.77-1.21 5.761 5.761 0 0 0-2.28-.42 6.074 6.074 0 0 0-2.42.45 5.032 5.032 0 0 0-1.75 1.23 5.184 5.184 0 0 0-1.07 1.84 7.261 7.261 0 0 0-.37 2.31 6.877 6.877 0 0 0 .42 2.49 5.375 5.375 0 0 0 1.12 1.84 4.7 4.7 0 0 0 1.65 1.14 5.068 5.068 0 0 0 1.98.39 8.315 8.315 0 0 0 1.21-.09 5.823 5.823 0 0 0 1.2-.29 5.621 5.621 0 0 0 1.14-.59 4.734 4.734 0 0 0 1.04-.93l-.87-1.1a.684.684 0 0 0-.56-.26.725.725 0 0 0-.33.07 2.381 2.381 0 0 0-.3.18c-.1.08-.21.16-.32.25a3.328 3.328 0 0 1-.39.24 2.98 2.98 0 0 1-.53.18 3.026 3.026 0 0 1-.72.07 2.3 2.3 0 0 1-1.92-.92 4.355 4.355 0 0 1-.7-2.67 6.1 6.1 0 0 1 .16-1.48 3.28 3.28 0 0 1 .49-1.12 2.136 2.136 0 0 1 .84-.71 2.566 2.566 0 0 1 1.18-.25 2.656 2.656 0 0 1 .91.13 3.725 3.725 0 0 1 .63.27c.18.1.33.19.47.28a.813.813 0 0 0 .42.12.667.667 0 0 0 .38-.09.963.963 0 0 0 .26-.27zm7.59 6.91a4.063 4.063 0 0 1-1.11.84 2.99 2.99 0 0 1-1.32.27 1.706 1.706 0 0 1-1.03-.27 1.1 1.1 0 0 1-.37-.94 1.114 1.114 0 0 1 .18-.61 1.545 1.545 0 0 1 .62-.5 4.274 4.274 0 0 1 1.17-.36 15.6 15.6 0 0 1 1.86-.19v1.76zm-5.67-5.82A1.626 1.626 0 0 0 81 8a.865.865 0 0 0 .54.16 1.343 1.343 0 0 0 .64-.15c.18-.1.38-.2.59-.32a5.672 5.672 0 0 1 .73-.32 3.177 3.177 0 0 1 1.05-.14 1.654 1.654 0 0 1 1.31.5 2.271 2.271 0 0 1 .45 1.56v.59a14.21 14.21 0 0 0-3.25.38 6.907 6.907 0 0 0-2.08.84 3.038 3.038 0 0 0-1.1 1.14 2.8 2.8 0 0 0-.32 1.26 3.519 3.519 0 0 0 .24 1.34 2.759 2.759 0 0 0 .69.97 3.011 3.011 0 0 0 1.07.59 4.531 4.531 0 0 0 1.37.2 6.067 6.067 0 0 0 1.1-.1 4.491 4.491 0 0 0 .92-.29 5.042 5.042 0 0 0 .84-.48c.26-.19.54-.41.83-.66l.24.72a.916.916 0 0 0 .37.51 1.438 1.438 0 0 0 .66.12h1.39V9.29a5.116 5.116 0 0 0-.3-1.78 3.9 3.9 0 0 0-.85-1.4 3.942 3.942 0 0 0-1.36-.92 4.725 4.725 0 0 0-1.82-.33 7.527 7.527 0 0 0-2.63.45 6.7 6.7 0 0 0-2.22 1.34zm14.51 6.12V.46h-3.31v15.96h9.51v-2.68h-6.2zm13.76-.3a4.063 4.063 0 0 1-1.11.84 3.051 3.051 0 0 1-1.32.27 1.739 1.739 0 0 1-1.04-.27 1.128 1.128 0 0 1-.37-.94 1.114 1.114 0 0 1 .18-.61 1.618 1.618 0 0 1 .62-.5 4.356 4.356 0 0 1 1.18-.36 15.156 15.156 0 0 1 1.86-.19v1.76zm-5.67-5.82a1.3 1.3 0 0 0 .36.38.836.836 0 0 0 .53.16 1.289 1.289 0 0 0 .64-.15c.19-.1.38-.2.59-.32a5.85 5.85 0 0 1 .74-.32 3.177 3.177 0 0 1 1.05-.14 1.632 1.632 0 0 1 1.3.5 2.27 2.27 0 0 1 .46 1.56v.59a14.3 14.3 0 0 0-3.26.38 7.018 7.018 0 0 0-2.08.84 3.083 3.083 0 0 0-1.09 1.14 2.694 2.694 0 0 0-.33 1.26 3.517 3.517 0 0 0 .25 1.34 2.528 2.528 0 0 0 .69.97 2.966 2.966 0 0 0 1.06.59 4.579 4.579 0 0 0 1.37.2 5.982 5.982 0 0 0 1.1-.1 4.584 4.584 0 0 0 .93-.29 5.39 5.39 0 0 0 .83-.48q.4-.285.84-.66l.24.72a.873.873 0 0 0 .37.51 1.438 1.438 0 0 0 .66.12h1.39V9.29a5.116 5.116 0 0 0-.3-1.78 3.923 3.923 0 0 0-.86-1.4 3.85 3.85 0 0 0-1.36-.92 4.709 4.709 0 0 0-1.81-.33 7.487 7.487 0 0 0-2.63.45 6.7 6.7 0 0 0-2.22 1.34zm19.05 2.51a.551.551 0 0 0 .18.43.676.676 0 0 0 .5.17h1.81v2.69a6.545 6.545 0 0 1-1.22.43 5.551 5.551 0 0 1-1.42.16 5.718 5.718 0 0 1-2.12-.37 4.532 4.532 0 0 1-1.65-1.09 4.989 4.989 0 0 1-1.06-1.76 6.86 6.86 0 0 1-.37-2.35 6.719 6.719 0 0 1 .34-2.22 4.944 4.944 0 0 1 .98-1.69 4.36 4.36 0 0 1 1.54-1.09 5.052 5.052 0 0 1 2.02-.38 8.174 8.174 0 0 1 1.17.07 5.905 5.905 0 0 1 .94.22 5.968 5.968 0 0 1 .81.34c.26.13.52.27.78.43a1.072 1.072 0 0 0 .78.18.92.92 0 0 0 .57-.43l.96-1.47a7.835 7.835 0 0 0-1.1-.85 7.62 7.62 0 0 0-1.34-.67 10.226 10.226 0 0 0-1.59-.44 10.743 10.743 0 0 0-1.86-.16 9.532 9.532 0 0 0-3.47.61 7.6 7.6 0 0 0-2.65 1.68 7.3 7.3 0 0 0-1.68 2.58 8.718 8.718 0 0 0-.59 3.29 8.306 8.306 0 0 0 .62 3.26 7.465 7.465 0 0 0 1.75 2.59 8.2 8.2 0 0 0 2.74 1.7 10.669 10.669 0 0 0 6.52.19 8.4 8.4 0 0 0 2.61-1.3V8.29h-5.5v1.84zm7.85-5.05v11.34h3.05V5.08h-3.05zm3.26-3.94a1.893 1.893 0 0 0-.41-.59 2.08 2.08 0 0 0-.61-.4 2.042 2.042 0 0 0-.75-.14 1.911 1.911 0 0 0-.71.14 1.986 1.986 0 0 0-.59.4 1.866 1.866 0 0 0-.4.59 1.779 1.779 0 0 0 0 1.43 1.986 1.986 0 0 0 .4.59 1.956 1.956 0 0 0 .59.39 1.731 1.731 0 0 0 .71.14 1.856 1.856 0 0 0 .75-.14 2.05 2.05 0 0 0 .61-.39 2.017 2.017 0 0 0 .41-.59 1.678 1.678 0 0 0 0-1.43zm5.09 4.68a1.011 1.011 0 0 0-.25-.57.944.944 0 0 0-.64-.17h-1.8v11.34h3.05V9.48a5.532 5.532 0 0 1 .38-.73 2.4 2.4 0 0 1 .46-.53 1.8 1.8 0 0 1 .58-.35 2.127 2.127 0 0 1 .74-.12 4.56 4.56 0 0 1 .62.05 2.852 2.852 0 0 0 .51.05.428.428 0 0 0 .49-.38l.2-2.25a2.088 2.088 0 0 0-1.26-.36 2.6 2.6 0 0 0-1.66.56 5.116 5.116 0 0 0-1.25 1.53zm11.46 7.62a4.063 4.063 0 0 1-1.11.84 2.99 2.99 0 0 1-1.32.27 1.727 1.727 0 0 1-1.03-.27 1.1 1.1 0 0 1-.37-.94 1.114 1.114 0 0 1 .18-.61 1.545 1.545 0 0 1 .62-.5 4.245 4.245 0 0 1 1.18-.36 15.181 15.181 0 0 1 1.85-.19v1.76zm-5.67-5.82a1.626 1.626 0 0 0 .36.38.885.885 0 0 0 .54.16 1.316 1.316 0 0 0 .64-.15c.18-.1.38-.2.59-.32a5.85 5.85 0 0 1 .74-.32 3.177 3.177 0 0 1 1.05-.14 1.646 1.646 0 0 1 1.3.5 2.271 2.271 0 0 1 .45 1.56v.59a14.21 14.21 0 0 0-3.25.38 6.907 6.907 0 0 0-2.08.84 3.118 3.118 0 0 0-1.1 1.14 2.8 2.8 0 0 0-.32 1.26 3.519 3.519 0 0 0 .24 1.34 2.661 2.661 0 0 0 .7.97 2.883 2.883 0 0 0 1.06.59 4.531 4.531 0 0 0 1.37.2 6.067 6.067 0 0 0 1.1-.1 4.3 4.3 0 0 0 .92-.29 5.042 5.042 0 0 0 .84-.48c.27-.19.54-.41.83-.66l.24.72a.882.882 0 0 0 .38.51 1.42 1.42 0 0 0 .65.12h1.39V9.29a5.115 5.115 0 0 0-.29-1.78 4.069 4.069 0 0 0-.86-1.4 3.85 3.85 0 0 0-1.36-.92 4.725 4.725 0 0 0-1.82-.33 7.527 7.527 0 0 0-2.63.45 6.7 6.7 0 0 0-2.22 1.34z" fill="#fff" fill-rule="evenodd"/></svg><svg width="126.69" height="46.41" viewBox="-1 -1 126.69 46.41" x="154.91" xmlns="http://www.w3.org/2000/svg"><path d="M11.95 3.11V.49H.78v17.72h11.17v-2.64H4.09v-5.01h6.2V8.03h-6.2V3.11h7.86zM22.58 7a5.429 5.429 0 0 0-1.78-1.13 6.213 6.213 0 0 0-2.37-.43 6.4 6.4 0 0 0-2.05.31 4.511 4.511 0 0 0-1.48.84 3.262 3.262 0 0 0-.9 1.22 3.654 3.654 0 0 0-.31 1.47 3.427 3.427 0 0 0 .27 1.42 2.96 2.96 0 0 0 .7.99 4.012 4.012 0 0 0 .99.67 11.308 11.308 0 0 0 1.14.46q.57.2 1.14.36a6.633 6.633 0 0 1 .99.37 2.352 2.352 0 0 1 .7.49 1.043 1.043 0 0 1 .26.72 1.388 1.388 0 0 1-.12.57 1.225 1.225 0 0 1-.36.49 1.84 1.84 0 0 1-.64.33 2.86 2.86 0 0 1-.93.13 3.34 3.34 0 0 1-1.13-.16 4.791 4.791 0 0 1-.78-.34c-.22-.12-.41-.24-.58-.34a.94.94 0 0 0-.53-.16.862.862 0 0 0-.47.11.977.977 0 0 0-.32.32l-.69 1.15a5.145 5.145 0 0 0 .85.61 6.342 6.342 0 0 0 1.05.49 7.733 7.733 0 0 0 1.19.33 7.5 7.5 0 0 0 1.27.11 6.826 6.826 0 0 0 2.16-.31 4.571 4.571 0 0 0 1.57-.87 3.6 3.6 0 0 0 .97-1.32 4.372 4.372 0 0 0 .32-1.68 3 3 0 0 0-.26-1.29 3.079 3.079 0 0 0-.7-.93 3.914 3.914 0 0 0-.99-.64c-.37-.16-.74-.31-1.12-.44s-.75-.25-1.12-.36a6.611 6.611 0 0 1-.99-.38 2.332 2.332 0 0 1-.69-.48.943.943 0 0 1-.27-.68 1.171 1.171 0 0 1 .51-.99 2.259 2.259 0 0 1 1.4-.38 3.651 3.651 0 0 1 1 .12 6.092 6.092 0 0 1 .76.27c.22.11.41.2.58.28a1.057 1.057 0 0 0 .47.12.592.592 0 0 0 .34-.08.751.751 0 0 0 .26-.27zm8.37 11.12a4.661 4.661 0 0 0 1.52-.83l-.9-1.47a.925.925 0 0 0-.19-.2.307.307 0 0 0-.22-.07.4.4 0 0 0-.22.07l-.25.14c-.09.04-.2.09-.33.14a1.58 1.58 0 0 1-.47.06.984.984 0 0 1-.79-.33 1.352 1.352 0 0 1-.29-.92V7.9h3.36V5.75h-3.36V1.79h-1.57a.7.7 0 0 0-.44.14.666.666 0 0 0-.23.38l-.64 3.43-2.02.33v1.2a.612.612 0 0 0 .17.47.581.581 0 0 0 .42.16h1.28v7.02a3.6 3.6 0 0 0 .88 2.56 3.316 3.316 0 0 0 2.52.92 5.556 5.556 0 0 0 1.77-.28zm9.79-3.16a4.513 4.513 0 0 1-1.33 1.02 3.508 3.508 0 0 1-1.61.34 2.035 2.035 0 0 1-1.23-.34 1.329 1.329 0 0 1-.47-1.14 1.351 1.351 0 0 1 .23-.75 1.882 1.882 0 0 1 .77-.6 5.965 5.965 0 0 1 1.44-.42 16.4 16.4 0 0 1 2.2-.23v2.12zm-6.39-6.6a1.568 1.568 0 0 0 .35.38.891.891 0 0 0 .54.17 1.361 1.361 0 0 0 .67-.17c.2-.12.42-.25.67-.39a5.651 5.651 0 0 1 .85-.39 3.812 3.812 0 0 1 1.22-.17 1.988 1.988 0 0 1 1.55.61 2.747 2.747 0 0 1 .54 1.87V11a20.391 20.391 0 0 0-2.55.22 12.2 12.2 0 0 0-1.95.46 5.785 5.785 0 0 0-1.41.66 4.016 4.016 0 0 0-.94.81 2.575 2.575 0 0 0-.52.9 2.83 2.83 0 0 0-.16.95 3.794 3.794 0 0 0 .27 1.48 2.824 2.824 0 0 0 .76 1.06 3.207 3.207 0 0 0 1.16.65 4.927 4.927 0 0 0 1.47.21 6.616 6.616 0 0 0 1.23-.11 5.159 5.159 0 0 0 1.05-.34 5.246 5.246 0 0 0 .94-.55 8.5 8.5 0 0 0 .93-.75l.27.91a.936.936 0 0 0 .37.52 1.484 1.484 0 0 0 .66.13h1.37v-7.94a5.84 5.84 0 0 0-.31-1.96 4.31 4.31 0 0 0-.91-1.54 4.126 4.126 0 0 0-1.47-1 5.123 5.123 0 0 0-1.97-.37 7.459 7.459 0 0 0-5.22 1.99zM40.04.3a1.318 1.318 0 0 0-.73.16 1.394 1.394 0 0 0-.43.49l-1.74 2.97h1.81a1.457 1.457 0 0 0 .56-.09 1.4 1.4 0 0 0 .45-.34L42.98.3h-2.94zm9.12 5.89a.745.745 0 0 0-.77-.55h-1.85v12.57h3.02V9.12a5.305 5.305 0 0 1 1.3-.97 3.133 3.133 0 0 1 1.47-.36 1.96 1.96 0 0 1 1.6.63 2.675 2.675 0 0 1 .53 1.79v8h3.03v-8a6.163 6.163 0 0 0-.28-1.93 4.137 4.137 0 0 0-.81-1.51 3.551 3.551 0 0 0-1.33-.98 4.544 4.544 0 0 0-1.82-.35 4.967 4.967 0 0 0-3.08 1.04 7.564 7.564 0 0 0-.8.7zm21.92 11.93a4.766 4.766 0 0 0 1.52-.83l-.91-1.47a.72.72 0 0 0-.18-.2.323.323 0 0 0-.22-.07.381.381 0 0 0-.22.07l-.25.14c-.1.04-.21.09-.33.14a1.627 1.627 0 0 1-.47.06.984.984 0 0 1-.79-.33 1.3 1.3 0 0 1-.29-.92V7.9h3.35V5.75h-3.35V1.79h-1.57a.682.682 0 0 0-.44.14.618.618 0 0 0-.23.38l-.64 3.43-2.02.33v1.2a.612.612 0 0 0 .17.47.565.565 0 0 0 .42.16h1.28v7.02a3.554 3.554 0 0 0 .88 2.56 3.316 3.316 0 0 0 2.52.92 5.556 5.556 0 0 0 1.77-.28zm6.05-12.23a5.768 5.768 0 0 0-1.96 1.29 5.539 5.539 0 0 0-1.26 2.03 8.265 8.265 0 0 0 0 5.38 5.707 5.707 0 0 0 1.26 2.05 5.649 5.649 0 0 0 1.96 1.3 7.478 7.478 0 0 0 5.11 0 5.744 5.744 0 0 0 1.96-1.3 5.828 5.828 0 0 0 1.25-2.05 8.443 8.443 0 0 0 0-5.38 5.654 5.654 0 0 0-1.25-2.03 5.867 5.867 0 0 0-1.96-1.29 7.478 7.478 0 0 0-5.11 0zm.21 9.11a5.2 5.2 0 0 1-.77-3.08 5.257 5.257 0 0 1 .77-3.09 3.1 3.1 0 0 1 4.68-.01 5.375 5.375 0 0 1 .75 3.1 5.3 5.3 0 0 1-.75 3.09 3.123 3.123 0 0 1-4.68-.01zm18.76-.52a4.95 4.95 0 0 1-1.25 1.12 3.122 3.122 0 0 1-1.61.39 2.423 2.423 0 0 1-1.06-.22 1.906 1.906 0 0 1-.81-.69 3.794 3.794 0 0 1-.51-1.25 8.341 8.341 0 0 1-.18-1.87 7.468 7.468 0 0 1 .21-1.89 3.8 3.8 0 0 1 .6-1.33 2.694 2.694 0 0 1 .94-.78 2.924 2.924 0 0 1 1.24-.25 3.359 3.359 0 0 1 1.31.25 3.146 3.146 0 0 1 1.12.89v5.63zM96.1 0v6.63a4.609 4.609 0 0 0-1.34-.89 4.284 4.284 0 0 0-1.8-.34 4.94 4.94 0 0 0-2.23.5 5.029 5.029 0 0 0-1.7 1.38 6.156 6.156 0 0 0-1.09 2.08 8.383 8.383 0 0 0-.38 2.6 9.923 9.923 0 0 0 .34 2.74 6.006 6.006 0 0 0 .95 2.02 4.122 4.122 0 0 0 3.36 1.67 4.71 4.71 0 0 0 2.3-.54 6.392 6.392 0 0 0 1.75-1.41l.25 1.21a.72.72 0 0 0 .76.56h1.85V0H96.1zm9.01 5.89a5.56 5.56 0 0 0-3.23 3.32 8.443 8.443 0 0 0 0 5.38 5.87 5.87 0 0 0 1.27 2.05 5.558 5.558 0 0 0 1.96 1.3 6.985 6.985 0 0 0 2.56.45 6.877 6.877 0 0 0 2.54-.45 5.558 5.558 0 0 0 1.96-1.3 5.707 5.707 0 0 0 1.26-2.05 8.443 8.443 0 0 0 0-5.38 5.539 5.539 0 0 0-1.26-2.03 5.673 5.673 0 0 0-1.96-1.29 6.877 6.877 0 0 0-2.54-.45 6.985 6.985 0 0 0-2.56.45zm.2 9.11a5.205 5.205 0 0 1-.76-3.08 5.261 5.261 0 0 1 .76-3.09 2.693 2.693 0 0 1 2.36-1.07 2.636 2.636 0 0 1 2.32 1.06 5.3 5.3 0 0 1 .76 3.1 5.218 5.218 0 0 1-.76 3.09 2.654 2.654 0 0 1-2.32 1.05 2.711 2.711 0 0 1-2.36-1.06zm19.23-8a5.326 5.326 0 0 0-1.78-1.13 6.161 6.161 0 0 0-2.36-.43 6.358 6.358 0 0 0-2.05.31 4.411 4.411 0 0 0-1.48.84 3.262 3.262 0 0 0-.9 1.22 3.494 3.494 0 0 0-.31 1.47 3.6 3.6 0 0 0 .26 1.42 3.109 3.109 0 0 0 .7.99 4.012 4.012 0 0 0 .99.67 11.308 11.308 0 0 0 1.14.46q.585.2 1.14.36a6.633 6.633 0 0 1 .99.37 2.229 2.229 0 0 1 .7.49 1 1 0 0 1 .27.72 1.388 1.388 0 0 1-.12.57 1.251 1.251 0 0 1-.37.49 1.84 1.84 0 0 1-.64.33 2.757 2.757 0 0 1-.92.13 3.263 3.263 0 0 1-1.13-.16 4.791 4.791 0 0 1-.78-.34c-.22-.12-.42-.24-.58-.34a.972.972 0 0 0-.54-.16.827.827 0 0 0-.46.11.977.977 0 0 0-.32.32l-.7 1.15a5.605 5.605 0 0 0 .85.61 6.86 6.86 0 0 0 1.06.49 6.72 6.72 0 0 0 2.45.44 6.74 6.74 0 0 0 2.16-.31 4.62 4.62 0 0 0 1.58-.87 3.684 3.684 0 0 0 .96-1.32 4.2 4.2 0 0 0 .33-1.68 2.856 2.856 0 0 0-.27-1.29 2.924 2.924 0 0 0-.7-.93 4.04 4.04 0 0 0-.98-.64c-.37-.16-.74-.31-1.12-.44s-.76-.25-1.12-.36a6.611 6.611 0 0 1-.99-.38 2.531 2.531 0 0 1-.7-.48.978.978 0 0 1-.26-.68 1.171 1.171 0 0 1 .51-.99 2.24 2.24 0 0 1 1.4-.38 3.7 3.7 0 0 1 1 .12 5.407 5.407 0 0 1 .75.27c.22.11.42.2.58.28a1.126 1.126 0 0 0 .47.12.627.627 0 0 0 .35-.08.735.735 0 0 0 .25-.27zM.4 31.64v12.57h3.04V31.64H.4zm3.3-4.42a2.117 2.117 0 0 0-.42-.62 2.158 2.158 0 0 0-.62-.41 1.944 1.944 0 0 0-.76-.15 1.847 1.847 0 0 0-.74.15 1.871 1.871 0 0 0-.61.41 1.916 1.916 0 0 0-.41.62 1.9 1.9 0 0 0-.15.75 1.813 1.813 0 0 0 .15.74 1.938 1.938 0 0 0 .41.6 1.871 1.871 0 0 0 .61.41 1.847 1.847 0 0 0 .74.15 1.944 1.944 0 0 0 .76-.15 1.975 1.975 0 0 0 1.04-1.01 1.819 1.819 0 0 0 .16-.74 1.9 1.9 0 0 0-.16-.75zm5.45 4.97a.738.738 0 0 0-.77-.55H6.53v12.57h3.02v-9.09a5.305 5.305 0 0 1 1.3-.97 3.133 3.133 0 0 1 1.47-.36 1.981 1.981 0 0 1 1.61.63 2.728 2.728 0 0 1 .52 1.79v8h3.03v-8a6.163 6.163 0 0 0-.28-1.93 4.137 4.137 0 0 0-.81-1.51 3.515 3.515 0 0 0-1.32-.98 4.594 4.594 0 0 0-1.83-.35 4.905 4.905 0 0 0-1.18.13 5.026 5.026 0 0 0-1.9.91 7.564 7.564 0 0 0-.8.7zm19.86-.55a.855.855 0 0 0-.53.16.811.811 0 0 0-.31.4l-2.47 6.71c-.14.4-.26.78-.36 1.16s-.18.75-.27 1.12c-.07-.37-.16-.75-.25-1.12s-.22-.76-.35-1.16l-2.42-6.71a.74.74 0 0 0-.3-.4.937.937 0 0 0-.57-.16h-2.5l4.99 12.57h2.74l4.99-12.57h-2.39zm4.09 0v12.57h3.04V31.64H33.1zm3.29-4.42a1.791 1.791 0 0 0-.42-.62 2.03 2.03 0 0 0-.62-.41 1.944 1.944 0 0 0-.76-.15 1.847 1.847 0 0 0-.74.15 1.885 1.885 0 0 0-1.02 1.03 1.9 1.9 0 0 0-.15.75 1.813 1.813 0 0 0 .15.74 1.937 1.937 0 0 0 1.02 1.01 1.847 1.847 0 0 0 .74.15 1.944 1.944 0 0 0 .76-.15 2.03 2.03 0 0 0 .62-.41 1.808 1.808 0 0 0 .42-.6 1.669 1.669 0 0 0 .16-.74 1.743 1.743 0 0 0-.16-.75zm8.8 16.9a4.766 4.766 0 0 0 1.52-.83l-.91-1.47a.919.919 0 0 0-.18-.2.323.323 0 0 0-.22-.07.36.36 0 0 0-.22.07c-.08.04-.16.09-.25.14s-.21.09-.34.14a1.535 1.535 0 0 1-.47.06 1 1 0 0 1-.79-.33 1.352 1.352 0 0 1-.29-.92V33.9h3.36v-2.15h-3.36v-3.96h-1.56a.682.682 0 0 0-.44.14.63.63 0 0 0-.24.38l-.63 3.43-2.03.33v1.2a.582.582 0 0 0 .18.47.558.558 0 0 0 .41.16h1.29v7.02a3.594 3.594 0 0 0 .87 2.56 3.346 3.346 0 0 0 2.52.92 5.618 5.618 0 0 0 1.78-.28zm9.79-3.16a4.784 4.784 0 0 1-1.33 1.02 3.537 3.537 0 0 1-1.61.34 2.067 2.067 0 0 1-1.24-.34 1.329 1.329 0 0 1-.47-1.14 1.287 1.287 0 0 1 .24-.75 1.817 1.817 0 0 1 .77-.6 5.87 5.87 0 0 1 1.43-.42 16.568 16.568 0 0 1 2.21-.23v2.12zm-6.4-6.6a1.434 1.434 0 0 0 .36.38.85.85 0 0 0 .54.17 1.351 1.351 0 0 0 .66-.17c.2-.12.43-.25.67-.39a6.151 6.151 0 0 1 .85-.39 3.856 3.856 0 0 1 1.22-.17 2 2 0 0 1 1.56.61 2.747 2.747 0 0 1 .54 1.87V37a20.055 20.055 0 0 0-2.55.22 12.084 12.084 0 0 0-1.96.46 5.785 5.785 0 0 0-1.41.66 4.231 4.231 0 0 0-.94.81 2.74 2.74 0 0 0-.52.9 3.1 3.1 0 0 0-.16.95 3.794 3.794 0 0 0 .27 1.48 2.824 2.824 0 0 0 .76 1.06 3.338 3.338 0 0 0 1.17.65 4.833 4.833 0 0 0 1.47.21 6.779 6.779 0 0 0 1.23-.11 4.876 4.876 0 0 0 1.04-.34 5.7 5.7 0 0 0 .95-.55 9.563 9.563 0 0 0 .93-.75l.27.91a.927.927 0 0 0 .36.52 1.5 1.5 0 0 0 .67.13h1.37v-7.94a6.1 6.1 0 0 0-.31-1.96 4.331 4.331 0 0 0-.92-1.54 4.126 4.126 0 0 0-1.47-1 5.087 5.087 0 0 0-1.97-.37 7.493 7.493 0 0 0-5.22 1.99zm20.08 6.12a4.787 4.787 0 0 1-1.25 1.12 3.122 3.122 0 0 1-1.61.39 2.454 2.454 0 0 1-1.06-.22 1.906 1.906 0 0 1-.81-.69 3.794 3.794 0 0 1-.51-1.25 8.341 8.341 0 0 1-.18-1.87 7.468 7.468 0 0 1 .21-1.89 3.8 3.8 0 0 1 .6-1.33 2.639 2.639 0 0 1 .95-.78 2.878 2.878 0 0 1 1.23-.25 3.359 3.359 0 0 1 1.31.25 3.063 3.063 0 0 1 1.12.89v5.63zm0-14.48v6.63a4.479 4.479 0 0 0-1.34-.89 4.221 4.221 0 0 0-1.8-.34 4.97 4.97 0 0 0-2.23.5 5.029 5.029 0 0 0-1.7 1.38 6.338 6.338 0 0 0-1.09 2.08 8.69 8.69 0 0 0-.38 2.6 9.923 9.923 0 0 0 .34 2.74 6.006 6.006 0 0 0 .95 2.02 4.257 4.257 0 0 0 1.48 1.24 4.1 4.1 0 0 0 1.89.43 4.67 4.67 0 0 0 2.29-.54 6.392 6.392 0 0 0 1.75-1.41l.26 1.21a.707.707 0 0 0 .76.56h1.84V26h-3.02zm9.01 5.89a5.509 5.509 0 0 0-3.22 3.32 8.265 8.265 0 0 0 0 5.38 6 6 0 0 0 1.26 2.05 5.649 5.649 0 0 0 1.96 1.3 7.039 7.039 0 0 0 2.57.45 6.915 6.915 0 0 0 2.54-.45 5.744 5.744 0 0 0 1.96-1.3 5.828 5.828 0 0 0 1.25-2.05 8.443 8.443 0 0 0 0-5.38 5.654 5.654 0 0 0-1.25-2.03 5.867 5.867 0 0 0-1.96-1.29 6.915 6.915 0 0 0-2.54-.45 7.039 7.039 0 0 0-2.57.45zm.21 9.11a5.2 5.2 0 0 1-.77-3.08 5.257 5.257 0 0 1 .77-3.09 3.1 3.1 0 0 1 4.68-.01 5.375 5.375 0 0 1 .75 3.1 5.3 5.3 0 0 1-.75 3.09 3.123 3.123 0 0 1-4.68-.01zm19.22-8a5.279 5.279 0 0 0-1.77-1.13 6.213 6.213 0 0 0-2.37-.43 6.4 6.4 0 0 0-2.05.31 4.411 4.411 0 0 0-1.48.84 3.262 3.262 0 0 0-.9 1.22 3.494 3.494 0 0 0-.31 1.47 3.427 3.427 0 0 0 .27 1.42 2.936 2.936 0 0 0 .69.99 3.89 3.89 0 0 0 1 .67 11.308 11.308 0 0 0 1.14.46c.38.13.76.25 1.13.36a6.377 6.377 0 0 1 1 .37 2.178 2.178 0 0 1 .69.49 1 1 0 0 1 .27.72 1.388 1.388 0 0 1-.12.57 1.251 1.251 0 0 1-.37.49 1.789 1.789 0 0 1-.63.33 2.86 2.86 0 0 1-.93.13 3.34 3.34 0 0 1-1.13-.16 4.791 4.791 0 0 1-.78-.34c-.22-.12-.41-.24-.58-.34a.964.964 0 0 0-.53-.16.84.84 0 0 0-.47.11.977.977 0 0 0-.32.32l-.7 1.15a5.245 5.245 0 0 0 .86.61 6.342 6.342 0 0 0 1.05.49 7.733 7.733 0 0 0 1.19.33 7.5 7.5 0 0 0 1.27.11 6.826 6.826 0 0 0 2.16-.31 4.571 4.571 0 0 0 1.57-.87 3.461 3.461 0 0 0 .96-1.32 4.2 4.2 0 0 0 .33-1.68 2.856 2.856 0 0 0-.27-1.29 2.9 2.9 0 0 0-.69-.93 3.914 3.914 0 0 0-.99-.64c-.37-.16-.74-.31-1.12-.44s-.75-.25-1.12-.36a6.611 6.611 0 0 1-.99-.38 2.531 2.531 0 0 1-.7-.48.978.978 0 0 1-.26-.68 1.171 1.171 0 0 1 .51-.99 2.259 2.259 0 0 1 1.4-.38 3.651 3.651 0 0 1 1 .12 5.407 5.407 0 0 1 .75.27c.22.11.42.2.59.28a1.057 1.057 0 0 0 .47.12.592.592 0 0 0 .34-.08.751.751 0 0 0 .26-.27zm2.12 10.27a1.77 1.77 0 0 0 .38.58 2.02 2.02 0 0 0 .59.39 1.989 1.989 0 0 0 .74.14 1.886 1.886 0 0 0 .72-.14 2.02 2.02 0 0 0 .59-.39 1.822 1.822 0 0 0 .4-.58 1.827 1.827 0 0 0 0-1.45 1.76 1.76 0 0 0-.4-.59 2.02 2.02 0 0 0-.59-.39 1.719 1.719 0 0 0-.72-.15 1.813 1.813 0 0 0-.74.15 2.02 2.02 0 0 0-.59.39 1.714 1.714 0 0 0-.38.59 1.947 1.947 0 0 0 0 1.45z" fill="#fff" fill-rule="evenodd"/></svg><svg width="143.75" height="99.93" viewBox="-1 -1 143.75 99.93" y="33.78" xmlns="http://www.w3.org/2000/svg"><path d="M7.96 14.692a7.027 7.027 0 0 0-1.24.11 9.631 9.631 0 0 0-1.34.32l3.52-3.594q.7-.725 1.35-1.433a11.243 11.243 0 0 0 1.11-1.464 6.969 6.969 0 0 0 .76-1.593 5.606 5.606 0 0 0 .28-1.82 5.312 5.312 0 0 0-.4-2.1 4.684 4.684 0 0 0-1.15-1.642A5.489 5.489 0 0 0 9.03.399a7.074 7.074 0 0 0-2.4-.387 7.869 7.869 0 0 0-2.31.326 5.49 5.49 0 0 0-3.3 2.651 6.563 6.563 0 0 0-.76 2.337l2.02.357a1.962 1.962 0 0 0 1.2-.1 1.594 1.594 0 0 0 .68-.9 2.325 2.325 0 0 1 .81-1.114A2.288 2.288 0 0 1 6.4 3.12a1.986 1.986 0 0 1 1.56.572 2.345 2.345 0 0 1 .52 1.643 4.957 4.957 0 0 1-.16 1.236 5.3 5.3 0 0 1-.49 1.169 7.5 7.5 0 0 1-.81 1.187c-.33.4-.72.824-1.16 1.267l-5.18 5.2a1.826 1.826 0 0 0-.52.74 2.18 2.18 0 0 0-.15.76v1.23h12.64v-2.21a1.153 1.153 0 0 0-.36-.89 1.344 1.344 0 0 0-.98-.34H7.96zm21.7-3.557a.688.688 0 0 0 .22.529.866.866 0 0 0 .62.209h1.77v2.719a7.89 7.89 0 0 1-1.19.39 5.662 5.662 0 0 1-1.36.15 5.94 5.94 0 0 1-2.23-.4 4.757 4.757 0 0 1-1.72-1.16 5.235 5.235 0 0 1-1.12-1.871 7.609 7.609 0 0 1-.39-2.535 7.206 7.206 0 0 1 .35-2.343 5.281 5.281 0 0 1 1.02-1.8 4.5 4.5 0 0 1 1.6-1.163 5.192 5.192 0 0 1 2.11-.412 9.285 9.285 0 0 1 1.13.062 6.057 6.057 0 0 1 .97.2 5.872 5.872 0 0 1 .89.351q.435.216.93.511a1.305 1.305 0 0 0 .97.221 1.132 1.132 0 0 0 .73-.529l1.21-1.833a8.112 8.112 0 0 0-1.23-.959 8.435 8.435 0 0 0-1.52-.763 10.748 10.748 0 0 0-1.82-.5 11.566 11.566 0 0 0-2.11-.184 10.852 10.852 0 0 0-3.93.677 8.614 8.614 0 0 0-3 1.894 8.345 8.345 0 0 0-1.91 2.9 9.99 9.99 0 0 0-.66 3.684 9.326 9.326 0 0 0 .7 3.648 8.424 8.424 0 0 0 2 2.908 9.308 9.308 0 0 0 3.11 1.91 11.126 11.126 0 0 0 4.04.7 11.385 11.385 0 0 0 3.27-.46 9.406 9.406 0 0 0 2.94-1.46V8.861h-6.39v2.288zM43.05.211h-4.2v17.921h4.2V.212zm12.11 10.924a.688.688 0 0 0 .22.529.883.883 0 0 0 .62.209h1.78v2.719a8.7 8.7 0 0 1-1.19.39 5.808 5.808 0 0 1-1.37.15 5.887 5.887 0 0 1-2.22-.4 4.712 4.712 0 0 1-1.73-1.16 5.235 5.235 0 0 1-1.12-1.871 7.609 7.609 0 0 1-.39-2.535 7.485 7.485 0 0 1 .35-2.343 5.281 5.281 0 0 1 1.02-1.8 4.5 4.5 0 0 1 1.6-1.163 5.192 5.192 0 0 1 2.11-.412 9.285 9.285 0 0 1 1.13.062 6.057 6.057 0 0 1 .97.2 5.872 5.872 0 0 1 .89.351q.435.216.93.511a1.305 1.305 0 0 0 .97.221 1.176 1.176 0 0 0 .74-.529l1.2-1.833a8.112 8.112 0 0 0-1.23-.959 8.435 8.435 0 0 0-1.52-.763 10.493 10.493 0 0 0-1.82-.5 11.487 11.487 0 0 0-2.11-.184 10.852 10.852 0 0 0-3.93.677 8.708 8.708 0 0 0-3 1.894 8.345 8.345 0 0 0-1.91 2.9 9.99 9.99 0 0 0-.66 3.684 9.326 9.326 0 0 0 .7 3.648 8.562 8.562 0 0 0 2 2.908 9.308 9.308 0 0 0 3.11 1.91 11.143 11.143 0 0 0 4.05.7 11.366 11.366 0 0 0 3.26-.46 9.406 9.406 0 0 0 2.94-1.46V8.861h-6.39v2.288zm13.5.147l1.65-4.883a17.688 17.688 0 0 0 .79-2.498q.21.738.42 1.372t.39 1.1l1.67 4.908h-4.92zM73.25.211h-4.27l-6.96 17.921h3.26a1.409 1.409 0 0 0 .87-.27 1.564 1.564 0 0 0 .48-.63l1.07-3.12h6.83l1.06 3.12a1.562 1.562 0 0 0 .51.65 1.383 1.383 0 0 0 .87.25h3.24zm19.34 1.71a5.9 5.9 0 0 0-1.09-.794 8.344 8.344 0 0 0-1.31-.6A8.6 8.6 0 0 0 88.7.146a9.883 9.883 0 0 0-1.61-.129 7.2 7.2 0 0 0-2.63.449 5.989 5.989 0 0 0-1.94 1.2 5.146 5.146 0 0 0-1.19 1.71 5.025 5.025 0 0 0-.41 1.969 5.649 5.649 0 0 0 .35 2.109 4.363 4.363 0 0 0 .9 1.427 4.683 4.683 0 0 0 1.28.923 10.868 10.868 0 0 0 1.47.59q.75.24 1.47.437a8.385 8.385 0 0 1 1.27.455 2.64 2.64 0 0 1 .91.652 1.5 1.5 0 0 1 .35 1.021 1.876 1.876 0 0 1-.63 1.577 2.743 2.743 0 0 1-1.77.5 4.2 4.2 0 0 1-1.45-.23 7.061 7.061 0 0 1-1.1-.52c-.31-.19-.6-.36-.85-.51a1.377 1.377 0 0 0-.74-.24 1.076 1.076 0 0 0-.53.14 1.323 1.323 0 0 0-.39.35l-1.23 1.95a6.549 6.549 0 0 0 1.25.96 9.855 9.855 0 0 0 1.53.74 10.477 10.477 0 0 0 1.68.49 9.177 9.177 0 0 0 1.71.17 7.514 7.514 0 0 0 2.73-.46 5.754 5.754 0 0 0 2.02-1.27 5.5 5.5 0 0 0 1.26-1.89 6.355 6.355 0 0 0 .43-2.322 4.778 4.778 0 0 0-.35-1.913 4.3 4.3 0 0 0-.9-1.347 5.054 5.054 0 0 0-1.29-.911 13.092 13.092 0 0 0-1.47-.621c-.5-.176-.99-.336-1.48-.48a10.024 10.024 0 0 1-1.28-.473 3 3 0 0 1-.9-.616 1.2 1.2 0 0 1-.35-.9 1.7 1.7 0 0 1 .57-1.347 2.636 2.636 0 0 1 1.75-.5 3.827 3.827 0 0 1 1.21.179 6.093 6.093 0 0 1 .94.4c.28.148.52.281.74.4a1.287 1.287 0 0 0 .61.179.889.889 0 0 0 .53-.148 1.772 1.772 0 0 0 .39-.443z" fill="#ffd618" fill-rule="evenodd"/><path d="M11.85 34.742H7.01v-5.06H5.29v5.06H.47v1.6h4.82v5.08h1.72v-5.08h4.84v-1.6zm29.36-8.21a.769.769 0 0 0-.5.16.749.749 0 0 0-.27.38l-3.52 11.79c-.06.2-.11.42-.16.66s-.09.48-.13.74c-.05-.26-.11-.51-.17-.74s-.13-.46-.2-.66l-3.98-11.79a.953.953 0 0 0-.29-.39.784.784 0 0 0-.5-.15h-.66a.75.75 0 0 0-.51.17.958.958 0 0 0-.28.37l-3.99 11.79a5.026 5.026 0 0 0-.2.68c-.06.24-.12.51-.17.78q-.075-.4-.15-.78c-.05-.24-.11-.47-.16-.68l-3.51-11.79a.666.666 0 0 0-.27-.39.865.865 0 0 0-.52-.15h-1.91l5.31 16.95h2.06l4.33-12.93c.04-.13.08-.26.12-.4l.12-.45c.04.15.08.3.11.45s.08.27.12.4l4.3 12.93h2.07l5.3-16.95h-1.79zm5.84-.48h-2.12v17.43h2.12v-8.83a5.83 5.83 0 0 1 1.5-1.21 3.564 3.564 0 0 1 1.75-.45 2.337 2.337 0 0 1 1.9.75 3.236 3.236 0 0 1 .62 2.11v7.63h2.12v-7.63a6.061 6.061 0 0 0-.26-1.86 4.125 4.125 0 0 0-.76-1.44 3.545 3.545 0 0 0-1.26-.92 4.289 4.289 0 0 0-1.74-.32 4.7 4.7 0 0 0-2.16.48 6.569 6.569 0 0 0-1.71 1.3v-7.04zm17.64 14.52a7.649 7.649 0 0 1-.73.68 5.009 5.009 0 0 1-.79.5 3.26 3.26 0 0 1-.87.33 4.091 4.091 0 0 1-1.02.11 2.778 2.778 0 0 1-.78-.1 1.569 1.569 0 0 1-.63-.32 1.618 1.618 0 0 1-.42-.56 2.035 2.035 0 0 1-.15-.82 1.533 1.533 0 0 1 .29-.9 2.3 2.3 0 0 1 .94-.69 6.863 6.863 0 0 1 1.67-.48 17.67 17.67 0 0 1 2.49-.23v2.48zm-6.45-6.71a1 1 0 0 0 .26.28.6.6 0 0 0 .37.11.939.939 0 0 0 .55-.19c.19-.13.41-.28.67-.44a4.826 4.826 0 0 1 .91-.44 3.818 3.818 0 0 1 1.31-.19 2.2 2.2 0 0 1 1.77.71 3.218 3.218 0 0 1 .61 2.11v.94a17.979 17.979 0 0 0-3.47.37 8.483 8.483 0 0 0-2.29.84 3.441 3.441 0 0 0-1.27 1.16 2.666 2.666 0 0 0-.39 1.37 3.411 3.411 0 0 0 .27 1.41 2.7 2.7 0 0 0 .72.99 3.011 3.011 0 0 0 1.07.59 4.39 4.39 0 0 0 1.32.19 5.96 5.96 0 0 0 1.25-.12 5.385 5.385 0 0 0 1.07-.36 4.813 4.813 0 0 0 .94-.57 10.22 10.22 0 0 0 .93-.77l.24 1.14a.689.689 0 0 0 .26.39.888.888 0 0 0 .47.1h.94v-7.67a5.97 5.97 0 0 0-.27-1.84 3.787 3.787 0 0 0-.81-1.43 3.511 3.511 0 0 0-1.32-.93 4.571 4.571 0 0 0-1.79-.33 6.582 6.582 0 0 0-2.55.48 6.788 6.788 0 0 0-2.15 1.43zm16.85 9.52a3.8 3.8 0 0 0 1.32-.8l-.62-1a.334.334 0 0 0-.29-.2.424.424 0 0 0-.22.08c-.08.06-.19.13-.3.2a2.481 2.481 0 0 1-.43.2 1.911 1.911 0 0 1-.57.08 1.29 1.29 0 0 1-.95-.36 1.524 1.524 0 0 1-.37-1.13v-7.19h3.48v-1.53h-3.48v-4.13h-1.07a.477.477 0 0 0-.32.11.5.5 0 0 0-.16.29l-.49 3.71-1.97.25v.84a.446.446 0 0 0 .13.35.5.5 0 0 0 .32.11h1.45v7.34a3.157 3.157 0 0 0 .76 2.28 2.9 2.9 0 0 0 2.19.79 4.308 4.308 0 0 0 1.59-.29zm10.71-10.68a5.12 5.12 0 0 0-1.63-1.02 5.735 5.735 0 0 0-2.13-.37 5.394 5.394 0 0 0-1.82.28 4.047 4.047 0 0 0-1.34.76 3.243 3.243 0 0 0-.83 1.12 3.172 3.172 0 0 0-.29 1.32 2.87 2.87 0 0 0 .27 1.3 2.767 2.767 0 0 0 .71.91 3.991 3.991 0 0 0 1 .61c.38.16.76.3 1.15.43s.78.25 1.15.36a5.9 5.9 0 0 1 1.01.4 2.336 2.336 0 0 1 .7.56 1.246 1.246 0 0 1 .27.82 1.944 1.944 0 0 1-.15.76 1.823 1.823 0 0 1-.46.63 2.275 2.275 0 0 1-.77.43 3.508 3.508 0 0 1-1.08.16 3.833 3.833 0 0 1-1.21-.17 3.936 3.936 0 0 1-.82-.37c-.23-.13-.42-.25-.58-.36a.817.817 0 0 0-.45-.17.644.644 0 0 0-.33.08.881.881 0 0 0-.23.24l-.5.81a6.053 6.053 0 0 0 4.02 1.45 6.043 6.043 0 0 0 1.94-.29 4.412 4.412 0 0 0 1.43-.81 3.378 3.378 0 0 0 .87-1.22 3.881 3.881 0 0 0 .3-1.54 2.6 2.6 0 0 0-.27-1.23 2.5 2.5 0 0 0-.7-.87 4 4 0 0 0-1-.59c-.37-.16-.75-.31-1.14-.44s-.78-.25-1.15-.36a7.18 7.18 0 0 1-1-.4 2.432 2.432 0 0 1-.7-.53 1.131 1.131 0 0 1-.27-.77 1.421 1.421 0 0 1 .16-.68 1.713 1.713 0 0 1 .46-.55 2.28 2.28 0 0 1 .73-.37 3.225 3.225 0 0 1 .96-.14 3.7 3.7 0 0 1 1.07.14 6.178 6.178 0 0 1 .78.29c.22.11.4.21.55.29a.808.808 0 0 0 .4.13.452.452 0 0 0 .44-.26zm9.31 7.87a6.615 6.615 0 0 1-.73.68 4.92 4.92 0 0 1-.78.5 3.26 3.26 0 0 1-.87.33 4.091 4.091 0 0 1-1.02.11 2.778 2.778 0 0 1-.78-.1 1.569 1.569 0 0 1-.63-.32 1.405 1.405 0 0 1-.42-.56 2.035 2.035 0 0 1-.15-.82 1.467 1.467 0 0 1 .29-.9 2.233 2.233 0 0 1 .94-.69 6.731 6.731 0 0 1 1.67-.48 17.66 17.66 0 0 1 2.48-.23v2.48zm-6.44-6.71a1 1 0 0 0 .26.28.58.58 0 0 0 .37.11.939.939 0 0 0 .55-.19c.19-.13.41-.28.67-.44a4.826 4.826 0 0 1 .91-.44 3.818 3.818 0 0 1 1.31-.19 2.2 2.2 0 0 1 1.77.71 3.217 3.217 0 0 1 .6 2.11v.94a17.957 17.957 0 0 0-3.46.37 8.356 8.356 0 0 0-2.29.84 3.364 3.364 0 0 0-1.27 1.16 2.666 2.666 0 0 0-.39 1.37 3.584 3.584 0 0 0 .26 1.41 2.721 2.721 0 0 0 .73.99 3.011 3.011 0 0 0 1.07.59 4.344 4.344 0 0 0 1.32.19 5.96 5.96 0 0 0 1.25-.12 5.086 5.086 0 0 0 1.06-.36 4.6 4.6 0 0 0 .95-.57 11.8 11.8 0 0 0 .93-.77l.24 1.14a.689.689 0 0 0 .26.39.888.888 0 0 0 .47.1h.94v-7.67a5.97 5.97 0 0 0-.27-1.84 3.926 3.926 0 0 0-.81-1.43 3.676 3.676 0 0 0-1.32-.93 4.571 4.571 0 0 0-1.79-.33 6.582 6.582 0 0 0-2.55.48 6.788 6.788 0 0 0-2.15 1.43zm13.85.94a5.133 5.133 0 0 1 1.43-1.34 3.37 3.37 0 0 1 1.81-.47 3.3 3.3 0 0 1 1.29.24 2.352 2.352 0 0 1 .96.79 3.651 3.651 0 0 1 .6 1.38 8.381 8.381 0 0 1 .21 2.01 5.582 5.582 0 0 1-.9 3.41 3.037 3.037 0 0 1-2.59 1.2 3.657 3.657 0 0 1-1.54-.32 3.489 3.489 0 0 1-1.27-1.1v-5.8zm-.3-2.87a.508.508 0 0 0-.55-.43h-1.27v16.04h2.12v-5.3a4.114 4.114 0 0 0 3.29 1.41 4.777 4.777 0 0 0 3.81-1.79 6.008 6.008 0 0 0 1.03-1.98 8.147 8.147 0 0 0 .36-2.47 9.626 9.626 0 0 0-.33-2.64 5.522 5.522 0 0 0-.91-1.92 3.741 3.741 0 0 0-1.43-1.17 4.356 4.356 0 0 0-1.89-.4 4.487 4.487 0 0 0-2.28.57 6.276 6.276 0 0 0-1.76 1.5zm13.6 2.87a5.273 5.273 0 0 1 1.43-1.34 3.37 3.37 0 0 1 1.81-.47 3.312 3.312 0 0 1 1.3.24 2.352 2.352 0 0 1 .96.79 4 4 0 0 1 .6 1.38 8.424 8.424 0 0 1 .2 2.01 5.582 5.582 0 0 1-.9 3.41 3.031 3.031 0 0 1-2.58 1.2 3.7 3.7 0 0 1-1.55-.32 3.489 3.489 0 0 1-1.27-1.1v-5.8zm-.29-2.87a.518.518 0 0 0-.56-.43h-1.27v16.04h2.12v-5.3a4.566 4.566 0 0 0 1.4 1.04 4.484 4.484 0 0 0 1.89.37 4.849 4.849 0 0 0 2.18-.48 4.979 4.979 0 0 0 1.64-1.31 5.99 5.99 0 0 0 1.02-1.98 8.147 8.147 0 0 0 .36-2.47 10.048 10.048 0 0 0-.32-2.64 5.716 5.716 0 0 0-.92-1.92 3.741 3.741 0 0 0-1.43-1.17 4.3 4.3 0 0 0-1.89-.4 4.54 4.54 0 0 0-2.28.57 6.237 6.237 0 0 0-1.75 1.5zM4.01 63.052a2.315 2.315 0 0 1-.82-.5 2.212 2.212 0 0 1-.51-.76 2.8 2.8 0 0 1-.17-.98 2.351 2.351 0 0 1 .67-1.75 3.25 3.25 0 0 1 3.9 0 2.351 2.351 0 0 1 .67 1.75 2.8 2.8 0 0 1-.17.98 2.056 2.056 0 0 1-.5.76 2.315 2.315 0 0 1-.82.5 3.606 3.606 0 0 1-2.25 0zm4.69 7.55a2.223 2.223 0 0 1-.72.67 3.885 3.885 0 0 1-1.15.44 7.083 7.083 0 0 1-1.53.15 7.5 7.5 0 0 1-1.52-.14 3.75 3.75 0 0 1-1.08-.41 1.824 1.824 0 0 1-.63-.6 1.416 1.416 0 0 1-.21-.75 1.61 1.61 0 0 1 .42-1.1 3.189 3.189 0 0 1 1.09-.77q.585.075 1.23.12c.43.02.85.04 1.26.07s.81.06 1.19.1a3.746 3.746 0 0 1 .97.22 1.644 1.644 0 0 1 .68.42 1.035 1.035 0 0 1 .24.71 1.627 1.627 0 0 1-.24.87zm-.87-13.03a4.415 4.415 0 0 0-1.24-.5 5.592 5.592 0 0 0-1.45-.18 5.967 5.967 0 0 0-1.84.28 4.313 4.313 0 0 0-1.44.77 3.51 3.51 0 0 0-.94 1.22 3.629 3.629 0 0 0-.34 1.59 3.536 3.536 0 0 0 .5 1.91 3.652 3.652 0 0 0 1.38 1.32 3.161 3.161 0 0 0-.66.44 2.952 2.952 0 0 0-.48.53 2.09 2.09 0 0 0-.29.55 1.823 1.823 0 0 0-.1.54 1.664 1.664 0 0 0 .32 1.07 2.149 2.149 0 0 0 .85.64 3.783 3.783 0 0 0-1.53.98 2.118 2.118 0 0 0-.56 1.5 2.451 2.451 0 0 0 .32 1.2 3.128 3.128 0 0 0 .98 1.01 5.4 5.4 0 0 0 1.64.7 9.278 9.278 0 0 0 2.3.26 7.578 7.578 0 0 0 2.37-.34 5.617 5.617 0 0 0 1.78-.9 4.057 4.057 0 0 0 1.11-1.28 3.2 3.2 0 0 0 .38-1.49 2.263 2.263 0 0 0-1.27-2.17 4.84 4.84 0 0 0-1.3-.42 11.9 11.9 0 0 0-1.49-.18c-.51-.04-1.01-.07-1.5-.08a11.343 11.343 0 0 1-1.3-.12 2.543 2.543 0 0 1-.92-.31.726.726 0 0 1-.35-.65.927.927 0 0 1 .2-.54 2.463 2.463 0 0 1 .58-.5 6.317 6.317 0 0 0 1.6.2 5.8 5.8 0 0 0 1.8-.27 4.064 4.064 0 0 0 1.42-.78 3.519 3.519 0 0 0 .93-1.23 3.568 3.568 0 0 0 .34-1.59 3.7 3.7 0 0 0-.4-1.73l1.36-.17a.511.511 0 0 0 .5-.5v-.78H7.83zm7.32.11a.728.728 0 0 0-.18-.45.629.629 0 0 0-.47-.13h-1.21v11.98h2.12v-7.57a6.612 6.612 0 0 1 .51-1.1 3.379 3.379 0 0 1 .63-.8 2.234 2.234 0 0 1 .79-.49 2.947 2.947 0 0 1 1.02-.17 3.906 3.906 0 0 1 .72.07 2.314 2.314 0 0 0 .49.08.337.337 0 0 0 .35-.3l.16-1.57a1.863 1.863 0 0 0-.63-.26 2.863 2.863 0 0 0-.73-.09 3.082 3.082 0 0 0-2.03.69 5.569 5.569 0 0 0-1.4 1.93zm13.1 8.49a6.615 6.615 0 0 1-.73.68 5.42 5.42 0 0 1-.78.5 3.26 3.26 0 0 1-.87.33 4.091 4.091 0 0 1-1.02.11 2.778 2.778 0 0 1-.78-.1 1.569 1.569 0 0 1-.63-.32 1.405 1.405 0 0 1-.42-.56 2.035 2.035 0 0 1-.15-.82 1.467 1.467 0 0 1 .29-.9 2.26 2.26 0 0 1 .93-.69 6.822 6.822 0 0 1 1.68-.48 17.66 17.66 0 0 1 2.48-.23v2.48zm-6.44-6.71a1 1 0 0 0 .26.28.58.58 0 0 0 .37.11.962.962 0 0 0 .55-.19c.19-.13.41-.28.66-.44a5.26 5.26 0 0 1 .92-.44 3.818 3.818 0 0 1 1.31-.19 2.225 2.225 0 0 1 1.77.71 3.217 3.217 0 0 1 .6 2.11v.94a17.866 17.866 0 0 0-3.46.37 8.356 8.356 0 0 0-2.29.84 3.364 3.364 0 0 0-1.27 1.16 2.666 2.666 0 0 0-.39 1.37 3.413 3.413 0 0 0 .26 1.41 2.721 2.721 0 0 0 .73.99 3.011 3.011 0 0 0 1.07.59 4.344 4.344 0 0 0 1.32.19 6.028 6.028 0 0 0 1.25-.12 5.086 5.086 0 0 0 1.06-.36 4.884 4.884 0 0 0 .95-.57 11.8 11.8 0 0 0 .93-.77l.23 1.14a.7.7 0 0 0 .27.39.865.865 0 0 0 .47.1h.94v-7.67a5.682 5.682 0 0 0-.28-1.84 3.908 3.908 0 0 0-.8-1.43 3.676 3.676 0 0 0-1.32-.93 4.571 4.571 0 0 0-1.79-.33 6.511 6.511 0 0 0-2.55.48 6.679 6.679 0 0 0-2.15 1.43zm22.73-2.13h-8.31v-4.13h-1.07a.524.524 0 0 0-.33.11.638.638 0 0 0-.16.29l-.48 3.7-1.97.26v.84a.446.446 0 0 0 .13.35.477.477 0 0 0 .32.11h1.45v7.34a3.157 3.157 0 0 0 .76 2.28 2.9 2.9 0 0 0 2.19.79 4.308 4.308 0 0 0 1.59-.29 3.891 3.891 0 0 0 1.32-.8l-.62-1a.347.347 0 0 0-.3-.2.494.494 0 0 0-.22.08 3.107 3.107 0 0 1-.3.2 2.748 2.748 0 0 1-.42.2 1.911 1.911 0 0 1-.57.08 1.29 1.29 0 0 1-.95-.36 1.524 1.524 0 0 1-.37-1.13v-7.19h6.19v10.22h2.12v-11.75zm.39-4.67a1.6 1.6 0 0 0-.81-.81 1.435 1.435 0 0 0-.58-.12 1.4 1.4 0 0 0-.58.12 1.538 1.538 0 0 0-.47.33 1.751 1.751 0 0 0-.32.48 1.474 1.474 0 0 0-.11.59 1.349 1.349 0 0 0 .11.57 1.564 1.564 0 0 0 .32.47 1.508 1.508 0 0 0 .47.32 1.4 1.4 0 0 0 .58.12 1.435 1.435 0 0 0 .58-.12 1.552 1.552 0 0 0 .48-.32 1.427 1.427 0 0 0 .33-.47 1.224 1.224 0 0 0 .13-.57 1.337 1.337 0 0 0-.13-.59zm10.55 5.64a5.233 5.233 0 0 0-1.63-1.02 5.735 5.735 0 0 0-2.13-.37 5.354 5.354 0 0 0-1.82.28 4.047 4.047 0 0 0-1.34.76 3.122 3.122 0 0 0-.83 1.12 3.172 3.172 0 0 0-.29 1.32 2.87 2.87 0 0 0 .27 1.3 2.767 2.767 0 0 0 .71.91 3.991 3.991 0 0 0 1 .61c.37.16.76.3 1.15.43s.78.25 1.15.36a5.48 5.48 0 0 1 1 .4 2.263 2.263 0 0 1 .71.56 1.246 1.246 0 0 1 .27.82 1.944 1.944 0 0 1-.15.76 1.823 1.823 0 0 1-.46.63 2.275 2.275 0 0 1-.77.43 3.508 3.508 0 0 1-1.08.16 3.789 3.789 0 0 1-1.21-.17 3.936 3.936 0 0 1-.82-.37c-.23-.13-.42-.25-.58-.36a.817.817 0 0 0-.45-.17.618.618 0 0 0-.33.08.756.756 0 0 0-.23.24l-.5.81a5.828 5.828 0 0 0 1.74 1.04 5.92 5.92 0 0 0 2.27.41 6.063 6.063 0 0 0 1.95-.29 4.259 4.259 0 0 0 1.42-.81 3.4 3.4 0 0 0 .88-1.22 3.881 3.881 0 0 0 .3-1.54 2.6 2.6 0 0 0-.97-2.1 4 4 0 0 0-1-.59c-.37-.16-.75-.31-1.15-.44s-.77-.25-1.14-.36a6.715 6.715 0 0 1-1-.4 2.3 2.3 0 0 1-.7-.53 1.131 1.131 0 0 1-.27-.77 1.421 1.421 0 0 1 .16-.68 1.713 1.713 0 0 1 .46-.55 2.28 2.28 0 0 1 .73-.37 3.225 3.225 0 0 1 .96-.14 3.752 3.752 0 0 1 1.07.14 6.178 6.178 0 0 1 .78.29c.22.11.4.21.55.29a.779.779 0 0 0 .4.13.452.452 0 0 0 .44-.26zm14.53 4.52l4.05-5.72h-1.94a.48.48 0 0 0-.31.1.992.992 0 0 0-.23.26l-2.59 3.79a2.415 2.415 0 0 0-.29.66l-2.96-4.5a.674.674 0 0 0-.21-.23.652.652 0 0 0-.38-.08h-2.03l4.05 5.83-4.22 6.15h1.89a.492.492 0 0 0 .37-.13 1.583 1.583 0 0 0 .26-.31l2.8-4.08a1.13 1.13 0 0 0 .15-.29c.03-.1.07-.21.1-.32l3.03 4.69a1.034 1.034 0 0 0 .24.31.578.578 0 0 0 .41.13h2.03zm13.25-5.71a1.87 1.87 0 0 0 1.15-.1 1.506 1.506 0 0 0 .65-.86 2.166 2.166 0 0 1 .78-1.07 2.2 2.2 0 0 1 1.38-.43 1.892 1.892 0 0 1 1.5.55 2.248 2.248 0 0 1 .5 1.56 3.306 3.306 0 0 1-.12.92 1.388 1.388 0 0 1-.48.7 2.747 2.747 0 0 1-1.03.45 6.884 6.884 0 0 1-1.74.17v2.53a9.384 9.384 0 0 1 2 .17 2.482 2.482 0 0 1 1.07.5 1.251 1.251 0 0 1 .43.76 5.958 5.958 0 0 1 .08 1 2.483 2.483 0 0 1-.15.84 2.231 2.231 0 0 1-1.22 1.27 2.554 2.554 0 0 1-1.07.21 2.284 2.284 0 0 1-1.41-.45 4.175 4.175 0 0 1-1.13-1.42 1.11 1.11 0 0 0-.79-.55 2.151 2.151 0 0 0-1.18.13l-1.64.67a9.132 9.132 0 0 0 .98 2.08 5.515 5.515 0 0 0 1.31 1.44 5.232 5.232 0 0 0 1.71.83 8.542 8.542 0 0 0 2.19.26 7.622 7.622 0 0 0 2.3-.34 5.653 5.653 0 0 0 1.95-1.01 4.95 4.95 0 0 0 1.33-1.69 5.4 5.4 0 0 0 .5-2.39 3.848 3.848 0 0 0-2.87-3.9 5.259 5.259 0 0 0 1.09-.53 3.012 3.012 0 0 0 1.3-1.85 5.552 5.552 0 0 0 .17-1.43 4.164 4.164 0 0 0-.36-1.71 3.934 3.934 0 0 0-1.04-1.43 5.081 5.081 0 0 0-1.69-.98 6.634 6.634 0 0 0-2.27-.36 7.538 7.538 0 0 0-2.22.32 5.283 5.283 0 0 0-1.84.95 5.394 5.394 0 0 0-1.34 1.6 6.422 6.422 0 0 0-.73 2.24zm24.97 8.19a5.78 5.78 0 0 1-.48.5 3.462 3.462 0 0 1-.52.36 2.66 2.66 0 0 1-.6.22 3.263 3.263 0 0 1-.73.08 1.7 1.7 0 0 1-.79-.18 1.651 1.651 0 0 1-.62-.59 3.242 3.242 0 0 1-.39-1.07 7.544 7.544 0 0 1-.14-1.63 7.194 7.194 0 0 1 .17-1.72 3.406 3.406 0 0 1 .5-1.15 1.9 1.9 0 0 1 .74-.65 2.184 2.184 0 0 1 .93-.2 2.768 2.768 0 0 1 1.03.19 2.311 2.311 0 0 1 .9.64v5.2zm0-13.93v6.21a4.285 4.285 0 0 0-1.19-.73 4.186 4.186 0 0 0-1.61-.28 4.786 4.786 0 0 0-2.15.49 4.927 4.927 0 0 0-1.67 1.34 6.287 6.287 0 0 0-1.07 2.04 8.021 8.021 0 0 0-.38 2.55 9.312 9.312 0 0 0 .34 2.65 6.056 6.056 0 0 0 .93 1.98 4.133 4.133 0 0 0 1.41 1.23 3.857 3.857 0 0 0 1.78.42 5.39 5.39 0 0 0 1.17-.12 4.843 4.843 0 0 0 1.01-.36 4.4 4.4 0 0 0 .87-.55 6.415 6.415 0 0 0 .77-.71l.29.94a.856.856 0 0 0 .9.61h2.28v-17.71h-3.68zm6.26 5.44v12.27h3.68v-12.27h-3.68zm3.09-5.16a1.435 1.435 0 0 0-.83.19 1.62 1.62 0 0 0-.48.52l-1.61 2.9h2.21a1.392 1.392 0 0 0 1.18-.5l3.09-3.11h-3.56zm9.52 14.14a4.109 4.109 0 0 1-1.08.81 3.063 3.063 0 0 1-1.25.25 1.69 1.69 0 0 1-1.01-.26 1.019 1.019 0 0 1-.34-.88 1.114 1.114 0 0 1 .16-.59 1.419 1.419 0 0 1 .57-.49 4.456 4.456 0 0 1 1.13-.35 11.448 11.448 0 0 1 1.82-.19v1.7zm-5.96-6.13a1.42 1.42 0 0 0 .43.45 1.014 1.014 0 0 0 .64.19 1.793 1.793 0 0 0 .73-.14c.21-.09.42-.2.64-.32a5.136 5.136 0 0 1 .74-.32 3.513 3.513 0 0 1 1.07-.14 1.643 1.643 0 0 1 1.26.48 2.225 2.225 0 0 1 .45 1.55v.53a14.873 14.873 0 0 0-3.5.42 7.289 7.289 0 0 0-2.21.94 3.328 3.328 0 0 0-1.15 1.24 3.134 3.134 0 0 0-.34 1.35 3.692 3.692 0 0 0 .27 1.46 2.859 2.859 0 0 0 .74 1.06 3.153 3.153 0 0 0 1.17.64 4.919 4.919 0 0 0 1.53.22 5.691 5.691 0 0 0 1.14-.1 4.483 4.483 0 0 0 .98-.31 5.2 5.2 0 0 0 .88-.5c.28-.2.58-.43.89-.69l.26.68a1.064 1.064 0 0 0 .45.59 1.641 1.641 0 0 0 .79.14h1.68v-7.67a5.565 5.565 0 0 0-.33-1.94 4.321 4.321 0 0 0-.96-1.53 4.24 4.24 0 0 0-1.52-1 5.3 5.3 0 0 0-2.01-.37 8.667 8.667 0 0 0-2.91.48 7.476 7.476 0 0 0-2.48 1.47zm20.54-1.45a5.123 5.123 0 0 0-.79-.64 5.834 5.834 0 0 0-1-.5 6.663 6.663 0 0 0-1.17-.33 6.8 6.8 0 0 0-1.29-.12 6.537 6.537 0 0 0-2.13.32 4.351 4.351 0 0 0-1.52.84 3.407 3.407 0 0 0-.91 1.24 3.729 3.729 0 0 0-.3 1.48 3.675 3.675 0 0 0 .25 1.44 3.143 3.143 0 0 0 .65 1 3.625 3.625 0 0 0 .92.67 8.148 8.148 0 0 0 1.05.46q.525.18 1.05.33a9.732 9.732 0 0 1 .92.32 2.135 2.135 0 0 1 .65.41.785.785 0 0 1 .25.6 1.006 1.006 0 0 1-.08.39 1.065 1.065 0 0 1-.26.35 1.348 1.348 0 0 1-.48.24 2.526 2.526 0 0 1-.72.09 3.081 3.081 0 0 1-1-.14 5.2 5.2 0 0 1-.7-.31c-.2-.11-.38-.21-.55-.31a1.213 1.213 0 0 0-.58-.14.971.971 0 0 0-.56.14.985.985 0 0 0-.36.37l-.86 1.35a4.8 4.8 0 0 0 .86.59 5.892 5.892 0 0 0 1.08.48 8.414 8.414 0 0 0 1.22.32 6.72 6.72 0 0 0 1.26.12 7.129 7.129 0 0 0 2.22-.31 4.6 4.6 0 0 0 1.63-.86 3.494 3.494 0 0 0 .99-1.33 4.2 4.2 0 0 0 .33-1.68 3.062 3.062 0 0 0-.24-1.27 2.745 2.745 0 0 0-.65-.91 3.886 3.886 0 0 0-.91-.63 9.691 9.691 0 0 0-1.05-.44c-.35-.13-.7-.24-1.04-.34a8.5 8.5 0 0 1-.91-.33 2.113 2.113 0 0 1-.65-.39.748.748 0 0 1-.24-.57.851.851 0 0 1 .37-.74 1.819 1.819 0 0 1 1.07-.27 3.228 3.228 0 0 1 .87.11 6.56 6.56 0 0 1 .68.25q.3.12.57.24a1.348 1.348 0 0 0 .52.11.857.857 0 0 0 .41-.09 1.038 1.038 0 0 0 .3-.32zM7.46 92.522a7.649 7.649 0 0 1-.73.68 5.42 5.42 0 0 1-.78.5 3.394 3.394 0 0 1-.87.33 4.091 4.091 0 0 1-1.02.11 2.778 2.778 0 0 1-.78-.1 1.569 1.569 0 0 1-.63-.32 1.405 1.405 0 0 1-.42-.56 1.875 1.875 0 0 1-.16-.82 1.533 1.533 0 0 1 .29-.9 2.371 2.371 0 0 1 .94-.69 6.863 6.863 0 0 1 1.67-.48 17.969 17.969 0 0 1 2.49-.23v2.48zm-6.44-6.71a1 1 0 0 0 .26.28.562.562 0 0 0 .37.11.962.962 0 0 0 .55-.19c.18-.13.41-.28.66-.44a4.935 4.935 0 0 1 .92-.44 3.818 3.818 0 0 1 1.31-.19 2.225 2.225 0 0 1 1.77.71 3.217 3.217 0 0 1 .6 2.11v.94a17.866 17.866 0 0 0-3.46.37 8.233 8.233 0 0 0-2.29.84 3.364 3.364 0 0 0-1.27 1.16 2.586 2.586 0 0 0-.4 1.37 3.411 3.411 0 0 0 .27 1.41 2.816 2.816 0 0 0 .72.99 3.145 3.145 0 0 0 1.08.59 4.344 4.344 0 0 0 1.32.19 6.1 6.1 0 0 0 1.25-.12 5.292 5.292 0 0 0 1.06-.36 4.884 4.884 0 0 0 .95-.57 11.8 11.8 0 0 0 .93-.77l.23 1.14a.741.741 0 0 0 .26.39.9.9 0 0 0 .48.1h.94v-7.67a5.682 5.682 0 0 0-.28-1.84 3.908 3.908 0 0 0-.8-1.43 3.676 3.676 0 0 0-1.32-.93 4.571 4.571 0 0 0-1.79-.33 6.511 6.511 0 0 0-2.55.48 6.679 6.679 0 0 0-2.15 1.43zm25.27-1.16a5.012 5.012 0 0 0-1.63-1.02 5.735 5.735 0 0 0-2.13-.37 5.334 5.334 0 0 0-1.81.28 4.047 4.047 0 0 0-1.34.76 3.122 3.122 0 0 0-.83 1.12 3.172 3.172 0 0 0-.29 1.32 2.769 2.769 0 0 0 .97 2.21 4.244 4.244 0 0 0 1.01.61c.37.16.76.3 1.15.43s.77.25 1.15.36a5.787 5.787 0 0 1 1 .4 2.383 2.383 0 0 1 .71.56 1.24 1.24 0 0 1 .26.82 1.937 1.937 0 0 1-.14.76 1.823 1.823 0 0 1-.46.63 2.376 2.376 0 0 1-.77.43 3.508 3.508 0 0 1-1.08.16 3.789 3.789 0 0 1-1.21-.17 4.037 4.037 0 0 1-.83-.37q-.33-.195-.57-.36a.817.817 0 0 0-.45-.17.683.683 0 0 0-.34.08.853.853 0 0 0-.22.24l-.5.81a5.773 5.773 0 0 0 1.73 1.04 5.936 5.936 0 0 0 2.28.41 6.063 6.063 0 0 0 1.95-.29 4.361 4.361 0 0 0 1.42-.81 3.4 3.4 0 0 0 .88-1.22 3.881 3.881 0 0 0 .3-1.54 2.6 2.6 0 0 0-.27-1.23 2.521 2.521 0 0 0-.71-.87 3.765 3.765 0 0 0-.99-.59c-.38-.16-.76-.31-1.15-.44s-.77-.25-1.14-.36a6.305 6.305 0 0 1-1-.4 2.486 2.486 0 0 1-.71-.53 1.175 1.175 0 0 1-.26-.77 1.421 1.421 0 0 1 .16-.68 1.6 1.6 0 0 1 .46-.55 2.18 2.18 0 0 1 .73-.37 3.129 3.129 0 0 1 .96-.14 3.752 3.752 0 0 1 1.07.14 6.178 6.178 0 0 1 .78.29l.55.29a.779.779 0 0 0 .4.13.452.452 0 0 0 .44-.26zm5.48-.96a5.149 5.149 0 0 0-1.81 1.25 5.275 5.275 0 0 0-1.14 1.94 8.36 8.36 0 0 0 0 5.11 5.358 5.358 0 0 0 1.14 1.94 5 5 0 0 0 1.81 1.24 6.829 6.829 0 0 0 4.77 0 5.047 5.047 0 0 0 1.8-1.24 5.523 5.523 0 0 0 1.15-1.94 8.564 8.564 0 0 0 0-5.11 5.435 5.435 0 0 0-1.15-1.94 5.2 5.2 0 0 0-1.8-1.25 6.829 6.829 0 0 0-4.77 0zm-.3 9.07a5.529 5.529 0 0 1-.88-3.32 7.48 7.48 0 0 1 .22-1.91 4.058 4.058 0 0 1 .66-1.42 2.956 2.956 0 0 1 1.12-.89 3.822 3.822 0 0 1 1.57-.31 3.071 3.071 0 0 1 2.66 1.2 6.722 6.722 0 0 1 0 6.65 3.065 3.065 0 0 1-2.66 1.19 3.122 3.122 0 0 1-2.69-1.19zm4.09-14.47a1.1 1.1 0 0 0-.57.12 1.188 1.188 0 0 0-.36.4l-1.76 2.86h1.26a1 1 0 0 0 .41-.08 1.121 1.121 0 0 0 .32-.25l2.77-3.05h-2.07zm7.06-.29v17.43h2.12v-17.43h-2.12zm8.21 5.69a5.149 5.149 0 0 0-1.81 1.25 5.275 5.275 0 0 0-1.14 1.94 8.36 8.36 0 0 0 0 5.11 5.358 5.358 0 0 0 1.14 1.94 5 5 0 0 0 1.81 1.24 6.829 6.829 0 0 0 4.77 0 5.047 5.047 0 0 0 1.8-1.24 5.358 5.358 0 0 0 1.14-1.94 8.36 8.36 0 0 0 0-5.11 5.275 5.275 0 0 0-1.14-1.94 5.2 5.2 0 0 0-1.8-1.25 6.829 6.829 0 0 0-4.77 0zm-.3 9.07a5.46 5.46 0 0 1-.88-3.32 7.48 7.48 0 0 1 .22-1.91 4.058 4.058 0 0 1 .66-1.42 2.956 2.956 0 0 1 1.12-.89 3.822 3.822 0 0 1 1.57-.31 3.083 3.083 0 0 1 2.66 1.2 6.722 6.722 0 0 1 0 6.65 3.077 3.077 0 0 1-2.66 1.19 3.122 3.122 0 0 1-2.69-1.19zm23.55-4.06a3.423 3.423 0 0 1 1.15.67 1.373 1.373 0 0 1 .43 1.08 2.011 2.011 0 0 1-1.96 2.14zm-1.84-4.05a3.6 3.6 0 0 1-1.16-.73 1.476 1.476 0 0 1-.45-1.13 1.616 1.616 0 0 1 .11-.58 1.275 1.275 0 0 1 .34-.5 1.947 1.947 0 0 1 .6-.39 3.491 3.491 0 0 1 .92-.25zm2.59-3.49a6.374 6.374 0 0 1 .7.24l.61.26a5.473 5.473 0 0 0 .53.22 1.223 1.223 0 0 0 .42.09.881.881 0 0 0 .49-.14 1.549 1.549 0 0 0 .41-.43l.9-1.32a8.477 8.477 0 0 0-1.56-1.13 6.788 6.788 0 0 0-2.2-.77l.22-2.32H74a.912.912 0 0 0-.68.27.857.857 0 0 0-.29.59l-.13 1.32a7.06 7.06 0 0 0-2.45.52 6.088 6.088 0 0 0-1.8 1.17 4.928 4.928 0 0 0-1.1 1.6 4.469 4.469 0 0 0-.38 1.82 4.72 4.72 0 0 0 .42 2.11 4.052 4.052 0 0 0 1.09 1.38 5.6 5.6 0 0 0 1.53.86c.57.22 1.13.4 1.7.56l-.44 4.46a4.263 4.263 0 0 1-.95-.36c-.28-.15-.54-.29-.77-.43s-.45-.25-.65-.35a1.284 1.284 0 0 0-.58-.15 1.067 1.067 0 0 0-.52.14 1.122 1.122 0 0 0-.38.33l-1.14 1.65a7.682 7.682 0 0 0 2.09 1.35 10.233 10.233 0 0 0 2.61.79l-.24 2.44h1.35a.9.9 0 0 0 .68-.27.914.914 0 0 0 .3-.59l.14-1.47a7.226 7.226 0 0 0 2.44-.59 5.758 5.758 0 0 0 1.81-1.24 5.111 5.111 0 0 0 1.11-1.75 5.686 5.686 0 0 0 .38-2.11 4.209 4.209 0 0 0-.19-1.34 3.243 3.243 0 0 0-.53-1.03 3.653 3.653 0 0 0-.79-.78 6.471 6.471 0 0 0-.99-.59 9.581 9.581 0 0 0-1.09-.45q-.57-.2-1.14-.36zm10.71.25h4.13a3.575 3.575 0 0 0 .99-.12 1.849 1.849 0 0 0 .67-.36 1.364 1.364 0 0 0 .38-.54 1.831 1.831 0 0 0 .12-.68v-1.52h-8.86l-1.47 8.63 2.28.61a6.192 6.192 0 0 1 2.28-.43 2.871 2.871 0 0 1 2.02.65 2.5 2.5 0 0 1 .71 1.91 4.586 4.586 0 0 1-.15 1.2 2.688 2.688 0 0 1-.48.99 2.21 2.21 0 0 1-.84.66 3.013 3.013 0 0 1-1.26.24 3.477 3.477 0 0 1-1.24-.19 4.4 4.4 0 0 1-.87-.42q-.375-.225-.69-.42a1.249 1.249 0 0 0-.67-.2 1.019 1.019 0 0 0-.51.13 1.162 1.162 0 0 0-.41.36l-1.14 1.51a8.791 8.791 0 0 0 1.03.85 8.682 8.682 0 0 0 1.24.7 7.36 7.36 0 0 0 1.44.47 6.944 6.944 0 0 0 1.6.18 7.633 7.633 0 0 0 2.67-.45 6.244 6.244 0 0 0 2.09-1.29 5.683 5.683 0 0 0 1.37-1.97 6.263 6.263 0 0 0 .5-2.52 5.637 5.637 0 0 0-.37-2.07 4.64 4.64 0 0 0-1.07-1.68 5.034 5.034 0 0 0-1.76-1.13 6.354 6.354 0 0 0-2.4-.41c-.29 0-.58.01-.88.03s-.62.07-.94.13zm20.81 1.48a7.856 7.856 0 0 0-1.35-2.75 5.354 5.354 0 0 0-2.04-1.61 6.4 6.4 0 0 0-5.1 0 5.37 5.37 0 0 0-2.02 1.61 8.022 8.022 0 0 0-1.34 2.75 16.206 16.206 0 0 0 0 7.83 8.022 8.022 0 0 0 1.34 2.75 5.5 5.5 0 0 0 2.02 1.62 6.4 6.4 0 0 0 5.1 0 5.479 5.479 0 0 0 2.04-1.62 7.856 7.856 0 0 0 1.35-2.75 15.885 15.885 0 0 0 0-7.83zm-3.53 6.85a6.523 6.523 0 0 1-.6 1.79 2.19 2.19 0 0 1-.85.9 2.146 2.146 0 0 1-.96.25 1.968 1.968 0 0 1-1.79-1.15 5.957 5.957 0 0 1-.58-1.79 19.621 19.621 0 0 1 0-5.86 6.131 6.131 0 0 1 .58-1.8 2.125 2.125 0 0 1 .83-.89 2.069 2.069 0 0 1 .96-.24 2.13 2.13 0 0 1 .96.24 2.221 2.221 0 0 1 .85.89 6.728 6.728 0 0 1 .6 1.8 19.621 19.621 0 0 1 0 5.86z" fill="#fff" fill-rule="evenodd"/></svg></svg>