<?xml version="1.0" encoding="utf-8"?><svg width="248" height="152" viewBox="0 0 248 152" xmlns="http://www.w3.org/2000/svg" xmlns:xlink="http://www.w3.org/1999/xlink"><svg width="247.88" height="52.38" viewBox="-1 -1 247.88 52.38" id="cantStop"><defs><style>.acls-1{fill:#fff;fill-rule:evenodd}</style></defs><path id="aCantStop.svg" class="acls-1" d="M414.444 154.379a17.7 17.7 0 0 0 4.465-2.032 18.441 18.441 0 0 0 3.737-3.157 19.651 19.651 0 0 0 2.84-4.042l-6.019-3.012a12.248 12.248 0 0 1-3.955 4.565 10.6 10.6 0 0 1-6.237 1.784 11.962 11.962 0 0 1-4.587-.866 11.027 11.027 0 0 1-3.64-2.386 11.211 11.211 0 0 1-2.4-3.556 10.985 10.985 0 0 1-.873-4.376 11.265 11.265 0 0 1 .873-4.445 10.93 10.93 0 0 1 2.427-3.581 11.265 11.265 0 0 1 3.689-2.386 12.288 12.288 0 0 1 4.659-.866 10.255 10.255 0 0 1 5.825 1.589 12.512 12.512 0 0 1 3.931 4.33l5.776-3.522a18.107 18.107 0 0 0-2.791-3.668 16.956 16.956 0 0 0-3.64-2.807 18.679 18.679 0 0 0-4.32-1.8 17.774 17.774 0 0 0-4.781-.64 19.107 19.107 0 0 0-7.159 1.328 17.6 17.6 0 0 0-5.775 3.7 17.3 17.3 0 0 0-3.859 5.623 17.774 17.774 0 0 0-1.408 7.142 18.4 18.4 0 0 0 1.311 6.951 16.874 16.874 0 0 0 3.689 5.647 17.355 17.355 0 0 0 5.751 3.8 19.259 19.259 0 0 0 7.45 1.4 17.44 17.44 0 0 0 5.021-.717zM446.4 154a10.717 10.717 0 0 0 3.98-3v4.041h6.552v-28.434h-6.552v3.751a10.847 10.847 0 0 0-3.932-2.78 13.04 13.04 0 0 0-5.193-1.02 14.689 14.689 0 0 0-5.218.961 13.445 13.445 0 0 0-7.668 7.264 14.648 14.648 0 0 0-1.189 6.068 14.3 14.3 0 0 0 1.213 6.022 13.779 13.779 0 0 0 3.2 4.475 14.259 14.259 0 0 0 9.562 3.749A12.617 12.617 0 0 0 446.4 154zm-7.548-5.575a8.552 8.552 0 0 1-2.742-1.758 8 8 0 0 1-1.82-2.649 8.2 8.2 0 0 1-.655-3.265 8.042 8.042 0 0 1 .655-3.242 7.82 7.82 0 0 1 1.82-2.6 8.756 8.756 0 0 1 2.742-1.735 9.274 9.274 0 0 1 6.771 0 8.061 8.061 0 0 1 2.67 1.758 8.436 8.436 0 0 1 1.771 2.626 7.922 7.922 0 0 1 .655 3.195 8.043 8.043 0 0 1-.655 3.243 8.74 8.74 0 0 1-1.771 2.648 7.892 7.892 0 0 1-2.67 1.781 9.288 9.288 0 0 1-6.767.002zm22.059 6.619h6.552V139.8a7.662 7.662 0 0 1 1.917-5.606 6.381 6.381 0 0 1 4.733-1.948 5.97 5.97 0 0 1 4.805 1.877 7.607 7.607 0 0 1 1.6 5.106v15.819h6.65v-16.56q0-5.631-2.985-8.78t-8.275-3.15a10.9 10.9 0 0 0-4.927 1.077 10.388 10.388 0 0 0-3.567 2.857v-3.885h-6.5v28.441zm33.538-25.573l3.4-9.918h-5.776l-1.65 9.918h4.029zm5.532 3.014h4.854v10.7a24.08 24.08 0 0 0 .558 5.664 7.966 7.966 0 0 0 1.868 3.647 7.272 7.272 0 0 0 3.519 1.969 21.967 21.967 0 0 0 5.509.583h.922v-6.174a18.764 18.764 0 0 1-3.033-.195 2.76 2.76 0 0 1-2.548-2.552 18.451 18.451 0 0 1-.195-2.99v-10.648h5.776v-5.882h-5.776v-8.849l-6.6 4.522v4.327h-4.854v5.882zm49.554 21.687a11.906 11.906 0 0 0 3.834-2.409 10.272 10.272 0 0 0 2.379-3.424 10.025 10.025 0 0 0 .825-3.967 8.6 8.6 0 0 0-.922-4.179 9.163 9.163 0 0 0-2.4-2.834 13.565 13.565 0 0 0-3.3-1.889q-1.821-.732-3.616-1.3l-2.767-.9a13.511 13.511 0 0 1-2.3-.969 5.26 5.26 0 0 1-1.578-1.251 2.663 2.663 0 0 1-.582-1.748 3.6 3.6 0 0 1 1.262-2.786 5.353 5.353 0 0 1 3.689-1.134 7.229 7.229 0 0 1 6.406 3.506l5.436-4.235a22.633 22.633 0 0 0-2.257-2.066 13.476 13.476 0 0 0-2.62-1.629 15.15 15.15 0 0 0-3.155-1.07 17.594 17.594 0 0 0-3.859-.388 14.11 14.11 0 0 0-4.684.755 11.582 11.582 0 0 0-3.737 2.1 9.638 9.638 0 0 0-2.451 3.139 8.725 8.725 0 0 0-.874 3.871 8.374 8.374 0 0 0 .9 4.083 8.794 8.794 0 0 0 2.33 2.739 12 12 0 0 0 3.228 1.77q1.794.66 3.591 1.226 1.407.426 2.743.85a14.324 14.324 0 0 1 2.354.968 5.476 5.476 0 0 1 1.65 1.3 2.782 2.782 0 0 1 .631 1.841 4.474 4.474 0 0 1-1.384 3.21 5.342 5.342 0 0 1-4 1.416 8.48 8.48 0 0 1-4.416-1.181 9.78 9.78 0 0 1-3.349-3.406l-6.019 4.541a21.553 21.553 0 0 0 5.727 4.544 16.556 16.556 0 0 0 8.106 1.823 13.779 13.779 0 0 0 5.183-.913zm7.086-21.687h4.854v10.7a24.134 24.134 0 0 0 .558 5.664 7.958 7.958 0 0 0 1.869 3.647 7.268 7.268 0 0 0 3.518 1.969 21.967 21.967 0 0 0 5.509.583h.922v-6.174a18.764 18.764 0 0 1-3.033-.195 2.762 2.762 0 0 1-2.548-2.552 18.468 18.468 0 0 1-.194-2.99v-10.648h5.775v-5.882h-5.771v-8.849l-6.6 4.522v4.327h-4.854v5.882zM595.551 154a14.824 14.824 0 0 0 4.684-3.046 14.156 14.156 0 0 0 3.154-4.546 14.2 14.2 0 0 0 0-11.153 14.167 14.167 0 0 0-3.154-4.546 14.871 14.871 0 0 0-10.411-4.147 15.055 15.055 0 0 0-5.752 1.1 14.279 14.279 0 0 0-7.814 7.591 14.2 14.2 0 0 0 0 11.153 14.285 14.285 0 0 0 7.814 7.594 15.055 15.055 0 0 0 5.752 1.1 14.874 14.874 0 0 0 5.727-1.1zm-9-5.712a8.007 8.007 0 0 1-2.621-1.733 8.11 8.11 0 0 1-1.723-2.577 7.9 7.9 0 0 1-.631-3.124 8.018 8.018 0 0 1 .631-3.169 7.909 7.909 0 0 1 4.344-4.31 8.433 8.433 0 0 1 3.277-.638 8.247 8.247 0 0 1 3.251.638 8.392 8.392 0 0 1 2.621 1.725 7.919 7.919 0 0 1 1.748 2.577 8.018 8.018 0 0 1 .631 3.169 7.994 7.994 0 0 1-2.379 5.7 8.358 8.358 0 0 1-2.621 1.733 8.247 8.247 0 0 1-3.251.638 8.433 8.433 0 0 1-3.281-.633zm41.692 5.852a13.738 13.738 0 0 0 4.466-2.788 13.99 13.99 0 0 0 3.179-4.475 14.32 14.32 0 0 0 1.213-6.022 14.664 14.664 0 0 0-1.189-6.068 13.867 13.867 0 0 0-3.13-4.476 13.4 13.4 0 0 0-4.466-2.788 14.5 14.5 0 0 0-5.193-.961 12.163 12.163 0 0 0-5.315 1.15 10.768 10.768 0 0 0-3.907 3.075v-4.176h-6.5v41.519h6.5v-16.971a9.709 9.709 0 0 0 3.932 2.917 13.62 13.62 0 0 0 5.338 1.021 14.021 14.021 0 0 0 5.068-.961zm-9.537-5.707a7.868 7.868 0 0 1-2.669-1.781 8.329 8.329 0 0 1-2.379-5.891 8.2 8.2 0 0 1 .631-3.195 7.971 7.971 0 0 1 4.417-4.384 8.844 8.844 0 0 1 3.4-.64 8.723 8.723 0 0 1 3.349.64 8.827 8.827 0 0 1 2.718 1.735 7.82 7.82 0 0 1 1.82 2.6 8.042 8.042 0 0 1 .655 3.242 8.2 8.2 0 0 1-.655 3.265 8 8 0 0 1-1.82 2.649 8.619 8.619 0 0 1-2.718 1.758 8.722 8.722 0 0 1-3.349.639 8.844 8.844 0 0 1-3.406-.641z" transform="translate(-391.219 -117.75)"/></svg><svg width="96.69" height="13.16" viewBox="-1 -1 96.69 13.16" id="cta_text" x="112.69" y="102.93"><defs><style>.bcls-1{fill:#fff;fill-rule:evenodd}</style></defs><path id="bcta_text.svg" class="bcls-1" d="M802.135 162.823v-9.174h-1.784v10.782h6.26v-1.608h-4.476zm7.344 1.608h1.784v-10.782h-1.784v10.782zm8.265.179a4 4 0 0 0 2.75-.871 3.085 3.085 0 0 0 .982-2.435 2.84 2.84 0 0 0-.617-1.921 3.929 3.929 0 0 0-2-1.088l-1.219-.342a2.578 2.578 0 0 1-1.167-.6 1.343 1.343 0 0 1-.365-.983 1.193 1.193 0 0 1 .454-1 2.152 2.152 0 0 1 1.331-.35 7.812 7.812 0 0 1 2.72.6l.595-1.43a7.8 7.8 0 0 0-1.606-.529 7.894 7.894 0 0 0-1.665-.186 3.758 3.758 0 0 0-2.617.849 3.017 3.017 0 0 0-.936 2.353 2.81 2.81 0 0 0 .617 1.906 3.917 3.917 0 0 0 2 1.088l1.219.342a2.6 2.6 0 0 1 1.174.6 1.337 1.337 0 0 1 .372.976 1.278 1.278 0 0 1-.513 1.094 2.511 2.511 0 0 1-1.509.38 5.764 5.764 0 0 1-2.9-.819l-.6 1.415a5.492 5.492 0 0 0 1.613.707 7.213 7.213 0 0 0 1.881.246zm13.082-10.961h-7.255v1.608h2.735v9.174h1.785v-9.174h2.735v-1.608zm4.548 9.189v-3.113h3.584v-1.608h-3.584v-2.874h4.847v-1.594h-6.631v10.782h6.825v-1.593h-5.041zm14.555-9.189v7.744l-4.818-7.744h-1.724v10.782h1.754v-7.759l4.832 7.759h1.71v-10.782h-1.754zm16.366 0v7.744l-4.817-7.744h-1.724v10.782h1.754v-7.759l4.832 7.759h1.71v-10.782h-1.75zm9.529 10.976a4.125 4.125 0 0 0 3.368-1.408 8.059 8.059 0 0 0 0-8.354 4.731 4.731 0 0 0-6.735 0 8.059 8.059 0 0 0 0 8.354 4.123 4.123 0 0 0 3.367 1.408zm0-1.594q-2.691 0-2.691-3.991t2.691-3.991q2.691 0 2.691 3.991t-2.691 3.991zm17.364-9.382l-1.739 8.712-1.754-8.7h-1.918l-1.74 8.7-1.739-8.712h-1.844l2.587 10.782H887l1.71-8.34 1.74 8.34h1.95l2.617-10.782h-1.829z" transform="translate(-800.344 -153.469)"/></svg><svg id="dino" data-name="Layer 1" viewBox="-1 -1 111 32.66" width="111" height="32.66" y="118.49000000000001"><defs><style>.ccls-1{fill:#fff}</style></defs><title>dino</title><path class="ccls-1" d="M360.17 392.9c-1.12-.15-17.67-.61-27.28-.61-5.87-.27-11.74-.6-17.74-1a61.95 61.95 0 0 0-4.07-.14c-8.27 0-14.54 1.72-20.07 3.25-2.46.68-4.78 1.31-7 1.69a19.67 19.67 0 0 1-2.64.42c-6.69 0-14.19-15.64-22.52-15.64-3.79 0-5.57.2-6.56.77a1.52 1.52 0 0 0-.7 1.91 3.56 3.56 0 0 0 2.44 1c1.51.06 3.33-.94 5.22-.94 6.4 0 12.37 17.93 26 17.93 3.32 0 4.27.42 5.19 3.58a7.4 7.4 0 0 1 0 2.43 20.49 20.49 0 0 0-.12 2.62 1.14 1.14 0 0 0 .79 1.23c.21 0 .82.06 1.14.06.78 0 .92-2.12.91-3.39v-1.16a1.12 1.12 0 0 1 1.12-1.11 1.12 1.12 0 0 1 1.13 1.09 17.87 17.87 0 0 0 .06 4.18 1.33 1.33 0 0 0 1.51.19c.57-.21-.74-5.79 2.51-5.79s3.83.9 3.62 3c-.18 1.74-.26 2.66.41 3a3.08 3.08 0 0 0 1 0c.82 0 1-.1 1.08-2v-1.25-1.41a1.13 1.13 0 0 1 2.25 0v2.67a2.91 2.91 0 0 0 .34 1.8 1.85 1.85 0 0 0 .94.23 1.78 1.78 0 0 0 1.49-.59c1-1.24.11-4.71-.17-5.91a4.09 4.09 0 0 1 .44-3.31c1.32-2 4.66-2.84 10-3.94 3.42-.71 11.05-2.28 20.13-3.42 1.88-.14 18.19-1 18.85-.88s.9-.5.28-.58" transform="translate(-251.53 -380.87)"/></svg><svg id="diploPresents" data-name="Layer 1" viewBox="-1 -1 208.55 15.33" width="208.55" height="15.33" y="52.38"><defs><style>.dcls-1{fill:#fff}</style></defs><title>diploPresents</title><path id="ddiploPresens.svg" class="dcls-1" d="M-26.74-32.78H-31v12.86h4.25a5.56 5.56 0 0 0 4.32-1.62 8.56 8.56 0 0 0 0-9.62 5.56 5.56 0 0 0-4.32-1.62zm-.07 10.67h-1.74v-8.49h1.76q3.33 0 3.33 4.23t-3.35 4.26zm13.58 2.18h2.45v-12.85h-2.44v12.86zM2.24-32.78h-4.77v12.86h2.45v-4h2.2a4.39 4.39 0 0 0 3.26-1.18 5.26 5.26 0 0 0 0-6.53 4.21 4.21 0 0 0-3.17-1.15zm0 6.66H-.09v-4.48h2.2Q4-30.6 4-28.33t-1.77 2.2zm13.74 4v-10.66h-2.44v12.86h7.6v-2.2H16zm16.76 2.42a5 5 0 0 0 4.09-1.68 9.5 9.5 0 0 0 0-10 5.81 5.81 0 0 0-8.17 0 9.51 9.51 0 0 0 0 10 5 5 0 0 0 4.09 1.68zm0-2.18q-3 0-3-4.48t3-4.47q3 0 3 4.47t-3 4.48zm27-10.9H55v12.86h2.45v-4h2.2a4.39 4.39 0 0 0 3.26-1.16 5.26 5.26 0 0 0 0-6.53 4.22 4.22 0 0 0-3.17-1.15zm0 6.66h-2.32v-4.48h2.2q1.9 0 1.9 2.27t-1.77 2.2zm18 6.2h2.93l-3.17-4.76a3.47 3.47 0 0 0 1.76-1.44 4.63 4.63 0 0 0 .61-2.47 4.16 4.16 0 0 0-1.11-3.1 4.29 4.29 0 0 0-3.15-1.09H71v12.86h2.45v-4.44H75zm-4.26-10.71h2.09q1.81 0 1.81 2.1t-1.74 2.08h-2.16v-4.17zm16.7 8.52v-3.29h4.16v-2.2h-4.15v-3h5.64v-2.18h-8.09v12.86h8.33v-2.18h-5.89zm16.61 2.4a4.9 4.9 0 0 0 3.36-1.06 3.78 3.78 0 0 0 1.2-3 3.44 3.44 0 0 0-.73-2.31 4.73 4.73 0 0 0-2.39-1.31l-1.45-.41a3 3 0 0 1-1.31-.65 1.39 1.39 0 0 1-.41-1q0-1.4 1.93-1.4a9.51 9.51 0 0 1 3.24.69l.77-1.94a10 10 0 0 0-2-.66 9.36 9.36 0 0 0-2-.23 4.55 4.55 0 0 0-3.17 1 3.71 3.71 0 0 0-1.13 2.89 3.38 3.38 0 0 0 .74 2.29 4.77 4.77 0 0 0 2.38 1.31l1.47.5a3 3 0 0 1 1.31.66 1.42 1.42 0 0 1 .41 1q0 1.53-2.22 1.53a6.8 6.8 0 0 1-3.46-1l-.78 1.92a7.14 7.14 0 0 0 2 .86 8.4 8.4 0 0 0 2.28.31zm14.52-2.4v-3.29h4.15v-2.2h-4.15v-3H127v-2.18h-8.08v12.86h8.33v-2.18h-5.88zm20.94-10.67v8.68l-5.34-8.68h-2.36v12.86H137v-8.72l5.34 8.72h2.36v-12.86h-2.41zm18.35 0h-8.83v2.2H155v10.65h2.45v-10.65h3.19v-2.2zM171-19.71a4.91 4.91 0 0 0 3.36-1.06 3.78 3.78 0 0 0 1.2-3 3.44 3.44 0 0 0-.73-2.31 4.73 4.73 0 0 0-2.39-1.31l-1.44-.4a3 3 0 0 1-1.31-.65 1.39 1.39 0 0 1-.41-1q0-1.4 1.93-1.4a9.51 9.51 0 0 1 3.24.69l.8-1.92a10 10 0 0 0-2-.66 9.37 9.37 0 0 0-2-.23 4.55 4.55 0 0 0-3.17 1 3.71 3.71 0 0 0-1.13 2.89 3.38 3.38 0 0 0 .74 2.29 4.77 4.77 0 0 0 2.31 1.32l1.45.41a3 3 0 0 1 1.31.66 1.42 1.42 0 0 1 .41 1q0 1.53-2.22 1.53a6.8 6.8 0 0 1-3.46-1l-.78 1.92a7.12 7.12 0 0 0 2 .86 8.4 8.4 0 0 0 2.28.31z" transform="translate(30.99 33.01)"/></svg><svg width="112.69" height="15.56" viewBox="-1 -1 112.69 15.56" id="move" y="102.93"><defs><style>.ecls-1{fill:#fff;fill-rule:evenodd}</style></defs><path id="emove.svg" class="ecls-1" d="M123.959 267.568h1.7v-6.357l2.745 3.724 2.808-3.787v6.42h1.7v-9.153H131.3l-2.883 3.849-2.77-3.849h-1.692v9.153zm15-.272a3.827 3.827 0 0 0 1.209-.785 3.633 3.633 0 0 0 .815-1.173 3.652 3.652 0 0 0 0-2.876 3.639 3.639 0 0 0-.815-1.172 3.847 3.847 0 0 0-2.688-1.07 3.882 3.882 0 0 0-1.486.285 3.69 3.69 0 0 0-2.018 1.957 3.664 3.664 0 0 0 0 2.876A3.688 3.688 0 0 0 136 267.3a3.881 3.881 0 0 0 1.486.284 3.835 3.835 0 0 0 1.476-.284zm-2.325-1.473a2.039 2.039 0 0 1-.677-.447 2.072 2.072 0 0 1-.445-.664 2.027 2.027 0 0 1-.163-.806 2.055 2.055 0 0 1 .163-.817 2.087 2.087 0 0 1 .445-.665 2.052 2.052 0 0 1 .677-.446 2.17 2.17 0 0 1 .846-.165 2.13 2.13 0 0 1 .84.165 2.156 2.156 0 0 1 .676.446 2.072 2.072 0 0 1 0 2.952 2.149 2.149 0 0 1-1.516.612 2.17 2.17 0 0 1-.843-.165zm7.238 1.745h1.705l2.757-7.335H146.6l-1.86 5.167-1.893-5.166h-1.767zm10.247-.533a3.794 3.794 0 0 0 1.334-1.436l-1.391-.8a2.14 2.14 0 0 1-2.03 1.291 2.294 2.294 0 0 1-1.492-.476 2.174 2.174 0 0 1-.764-1.254h5.966v-.6a3.488 3.488 0 0 0-.282-1.41 3.425 3.425 0 0 0-.784-1.123 3.54 3.54 0 0 0-1.2-.74 4.218 4.218 0 0 0-1.51-.265 3.888 3.888 0 0 0-2.707 1.076 3.617 3.617 0 0 0-1.1 2.623 3.658 3.658 0 0 0 .282 1.432 3.516 3.516 0 0 0 .789 1.166 3.67 3.67 0 0 0 1.222.779 4.231 4.231 0 0 0 1.58.284 3.822 3.822 0 0 0 2.09-.547zm-.821-5.01a1.558 1.558 0 0 1 .727.916h-4.162a1.855 1.855 0 0 1 .784-.891 2.5 2.5 0 0 1 1.322-.338 2.619 2.619 0 0 1 1.331.313zm8.447 5.543h1.667l1.906-5.078 1.855 5.078h1.629l2.569-7.335h-1.717l-1.679 5.065-1.805-5.065h-1.68l-1.842 5.053-1.617-5.053H159.3zm10.291 0h1.7v-7.335h-1.7v7.335zm.062-8.363a1.069 1.069 0 0 0 1.855-.765 1.067 1.067 0 0 0-.282-.771 1.179 1.179 0 0 0-1.56 0 1.189 1.189 0 0 0-.011 1.536zm2.357 2.545h1.253v2.758a6.22 6.22 0 0 0 .144 1.461 2.045 2.045 0 0 0 .483.94 1.865 1.865 0 0 0 .908.508 5.655 5.655 0 0 0 1.423.151h.238v-1.593a4.8 4.8 0 0 1-.783-.05.714.714 0 0 1-.658-.658 4.7 4.7 0 0 1-.05-.771v-2.746h1.491v-1.517h-1.491v-2.282l-1.7 1.166v1.116h-1.253v1.517zm5.264 5.818h1.7v-3.933a2.456 2.456 0 0 1 .132-.833 1.728 1.728 0 0 1 .363-.612 1.557 1.557 0 0 1 .546-.374 1.723 1.723 0 0 1 .664-.129 1.546 1.546 0 0 1 1.241.484 1.98 1.98 0 0 1 .413 1.329v4.068h1.73V263.3a3.156 3.156 0 0 0-.771-2.264 3.14 3.14 0 0 0-3.4-.537 2.7 2.7 0 0 0-.934.753v-2.962h-1.692v9.278zm17.221-.358a4.268 4.268 0 0 0 1.41-1 4.382 4.382 0 0 0 .9-1.461 4.965 4.965 0 0 0 .314-1.762v-.677h-4.751v1.63h2.921a2.7 2.7 0 0 1-.934 1.442 2.673 2.673 0 0 1-1.711.539 3.226 3.226 0 0 1-1.228-.229 2.977 2.977 0 0 1-.972-.628 2.836 2.836 0 0 1-.632-.93 2.993 2.993 0 0 1 0-2.282 2.842 2.842 0 0 1 .632-.929 3.12 3.12 0 0 1 .953-.634 2.957 2.957 0 0 1 1.185-.236 3.162 3.162 0 0 1 1.56.366 2.886 2.886 0 0 1 1.084 1.085l1.5-.819a4.48 4.48 0 0 0-1.66-1.65 4.752 4.752 0 0 0-1.16-.471 5.208 5.208 0 0 0-1.341-.166 4.8 4.8 0 0 0-1.874.361 4.605 4.605 0 0 0-1.479.979 4.477 4.477 0 0 0-.971 1.457 4.592 4.592 0 0 0-.351 1.792 4.649 4.649 0 0 0 .338 1.763 4.414 4.414 0 0 0 .965 1.462 4.6 4.6 0 0 0 1.5 1 4.983 4.983 0 0 0 1.943.367 4.488 4.488 0 0 0 1.862-.369zm8.235.089a2.768 2.768 0 0 0 1.028-.774v1.043h1.697v-7.335h-1.692v.967a2.822 2.822 0 0 0-1.016-.717 3.374 3.374 0 0 0-1.341-.263 3.8 3.8 0 0 0-1.347.248 3.465 3.465 0 0 0-1.98 1.874 3.77 3.77 0 0 0-.308 1.564 3.682 3.682 0 0 0 .314 1.553 3.541 3.541 0 0 0 .827 1.154 3.671 3.671 0 0 0 2.469.967 3.277 3.277 0 0 0 1.352-.28zm-1.949-1.438a2.188 2.188 0 0 1-.708-.454 2.053 2.053 0 0 1-.47-.683 2.107 2.107 0 0 1-.169-.842 2.068 2.068 0 0 1 .169-.836 2 2 0 0 1 .47-.671 2.24 2.24 0 0 1 .708-.447 2.4 2.4 0 0 1 1.748 0 2.075 2.075 0 0 1 .69.453 2.179 2.179 0 0 1 .457.677 2.039 2.039 0 0 1 .169.824 2.065 2.065 0 0 1-.169.836 2.254 2.254 0 0 1-.457.683 2.032 2.032 0 0 1-.69.46 2.4 2.4 0 0 1-1.745 0zm5.634 1.707h1.7v-9.278h-1.7v9.278zm7.407-.269a2.76 2.76 0 0 0 1.028-.774v1.043h1.692v-7.335H217.3v.967a2.818 2.818 0 0 0-1.015-.717 3.381 3.381 0 0 0-1.341-.263 3.8 3.8 0 0 0-1.348.248 3.473 3.473 0 0 0-1.98 1.874 3.77 3.77 0 0 0-.307 1.564 3.682 3.682 0 0 0 .313 1.553 3.555 3.555 0 0 0 .827 1.154 3.676 3.676 0 0 0 2.47.967 3.275 3.275 0 0 0 1.351-.28zm-1.949-1.438a2.21 2.21 0 0 1-.708-.454 2.068 2.068 0 0 1-.47-.683 2.107 2.107 0 0 1-.169-.842 2.068 2.068 0 0 1 .169-.836 2.018 2.018 0 0 1 .47-.671 2.262 2.262 0 0 1 .708-.447 2.4 2.4 0 0 1 1.749 0 2.07 2.07 0 0 1 .689.453 2.182 2.182 0 0 1 .458.677 2.056 2.056 0 0 1 .169.824 2.082 2.082 0 0 1-.169.836 2.257 2.257 0 0 1-.458.683 2.028 2.028 0 0 1-.689.46 2.4 2.4 0 0 1-1.746 0zm5.083 1.707h2.068l1.742-2.445 1.792 2.445h2.068l-2.807-3.712 2.632-3.623h-2l-1.655 2.332-1.667-2.332H219.5l2.657 3.6zm9.175 3.372h1.724l4.374-10.707h-1.78l-1.93 5.018-2.043-5.018h-1.805l3.008 7.017z" transform="translate(-123.969 -257.375)"/></svg><svg width="154.97" height="35.22" viewBox="-1 -1 154.97 35.22" id="theMix" y="67.71000000000001"><defs><style>.fcls-1{fill:#fff;fill-rule:evenodd}</style></defs><path id="ftheMix.svg" class="fcls-1" d="M444.265 180.936h-6.941v1.131h2.854v9.648h1.234v-9.648h2.853v-1.131zm5.366 2.6a3.369 3.369 0 0 0-1.286.246 3.256 3.256 0 0 0-1.077.722v-4.258h-1.2v11.464h1.2v-6.253a3.549 3.549 0 0 1 .958-.573 2.894 2.894 0 0 1 1.048-.186 1.377 1.377 0 0 1 1.62 1.488v5.524h1.2v-5.628a2.593 2.593 0 0 0-.646-1.868 2.4 2.4 0 0 0-1.821-.678zm11.044 3.842a4.282 4.282 0 0 0-.848-2.829 3.263 3.263 0 0 0-4.808.089 4.861 4.861 0 0 0-.869 3.082 4.568 4.568 0 0 0 .943 3.067 3.286 3.286 0 0 0 2.639 1.1 4.956 4.956 0 0 0 1.419-.2 3.436 3.436 0 0 0 1.152-.573l-.461-.953a3.673 3.673 0 0 1-2.036.595 2.243 2.243 0 0 1-1.747-.677 3.127 3.127 0 0 1-.676-2.018h5.232a3.082 3.082 0 0 0 .06-.684zm-3.241-2.755a1.806 1.806 0 0 1 1.472.648 2.822 2.822 0 0 1 .55 1.809H455.4q.208-2.457 2.036-2.457zm16.826-1.087a3.246 3.246 0 0 0-2.527 1.236 1.962 1.962 0 0 0-.818-.916 2.556 2.556 0 0 0-1.308-.32 3.109 3.109 0 0 0-2.378 1.072v-.878h-1.114v7.98h1.2v-6.253a3.713 3.713 0 0 1 .937-.573 2.634 2.634 0 0 1 1-.186 1.576 1.576 0 0 1 1.137.379 1.473 1.473 0 0 1 .394 1.109v5.524h1.2v-5.628a3.781 3.781 0 0 0-.045-.595 3.578 3.578 0 0 1 .951-.6 2.656 2.656 0 0 1 1.011-.193 1.55 1.55 0 0 1 1.13.379 1.489 1.489 0 0 1 .386 1.109v5.524h1.2v-5.628a2.651 2.651 0 0 0-.624-1.868 2.246 2.246 0 0 0-1.739-.678zm5.024 8.174h1.2v-7.98h-1.2v7.98zm.594-9.365a.817.817 0 0 0 .617-.223.865.865 0 0 0 .215-.625.846.846 0 0 0-.215-.611.965.965 0 0 0-1.234 0 .865.865 0 0 0-.215.625.845.845 0 0 0 .215.611.819.819 0 0 0 .617.223zm9.052 9.365l-2.616-4.079 2.586-3.9h-1.4l-1.843 2.948-1.784-2.948h-1.412l2.5 3.945-2.6 4.035h1.383l1.858-3.1 1.9 3.1h1.427zm7.818.1a3.935 3.935 0 0 0 1.219-.178l-.208-1.043a2.642 2.642 0 0 1-.818.134 1.37 1.37 0 0 1-1.1-.416 2 2 0 0 1-.356-1.311v-4.243h2.378v-1.027h-2.378v-2.353h-1.2v2.353h-1.353v1.027h1.353v4.422a2.781 2.781 0 0 0 .624 1.973 2.411 2.411 0 0 0 1.843.662zm6.525-8.278a3.369 3.369 0 0 0-1.286.246 3.256 3.256 0 0 0-1.077.722v-4.258h-1.2v11.464h1.2v-6.253a3.538 3.538 0 0 1 .959-.573 2.885 2.885 0 0 1 1.047-.186 1.377 1.377 0 0 1 1.621 1.488v5.524h1.2v-5.628a2.593 2.593 0 0 0-.646-1.868 2.4 2.4 0 0 0-1.821-.678zm7.476 0a5.083 5.083 0 0 0-2.333.551l.312 1a4.308 4.308 0 0 1 1.873-.417 2.114 2.114 0 0 1 1.375.387 1.383 1.383 0 0 1 .468 1.131v.522a7.58 7.58 0 0 0-3.634.692 2.254 2.254 0 0 0-1.167 2.092 2.317 2.317 0 0 0 .654 1.757 2.563 2.563 0 0 0 1.843.625 3.218 3.218 0 0 0 1.4-.29 2.45 2.45 0 0 0 1-.871v1h1.1v-5.628a2.315 2.315 0 0 0-.788-1.9 3.2 3.2 0 0 0-2.1-.648zm-.341 7.251a1.708 1.708 0 0 1-1.167-.35 1.31 1.31 0 0 1-.394-1.035 1.375 1.375 0 0 1 .869-1.31 6.8 6.8 0 0 1 2.728-.432v2.189a2.651 2.651 0 0 1-2.036.938zm8.592 1.036a3.924 3.924 0 0 0 1.218-.178l-.208-1.043a2.635 2.635 0 0 1-.817.134 1.368 1.368 0 0 1-1.1-.416 1.99 1.99 0 0 1-.357-1.311v-4.243h2.378v-1.027h-2.378v-2.353h-1.2v2.353h-1.352v1.027h1.352v4.422a2.776 2.776 0 0 0 .625 1.973 2.411 2.411 0 0 0 1.843.662zm9.111.09a2.984 2.984 0 0 0 2.467-1.072 6.061 6.061 0 0 0 0-6.231 2.974 2.974 0 0 0-2.452-1.065 3.014 3.014 0 0 0-2.475 1.065 6.047 6.047 0 0 0-.007 6.238 2.99 2.99 0 0 0 2.467 1.065zm0-1.087a1.753 1.753 0 0 1-1.553-.782 5.324 5.324 0 0 1 0-4.623 1.762 1.762 0 0 1 1.568-.789 1.734 1.734 0 0 1 1.538.789 5.324 5.324 0 0 1 0 4.623 1.754 1.754 0 0 1-1.553.782zm9.037-7.281a3.173 3.173 0 0 0-2.438 1.072v-.878h-1.11v7.98h1.2v-6.253a3.583 3.583 0 0 1 .952-.573 2.828 2.828 0 0 1 1.04-.186 1.7 1.7 0 0 1 1.2.379 1.441 1.441 0 0 1 .408 1.109v5.524h1.2v-5.628a2.593 2.593 0 0 0-.646-1.868 2.377 2.377 0 0 0-1.806-.678zm6.792 8.263a3.946 3.946 0 0 0 .967-.119l-.119-1.027a3.089 3.089 0 0 1-.58.06.846.846 0 0 1-.609-.187.807.807 0 0 1-.194-.6v-9.677h-1.2v9.782a1.551 1.551 0 0 0 1.739 1.771zm7.165-8.069l-2.111 6.566-2.111-6.566h-1.308l2.81 8.055a3.642 3.642 0 0 1-1.041 1.243 6.247 6.247 0 0 1-1.724.886l.431 1.057a5.355 5.355 0 0 0 3.552-3.216l2.78-8.025H551.1zm9.319-.194a2.617 2.617 0 0 0-2.289 1.236v-1.042h-1.115V194.8h1.2V191a2.559 2.559 0 0 0 .9.67 2.766 2.766 0 0 0 1.152.239 2.729 2.729 0 0 0 2.312-1.095 4.958 4.958 0 0 0 .825-3.044 5.332 5.332 0 0 0-.788-3.112 2.543 2.543 0 0 0-2.2-1.117zm-.238 7.266a2.632 2.632 0 0 1-1.962-.879v-4.3a2.839 2.839 0 0 1 .87-.7 2.234 2.234 0 0 1 1-.223 1.735 1.735 0 0 1 1.546.781 5.371 5.371 0 0 1 .022 4.564 1.654 1.654 0 0 1-1.479.759zm7.09 1a3.932 3.932 0 0 0 .966-.119l-.119-1.027a3.079 3.079 0 0 1-.579.06.85.85 0 0 1-.61-.187.807.807 0 0 1-.193-.6v-9.677h-1.2v9.782a1.551 1.551 0 0 0 1.739 1.771zm5.232-8.263a5.09 5.09 0 0 0-2.334.551l.313 1a4.3 4.3 0 0 1 1.872-.417 2.112 2.112 0 0 1 1.375.387 1.383 1.383 0 0 1 .468 1.131v.522a7.58 7.58 0 0 0-3.634.692 2.253 2.253 0 0 0-1.168 2.09 2.313 2.313 0 0 0 .654 1.757 2.562 2.562 0 0 0 1.843.625 3.221 3.221 0 0 0 1.4-.29 2.45 2.45 0 0 0 1-.871v1h1.1v-5.628a2.315 2.315 0 0 0-.787-1.9 3.2 3.2 0 0 0-2.1-.648zm-.342 7.251a1.711 1.711 0 0 1-1.167-.35 1.313 1.313 0 0 1-.394-1.035 1.374 1.374 0 0 1 .87-1.31 6.8 6.8 0 0 1 2.727-.432v2.189a2.648 2.648 0 0 1-2.036.938zm10.286-7.057l-2.112 6.562-2.111-6.566h-1.308l2.81 8.055a3.642 3.642 0 0 1-1.041 1.243 6.262 6.262 0 0 1-1.724.886l.431 1.057a5.355 5.355 0 0 0 3.552-3.216l2.78-8.025h-1.278zm4.919 8.159a3.267 3.267 0 0 0 2.141-.64 2.177 2.177 0 0 0 .773-1.772 2.082 2.082 0 0 0-.513-1.467 3.064 3.064 0 0 0-1.6-.811l-1.055-.253a1.9 1.9 0 0 1-.877-.425.96.96 0 0 1-.283-.722 1.007 1.007 0 0 1 .4-.863 1.948 1.948 0 0 1 1.174-.3 4.429 4.429 0 0 1 2.036.536l.476-1.027a5.65 5.65 0 0 0-2.482-.6 3.085 3.085 0 0 0-2.059.626 2.145 2.145 0 0 0-.736 1.727 1.969 1.969 0 0 0 .521 1.421 3.162 3.162 0 0 0 1.605.8l1.055.253a1.808 1.808 0 0 1 .87.432 1.043 1.043 0 0 1 .275.759 1.061 1.061 0 0 1-.439.923 2.2 2.2 0 0 1-1.286.313 4.185 4.185 0 0 1-2.274-.655l-.431 1.027a4.327 4.327 0 0 0 1.241.529 5.726 5.726 0 0 0 1.464.186zm-117.496 10.332l-1.71 6.67-1.724-6.67h-1.263l-1.695 6.67-1.724-6.67h-1.293l2.334 7.98h1.323l1.664-6.3 1.68 6.3h1.338l2.333-7.98h-1.263zm6.659-.194a3.365 3.365 0 0 0-1.286.246 3.229 3.229 0 0 0-1.078.722v-4.258h-1.2v11.464h1.2v-6.253a3.584 3.584 0 0 1 .959-.574 2.891 2.891 0 0 1 1.048-.186 1.377 1.377 0 0 1 1.62 1.489v5.524H479v-5.628a2.6 2.6 0 0 0-.647-1.869 2.4 2.4 0 0 0-1.82-.677zm11.043 3.841a4.283 4.283 0 0 0-.847-2.829 3.264 3.264 0 0 0-4.808.09 4.859 4.859 0 0 0-.87 3.082 4.565 4.565 0 0 0 .944 3.067 3.288 3.288 0 0 0 2.638 1.1 4.963 4.963 0 0 0 1.42-.2 3.437 3.437 0 0 0 1.152-.573l-.461-.953a3.669 3.669 0 0 1-2.037.6 2.243 2.243 0 0 1-1.746-.677 3.124 3.124 0 0 1-.676-2.018h5.232a3.17 3.17 0 0 0 .059-.685zm-3.24-2.754a1.8 1.8 0 0 1 1.471.648 2.818 2.818 0 0 1 .55 1.809H482.3q.207-2.457 2.036-2.457zm8.858-1.087a3.168 3.168 0 0 0-2.437 1.072v-.878h-1.115v7.98h1.2v-6.253a3.626 3.626 0 0 1 .951-.574 2.834 2.834 0 0 1 1.041-.186 1.7 1.7 0 0 1 1.2.38 1.438 1.438 0 0 1 .409 1.109v5.524h1.2v-5.628a2.6 2.6 0 0 0-.647-1.869 2.38 2.38 0 0 0-1.806-.677zm12.545.194l-2.11 6.565-2.111-6.565h-1.308l2.809 8.054a3.63 3.63 0 0 1-1.04 1.243 6.207 6.207 0 0 1-1.724.886l.431 1.057a5.355 5.355 0 0 0 3.552-3.216l2.779-8.024h-1.278zm5.693 8.173a2.982 2.982 0 0 0 2.467-1.072 6.059 6.059 0 0 0 0-6.23 2.974 2.974 0 0 0-2.452-1.065 3.014 3.014 0 0 0-2.475 1.065 6.047 6.047 0 0 0-.007 6.238 2.989 2.989 0 0 0 2.467 1.064zm0-1.086a1.753 1.753 0 0 1-1.553-.782 5.324 5.324 0 0 1 0-4.623 1.762 1.762 0 0 1 1.568-.789 1.735 1.735 0 0 1 1.538.789 5.324 5.324 0 0 1 0 4.623 1.754 1.754 0 0 1-1.553.782zm10.092-7.087v6.119a2.75 2.75 0 0 1-.884.677 2.511 2.511 0 0 1-1.063.216 1.617 1.617 0 0 1-1.167-.38 1.471 1.471 0 0 1-.394-1.109v-5.523h-1.2v5.642a2.58 2.58 0 0 0 .64 1.861 2.325 2.325 0 0 0 1.768.67 2.8 2.8 0 0 0 2.393-1.176v.983h1.115v-7.98h-1.2zm15.428-.194a3.245 3.245 0 0 0-2.526 1.236 1.967 1.967 0 0 0-.818-.916 2.561 2.561 0 0 0-1.308-.32 3.105 3.105 0 0 0-2.378 1.072v-.878h-1.115v7.98h1.2v-6.253a3.713 3.713 0 0 1 .937-.574 2.633 2.633 0 0 1 1-.186 1.573 1.573 0 0 1 1.137.38 1.469 1.469 0 0 1 .394 1.109v5.524h1.2v-5.628a3.93 3.93 0 0 0-.044-.6 3.573 3.573 0 0 1 .951-.6 2.657 2.657 0 0 1 1.011-.194 1.548 1.548 0 0 1 1.129.38 1.486 1.486 0 0 1 .387 1.109v5.524h1.2v-5.628a2.651 2.651 0 0 0-.625-1.869 2.247 2.247 0 0 0-1.739-.677zm7.774 8.367a2.982 2.982 0 0 0 2.467-1.072 6.059 6.059 0 0 0 0-6.23 2.974 2.974 0 0 0-2.452-1.065 3.014 3.014 0 0 0-2.475 1.065 6.053 6.053 0 0 0-.007 6.238 2.989 2.989 0 0 0 2.467 1.064zm0-1.086a1.753 1.753 0 0 1-1.553-.782 5.324 5.324 0 0 1 0-4.623 1.762 1.762 0 0 1 1.568-.789 1.734 1.734 0 0 1 1.538.789 5.324 5.324 0 0 1 0 4.623 1.754 1.754 0 0 1-1.553.782zm10-7.087l-2.125 6.685-2.156-6.685h-1.308l2.78 7.98h1.323l2.764-7.98h-1.275zm8.859 3.647a4.284 4.284 0 0 0-.848-2.829 3.264 3.264 0 0 0-4.808.09 4.859 4.859 0 0 0-.869 3.082 4.57 4.57 0 0 0 .943 3.067 3.29 3.29 0 0 0 2.639 1.1 4.956 4.956 0 0 0 1.419-.2 3.418 3.418 0 0 0 1.152-.573l-.461-.953a3.665 3.665 0 0 1-2.036.6 2.243 2.243 0 0 1-1.746-.677 3.124 3.124 0 0 1-.677-2.018h5.232a3.1 3.1 0 0 0 .06-.685zm-3.241-2.754a1.806 1.806 0 0 1 1.472.648 2.818 2.818 0 0 1 .55 1.809h-4.058q.209-2.457 2.036-2.457zM566 210.4a.876.876 0 0 0 .646-.23.9.9 0 0 0 .23-.663.8.8 0 0 0-.876-.878.856.856 0 0 0-.647.238.9.9 0 0 0-.23.655.8.8 0 0 0 .877.878z" transform="translate(-437.312 -180.25)"/></svg></svg>