<?xml version="1.0" encoding="utf-8"?>
<!-- Generator: Adobe Illustrator 16.0.4, SVG Export Plug-In . SVG Version: 6.00 Build 0)  -->
<!DOCTYPE svg PUBLIC "-//W3C//DTD SVG 1.1//EN" "http://www.w3.org/Graphics/SVG/1.1/DTD/svg11.dtd">
<svg version="1.1" id="Layer_1" xmlns="http://www.w3.org/2000/svg" xmlns:xlink="http://www.w3.org/1999/xlink" x="0px" y="0px"
	 width="300px" height="600px" viewBox="0 0 300 600" style="enable-background:new 0 0 300 600;" xml:space="preserve">
<style type="text/css">
<![CDATA[
	.st0{fill:#231F20;}
	.st1{fill:#FFFFFF;}
	.st2{fill:#666766;}
	.st3{fill:#676767;}
]]>
</style>
<symbol  id="cta_2" viewBox="-47.4 -3.5 94.7 7">
	<g>
		<path class="st3" d="M-47.4,2.5h3.5V1.7h-2.6V0h2.6v-0.8h-2.6v-1.7h2.6v-0.8h-3.5V2.5z"/>
		<path class="st3" d="M-41.1-2.3l0.8,0.6c0.3-0.6,0.8-0.8,1.4-0.8c0.6,0,1.1,0.4,1.1,0.9c0,0.6-0.6,0.8-1.3,1
			C-39.9-0.3-40.8,0-40.8,1c0,0.9,0.8,1.6,1.9,1.6c0.9,0,1.4-0.3,1.9-0.9l-0.7-0.5c-0.5,0.4-0.9,0.6-1.4,0.6c-0.6,0-1-0.4-1-0.8
			c0-0.6,0.6-0.7,1.3-1c0.8-0.3,1.7-0.6,1.7-1.7c0-0.9-0.7-1.8-1.9-1.8C-40-3.4-40.6-3-41.1-2.3z"/>
		<path class="st3" d="M-34.4-0.4c0,1.7,1.3,3,3,3c1.1,0,2.1-0.6,2.6-1.5l-0.8-0.5c-0.4,0.7-1,1.1-1.8,1.1c-1.2,0-2.1-1-2.1-2.2
			s0.9-2.1,2.1-2.1c0.9,0,1.6,0.5,1.9,1.2l0.8-0.4c-0.5-1-1.5-1.6-2.7-1.6C-33-3.4-34.4-2.1-34.4-0.4z"/>
		<path class="st3" d="M-26-0.4c0,1.7,1.3,3,3,3c1.7,0,3-1.3,3-3s-1.3-3-3-3C-24.6-3.4-26-2.1-26-0.4z M-20.9-0.4
			c0,1.2-0.9,2.2-2.1,2.2c-1.2,0-2.1-1-2.1-2.2s0.9-2.2,2.1-2.2C-21.9-2.6-20.9-1.6-20.9-0.4z"/>
		<path class="st3" d="M-17.1-0.4c0,1.7,1.3,3,3,3c1.2,0,2.1-0.6,2.6-1.5l-0.8-0.5c-0.3,0.7-1,1.2-1.8,1.2c-1.3,0-2.2-1-2.2-2.2
			s0.9-2.2,2.2-2.2c1.1,0,1.8,0.7,2,1.6h-2.1v0.8h3v-0.3c0-1.6-1.1-3-2.9-3C-15.9-3.4-17.1-2-17.1-0.4z"/>
		<path class="st3" d="M-8.4,2.5h3.5V1.7h-2.6V0h2.6v-0.8h-2.6v-1.7h2.6v-0.8h-3.5V2.5z"/>
		<path class="st3" d="M4.2,2.5h0.9l2.1-5.8H6.4L5.9-2.1H3.4L3-3.3H2.1L4.2,2.5z M3.8-1.3h1.9L4.8,1.3L3.8-1.3z"/>
		<path class="st3" d="M13.6-0.8h-2.6v-2.5h-0.9v5.8h0.9V0h2.6v2.5h0.9v-5.8h-0.9V-0.8z"/>
		<path class="st3" d="M17.5-0.4c0,1.7,1.3,3,3,3c1.7,0,3-1.3,3-3s-1.3-3-3-3C18.8-3.4,17.5-2.1,17.5-0.4z M22.6-0.4
			c0,1.2-0.9,2.2-2.1,2.2c-1.2,0-2.1-1-2.1-2.2s0.9-2.2,2.1-2.2C21.6-2.6,22.6-1.6,22.6-0.4z"/>
		<path class="st3" d="M26.4,2.5h1.8c1.2,0,2.1-0.8,2.1-1.9c0-0.8-0.4-1.5-1.3-1.8l1.4-2.1h-1l-1.8,2.8h0.5c0.9,0,1.3,0.6,1.3,1.1
			c0,0.7-0.4,1.1-1.3,1.1h-0.9v-5h-0.8V2.5z"/>
		<path class="st3" d="M35.1,2.5h0.9l2.1-5.8h-0.9l-0.5,1.2h-2.4L34-3.3h-0.9L35.1,2.5z M34.6-1.3h1.9l-0.9,2.6L34.6-1.3z"/>
	</g>
	<path class="st0" d="M36.2-0.4"/>
	<polygon class="st3" points="44.1,3.5 43.4,2.7 45.9,0 43.4,-2.8 44.1,-3.5 47.4,0 	"/>
</symbol>
<symbol  id="cta_x5F_over_2" viewBox="-47.9 -3.6 95.8 7.1">
	<g id="cta_x5F_hover_1_">
		<g>
			<path class="st1" d="M-47.9,2.5h3.5V1.8H-47V0h2.6v-0.8H-47v-1.7h2.6v-0.8h-3.5V2.5z"/>
			<path class="st1" d="M-41.7-2.2l0.8,0.6c0.3-0.6,0.8-0.8,1.4-0.8s1.1,0.4,1.1,0.9c0,0.6-0.6,0.8-1.3,1C-40.5-0.2-41.3,0-41.3,1
				c0,0.9,0.8,1.6,1.9,1.6c0.9,0,1.4-0.3,1.9-0.9l-0.7-0.5c-0.5,0.4-0.9,0.6-1.4,0.6c-0.6,0-1-0.4-1-0.8c0-0.6,0.6-0.7,1.3-1
				c0.8-0.3,1.7-0.6,1.7-1.7c0-0.9-0.7-1.8-1.9-1.8C-40.6-3.4-41.2-3-41.7-2.2z"/>
			<path class="st1" d="M-34.9-0.4c0,1.7,1.3,3,3,3c1.1,0,2.1-0.6,2.6-1.5l-0.8-0.5c-0.4,0.7-1,1.1-1.8,1.1c-1.2,0-2.1-1-2.1-2.2
				s0.9-2.1,2.1-2.1c0.9,0,1.6,0.5,1.9,1.2l0.8-0.4c-0.5-1-1.5-1.6-2.7-1.6C-33.6-3.4-34.9-2.1-34.9-0.4z"/>
			<path class="st1" d="M-26.6-0.4c0,1.7,1.3,3,3,3s3-1.3,3-3s-1.3-3-3-3C-25.2-3.4-26.6-2.1-26.6-0.4z M-21.5-0.4
				c0,1.2-0.9,2.2-2.1,2.2s-2.1-1-2.1-2.2s0.9-2.2,2.1-2.2S-21.5-1.6-21.5-0.4z"/>
			<path class="st1" d="M-17.7-0.4c0,1.7,1.3,3,3,3c1.2,0,2.1-0.6,2.6-1.5l-0.8-0.5c-0.4,0.7-1,1.1-1.9,1.1c-1.3,0-2.2-1-2.2-2.2
				s0.9-2.2,2.2-2.2c1.1,0,1.8,0.7,2,1.6h-2.1v0.8h3v-0.3c0-1.6-1.1-3-2.9-3C-16.5-3.4-17.7-2-17.7-0.4z"/>
			<path class="st1" d="M-8.9,2.5h3.5V1.8H-8V0h2.6v-0.8H-8v-1.7h2.6v-0.8h-3.5V2.5z"/>
			<path class="st1" d="M3.7,2.5h0.9l2.1-5.8H5.8L5.3-2.1H2.9L2.5-3.2H1.6L3.7,2.5z M3.2-1.2h1.9L4.2,1.3L3.2-1.2z"/>
			<path class="st1" d="M13.1-0.8h-2.6v-2.5H9.6v5.8h0.9V0h2.6v2.5H14v-5.8h-0.9V-0.8z"/>
			<path class="st1" d="M16.9-0.4c0,1.7,1.3,3,3,3s3-1.3,3-3s-1.3-3-3-3S16.9-2.1,16.9-0.4z M22-0.4c0,1.2-0.9,2.2-2.1,2.2
				s-2.1-1-2.1-2.2s0.9-2.2,2.1-2.2S22-1.6,22-0.4z"/>
			<path class="st1" d="M25.8,2.5h1.8c1.2,0,2.1-0.8,2.1-1.9c0-0.8-0.4-1.5-1.3-1.8l1.4-2.2h-1L27-0.6h0.5c0.9,0,1.3,0.6,1.3,1.2
				c0,0.7-0.4,1.1-1.3,1.1h-0.9v-5h-0.9v5.8H25.8z"/>
			<path class="st1" d="M34.6,2.5h0.9l2.1-5.8h-0.9l-0.5,1.2h-2.5l-0.4-1.2h-0.9L34.6,2.5z M34.1-1.2h1.8L35,1.3L34.1-1.2z"/>
		</g>
		<path class="st1" d="M36.8-0.4"/>
		<polygon class="st1" points="44.6,3.5 43.9,2.8 46.4,0 43.9,-2.8 44.6,-3.5 47.9,0 		"/>
	</g>
</symbol>
<symbol  id="edge" viewBox="-44.6 -10.5 89.2 21">
	<g>
		<path class="st3" d="M4.5,3.7c-0.8,0.9-2,1.5-3.3,1.5c-2.6,0-5.1-2-5.1-5.4c0-3.4,2.6-5.4,5.1-5.4C2.6-5.6,3.8-5,4.6-4v-1.4H7V7.7
			H4.6v-4H4.5z M1.5-3.5c-1.8,0-3.1,1.4-3.1,3.2s1.4,3.2,3.1,3.2c1.8,0,3.1-1.4,3.1-3.2C4.6-2,3.3-3.5,1.5-3.5z"/>
		<path class="st3" d="M-10.3,5.1c-3,0-5.4-2.4-5.4-5.4s2.2-5.4,5.5-5.4c2.3,0,3.9,1.2,4.8,2.8l-2,1.1c-0.5-1.1-1.5-1.8-2.8-1.8
			c-1.7,0-2.9,1-3.2,2.4H-5v0.9C-4.9,2.9-7.2,5.1-10.3,5.1z M-13.2,0.9c0.4,1.2,1.6,2.1,3,2.1c1.5,0,2.5-0.8,2.9-2.1H-13.2z"/>
		<path class="st3" d="M-25.4,5.2c-0.3,0-0.6,0-0.9-0.1l3.3,5.2h-3.5l-4.1-6.6c-0.7-1.1-1.2-2.5-1.2-4c0-3,2.4-5.5,5.7-5.5
			c3.2,0,5.7,2.3,5.7,5.5C-20.3,3-22.6,5.2-25.4,5.2z M-26.1-3c-1.5,0-2.8,1.3-2.8,2.8c0,1.6,1.2,2.9,2.8,2.9c1.5,0,2.8-1.3,2.8-2.8
			C-23.2-1.7-24.5-3-26.1-3z"/>
		<path class="st3" d="M16.6,3.6c-0.7,0.9-2,1.5-3.3,1.5c-2.6,0-5.1-2-5.1-5.4c0-3.4,2.6-5.4,5.1-5.4c1.4,0,2.6,0.6,3.4,1.6v-1.2
			c0-1.6-1.1-3-2.9-3c-1.6,0-2.5,0.7-3.2,2.1L8.3-7.5c0.9-1.7,2.6-3,5.3-3c3.5,0,5.3,2.4,5.3,5.3V4.9h-2.4V3.6H16.6z M13.6-3.5
			c-1.8,0-3.1,1.4-3.1,3.2s1.4,3.2,3.1,3.2c1.8,0,3.1-1.4,3.1-3.2C16.7-2,15.4-3.5,13.6-3.5z"/>
		<path class="st3" d="M25.6,5.1c-3,0-5.4-2.4-5.4-5.4s2.2-5.4,5.5-5.4c2.3,0,3.9,1.2,4.8,2.8l-2,1.1C28-2.9,27-3.6,25.6-3.6
			c-1.7,0-2.9,1-3.2,2.4h8.4v0.9C30.9,2.9,28.7,5.1,25.6,5.1z M22.6,0.9C23,2.1,24.1,3,25.6,3s2.5-0.8,2.9-2.1H22.6z"/>
		<path class="st3" d="M-37.6,3.9c-1.7,0.6-3.2,1-3.2,2.2c0,1,0.8,1.8,2.2,1.8c1.3,0,2.2-0.5,2.8-1.5l2.4,1.8
			c-1.2,1.3-2.7,2.3-5.2,2.3c-3,0-5.2-2-5.2-4.5c0-3,2.4-3.8,4.5-4.5C-37.6,1-36,0.6-36-0.8c0-1.1-0.8-2.1-2.4-2.1
			c-1.4,0-2.7,0.8-3.5,2.1l-2.7-2.1c1.4-1.6,3.3-2.8,6.2-2.8c3.5,0,5.4,2.4,5.4,4.9C-33,2.2-35.4,3.2-37.6,3.9z"/>
		<polygon class="st3" points="40.6,1 40.6,4.9 38.2,4.9 38.2,1 34.2,1 34.2,-1.5 38.2,-1.5 38.2,-5.4 40.6,-5.4 40.6,-1.5 
			44.6,-1.5 44.6,1 		"/>
	</g>
</symbol>
<symbol  id="galaxy" viewBox="-38.5 -10.4 77.1 20.7">
	<g>
		<polygon class="st3" points="-6.1,-5.7 -3.2,-5.7 -3.2,10.3 -6.1,10.3 		"/>
		<path class="st3" d="M-11,5.4c-0.9,1.1-2.4,1.8-4.1,1.8c-3.2,0-6.3-2.4-6.3-6.6c0-4.1,3.2-6.6,6.2-6.6c1.7,0,3.2,0.7,4.1,1.9v-1.6
			h2.9V6.9h-2.9V5.4H-11z M-14.8-3.2c-2.2,0-3.8,1.7-3.8,3.9s1.7,3.9,3.8,3.9c2.2,0,3.8-1.7,3.8-3.9C-10.9-1.5-12.5-3.2-14.8-3.2z"
			/>
		<path class="st3" d="M-30.8,0.4h5C-26.4-1.7-28-3-30.4-3c-3.1,0-5.3,2.3-5.3,5.2c0,2.9,2.2,5.2,5.2,5.2c2.1,0,3.6-1,4.6-2.7
			l2.6,1.6c-1.3,2.3-3.9,4-7.2,4c-4.6,0-8-3.6-8-8.1c0-4.4,3.3-8.1,8.2-8.1c4.7,0,7.7,3.6,7.7,7.9v1.2h-8.2V0.4z"/>
		<polygon class="st3" points="25.2,7 21.8,7 19,3 16.1,7 12.5,7 17.1,0.8 12.4,-5.7 15.9,-5.7 18.9,-1.5 22,-5.7 25.6,-5.7 
			20.7,0.8 		"/>
		<path class="st3" d="M8.7,5.4C7.8,6.5,6.2,7.2,4.6,7.2c-3.2,0-6.3-2.4-6.3-6.6C-1.8-3.5,1.5-6,4.5-6c1.7,0,3.2,0.7,4.1,1.9v-1.6
			h2.9V6.9H8.6V5.4H8.7z M5-3.2c-2.2,0-3.8,1.7-3.8,3.9S2.9,4.5,5,4.5c2.2,0,3.8-1.7,3.8-3.9C8.8-1.5,7.2-3.2,5-3.2z"/>
		<polygon class="st3" points="35.5,7 32.2,-1.5 28.7,7 25.6,7 30.8,-5 28.5,-10.4 31.5,-10.4 38.6,7 		"/>
	</g>
</symbol>
<symbol  id="note" viewBox="-30.8 -8.5 61.6 16.9">
	<g>
		<path class="st3" d="M-30.8,7.7h3.3L-20.7-3V7.7h2.9V-8.1h-3l-7,11.1V-8.1h-3V7.7z"/>
		<path class="st3" d="M-16.4-1.8c0,3.7,2.9,6.6,6.5,6.6s6.5-2.9,6.5-6.6s-2.9-6.6-6.5-6.6C-13.5-8.3-16.4-5.5-16.4-1.8z M-6.2-1.8
			C-6.2,0.2-7.8,2-9.9,2s-3.7-1.7-3.7-3.8c0-2.1,1.6-3.8,3.7-3.8S-6.2-4-6.2-1.8z"/>
		<path class="st3" d="M-3.1,4.5h2.2v1.9l2.9,2V4.5h2.6V2H2v-4.7C2-5,2.3-5.2,4.6-5.2V-8H4.2C0.3-8-0.9-6.6-0.9-2.6v4.8h-2.2V4.5z"
			/>
		<path class="st3" d="M5.1-1.8c0,3.7,2.9,6.6,6.6,6.6c3.8,0,6.5-2.8,6.5-6.5v-1.1H7.9c0.4-1.8,1.8-3,3.9-3c1.6,0,2.9,0.9,3.5,2.2
			L17.7-5c-1.1-2-3.1-3.4-5.9-3.4C7.8-8.3,5.1-5.5,5.1-1.8z M8.1-0.3h7.1c-0.4,1.7-1.7,2.6-3.5,2.6S8.6,1.2,8.1-0.3z"/>
	</g>
	<g>
		<path class="st3" d="M20-5.3l2.7,1.6c0.5-1,1.3-1.9,2.7-1.9c1.3,0,2.4,1,2.4,2.5s-1,2.6-2.5,2.6c-1.2,0-2-0.7-2.5-1.6l-2.6,1.4
			l1.1,8.4h8.8V5h-6.4l-0.5-3.5c0.6,0.4,1.4,0.7,2.5,0.7c2.8,0,5.1-1.9,5.1-5.3c0-3.1-2.3-5.2-5.4-5.2C22.6-8.3,20.8-6.8,20-5.3z"/>
	</g>
</symbol>
<symbol  id="samsung" viewBox="-23.9 -3.7 47.8 7.4">
	<g>
		<polygon class="st3" points="15.6,-1.9 15.6,-1.9 14,3.5 11.5,3.5 11.5,-3.3 13.2,-3.3 13.1,2.3 13.1,2.3 14.8,-3.3 17.2,-3.3 
			17.2,3.5 15.6,3.5 		"/>
		<polygon class="st3" points="-16.6,3.5 -17.9,-3.3 -16,-3.3 -15.1,2.9 -15,2.9 -14.1,-3.3 -12.3,-3.3 -13.6,3.5 		"/>
		<polygon class="st3" points="-6.3,3.5 -7.1,-1.7 -7.2,-1.7 -8,3.5 -10.8,3.5 -10.9,-3.3 -9.2,-3.3 -9.2,2.8 -9.1,2.8 -8,-3.3 
			-6.3,-3.3 -5.1,2.8 -5.1,2.8 -5,-3.3 -3.3,-3.3 -3.5,3.5 		"/>
		<path class="st3" d="M-22.1,1.7c0,0.1,0,0.3,0,0.4c0,0.2,0.2,0.5,0.6,0.5s0.6-0.2,0.6-0.6c0-0.1,0-0.4,0-0.4h1.7v0.5
			c0.1,1.4-1.3,1.6-2.2,1.6c-1.2,0-2.2-0.4-2.4-1.5c0-0.3-0.1-0.6,0-0.9c0.3-1.4,2.7-1.8,3.1-2.7c0.1-0.2,0-0.4,0-0.5
			c-0.1-0.2-0.2-0.5-0.7-0.5c-0.4,0-0.7,0.2-0.7,0.6v0.7h-1.8v-0.5c0-1.5,1.2-2,2.5-2c1.2,0,2.3,0.4,2.4,1.6c0.1,0.6,0,1,0,1.1
			C-19.3,0.5-21.9,0.9-22.1,1.7z"/>
		<path class="st3" d="M0.1,1.7c0,0.1,0,0.3,0,0.4c0,0.2,0.2,0.5,0.6,0.5S1.3,2.4,1.3,2c0-0.1,0-0.4,0-0.4h1.8v0.5
			c0,1.3-1.4,1.6-2.3,1.6c-1.2,0-2.2-0.4-2.4-1.5c-0.1-0.3-0.1-0.6,0-0.9c0.3-1.4,2.7-1.8,3-2.7c0.1-0.2,0-0.4,0-0.5
			C1.3-2.1,1.2-2.4,0.7-2.4C0.3-2.4,0-2.2,0-1.8v0.7h-1.8v-0.5c0-1.5,1.2-2,2.5-2c1.2,0,2.2,0.4,2.4,1.5c0.1,0.6,0,1,0,1.1
			C2.9,0.5,0.3,0.9,0.1,1.7z"/>
		<path class="st3" d="M7.9-1.6c0-0.1,0-0.2,0-0.3c0-0.2-0.2-0.5-0.7-0.5S6.6-2.1,6.5-1.9c0,0.1,0,0.2,0,0.3v5H4.8v-4.9
			c0-0.1,0-0.4,0-0.5c0.1-1.3,1.1-1.7,2.4-1.7c1.3,0,2.3,0.4,2.4,1.7c0,0.1,0,0.3,0,0.5v4.9H7.9V-1.6z"/>
		<path class="st3" d="M21.5,0.5v-1h0.7v-1c0-0.1,0-0.2,0-0.3c-0.1-0.1-0.3-0.5-0.8-0.5S20.7-2,20.7-1.8c0,0.1,0,0.2,0,0.3v3.1
			c0,0.1,0,0.2,0,0.3c0,0.2,0.2,0.5,0.7,0.5s0.7-0.3,0.7-0.5V1.7V1.3h1.7v0.2c0,0,0,0.2,0,0.4c-0.1,1.4-1.1,1.8-2.3,1.8
			c-1.2,0-2.3-0.4-2.4-1.7c0-0.1,0-0.3,0-0.4v-2.9c0-0.1,0-0.2,0-0.5c0.1-1.2,1.2-1.7,2.4-1.7c1.2,0,2.3,0.4,2.4,1.7
			c0,0.2,0,0.3,0,0.5v1.8H21.5z"/>
	</g>
</symbol>
<g>
	
		<use xlink:href="#samsung"  width="47.8" height="7.4" x="-23.9" y="-3.7" transform="matrix(0.9497 0 0 -0.9497 25.5537 83.5142)" style="overflow:visible;"/>
	
		<use xlink:href="#galaxy"  width="77.1" height="20.7" id="XMLID_7_" x="-38.5" y="-10.4" transform="matrix(0.963 0 0 -0.963 37.1235 101.5479)" style="overflow:visible;"/>
	
		<use xlink:href="#edge"  width="89.2" height="21" id="XMLID_5_" x="-44.6" y="-10.5" transform="matrix(0.9585 0 0 -0.9585 44.0459 121.8281)" style="overflow:visible;"/>
</g>
<g>
	
		<use xlink:href="#note"  width="61.6" height="16.9" x="-30.8" y="-8.5" transform="matrix(0.9556 0 0 -0.9556 31.4771 179.7065)" style="overflow:visible;"/>
	
		<use xlink:href="#samsung"  width="47.8" height="7.4" x="-23.9" y="-3.7" transform="matrix(0.9497 0 0 -0.9497 25.5537 143.5142)" style="overflow:visible;"/>
	
		<use xlink:href="#galaxy"  width="77.1" height="20.7" x="-38.5" y="-10.4" transform="matrix(0.963 0 0 -0.963 37.1235 161.5293)" style="overflow:visible;"/>
</g>
<g>
	
		<use xlink:href="#samsung"  width="47.8" height="7.4" x="-23.9" y="-3.7" transform="matrix(0.8119 0 0 -0.8119 21.1621 203.0044)" style="overflow:visible;"/>
	
		<use xlink:href="#galaxy"  width="77.1" height="20.7" x="-38.5" y="-10.4" transform="matrix(0.8163 0 0 -0.8163 31.4683 218.3877)" style="overflow:visible;"/>
	
		<use xlink:href="#edge"  width="89.2" height="21" x="-44.6" y="-10.5" transform="matrix(0.8124 0 0 -0.8124 102.4839 218.5039)" style="overflow:visible;"/>
	
		<use xlink:href="#note"  width="61.6" height="16.9" x="-30.8" y="-8.5" transform="matrix(0.8115 0 0 -0.8115 183.0176 216.4575)" style="overflow:visible;"/>
	<path class="st3" d="M147.7,209.1v15.6h0.9v-15.6H147.7z"/>
</g>
<use xlink:href="#samsung"  width="47.8" height="7.4" id="XMLID_6_" x="-23.9" y="-3.7" transform="matrix(1.2591 0 0 -1.2591 30.5059 4.6577)" style="overflow:visible;enable-background:new    ;"/>
<g>
	<path class="st3" d="M0.9,353.6H4c3.6,0,5.8,2.4,5.8,5.6s-2.4,5.6-5.8,5.6H0.9V353.6z M2.5,355.1v8.1h1.3c2.6,0,4.3-1.7,4.3-4
		s-1.5-4-4.3-4H2.5V355.1z"/>
	<path class="st3" d="M13.5,353.6h6.7v1.6h-5v3.2h5v1.6h-5v3.2h5v1.6h-6.7V353.6z"/>
	<path class="st3" d="M23.7,359.2c0-3.2,2.5-5.7,5.7-5.7c2.1,0,3.9,1.1,4.9,2.8l-1.4,0.9c-0.7-1.3-1.9-2.1-3.5-2.1
		c-2.3,0-4.1,1.8-4.1,4.1s1.7,4.1,4,4.1c1.7,0,3-0.9,3.6-2.3l1.5,0.8c-1,1.9-2.8,3.1-5.1,3.1C26.2,364.9,23.7,362.3,23.7,359.2z"/>
	<path class="st3" d="M38.1,353.6h1.7v11.1h-1.7V353.6z"/>
	<path class="st3" d="M43.2,362.9l1.5-1.1c0.7,1.1,1.5,1.6,2.7,1.6c1.2,0,2-0.8,2-1.8c0-1.1-1.2-1.5-2.5-1.9
		c-1.5-0.5-3.1-1.1-3.1-3.1c0-1.7,1.5-3,3.6-3c1.7,0,2.7,0.7,3.6,1.6l-1.4,1c-0.5-0.8-1.3-1.2-2.2-1.2c-1.1,0-1.9,0.7-1.9,1.5
		c0,1.1,1.2,1.4,2.5,1.8c1.5,0.5,3.2,1.2,3.2,3.2c0,1.7-1.4,3.3-3.7,3.3C45.4,364.9,44.1,364.1,43.2,362.9z"/>
	<path class="st3" d="M54.8,353.6h1.7v11.1h-1.7V353.6z"/>
	<path class="st3" d="M60.2,359.2c0-3.2,2.5-5.7,5.7-5.7c3.2,0,5.7,2.6,5.7,5.7c0,3.2-2.5,5.7-5.7,5.7
		C62.8,364.9,60.2,362.3,60.2,359.2z M70,359.2c0-2.3-1.8-4.1-4.1-4.1c-2.3,0-4,1.9-4,4.1c0,2.3,1.8,4.1,4,4.1
		C68.2,363.3,70,361.4,70,359.2z"/>
	<path class="st3" d="M75.3,353.6h1.9l5.6,8.4v-8.4h1.6v11.1h-1.8l-5.8-8.6v8.6h-1.7v-11.1H75.3z"/>
	<path class="st3" d="M88.5,353.6h6.7v1.6h-5v3.2h5v1.6h-5v3.2h5v1.6h-6.7V353.6z"/>
	<path class="st3" d="M98.4,362.9l1.5-1.1c0.7,1.1,1.5,1.6,2.7,1.6c1.2,0,2-0.8,2-1.8c0-1.1-1.2-1.5-2.5-1.9
		c-1.5-0.5-3.1-1.1-3.1-3.1c0-1.7,1.5-3,3.6-3c1.7,0,2.7,0.7,3.6,1.6l-1.4,1c-0.5-0.8-1.3-1.2-2.2-1.2c-1.1,0-1.9,0.7-1.9,1.5
		c0,1.1,1.2,1.4,2.5,1.8c1.5,0.5,3.2,1.2,3.2,3.2c0,1.7-1.4,3.3-3.7,3.3C100.6,364.9,99.3,364.1,98.4,362.9z"/>
	<path class="st3" d="M109.8,362.6h1.6v2.1h-1.6V362.6z"/>
	<path class="st3" d="M121.4,353.6h3.1c3.6,0,5.8,2.4,5.8,5.6s-2.4,5.6-5.8,5.6h-3.1V353.6z M123.1,355.1v8.1h1.3
		c2.6,0,4.3-1.7,4.3-4s-1.5-4-4.3-4h-1.3V355.1z"/>
	<path class="st3" d="M134,353.6h6.7v1.6h-5v3.2h5v1.6h-5v3.2h5v1.6H134V353.6z"/>
	<path class="st3" d="M144.3,359.2c0-3.2,2.5-5.7,5.7-5.7c2.1,0,3.9,1.1,4.9,2.8l-1.5,0.9c-0.7-1.3-1.9-2.1-3.5-2.1
		c-2.3,0-4.1,1.8-4.1,4.1s1.7,4.1,4,4.1c1.7,0,3-0.9,3.6-2.3l1.5,0.8c-1,1.9-2.8,3.1-5.1,3.1C146.7,364.9,144.3,362.3,144.3,359.2z"
		/>
	<path class="st3" d="M158.6,353.6h1.7v11.1h-1.7V353.6z"/>
	<path class="st3" d="M163.7,362.9l1.5-1.1c0.7,1.1,1.5,1.6,2.7,1.6c1.2,0,2-0.8,2-1.8c0-1.1-1.2-1.5-2.5-1.9
		c-1.5-0.5-3.1-1.1-3.1-3.1c0-1.7,1.5-3,3.6-3c1.7,0,2.7,0.7,3.6,1.6l-1.4,1c-0.5-0.8-1.2-1.2-2.2-1.2c-1.1,0-1.9,0.7-1.9,1.5
		c0,1.1,1.2,1.4,2.5,1.8c1.5,0.5,3.2,1.2,3.2,3.2c0,1.7-1.4,3.3-3.7,3.3C165.9,364.9,164.6,364.1,163.7,362.9z"/>
	<path class="st3" d="M175.3,353.6h1.7v11.1h-1.7V353.6z"/>
	<path class="st3" d="M180.8,359.2c0-3.2,2.5-5.7,5.7-5.7s5.7,2.6,5.7,5.7c0,3.2-2.5,5.7-5.7,5.7S180.8,362.3,180.8,359.2z
		 M190.5,359.2c0-2.3-1.8-4.1-4.1-4.1c-2.3,0-4,1.9-4,4.1c0,2.3,1.8,4.1,4,4.1C188.8,363.3,190.5,361.4,190.5,359.2z"/>
	<path class="st3" d="M195.9,353.6h1.9l5.6,8.4v-8.4h1.6v11.1h-1.8l-5.8-8.6v8.6h-1.7v-11.1H195.9z"/>
	<path class="st3" d="M209,353.6h6.7v1.6h-5v3.2h5v1.6h-5v3.2h5v1.6H209V353.6z"/>
	<path class="st3" d="M218.9,362.9l1.5-1.1c0.7,1.1,1.5,1.6,2.7,1.6c1.2,0,2-0.8,2-1.8c0-1.1-1.2-1.5-2.5-1.9
		c-1.5-0.5-3.1-1.1-3.1-3.1c0-1.7,1.5-3,3.6-3c1.7,0,2.7,0.7,3.6,1.6l-1.4,1c-0.5-0.8-1.3-1.2-2.2-1.2c-1.1,0-1.9,0.7-1.9,1.5
		c0,1.1,1.2,1.4,2.5,1.8c1.5,0.5,3.2,1.2,3.2,3.2c0,1.7-1.4,3.3-3.7,3.3C221.2,364.9,219.9,364.1,218.9,362.9z"/>
	<path class="st3" d="M230.3,362.6h1.6v2.1h-1.6V362.6z"/>
</g>
<g>
	<path class="st3" d="M0.5,309.1c0-2.8,2.3-5.1,5.1-5.1c2.8,0,5.1,2.3,5.1,5.1c0,2.8-2.3,5.1-5.1,5.1C2.7,314.2,0.5,311.9,0.5,309.1
		z M9.2,309.1c0-2-1.6-3.7-3.6-3.7S2,307.1,2,309.1s1.6,3.7,3.6,3.7C7.6,312.7,9.2,311.1,9.2,309.1z"/>
	<path class="st3" d="M13.9,304.1H17c2.1,0,3.5,1.4,3.5,3.2c0,1.3-0.7,2.6-2.1,3l2.4,3.7H19l-3-4.7h0.8c1.5,0,2.2-1,2.2-2
		c0-1.1-0.7-1.9-2.2-1.9h-1.5v8.5h-1.5v-9.8H13.9z"/>
	<path class="st3" d="M23.6,309.1c0-2.8,2.2-5.1,5.1-5.1c2,0,3.6,1,4.4,2.5l-1.3,0.8c-0.6-1.2-1.7-1.9-3.2-1.9
		c-2.1,0-3.6,1.7-3.6,3.7s1.5,3.7,3.7,3.7c1.9,0,3.1-1.1,3.4-2.7h-3.6v-1.4h5.1v0.5c0,2.7-1.8,5-4.9,5
		C25.8,314.2,23.6,311.9,23.6,309.1z"/>
	<path class="st3" d="M39.6,304.1h1.5l3.6,9.9h-1.5l-0.8-2.1h-4.2l-0.8,2.1h-1.5L39.6,304.1z M38.7,310.5h3.1l-1.6-4.3L38.7,310.5z"
		/>
	<path class="st3" d="M47.8,304.1h1.7l5,7.5v-7.5H56v9.9h-1.6l-5.1-7.6v7.6h-1.5V304.1z"/>
	<path class="st3" d="M59.6,304.1h1.5v9.9h-1.5V304.1z"/>
	<path class="st3" d="M64.7,312.7l4.8-7.1h-4.7v-1.4h6.4v1.3l-4.8,7.1h4.8v1.4h-6.6v-1.3H64.7z"/>
	<path class="st3" d="M77.8,304.1h1.5L83,314h-1.5l-0.8-2.1h-4.2l-0.8,2.1h-1.5L77.8,304.1z M77,310.5h3.1l-1.6-4.3L77,310.5z"/>
	<path class="st3" d="M85.2,309.1c0-2.9,2.3-5.1,5.1-5.1c1.9,0,3.5,1,4.4,2.5l-1.3,0.8c-0.6-1.1-1.7-1.9-3.1-1.9
		c-2.1,0-3.6,1.6-3.6,3.7c0,2,1.5,3.6,3.6,3.6c1.5,0,2.6-0.8,3.2-2l1.3,0.7c-0.9,1.7-2.5,2.8-4.5,2.8
		C87.4,314.2,85.2,311.9,85.2,309.1z"/>
	<path class="st3" d="M98,304.1h1.5v9.9H98V304.1z"/>
	<path class="st3" d="M102.8,309.1c0-2.8,2.3-5.1,5.1-5.1c2.8,0,5.1,2.3,5.1,5.1c0,2.8-2.3,5.1-5.1,5.1
		C105.1,314.2,102.8,311.9,102.8,309.1z M111.5,309.1c0-2-1.6-3.7-3.6-3.7s-3.6,1.7-3.6,3.7s1.6,3.7,3.6,3.7
		C109.9,312.7,111.5,311.1,111.5,309.1z M108.8,301.2h1.5l-2,2.3h-1.1L108.8,301.2z"/>
	<path class="st3" d="M116.2,304.1h1.7l5,7.5v-7.5h1.5v9.9h-1.6l-5.1-7.6v7.6h-1.5V304.1z"/>
	<path class="st3" d="M127.8,312.2h1.5v1.9h-1.5V312.2z"/>
</g>
<g>
	<path class="st3" d="M0.7,254.2h2.7c3.2,0,5.1,2.1,5.1,4.9c0,2.8-2.1,4.9-5.1,4.9H0.7V254.2z M2.2,255.6v7.1h1.1
		c2.2,0,3.7-1.5,3.7-3.5s-1.3-3.5-3.8-3.5h-1V255.6z"/>
	<path class="st3" d="M11.9,254.2h1.5v9.7h-1.5V254.2z"/>
	<path class="st3" d="M16.5,254.2H18l2.6,7.6l2.6-7.6h1.5l-3.4,9.7h-1.5L16.5,254.2z"/>
	<path class="st3" d="M27.8,254.2h5.8v1.4h-4.4v2.8h4.4v1.4h-4.4v2.8h4.4v1.4h-5.8V254.2z"/>
	<path class="st3" d="M37,254.2h3c2.1,0,3.4,1.4,3.4,3.2c0,1.3-0.7,2.5-2.1,2.9l2.3,3.6H42l-2.9-4.6h0.8c1.5,0,2.1-1,2.1-1.9
		c0-1.1-0.7-1.8-2.1-1.8h-1.4v8.4H37V254.2z"/>
	<path class="st3" d="M46.3,262.3l1.3-1c0.6,0.9,1.3,1.4,2.3,1.4c1.1,0,1.8-0.7,1.8-1.6c0-1-1.1-1.3-2.2-1.7c-1.3-0.4-2.7-1-2.7-2.7
		c0-1.5,1.3-2.7,3.1-2.7c1.5,0,2.4,0.6,3.1,1.4l-1.2,0.9c-0.4-0.7-1.1-1-2-1c-1,0-1.6,0.6-1.6,1.3c0,0.9,1,1.2,2.1,1.6
		c1.3,0.5,2.8,1,2.8,2.8c0,1.5-1.2,2.9-3.2,2.9C48.3,264.1,47.2,263.4,46.3,262.3z"/>
	<path class="st3" d="M56.5,254.2H58v9.7h-1.5V254.2z"/>
	<path class="st3" d="M61.3,259.1c0-2.8,2.2-5,5-5c2.8,0,5,2.2,5,5c0,2.8-2.2,5-5,5C63.5,264.1,61.3,261.9,61.3,259.1z M69.8,259.1
		c0-2-1.5-3.6-3.5-3.6s-3.5,1.6-3.5,3.6s1.5,3.6,3.5,3.6S69.8,261.1,69.8,259.1z M67.2,251.3h1.5l-2,2.2h-1.1L67.2,251.3z"/>
	<path class="st3" d="M74.5,254.2h1.6l4.9,7.4v-7.4h1.4v9.7H81l-5-7.5v7.5h-1.5V254.2z"/>
	<path class="st3" d="M85.9,262.1h1.4v1.8h-1.4V262.1z"/>
</g>
<g>
	
		<use xlink:href="#cta_2"  width="94.7" height="7" id="XMLID_2_" x="-47.4" y="-3.5" transform="matrix(1.0053 0 0 -1.0053 47.3999 404.7002)" style="overflow:visible;"/>
	
		<use xlink:href="#cta_x5F_over_2"  width="95.8" height="7.1" id="XMLID_1_" x="-47.9" y="-3.6" transform="matrix(1.0052 0 0 -1.0052 47.9497 424.7012)" style="overflow:visible;"/>
</g>
<path class="st2" d="M0,57c0-1,0.3-2,0.8-2.8l0.8,0.5C1.2,55.4,1,56.2,1,57c0,2.2,1.8,4,4,4s4-1.8,4-4c0-2.2-1.8-4-4-4v2l-3.1-2.5
	L5,50v2c2.8,0,5,2.3,5,5c0,2.8-2.2,5-5,5S0,59.8,0,57z"/>
<g>
</g>
<g>
</g>
<g>
</g>
<g>
</g>
<g>
</g>
<g>
</g>
<g>
</g>
<g>
</g>
<g>
</g>
<g>
</g>
<g>
</g>
<g>
</g>
<g>
</g>
<g>
</g>
<g>
</g>
<g>
</g>
<g>
</g>
<g>
</g>
</svg>
