<svg width="37" height="32" xmlns="http://www.w3.org/2000/svg" xmlns:xlink="http://www.w3.org/1999/xlink"><svg viewBox="-1 -1 16 16" width="16" height="16" y="16" xmlns="http://www.w3.org/2000/svg"><g data-name="Layer 2"><g data-name="Layer 1"><g data-name="Layer 1-2"><g data-name="Layer 1-2-2"><g data-name="Layer 1-2-2-2"><g data-name="Layer 1-2-2-2-2"><circle cx="7" cy="7" r="7"/><path d="M6.53 9.65a.18.18 0 01-.17-.18.13.13 0 010-.12l2.27-2.27-2.26-2.26a.19.19 0 010-.26.16.16 0 01.23 0l2.5 2.5-2.48 2.49a.15.15 0 01-.09.1z" fill="#fff"/></g></g></g></g></g></g></svg><svg viewBox="-1 -1 16 16" width="16" height="16" x="16" y="16" xmlns="http://www.w3.org/2000/svg"><g data-name="Layer 2"><g data-name="Layer 1"><g data-name="Layer 1-2"><g data-name="Layer 1-2-2"><g data-name="Layer 1-2-2-2"><g data-name="Layer 1-2-2-2-2"><path d="M7 14a7 7 0 117-7 7 7 0 01-7 7zM7 .5A6.54 6.54 0 1013.53 7 6.54 6.54 0 007 .5z"/><path d="M6.53 9.65a.18.18 0 01-.17-.18.13.13 0 010-.12l2.27-2.27-2.26-2.26a.19.19 0 010-.26.16.16 0 01.23 0l2.5 2.5-2.48 2.49a.15.15 0 01-.09.1z"/></g></g></g></g></g></g></svg><svg viewBox="-1 -1 37 7" width="37" height="7" xmlns="http://www.w3.org/2000/svg"><g data-name="Layer 2"><g data-name="Layer 1"><g data-name="Layer 1-2"><g data-name="Layer 1-2-2"><path d="M1.33 1.35a.53.53 0 010-.25.41.41 0 01.45-.31.4.4 0 01.47.36v.35H3.5v-.33C3.5.16 2.5 0 1.81 0 .92 0 .2.27.06 1a1.3 1.3 0 000 .62c.22 1 2 1.24 2.27 1.84a.53.53 0 010 .35.43.43 0 01-.5.31.41.41 0 01-.49-.35.13.13 0 010-.06v-.42H0v.36C0 4.69.88 5 1.82 5s1.68-.29 1.76-1.07a1.94 1.94 0 000-.76c-.21-.98-2.11-1.27-2.25-1.82zm16.26 0a1 1 0 010-.25.41.41 0 01.41-.3.4.4 0 01.46.35v.35h1.24v-.25c0-1-1-1.16-1.67-1.16s-1.57.21-1.74 1a1.62 1.62 0 000 .62c.21 1 2 1.25 2.22 1.82a.38.38 0 010 .33.42.42 0 01-.5.32.44.44 0 01-.48-.38v-.53h-1.2v.36c0 1 .82 1.37 1.75 1.37s1.64-.29 1.75-1a1.94 1.94 0 000-.76c-.22-1-2.08-1.25-2.22-1.79zM29 3.85L27.79.1h-1.87v4.66h1.23L27.08.87l1.26 3.89h1.78V.15h-1.23zM5.36.15l-.92 4.66h1.39L6.5.5l.68 4.31h1.31L7.57.15zm7.55 0l-.63 3.6-.61-3.6H9.61L9.5 4.81h1.25V.5l.88 4.31h1.26L13.78.5v4.31H15V.15zm11.67 0h-1.25v3.6a.51.51 0 01-.66.3.49.49 0 01-.36-.3V.15H21v3.6c.08.89.83 1.18 1.75 1.18s1.75-.25 1.75-1.18V.15zm8.68 2.07v.65h.5v.68a.28.28 0 010 .18.54.54 0 01-.68.31.52.52 0 01-.41-.29V1.42a.48.48 0 010-.17.53.53 0 01.69-.36.55.55 0 01.34.31v.44H35v-.39C34.87.3 34.1 0 33.21 0S31.5.3 31.5 1.17v2.28a1.5 1.5 0 000 .3c.07.85.86 1.15 1.75 1.15s1.63-.3 1.75-1.15V2.22z" fill-rule="evenodd" data-name="Layer 1-2-2-2"/></g></g></g></g></svg><svg viewBox="-1 -1 33 9" width="33" height="9" y="7" xmlns="http://www.w3.org/2000/svg"><g data-name="Layer 2"><g data-name="Layer 1"><g data-name="Layer 1-2"><g data-name="Layer 1-2-2"><g data-name="Layer 1-2-2-2"><path fill="#d52b1e" d="M30.32 0l-1.7 3.67-.64-1.38h-.69l1.05 2.27h.56L31 0h-.68z"/><path d="M23.05 6.82h1.37V4.29a.89.89 0 01.72-1h.11A.7.7 0 0126 4v2.81h1.37v-3A1.57 1.57 0 0026 2.12h-.14a1.52 1.52 0 00-1.37.78v-.57h-1.42zm-2.67-4.66A2.3 2.3 0 0018 4.38v.18a2.37 2.37 0 104.74 0 2.3 2.3 0 00-2.18-2.4h-.2zm0 3.79c-.65 0-1-.59-1-1.4s.36-1.4 1-1.4 1 .53 1 1.4S21 6 20.38 6zm-6.2.85H18V5.74h-2.23l2.07-2.34V2.33h-3.72v1.1h2.06l-2.06 2.33zm-1.78 0h1.36V2.33H12.4zm-3.18 0h1.36V4.75a1.14 1.14 0 01.91-1.25 1 1 0 01.48 0V2.33a.62.62 0 00-.27 0 1.28 1.28 0 00-1.24.78v-.78H9.19zM6.74 6A1 1 0 015.7 5h3.19a2.84 2.84 0 00-.78-2.24 2.14 2.14 0 00-1.5-.55A2.23 2.23 0 004.29 4.4v.15A2.24 2.24 0 006.25 7h.43a2.4 2.4 0 001.38-.41 1.84 1.84 0 00.74-1.1H7.44a.79.79 0 01-.81.5zm-.09-2.8a.89.89 0 01.79.9h-1.8a.91.91 0 01.94-.89h.07zM1.59 6.82H3l1.55-4.49H3.17l-.88 2.88-.88-2.88H0zM12.4.68h1.37v1.16H12.4z"/></g></g></g></g></g></svg></svg>