<svg width="65" height="49" xmlns="http://www.w3.org/2000/svg" xmlns:xlink="http://www.w3.org/1999/xlink"><svg viewBox="-1 -1 24 24" width="24" height="24" y="25" xmlns="http://www.w3.org/2000/svg"><g data-name="Layer 2"><g data-name="Layer 1"><g data-name="Layer 1-2"><circle cx="11" cy="11" r="11"/><path d="M10.2 15.16a.3.3 0 01-.2-.08.28.28 0 010-.4l3.56-3.55L10 7.57a.28.28 0 11.4-.4l3.95 4-3.95 3.91a.28.28 0 01-.2.08z" fill="#fff"/></g></g></g></svg><svg viewBox="-1 -1 24 24" width="24" height="24" x="24" y="25" xmlns="http://www.w3.org/2000/svg"><g data-name="Layer 2"><g data-name="Layer 1"><g data-name="Layer 1-2"><path d="M11 22a11 11 0 1111-11 11 11 0 01-11 11zM11 .76A10.24 10.24 0 1021.24 11 10.25 10.25 0 0011 .76z"/><path d="M10.2 15.16a.3.3 0 01-.2-.08.28.28 0 010-.4l3.56-3.55L10 7.57a.28.28 0 11.4-.4l3.95 4-3.95 3.91a.28.28 0 01-.2.08z"/></g></g></g></svg><svg viewBox="-1 -1 65 11" width="65" height="11" xmlns="http://www.w3.org/2000/svg"><g data-name="Layer 2"><g data-name="Layer 1"><path d="M2.39 2.43a1.09 1.09 0 010-.44.75.75 0 01.83-.57.75.75 0 01.83.66v.62H6.3v-.59C6.3.29 4.5 0 3.25 0 1.66 0 .35.49.11 1.86A2.74 2.74 0 00.11 3c.4 1.72 3.61 2.21 4.07 3.3a1.09 1.09 0 010 .62.79.79 0 01-.9.57.78.78 0 01-.89-.65v-.93H0v.65C0 8.43 1.58 9 3.28 9s3-.51 3.17-1.93a3.46 3.46 0 000-1.36c-.38-1.78-3.8-2.29-4.06-3.28zm29.28 0a1.62 1.62 0 010-.44.74.74 0 01.81-.56.76.76 0 01.83.64v.63h2.23v-.56c0-1.8-1.75-2.1-3-2.1C31 0 29.7.54 29.42 1.9a2.6 2.6 0 000 1.11c.38 1.71 3.55 2.19 4 3.27a.91.91 0 010 .61.76.76 0 01-.9.56.78.78 0 01-.9-.64v-.92h-2.3v.64C29.32 8.4 30.87 9 32.55 9s2.94-.51 3.15-1.9a3.88 3.88 0 000-1.36c-.39-1.74-3.76-2.26-4-3.23zM52.13 7L50 .27h-3.33v8.31h2.2l-.12-7 2.27 7h3.21V.27H52zM9.64.27L8 8.67h2.4L11.7.9l1.22 7.77h2.38L13.64.27zm13.6 0l-1.13 6.56L21 .27h-3.7l-.2 8.4h2.25L19.42.9 21 8.67h2.27L24.8.9l.05 7.77h2.26l-.2-8.4zm20.92 0h-2.27v6.21a1.61 1.61 0 010 .31.92.92 0 01-1.73 0 1.61 1.61 0 010-.31V.27h-2.31v6a5 5 0 000 .55C38 8.42 39.33 8.93 41 8.93s3-.51 3.14-2.08a5 5 0 000-.55zM59.8 4v1.17h.9v1.22a1.71 1.71 0 010 .32 1 1 0 01-1.25.56.92.92 0 01-.58-.56 1.71 1.71 0 010-.32V2.56a1.34 1.34 0 010-.4 1 1 0 011.2-.57.94.94 0 01.6.57 1.71 1.71 0 010 .32v.46H63V2.7a5.23 5.23 0 000-.56C62.78.54 61.39 0 59.8 0s-3 .54-3.16 2.11V6.2a2.62 2.62 0 000 .56c.14 1.53 1.56 2.07 3.16 2.07s3-.54 3.16-2.07a5.23 5.23 0 000-.56V4z" fill-rule="evenodd" data-name="Layer 1-2"/></g></g></svg><svg viewBox="-1 -1 56 14" width="56" height="14" y="11" xmlns="http://www.w3.org/2000/svg"><g data-name="Layer 2"><g data-name="Layer 1"><path fill="#d52b1e" d="M52.81 0l-2.95 6.33-1.1-2.41h-1.21l1.83 3.94h.97L54 0h-1.19z"/><path d="M40.15 11.75h2.38V7.4a1.52 1.52 0 011.31-1.71H44c.82 0 1.24.58 1.24 1.41v4.64h2.38V6.59a2.69 2.69 0 00-2.71-2.95A2.65 2.65 0 0042.5 5V3.92h-2.3zm-4.66-8a4 4 0 00-4.14 3.84v.31a4.15 4.15 0 008.3 0 4 4 0 00-3.83-4.15zm0 6.53c-1.12 0-1.74-1-1.74-2.38s.6-2.39 1.74-2.39 1.74.93 1.74 2.39-.65 2.42-1.76 2.42zm-10.91 1.47h6.67V9.87h-3.77l3.6-4.07V3.92h-6.5v1.89h3.66l-3.66 4.1zm-3 0h2.4V3.92h-2.4zm-5.55 0h2.38V8.16A1.94 1.94 0 0120 6a1.9 1.9 0 01.82 0V3.94a1.29 1.29 0 00-.48-.06 2.27 2.27 0 00-2.06 1.35V3.92H16zm-4.35-1.49a1.74 1.74 0 01-1.86-1.65v-.07h5.62a4.94 4.94 0 00-1.36-3.86 3.68 3.68 0 00-2.61-.94 3.92 3.92 0 00-4 3.83v.25A3.93 3.93 0 0011.15 12h.44a4.08 4.08 0 002.4-.71 3.07 3.07 0 001.31-1.86H13a1.39 1.39 0 01-1.4.85zm-.12-4.85A1.53 1.53 0 0113 7H9.82a1.61 1.61 0 011.67-1.54zm-8.8 6.34h2.47l2.7-7.83h-2.4L4 9 2.45 4H0zm18.77-10.6h2.4v2.12h-2.4z"/></g></g></svg></svg>