<?xml version="1.0" encoding="utf-8"?><svg width="26" height="26" viewBox="0 0 26 26" xmlns="http://www.w3.org/2000/svg" xmlns:xlink="http://www.w3.org/1999/xlink"><svg width="25.67" height="25.82" viewBox="-1 -1 25.67 25.82" id="in_logo" xmlns="http://www.w3.org/2000/svg"><g data-name="Layer 2"><g data-name="Layer 1"><g data-name="Layer 1-2"><path d="M0 1.71A1.73 1.73 0 0 1 1.75 0h20.17a1.72 1.72 0 0 1 1.75 1.71v20.41a1.72 1.72 0 0 1-1.75 1.7H1.75A1.72 1.72 0 0 1 0 22.12z" fill="#069"/><path d="M7.18 19.94V9.18H3.6v10.76zM5.4 7.72A1.87 1.87 0 1 0 5.41 4a1.86 1.86 0 1 0 0 3.72zm3.76 12.22h3.57v-6a2.58 2.58 0 0 1 .12-.87 2 2 0 0 1 1.83-1.31c1.3 0 1.81 1 1.81 2.43v5.75h3.58v-6.17c0-3.3-1.76-4.84-4.12-4.84a3.56 3.56 0 0 0-3.24 1.81V9.19H9.16c.04 1 0 10.75 0 10.75z" fill="#fff"/></g></g></g></svg></svg>