<?xml version="1.0" encoding="utf-8"?><svg width="57" height="13" viewBox="0 0 57 13" xmlns="http://www.w3.org/2000/svg" xmlns:xlink="http://www.w3.org/1999/xlink"><svg width="56.99" height="13" viewBox="-1 -1 56.99 13" id="logo-gpo" xmlns="http://www.w3.org/2000/svg"><defs><linearGradient id="aa" x1="5.06" y1="747.67" x2="-2.12" y2="754.85" gradientTransform="translate(0 -747)" gradientUnits="userSpaceOnUse"><stop offset="0" stop-color="#00a0ff"/><stop offset=".01" stop-color="#00a1ff"/><stop offset=".26" stop-color="#00beff"/><stop offset=".51" stop-color="#00d2ff"/><stop offset=".76" stop-color="#00dfff"/><stop offset="1" stop-color="#00e3ff"/></linearGradient><linearGradient id="ab" x1="10.2" y1="752.5" x2="-.14" y2="752.5" gradientTransform="translate(0 -747)" gradientUnits="userSpaceOnUse"><stop offset="0" stop-color="#ffe000"/><stop offset=".41" stop-color="#ffbd00"/><stop offset=".78" stop-color="orange"/><stop offset="1" stop-color="#ff9c00"/></linearGradient><linearGradient id="ac" x1="6.35" y1="753.48" x2="-3.38" y2="763.22" gradientTransform="translate(0 -747)" gradientUnits="userSpaceOnUse"><stop offset="0" stop-color="#ff3a44"/><stop offset="1" stop-color="#c31162"/></linearGradient><linearGradient id="ad" x1="-1.15" y1="744.02" x2="3.2" y2="748.37" gradientTransform="translate(0 -747)" gradientUnits="userSpaceOnUse"><stop offset="0" stop-color="#32a071"/><stop offset=".07" stop-color="#2da771"/><stop offset=".48" stop-color="#15cf74"/><stop offset=".8" stop-color="#06e775"/><stop offset="1" stop-color="#00f076"/></linearGradient></defs><g data-name="Layer 2"><g data-name="Layer 1"><g data-name="Layer 1-2"><path d="M26.32 4.41a2.11 2.11 0 102.12 2.11 2.07 2.07 0 00-2.05-2.11zm0 3.39a1.22 1.22 0 01-1.19-1.25 1.2 1.2 0 012.39-.23v.23a1.23 1.23 0 01-1.18 1.25zM32 4.88a1.47 1.47 0 00-1.11-.47 2.11 2.11 0 000 4.22A1.43 1.43 0 0032 8.15v.3c0 .81-.43 1.24-1.13 1.24a1.14 1.14 0 01-1.06-.75l-.81.33a2 2 0 001.87 1.25 1.94 1.94 0 002-2.2V4.54H32zM30.94 7.8a1.22 1.22 0 01-1.16-1.27 1.22 1.22 0 011.16-1.29 1.18 1.18 0 011.12 1.24A1.17 1.17 0 0131 7.8zm-9.26-3.39a2.09 2.09 0 10.07 0h-.07zm0 3.39a1.22 1.22 0 01-1.2-1.25 1.2 1.2 0 112.39-.23.88.88 0 010 .23 1.22 1.22 0 01-1.16 1.25zm-5.47-2.74V6h2.14a1.93 1.93 0 01-.49 1.16 2.21 2.21 0 01-1.65.63 2.36 2.36 0 01-2.36-2.36A2.36 2.36 0 0116.18 3a2.28 2.28 0 011.61.63l.66-.63a3.13 3.13 0 00-2.24-.9 3.32 3.32 0 00-3.33 3.28 3.32 3.32 0 003.33 3.28 2.91 2.91 0 003.09-3 3.9 3.9 0 00-.05-.66zm22.49.69a2 2 0 00-1.81-1.34 2 2 0 00-2 2v.09a2.07 2.07 0 002 2.11H37a2.09 2.09 0 001.73-.93L38 7.22a1.18 1.18 0 01-1 .57 1.06 1.06 0 01-1-.64L38.77 6zm-2.89.7a1.14 1.14 0 011.07-1.23.82.82 0 01.78.45zM33.49 8.5h.93V2.32h-.93zM43 2.32h-2.18V8.5h.92V6.15H43a2 2 0 002-1.91 2 2 0 00-2-1.9zm0 3h-1.3V3.16h1.32a1.07 1.07 0 110 2.13zm2.52 3.21h.93V2.32h-.93zm3.2-4.1a1.72 1.72 0 00-1.64 1l.82.34a.87.87 0 01.87-.5.89.89 0 011 .8v.03a1.94 1.94 0 00-1-.24c-.88 0-1.79.48-1.79 1.4a1.44 1.44 0 001.51 1.36A1.34 1.34 0 0049.73 8v.47h.89V6.11a1.63 1.63 0 00-1.83-1.71zm-.11 3.4c-.3 0-.72-.15-.72-.53s.52-.66 1-.66a1.64 1.64 0 01.84.21 1.1 1.1 0 01-1.07 1zm5.26-3.27l-1.02 2.68-1.1-2.69h-1l1.65 3.77-.94 2.09h1L55 4.53z" opacity=".54" style="isolation:isolate"/><path d="M.2.17a.82.82 0 00-.2.58v9.48a.82.82 0 00.2.58l5.3-5.27v-.1L.23.14z" fill="url(#aa)"/><path d="M7.29 7.33L5.56 5.57v-.13l1.73-1.77 2.13 1.19a.65.65 0 010 1.24L7.33 7.26z" fill="url(#ab)"/><path d="M7.33 7.31L5.53 5.5.2 10.83a.68.68 0 00.89 0l6.24-3.54" fill="url(#ac)"/><path d="M7.33 3.7L1.09.15A.69.69 0 00.2.17L5.53 5.5z" fill="url(#ad)"/><path d="M7.29 7.27l-6.2 3.52a.72.72 0 01-.86 0 .72.72 0 00.86 0l6.24-3.48z" opacity=".2" style="isolation:isolate"/><path d="M.2 10.77a.82.82 0 01-.2-.58v.06a.81.81 0 00.2.58zM9.42 6.06L7.29 7.27l2.13-1.12a.75.75 0 00.45-.62.8.8 0 01-.45.53z" opacity=".12" style="isolation:isolate"/><path d="M1.09.21L9.42 5a.79.79 0 01.45.58.74.74 0 00-.45-.62L1.09.15C.49-.19 0 .09 0 .77v.07C0 .15.49-.13 1.09.21z" fill="#fff" opacity=".25" style="isolation:isolate"/></g></g></g></svg></svg>