<svg width="99" height="56" xmlns="http://www.w3.org/2000/svg" xmlns:xlink="http://www.w3.org/1999/xlink"><svg viewBox="-1 -1 26 26" width="26" height="26" x="72.01" xmlns="http://www.w3.org/2000/svg"><g data-name="Layer 2"><g data-name="Layer 1"><circle cx="12" cy="12" r="12"/><path d="M11.13 16.54a.31.31 0 01-.22-.09.31.31 0 010-.44l3.88-3.87-3.88-3.88a.31.31 0 11.44-.44l4.31 4.32-4.31 4.31a.31.31 0 01-.22.09z" fill="#fff"/></g></g></svg><svg viewBox="-1 -1 26 26" width="26" height="26" x="72.01" y="26" xmlns="http://www.w3.org/2000/svg"><g data-name="Layer 2"><g data-name="Layer 1"><path d="M12 24a12 12 0 1112-12 12 12 0 01-12 12zM12 .83A11.17 11.17 0 1023.17 12 11.18 11.18 0 0012 .83z"/><path d="M11.13 16.54a.31.31 0 01-.22-.09.31.31 0 010-.44l3.88-3.87-3.88-3.88a.31.31 0 11.44-.44l4.31 4.32-4.31 4.31a.31.31 0 01-.22.09z"/></g></g></svg><svg viewBox="-1 -1 72 12" width="72" height="12" y="12" xmlns="http://www.w3.org/2000/svg"><g data-name="Layer 2"><path d="M2.66 2.7a1.16 1.16 0 010-.49.83.83 0 01.92-.63.83.83 0 01.92.73.49.49 0 010 .12V3H7v-.65C7 .32 5 0 3.61 0 1.84 0 .39.55.12 2.07a3 3 0 000 1.26C.57 5.24 4.13 5.79 4.65 7a1.24 1.24 0 010 .69.87.87 0 01-1 .63.87.87 0 01-1-.73.49.49 0 010-.12v-.9H0v.72C0 9.37 1.76 10 3.64 10s3.29-.57 3.53-2.14a4.09 4.09 0 000-1.52C6.74 4.37 2.94 3.8 2.66 2.7zm32.54 0a1.35 1.35 0 010-.49.81.81 0 01.9-.62.84.84 0 01.92.71V3h2.47v-.62c0-2-1.94-2.33-3.33-2.33-1.77 0-3.16.55-3.47 2.06a3 3 0 000 1.24c.43 1.89 3.95 2.43 4.46 3.63a1.06 1.06 0 010 .68.84.84 0 01-1 .62.87.87 0 01-1-.71.49.49 0 010-.12v-.9h-2.57v.71c0 2.07 1.73 2.69 3.59 2.69s3.27-.57 3.5-2.12a4.26 4.26 0 000-1.51c-.43-1.93-4.18-2.51-4.47-3.59zm22.73 5.11L55.57.3h-3.71v9.23h2.45l-.14-7.75 2.53 7.75h3.56V.3h-2.47zM10.71.3L8.86 9.63h2.7L13 1l1.36 8.64H17L15.16.3zm15.12 0l-1.26 7.29L23.31.3h-4.09L19 9.63h2.5L21.58 1l1.72 8.63h2.53L27.56 1l.06 8.64h2.51L29.91.3zm23.25 0h-2.53v6.9a1.35 1.35 0 010 .35 1 1 0 01-1.24.64 1 1 0 01-.68-.64 1.35 1.35 0 010-.35V.3h-2.57V7a5.44 5.44 0 000 .61c.17 1.75 1.65 2.31 3.49 2.31s3.31-.56 3.49-2.31a4.15 4.15 0 000-.61zm17.38 4.09v1.36h1V7.1a2.19 2.19 0 010 .36 1.11 1.11 0 01-1.39.62 1.05 1.05 0 01-.65-.62 2.19 2.19 0 010-.36V2.84a2.12 2.12 0 010-.44 1.09 1.09 0 011.34-.63 1 1 0 01.66.63 2.19 2.19 0 010 .36v.51H70V3a4.24 4.24 0 000-.62C69.77.6 68.22 0 66.45 0s-3.29.6-3.51 2.35v4.54a4.3 4.3 0 000 .62c.16 1.7 1.74 2.3 3.51 2.3s3.36-.6 3.52-2.3a6.14 6.14 0 000-.62v-2.5z" fill-rule="evenodd" data-name="Layer 1"/></g></svg><svg viewBox="-1 -1 72.01 12" width="72.01" height="12" xmlns="http://www.w3.org/2000/svg"><g data-name="Layer 2"><g data-name="Layer 1"><path d="M2.66 2.7a1.35 1.35 0 010-.49.83.83 0 01.92-.63.83.83 0 01.92.73V3H7v-.65C7 .32 5 0 3.61 0 1.84 0 .39.55.12 2.07a3 3 0 000 1.26C.57 5.24 4.13 5.79 4.65 7a1.16 1.16 0 010 .69.87.87 0 01-1 .63.87.87 0 01-1-.72v-1H0v.72C0 9.37 1.76 10 3.64 10s3.29-.57 3.53-2.14a4.31 4.31 0 000-1.52C6.74 4.37 2.94 3.8 2.66 2.7zm32.54 0a1.35 1.35 0 010-.49.8.8 0 01.9-.62.84.84 0 01.9.71V3h2.47v-.62c0-2-1.94-2.33-3.33-2.33-1.75 0-3.14.55-3.45 2.06a2.88 2.88 0 000 1.24c.43 1.89 4 2.43 4.46 3.63a1.13 1.13 0 010 .68.84.84 0 01-1 .62.87.87 0 01-1-.71v-1h-2.57v.71c0 2.07 1.73 2.69 3.59 2.69s3.27-.57 3.5-2.12a4.26 4.26 0 000-1.51c-.43-1.93-4.18-2.51-4.47-3.59zm22.73 5.11L55.57.3h-3.71v9.23h2.45l-.14-7.75 2.53 7.75h3.56V.3h-2.47zM10.71.3L8.86 9.63h2.7L13 1l1.36 8.64H17L15.16.3zm15.12 0l-1.26 7.29L23.31.3h-4.09L19 9.63h2.5L21.58 1l1.72 8.63h2.53L27.56 1l.06 8.64h2.51L29.91.3zm23.25 0h-2.53v6.9a1 1 0 010 .35 1 1 0 01-1.24.64 1 1 0 01-.68-.64 1 1 0 010-.35V.3h-2.57v7.31c.17 1.75 1.65 2.31 3.49 2.31s3.31-.56 3.45-2.31V7zm17.38 4.09v1.36h1V7.1a2.16 2.16 0 010 .36 1.12 1.12 0 01-1.39.62 1.05 1.05 0 01-.65-.62 2.16 2.16 0 010-.36V2.84a1.62 1.62 0 010-.44 1.09 1.09 0 011.34-.63 1 1 0 01.66.63 2.16 2.16 0 010 .36v.51H70V3a3.21 3.21 0 000-.62C69.77.6 68.22 0 66.45 0s-3.29.6-3.51 2.35v5.16c.16 1.7 1.74 2.3 3.51 2.3s3.36-.6 3.52-2.3V4.39z" fill="#fff" fill-rule="evenodd" data-name="Layer 1-2"/></g></g></svg><svg viewBox="-1 -1 64 16" width="64" height="16" y="24" xmlns="http://www.w3.org/2000/svg"><g data-name="Layer 2"><path fill="#d52b1e" d="M60.63 0l-3.38 7.39-1.27-2.81h-1.39l2.1 4.59h1.12L62 0h-1.37z"/><path d="M46.1 13.71h2.73V8.63a1.76 1.76 0 011.65-2c.94 0 1.43.68 1.43 1.64v5.42h2.73v-6c0-2-1.19-3.44-3.11-3.44a3.05 3.05 0 00-2.73 1.58h-.06V4.58H46.1zm-5.35-9.38A4.62 4.62 0 0036 9.17a4.76 4.76 0 109.52 0 4.62 4.62 0 00-4.77-4.84zm0 7.62c-1.29 0-2-1.11-2-2.78s.69-2.79 2-2.79 2 1.09 2 2.79S42 12 40.73 12zm-12.53 1.76h7.66v-2.19h-4.33l4.14-4.75V4.58h-7.47v2.2h4.2l-4.2 4.78zm-3.5 0h2.75V4.58h-2.75zm-6.37 0h2.73V9.52A2.26 2.26 0 0123.92 7V4.6a1.62 1.62 0 00-.56-.07A2.6 2.6 0 0021 6.1V4.58h-2.65zm-5-1.74a2 2 0 01-2.08-2h6.46a5.87 5.87 0 00-1.56-4.51 4.21 4.21 0 00-3-1.1 4.54 4.54 0 00-4.6 4.77A4.56 4.56 0 0013.31 14a4.6 4.6 0 002.75-.82A3.6 3.6 0 0017.57 11h-2.63a1.61 1.61 0 01-1.61 1zm-.14-5.66a1.78 1.78 0 011.73 1.8h-3.67c.21-1.11.78-1.8 1.92-1.8zm-10.1 7.4H6l3.1-9.13H6.35L4.6 10.45 2.82 4.58H0zM24.72 1.34h2.75v2.48h-2.75z"/></g></svg><svg viewBox="-1 -1 64 16" width="64" height="16" y="40" xmlns="http://www.w3.org/2000/svg"><g data-name="Layer 2"><g data-name="Layer 1"><path fill="#d52b1e" d="M60.63 0l-3.38 7.39-1.27-2.81h-1.39l2.1 4.59h1.12L62 0h-1.37z"/><path d="M46.1 13.71h2.73V8.63a1.77 1.77 0 011.5-2h.15c.94 0 1.43.68 1.43 1.64v5.42h2.73v-6c0-2-1.19-3.44-3.11-3.44a3.07 3.07 0 00-2.73 1.58h-.06V4.58H46.1zm-5.35-9.38A4.62 4.62 0 0036 8.81a2.16 2.16 0 000 .36 4.76 4.76 0 009.52 0 4.63 4.63 0 00-4.39-4.84zm0 7.62c-1.29 0-2-1.11-2-2.78s.69-2.79 2-2.79 2 1.09 2 2.79S42 12 40.73 12zm-12.53 1.76h7.66v-2.19h-4.33l4.14-4.75V4.58h-7.47v2.2h4.2l-4.2 4.78zm-3.5 0h2.75V4.58h-2.75zm-6.37 0h2.73V9.52A2.27 2.27 0 0123 6.94 2.18 2.18 0 0124 7V4.6a1.51 1.51 0 00-.56-.07A2.61 2.61 0 0021 6.1V4.58h-2.65zm-5-1.74a2 2 0 01-2.08-1.92V10h6.46a5.85 5.85 0 00-1.56-4.51 4.2 4.2 0 00-3-1.1 4.54 4.54 0 00-4.61 4.44v.3A4.56 4.56 0 0012.81 14a4.13 4.13 0 00.5 0 4.59 4.59 0 002.75-.82A3.63 3.63 0 0017.57 11h-2.63a1.6 1.6 0 01-1.61 1zm-.14-5.66a1.78 1.78 0 011.73 1.8h-3.67c.21-1.11.78-1.8 1.92-1.8zm-10.1 7.4H6l3.1-9.13H6.35L4.6 10.45 2.82 4.58H0zM24.72 1.34h2.75v2.48h-2.75z" fill="#fff"/></g></g></svg></svg>