<?xml version="1.0" encoding="utf-8"?><svg width="822" height="463" viewBox="0 0 822 463" xmlns="http://www.w3.org/2000/svg" xmlns:xlink="http://www.w3.org/1999/xlink"><svg id="body" data-name="Layer 1" width="45.07" height="24.45" viewBox="-1 -1 45.07 24.45" x="214.22" y="372"><defs><style>.acls-1{fill:#fff}</style></defs><title>body-01</title><path class="acls-1" d="M1.25 2L37 14.58l6 3.71c-5.77 1.21-13.49 7.7-28.23 1.56C-.18 13.41 1.25 2 1.25 2z"/><path d="M35.13 16.63C22 11 7.69 13.61 0 .66A38 38 0 0 1 32.58 10z"/></svg><svg width="214.22" height="72.5" viewBox="-1 -1 214.22 72.5" id="headline_ef" y="335"><defs><style>.bcls-1{fill-rule:evenodd}</style></defs><path id="bheadline_ef.svg" class="bcls-1" d="M38.793 105.788a10.807 10.807 0 0 0 3.556-2.513 11.05 11.05 0 0 0 2.26-3.682 12.519 12.519 0 0 0 .79-4.441v-1.707h-11.98v4.109h7.365a6.538 6.538 0 0 1-6.669 4.994 8.137 8.137 0 0 1-3.1-.578 7.5 7.5 0 0 1-2.45-1.582 7.16 7.16 0 0 1-1.6-2.344 7.317 7.317 0 0 1-.569-2.892 7.241 7.241 0 0 1 .569-2.861 7.154 7.154 0 0 1 1.6-2.343 7.853 7.853 0 0 1 2.4-1.6 7.457 7.457 0 0 1 2.987-.594 7.987 7.987 0 0 1 3.935.921 7.287 7.287 0 0 1 2.734 2.735l3.793-2.062a11.306 11.306 0 0 0-4.188-4.162A11.986 11.986 0 0 0 37.307 84a13.234 13.234 0 0 0-3.382-.416 12.076 12.076 0 0 0-4.725.91 11.573 11.573 0 0 0-3.73 2.468 11.254 11.254 0 0 0-2.45 3.671 11.986 11.986 0 0 0-.032 8.962 11.1 11.1 0 0 0 2.434 3.686 11.585 11.585 0 0 0 3.793 2.514 12.574 12.574 0 0 0 4.9.926 11.337 11.337 0 0 0 4.678-.933zm8.9.9h4.3V88.2H47.7v18.49zm.158-21.082a2.7 2.7 0 0 0 4.678-1.928 2.694 2.694 0 0 0-.711-1.944 2.977 2.977 0 0 0-3.935 0 2.991 2.991 0 0 0-.029 3.873zm12.527 21.082h4.3L71.633 88.2H67.24l-4.678 13.023L57.789 88.2h-4.457zm26.108-1.343a9.582 9.582 0 0 0 3.366-3.619L86.346 99.7a5.4 5.4 0 0 1-5.12 3.255 5.788 5.788 0 0 1-3.761-1.2 5.485 5.485 0 0 1-1.928-3.16h15.045v-1.509a8.794 8.794 0 0 0-.711-3.556A8.607 8.607 0 0 0 87.9 90.7a8.941 8.941 0 0 0-3.019-1.867 10.635 10.635 0 0 0-3.809-.667 9.793 9.793 0 0 0-6.827 2.711 9.135 9.135 0 0 0-2.781 6.611 9.216 9.216 0 0 0 .711 3.61 8.865 8.865 0 0 0 1.991 2.94 9.229 9.229 0 0 0 3.082 1.965 10.7 10.7 0 0 0 3.983.716 9.625 9.625 0 0 0 5.258-1.373zm-2.07-12.63a3.925 3.925 0 0 1 1.833 2.31H75.758a4.653 4.653 0 0 1 1.975-2.246 6.312 6.312 0 0 1 3.335-.852 6.593 6.593 0 0 1 3.35.789zm15.293-.692h3.161v6.954a15.681 15.681 0 0 0 .363 3.682 5.176 5.176 0 0 0 1.217 2.371 4.74 4.74 0 0 0 2.292 1.28 14.317 14.317 0 0 0 3.587.379h.6v-4.014a12.191 12.191 0 0 1-1.976-.127 1.8 1.8 0 0 1-1.659-1.659 11.932 11.932 0 0 1-.127-1.944v-6.922h3.762V88.2h-3.759v-5.754l-4.3 2.939V88.2h-3.159v3.825zm13.175 14.666h4.3v-9.913a6.185 6.185 0 0 1 .332-2.1 4.337 4.337 0 0 1 .916-1.544 3.922 3.922 0 0 1 1.375-.942 4.367 4.367 0 0 1 1.675-.325 3.894 3.894 0 0 1 3.13 1.22 4.994 4.994 0 0 1 1.043 3.351v10.253h4.362V95.923a7.959 7.959 0 0 0-1.944-5.709 7.929 7.929 0 0 0-8.566-1.352 6.793 6.793 0 0 0-2.355 1.9V83.3h-4.267v23.39zm34.184-1.343a9.581 9.581 0 0 0 3.366-3.619l-3.506-2.027a5.4 5.4 0 0 1-5.121 3.255 5.788 5.788 0 0 1-3.761-1.2 5.484 5.484 0 0 1-1.928-3.16h15.045v-1.509a8.8 8.8 0 0 0-.711-3.556 8.6 8.6 0 0 0-1.976-2.83 8.942 8.942 0 0 0-3.018-1.867 10.636 10.636 0 0 0-3.809-.667 9.792 9.792 0 0 0-6.827 2.711 9.135 9.135 0 0 0-2.782 6.611 9.2 9.2 0 0 0 .712 3.61 8.854 8.854 0 0 0 1.991 2.94 9.227 9.227 0 0 0 3.082 1.965 10.7 10.7 0 0 0 3.982.716 9.627 9.627 0 0 0 5.263-1.373zM145 92.716a3.927 3.927 0 0 1 1.833 2.31h-10.494a4.652 4.652 0 0 1 1.976-2.246 6.31 6.31 0 0 1 3.334-.852 6.6 6.6 0 0 1 3.351.788zM37.212 142.243a5.784 5.784 0 0 1-.364 2.023 5.048 5.048 0 0 1-1.043 1.706 5.149 5.149 0 0 1-1.659 1.17 5.256 5.256 0 0 1-2.181.442 5.822 5.822 0 0 1-3.477-.917 8.156 8.156 0 0 1-2.276-2.781l-3.793 2.308a10.591 10.591 0 0 0 1.517 2.133A9.4 9.4 0 0 0 25.992 150a10.075 10.075 0 0 0 2.639 1.106 12.572 12.572 0 0 0 3.271.395 10.793 10.793 0 0 0 4.125-.733 8.285 8.285 0 0 0 4.8-4.946 10.464 10.464 0 0 0 .616-3.62v-17.786h-4.262v2.611a7.2 7.2 0 0 0-2.56-1.929 7.981 7.981 0 0 0-3.382-.714 9.559 9.559 0 0 0-3.4.625 8.75 8.75 0 0 0-4.994 4.722 9.523 9.523 0 0 0-.774 3.945 9.282 9.282 0 0 0 .79 3.915 8.951 8.951 0 0 0 2.086 2.909 9.293 9.293 0 0 0 6.227 2.438 7.868 7.868 0 0 0 3.445-.758 7.024 7.024 0 0 0 2.592-2.086v2.149zm-7.538-3.64a5.562 5.562 0 0 1-1.786-1.143 5.2 5.2 0 0 1-1.185-1.722 5.324 5.324 0 0 1-.427-2.123 5.219 5.219 0 0 1 .427-2.107 5.072 5.072 0 0 1 1.185-1.692 5.7 5.7 0 0 1 1.786-1.128 6.05 6.05 0 0 1 4.409 0 5.244 5.244 0 0 1 1.738 1.142 5.5 5.5 0 0 1 1.154 1.708 5.148 5.148 0 0 1 .427 2.077 5.219 5.219 0 0 1-.427 2.108 5.683 5.683 0 0 1-1.154 1.722 5.133 5.133 0 0 1-1.738 1.158 6.063 6.063 0 0 1-4.409-.003zm14.071 4.3h4.3v-18.49h-4.3v18.49zm.155-21.079a2.7 2.7 0 0 0 4.68-1.924 2.693 2.693 0 0 0-.711-1.944 2.977 2.977 0 0 0-3.935 0 2.991 2.991 0 0 0-.034 3.868zm5.731 6.416h3.129v14.666h4.33V128.24h3.793v-3.824h-3.79a10.457 10.457 0 0 1 .111-1.676 1.97 1.97 0 0 1 .506-1.074 2.172 2.172 0 0 1 1.154-.569 10.35 10.35 0 0 1 2.023-.158v-3.951h-.38a13.491 13.491 0 0 0-3.587.411 5.49 5.49 0 0 0-2.386 1.3 5.217 5.217 0 0 0-1.343 2.291 11.813 11.813 0 0 0-.427 3.4v.032h-3.13v3.824zm12.543 0h3.161v6.954a15.656 15.656 0 0 0 .363 3.682 5.177 5.177 0 0 0 1.217 2.371 4.739 4.739 0 0 0 2.292 1.28 14.324 14.324 0 0 0 3.588.379h.6v-4.014a12.318 12.318 0 0 1-1.975-.126 1.8 1.8 0 0 1-1.659-1.66 12.013 12.013 0 0 1-.126-1.944v-6.922H73.4v-3.824h-3.764v-5.753l-4.3 2.94v2.813h-3.159v3.824zm33.786 13.982a9.634 9.634 0 0 0 3.05-1.98 9.2 9.2 0 0 0 2.055-2.956 9.217 9.217 0 0 0 0-7.251 9.208 9.208 0 0 0-2.055-2.955 9.687 9.687 0 0 0-6.78-2.7 9.821 9.821 0 0 0-3.745.716 9.413 9.413 0 0 0-3.05 1.98 9.318 9.318 0 0 0-2.039 2.955 9.219 9.219 0 0 0 0 7.251 9.3 9.3 0 0 0 5.089 4.936 9.821 9.821 0 0 0 3.745.716 9.7 9.7 0 0 0 3.73-.712zm-5.86-3.713a5.147 5.147 0 0 1-2.829-2.8 5.117 5.117 0 0 1-.411-2.03 5.2 5.2 0 0 1 .411-2.061 5.269 5.269 0 0 1 1.122-1.675 5.216 5.216 0 0 1 1.707-1.126 5.483 5.483 0 0 1 2.133-.416 5.369 5.369 0 0 1 2.118.416 5.455 5.455 0 0 1 1.707 1.126 5.152 5.152 0 0 1 1.138 1.675 5.209 5.209 0 0 1 .411 2.061 5.2 5.2 0 0 1-1.549 3.706 5.475 5.475 0 0 1-1.707 1.127 5.386 5.386 0 0 1-2.118.415 5.5 5.5 0 0 1-2.133-.418zm12.216-10.269h3.13v14.666h4.33V128.24h3.793v-3.824h-3.793a10.479 10.479 0 0 1 .11-1.676 1.972 1.972 0 0 1 .506-1.074 2.172 2.172 0 0 1 1.154-.569 10.355 10.355 0 0 1 2.023-.158v-3.951h-.38a13.488 13.488 0 0 0-3.587.411 5.488 5.488 0 0 0-2.386 1.3 5.218 5.218 0 0 0-1.344 2.291 11.833 11.833 0 0 0-.426 3.4v.032h-3.13v3.824zm37.229 13.765a10.806 10.806 0 0 0 3.556-2.513 11.047 11.047 0 0 0 2.26-3.682 12.529 12.529 0 0 0 .79-4.441v-1.706h-11.982v4.109h7.364a6.541 6.541 0 0 1-6.669 4.994 8.134 8.134 0 0 1-3.1-.579 7.469 7.469 0 0 1-2.45-1.582 7.154 7.154 0 0 1-1.6-2.344 7.308 7.308 0 0 1-.569-2.892 7.23 7.23 0 0 1 .569-2.861 7.15 7.15 0 0 1 1.6-2.343 7.833 7.833 0 0 1 2.4-1.6 7.451 7.451 0 0 1 2.987-.594 7.985 7.985 0 0 1 3.935.921 7.29 7.29 0 0 1 2.734 2.735l3.793-2.063a11.309 11.309 0 0 0-4.188-4.161 11.989 11.989 0 0 0-2.924-1.188 13.256 13.256 0 0 0-3.382-.416 12.084 12.084 0 0 0-4.725.91 11.572 11.572 0 0 0-3.73 2.468 11.242 11.242 0 0 0-2.449 3.671 11.989 11.989 0 0 0-.032 8.962 11.106 11.106 0 0 0 2.434 3.686 11.583 11.583 0 0 0 3.793 2.514 12.557 12.557 0 0 0 4.9.926 11.337 11.337 0 0 0 4.682-.931zm20.819.223a7 7 0 0 0 2.592-1.949v2.627h4.267v-18.49h-4.267v2.438a7.075 7.075 0 0 0-2.56-1.807 8.511 8.511 0 0 0-3.383-.663 9.554 9.554 0 0 0-3.4.625 8.746 8.746 0 0 0-4.994 4.722 9.515 9.515 0 0 0-.775 3.945 9.28 9.28 0 0 0 .79 3.915 8.949 8.949 0 0 0 2.087 2.909 9.289 9.289 0 0 0 6.226 2.438 8.242 8.242 0 0 0 3.414-.71zm-4.915-3.625a5.566 5.566 0 0 1-1.786-1.143 5.185 5.185 0 0 1-1.185-1.722 5.316 5.316 0 0 1-.427-2.123 5.211 5.211 0 0 1 .427-2.107 5.062 5.062 0 0 1 1.185-1.692 5.7 5.7 0 0 1 1.786-1.128 6.049 6.049 0 0 1 4.409 0 5.248 5.248 0 0 1 1.739 1.142 5.5 5.5 0 0 1 1.153 1.708 5.138 5.138 0 0 1 .427 2.077 5.209 5.209 0 0 1-.427 2.108 5.681 5.681 0 0 1-1.153 1.722 5.137 5.137 0 0 1-1.739 1.158 6.063 6.063 0 0 1-4.412-.003zm14.071 4.3h4.3v-23.39h-4.3v23.39zm18.5-.678a6.985 6.985 0 0 0 2.591-1.949v2.627h4.267v-18.49h-4.267v2.438a7.066 7.066 0 0 0-2.56-1.807 8.5 8.5 0 0 0-3.382-.663 9.563 9.563 0 0 0-3.4.625 8.753 8.753 0 0 0-4.994 4.722 9.531 9.531 0 0 0-.774 3.945 9.28 9.28 0 0 0 .79 3.915 8.961 8.961 0 0 0 2.086 2.909 9.294 9.294 0 0 0 6.227 2.438 8.242 8.242 0 0 0 3.414-.707zm-4.92-3.625a5.556 5.556 0 0 1-1.786-1.143 5.2 5.2 0 0 1-1.186-1.722 5.332 5.332 0 0 1-.426-2.123 5.227 5.227 0 0 1 .426-2.107 5.079 5.079 0 0 1 1.186-1.692 5.692 5.692 0 0 1 1.786-1.128 6.049 6.049 0 0 1 4.409 0 5.244 5.244 0 0 1 1.738 1.142 5.5 5.5 0 0 1 1.154 1.708 5.155 5.155 0 0 1 .427 2.077 5.226 5.226 0 0 1-.427 2.108 5.684 5.684 0 0 1-1.154 1.722 5.132 5.132 0 0 1-1.738 1.158 6.063 6.063 0 0 1-4.409 0zm13 4.3h5.215l4.393-6.163 4.52 6.163h5.215l-7.08-9.356 6.637-9.128h-5.057l-4.172 5.879-4.2-5.879h-5.216l6.7 9.071zm22.826 8.5h4.33l11.031-26.993H229.8l-4.868 12.65-5.152-12.65h-4.552l7.586 17.69z" transform="translate(-22.063 -81)"/></svg><svg id="headwing" data-name="Layer 1" width="43.93" height="28.63" viewBox="-1 -1 43.93 28.63" x="41.18" y="407.5"><defs><style>.ccls-1{fill:#ef473c}</style></defs><title>headwing</title><path d="M41.86 21.78C31.09 19.42 23.21 34.61 10.77 19 5.43 11.85 4.85 3 0 0c0 0 10.32-1.69 20 17a2.57 2.57 0 0 0 3.4.33c6.18-5 12.41-2.82 14.11 1.58.43.33 5.03 1.77 4.35 2.87z"/><path class="ccls-1" d="M28.23 24.95c-1.81-.16-3-3.15-5.13-7.47-.17-.25-2.49-1.13-3.06-.55-.86.87-.76 10.73 3.76 9.62.6-.16 4.05-1.07 4.43-1.6z"/></svg><svg width="108.53" height="10.69" viewBox="-1 -1 108.53 10.69" id="legal" x="350.22" y="335"><defs><style>.dcls-1{fill-rule:evenodd}</style></defs><path id="d_Screen_images_simulated." data-name="Screen images simulated." class="dcls-1" d="M16.347 236.524a2.322 2.322 0 0 0 1.586-.5 1.747 1.747 0 0 0 .576-1.384 1.621 1.621 0 0 0-.373-1.116 2.423 2.423 0 0 0-1.182-.651l-.721-.2a1.523 1.523 0 0 1-.725-.378.9.9 0 0 1-.233-.642.823.823 0 0 1 .3-.681 1.361 1.361 0 0 1 .866-.241 4.527 4.527 0 0 1 1.608.351l.29-.721a4.419 4.419 0 0 0-.918-.3 4.585 4.585 0 0 0-.962-.106 2.177 2.177 0 0 0-1.5.488 1.7 1.7 0 0 0-.549 1.34 1.625 1.625 0 0 0 .373 1.117 2.375 2.375 0 0 0 1.191.641l.721.2a1.5 1.5 0 0 1 .725.383.911.911 0 0 1 .233.646.862.862 0 0 1-.338.725 1.571 1.571 0 0 1-.971.259 3.439 3.439 0 0 1-1.705-.475l-.3.712a3.362 3.362 0 0 0 .932.4 4.176 4.176 0 0 0 1.072.14zm5.454 0a2.707 2.707 0 0 0 .769-.1 1.989 1.989 0 0 0 .62-.3l-.308-.668a2.039 2.039 0 0 1-1.028.281 1.2 1.2 0 0 1-1.006-.435 2.07 2.07 0 0 1-.338-1.287 2.018 2.018 0 0 1 .325-1.222 1.062 1.062 0 0 1 .905-.439 2.418 2.418 0 0 1 1.081.3l.316-.676a2.651 2.651 0 0 0-.655-.3 2.514 2.514 0 0 0-.725-.11 2.013 2.013 0 0 0-1.116.312 2.041 2.041 0 0 0-.747.879 3.085 3.085 0 0 0-.264 1.314 2.632 2.632 0 0 0 .571 1.806 2.022 2.022 0 0 0 1.6.646zm4.445-4.939a1.444 1.444 0 0 0-1.266.791v-.694h-.78v4.737h.85v-3.454a1.239 1.239 0 0 1 .422-.4 1.139 1.139 0 0 1 .563-.132 2.288 2.288 0 0 1 .6.088l.185-.818a1.424 1.424 0 0 0-.571-.114zm4.8 2.268a2.531 2.531 0 0 0-.51-1.684 2 2 0 0 0-2.909.053 2.853 2.853 0 0 0-.527 1.833 2.68 2.68 0 0 0 .567 1.819 2 2 0 0 0 1.6.65 3.109 3.109 0 0 0 .861-.118 2.216 2.216 0 0 0 .712-.339l-.308-.659a2.3 2.3 0 0 1-1.2.334 1.305 1.305 0 0 1-1.371-1.441h3.05a2.355 2.355 0 0 0 .035-.448zm-1.96-1.53a.992.992 0 0 1 .809.352 1.538 1.538 0 0 1 .3.984h-2.228a1.8 1.8 0 0 1 .343-1 .95.95 0 0 1 .773-.339zm7.185 1.53a2.532 2.532 0 0 0-.51-1.684 2 2 0 0 0-2.909.053 2.853 2.853 0 0 0-.527 1.833 2.68 2.68 0 0 0 .567 1.819 2 2 0 0 0 1.6.65 3.109 3.109 0 0 0 .861-.118 2.216 2.216 0 0 0 .712-.339l-.308-.659a2.3 2.3 0 0 1-1.2.334 1.305 1.305 0 0 1-1.371-1.441h3.05a2.363 2.363 0 0 0 .035-.448zm-1.96-1.53a.992.992 0 0 1 .809.352 1.538 1.538 0 0 1 .3.984h-2.228a1.8 1.8 0 0 1 .343-1 .95.95 0 0 1 .773-.339zm5.788-.756a1.842 1.842 0 0 0-1.441.66v-.545h-.786v4.737h.852v-3.63a2 2 0 0 1 .523-.312 1.555 1.555 0 0 1 .567-.1.748.748 0 0 1 .879.809v3.234h.853v-3.331a1.558 1.558 0 0 0-.382-1.121 1.41 1.41 0 0 0-1.068-.4zm5.244 4.852h.853v-4.737h-.856v4.737zm.431-5.493a.5.5 0 0 0 .554-.554.541.541 0 0 0-.145-.4.555.555 0 0 0-.962.409.541.541 0 0 0 .145.4.555.555 0 0 0 .409.145zm6.707.641a1.9 1.9 0 0 0-1.485.739 1.157 1.157 0 0 0-.479-.55 1.489 1.489 0 0 0-.769-.189 1.815 1.815 0 0 0-1.415.66v-.545h-.786v4.737h.853v-3.63a2.026 2.026 0 0 1 .519-.312 1.448 1.448 0 0 1 .536-.1.727.727 0 0 1 .835.809v3.234h.853v-3.331a1.586 1.586 0 0 0-.018-.281 1.82 1.82 0 0 1 .519-.33 1.472 1.472 0 0 1 .545-.1.723.723 0 0 1 .826.809v3.234h.852v-3.331a1.606 1.606 0 0 0-.365-1.121 1.318 1.318 0 0 0-1.024-.4zm4.78 0a3.262 3.262 0 0 0-1.459.343l.22.686a2.589 2.589 0 0 1 1.107-.246 1.215 1.215 0 0 1 .773.211.739.739 0 0 1 .264.615v.272a4.38 4.38 0 0 0-2.127.409 1.343 1.343 0 0 0-.677 1.244 1.384 1.384 0 0 0 .382 1.045 1.483 1.483 0 0 0 1.077.37 1.558 1.558 0 0 0 1.415-.721v.624h.774v-3.331a1.388 1.388 0 0 0-.47-1.13 1.943 1.943 0 0 0-1.279-.391zm-.237 4.2a.923.923 0 0 1-.624-.185.686.686 0 0 1-.211-.545.756.756 0 0 1 .475-.721 3.837 3.837 0 0 1 1.5-.246v1.169a1.5 1.5 0 0 1-1.143.528zm6.79-4.087v.52a1.46 1.46 0 0 0-.549-.47 1.642 1.642 0 0 0-.734-.163 1.624 1.624 0 0 0-1.354.616 2.724 2.724 0 0 0-.483 1.722 2.859 2.859 0 0 0 .466 1.741 1.53 1.53 0 0 0 1.3.624 1.5 1.5 0 0 0 1.283-.642v.738a1.116 1.116 0 0 1-1.3 1.222 2.476 2.476 0 0 1-1.09-.255l-.255.721a2.733 2.733 0 0 0 .65.219 3.539 3.539 0 0 0 .747.08 2.167 2.167 0 0 0 1.547-.523 1.918 1.918 0 0 0 .554-1.464v-4.684h-.786zm-1.1 3.779a.99.99 0 0 1-.852-.4 1.98 1.98 0 0 1-.29-1.177q0-1.548 1.09-1.547a1.411 1.411 0 0 1 .589.127 1.464 1.464 0 0 1 .492.365v2.127a1.486 1.486 0 0 1-.479.382 1.269 1.269 0 0 1-.549.119zm7.132-1.608a2.531 2.531 0 0 0-.51-1.684 2 2 0 0 0-2.909.053 2.853 2.853 0 0 0-.527 1.833 2.68 2.68 0 0 0 .567 1.819 2 2 0 0 0 1.6.65 3.109 3.109 0 0 0 .861-.118 2.216 2.216 0 0 0 .712-.339l-.308-.659a2.3 2.3 0 0 1-1.2.334 1.305 1.305 0 0 1-1.371-1.441h3.05a2.355 2.355 0 0 0 .035-.448zm-1.96-1.53a.992.992 0 0 1 .809.352 1.538 1.538 0 0 1 .3.984h-2.228a1.8 1.8 0 0 1 .343-1 .95.95 0 0 1 .773-.339zm4.768 4.2a1.981 1.981 0 0 0 1.305-.391 1.333 1.333 0 0 0 .47-1.085 1.243 1.243 0 0 0-.3-.875 1.825 1.825 0 0 0-.954-.479l-.624-.149a1.07 1.07 0 0 1-.492-.229.558.558 0 0 1 .057-.83 1.09 1.09 0 0 1 .637-.154 2.8 2.8 0 0 1 1.222.316l.325-.7a2.989 2.989 0 0 0-.725-.272 3.384 3.384 0 0 0-.8-.1 1.893 1.893 0 0 0-1.257.378 1.305 1.305 0 0 0-.448 1.055 1.2 1.2 0 0 0 .3.857 1.858 1.858 0 0 0 .954.47l.624.149a1.027 1.027 0 0 1 .5.233.554.554 0 0 1 .154.409q0 .642-.94.642a2.536 2.536 0 0 1-1.353-.4l-.308.712a2.586 2.586 0 0 0 .76.325 3.538 3.538 0 0 0 .9.114zm6.45 0a1.981 1.981 0 0 0 1.305-.391 1.333 1.333 0 0 0 .47-1.085 1.243 1.243 0 0 0-.3-.875 1.825 1.825 0 0 0-.954-.479l-.625-.146a1.069 1.069 0 0 1-.492-.229.558.558 0 0 1 .057-.83 1.09 1.09 0 0 1 .637-.154 2.8 2.8 0 0 1 1.222.316l.325-.7a2.989 2.989 0 0 0-.725-.272 3.384 3.384 0 0 0-.8-.1 1.893 1.893 0 0 0-1.257.378 1.305 1.305 0 0 0-.448 1.055 1.2 1.2 0 0 0 .3.857 1.858 1.858 0 0 0 .954.47l.624.149a1.027 1.027 0 0 1 .5.233.554.554 0 0 1 .154.409q0 .642-.94.642a2.536 2.536 0 0 1-1.354-.4l-.308.712a2.585 2.585 0 0 0 .76.325 3.538 3.538 0 0 0 .9.114zm3.038-.1h.853v-4.737h-.855v4.737zm.431-5.493a.5.5 0 0 0 .554-.554.541.541 0 0 0-.145-.4.555.555 0 0 0-.962.409.541.541 0 0 0 .145.4.555.555 0 0 0 .409.145zm6.707.641a1.9 1.9 0 0 0-1.485.739 1.157 1.157 0 0 0-.479-.55 1.489 1.489 0 0 0-.769-.189 1.815 1.815 0 0 0-1.415.66v-.545h-.785v4.737h.853v-3.63a2.026 2.026 0 0 1 .519-.312 1.448 1.448 0 0 1 .536-.1.727.727 0 0 1 .835.809v3.234h.853v-3.331a1.586 1.586 0 0 0-.018-.281 1.82 1.82 0 0 1 .519-.33 1.472 1.472 0 0 1 .545-.1.723.723 0 0 1 .826.809v3.234h.852v-3.331a1.606 1.606 0 0 0-.365-1.121 1.318 1.318 0 0 0-1.024-.4zm6 .115v3.559a1.544 1.544 0 0 1-.492.369 1.369 1.369 0 0 1-.571.115.735.735 0 0 1-.852-.809v-3.234h-.854v3.331a1.577 1.577 0 0 0 .374 1.12 1.365 1.365 0 0 0 1.05.4 1.65 1.65 0 0 0 1.415-.721v.607h.782v-4.737h-.853zm3.608 4.79a2.749 2.749 0 0 0 .612-.074l-.07-.72a1.837 1.837 0 0 1-.334.035.477.477 0 0 1-.356-.114.508.508 0 0 1-.11-.361v-5.59h-.85v5.7a.983.983 0 0 0 1.107 1.117zm3.62-4.905a3.264 3.264 0 0 0-1.459.343l.22.686a2.592 2.592 0 0 1 1.108-.246 1.215 1.215 0 0 1 .773.211.739.739 0 0 1 .264.615v.272a4.38 4.38 0 0 0-2.127.409 1.342 1.342 0 0 0-.677 1.244 1.384 1.384 0 0 0 .382 1.045 1.484 1.484 0 0 0 1.077.37 1.558 1.558 0 0 0 1.415-.721v.624h.773v-3.331a1.386 1.386 0 0 0-.47-1.13 1.943 1.943 0 0 0-1.279-.391zm-.237 4.2a.924.924 0 0 1-.624-.185.685.685 0 0 1-.211-.545.756.756 0 0 1 .475-.721 3.835 3.835 0 0 1 1.5-.246v1.169a1.5 1.5 0 0 1-1.143.528zm5.691.711a2.669 2.669 0 0 0 .765-.1l-.141-.729a1.621 1.621 0 0 1-.492.079.771.771 0 0 1-.611-.225 1.049 1.049 0 0 1-.2-.707v-2.382h1.38v-.729h-1.38v-1.363h-.843v1.363h-.791v.729h.783v2.523a1.359 1.359 0 0 0 1.529 1.546zm5.132-2.627a2.53 2.53 0 0 0-.51-1.684 1.773 1.773 0 0 0-1.432-.6 1.792 1.792 0 0 0-1.477.655 2.855 2.855 0 0 0-.527 1.833 2.68 2.68 0 0 0 .567 1.819 2 2 0 0 0 1.595.65 3.1 3.1 0 0 0 .861-.118 2.208 2.208 0 0 0 .712-.339l-.307-.659a2.3 2.3 0 0 1-1.2.334 1.306 1.306 0 0 1-1.371-1.441h3.05a2.391 2.391 0 0 0 .035-.448zm-1.96-1.53a.993.993 0 0 1 .809.352 1.541 1.541 0 0 1 .3.984h-2.224a1.8 1.8 0 0 1 .343-1 .949.949 0 0 1 .773-.339zm6.28-2.672v2.449a1.439 1.439 0 0 0-.523-.4 1.634 1.634 0 0 0-.681-.141 1.57 1.57 0 0 0-1.341.651 3.019 3.019 0 0 0-.479 1.819 3.162 3.162 0 0 0 .462 1.837 1.585 1.585 0 0 0 2.632-.088v.633h.782v-6.768h-.852zm-1.02 6.074q-1.125 0-1.125-1.7a2.378 2.378 0 0 1 .268-1.257.889.889 0 0 1 .8-.422 1.4 1.4 0 0 1 .588.127 1.375 1.375 0 0 1 .484.365v2.391a1.5 1.5 0 0 1-.479.382 1.248 1.248 0 0 1-.541.119zm3.9.808a.533.533 0 0 0 .58-.58.56.56 0 0 0-.154-.417.572.572 0 0 0-.426-.154.588.588 0 0 0-.426.149.572.572 0 0 0-.154.431.56.56 0 0 0 .154.417.574.574 0 0 0 .426.154z" transform="translate(-14.344 -229.656)"/></svg><svg width="136" height="21" viewBox="-1 -1 136 21" id="logo_galaxys7edge" x="214.22" y="335"><path d="M23.8 4.7c-.8-1-2.1-1.5-3.5-1.5-2.8 0-5.4 2.1-5.4 5.7s2.7 5.7 5.4 5.7c1.4 0 2.7-.6 3.5-1.7v1.4h2.5V3.4h-2.5v1.3zm-3.2 7.6c-1.9 0-3.3-1.5-3.3-3.4s1.4-3.4 3.3-3.4 3.3 1.5 3.3 3.4c0 1.8-1.4 3.4-3.3 3.4M40.8 4.7c-.8-1-2.1-1.5-3.5-1.5-2.8 0-5.4 2.1-5.4 5.7s2.7 5.7 5.4 5.7c1.4 0 2.7-.6 3.5-1.7v1.4h2.5V3.4h-2.5v1.3zm-3.2 7.6c-1.9 0-3.3-1.5-3.3-3.4s1.4-3.4 3.3-3.4 3.3 1.5 3.3 3.4c0 1.8-1.4 3.4-3.3 3.4M61.1 10.8l-3-7.4h-2.7l4.5 10.4-2 4.7h2.6l6.2-15.1H64zM55.1 3.4h-2.9l-2.5 3.5-2.5-3.5h-3.1l4 5.4-4.1 5.5h3.1l2.6-3.6 2.6 3.6h3.1l-4.2-5.5zM28 .5h2.5v13.8H28zM7.1 14.6c4.1 0 6.7-3.2 6.7-6.9v-1H6.7v2.4h4.4c-.5 1.8-1.9 3-4 3-2.7 0-4.6-2-4.6-4.6C2.5 5 4.5 3 7 3c1.8 0 3.1.8 4 2.4L13.2 4C12.1 1.9 9.8.5 7 .5c-4 0-7 3.1-7 7 0 3.8 2.8 7.1 7.1 7.1M111.2 3.1v3.4c-.7-.8-1.7-1.3-2.8-1.3-2.3 0-4.4 1.7-4.4 4.7 0 2.9 2.3 4.7 4.4 4.7 1.2 0 2.2-.5 2.9-1.4v1.2h2.1V3.1h-2.2zm-2.6 9.6c-1.5 0-2.7-1.2-2.7-2.8 0-1.5 1.2-2.7 2.7-2.7 1.5 0 2.7 1.2 2.7 2.7 0 1.5-1.1 2.8-2.7 2.8M121.6 5.4v1.1c-.6-.8-1.7-1.3-2.9-1.3-2.2 0-4.4 1.7-4.4 4.7 0 2.9 2.3 4.7 4.4 4.7 1.2 0 2.3-.5 2.9-1.4v1.1c0 1.4-1 2.6-2.5 2.6-1.4 0-2.1-.6-2.8-1.8l-1.8 1.1c.8 1.5 2.3 2.6 4.6 2.6 3 0 4.6-2.1 4.6-4.5V5.4h-2.1zm-2.5 7.3c-1.5 0-2.7-1.2-2.7-2.8 0-1.5 1.2-2.7 2.7-2.7 1.5 0 2.7 1.2 2.7 2.7-.1 1.5-1.2 2.8-2.7 2.8M103 9.8c0-2.6-1.9-4.6-4.6-4.6-2.6 0-4.6 2.1-4.6 4.7s1.9 4.7 4.7 4.7c2 0 3.4-1 4.2-2.4l-1.7-1c-.4.9-1.3 1.6-2.5 1.6-1.5 0-2.5-.9-2.8-2.1h7.3v-.9zm-7.2-.9c.4-1.1 1.4-1.8 2.6-1.8 1.3 0 2.2.7 2.5 1.8h-5.1zM134 9.8c0-2.6-1.9-4.6-4.6-4.6-2.6 0-4.6 2.1-4.6 4.7s1.9 4.7 4.7 4.7c2 0 3.4-1 4.2-2.4l-1.7-1c-.4.9-1.3 1.6-2.5 1.6-1.5 0-2.5-.9-2.8-2.1h7.3v-.9zm-7.2-.9c.4-1.1 1.3-1.8 2.6-1.8s2.2.7 2.5 1.8h-5.1zM70 12.1l2.3-1.8c.7 1.2 1.8 1.8 3 1.8 1.3 0 2.1-.9 2.1-1.8 0-1.2-1.4-1.5-2.8-2-1.8-.6-3.9-1.3-3.9-3.9 0-2.2 1.9-3.9 4.5-3.9 2.2 0 3.5.8 4.6 2l-2.1 1.6c-.6-.9-1.4-1.3-2.5-1.3-1.2 0-1.9.7-1.9 1.5 0 1.1 1.3 1.4 2.8 1.9 1.8.6 3.9 1.4 3.9 4 0 2.1-1.7 4.2-4.7 4.2-2.5.2-4.1-.9-5.3-2.3M87 3.2h-5.9V.8h8.6V3l-4.8 11.4h-2.6z"/></svg><svg width="88" height="16" viewBox="-1 -1 88 16" id="logo_samsung" x="214.22" y="356"><path d="M5.7 9.8c.1.3.1.6 0 1-.1.6-.6 1-1.2.9-.6.1-1.2-.4-1.2-1V9.2H0v1C0 13.1 2.2 14 4.5 14c2.2 0 4.1-.8 4.3-3 .1-.7.1-1.4 0-2.1-.5-2.8-5.2-3.6-5.5-5.1 0-.2-.1-.5 0-.7.1-.5.6-.9 1.1-.9.6 0 1.1.4 1.1 1v1h3.1v-.9C8.6.4 6.2 0 4.4 0 2.2 0 .4.8.1 2.9c-.1.6 0 1.2.1 1.8.5 2.6 4.9 3.4 5.5 5.1zm40 0c.1.3.1.6 0 1-.1.6-.6.9-1.2.9-.6.1-1.2-.4-1.2-1V9.2H40v1c0 2.9 2.1 3.8 4.4 3.8 2.2 0 4-.8 4.3-3 .1-.7.1-1.4 0-2.1-.5-2.7-5.1-3.5-5.5-5 0-.2-.1-.5 0-.7.1-.5.6-.9 1.1-.9.6 0 1.1.4 1.1 1v1h3v-1C48.4.5 46 0 44.3 0c-2.2 0-3.9.8-4.3 2.9-.1.6-.1 1.2 0 1.7.7 2.7 5 3.5 5.7 5.2zm25.5 1.1L71 .4h3v12.9h-4.4l-3-10.8.2 10.9h-3V.4h4.6l2.8 10.5zM15.9 1.4l-1.7 12.1h-3.3L13.2.4h5.5L21 13.5h-3.3L15.9 1.4zm18 0l-2.1 12.1h-3.1L26.5 1.4l-.1 12.1h-3.1L23.6.4h5l1.6 10.2L31.7.4h5l.3 13.1h-3.1V1.4zM56 11.5c.6 0 1.1-.4 1.2-.9V.4h3.1v10.3c-.2 2.4-2 3.2-4.3 3.2s-4.1-.8-4.3-3.2V.4h3.1v10.2c.1.6.6 1 1.2.9zm25.6-.1c.6.1 1.1-.4 1.3-.9V8h-1.3V6.1H86v4.4c-.2 2.4-2.1 3.2-4.3 3.2s-4.1-.8-4.3-3.2V4.1c0-.2 0-.6.1-.9C77.8.8 79.6 0 81.8 0s4.1.8 4.3 3.2v1.3H83v-.6-.5c-.1-.6-.6-1-1.2-.9-.6 0-1.1.4-1.2.9 0 .2-.1.4-.1.6v6.5c0 .5.5.9 1.1.9z"/></svg><svg id="penguin_shadow" width="42.5" height="16.8" viewBox="-1 -1 42.5 16.8" x="259.29" y="372"><style>.gst0{fill:#ddd}</style><title>penguin_shadow</title><ellipse transform="rotate(-72.986 20.273 7.397)" class="gst0" cx="20.3" cy="7.4" rx="4.2" ry="21.2"/></svg><svg id="scarf" data-name="Layer 1" width="30.44" height="19.47" viewBox="-1 -1 30.44 19.47" x="85.11" y="407.5"><defs><style>.hcls-1{fill:#ef473c}</style></defs><title>scarf</title><path class="hcls-1" d="M27.39 15C24 8.95 18.82 3.09 6.27.93L.85 0v.27l5.37.93-.09.51L.72.78v.27L6.09 2 6 2.49.58 1.56v.27L6 2.77l-.09.51-5.46-.94v.27l5.37.94-.09.51-5.41-.93v.27l5.37.93-.09.51-5.42-.93v.27l5.38.93-.09.51L0 4.69V5l5.43.89c12.42 2.14 13.3 12.39 23 11.52z"/></svg><svg id="slope" width="822" height="335" viewBox="-1 -1 822 335"><style>.ist0{fill:#fff}</style><title>slope</title><path class="ist0" d="M260 80c95 68.8 167 11.3 260 80v30H260V80zM0 0c95 68.8 167 11.3 260 80v30H0V0zM0 110h260v80H0zM820 286.9c-81.6-57.8-183.4-77-209.3-83.6-41.5-10.6-77.1-34.4-90.7-43.2v173h300v-46.2zM0 190h520v143H0z"/></svg><svg id="snow" width="21.7" height="19.2" viewBox="-1 -1 21.7 19.2" x="115.55" y="407.5"><style>.jst0{fill:#fff}</style><title>snow</title><circle class="jst0" cx="4.9" cy="4.9" r=".8"/><circle class="jst0" cx="9.3" cy=".9" r=".8"/><circle class="jst0" cx="13.6" cy="14.4" r=".6"/><circle class="jst0" cx="12.9" cy="7.6" r=".6"/><circle class="jst0" cx="6.8" cy="11.1" r=".6"/><ellipse transform="rotate(-67.921 .77 8.91)" class="jst0" cx=".8" cy="8.9" rx=".8" ry=".8"/><ellipse transform="rotate(-67.921 10.095 6.877)" class="jst0" cx="10.1" cy="6.9" rx=".8" ry=".8"/><ellipse transform="rotate(-67.921 19.139 11.63)" class="jst0" cx="19.1" cy="11.6" rx=".6" ry=".6"/><ellipse transform="rotate(-67.921 17.272 3.983)" class="jst0" cx="17.3" cy="4" rx=".6" ry=".6"/><ellipse transform="rotate(-67.921 5.485 16.618)" class="jst0" cx="5.5" cy="16.6" rx=".6" ry=".6"/></svg><svg id="snow_final" data-name="Layer 1" width="41.18" height="54.89" viewBox="-1 -1 41.18 54.89" y="407.5"><defs><style>.kcls-1{fill:#fff}</style></defs><title>snow_final</title><circle class="kcls-1" cx="30.64" cy="44.53" r=".69"/><circle class="kcls-1" cx="35.5" cy="41.46" r=".69"/><circle class="kcls-1" cx="38.48" cy="52.37" r=".51"/><circle class="kcls-1" cx="38.67" cy="47.36" r=".51"/><circle class="kcls-1" cx="27.52" cy="33.38" r=".78"/><circle class="kcls-1" cx="22.18" cy="39.9" r=".78"/><circle class="kcls-1" cx="16.61" cy="27.33" r=".78"/><circle class="kcls-1" cx="9.54" cy="23.36" r=".68"/><circle class="kcls-1" cx="27.3" cy="36.59" r=".51"/><circle class="kcls-1" cx="7.02" cy="29.79" r="1.06"/><circle class="kcls-1" cx="19.68" cy="19.87" r="1.06"/><circle class="kcls-1" cx="6.64" cy="14.48" r="1.06"/><circle class="kcls-1" cx="1.06" cy="1.06" r="1.06"/></svg><svg id="star" data-name="Layer 1" width="12" height="12" viewBox="-1 -1 12 12" x="302.22" y="356"><defs><style>.lcls-1{fill:#fff}</style></defs><title>star</title><path class="lcls-1" d="M0 5c0 .28 2.46.43 3.52 1.48S4.71 10 5 10s.43-2.46 1.48-3.52S10 5.32 10 5s-2.46-.43-3.52-1.48S5.3 0 5 0s-.43 2.46-1.48 3.52S0 4.72 0 5z"/></svg></svg>