<svg width="65" height="24" viewBox="0 0 65 24" xmlns="http://www.w3.org/2000/svg" xmlns:xlink="http://www.w3.org/1999/xlink"><svg width="5.5" height="8.47" viewBox="-1 -1 5.5 8.47" id="cta-arrow" y="15.44" xmlns="http://www.w3.org/2000/svg"><defs><style>.acls-1{fill:#fff;fill-rule:evenodd}</style></defs><path id="acta-arrow" class="acls-1" d="M259.886 568.781l1.246.616 2.24-3.234-2.24-3.22-1.246.616 1.484 2.6z" transform="translate(-259.875 -562.938)"/></svg><svg width="64.41" height="15.44" viewBox="-1 -1 64.41 15.44" id="cta-text" xmlns="http://www.w3.org/2000/svg"><defs><style>.bcls-1{fill:#fff;fill-rule:evenodd}</style></defs><path id="bcta-text" class="bcls-1" d="M195.052 568.613a5.987 5.987 0 0 1-1.022-.42l-.518 1.442a4.253 4.253 0 0 0 .448.217 6.152 6.152 0 0 0 .665.231 7.1 7.1 0 0 0 1.981.266 4.389 4.389 0 0 0 2.723-.721 2.427 2.427 0 0 0 .931-2.037 3.1 3.1 0 0 0-.2-1.169 2.419 2.419 0 0 0-.567-.84 3.445 3.445 0 0 0-.91-.616q-.538-.26-1.225-.511a8.972 8.972 0 0 1-.721-.294 3.366 3.366 0 0 1-.574-.336 1.384 1.384 0 0 1-.378-.413 1.089 1.089 0 0 1-.133-.553.966.966 0 0 1 .4-.826 1.845 1.845 0 0 1 1.113-.294 4.827 4.827 0 0 1 1.169.14 4.138 4.138 0 0 1 1.043.406l.546-1.428a4.935 4.935 0 0 0-1.113-.441 5.84 5.84 0 0 0-1.617-.2 3.782 3.782 0 0 0-2.478.749 2.527 2.527 0 0 0-.91 2.065 2.45 2.45 0 0 0 .217 1.078 2.5 2.5 0 0 0 .574.77 3.3 3.3 0 0 0 .826.539q.47.216.973.4t.9.343a3.456 3.456 0 0 1 .665.378 1.533 1.533 0 0 1 .42.455 1.173 1.173 0 0 1 .147.6 1.068 1.068 0 0 1-.434.91 2.355 2.355 0 0 1-1.386.322 5.044 5.044 0 0 1-1.555-.212zm8.372 1.526v-5.824a4.425 4.425 0 0 1 .518-.126 3.465 3.465 0 0 1 .686-.07 1.936 1.936 0 0 1 .728.119 1.008 1.008 0 0 1 .469.378 1.755 1.755 0 0 1 .252.672 5.588 5.588 0 0 1 .077 1v3.85h1.694v-4.116a5.914 5.914 0 0 0-.147-1.372 2.674 2.674 0 0 0-.5-1.057 2.3 2.3 0 0 0-.931-.686 3.771 3.771 0 0 0-1.463-.245 3.924 3.924 0 0 0-.735.07 4.377 4.377 0 0 0-.651.168v-3.626l-1.694.28v10.584h1.694zm12.817-5.243a3.6 3.6 0 0 0-.721-1.211 3.133 3.133 0 0 0-1.113-.777 3.639 3.639 0 0 0-1.421-.273 3.586 3.586 0 0 0-1.414.273 3.224 3.224 0 0 0-1.113.777 3.535 3.535 0 0 0-.728 1.211 4.541 4.541 0 0 0-.259 1.575 4.606 4.606 0 0 0 .259 1.582 3.594 3.594 0 0 0 .721 1.218 3.234 3.234 0 0 0 1.106.784 3.553 3.553 0 0 0 1.428.28 3.6 3.6 0 0 0 1.435-.28 3.215 3.215 0 0 0 1.113-.784 3.5 3.5 0 0 0 .714-1.218 4.73 4.73 0 0 0 .252-1.582 4.541 4.541 0 0 0-.259-1.571zm-1.946 3.325a1.652 1.652 0 0 1-2.618 0 2.916 2.916 0 0 1-.469-1.75 2.854 2.854 0 0 1 .469-1.729 1.663 1.663 0 0 1 2.618 0 2.854 2.854 0 0 1 .469 1.729 2.916 2.916 0 0 1-.464 1.75zm8.386-.014a1.516 1.516 0 0 1-1.351.63 2.341 2.341 0 0 1-.791-.133 2.666 2.666 0 0 1-.595-.287v-4.186a2.7 2.7 0 0 1 .511-.091c.173-.014.338-.021.5-.021a2 2 0 0 1 1.645.63 2.727 2.727 0 0 1 .511 1.764 2.974 2.974 0 0 1-.43 1.694zm1.9-3.311a3.356 3.356 0 0 0-.742-1.2 3.228 3.228 0 0 0-1.169-.763 4.256 4.256 0 0 0-1.554-.266 9.7 9.7 0 0 0-1.6.126q-.756.126-1.274.266v9.674h1.694v-2.842a3.614 3.614 0 0 0 .714.28 3.4 3.4 0 0 0 .952.126 3.276 3.276 0 0 0 1.379-.28 2.773 2.773 0 0 0 1.015-.784 3.6 3.6 0 0 0 .623-1.2 5.173 5.173 0 0 0 .217-1.54 4.586 4.586 0 0 0-.251-1.593zm5.271 5.243h1.694v-5.908c.112-.019.285-.042.518-.07a5.636 5.636 0 0 1 .672-.042 1.993 1.993 0 0 1 .735.119 1 1 0 0 1 .476.378 1.755 1.755 0 0 1 .252.672 5.588 5.588 0 0 1 .077 1v3.85h1.694v-4.116a5.939 5.939 0 0 0-.147-1.365 2.616 2.616 0 0 0-.5-1.064 2.336 2.336 0 0 0-.959-.686 3.979 3.979 0 0 0-1.5-.245 10.985 10.985 0 0 0-1.736.126 11.2 11.2 0 0 0-1.274.266v7.084zm14.553-5.243a3.6 3.6 0 0 0-.721-1.211 3.133 3.133 0 0 0-1.113-.777 3.639 3.639 0 0 0-1.421-.273 3.586 3.586 0 0 0-1.414.273 3.224 3.224 0 0 0-1.113.777 3.535 3.535 0 0 0-.728 1.211 4.541 4.541 0 0 0-.259 1.575 4.606 4.606 0 0 0 .259 1.582 3.594 3.594 0 0 0 .721 1.218 3.234 3.234 0 0 0 1.106.784 3.553 3.553 0 0 0 1.428.28 3.6 3.6 0 0 0 1.435-.28 3.215 3.215 0 0 0 1.113-.784 3.5 3.5 0 0 0 .714-1.218 4.73 4.73 0 0 0 .252-1.582 4.541 4.541 0 0 0-.255-1.571zm-1.946 3.325a1.652 1.652 0 0 1-2.618 0 2.916 2.916 0 0 1-.469-1.75 2.854 2.854 0 0 1 .469-1.729 1.663 1.663 0 0 1 2.618 0 2.854 2.854 0 0 1 .469 1.729 2.916 2.916 0 0 1-.465 1.75zm8.882-.287q.386 1.168.748 2.205h1.377q.3-.645.6-1.47t.618-1.764q.307-.939.617-1.974t.6-2.114h-1.741q-.126.588-.295 1.267t-.359 1.386q-.191.707-.387 1.379t-.38 1.232q-.209-.645-.412-1.33t-.377-1.372q-.174-.687-.328-1.337c-.1-.434-.2-.843-.279-1.225h-1.3c-.085.382-.18.791-.288 1.225s-.222.879-.344 1.337-.25.914-.386 1.372-.273.9-.414 1.33q-.2-.561-.394-1.232t-.38-1.379q-.183-.708-.351-1.386t-.3-1.267H245.4q.294 1.077.6 2.114t.617 1.974q.307.938.617 1.764t.589 1.47h1.391q.363-1.037.734-2.205t.692-2.4q.322 1.231.705 2.4z" transform="translate(-193.5 -559.281)"/></svg></svg>