<svg width="74" height="27" viewBox="0 0 74 27" xmlns="http://www.w3.org/2000/svg" xmlns:xlink="http://www.w3.org/1999/xlink"><svg width="67.25" height="12" viewBox="-1 -1 67.25 12" y="15" xmlns="http://www.w3.org/2000/svg"><title>branding_1</title><g data-name="Layer 2"><path d="M2.48 2.71a1.16 1.16 0 0 1 0-.49.77.77 0 0 1 .85-.63.8.8 0 0 1 .87.85V3h2.32v-.65C6.52.32 4.69 0 3.37 0 1.71 0 .36.55.11 2.07a3.22 3.22 0 0 0 0 1.26C.53 5.24 3.85 5.79 4.33 7a1.2 1.2 0 0 1 0 .69.81.81 0 0 1-.91.63.83.83 0 0 1-.93-.85v-.9H0v.71C0 9.37 1.64 10 3.39 10s3.07-.57 3.3-2.14a4.64 4.64 0 0 0 0-1.53C6.28 4.38 2.74 3.8 2.48 2.71zm30.34 0a1.25 1.25 0 0 1 0-.48.77.77 0 0 1 .85-.62.79.79 0 0 1 .85.84V3h2.3v-.62c0-2-1.8-2.33-3.11-2.33-1.64 0-3 .54-3.23 2.05a3.12 3.12 0 0 0 0 1.24c.39 1.88 3.68 2.43 4.16 3.63a1.26 1.26 0 0 1 0 .68.79.79 0 0 1-.9.62.83.83 0 0 1-.93-.83v-.9h-2.44v.71C30.37 9.33 32 10 33.72 10s3-.57 3.26-2.11a4.55 4.55 0 0 0 0-1.51c-.4-1.99-3.9-2.57-4.16-3.65zM54 7.81L51.8.3h-3.46v9.23h2.29l-.13-7.75 2.36 7.75h3.32V.3h-2.31zM10 .3L8.26 9.63h2.52L12.08 1l1.27 8.64h2.5L14.13.3zm14.08 0L22.9 7.59 21.72.3h-3.8l-.2 9.33H20L20.11 1l1.6 8.64h2.37L25.69 1l.06 8.64h2.34L27.88.3zm21.68 0H43.4v6.9a1.64 1.64 0 0 1 0 .35.93.93 0 0 1-1.79 0 1.51 1.51 0 0 1 0-.35V.3h-2.4v7.32c.16 1.75 1.54 2.31 3.25 2.31s3.09-.57 3.26-2.31a4.86 4.86 0 0 0 0-.62V.3zM62 4.4v1.36h1v1.35a1.72 1.72 0 0 1 0 .35 1 1 0 0 1-1.91 0 2.37 2.37 0 0 1 0-.35V2.84a1.91 1.91 0 0 1 0-.44 1 1 0 0 1 1.86 0 2.43 2.43 0 0 1 0 .36v.52h2.35V3a5.63 5.63 0 0 0 0-.62C65 .61 63.6.05 61.95.05s-3.07.55-3.28 2.3v4.54a5.31 5.31 0 0 0 0 .62c.15 1.7 1.63 2.31 3.28 2.31s3.12-.6 3.28-2.31V4.39H62z" fill="#fff" data-name="Layer 1"/></g></svg><svg width="73.53" height="15" viewBox="-1 -1 73.53 15" xmlns="http://www.w3.org/2000/svg"><title>logo</title><g data-name="Layer 2"><path d="M17.26 3a3.27 3.27 0 0 0-2.54-1.11 3.92 3.92 0 0 0-3.93 3.9v.23a4 4 0 0 0 3.81 4.11h.08A3.25 3.25 0 0 0 17.26 9v1h1.83V2.1h-1.83zM15 8.5A2.45 2.45 0 1 1 17.35 6v.07A2.4 2.4 0 0 1 15 8.49M29.6 3a3.27 3.27 0 0 0-2.54-1.11 3.92 3.92 0 0 0-3.93 3.9v.23a4 4 0 0 0 3.81 4.11H27A3.25 3.25 0 0 0 29.6 9v1h1.83V2.1H29.6V3zm-2.27 5.49A2.45 2.45 0 1 1 29.69 6v.07a2.4 2.4 0 0 1-2.33 2.46m17.02-1.11l-2.21-5.33h-2l3.25 7.5L42 13h1.88l4.5-10.9h-1.92zM40 2.09h-2.14L36.07 4.6l-1.8-2.5H32L34.91 6l-3 4h2.23L36 7.37 38 10h2.23l-3-4zM20.34 10h1.84V0h-1.84zM4.87 6.24H8a2.8 2.8 0 0 1-2.84 2.14 3.29 3.29 0 0 1-.06-6.57A3.06 3.06 0 0 1 8 3.52l1.62-1A5 5 0 0 0 5.08 0a5.07 5.07 0 0 0 0 10.15h.1A4.76 4.76 0 0 0 10 5.48v-.99H4.87v1.75zm50.4-2.07c-1.07-.35-2-.61-2-1.39a1.19 1.19 0 0 1 1.23-1.14h.14a2 2 0 0 1 1.79.95l1.52-1.15A4.22 4.22 0 0 0 54.62 0a3 3 0 0 0-3.27 2.83c0 1.88 1.48 2.4 2.8 2.81 1.05.32 2.06.58 2.06 1.42a1.36 1.36 0 0 1-1.39 1.33h-.12a2.49 2.49 0 0 1-2.17-1.34l-1.67 1.34a4.86 4.86 0 0 0 3.86 1.77 3.17 3.17 0 0 0 3.4-2.91v-.16c0-1.89-1.52-2.49-2.86-2.92M62.21 0a3.33 3.33 0 0 0-3.5 3.15v.22a3.18 3.18 0 0 0 3 3.33h.13a2.07 2.07 0 0 0 .57-.08L60.26 10h2.16L65 5.92a4.77 4.77 0 0 0 .76-2.56A3.36 3.36 0 0 0 62.36 0h-.16m0 5.11a1.74 1.74 0 0 1-1.72-1.73 1.77 1.77 0 0 1 1.72-1.76 1.75 1.75 0 0 1 0 3.49m7.56-.81V2.59h-1.49v1.72h-1.74v1.55h1.75V7.6h1.52V5.86h1.73V4.32H69.8z" fill="#fff" data-name="Layer 1"/></g></svg></svg>