<svg width="653" height="613" xmlns="http://www.w3.org/2000/svg" xmlns:xlink="http://www.w3.org/1999/xlink"><svg width="61.54" height="36" viewBox="-1 -1 61.54 36" id="ally" x="261" y="457.64" xmlns="http://www.w3.org/2000/svg"><g data-name="Layer 2"><path d="M7.83 7.46a10 10 0 0 0-6.9 14 9.92 9.92 0 0 0 8 5.65c1-1.11 4.22-4.51 5.28-5.67C9.87 21.45 9 21.56 8 21a4.27 4.27 0 0 1 .61-7.93 4.32 4.32 0 0 1 5.54 4.41v9.2h5.74v-9.63A10 10 0 0 0 7.83 7.46zM31.42 0h5.96v26.73h-5.96zm-8.84 0h5.96v26.73h-5.96zm30.73 7.5l-3.89 11.77L45.34 7.5h-6.22l7.26 19.23-3 7.27h6.2l9.96-26.5h-6.23z" data-name="Layer 1" fill="#fff"/></g></svg><svg width="9" height="14" viewBox="-1 -1 9 14" id="caret" x="453.36" y="408.6" xmlns="http://www.w3.org/2000/svg"><path id="bcaret" d="M155.993 202.806l4.676-4.806-4.676-4.806 1.169-1.2 5.845 6.006-5.845 6.007z" transform="translate(-156 -192)" fill="#fbfbfb" fill-rule="evenodd"/></svg><svg width="114.99" height="49.04" viewBox="-1 -1 114.99 49.04" id="coin" x="261" y="408.6" xmlns="http://www.w3.org/2000/svg"><g data-name="Layer 2"><path d="M110.43 24.46a6.72 6.72 0 0 1 1.54 4.1C112 38.21 87.13 46 56.5 46S1 38.21 1 28.57a6.91 6.91 0 0 1 1.79-4.41m-1.77-6.07v10.48m110.95-10.48v10.48" fill="#371447" stroke="#faf3ec" stroke-linecap="round" stroke-miterlimit="10" stroke-width="2.04"/><path fill="#371447" stroke="#faf3ec" stroke-linecap="square" stroke-miterlimit="10" stroke-width="1.02" d="M104.57 28.57v8.14m-7.39-5.82v9.31m-7.4-7.37v9.31M82.38 34v9.69m-7.39-7.75v8.92m-7.4-8.92v9.69m-7.4-9.69v10.08M52.8 35.94v10.08m-7.4-10.08v9.69M38 35.55v9.31m-7.39-10.09v8.92m-7.4-11.24v9.69m-7.39-10.86v8.54m-7.4-11.25v8.53"/><ellipse cx="56.5" cy="18.48" rx="55.47" ry="17.46" fill="#371447" stroke="#faf3ec" stroke-linecap="round" stroke-miterlimit="10" stroke-width="2.04"/><path d="M70.94 17h5.78v1.4H70.9c-.43 1.6-1.9 3.08-4.68 4.35l-3-1.14c2.63-1.2 4-2.74 4-4.11 0-1.59-1.77-2.74-4.73-2.74-3.44 0-4.58 1.22-6 3.19-1.62 2.33-3.29 4.5-9 4.5-4.58 0-8.12-1.46-8.45-4h-6V17h6.16a7.8 7.8 0 0 1 3.53-3.73l2.91 1.07c-1.81 1.11-2.82 2.55-2.82 3.6 0 1.5 1.62 2.55 4.39 2.55 3 0 4.06-1.31 5.35-3.08 1.91-2.63 3.49-4.63 9.6-4.63 4.92.01 8.4 1.57 8.78 4.22z" fill="#faf3ec"/></g></svg><svg version="1.1" id="coin1" x="261" viewBox="-1 -1 130.5 204.3" xml:space="preserve" width="130.5" height="204.3" xmlns="http://www.w3.org/2000/svg"><style>.dst0,.dst1{fill:#371447;stroke:#faf3ec;stroke-width:2.2678;stroke-linecap:round;stroke-miterlimit:10}.dst1{stroke-width:1.1339;stroke-linecap:square}.dst2{display:none}.dst3,.dst4{fill:#371447;stroke:#faf3ec;stroke-miterlimit:10;display:inline;stroke-width:2.2678;stroke-linecap:round}.dst4{stroke-width:1.1339;stroke-linecap:square}</style><path class="dst0" d="M101.1 181.4c.9 1.2 1.4 2.5 1.4 3.8 0 8.8-22.7 16-50.7 16s-50.7-7.1-50.7-16c0-1.4.6-2.7 1.6-4m-1.6-5.6v9.6m101.5-9.6v9.6"/><path class="dst1" d="M95.8 185.2v7.4m-6.8-5.3v8.5m-6.7-6.7v8.5m-6.8-7.5v8.9m-6.8-7.1v8.2m-6.7-8.2v8.9m-6.8-8.9v9.2m-6.7-9.2v9.2m-6.8-9.2v8.9m-6.8-9.2v8.5m-6.7-9.2v8.1m-6.8-10.3v8.9m-6.7-9.9v7.8m-6.8-10.3v7.8"/><ellipse class="dst0" cx="51.8" cy="176" rx="50.7" ry="16"/><g class="dst2"><path class="dst3" d="M111.8 167.2c.9 1.2 1.4 2.5 1.4 3.8 0 8.8-22.7 16-50.7 16s-50.7-7.1-50.7-16c0-1.4.6-2.7 1.6-4m-1.6-5.6v9.6m101.4-9.6v9.6"/><path class="dst4" d="M106.4 171v7.4m-6.7-5.3v8.5m-6.8-6.7v8.5m-6.8-7.4v8.8m-6.7-7.1v8.2m-6.8-8.2v8.9m-6.7-8.9v9.2m-6.8-9.2v9.2m-6.8-9.2v8.9m-6.7-9.2v8.5m-6.8-9.2v8.1m-6.7-10.3v8.9m-6.8-9.9v7.8M18.5 171v7.8"/><ellipse class="dst3" cx="62.5" cy="161.8" rx="50.7" ry="16"/></g><g class="dst2"><path class="dst3" d="M101.1 154.1c.9 1.2 1.4 2.5 1.4 3.8 0 8.8-22.7 16-50.7 16s-50.7-7.1-50.7-16c0-1.4.6-2.7 1.6-4m-1.6-5.6v9.6m101.5-9.6v9.6"/><path class="dst4" d="M95.8 157.9v7.4M89 160v8.5m-6.7-6.7v8.5m-6.8-7.5v8.9m-6.8-7.1v8.2m-6.7-8.2v8.9m-6.8-8.9v9.2m-6.7-9.2v9.2m-6.8-9.2v8.9m-6.8-9.2v8.5m-6.7-9.3v8.2m-6.8-10.3v8.9m-6.7-9.9v7.8m-6.8-10.3v7.8"/><ellipse class="dst3" cx="51.8" cy="148.7" rx="50.7" ry="16"/></g><g class="dst2"><path class="dst3" d="M117.5 139.9c.9 1.2 1.4 2.5 1.4 3.8 0 8.8-22.7 16-50.7 16s-50.7-7.1-50.7-16c0-1.4.6-2.7 1.6-4m-1.7-5.6v9.6m101.5-9.6v9.6"/><path class="dst4" d="M112.1 143.7v7.4m-6.8-5.3v8.5m-6.7-6.7v8.5m-6.8-7.4v8.8m-6.7-7.1v8.2m-6.8-8.2v8.9m-6.8-8.9v9.2m-6.7-9.2v9.2m-6.8-9.2v8.9m-6.7-9.2v8.5m-6.8-9.2v8.1m-6.8-10.3v8.9m-6.7-9.9v7.8m-6.8-10.3v7.8"/><ellipse class="dst3" cx="68.2" cy="134.5" rx="50.7" ry="16"/></g><g class="dst2"><path class="dst3" d="M110.4 127.9c.9 1.2 1.4 2.5 1.4 3.8 0 8.8-22.7 16-50.7 16s-50.7-7.1-50.7-16c0-1.4.6-2.7 1.6-4m-1.6-5.6v9.5m101.4-9.5v9.5"/><path class="dst4" d="M105 131.6v7.5m-6.8-5.3v8.5m-6.7-6.8v8.5m-6.8-7.4v8.9m-6.7-7.1v8.1m-6.8-8.1v8.8m-6.8-8.8v9.2m-6.7-9.2v9.2m-6.8-9.2v8.8m-6.7-9.2v8.5m-6.8-9.2v8.2m-6.8-10.3v8.8m-6.7-9.9v7.8m-6.8-10.3v7.8"/><ellipse class="dst3" cx="61.1" cy="122.4" rx="50.7" ry="16"/></g><g class="dst2"><path class="dst3" d="M121 112.3c.9 1.2 1.4 2.5 1.4 3.8 0 8.8-22.7 16-50.7 16S21 124.8 21 116c0-1.4.6-2.7 1.6-4m-1.6-5.5v9.5m101.4-9.5v9.5"/><path class="dst4" d="M115.6 116v7.5m-6.7-5.3v8.5m-6.8-6.8v8.5m-6.7-7.4v8.9m-6.8-7.1v8.1m-6.8-8.1v8.8m-6.7-8.8v9.2m-6.8-9.2v9.2m-6.7-9.2v8.8m-6.8-9.2v8.5m-6.8-9.2v8.2m-6.7-10.3v8.8m-6.8-9.9v7.8M27.8 116v7.8"/><ellipse class="dst3" cx="71.7" cy="106.8" rx="50.7" ry="16"/></g><g class="dst2"><path class="dst3" d="M111.8 96.3c.9 1.2 1.4 2.5 1.4 3.8 0 8.8-22.7 16-50.7 16s-50.7-7.1-50.7-16c0-1.4.6-2.7 1.6-4m-1.6-5.6v9.6m101.4-9.6v9.6"/><path class="dst4" d="M106.4 100.1v7.4m-6.7-5.3v8.5m-6.8-6.7v8.5m-6.8-7.5v8.9m-6.7-7.1v8.2m-6.8-8.2v8.9m-6.7-8.9v9.2m-6.8-9.2v9.2m-6.8-9.2v8.9m-6.7-9.2v8.5m-6.8-9.3v8.2m-6.7-10.3v8.9m-6.8-9.9v7.8m-6.8-10.3v7.8"/><ellipse class="dst3" cx="62.5" cy="90.9" rx="50.7" ry="16"/></g><g class="dst2"><path class="dst3" d="M108.2 83.2c.9 1.2 1.4 2.5 1.4 3.8 0 8.8-22.7 16-50.7 16S8.2 95.9 8.2 87c0-1.4.6-2.7 1.6-4m-1.6-5.6v9.5m101.4-9.5v9.5"/><path class="dst4" d="M102.9 86.9v7.5m-6.8-5.3v8.5m-6.7-6.7v8.5m-6.8-7.5v8.9m-6.8-7.1v8.1m-6.7-8.1v8.9m-6.8-8.9v9.2m-6.7-9.2v9.2m-6.8-9.2v8.9M42 93.3v8.5m-6.7-9.2v8.2m-6.8-10.3v8.9m-6.8-10v7.8M15 86.9v7.9"/><ellipse class="dst3" cx="58.9" cy="77.7" rx="50.7" ry="16"/></g><g class="dst2"><path class="dst3" d="M126 68.3c.9 1.2 1.4 2.5 1.4 3.8 0 8.8-22.7 16-50.7 16S26 80.9 26 72.1c0-1.4.6-2.7 1.6-4M26 62.5v9.6m101.4-9.6v9.6"/><path class="dst4" d="M120.6 72.1v7.4m-6.7-5.3v8.5m-6.8-6.7v8.5m-6.8-7.5v8.9m-6.7-7.1v8.1m-6.8-8.1v8.9M80 78.8V88m-6.7-9.2V88m-6.8-9.2v8.9m-6.7-9.3v8.5M53 77.7v8.2m-6.8-10.3v8.9m-6.7-10v7.8m-6.8-10.2v7.8"/><ellipse class="dst3" cx="76.7" cy="62.8" rx="50.7" ry="16"/></g><g class="dst2"><path class="dst3" d="M118.9 53.8c.9 1.2 1.4 2.5 1.4 3.8 0 8.8-22.7 16-50.7 16s-50.7-7.1-50.7-16c0-1.4.6-2.7 1.6-4m-1.6-5.7v9.6m101.4-9.6v9.6"/><path class="dst4" d="M113.5 57.5V65m-6.7-5.4v8.6m-6.8-6.8v8.5m-6.8-7.4v8.8m-6.7-7v8.1m-6.8-8.1v8.8M73 64.3v9.2m-6.8-9.2v9.2m-6.8-9.2v8.8m-6.7-9.2v8.5m-6.8-9.2v8.1m-6.8-10.2v8.8M32.4 60v7.8m-6.8-10.3v7.8"/><ellipse class="dst3" cx="69.6" cy="48.3" rx="50.7" ry="16"/></g><g class="dst2"><path class="dst3" d="M124.9 36.7c.9 1.2 1.4 2.5 1.4 3.8 0 8.8-22.7 16-50.7 16s-50.7-7.1-50.7-16c0-1.4.6-2.7 1.6-4m-1.6-5.6v9.6m101.4-9.6v9.6"/><path class="dst4" d="M119.5 40.5v7.4m-6.7-5.3v8.5m-6.8-6.7v8.5m-6.7-7.4v8.8m-6.8-7.1v8.2m-6.8-8.2v8.9M79 47.2v9.3m-6.8-9.3v9.3m-6.7-9.3v8.9m-6.8-9.2v8.5m-6.8-9.2v8.1M45.2 44v8.9M38.4 43v7.8m-6.7-10.3v7.8"/><ellipse class="dst3" cx="75.6" cy="31.3" rx="50.7" ry="16"/></g><g class="dst2"><path class="dst0" d="M103.6 22.6c.9 1.2 1.4 2.5 1.4 3.8 0 8.8-22.7 16-50.7 16s-50.7-7.1-50.7-16c0-1.4.6-2.7 1.6-4m-1.6-5.7v9.6M105 16.7v9.6"/><path class="dst1" d="M98.3 26.3v7.5m-6.8-5.4v8.5m-6.7-6.7v8.5M78 31.3v8.8M71.2 33v8.2M64.5 33v8.9M57.7 33v9.3M50.9 33v9.3M44.2 33v8.9m-6.8-9.2v8.5M30.7 32v8.1m-6.8-10.2v8.8m-6.8-9.9v7.8m-6.7-10.3v7.8"/><ellipse class="dst0" cx="54.3" cy="17.1" rx="50.7" ry="16"/><path d="M67.5 15.7h5.3V17h-5.3c-.4 1.4-1.7 2.8-4.3 4l-2.7-1c2.4-1.1 3.6-2.5 3.6-3.8 0-1.4-1.6-2.5-4.3-2.5-3.1 0-4.2 1.1-5.5 2.9-1.5 2.1-3 4.1-8.2 4.1-4.2 0-7.4-1.3-7.7-3.7h-5.5v-1.3h5.6c.4-1.2 1.7-2.5 3.2-3.4l2.7 1c-1.7 1-2.6 2.3-2.6 3.3 0 1.4 1.5 2.3 4 2.3 2.7 0 3.7-1.2 4.9-2.8 1.7-2.4 3.2-4.2 8.8-4.2 4.5 0 7.7 1.4 8 3.8z" fill="#faf3ec"/></g></svg><svg version="1.1" id="coin10" x="391.5" viewBox="-1 -1 130.5 204.3" xml:space="preserve" width="130.5" height="204.3" xmlns="http://www.w3.org/2000/svg"><style>.est0{display:none}.est1{display:inline;stroke-width:2.2678;stroke-linecap:round}.est1,.est2,.est3,.est4{fill:#371447;stroke:#faf3ec;stroke-miterlimit:10}.est2{display:inline;stroke-width:1.1339;stroke-linecap:square}.est3{stroke-width:2.2678;stroke-linecap:round}.est4{stroke-width:1.1339;stroke-linecap:square}</style><g class="est0"><path class="est1" d="M101.1 181.4c.9 1.2 1.4 2.5 1.4 3.8 0 8.8-22.7 16-50.7 16s-50.7-7.1-50.7-16c0-1.4.6-2.7 1.6-4m-1.6-5.6v9.6m101.5-9.6v9.6"/><path class="est2" d="M95.8 185.2v7.4m-6.8-5.3v8.5m-6.7-6.7v8.5m-6.8-7.5v8.9m-6.8-7.1v8.2m-6.7-8.2v8.9m-6.8-8.9v9.2m-6.7-9.2v9.2m-6.8-9.2v8.9m-6.8-9.2v8.5m-6.7-9.2v8.1m-6.8-10.3v8.9m-6.7-9.9v7.8m-6.8-10.3v7.8"/><ellipse class="est1" cx="51.8" cy="176" rx="50.7" ry="16"/></g><g class="est0"><path class="est1" d="M111.8 167.2c.9 1.2 1.4 2.5 1.4 3.8 0 8.8-22.7 16-50.7 16s-50.7-7.1-50.7-16c0-1.4.6-2.7 1.6-4m-1.6-5.6v9.6m101.4-9.6v9.6"/><path class="est2" d="M106.4 171v7.4m-6.7-5.3v8.5m-6.8-6.7v8.5m-6.8-7.4v8.8m-6.7-7.1v8.2m-6.8-8.2v8.9m-6.7-8.9v9.2m-6.8-9.2v9.2m-6.8-9.2v8.9m-6.7-9.2v8.5m-6.8-9.2v8.1m-6.7-10.3v8.9m-6.8-9.9v7.8M18.5 171v7.8"/><ellipse class="est1" cx="62.5" cy="161.8" rx="50.7" ry="16"/></g><g class="est0"><path class="est1" d="M101.1 154.1c.9 1.2 1.4 2.5 1.4 3.8 0 8.8-22.7 16-50.7 16s-50.7-7.1-50.7-16c0-1.4.6-2.7 1.6-4m-1.6-5.6v9.6m101.5-9.6v9.6"/><path class="est2" d="M95.8 157.9v7.4M89 160v8.5m-6.7-6.7v8.5m-6.8-7.5v8.9m-6.8-7.1v8.2m-6.7-8.2v8.9m-6.8-8.9v9.2m-6.7-9.2v9.2m-6.8-9.2v8.9m-6.8-9.2v8.5m-6.7-9.3v8.2m-6.8-10.3v8.9m-6.7-9.9v7.8m-6.8-10.3v7.8"/><ellipse class="est1" cx="51.8" cy="148.7" rx="50.7" ry="16"/></g><g class="est0"><path class="est1" d="M117.5 139.9c.9 1.2 1.4 2.5 1.4 3.8 0 8.8-22.7 16-50.7 16s-50.7-7.1-50.7-16c0-1.4.6-2.7 1.6-4m-1.7-5.6v9.6m101.5-9.6v9.6"/><path class="est2" d="M112.1 143.7v7.4m-6.8-5.3v8.5m-6.7-6.7v8.5m-6.8-7.4v8.8m-6.7-7.1v8.2m-6.8-8.2v8.9m-6.8-8.9v9.2m-6.7-9.2v9.2m-6.8-9.2v8.9m-6.7-9.2v8.5m-6.8-9.2v8.1m-6.8-10.3v8.9m-6.7-9.9v7.8m-6.8-10.3v7.8"/><ellipse class="est1" cx="68.2" cy="134.5" rx="50.7" ry="16"/></g><g class="est0"><path class="est1" d="M110.4 127.9c.9 1.2 1.4 2.5 1.4 3.8 0 8.8-22.7 16-50.7 16s-50.7-7.1-50.7-16c0-1.4.6-2.7 1.6-4m-1.6-5.6v9.5m101.4-9.5v9.5"/><path class="est2" d="M105 131.6v7.5m-6.8-5.3v8.5m-6.7-6.8v8.5m-6.8-7.4v8.9m-6.7-7.1v8.1m-6.8-8.1v8.8m-6.8-8.8v9.2m-6.7-9.2v9.2m-6.8-9.2v8.8m-6.7-9.2v8.5m-6.8-9.2v8.2m-6.8-10.3v8.8m-6.7-9.9v7.8m-6.8-10.3v7.8"/><ellipse class="est1" cx="61.1" cy="122.4" rx="50.7" ry="16"/></g><g class="est0"><path class="est1" d="M121 112.3c.9 1.2 1.4 2.5 1.4 3.8 0 8.8-22.7 16-50.7 16S21 124.8 21 116c0-1.4.6-2.7 1.6-4m-1.6-5.5v9.5m101.4-9.5v9.5"/><path class="est2" d="M115.6 116v7.5m-6.7-5.3v8.5m-6.8-6.8v8.5m-6.7-7.4v8.9m-6.8-7.1v8.1m-6.8-8.1v8.8m-6.7-8.8v9.2m-6.8-9.2v9.2m-6.7-9.2v8.8m-6.8-9.2v8.5m-6.8-9.2v8.2m-6.7-10.3v8.8m-6.8-9.9v7.8M27.8 116v7.8"/><ellipse class="est1" cx="71.7" cy="106.8" rx="50.7" ry="16"/></g><g class="est0"><path class="est1" d="M111.8 96.3c.9 1.2 1.4 2.5 1.4 3.8 0 8.8-22.7 16-50.7 16s-50.7-7.1-50.7-16c0-1.4.6-2.7 1.6-4m-1.6-5.6v9.6m101.4-9.6v9.6"/><path class="est2" d="M106.4 100.1v7.4m-6.7-5.3v8.5m-6.8-6.7v8.5m-6.8-7.5v8.9m-6.7-7.1v8.2m-6.8-8.2v8.9m-6.7-8.9v9.2m-6.8-9.2v9.2m-6.8-9.2v8.9m-6.7-9.2v8.5m-6.8-9.3v8.2m-6.7-10.3v8.9m-6.8-9.9v7.8m-6.8-10.3v7.8"/><ellipse class="est1" cx="62.5" cy="90.9" rx="50.7" ry="16"/></g><g class="est0"><path class="est1" d="M108.2 83.2c.9 1.2 1.4 2.5 1.4 3.8 0 8.8-22.7 16-50.7 16S8.2 95.9 8.2 87c0-1.4.6-2.7 1.6-4m-1.6-5.6v9.5m101.4-9.5v9.5"/><path class="est2" d="M102.9 86.9v7.5m-6.8-5.3v8.5m-6.7-6.7v8.5m-6.8-7.5v8.9m-6.8-7.1v8.1m-6.7-8.1v8.9m-6.8-8.9v9.2m-6.7-9.2v9.2m-6.8-9.2v8.9M42 93.3v8.5m-6.7-9.2v8.2m-6.8-10.3v8.9m-6.8-10v7.8M15 86.9v7.9"/><ellipse class="est1" cx="58.9" cy="77.7" rx="50.7" ry="16"/></g><g class="est0"><path class="est1" d="M126 68.3c.9 1.2 1.4 2.5 1.4 3.8 0 8.8-22.7 16-50.7 16S26 80.9 26 72.1c0-1.4.6-2.7 1.6-4M26 62.5v9.6m101.4-9.6v9.6"/><path class="est2" d="M120.6 72.1v7.4m-6.7-5.3v8.5m-6.8-6.7v8.5m-6.8-7.5v8.9m-6.7-7.1v8.1m-6.8-8.1v8.9M80 78.8V88m-6.7-9.2V88m-6.8-9.2v8.9m-6.7-9.3v8.5M53 77.7v8.2m-6.8-10.3v8.9m-6.7-10v7.8m-6.8-10.2v7.8"/><ellipse class="est1" cx="76.7" cy="62.8" rx="50.7" ry="16"/></g><path class="est3" d="M118.9 53.8c.9 1.2 1.4 2.5 1.4 3.8 0 8.8-22.7 16-50.7 16s-50.7-7.1-50.7-16c0-1.4.6-2.7 1.6-4m-1.6-5.7v9.6m101.4-9.6v9.6"/><path class="est4" d="M113.5 57.5V65m-6.7-5.4v8.6m-6.8-6.8v8.5m-6.8-7.4v8.8m-6.7-7v8.1m-6.8-8.1v8.8M73 64.3v9.2m-6.8-9.2v9.2m-6.8-9.2v8.8m-6.7-9.2v8.5m-6.8-9.2v8.1m-6.8-10.2v8.8M32.4 60v7.8m-6.8-10.3v7.8"/><ellipse class="est3" cx="69.6" cy="48.3" rx="50.7" ry="16"/><g class="est0"><path class="est1" d="M124.9 36.7c.9 1.2 1.4 2.5 1.4 3.8 0 8.8-22.7 16-50.7 16s-50.7-7.1-50.7-16c0-1.4.6-2.7 1.6-4m-1.6-5.6v9.6m101.4-9.6v9.6"/><path class="est2" d="M119.5 40.5v7.4m-6.7-5.3v8.5m-6.8-6.7v8.5m-6.7-7.4v8.8m-6.8-7.1v8.2m-6.8-8.2v8.9M79 47.2v9.3m-6.8-9.3v9.3m-6.7-9.3v8.9m-6.8-9.2v8.5m-6.8-9.2v8.1M45.2 44v8.9M38.4 43v7.8m-6.7-10.3v7.8"/><ellipse class="est1" cx="75.6" cy="31.3" rx="50.7" ry="16"/></g><g class="est0"><path class="est3" d="M103.6 22.6c.9 1.2 1.4 2.5 1.4 3.8 0 8.8-22.7 16-50.7 16s-50.7-7.1-50.7-16c0-1.4.6-2.7 1.6-4m-1.6-5.7v9.6M105 16.7v9.6"/><path class="est4" d="M98.3 26.3v7.5m-6.8-5.4v8.5m-6.7-6.7v8.5M78 31.3v8.8M71.2 33v8.2M64.5 33v8.9M57.7 33v9.3M50.9 33v9.3M44.2 33v8.9m-6.8-9.2v8.5M30.7 32v8.1m-6.8-10.2v8.8m-6.8-9.9v7.8m-6.7-10.3v7.8"/><ellipse class="est3" cx="54.3" cy="17.1" rx="50.7" ry="16"/><path d="M67.5 15.7h5.3V17h-5.3c-.4 1.4-1.7 2.8-4.3 4l-2.7-1c2.4-1.1 3.6-2.5 3.6-3.8 0-1.4-1.6-2.5-4.3-2.5-3.1 0-4.2 1.1-5.5 2.9-1.5 2.1-3 4.1-8.2 4.1-4.2 0-7.4-1.3-7.7-3.7h-5.5v-1.3h5.6c.4-1.2 1.7-2.5 3.2-3.4l2.7 1c-1.7 1-2.6 2.3-2.6 3.3 0 1.4 1.5 2.3 4 2.3 2.7 0 3.7-1.2 4.9-2.8 1.7-2.4 3.2-4.2 8.8-4.2 4.5 0 7.7 1.4 8 3.8z" fill="#faf3ec"/></g></svg><svg version="1.1" id="coin11" y="204.3" viewBox="-1 -1 130.5 204.3" xml:space="preserve" width="130.5" height="204.3" xmlns="http://www.w3.org/2000/svg"><style>.fst0{display:none}.fst1{display:inline;stroke-width:2.2678;stroke-linecap:round}.fst1,.fst2,.fst3,.fst4{fill:#371447;stroke:#faf3ec;stroke-miterlimit:10}.fst2{display:inline;stroke-width:1.1339;stroke-linecap:square}.fst3{stroke-width:2.2678;stroke-linecap:round}.fst4{stroke-width:1.1339;stroke-linecap:square}</style><g class="fst0"><path class="fst1" d="M101.1 181.4c.9 1.2 1.4 2.5 1.4 3.8 0 8.8-22.7 16-50.7 16s-50.7-7.1-50.7-16c0-1.4.6-2.7 1.6-4m-1.6-5.6v9.6m101.5-9.6v9.6"/><path class="fst2" d="M95.8 185.2v7.4m-6.8-5.3v8.5m-6.7-6.7v8.5m-6.8-7.5v8.9m-6.8-7.1v8.2m-6.7-8.2v8.9m-6.8-8.9v9.2m-6.7-9.2v9.2m-6.8-9.2v8.9m-6.8-9.2v8.5m-6.7-9.2v8.1m-6.8-10.3v8.9m-6.7-9.9v7.8m-6.8-10.3v7.8"/><ellipse class="fst1" cx="51.8" cy="176" rx="50.7" ry="16"/></g><g class="fst0"><path class="fst1" d="M111.8 167.2c.9 1.2 1.4 2.5 1.4 3.8 0 8.8-22.7 16-50.7 16s-50.7-7.1-50.7-16c0-1.4.6-2.7 1.6-4m-1.6-5.6v9.6m101.4-9.6v9.6"/><path class="fst2" d="M106.4 171v7.4m-6.7-5.3v8.5m-6.8-6.7v8.5m-6.8-7.4v8.8m-6.7-7.1v8.2m-6.8-8.2v8.9m-6.7-8.9v9.2m-6.8-9.2v9.2m-6.8-9.2v8.9m-6.7-9.2v8.5m-6.8-9.2v8.1m-6.7-10.3v8.9m-6.8-9.9v7.8M18.5 171v7.8"/><ellipse class="fst1" cx="62.5" cy="161.8" rx="50.7" ry="16"/></g><g class="fst0"><path class="fst1" d="M101.1 154.1c.9 1.2 1.4 2.5 1.4 3.8 0 8.8-22.7 16-50.7 16s-50.7-7.1-50.7-16c0-1.4.6-2.7 1.6-4m-1.6-5.6v9.6m101.5-9.6v9.6"/><path class="fst2" d="M95.8 157.9v7.4M89 160v8.5m-6.7-6.7v8.5m-6.8-7.5v8.9m-6.8-7.1v8.2m-6.7-8.2v8.9m-6.8-8.9v9.2m-6.7-9.2v9.2m-6.8-9.2v8.9m-6.8-9.2v8.5m-6.7-9.3v8.2m-6.8-10.3v8.9m-6.7-9.9v7.8m-6.8-10.3v7.8"/><ellipse class="fst1" cx="51.8" cy="148.7" rx="50.7" ry="16"/></g><g class="fst0"><path class="fst1" d="M117.5 139.9c.9 1.2 1.4 2.5 1.4 3.8 0 8.8-22.7 16-50.7 16s-50.7-7.1-50.7-16c0-1.4.6-2.7 1.6-4m-1.7-5.6v9.6m101.5-9.6v9.6"/><path class="fst2" d="M112.1 143.7v7.4m-6.8-5.3v8.5m-6.7-6.7v8.5m-6.8-7.4v8.8m-6.7-7.1v8.2m-6.8-8.2v8.9m-6.8-8.9v9.2m-6.7-9.2v9.2m-6.8-9.2v8.9m-6.7-9.2v8.5m-6.8-9.2v8.1m-6.8-10.3v8.9m-6.7-9.9v7.8m-6.8-10.3v7.8"/><ellipse class="fst1" cx="68.2" cy="134.5" rx="50.7" ry="16"/></g><g class="fst0"><path class="fst1" d="M110.4 127.9c.9 1.2 1.4 2.5 1.4 3.8 0 8.8-22.7 16-50.7 16s-50.7-7.1-50.7-16c0-1.4.6-2.7 1.6-4m-1.6-5.6v9.5m101.4-9.5v9.5"/><path class="fst2" d="M105 131.6v7.5m-6.8-5.3v8.5m-6.7-6.8v8.5m-6.8-7.4v8.9m-6.7-7.1v8.1m-6.8-8.1v8.8m-6.8-8.8v9.2m-6.7-9.2v9.2m-6.8-9.2v8.8m-6.7-9.2v8.5m-6.8-9.2v8.2m-6.8-10.3v8.8m-6.7-9.9v7.8m-6.8-10.3v7.8"/><ellipse class="fst1" cx="61.1" cy="122.4" rx="50.7" ry="16"/></g><g class="fst0"><path class="fst1" d="M121 112.3c.9 1.2 1.4 2.5 1.4 3.8 0 8.8-22.7 16-50.7 16S21 124.8 21 116c0-1.4.6-2.7 1.6-4m-1.6-5.5v9.5m101.4-9.5v9.5"/><path class="fst2" d="M115.6 116v7.5m-6.7-5.3v8.5m-6.8-6.8v8.5m-6.7-7.4v8.9m-6.8-7.1v8.1m-6.8-8.1v8.8m-6.7-8.8v9.2m-6.8-9.2v9.2m-6.7-9.2v8.8m-6.8-9.2v8.5m-6.8-9.2v8.2m-6.7-10.3v8.8m-6.8-9.9v7.8M27.8 116v7.8"/><ellipse class="fst1" cx="71.7" cy="106.8" rx="50.7" ry="16"/></g><g class="fst0"><path class="fst1" d="M111.8 96.3c.9 1.2 1.4 2.5 1.4 3.8 0 8.8-22.7 16-50.7 16s-50.7-7.1-50.7-16c0-1.4.6-2.7 1.6-4m-1.6-5.6v9.6m101.4-9.6v9.6"/><path class="fst2" d="M106.4 100.1v7.4m-6.7-5.3v8.5m-6.8-6.7v8.5m-6.8-7.5v8.9m-6.7-7.1v8.2m-6.8-8.2v8.9m-6.7-8.9v9.2m-6.8-9.2v9.2m-6.8-9.2v8.9m-6.7-9.2v8.5m-6.8-9.3v8.2m-6.7-10.3v8.9m-6.8-9.9v7.8m-6.8-10.3v7.8"/><ellipse class="fst1" cx="62.5" cy="90.9" rx="50.7" ry="16"/></g><g class="fst0"><path class="fst1" d="M108.2 83.2c.9 1.2 1.4 2.5 1.4 3.8 0 8.8-22.7 16-50.7 16S8.2 95.9 8.2 87c0-1.4.6-2.7 1.6-4m-1.6-5.6v9.5m101.4-9.5v9.5"/><path class="fst2" d="M102.9 86.9v7.5m-6.8-5.3v8.5m-6.7-6.7v8.5m-6.8-7.5v8.9m-6.8-7.1v8.1m-6.7-8.1v8.9m-6.8-8.9v9.2m-6.7-9.2v9.2m-6.8-9.2v8.9M42 93.3v8.5m-6.7-9.2v8.2m-6.8-10.3v8.9m-6.8-10v7.8M15 86.9v7.9"/><ellipse class="fst1" cx="58.9" cy="77.7" rx="50.7" ry="16"/></g><g class="fst0"><path class="fst1" d="M126 68.3c.9 1.2 1.4 2.5 1.4 3.8 0 8.8-22.7 16-50.7 16S26 80.9 26 72.1c0-1.4.6-2.7 1.6-4M26 62.5v9.6m101.4-9.6v9.6"/><path class="fst2" d="M120.6 72.1v7.4m-6.7-5.3v8.5m-6.8-6.7v8.5m-6.8-7.5v8.9m-6.7-7.1v8.1m-6.8-8.1v8.9M80 78.8V88m-6.7-9.2V88m-6.8-9.2v8.9m-6.7-9.3v8.5M53 77.7v8.2m-6.8-10.3v8.9m-6.7-10v7.8m-6.8-10.2v7.8"/><ellipse class="fst1" cx="76.7" cy="62.8" rx="50.7" ry="16"/></g><g class="fst0"><path class="fst1" d="M118.9 53.8c.9 1.2 1.4 2.5 1.4 3.8 0 8.8-22.7 16-50.7 16s-50.7-7.1-50.7-16c0-1.4.6-2.7 1.6-4m-1.6-5.7v9.6m101.4-9.6v9.6"/><path class="fst2" d="M113.5 57.5V65m-6.7-5.4v8.6m-6.8-6.8v8.5m-6.8-7.4v8.8m-6.7-7v8.1m-6.8-8.1v8.8M73 64.3v9.2m-6.8-9.2v9.2m-6.8-9.2v8.8m-6.7-9.2v8.5m-6.8-9.2v8.1m-6.8-10.2v8.8M32.4 60v7.8m-6.8-10.3v7.8"/><ellipse class="fst1" cx="69.6" cy="48.3" rx="50.7" ry="16"/></g><path class="fst3" d="M124.9 36.7c.9 1.2 1.4 2.5 1.4 3.8 0 8.8-22.7 16-50.7 16s-50.7-7.1-50.7-16c0-1.4.6-2.7 1.6-4m-1.6-5.6v9.6m101.4-9.6v9.6"/><path class="fst4" d="M119.5 40.5v7.4m-6.7-5.3v8.5m-6.8-6.7v8.5m-6.7-7.4v8.8m-6.8-7.1v8.2m-6.8-8.2v8.9M79 47.2v9.3m-6.8-9.3v9.3m-6.7-9.3v8.9m-6.8-9.2v8.5m-6.8-9.2v8.1M45.2 44v8.9M38.4 43v7.8m-6.7-10.3v7.8"/><ellipse class="fst3" cx="75.6" cy="31.3" rx="50.7" ry="16"/><g class="fst0"><path class="fst3" d="M103.6 22.6c.9 1.2 1.4 2.5 1.4 3.8 0 8.8-22.7 16-50.7 16s-50.7-7.1-50.7-16c0-1.4.6-2.7 1.6-4m-1.6-5.7v9.6M105 16.7v9.6"/><path class="fst4" d="M98.3 26.3v7.5m-6.8-5.4v8.5m-6.7-6.7v8.5M78 31.3v8.8M71.2 33v8.2M64.5 33v8.9M57.7 33v9.3M50.9 33v9.3M44.2 33v8.9m-6.8-9.2v8.5M30.7 32v8.1m-6.8-10.2v8.8m-6.8-9.9v7.8m-6.7-10.3v7.8"/><ellipse class="fst3" cx="54.3" cy="17.1" rx="50.7" ry="16"/><path d="M67.5 15.7h5.3V17h-5.3c-.4 1.4-1.7 2.8-4.3 4l-2.7-1c2.4-1.1 3.6-2.5 3.6-3.8 0-1.4-1.6-2.5-4.3-2.5-3.1 0-4.2 1.1-5.5 2.9-1.5 2.1-3 4.1-8.2 4.1-4.2 0-7.4-1.3-7.7-3.7h-5.5v-1.3h5.6c.4-1.2 1.7-2.5 3.2-3.4l2.7 1c-1.7 1-2.6 2.3-2.6 3.3 0 1.4 1.5 2.3 4 2.3 2.7 0 3.7-1.2 4.9-2.8 1.7-2.4 3.2-4.2 8.8-4.2 4.5 0 7.7 1.4 8 3.8z" fill="#faf3ec"/></g></svg><svg version="1.1" id="coin12" x="130.5" y="204.3" viewBox="-1 -1 130.5 204.3" xml:space="preserve" width="130.5" height="204.3" xmlns="http://www.w3.org/2000/svg"><style>.gst0{display:none}.gst1{display:inline;stroke-width:2.2678;stroke-linecap:round}.gst1,.gst2,.gst3{fill:#371447;stroke:#faf3ec;stroke-miterlimit:10}.gst2{display:inline;stroke-width:1.1339;stroke-linecap:square}.gst3{stroke-width:2.2678;stroke-linecap:round}</style><g class="gst0"><path class="gst1" d="M101.1 181.4c.9 1.2 1.4 2.5 1.4 3.8 0 8.8-22.7 16-50.7 16s-50.7-7.1-50.7-16c0-1.4.6-2.7 1.6-4m-1.6-5.6v9.6m101.5-9.6v9.6"/><path class="gst2" d="M95.8 185.2v7.4m-6.8-5.3v8.5m-6.7-6.7v8.5m-6.8-7.5v8.9m-6.8-7.1v8.2m-6.7-8.2v8.9m-6.8-8.9v9.2m-6.7-9.2v9.2m-6.8-9.2v8.9m-6.8-9.2v8.5m-6.7-9.2v8.1m-6.8-10.3v8.9m-6.7-9.9v7.8m-6.8-10.3v7.8"/><ellipse class="gst1" cx="51.8" cy="176" rx="50.7" ry="16"/></g><g class="gst0"><path class="gst1" d="M111.8 167.2c.9 1.2 1.4 2.5 1.4 3.8 0 8.8-22.7 16-50.7 16s-50.7-7.1-50.7-16c0-1.4.6-2.7 1.6-4m-1.6-5.6v9.6m101.4-9.6v9.6"/><path class="gst2" d="M106.4 171v7.4m-6.7-5.3v8.5m-6.8-6.7v8.5m-6.8-7.4v8.8m-6.7-7.1v8.2m-6.8-8.2v8.9m-6.7-8.9v9.2m-6.8-9.2v9.2m-6.8-9.2v8.9m-6.7-9.2v8.5m-6.8-9.2v8.1m-6.7-10.3v8.9m-6.8-9.9v7.8M18.5 171v7.8"/><ellipse class="gst1" cx="62.5" cy="161.8" rx="50.7" ry="16"/></g><g class="gst0"><path class="gst1" d="M101.1 154.1c.9 1.2 1.4 2.5 1.4 3.8 0 8.8-22.7 16-50.7 16s-50.7-7.1-50.7-16c0-1.4.6-2.7 1.6-4m-1.6-5.6v9.6m101.5-9.6v9.6"/><path class="gst2" d="M95.8 157.9v7.4M89 160v8.5m-6.7-6.7v8.5m-6.8-7.5v8.9m-6.8-7.1v8.2m-6.7-8.2v8.9m-6.8-8.9v9.2m-6.7-9.2v9.2m-6.8-9.2v8.9m-6.8-9.2v8.5m-6.7-9.3v8.2m-6.8-10.3v8.9m-6.7-9.9v7.8m-6.8-10.3v7.8"/><ellipse class="gst1" cx="51.8" cy="148.7" rx="50.7" ry="16"/></g><g class="gst0"><path class="gst1" d="M117.5 139.9c.9 1.2 1.4 2.5 1.4 3.8 0 8.8-22.7 16-50.7 16s-50.7-7.1-50.7-16c0-1.4.6-2.7 1.6-4m-1.7-5.6v9.6m101.5-9.6v9.6"/><path class="gst2" d="M112.1 143.7v7.4m-6.8-5.3v8.5m-6.7-6.7v8.5m-6.8-7.4v8.8m-6.7-7.1v8.2m-6.8-8.2v8.9m-6.8-8.9v9.2m-6.7-9.2v9.2m-6.8-9.2v8.9m-6.7-9.2v8.5m-6.8-9.2v8.1m-6.8-10.3v8.9m-6.7-9.9v7.8m-6.8-10.3v7.8"/><ellipse class="gst1" cx="68.2" cy="134.5" rx="50.7" ry="16"/></g><g class="gst0"><path class="gst1" d="M110.4 127.9c.9 1.2 1.4 2.5 1.4 3.8 0 8.8-22.7 16-50.7 16s-50.7-7.1-50.7-16c0-1.4.6-2.7 1.6-4m-1.6-5.6v9.5m101.4-9.5v9.5"/><path class="gst2" d="M105 131.6v7.5m-6.8-5.3v8.5m-6.7-6.8v8.5m-6.8-7.4v8.9m-6.7-7.1v8.1m-6.8-8.1v8.8m-6.8-8.8v9.2m-6.7-9.2v9.2m-6.8-9.2v8.8m-6.7-9.2v8.5m-6.8-9.2v8.2m-6.8-10.3v8.8m-6.7-9.9v7.8m-6.8-10.3v7.8"/><ellipse class="gst1" cx="61.1" cy="122.4" rx="50.7" ry="16"/></g><g class="gst0"><path class="gst1" d="M121 112.3c.9 1.2 1.4 2.5 1.4 3.8 0 8.8-22.7 16-50.7 16S21 124.8 21 116c0-1.4.6-2.7 1.6-4m-1.6-5.5v9.5m101.4-9.5v9.5"/><path class="gst2" d="M115.6 116v7.5m-6.7-5.3v8.5m-6.8-6.8v8.5m-6.7-7.4v8.9m-6.8-7.1v8.1m-6.8-8.1v8.8m-6.7-8.8v9.2m-6.8-9.2v9.2m-6.7-9.2v8.8m-6.8-9.2v8.5m-6.8-9.2v8.2m-6.7-10.3v8.8m-6.8-9.9v7.8M27.8 116v7.8"/><ellipse class="gst1" cx="71.7" cy="106.8" rx="50.7" ry="16"/></g><g class="gst0"><path class="gst1" d="M111.8 96.3c.9 1.2 1.4 2.5 1.4 3.8 0 8.8-22.7 16-50.7 16s-50.7-7.1-50.7-16c0-1.4.6-2.7 1.6-4m-1.6-5.6v9.6m101.4-9.6v9.6"/><path class="gst2" d="M106.4 100.1v7.4m-6.7-5.3v8.5m-6.8-6.7v8.5m-6.8-7.5v8.9m-6.7-7.1v8.2m-6.8-8.2v8.9m-6.7-8.9v9.2m-6.8-9.2v9.2m-6.8-9.2v8.9m-6.7-9.2v8.5m-6.8-9.3v8.2m-6.7-10.3v8.9m-6.8-9.9v7.8m-6.8-10.3v7.8"/><ellipse class="gst1" cx="62.5" cy="90.9" rx="50.7" ry="16"/></g><g class="gst0"><path class="gst1" d="M108.2 83.2c.9 1.2 1.4 2.5 1.4 3.8 0 8.8-22.7 16-50.7 16S8.2 95.9 8.2 87c0-1.4.6-2.7 1.6-4m-1.6-5.6v9.5m101.4-9.5v9.5"/><path class="gst2" d="M102.9 86.9v7.5m-6.8-5.3v8.5m-6.7-6.7v8.5m-6.8-7.5v8.9m-6.8-7.1v8.1m-6.7-8.1v8.9m-6.8-8.9v9.2m-6.7-9.2v9.2m-6.8-9.2v8.9M42 93.3v8.5m-6.7-9.2v8.2m-6.8-10.3v8.9m-6.8-10v7.8M15 86.9v7.9"/><ellipse class="gst1" cx="58.9" cy="77.7" rx="50.7" ry="16"/></g><g class="gst0"><path class="gst1" d="M126 68.3c.9 1.2 1.4 2.5 1.4 3.8 0 8.8-22.7 16-50.7 16S26 80.9 26 72.1c0-1.4.6-2.7 1.6-4M26 62.5v9.6m101.4-9.6v9.6"/><path class="gst2" d="M120.6 72.1v7.4m-6.7-5.3v8.5m-6.8-6.7v8.5m-6.8-7.5v8.9m-6.7-7.1v8.1m-6.8-8.1v8.9M80 78.8V88m-6.7-9.2V88m-6.8-9.2v8.9m-6.7-9.3v8.5M53 77.7v8.2m-6.8-10.3v8.9m-6.7-10v7.8m-6.8-10.2v7.8"/><ellipse class="gst1" cx="76.7" cy="62.8" rx="50.7" ry="16"/></g><g class="gst0"><path class="gst1" d="M118.9 53.8c.9 1.2 1.4 2.5 1.4 3.8 0 8.8-22.7 16-50.7 16s-50.7-7.1-50.7-16c0-1.4.6-2.7 1.6-4m-1.6-5.7v9.6m101.4-9.6v9.6"/><path class="gst2" d="M113.5 57.5V65m-6.7-5.4v8.6m-6.8-6.8v8.5m-6.8-7.4v8.8m-6.7-7v8.1m-6.8-8.1v8.8M73 64.3v9.2m-6.8-9.2v9.2m-6.8-9.2v8.8m-6.7-9.2v8.5m-6.8-9.2v8.1m-6.8-10.2v8.8M32.4 60v7.8m-6.8-10.3v7.8"/><ellipse class="gst1" cx="69.6" cy="48.3" rx="50.7" ry="16"/></g><g class="gst0"><path class="gst1" d="M124.9 36.7c.9 1.2 1.4 2.5 1.4 3.8 0 8.8-22.7 16-50.7 16s-50.7-7.1-50.7-16c0-1.4.6-2.7 1.6-4m-1.6-5.6v9.6m101.4-9.6v9.6"/><path class="gst2" d="M119.5 40.5v7.4m-6.7-5.3v8.5m-6.8-6.7v8.5m-6.7-7.4v8.8m-6.8-7.1v8.2m-6.8-8.2v8.9M79 47.2v9.3m-6.8-9.3v9.3m-6.7-9.3v8.9m-6.8-9.2v8.5m-6.8-9.2v8.1M45.2 44v8.9M38.4 43v7.8m-6.7-10.3v7.8"/><ellipse class="gst1" cx="75.6" cy="31.3" rx="50.7" ry="16"/></g><path class="gst3" d="M103.6 22.6c.9 1.2 1.4 2.5 1.4 3.8 0 8.8-22.7 16-50.7 16s-50.7-7.1-50.7-16c0-1.4.6-2.7 1.6-4m-1.6-5.7v9.6M105 16.7v9.6"/><path d="M98.3 26.3v7.5m-6.8-5.4v8.5m-6.7-6.7v8.5M78 31.3v8.8M71.2 33v8.2M64.5 33v8.9M57.7 33v9.3M50.9 33v9.3M44.2 33v8.9m-6.8-9.2v8.5M30.7 32v8.1m-6.8-10.2v8.8m-6.8-9.9v7.8m-6.7-10.3v7.8" stroke-width="1.134" stroke-linecap="square" fill="#371447" stroke="#faf3ec" stroke-miterlimit="10"/><ellipse class="gst3" cx="54.3" cy="17.1" rx="50.7" ry="16"/><path d="M67.5 15.7h5.3V17h-5.3c-.4 1.4-1.7 2.8-4.3 4l-2.7-1c2.4-1.1 3.6-2.5 3.6-3.8 0-1.4-1.6-2.5-4.3-2.5-3.1 0-4.2 1.1-5.5 2.9-1.5 2.1-3 4.1-8.2 4.1-4.2 0-7.4-1.3-7.7-3.7h-5.5v-1.3h5.6c.4-1.2 1.7-2.5 3.2-3.4l2.7 1c-1.7 1-2.6 2.3-2.6 3.3 0 1.4 1.5 2.3 4 2.3 2.7 0 3.7-1.2 4.9-2.8 1.7-2.4 3.2-4.2 8.8-4.2 4.5 0 7.7 1.4 8 3.8z" fill="#faf3ec"/></svg><svg version="1.1" id="coin2" viewBox="-1 -1 130.5 204.3" xml:space="preserve" width="130.5" height="204.3" xmlns="http://www.w3.org/2000/svg"><style>.hst0{display:none}.hst1{display:inline;stroke-width:2.2678;stroke-linecap:round}.hst1,.hst2,.hst3,.hst4{fill:#371447;stroke:#faf3ec;stroke-miterlimit:10}.hst2{display:inline;stroke-width:1.1339;stroke-linecap:square}.hst3{stroke-width:2.2678;stroke-linecap:round}.hst4{stroke-width:1.1339;stroke-linecap:square}</style><g class="hst0"><path class="hst1" d="M101.1 181.4c.9 1.2 1.4 2.5 1.4 3.8 0 8.8-22.7 16-50.7 16s-50.7-7.1-50.7-16c0-1.4.6-2.7 1.6-4m-1.6-5.6v9.6m101.5-9.6v9.6"/><path class="hst2" d="M95.8 185.2v7.4m-6.8-5.3v8.5m-6.7-6.7v8.5m-6.8-7.5v8.9m-6.8-7.1v8.2m-6.7-8.2v8.9m-6.8-8.9v9.2m-6.7-9.2v9.2m-6.8-9.2v8.9m-6.8-9.2v8.5m-6.7-9.2v8.1m-6.8-10.3v8.9m-6.7-9.9v7.8m-6.8-10.3v7.8"/><ellipse class="hst1" cx="51.8" cy="176" rx="50.7" ry="16"/></g><path class="hst3" d="M111.8 167.2c.9 1.2 1.4 2.5 1.4 3.8 0 8.8-22.7 16-50.7 16s-50.7-7.1-50.7-16c0-1.4.6-2.7 1.6-4m-1.6-5.6v9.6m101.4-9.6v9.6"/><path class="hst4" d="M106.4 171v7.4m-6.7-5.3v8.5m-6.8-6.7v8.5m-6.8-7.4v8.8m-6.7-7.1v8.2m-6.8-8.2v8.9m-6.7-8.9v9.2m-6.8-9.2v9.2m-6.8-9.2v8.9m-6.7-9.2v8.5m-6.8-9.2v8.1m-6.7-10.3v8.9m-6.8-9.9v7.8M18.5 171v7.8"/><ellipse class="hst3" cx="62.5" cy="161.8" rx="50.7" ry="16"/><g class="hst0"><path class="hst1" d="M101.1 154.1c.9 1.2 1.4 2.5 1.4 3.8 0 8.8-22.7 16-50.7 16s-50.7-7.1-50.7-16c0-1.4.6-2.7 1.6-4m-1.6-5.6v9.6m101.5-9.6v9.6"/><path class="hst2" d="M95.8 157.9v7.4M89 160v8.5m-6.7-6.7v8.5m-6.8-7.5v8.9m-6.8-7.1v8.2m-6.7-8.2v8.9m-6.8-8.9v9.2m-6.7-9.2v9.2m-6.8-9.2v8.9m-6.8-9.2v8.5m-6.7-9.3v8.2m-6.8-10.3v8.9m-6.7-9.9v7.8m-6.8-10.3v7.8"/><ellipse class="hst1" cx="51.8" cy="148.7" rx="50.7" ry="16"/></g><g class="hst0"><path class="hst1" d="M117.5 139.9c.9 1.2 1.4 2.5 1.4 3.8 0 8.8-22.7 16-50.7 16s-50.7-7.1-50.7-16c0-1.4.6-2.7 1.6-4m-1.7-5.6v9.6m101.5-9.6v9.6"/><path class="hst2" d="M112.1 143.7v7.4m-6.8-5.3v8.5m-6.7-6.7v8.5m-6.8-7.4v8.8m-6.7-7.1v8.2m-6.8-8.2v8.9m-6.8-8.9v9.2m-6.7-9.2v9.2m-6.8-9.2v8.9m-6.7-9.2v8.5m-6.8-9.2v8.1m-6.8-10.3v8.9m-6.7-9.9v7.8m-6.8-10.3v7.8"/><ellipse class="hst1" cx="68.2" cy="134.5" rx="50.7" ry="16"/></g><g class="hst0"><path class="hst1" d="M110.4 127.9c.9 1.2 1.4 2.5 1.4 3.8 0 8.8-22.7 16-50.7 16s-50.7-7.1-50.7-16c0-1.4.6-2.7 1.6-4m-1.6-5.6v9.5m101.4-9.5v9.5"/><path class="hst2" d="M105 131.6v7.5m-6.8-5.3v8.5m-6.7-6.8v8.5m-6.8-7.4v8.9m-6.7-7.1v8.1m-6.8-8.1v8.8m-6.8-8.8v9.2m-6.7-9.2v9.2m-6.8-9.2v8.8m-6.7-9.2v8.5m-6.8-9.2v8.2m-6.8-10.3v8.8m-6.7-9.9v7.8m-6.8-10.3v7.8"/><ellipse class="hst1" cx="61.1" cy="122.4" rx="50.7" ry="16"/></g><g class="hst0"><path class="hst1" d="M121 112.3c.9 1.2 1.4 2.5 1.4 3.8 0 8.8-22.7 16-50.7 16S21 124.8 21 116c0-1.4.6-2.7 1.6-4m-1.6-5.5v9.5m101.4-9.5v9.5"/><path class="hst2" d="M115.6 116v7.5m-6.7-5.3v8.5m-6.8-6.8v8.5m-6.7-7.4v8.9m-6.8-7.1v8.1m-6.8-8.1v8.8m-6.7-8.8v9.2m-6.8-9.2v9.2m-6.7-9.2v8.8m-6.8-9.2v8.5m-6.8-9.2v8.2m-6.7-10.3v8.8m-6.8-9.9v7.8M27.8 116v7.8"/><ellipse class="hst1" cx="71.7" cy="106.8" rx="50.7" ry="16"/></g><g class="hst0"><path class="hst1" d="M111.8 96.3c.9 1.2 1.4 2.5 1.4 3.8 0 8.8-22.7 16-50.7 16s-50.7-7.1-50.7-16c0-1.4.6-2.7 1.6-4m-1.6-5.6v9.6m101.4-9.6v9.6"/><path class="hst2" d="M106.4 100.1v7.4m-6.7-5.3v8.5m-6.8-6.7v8.5m-6.8-7.5v8.9m-6.7-7.1v8.2m-6.8-8.2v8.9m-6.7-8.9v9.2m-6.8-9.2v9.2m-6.8-9.2v8.9m-6.7-9.2v8.5m-6.8-9.3v8.2m-6.7-10.3v8.9m-6.8-9.9v7.8m-6.8-10.3v7.8"/><ellipse class="hst1" cx="62.5" cy="90.9" rx="50.7" ry="16"/></g><g class="hst0"><path class="hst1" d="M108.2 83.2c.9 1.2 1.4 2.5 1.4 3.8 0 8.8-22.7 16-50.7 16S8.2 95.9 8.2 87c0-1.4.6-2.7 1.6-4m-1.6-5.6v9.5m101.4-9.5v9.5"/><path class="hst2" d="M102.9 86.9v7.5m-6.8-5.3v8.5m-6.7-6.7v8.5m-6.8-7.5v8.9m-6.8-7.1v8.1m-6.7-8.1v8.9m-6.8-8.9v9.2m-6.7-9.2v9.2m-6.8-9.2v8.9M42 93.3v8.5m-6.7-9.2v8.2m-6.8-10.3v8.9m-6.8-10v7.8M15 86.9v7.9"/><ellipse class="hst1" cx="58.9" cy="77.7" rx="50.7" ry="16"/></g><g class="hst0"><path class="hst1" d="M126 68.3c.9 1.2 1.4 2.5 1.4 3.8 0 8.8-22.7 16-50.7 16S26 80.9 26 72.1c0-1.4.6-2.7 1.6-4M26 62.5v9.6m101.4-9.6v9.6"/><path class="hst2" d="M120.6 72.1v7.4m-6.7-5.3v8.5m-6.8-6.7v8.5m-6.8-7.5v8.9m-6.7-7.1v8.1m-6.8-8.1v8.9M80 78.8V88m-6.7-9.2V88m-6.8-9.2v8.9m-6.7-9.3v8.5M53 77.7v8.2m-6.8-10.3v8.9m-6.7-10v7.8m-6.8-10.2v7.8"/><ellipse class="hst1" cx="76.7" cy="62.8" rx="50.7" ry="16"/></g><g class="hst0"><path class="hst1" d="M118.9 53.8c.9 1.2 1.4 2.5 1.4 3.8 0 8.8-22.7 16-50.7 16s-50.7-7.1-50.7-16c0-1.4.6-2.7 1.6-4m-1.6-5.7v9.6m101.4-9.6v9.6"/><path class="hst2" d="M113.5 57.5V65m-6.7-5.4v8.6m-6.8-6.8v8.5m-6.8-7.4v8.8m-6.7-7v8.1m-6.8-8.1v8.8M73 64.3v9.2m-6.8-9.2v9.2m-6.8-9.2v8.8m-6.7-9.2v8.5m-6.8-9.2v8.1m-6.8-10.2v8.8M32.4 60v7.8m-6.8-10.3v7.8"/><ellipse class="hst1" cx="69.6" cy="48.3" rx="50.7" ry="16"/></g><g class="hst0"><path class="hst1" d="M124.9 36.7c.9 1.2 1.4 2.5 1.4 3.8 0 8.8-22.7 16-50.7 16s-50.7-7.1-50.7-16c0-1.4.6-2.7 1.6-4m-1.6-5.6v9.6m101.4-9.6v9.6"/><path class="hst2" d="M119.5 40.5v7.4m-6.7-5.3v8.5m-6.8-6.7v8.5m-6.7-7.4v8.8m-6.8-7.1v8.2m-6.8-8.2v8.9M79 47.2v9.3m-6.8-9.3v9.3m-6.7-9.3v8.9m-6.8-9.2v8.5m-6.8-9.2v8.1M45.2 44v8.9M38.4 43v7.8m-6.7-10.3v7.8"/><ellipse class="hst1" cx="75.6" cy="31.3" rx="50.7" ry="16"/></g><g class="hst0"><path class="hst3" d="M103.6 22.6c.9 1.2 1.4 2.5 1.4 3.8 0 8.8-22.7 16-50.7 16s-50.7-7.1-50.7-16c0-1.4.6-2.7 1.6-4m-1.6-5.7v9.6M105 16.7v9.6"/><path class="hst4" d="M98.3 26.3v7.5m-6.8-5.4v8.5m-6.7-6.7v8.5M78 31.3v8.8M71.2 33v8.2M64.5 33v8.9M57.7 33v9.3M50.9 33v9.3M44.2 33v8.9m-6.8-9.2v8.5M30.7 32v8.1m-6.8-10.2v8.8m-6.8-9.9v7.8m-6.7-10.3v7.8"/><ellipse class="hst3" cx="54.3" cy="17.1" rx="50.7" ry="16"/><path d="M67.5 15.7h5.3V17h-5.3c-.4 1.4-1.7 2.8-4.3 4l-2.7-1c2.4-1.1 3.6-2.5 3.6-3.8 0-1.4-1.6-2.5-4.3-2.5-3.1 0-4.2 1.1-5.5 2.9-1.5 2.1-3 4.1-8.2 4.1-4.2 0-7.4-1.3-7.7-3.7h-5.5v-1.3h5.6c.4-1.2 1.7-2.5 3.2-3.4l2.7 1c-1.7 1-2.6 2.3-2.6 3.3 0 1.4 1.5 2.3 4 2.3 2.7 0 3.7-1.2 4.9-2.8 1.7-2.4 3.2-4.2 8.8-4.2 4.5 0 7.7 1.4 8 3.8z" fill="#faf3ec"/></g></svg><svg version="1.1" id="coin3" x="130.5" viewBox="-1 -1 130.5 204.3" xml:space="preserve" width="130.5" height="204.3" xmlns="http://www.w3.org/2000/svg"><style>.ist0{display:none}.ist1{display:inline;stroke-width:2.2678;stroke-linecap:round}.ist1,.ist2,.ist3,.ist4{fill:#371447;stroke:#faf3ec;stroke-miterlimit:10}.ist2{display:inline;stroke-width:1.1339;stroke-linecap:square}.ist3{stroke-width:2.2678;stroke-linecap:round}.ist4{stroke-width:1.1339;stroke-linecap:square}</style><g class="ist0"><path class="ist1" d="M101.1 181.4c.9 1.2 1.4 2.5 1.4 3.8 0 8.8-22.7 16-50.7 16s-50.7-7.1-50.7-16c0-1.4.6-2.7 1.6-4m-1.6-5.6v9.6m101.5-9.6v9.6"/><path class="ist2" d="M95.8 185.2v7.4m-6.8-5.3v8.5m-6.7-6.7v8.5m-6.8-7.5v8.9m-6.8-7.1v8.2m-6.7-8.2v8.9m-6.8-8.9v9.2m-6.7-9.2v9.2m-6.8-9.2v8.9m-6.8-9.2v8.5m-6.7-9.2v8.1m-6.8-10.3v8.9m-6.7-9.9v7.8m-6.8-10.3v7.8"/><ellipse class="ist1" cx="51.8" cy="176" rx="50.7" ry="16"/></g><g class="ist0"><path class="ist1" d="M111.8 167.2c.9 1.2 1.4 2.5 1.4 3.8 0 8.8-22.7 16-50.7 16s-50.7-7.1-50.7-16c0-1.4.6-2.7 1.6-4m-1.6-5.6v9.6m101.4-9.6v9.6"/><path class="ist2" d="M106.4 171v7.4m-6.7-5.3v8.5m-6.8-6.7v8.5m-6.8-7.4v8.8m-6.7-7.1v8.2m-6.8-8.2v8.9m-6.7-8.9v9.2m-6.8-9.2v9.2m-6.8-9.2v8.9m-6.7-9.2v8.5m-6.8-9.2v8.1m-6.7-10.3v8.9m-6.8-9.9v7.8M18.5 171v7.8"/><ellipse class="ist1" cx="62.5" cy="161.8" rx="50.7" ry="16"/></g><path class="ist3" d="M101.1 154.1c.9 1.2 1.4 2.5 1.4 3.8 0 8.8-22.7 16-50.7 16s-50.7-7.1-50.7-16c0-1.4.6-2.7 1.6-4m-1.6-5.6v9.6m101.5-9.6v9.6"/><path class="ist4" d="M95.8 157.9v7.4M89 160v8.5m-6.7-6.7v8.5m-6.8-7.5v8.9m-6.8-7.1v8.2m-6.7-8.2v8.9m-6.8-8.9v9.2m-6.7-9.2v9.2m-6.8-9.2v8.9m-6.8-9.2v8.5m-6.7-9.3v8.2m-6.8-10.3v8.9m-6.7-9.9v7.8m-6.8-10.3v7.8"/><ellipse class="ist3" cx="51.8" cy="148.7" rx="50.7" ry="16"/><g class="ist0"><path class="ist1" d="M117.5 139.9c.9 1.2 1.4 2.5 1.4 3.8 0 8.8-22.7 16-50.7 16s-50.7-7.1-50.7-16c0-1.4.6-2.7 1.6-4m-1.7-5.6v9.6m101.5-9.6v9.6"/><path class="ist2" d="M112.1 143.7v7.4m-6.8-5.3v8.5m-6.7-6.7v8.5m-6.8-7.4v8.8m-6.7-7.1v8.2m-6.8-8.2v8.9m-6.8-8.9v9.2m-6.7-9.2v9.2m-6.8-9.2v8.9m-6.7-9.2v8.5m-6.8-9.2v8.1m-6.8-10.3v8.9m-6.7-9.9v7.8m-6.8-10.3v7.8"/><ellipse class="ist1" cx="68.2" cy="134.5" rx="50.7" ry="16"/></g><g class="ist0"><path class="ist1" d="M110.4 127.9c.9 1.2 1.4 2.5 1.4 3.8 0 8.8-22.7 16-50.7 16s-50.7-7.1-50.7-16c0-1.4.6-2.7 1.6-4m-1.6-5.6v9.5m101.4-9.5v9.5"/><path class="ist2" d="M105 131.6v7.5m-6.8-5.3v8.5m-6.7-6.8v8.5m-6.8-7.4v8.9m-6.7-7.1v8.1m-6.8-8.1v8.8m-6.8-8.8v9.2m-6.7-9.2v9.2m-6.8-9.2v8.8m-6.7-9.2v8.5m-6.8-9.2v8.2m-6.8-10.3v8.8m-6.7-9.9v7.8m-6.8-10.3v7.8"/><ellipse class="ist1" cx="61.1" cy="122.4" rx="50.7" ry="16"/></g><g class="ist0"><path class="ist1" d="M121 112.3c.9 1.2 1.4 2.5 1.4 3.8 0 8.8-22.7 16-50.7 16S21 124.8 21 116c0-1.4.6-2.7 1.6-4m-1.6-5.5v9.5m101.4-9.5v9.5"/><path class="ist2" d="M115.6 116v7.5m-6.7-5.3v8.5m-6.8-6.8v8.5m-6.7-7.4v8.9m-6.8-7.1v8.1m-6.8-8.1v8.8m-6.7-8.8v9.2m-6.8-9.2v9.2m-6.7-9.2v8.8m-6.8-9.2v8.5m-6.8-9.2v8.2m-6.7-10.3v8.8m-6.8-9.9v7.8M27.8 116v7.8"/><ellipse class="ist1" cx="71.7" cy="106.8" rx="50.7" ry="16"/></g><g class="ist0"><path class="ist1" d="M111.8 96.3c.9 1.2 1.4 2.5 1.4 3.8 0 8.8-22.7 16-50.7 16s-50.7-7.1-50.7-16c0-1.4.6-2.7 1.6-4m-1.6-5.6v9.6m101.4-9.6v9.6"/><path class="ist2" d="M106.4 100.1v7.4m-6.7-5.3v8.5m-6.8-6.7v8.5m-6.8-7.5v8.9m-6.7-7.1v8.2m-6.8-8.2v8.9m-6.7-8.9v9.2m-6.8-9.2v9.2m-6.8-9.2v8.9m-6.7-9.2v8.5m-6.8-9.3v8.2m-6.7-10.3v8.9m-6.8-9.9v7.8m-6.8-10.3v7.8"/><ellipse class="ist1" cx="62.5" cy="90.9" rx="50.7" ry="16"/></g><g class="ist0"><path class="ist1" d="M108.2 83.2c.9 1.2 1.4 2.5 1.4 3.8 0 8.8-22.7 16-50.7 16S8.2 95.9 8.2 87c0-1.4.6-2.7 1.6-4m-1.6-5.6v9.5m101.4-9.5v9.5"/><path class="ist2" d="M102.9 86.9v7.5m-6.8-5.3v8.5m-6.7-6.7v8.5m-6.8-7.5v8.9m-6.8-7.1v8.1m-6.7-8.1v8.9m-6.8-8.9v9.2m-6.7-9.2v9.2m-6.8-9.2v8.9M42 93.3v8.5m-6.7-9.2v8.2m-6.8-10.3v8.9m-6.8-10v7.8M15 86.9v7.9"/><ellipse class="ist1" cx="58.9" cy="77.7" rx="50.7" ry="16"/></g><g class="ist0"><path class="ist1" d="M126 68.3c.9 1.2 1.4 2.5 1.4 3.8 0 8.8-22.7 16-50.7 16S26 80.9 26 72.1c0-1.4.6-2.7 1.6-4M26 62.5v9.6m101.4-9.6v9.6"/><path class="ist2" d="M120.6 72.1v7.4m-6.7-5.3v8.5m-6.8-6.7v8.5m-6.8-7.5v8.9m-6.7-7.1v8.1m-6.8-8.1v8.9M80 78.8V88m-6.7-9.2V88m-6.8-9.2v8.9m-6.7-9.3v8.5M53 77.7v8.2m-6.8-10.3v8.9m-6.7-10v7.8m-6.8-10.2v7.8"/><ellipse class="ist1" cx="76.7" cy="62.8" rx="50.7" ry="16"/></g><g class="ist0"><path class="ist1" d="M118.9 53.8c.9 1.2 1.4 2.5 1.4 3.8 0 8.8-22.7 16-50.7 16s-50.7-7.1-50.7-16c0-1.4.6-2.7 1.6-4m-1.6-5.7v9.6m101.4-9.6v9.6"/><path class="ist2" d="M113.5 57.5V65m-6.7-5.4v8.6m-6.8-6.8v8.5m-6.8-7.4v8.8m-6.7-7v8.1m-6.8-8.1v8.8M73 64.3v9.2m-6.8-9.2v9.2m-6.8-9.2v8.8m-6.7-9.2v8.5m-6.8-9.2v8.1m-6.8-10.2v8.8M32.4 60v7.8m-6.8-10.3v7.8"/><ellipse class="ist1" cx="69.6" cy="48.3" rx="50.7" ry="16"/></g><g class="ist0"><path class="ist1" d="M124.9 36.7c.9 1.2 1.4 2.5 1.4 3.8 0 8.8-22.7 16-50.7 16s-50.7-7.1-50.7-16c0-1.4.6-2.7 1.6-4m-1.6-5.6v9.6m101.4-9.6v9.6"/><path class="ist2" d="M119.5 40.5v7.4m-6.7-5.3v8.5m-6.8-6.7v8.5m-6.7-7.4v8.8m-6.8-7.1v8.2m-6.8-8.2v8.9M79 47.2v9.3m-6.8-9.3v9.3m-6.7-9.3v8.9m-6.8-9.2v8.5m-6.8-9.2v8.1M45.2 44v8.9M38.4 43v7.8m-6.7-10.3v7.8"/><ellipse class="ist1" cx="75.6" cy="31.3" rx="50.7" ry="16"/></g><g class="ist0"><path class="ist3" d="M103.6 22.6c.9 1.2 1.4 2.5 1.4 3.8 0 8.8-22.7 16-50.7 16s-50.7-7.1-50.7-16c0-1.4.6-2.7 1.6-4m-1.6-5.7v9.6M105 16.7v9.6"/><path class="ist4" d="M98.3 26.3v7.5m-6.8-5.4v8.5m-6.7-6.7v8.5M78 31.3v8.8M71.2 33v8.2M64.5 33v8.9M57.7 33v9.3M50.9 33v9.3M44.2 33v8.9m-6.8-9.2v8.5M30.7 32v8.1m-6.8-10.2v8.8m-6.8-9.9v7.8m-6.7-10.3v7.8"/><ellipse class="ist3" cx="54.3" cy="17.1" rx="50.7" ry="16"/><path d="M67.5 15.7h5.3V17h-5.3c-.4 1.4-1.7 2.8-4.3 4l-2.7-1c2.4-1.1 3.6-2.5 3.6-3.8 0-1.4-1.6-2.5-4.3-2.5-3.1 0-4.2 1.1-5.5 2.9-1.5 2.1-3 4.1-8.2 4.1-4.2 0-7.4-1.3-7.7-3.7h-5.5v-1.3h5.6c.4-1.2 1.7-2.5 3.2-3.4l2.7 1c-1.7 1-2.6 2.3-2.6 3.3 0 1.4 1.5 2.3 4 2.3 2.7 0 3.7-1.2 4.9-2.8 1.7-2.4 3.2-4.2 8.8-4.2 4.5 0 7.7 1.4 8 3.8z" fill="#faf3ec"/></g></svg><svg version="1.1" id="coin4" x="522" viewBox="-1 -1 130.5 204.3" xml:space="preserve" width="130.5" height="204.3" xmlns="http://www.w3.org/2000/svg"><style>.jst0{display:none}.jst1{display:inline;stroke-width:2.2678;stroke-linecap:round}.jst1,.jst2,.jst3,.jst4{fill:#371447;stroke:#faf3ec;stroke-miterlimit:10}.jst2{display:inline;stroke-width:1.1339;stroke-linecap:square}.jst3{stroke-width:2.2678;stroke-linecap:round}.jst4{stroke-width:1.1339;stroke-linecap:square}</style><g class="jst0"><path class="jst1" d="M101.1 181.4c.9 1.2 1.4 2.5 1.4 3.8 0 8.8-22.7 16-50.7 16s-50.7-7.1-50.7-16c0-1.4.6-2.7 1.6-4m-1.6-5.6v9.6m101.5-9.6v9.6"/><path class="jst2" d="M95.8 185.2v7.4m-6.8-5.3v8.5m-6.7-6.7v8.5m-6.8-7.5v8.9m-6.8-7.1v8.2m-6.7-8.2v8.9m-6.8-8.9v9.2m-6.7-9.2v9.2m-6.8-9.2v8.9m-6.8-9.2v8.5m-6.7-9.2v8.1m-6.8-10.3v8.9m-6.7-9.9v7.8m-6.8-10.3v7.8"/><ellipse class="jst1" cx="51.8" cy="176" rx="50.7" ry="16"/></g><g class="jst0"><path class="jst1" d="M111.8 167.2c.9 1.2 1.4 2.5 1.4 3.8 0 8.8-22.7 16-50.7 16s-50.7-7.1-50.7-16c0-1.4.6-2.7 1.6-4m-1.6-5.6v9.6m101.4-9.6v9.6"/><path class="jst2" d="M106.4 171v7.4m-6.7-5.3v8.5m-6.8-6.7v8.5m-6.8-7.4v8.8m-6.7-7.1v8.2m-6.8-8.2v8.9m-6.7-8.9v9.2m-6.8-9.2v9.2m-6.8-9.2v8.9m-6.7-9.2v8.5m-6.8-9.2v8.1m-6.7-10.3v8.9m-6.8-9.9v7.8M18.5 171v7.8"/><ellipse class="jst1" cx="62.5" cy="161.8" rx="50.7" ry="16"/></g><g class="jst0"><path class="jst1" d="M101.1 154.1c.9 1.2 1.4 2.5 1.4 3.8 0 8.8-22.7 16-50.7 16s-50.7-7.1-50.7-16c0-1.4.6-2.7 1.6-4m-1.6-5.6v9.6m101.5-9.6v9.6"/><path class="jst2" d="M95.8 157.9v7.4M89 160v8.5m-6.7-6.7v8.5m-6.8-7.5v8.9m-6.8-7.1v8.2m-6.7-8.2v8.9m-6.8-8.9v9.2m-6.7-9.2v9.2m-6.8-9.2v8.9m-6.8-9.2v8.5m-6.7-9.3v8.2m-6.8-10.3v8.9m-6.7-9.9v7.8m-6.8-10.3v7.8"/><ellipse class="jst1" cx="51.8" cy="148.7" rx="50.7" ry="16"/></g><path class="jst3" d="M117.5 139.9c.9 1.2 1.4 2.5 1.4 3.8 0 8.8-22.7 16-50.7 16s-50.7-7.1-50.7-16c0-1.4.6-2.7 1.6-4m-1.7-5.6v9.6m101.5-9.6v9.6"/><path class="jst4" d="M112.1 143.7v7.4m-6.8-5.3v8.5m-6.7-6.7v8.5m-6.8-7.4v8.8m-6.7-7.1v8.2m-6.8-8.2v8.9m-6.8-8.9v9.2m-6.7-9.2v9.2m-6.8-9.2v8.9m-6.7-9.2v8.5m-6.8-9.2v8.1m-6.8-10.3v8.9m-6.7-9.9v7.8m-6.8-10.3v7.8"/><ellipse class="jst3" cx="68.2" cy="134.5" rx="50.7" ry="16"/><g class="jst0"><path class="jst1" d="M110.4 127.9c.9 1.2 1.4 2.5 1.4 3.8 0 8.8-22.7 16-50.7 16s-50.7-7.1-50.7-16c0-1.4.6-2.7 1.6-4m-1.6-5.6v9.5m101.4-9.5v9.5"/><path class="jst2" d="M105 131.6v7.5m-6.8-5.3v8.5m-6.7-6.8v8.5m-6.8-7.4v8.9m-6.7-7.1v8.1m-6.8-8.1v8.8m-6.8-8.8v9.2m-6.7-9.2v9.2m-6.8-9.2v8.8m-6.7-9.2v8.5m-6.8-9.2v8.2m-6.8-10.3v8.8m-6.7-9.9v7.8m-6.8-10.3v7.8"/><ellipse class="jst1" cx="61.1" cy="122.4" rx="50.7" ry="16"/></g><g class="jst0"><path class="jst1" d="M121 112.3c.9 1.2 1.4 2.5 1.4 3.8 0 8.8-22.7 16-50.7 16S21 124.8 21 116c0-1.4.6-2.7 1.6-4m-1.6-5.5v9.5m101.4-9.5v9.5"/><path class="jst2" d="M115.6 116v7.5m-6.7-5.3v8.5m-6.8-6.8v8.5m-6.7-7.4v8.9m-6.8-7.1v8.1m-6.8-8.1v8.8m-6.7-8.8v9.2m-6.8-9.2v9.2m-6.7-9.2v8.8m-6.8-9.2v8.5m-6.8-9.2v8.2m-6.7-10.3v8.8m-6.8-9.9v7.8M27.8 116v7.8"/><ellipse class="jst1" cx="71.7" cy="106.8" rx="50.7" ry="16"/></g><g class="jst0"><path class="jst1" d="M111.8 96.3c.9 1.2 1.4 2.5 1.4 3.8 0 8.8-22.7 16-50.7 16s-50.7-7.1-50.7-16c0-1.4.6-2.7 1.6-4m-1.6-5.6v9.6m101.4-9.6v9.6"/><path class="jst2" d="M106.4 100.1v7.4m-6.7-5.3v8.5m-6.8-6.7v8.5m-6.8-7.5v8.9m-6.7-7.1v8.2m-6.8-8.2v8.9m-6.7-8.9v9.2m-6.8-9.2v9.2m-6.8-9.2v8.9m-6.7-9.2v8.5m-6.8-9.3v8.2m-6.7-10.3v8.9m-6.8-9.9v7.8m-6.8-10.3v7.8"/><ellipse class="jst1" cx="62.5" cy="90.9" rx="50.7" ry="16"/></g><g class="jst0"><path class="jst1" d="M108.2 83.2c.9 1.2 1.4 2.5 1.4 3.8 0 8.8-22.7 16-50.7 16S8.2 95.9 8.2 87c0-1.4.6-2.7 1.6-4m-1.6-5.6v9.5m101.4-9.5v9.5"/><path class="jst2" d="M102.9 86.9v7.5m-6.8-5.3v8.5m-6.7-6.7v8.5m-6.8-7.5v8.9m-6.8-7.1v8.1m-6.7-8.1v8.9m-6.8-8.9v9.2m-6.7-9.2v9.2m-6.8-9.2v8.9M42 93.3v8.5m-6.7-9.2v8.2m-6.8-10.3v8.9m-6.8-10v7.8M15 86.9v7.9"/><ellipse class="jst1" cx="58.9" cy="77.7" rx="50.7" ry="16"/></g><g class="jst0"><path class="jst1" d="M126 68.3c.9 1.2 1.4 2.5 1.4 3.8 0 8.8-22.7 16-50.7 16S26 80.9 26 72.1c0-1.4.6-2.7 1.6-4M26 62.5v9.6m101.4-9.6v9.6"/><path class="jst2" d="M120.6 72.1v7.4m-6.7-5.3v8.5m-6.8-6.7v8.5m-6.8-7.5v8.9m-6.7-7.1v8.1m-6.8-8.1v8.9M80 78.8V88m-6.7-9.2V88m-6.8-9.2v8.9m-6.7-9.3v8.5M53 77.7v8.2m-6.8-10.3v8.9m-6.7-10v7.8m-6.8-10.2v7.8"/><ellipse class="jst1" cx="76.7" cy="62.8" rx="50.7" ry="16"/></g><g class="jst0"><path class="jst1" d="M118.9 53.8c.9 1.2 1.4 2.5 1.4 3.8 0 8.8-22.7 16-50.7 16s-50.7-7.1-50.7-16c0-1.4.6-2.7 1.6-4m-1.6-5.7v9.6m101.4-9.6v9.6"/><path class="jst2" d="M113.5 57.5V65m-6.7-5.4v8.6m-6.8-6.8v8.5m-6.8-7.4v8.8m-6.7-7v8.1m-6.8-8.1v8.8M73 64.3v9.2m-6.8-9.2v9.2m-6.8-9.2v8.8m-6.7-9.2v8.5m-6.8-9.2v8.1m-6.8-10.2v8.8M32.4 60v7.8m-6.8-10.3v7.8"/><ellipse class="jst1" cx="69.6" cy="48.3" rx="50.7" ry="16"/></g><g class="jst0"><path class="jst1" d="M124.9 36.7c.9 1.2 1.4 2.5 1.4 3.8 0 8.8-22.7 16-50.7 16s-50.7-7.1-50.7-16c0-1.4.6-2.7 1.6-4m-1.6-5.6v9.6m101.4-9.6v9.6"/><path class="jst2" d="M119.5 40.5v7.4m-6.7-5.3v8.5m-6.8-6.7v8.5m-6.7-7.4v8.8m-6.8-7.1v8.2m-6.8-8.2v8.9M79 47.2v9.3m-6.8-9.3v9.3m-6.7-9.3v8.9m-6.8-9.2v8.5m-6.8-9.2v8.1M45.2 44v8.9M38.4 43v7.8m-6.7-10.3v7.8"/><ellipse class="jst1" cx="75.6" cy="31.3" rx="50.7" ry="16"/></g><g class="jst0"><path class="jst3" d="M103.6 22.6c.9 1.2 1.4 2.5 1.4 3.8 0 8.8-22.7 16-50.7 16s-50.7-7.1-50.7-16c0-1.4.6-2.7 1.6-4m-1.6-5.7v9.6M105 16.7v9.6"/><path class="jst4" d="M98.3 26.3v7.5m-6.8-5.4v8.5m-6.7-6.7v8.5M78 31.3v8.8M71.2 33v8.2M64.5 33v8.9M57.7 33v9.3M50.9 33v9.3M44.2 33v8.9m-6.8-9.2v8.5M30.7 32v8.1m-6.8-10.2v8.8m-6.8-9.9v7.8m-6.7-10.3v7.8"/><ellipse class="jst3" cx="54.3" cy="17.1" rx="50.7" ry="16"/><path d="M67.5 15.7h5.3V17h-5.3c-.4 1.4-1.7 2.8-4.3 4l-2.7-1c2.4-1.1 3.6-2.5 3.6-3.8 0-1.4-1.6-2.5-4.3-2.5-3.1 0-4.2 1.1-5.5 2.9-1.5 2.1-3 4.1-8.2 4.1-4.2 0-7.4-1.3-7.7-3.7h-5.5v-1.3h5.6c.4-1.2 1.7-2.5 3.2-3.4l2.7 1c-1.7 1-2.6 2.3-2.6 3.3 0 1.4 1.5 2.3 4 2.3 2.7 0 3.7-1.2 4.9-2.8 1.7-2.4 3.2-4.2 8.8-4.2 4.5 0 7.7 1.4 8 3.8z" fill="#faf3ec"/></g></svg><svg version="1.1" id="coin5" x="522" y="204.3" viewBox="-1 -1 130.5 204.3" xml:space="preserve" width="130.5" height="204.3" xmlns="http://www.w3.org/2000/svg"><style>.kst0{display:none}.kst1{display:inline;stroke-width:2.2678;stroke-linecap:round}.kst1,.kst2,.kst3,.kst4{fill:#371447;stroke:#faf3ec;stroke-miterlimit:10}.kst2{display:inline;stroke-width:1.1339;stroke-linecap:square}.kst3{stroke-width:2.2678;stroke-linecap:round}.kst4{stroke-width:1.1339;stroke-linecap:square}</style><g class="kst0"><path class="kst1" d="M101.1 181.4c.9 1.2 1.4 2.5 1.4 3.8 0 8.8-22.7 16-50.7 16s-50.7-7.1-50.7-16c0-1.4.6-2.7 1.6-4m-1.6-5.6v9.6m101.5-9.6v9.6"/><path class="kst2" d="M95.8 185.2v7.4m-6.8-5.3v8.5m-6.7-6.7v8.5m-6.8-7.5v8.9m-6.8-7.1v8.2m-6.7-8.2v8.9m-6.8-8.9v9.2m-6.7-9.2v9.2m-6.8-9.2v8.9m-6.8-9.2v8.5m-6.7-9.2v8.1m-6.8-10.3v8.9m-6.7-9.9v7.8m-6.8-10.3v7.8"/><ellipse class="kst1" cx="51.8" cy="176" rx="50.7" ry="16"/></g><g class="kst0"><path class="kst1" d="M111.8 167.2c.9 1.2 1.4 2.5 1.4 3.8 0 8.8-22.7 16-50.7 16s-50.7-7.1-50.7-16c0-1.4.6-2.7 1.6-4m-1.6-5.6v9.6m101.4-9.6v9.6"/><path class="kst2" d="M106.4 171v7.4m-6.7-5.3v8.5m-6.8-6.7v8.5m-6.8-7.4v8.8m-6.7-7.1v8.2m-6.8-8.2v8.9m-6.7-8.9v9.2m-6.8-9.2v9.2m-6.8-9.2v8.9m-6.7-9.2v8.5m-6.8-9.2v8.1m-6.7-10.3v8.9m-6.8-9.9v7.8M18.5 171v7.8"/><ellipse class="kst1" cx="62.5" cy="161.8" rx="50.7" ry="16"/></g><g class="kst0"><path class="kst1" d="M101.1 154.1c.9 1.2 1.4 2.5 1.4 3.8 0 8.8-22.7 16-50.7 16s-50.7-7.1-50.7-16c0-1.4.6-2.7 1.6-4m-1.6-5.6v9.6m101.5-9.6v9.6"/><path class="kst2" d="M95.8 157.9v7.4M89 160v8.5m-6.7-6.7v8.5m-6.8-7.5v8.9m-6.8-7.1v8.2m-6.7-8.2v8.9m-6.8-8.9v9.2m-6.7-9.2v9.2m-6.8-9.2v8.9m-6.8-9.2v8.5m-6.7-9.3v8.2m-6.8-10.3v8.9m-6.7-9.9v7.8m-6.8-10.3v7.8"/><ellipse class="kst1" cx="51.8" cy="148.7" rx="50.7" ry="16"/></g><g class="kst0"><path class="kst1" d="M117.5 139.9c.9 1.2 1.4 2.5 1.4 3.8 0 8.8-22.7 16-50.7 16s-50.7-7.1-50.7-16c0-1.4.6-2.7 1.6-4m-1.7-5.6v9.6m101.5-9.6v9.6"/><path class="kst2" d="M112.1 143.7v7.4m-6.8-5.3v8.5m-6.7-6.7v8.5m-6.8-7.4v8.8m-6.7-7.1v8.2m-6.8-8.2v8.9m-6.8-8.9v9.2m-6.7-9.2v9.2m-6.8-9.2v8.9m-6.7-9.2v8.5m-6.8-9.2v8.1m-6.8-10.3v8.9m-6.7-9.9v7.8m-6.8-10.3v7.8"/><ellipse class="kst1" cx="68.2" cy="134.5" rx="50.7" ry="16"/></g><path class="kst3" d="M110.4 127.9c.9 1.2 1.4 2.5 1.4 3.8 0 8.8-22.7 16-50.7 16s-50.7-7.1-50.7-16c0-1.4.6-2.7 1.6-4m-1.6-5.6v9.5m101.4-9.5v9.5"/><path class="kst4" d="M105 131.6v7.5m-6.8-5.3v8.5m-6.7-6.8v8.5m-6.8-7.4v8.9m-6.7-7.1v8.1m-6.8-8.1v8.8m-6.8-8.8v9.2m-6.7-9.2v9.2m-6.8-9.2v8.8m-6.7-9.2v8.5m-6.8-9.2v8.2m-6.8-10.3v8.8m-6.7-9.9v7.8m-6.8-10.3v7.8"/><ellipse class="kst3" cx="61.1" cy="122.4" rx="50.7" ry="16"/><g class="kst0"><path class="kst1" d="M121 112.3c.9 1.2 1.4 2.5 1.4 3.8 0 8.8-22.7 16-50.7 16S21 124.8 21 116c0-1.4.6-2.7 1.6-4m-1.6-5.5v9.5m101.4-9.5v9.5"/><path class="kst2" d="M115.6 116v7.5m-6.7-5.3v8.5m-6.8-6.8v8.5m-6.7-7.4v8.9m-6.8-7.1v8.1m-6.8-8.1v8.8m-6.7-8.8v9.2m-6.8-9.2v9.2m-6.7-9.2v8.8m-6.8-9.2v8.5m-6.8-9.2v8.2m-6.7-10.3v8.8m-6.8-9.9v7.8M27.8 116v7.8"/><ellipse class="kst1" cx="71.7" cy="106.8" rx="50.7" ry="16"/></g><g class="kst0"><path class="kst1" d="M111.8 96.3c.9 1.2 1.4 2.5 1.4 3.8 0 8.8-22.7 16-50.7 16s-50.7-7.1-50.7-16c0-1.4.6-2.7 1.6-4m-1.6-5.6v9.6m101.4-9.6v9.6"/><path class="kst2" d="M106.4 100.1v7.4m-6.7-5.3v8.5m-6.8-6.7v8.5m-6.8-7.5v8.9m-6.7-7.1v8.2m-6.8-8.2v8.9m-6.7-8.9v9.2m-6.8-9.2v9.2m-6.8-9.2v8.9m-6.7-9.2v8.5m-6.8-9.3v8.2m-6.7-10.3v8.9m-6.8-9.9v7.8m-6.8-10.3v7.8"/><ellipse class="kst1" cx="62.5" cy="90.9" rx="50.7" ry="16"/></g><g class="kst0"><path class="kst1" d="M108.2 83.2c.9 1.2 1.4 2.5 1.4 3.8 0 8.8-22.7 16-50.7 16S8.2 95.9 8.2 87c0-1.4.6-2.7 1.6-4m-1.6-5.6v9.5m101.4-9.5v9.5"/><path class="kst2" d="M102.9 86.9v7.5m-6.8-5.3v8.5m-6.7-6.7v8.5m-6.8-7.5v8.9m-6.8-7.1v8.1m-6.7-8.1v8.9m-6.8-8.9v9.2m-6.7-9.2v9.2m-6.8-9.2v8.9M42 93.3v8.5m-6.7-9.2v8.2m-6.8-10.3v8.9m-6.8-10v7.8M15 86.9v7.9"/><ellipse class="kst1" cx="58.9" cy="77.7" rx="50.7" ry="16"/></g><g class="kst0"><path class="kst1" d="M126 68.3c.9 1.2 1.4 2.5 1.4 3.8 0 8.8-22.7 16-50.7 16S26 80.9 26 72.1c0-1.4.6-2.7 1.6-4M26 62.5v9.6m101.4-9.6v9.6"/><path class="kst2" d="M120.6 72.1v7.4m-6.7-5.3v8.5m-6.8-6.7v8.5m-6.8-7.5v8.9m-6.7-7.1v8.1m-6.8-8.1v8.9M80 78.8V88m-6.7-9.2V88m-6.8-9.2v8.9m-6.7-9.3v8.5M53 77.7v8.2m-6.8-10.3v8.9m-6.7-10v7.8m-6.8-10.2v7.8"/><ellipse class="kst1" cx="76.7" cy="62.8" rx="50.7" ry="16"/></g><g class="kst0"><path class="kst1" d="M118.9 53.8c.9 1.2 1.4 2.5 1.4 3.8 0 8.8-22.7 16-50.7 16s-50.7-7.1-50.7-16c0-1.4.6-2.7 1.6-4m-1.6-5.7v9.6m101.4-9.6v9.6"/><path class="kst2" d="M113.5 57.5V65m-6.7-5.4v8.6m-6.8-6.8v8.5m-6.8-7.4v8.8m-6.7-7v8.1m-6.8-8.1v8.8M73 64.3v9.2m-6.8-9.2v9.2m-6.8-9.2v8.8m-6.7-9.2v8.5m-6.8-9.2v8.1m-6.8-10.2v8.8M32.4 60v7.8m-6.8-10.3v7.8"/><ellipse class="kst1" cx="69.6" cy="48.3" rx="50.7" ry="16"/></g><g class="kst0"><path class="kst1" d="M124.9 36.7c.9 1.2 1.4 2.5 1.4 3.8 0 8.8-22.7 16-50.7 16s-50.7-7.1-50.7-16c0-1.4.6-2.7 1.6-4m-1.6-5.6v9.6m101.4-9.6v9.6"/><path class="kst2" d="M119.5 40.5v7.4m-6.7-5.3v8.5m-6.8-6.7v8.5m-6.7-7.4v8.8m-6.8-7.1v8.2m-6.8-8.2v8.9M79 47.2v9.3m-6.8-9.3v9.3m-6.7-9.3v8.9m-6.8-9.2v8.5m-6.8-9.2v8.1M45.2 44v8.9M38.4 43v7.8m-6.7-10.3v7.8"/><ellipse class="kst1" cx="75.6" cy="31.3" rx="50.7" ry="16"/></g><g class="kst0"><path class="kst3" d="M103.6 22.6c.9 1.2 1.4 2.5 1.4 3.8 0 8.8-22.7 16-50.7 16s-50.7-7.1-50.7-16c0-1.4.6-2.7 1.6-4m-1.6-5.7v9.6M105 16.7v9.6"/><path class="kst4" d="M98.3 26.3v7.5m-6.8-5.4v8.5m-6.7-6.7v8.5M78 31.3v8.8M71.2 33v8.2M64.5 33v8.9M57.7 33v9.3M50.9 33v9.3M44.2 33v8.9m-6.8-9.2v8.5M30.7 32v8.1m-6.8-10.2v8.8m-6.8-9.9v7.8m-6.7-10.3v7.8"/><ellipse class="kst3" cx="54.3" cy="17.1" rx="50.7" ry="16"/><path d="M67.5 15.7h5.3V17h-5.3c-.4 1.4-1.7 2.8-4.3 4l-2.7-1c2.4-1.1 3.6-2.5 3.6-3.8 0-1.4-1.6-2.5-4.3-2.5-3.1 0-4.2 1.1-5.5 2.9-1.5 2.1-3 4.1-8.2 4.1-4.2 0-7.4-1.3-7.7-3.7h-5.5v-1.3h5.6c.4-1.2 1.7-2.5 3.2-3.4l2.7 1c-1.7 1-2.6 2.3-2.6 3.3 0 1.4 1.5 2.3 4 2.3 2.7 0 3.7-1.2 4.9-2.8 1.7-2.4 3.2-4.2 8.8-4.2 4.5 0 7.7 1.4 8 3.8z" fill="#faf3ec"/></g></svg><svg version="1.1" id="coin6" y="408.6" viewBox="-1 -1 130.5 204.3" xml:space="preserve" width="130.5" height="204.3" xmlns="http://www.w3.org/2000/svg"><style>.lst0{display:none}.lst1{display:inline;stroke-width:2.2678;stroke-linecap:round}.lst1,.lst2,.lst3,.lst4{fill:#371447;stroke:#faf3ec;stroke-miterlimit:10}.lst2{display:inline;stroke-width:1.1339;stroke-linecap:square}.lst3{stroke-width:2.2678;stroke-linecap:round}.lst4{stroke-width:1.1339;stroke-linecap:square}</style><g class="lst0"><path class="lst1" d="M101.1 181.4c.9 1.2 1.4 2.5 1.4 3.8 0 8.8-22.7 16-50.7 16s-50.7-7.1-50.7-16c0-1.4.6-2.7 1.6-4m-1.6-5.6v9.6m101.5-9.6v9.6"/><path class="lst2" d="M95.8 185.2v7.4m-6.8-5.3v8.5m-6.7-6.7v8.5m-6.8-7.5v8.9m-6.8-7.1v8.2m-6.7-8.2v8.9m-6.8-8.9v9.2m-6.7-9.2v9.2m-6.8-9.2v8.9m-6.8-9.2v8.5m-6.7-9.2v8.1m-6.8-10.3v8.9m-6.7-9.9v7.8m-6.8-10.3v7.8"/><ellipse class="lst1" cx="51.8" cy="176" rx="50.7" ry="16"/></g><g class="lst0"><path class="lst1" d="M111.8 167.2c.9 1.2 1.4 2.5 1.4 3.8 0 8.8-22.7 16-50.7 16s-50.7-7.1-50.7-16c0-1.4.6-2.7 1.6-4m-1.6-5.6v9.6m101.4-9.6v9.6"/><path class="lst2" d="M106.4 171v7.4m-6.7-5.3v8.5m-6.8-6.7v8.5m-6.8-7.4v8.8m-6.7-7.1v8.2m-6.8-8.2v8.9m-6.7-8.9v9.2m-6.8-9.2v9.2m-6.8-9.2v8.9m-6.7-9.2v8.5m-6.8-9.2v8.1m-6.7-10.3v8.9m-6.8-9.9v7.8M18.5 171v7.8"/><ellipse class="lst1" cx="62.5" cy="161.8" rx="50.7" ry="16"/></g><g class="lst0"><path class="lst1" d="M101.1 154.1c.9 1.2 1.4 2.5 1.4 3.8 0 8.8-22.7 16-50.7 16s-50.7-7.1-50.7-16c0-1.4.6-2.7 1.6-4m-1.6-5.6v9.6m101.5-9.6v9.6"/><path class="lst2" d="M95.8 157.9v7.4M89 160v8.5m-6.7-6.7v8.5m-6.8-7.5v8.9m-6.8-7.1v8.2m-6.7-8.2v8.9m-6.8-8.9v9.2m-6.7-9.2v9.2m-6.8-9.2v8.9m-6.8-9.2v8.5m-6.7-9.3v8.2m-6.8-10.3v8.9m-6.7-9.9v7.8m-6.8-10.3v7.8"/><ellipse class="lst1" cx="51.8" cy="148.7" rx="50.7" ry="16"/></g><g class="lst0"><path class="lst1" d="M117.5 139.9c.9 1.2 1.4 2.5 1.4 3.8 0 8.8-22.7 16-50.7 16s-50.7-7.1-50.7-16c0-1.4.6-2.7 1.6-4m-1.7-5.6v9.6m101.5-9.6v9.6"/><path class="lst2" d="M112.1 143.7v7.4m-6.8-5.3v8.5m-6.7-6.7v8.5m-6.8-7.4v8.8m-6.7-7.1v8.2m-6.8-8.2v8.9m-6.8-8.9v9.2m-6.7-9.2v9.2m-6.8-9.2v8.9m-6.7-9.2v8.5m-6.8-9.2v8.1m-6.8-10.3v8.9m-6.7-9.9v7.8m-6.8-10.3v7.8"/><ellipse class="lst1" cx="68.2" cy="134.5" rx="50.7" ry="16"/></g><g class="lst0"><path class="lst1" d="M110.4 127.9c.9 1.2 1.4 2.5 1.4 3.8 0 8.8-22.7 16-50.7 16s-50.7-7.1-50.7-16c0-1.4.6-2.7 1.6-4m-1.6-5.6v9.5m101.4-9.5v9.5"/><path class="lst2" d="M105 131.6v7.5m-6.8-5.3v8.5m-6.7-6.8v8.5m-6.8-7.4v8.9m-6.7-7.1v8.1m-6.8-8.1v8.8m-6.8-8.8v9.2m-6.7-9.2v9.2m-6.8-9.2v8.8m-6.7-9.2v8.5m-6.8-9.2v8.2m-6.8-10.3v8.8m-6.7-9.9v7.8m-6.8-10.3v7.8"/><ellipse class="lst1" cx="61.1" cy="122.4" rx="50.7" ry="16"/></g><path class="lst3" d="M121 112.3c.9 1.2 1.4 2.5 1.4 3.8 0 8.8-22.7 16-50.7 16S21 124.8 21 116c0-1.4.6-2.7 1.6-4m-1.6-5.5v9.5m101.4-9.5v9.5"/><path class="lst4" d="M115.6 116v7.5m-6.7-5.3v8.5m-6.8-6.8v8.5m-6.7-7.4v8.9m-6.8-7.1v8.1m-6.8-8.1v8.8m-6.7-8.8v9.2m-6.8-9.2v9.2m-6.7-9.2v8.8m-6.8-9.2v8.5m-6.8-9.2v8.2m-6.7-10.3v8.8m-6.8-9.9v7.8M27.8 116v7.8"/><ellipse class="lst3" cx="71.7" cy="106.8" rx="50.7" ry="16"/><g class="lst0"><path class="lst1" d="M111.8 96.3c.9 1.2 1.4 2.5 1.4 3.8 0 8.8-22.7 16-50.7 16s-50.7-7.1-50.7-16c0-1.4.6-2.7 1.6-4m-1.6-5.6v9.6m101.4-9.6v9.6"/><path class="lst2" d="M106.4 100.1v7.4m-6.7-5.3v8.5m-6.8-6.7v8.5m-6.8-7.5v8.9m-6.7-7.1v8.2m-6.8-8.2v8.9m-6.7-8.9v9.2m-6.8-9.2v9.2m-6.8-9.2v8.9m-6.7-9.2v8.5m-6.8-9.3v8.2m-6.7-10.3v8.9m-6.8-9.9v7.8m-6.8-10.3v7.8"/><ellipse class="lst1" cx="62.5" cy="90.9" rx="50.7" ry="16"/></g><g class="lst0"><path class="lst1" d="M108.2 83.2c.9 1.2 1.4 2.5 1.4 3.8 0 8.8-22.7 16-50.7 16S8.2 95.9 8.2 87c0-1.4.6-2.7 1.6-4m-1.6-5.6v9.5m101.4-9.5v9.5"/><path class="lst2" d="M102.9 86.9v7.5m-6.8-5.3v8.5m-6.7-6.7v8.5m-6.8-7.5v8.9m-6.8-7.1v8.1m-6.7-8.1v8.9m-6.8-8.9v9.2m-6.7-9.2v9.2m-6.8-9.2v8.9M42 93.3v8.5m-6.7-9.2v8.2m-6.8-10.3v8.9m-6.8-10v7.8M15 86.9v7.9"/><ellipse class="lst1" cx="58.9" cy="77.7" rx="50.7" ry="16"/></g><g class="lst0"><path class="lst1" d="M126 68.3c.9 1.2 1.4 2.5 1.4 3.8 0 8.8-22.7 16-50.7 16S26 80.9 26 72.1c0-1.4.6-2.7 1.6-4M26 62.5v9.6m101.4-9.6v9.6"/><path class="lst2" d="M120.6 72.1v7.4m-6.7-5.3v8.5m-6.8-6.7v8.5m-6.8-7.5v8.9m-6.7-7.1v8.1m-6.8-8.1v8.9M80 78.8V88m-6.7-9.2V88m-6.8-9.2v8.9m-6.7-9.3v8.5M53 77.7v8.2m-6.8-10.3v8.9m-6.7-10v7.8m-6.8-10.2v7.8"/><ellipse class="lst1" cx="76.7" cy="62.8" rx="50.7" ry="16"/></g><g class="lst0"><path class="lst1" d="M118.9 53.8c.9 1.2 1.4 2.5 1.4 3.8 0 8.8-22.7 16-50.7 16s-50.7-7.1-50.7-16c0-1.4.6-2.7 1.6-4m-1.6-5.7v9.6m101.4-9.6v9.6"/><path class="lst2" d="M113.5 57.5V65m-6.7-5.4v8.6m-6.8-6.8v8.5m-6.8-7.4v8.8m-6.7-7v8.1m-6.8-8.1v8.8M73 64.3v9.2m-6.8-9.2v9.2m-6.8-9.2v8.8m-6.7-9.2v8.5m-6.8-9.2v8.1m-6.8-10.2v8.8M32.4 60v7.8m-6.8-10.3v7.8"/><ellipse class="lst1" cx="69.6" cy="48.3" rx="50.7" ry="16"/></g><g class="lst0"><path class="lst1" d="M124.9 36.7c.9 1.2 1.4 2.5 1.4 3.8 0 8.8-22.7 16-50.7 16s-50.7-7.1-50.7-16c0-1.4.6-2.7 1.6-4m-1.6-5.6v9.6m101.4-9.6v9.6"/><path class="lst2" d="M119.5 40.5v7.4m-6.7-5.3v8.5m-6.8-6.7v8.5m-6.7-7.4v8.8m-6.8-7.1v8.2m-6.8-8.2v8.9M79 47.2v9.3m-6.8-9.3v9.3m-6.7-9.3v8.9m-6.8-9.2v8.5m-6.8-9.2v8.1M45.2 44v8.9M38.4 43v7.8m-6.7-10.3v7.8"/><ellipse class="lst1" cx="75.6" cy="31.3" rx="50.7" ry="16"/></g><g class="lst0"><path class="lst3" d="M103.6 22.6c.9 1.2 1.4 2.5 1.4 3.8 0 8.8-22.7 16-50.7 16s-50.7-7.1-50.7-16c0-1.4.6-2.7 1.6-4m-1.6-5.7v9.6M105 16.7v9.6"/><path class="lst4" d="M98.3 26.3v7.5m-6.8-5.4v8.5m-6.7-6.7v8.5M78 31.3v8.8M71.2 33v8.2M64.5 33v8.9M57.7 33v9.3M50.9 33v9.3M44.2 33v8.9m-6.8-9.2v8.5M30.7 32v8.1m-6.8-10.2v8.8m-6.8-9.9v7.8m-6.7-10.3v7.8"/><ellipse class="lst3" cx="54.3" cy="17.1" rx="50.7" ry="16"/><path d="M67.5 15.7h5.3V17h-5.3c-.4 1.4-1.7 2.8-4.3 4l-2.7-1c2.4-1.1 3.6-2.5 3.6-3.8 0-1.4-1.6-2.5-4.3-2.5-3.1 0-4.2 1.1-5.5 2.9-1.5 2.1-3 4.1-8.2 4.1-4.2 0-7.4-1.3-7.7-3.7h-5.5v-1.3h5.6c.4-1.2 1.7-2.5 3.2-3.4l2.7 1c-1.7 1-2.6 2.3-2.6 3.3 0 1.4 1.5 2.3 4 2.3 2.7 0 3.7-1.2 4.9-2.8 1.7-2.4 3.2-4.2 8.8-4.2 4.5 0 7.7 1.4 8 3.8z" fill="#faf3ec"/></g></svg><svg version="1.1" id="coin7" x="261" y="204.3" viewBox="-1 -1 130.5 204.3" xml:space="preserve" width="130.5" height="204.3" xmlns="http://www.w3.org/2000/svg"><style>.mst0{display:none}.mst1{display:inline;stroke-width:2.2678;stroke-linecap:round}.mst1,.mst2,.mst3,.mst4{fill:#371447;stroke:#faf3ec;stroke-miterlimit:10}.mst2{display:inline;stroke-width:1.1339;stroke-linecap:square}.mst3{stroke-width:2.2678;stroke-linecap:round}.mst4{stroke-width:1.1339;stroke-linecap:square}</style><g class="mst0"><path class="mst1" d="M101.1 181.4c.9 1.2 1.4 2.5 1.4 3.8 0 8.8-22.7 16-50.7 16s-50.7-7.1-50.7-16c0-1.4.6-2.7 1.6-4m-1.6-5.6v9.6m101.5-9.6v9.6"/><path class="mst2" d="M95.8 185.2v7.4m-6.8-5.3v8.5m-6.7-6.7v8.5m-6.8-7.5v8.9m-6.8-7.1v8.2m-6.7-8.2v8.9m-6.8-8.9v9.2m-6.7-9.2v9.2m-6.8-9.2v8.9m-6.8-9.2v8.5m-6.7-9.2v8.1m-6.8-10.3v8.9m-6.7-9.9v7.8m-6.8-10.3v7.8"/><ellipse class="mst1" cx="51.8" cy="176" rx="50.7" ry="16"/></g><g class="mst0"><path class="mst1" d="M111.8 167.2c.9 1.2 1.4 2.5 1.4 3.8 0 8.8-22.7 16-50.7 16s-50.7-7.1-50.7-16c0-1.4.6-2.7 1.6-4m-1.6-5.6v9.6m101.4-9.6v9.6"/><path class="mst2" d="M106.4 171v7.4m-6.7-5.3v8.5m-6.8-6.7v8.5m-6.8-7.4v8.8m-6.7-7.1v8.2m-6.8-8.2v8.9m-6.7-8.9v9.2m-6.8-9.2v9.2m-6.8-9.2v8.9m-6.7-9.2v8.5m-6.8-9.2v8.1m-6.7-10.3v8.9m-6.8-9.9v7.8M18.5 171v7.8"/><ellipse class="mst1" cx="62.5" cy="161.8" rx="50.7" ry="16"/></g><g class="mst0"><path class="mst1" d="M101.1 154.1c.9 1.2 1.4 2.5 1.4 3.8 0 8.8-22.7 16-50.7 16s-50.7-7.1-50.7-16c0-1.4.6-2.7 1.6-4m-1.6-5.6v9.6m101.5-9.6v9.6"/><path class="mst2" d="M95.8 157.9v7.4M89 160v8.5m-6.7-6.7v8.5m-6.8-7.5v8.9m-6.8-7.1v8.2m-6.7-8.2v8.9m-6.8-8.9v9.2m-6.7-9.2v9.2m-6.8-9.2v8.9m-6.8-9.2v8.5m-6.7-9.3v8.2m-6.8-10.3v8.9m-6.7-9.9v7.8m-6.8-10.3v7.8"/><ellipse class="mst1" cx="51.8" cy="148.7" rx="50.7" ry="16"/></g><g class="mst0"><path class="mst1" d="M117.5 139.9c.9 1.2 1.4 2.5 1.4 3.8 0 8.8-22.7 16-50.7 16s-50.7-7.1-50.7-16c0-1.4.6-2.7 1.6-4m-1.7-5.6v9.6m101.5-9.6v9.6"/><path class="mst2" d="M112.1 143.7v7.4m-6.8-5.3v8.5m-6.7-6.7v8.5m-6.8-7.4v8.8m-6.7-7.1v8.2m-6.8-8.2v8.9m-6.8-8.9v9.2m-6.7-9.2v9.2m-6.8-9.2v8.9m-6.7-9.2v8.5m-6.8-9.2v8.1m-6.8-10.3v8.9m-6.7-9.9v7.8m-6.8-10.3v7.8"/><ellipse class="mst1" cx="68.2" cy="134.5" rx="50.7" ry="16"/></g><g class="mst0"><path class="mst1" d="M110.4 127.9c.9 1.2 1.4 2.5 1.4 3.8 0 8.8-22.7 16-50.7 16s-50.7-7.1-50.7-16c0-1.4.6-2.7 1.6-4m-1.6-5.6v9.5m101.4-9.5v9.5"/><path class="mst2" d="M105 131.6v7.5m-6.8-5.3v8.5m-6.7-6.8v8.5m-6.8-7.4v8.9m-6.7-7.1v8.1m-6.8-8.1v8.8m-6.8-8.8v9.2m-6.7-9.2v9.2m-6.8-9.2v8.8m-6.7-9.2v8.5m-6.8-9.2v8.2m-6.8-10.3v8.8m-6.7-9.9v7.8m-6.8-10.3v7.8"/><ellipse class="mst1" cx="61.1" cy="122.4" rx="50.7" ry="16"/></g><g class="mst0"><path class="mst1" d="M121 112.3c.9 1.2 1.4 2.5 1.4 3.8 0 8.8-22.7 16-50.7 16S21 124.8 21 116c0-1.4.6-2.7 1.6-4m-1.6-5.5v9.5m101.4-9.5v9.5"/><path class="mst2" d="M115.6 116v7.5m-6.7-5.3v8.5m-6.8-6.8v8.5m-6.7-7.4v8.9m-6.8-7.1v8.1m-6.8-8.1v8.8m-6.7-8.8v9.2m-6.8-9.2v9.2m-6.7-9.2v8.8m-6.8-9.2v8.5m-6.8-9.2v8.2m-6.7-10.3v8.8m-6.8-9.9v7.8M27.8 116v7.8"/><ellipse class="mst1" cx="71.7" cy="106.8" rx="50.7" ry="16"/></g><path class="mst3" d="M111.8 96.3c.9 1.2 1.4 2.5 1.4 3.8 0 8.8-22.7 16-50.7 16s-50.7-7.1-50.7-16c0-1.4.6-2.7 1.6-4m-1.6-5.6v9.6m101.4-9.6v9.6"/><path class="mst4" d="M106.4 100.1v7.4m-6.7-5.3v8.5m-6.8-6.7v8.5m-6.8-7.5v8.9m-6.7-7.1v8.2m-6.8-8.2v8.9m-6.7-8.9v9.2m-6.8-9.2v9.2m-6.8-9.2v8.9m-6.7-9.2v8.5m-6.8-9.3v8.2m-6.7-10.3v8.9m-6.8-9.9v7.8m-6.8-10.3v7.8"/><ellipse class="mst3" cx="62.5" cy="90.9" rx="50.7" ry="16"/><g class="mst0"><path class="mst1" d="M108.2 83.2c.9 1.2 1.4 2.5 1.4 3.8 0 8.8-22.7 16-50.7 16S8.2 95.9 8.2 87c0-1.4.6-2.7 1.6-4m-1.6-5.6v9.5m101.4-9.5v9.5"/><path class="mst2" d="M102.9 86.9v7.5m-6.8-5.3v8.5m-6.7-6.7v8.5m-6.8-7.5v8.9m-6.8-7.1v8.1m-6.7-8.1v8.9m-6.8-8.9v9.2m-6.7-9.2v9.2m-6.8-9.2v8.9M42 93.3v8.5m-6.7-9.2v8.2m-6.8-10.3v8.9m-6.8-10v7.8M15 86.9v7.9"/><ellipse class="mst1" cx="58.9" cy="77.7" rx="50.7" ry="16"/></g><g class="mst0"><path class="mst1" d="M126 68.3c.9 1.2 1.4 2.5 1.4 3.8 0 8.8-22.7 16-50.7 16S26 80.9 26 72.1c0-1.4.6-2.7 1.6-4M26 62.5v9.6m101.4-9.6v9.6"/><path class="mst2" d="M120.6 72.1v7.4m-6.7-5.3v8.5m-6.8-6.7v8.5m-6.8-7.5v8.9m-6.7-7.1v8.1m-6.8-8.1v8.9M80 78.8V88m-6.7-9.2V88m-6.8-9.2v8.9m-6.7-9.3v8.5M53 77.7v8.2m-6.8-10.3v8.9m-6.7-10v7.8m-6.8-10.2v7.8"/><ellipse class="mst1" cx="76.7" cy="62.8" rx="50.7" ry="16"/></g><g class="mst0"><path class="mst1" d="M118.9 53.8c.9 1.2 1.4 2.5 1.4 3.8 0 8.8-22.7 16-50.7 16s-50.7-7.1-50.7-16c0-1.4.6-2.7 1.6-4m-1.6-5.7v9.6m101.4-9.6v9.6"/><path class="mst2" d="M113.5 57.5V65m-6.7-5.4v8.6m-6.8-6.8v8.5m-6.8-7.4v8.8m-6.7-7v8.1m-6.8-8.1v8.8M73 64.3v9.2m-6.8-9.2v9.2m-6.8-9.2v8.8m-6.7-9.2v8.5m-6.8-9.2v8.1m-6.8-10.2v8.8M32.4 60v7.8m-6.8-10.3v7.8"/><ellipse class="mst1" cx="69.6" cy="48.3" rx="50.7" ry="16"/></g><g class="mst0"><path class="mst1" d="M124.9 36.7c.9 1.2 1.4 2.5 1.4 3.8 0 8.8-22.7 16-50.7 16s-50.7-7.1-50.7-16c0-1.4.6-2.7 1.6-4m-1.6-5.6v9.6m101.4-9.6v9.6"/><path class="mst2" d="M119.5 40.5v7.4m-6.7-5.3v8.5m-6.8-6.7v8.5m-6.7-7.4v8.8m-6.8-7.1v8.2m-6.8-8.2v8.9M79 47.2v9.3m-6.8-9.3v9.3m-6.7-9.3v8.9m-6.8-9.2v8.5m-6.8-9.2v8.1M45.2 44v8.9M38.4 43v7.8m-6.7-10.3v7.8"/><ellipse class="mst1" cx="75.6" cy="31.3" rx="50.7" ry="16"/></g><g class="mst0"><path class="mst3" d="M103.6 22.6c.9 1.2 1.4 2.5 1.4 3.8 0 8.8-22.7 16-50.7 16s-50.7-7.1-50.7-16c0-1.4.6-2.7 1.6-4m-1.6-5.7v9.6M105 16.7v9.6"/><path class="mst4" d="M98.3 26.3v7.5m-6.8-5.4v8.5m-6.7-6.7v8.5M78 31.3v8.8M71.2 33v8.2M64.5 33v8.9M57.7 33v9.3M50.9 33v9.3M44.2 33v8.9m-6.8-9.2v8.5M30.7 32v8.1m-6.8-10.2v8.8m-6.8-9.9v7.8m-6.7-10.3v7.8"/><ellipse class="mst3" cx="54.3" cy="17.1" rx="50.7" ry="16"/><path d="M67.5 15.7h5.3V17h-5.3c-.4 1.4-1.7 2.8-4.3 4l-2.7-1c2.4-1.1 3.6-2.5 3.6-3.8 0-1.4-1.6-2.5-4.3-2.5-3.1 0-4.2 1.1-5.5 2.9-1.5 2.1-3 4.1-8.2 4.1-4.2 0-7.4-1.3-7.7-3.7h-5.5v-1.3h5.6c.4-1.2 1.7-2.5 3.2-3.4l2.7 1c-1.7 1-2.6 2.3-2.6 3.3 0 1.4 1.5 2.3 4 2.3 2.7 0 3.7-1.2 4.9-2.8 1.7-2.4 3.2-4.2 8.8-4.2 4.5 0 7.7 1.4 8 3.8z" fill="#faf3ec"/></g></svg><svg version="1.1" id="coin8" x="130.5" y="408.6" viewBox="-1 -1 130.5 204.3" xml:space="preserve" width="130.5" height="204.3" xmlns="http://www.w3.org/2000/svg"><style>.nst0{display:none}.nst1{display:inline;stroke-width:2.2678;stroke-linecap:round}.nst1,.nst2,.nst3,.nst4{fill:#371447;stroke:#faf3ec;stroke-miterlimit:10}.nst2{display:inline;stroke-width:1.1339;stroke-linecap:square}.nst3{stroke-width:2.2678;stroke-linecap:round}.nst4{stroke-width:1.1339;stroke-linecap:square}</style><g class="nst0"><path class="nst1" d="M101.1 181.4c.9 1.2 1.4 2.5 1.4 3.8 0 8.8-22.7 16-50.7 16s-50.7-7.1-50.7-16c0-1.4.6-2.7 1.6-4m-1.6-5.6v9.6m101.5-9.6v9.6"/><path class="nst2" d="M95.8 185.2v7.4m-6.8-5.3v8.5m-6.7-6.7v8.5m-6.8-7.5v8.9m-6.8-7.1v8.2m-6.7-8.2v8.9m-6.8-8.9v9.2m-6.7-9.2v9.2m-6.8-9.2v8.9m-6.8-9.2v8.5m-6.7-9.2v8.1m-6.8-10.3v8.9m-6.7-9.9v7.8m-6.8-10.3v7.8"/><ellipse class="nst1" cx="51.8" cy="176" rx="50.7" ry="16"/></g><g class="nst0"><path class="nst1" d="M111.8 167.2c.9 1.2 1.4 2.5 1.4 3.8 0 8.8-22.7 16-50.7 16s-50.7-7.1-50.7-16c0-1.4.6-2.7 1.6-4m-1.6-5.6v9.6m101.4-9.6v9.6"/><path class="nst2" d="M106.4 171v7.4m-6.7-5.3v8.5m-6.8-6.7v8.5m-6.8-7.4v8.8m-6.7-7.1v8.2m-6.8-8.2v8.9m-6.7-8.9v9.2m-6.8-9.2v9.2m-6.8-9.2v8.9m-6.7-9.2v8.5m-6.8-9.2v8.1m-6.7-10.3v8.9m-6.8-9.9v7.8M18.5 171v7.8"/><ellipse class="nst1" cx="62.5" cy="161.8" rx="50.7" ry="16"/></g><g class="nst0"><path class="nst1" d="M101.1 154.1c.9 1.2 1.4 2.5 1.4 3.8 0 8.8-22.7 16-50.7 16s-50.7-7.1-50.7-16c0-1.4.6-2.7 1.6-4m-1.6-5.6v9.6m101.5-9.6v9.6"/><path class="nst2" d="M95.8 157.9v7.4M89 160v8.5m-6.7-6.7v8.5m-6.8-7.5v8.9m-6.8-7.1v8.2m-6.7-8.2v8.9m-6.8-8.9v9.2m-6.7-9.2v9.2m-6.8-9.2v8.9m-6.8-9.2v8.5m-6.7-9.3v8.2m-6.8-10.3v8.9m-6.7-9.9v7.8m-6.8-10.3v7.8"/><ellipse class="nst1" cx="51.8" cy="148.7" rx="50.7" ry="16"/></g><g class="nst0"><path class="nst1" d="M117.5 139.9c.9 1.2 1.4 2.5 1.4 3.8 0 8.8-22.7 16-50.7 16s-50.7-7.1-50.7-16c0-1.4.6-2.7 1.6-4m-1.7-5.6v9.6m101.5-9.6v9.6"/><path class="nst2" d="M112.1 143.7v7.4m-6.8-5.3v8.5m-6.7-6.7v8.5m-6.8-7.4v8.8m-6.7-7.1v8.2m-6.8-8.2v8.9m-6.8-8.9v9.2m-6.7-9.2v9.2m-6.8-9.2v8.9m-6.7-9.2v8.5m-6.8-9.2v8.1m-6.8-10.3v8.9m-6.7-9.9v7.8m-6.8-10.3v7.8"/><ellipse class="nst1" cx="68.2" cy="134.5" rx="50.7" ry="16"/></g><g class="nst0"><path class="nst1" d="M110.4 127.9c.9 1.2 1.4 2.5 1.4 3.8 0 8.8-22.7 16-50.7 16s-50.7-7.1-50.7-16c0-1.4.6-2.7 1.6-4m-1.6-5.6v9.5m101.4-9.5v9.5"/><path class="nst2" d="M105 131.6v7.5m-6.8-5.3v8.5m-6.7-6.8v8.5m-6.8-7.4v8.9m-6.7-7.1v8.1m-6.8-8.1v8.8m-6.8-8.8v9.2m-6.7-9.2v9.2m-6.8-9.2v8.8m-6.7-9.2v8.5m-6.8-9.2v8.2m-6.8-10.3v8.8m-6.7-9.9v7.8m-6.8-10.3v7.8"/><ellipse class="nst1" cx="61.1" cy="122.4" rx="50.7" ry="16"/></g><g class="nst0"><path class="nst1" d="M121 112.3c.9 1.2 1.4 2.5 1.4 3.8 0 8.8-22.7 16-50.7 16S21 124.8 21 116c0-1.4.6-2.7 1.6-4m-1.6-5.5v9.5m101.4-9.5v9.5"/><path class="nst2" d="M115.6 116v7.5m-6.7-5.3v8.5m-6.8-6.8v8.5m-6.7-7.4v8.9m-6.8-7.1v8.1m-6.8-8.1v8.8m-6.7-8.8v9.2m-6.8-9.2v9.2m-6.7-9.2v8.8m-6.8-9.2v8.5m-6.8-9.2v8.2m-6.7-10.3v8.8m-6.8-9.9v7.8M27.8 116v7.8"/><ellipse class="nst1" cx="71.7" cy="106.8" rx="50.7" ry="16"/></g><g class="nst0"><path class="nst1" d="M111.8 96.3c.9 1.2 1.4 2.5 1.4 3.8 0 8.8-22.7 16-50.7 16s-50.7-7.1-50.7-16c0-1.4.6-2.7 1.6-4m-1.6-5.6v9.6m101.4-9.6v9.6"/><path class="nst2" d="M106.4 100.1v7.4m-6.7-5.3v8.5m-6.8-6.7v8.5m-6.8-7.5v8.9m-6.7-7.1v8.2m-6.8-8.2v8.9m-6.7-8.9v9.2m-6.8-9.2v9.2m-6.8-9.2v8.9m-6.7-9.2v8.5m-6.8-9.3v8.2m-6.7-10.3v8.9m-6.8-9.9v7.8m-6.8-10.3v7.8"/><ellipse class="nst1" cx="62.5" cy="90.9" rx="50.7" ry="16"/></g><path class="nst3" d="M108.2 83.2c.9 1.2 1.4 2.5 1.4 3.8 0 8.8-22.7 16-50.7 16S8.2 95.9 8.2 87c0-1.4.6-2.7 1.6-4m-1.6-5.6v9.5m101.4-9.5v9.5"/><path class="nst4" d="M102.9 86.9v7.5m-6.8-5.3v8.5m-6.7-6.7v8.5m-6.8-7.5v8.9m-6.8-7.1v8.1m-6.7-8.1v8.9m-6.8-8.9v9.2m-6.7-9.2v9.2m-6.8-9.2v8.9M42 93.3v8.5m-6.7-9.2v8.2m-6.8-10.3v8.9m-6.8-10v7.8M15 86.9v7.9"/><ellipse class="nst3" cx="58.9" cy="77.7" rx="50.7" ry="16"/><g class="nst0"><path class="nst1" d="M126 68.3c.9 1.2 1.4 2.5 1.4 3.8 0 8.8-22.7 16-50.7 16S26 80.9 26 72.1c0-1.4.6-2.7 1.6-4M26 62.5v9.6m101.4-9.6v9.6"/><path class="nst2" d="M120.6 72.1v7.4m-6.7-5.3v8.5m-6.8-6.7v8.5m-6.8-7.5v8.9m-6.7-7.1v8.1m-6.8-8.1v8.9M80 78.8V88m-6.7-9.2V88m-6.8-9.2v8.9m-6.7-9.3v8.5M53 77.7v8.2m-6.8-10.3v8.9m-6.7-10v7.8m-6.8-10.2v7.8"/><ellipse class="nst1" cx="76.7" cy="62.8" rx="50.7" ry="16"/></g><g class="nst0"><path class="nst1" d="M118.9 53.8c.9 1.2 1.4 2.5 1.4 3.8 0 8.8-22.7 16-50.7 16s-50.7-7.1-50.7-16c0-1.4.6-2.7 1.6-4m-1.6-5.7v9.6m101.4-9.6v9.6"/><path class="nst2" d="M113.5 57.5V65m-6.7-5.4v8.6m-6.8-6.8v8.5m-6.8-7.4v8.8m-6.7-7v8.1m-6.8-8.1v8.8M73 64.3v9.2m-6.8-9.2v9.2m-6.8-9.2v8.8m-6.7-9.2v8.5m-6.8-9.2v8.1m-6.8-10.2v8.8M32.4 60v7.8m-6.8-10.3v7.8"/><ellipse class="nst1" cx="69.6" cy="48.3" rx="50.7" ry="16"/></g><g class="nst0"><path class="nst1" d="M124.9 36.7c.9 1.2 1.4 2.5 1.4 3.8 0 8.8-22.7 16-50.7 16s-50.7-7.1-50.7-16c0-1.4.6-2.7 1.6-4m-1.6-5.6v9.6m101.4-9.6v9.6"/><path class="nst2" d="M119.5 40.5v7.4m-6.7-5.3v8.5m-6.8-6.7v8.5m-6.7-7.4v8.8m-6.8-7.1v8.2m-6.8-8.2v8.9M79 47.2v9.3m-6.8-9.3v9.3m-6.7-9.3v8.9m-6.8-9.2v8.5m-6.8-9.2v8.1M45.2 44v8.9M38.4 43v7.8m-6.7-10.3v7.8"/><ellipse class="nst1" cx="75.6" cy="31.3" rx="50.7" ry="16"/></g><g class="nst0"><path class="nst3" d="M103.6 22.6c.9 1.2 1.4 2.5 1.4 3.8 0 8.8-22.7 16-50.7 16s-50.7-7.1-50.7-16c0-1.4.6-2.7 1.6-4m-1.6-5.7v9.6M105 16.7v9.6"/><path class="nst4" d="M98.3 26.3v7.5m-6.8-5.4v8.5m-6.7-6.7v8.5M78 31.3v8.8M71.2 33v8.2M64.5 33v8.9M57.7 33v9.3M50.9 33v9.3M44.2 33v8.9m-6.8-9.2v8.5M30.7 32v8.1m-6.8-10.2v8.8m-6.8-9.9v7.8m-6.7-10.3v7.8"/><ellipse class="nst3" cx="54.3" cy="17.1" rx="50.7" ry="16"/><path d="M67.5 15.7h5.3V17h-5.3c-.4 1.4-1.7 2.8-4.3 4l-2.7-1c2.4-1.1 3.6-2.5 3.6-3.8 0-1.4-1.6-2.5-4.3-2.5-3.1 0-4.2 1.1-5.5 2.9-1.5 2.1-3 4.1-8.2 4.1-4.2 0-7.4-1.3-7.7-3.7h-5.5v-1.3h5.6c.4-1.2 1.7-2.5 3.2-3.4l2.7 1c-1.7 1-2.6 2.3-2.6 3.3 0 1.4 1.5 2.3 4 2.3 2.7 0 3.7-1.2 4.9-2.8 1.7-2.4 3.2-4.2 8.8-4.2 4.5 0 7.7 1.4 8 3.8z" fill="#faf3ec"/></g></svg><svg version="1.1" id="coin9" x="391.5" y="204.3" viewBox="-1 -1 130.5 204.3" xml:space="preserve" width="130.5" height="204.3" xmlns="http://www.w3.org/2000/svg"><style>.ost0{display:none}.ost1{display:inline;stroke-width:2.2678;stroke-linecap:round}.ost1,.ost2,.ost3,.ost4{fill:#371447;stroke:#faf3ec;stroke-miterlimit:10}.ost2{display:inline;stroke-width:1.1339;stroke-linecap:square}.ost3{stroke-width:2.2678;stroke-linecap:round}.ost4{stroke-width:1.1339;stroke-linecap:square}</style><g class="ost0"><path class="ost1" d="M101.1 181.4c.9 1.2 1.4 2.5 1.4 3.8 0 8.8-22.7 16-50.7 16s-50.7-7.1-50.7-16c0-1.4.6-2.7 1.6-4m-1.6-5.6v9.6m101.5-9.6v9.6"/><path class="ost2" d="M95.8 185.2v7.4m-6.8-5.3v8.5m-6.7-6.7v8.5m-6.8-7.5v8.9m-6.8-7.1v8.2m-6.7-8.2v8.9m-6.8-8.9v9.2m-6.7-9.2v9.2m-6.8-9.2v8.9m-6.8-9.2v8.5m-6.7-9.2v8.1m-6.8-10.3v8.9m-6.7-9.9v7.8m-6.8-10.3v7.8"/><ellipse class="ost1" cx="51.8" cy="176" rx="50.7" ry="16"/></g><g class="ost0"><path class="ost1" d="M111.8 167.2c.9 1.2 1.4 2.5 1.4 3.8 0 8.8-22.7 16-50.7 16s-50.7-7.1-50.7-16c0-1.4.6-2.7 1.6-4m-1.6-5.6v9.6m101.4-9.6v9.6"/><path class="ost2" d="M106.4 171v7.4m-6.7-5.3v8.5m-6.8-6.7v8.5m-6.8-7.4v8.8m-6.7-7.1v8.2m-6.8-8.2v8.9m-6.7-8.9v9.2m-6.8-9.2v9.2m-6.8-9.2v8.9m-6.7-9.2v8.5m-6.8-9.2v8.1m-6.7-10.3v8.9m-6.8-9.9v7.8M18.5 171v7.8"/><ellipse class="ost1" cx="62.5" cy="161.8" rx="50.7" ry="16"/></g><g class="ost0"><path class="ost1" d="M101.1 154.1c.9 1.2 1.4 2.5 1.4 3.8 0 8.8-22.7 16-50.7 16s-50.7-7.1-50.7-16c0-1.4.6-2.7 1.6-4m-1.6-5.6v9.6m101.5-9.6v9.6"/><path class="ost2" d="M95.8 157.9v7.4M89 160v8.5m-6.7-6.7v8.5m-6.8-7.5v8.9m-6.8-7.1v8.2m-6.7-8.2v8.9m-6.8-8.9v9.2m-6.7-9.2v9.2m-6.8-9.2v8.9m-6.8-9.2v8.5m-6.7-9.3v8.2m-6.8-10.3v8.9m-6.7-9.9v7.8m-6.8-10.3v7.8"/><ellipse class="ost1" cx="51.8" cy="148.7" rx="50.7" ry="16"/></g><g class="ost0"><path class="ost1" d="M117.5 139.9c.9 1.2 1.4 2.5 1.4 3.8 0 8.8-22.7 16-50.7 16s-50.7-7.1-50.7-16c0-1.4.6-2.7 1.6-4m-1.7-5.6v9.6m101.5-9.6v9.6"/><path class="ost2" d="M112.1 143.7v7.4m-6.8-5.3v8.5m-6.7-6.7v8.5m-6.8-7.4v8.8m-6.7-7.1v8.2m-6.8-8.2v8.9m-6.8-8.9v9.2m-6.7-9.2v9.2m-6.8-9.2v8.9m-6.7-9.2v8.5m-6.8-9.2v8.1m-6.8-10.3v8.9m-6.7-9.9v7.8m-6.8-10.3v7.8"/><ellipse class="ost1" cx="68.2" cy="134.5" rx="50.7" ry="16"/></g><g class="ost0"><path class="ost1" d="M110.4 127.9c.9 1.2 1.4 2.5 1.4 3.8 0 8.8-22.7 16-50.7 16s-50.7-7.1-50.7-16c0-1.4.6-2.7 1.6-4m-1.6-5.6v9.5m101.4-9.5v9.5"/><path class="ost2" d="M105 131.6v7.5m-6.8-5.3v8.5m-6.7-6.8v8.5m-6.8-7.4v8.9m-6.7-7.1v8.1m-6.8-8.1v8.8m-6.8-8.8v9.2m-6.7-9.2v9.2m-6.8-9.2v8.8m-6.7-9.2v8.5m-6.8-9.2v8.2m-6.8-10.3v8.8m-6.7-9.9v7.8m-6.8-10.3v7.8"/><ellipse class="ost1" cx="61.1" cy="122.4" rx="50.7" ry="16"/></g><g class="ost0"><path class="ost1" d="M121 112.3c.9 1.2 1.4 2.5 1.4 3.8 0 8.8-22.7 16-50.7 16S21 124.8 21 116c0-1.4.6-2.7 1.6-4m-1.6-5.5v9.5m101.4-9.5v9.5"/><path class="ost2" d="M115.6 116v7.5m-6.7-5.3v8.5m-6.8-6.8v8.5m-6.7-7.4v8.9m-6.8-7.1v8.1m-6.8-8.1v8.8m-6.7-8.8v9.2m-6.8-9.2v9.2m-6.7-9.2v8.8m-6.8-9.2v8.5m-6.8-9.2v8.2m-6.7-10.3v8.8m-6.8-9.9v7.8M27.8 116v7.8"/><ellipse class="ost1" cx="71.7" cy="106.8" rx="50.7" ry="16"/></g><g class="ost0"><path class="ost1" d="M111.8 96.3c.9 1.2 1.4 2.5 1.4 3.8 0 8.8-22.7 16-50.7 16s-50.7-7.1-50.7-16c0-1.4.6-2.7 1.6-4m-1.6-5.6v9.6m101.4-9.6v9.6"/><path class="ost2" d="M106.4 100.1v7.4m-6.7-5.3v8.5m-6.8-6.7v8.5m-6.8-7.5v8.9m-6.7-7.1v8.2m-6.8-8.2v8.9m-6.7-8.9v9.2m-6.8-9.2v9.2m-6.8-9.2v8.9m-6.7-9.2v8.5m-6.8-9.3v8.2m-6.7-10.3v8.9m-6.8-9.9v7.8m-6.8-10.3v7.8"/><ellipse class="ost1" cx="62.5" cy="90.9" rx="50.7" ry="16"/></g><g class="ost0"><path class="ost1" d="M108.2 83.2c.9 1.2 1.4 2.5 1.4 3.8 0 8.8-22.7 16-50.7 16S8.2 95.9 8.2 87c0-1.4.6-2.7 1.6-4m-1.6-5.6v9.5m101.4-9.5v9.5"/><path class="ost2" d="M102.9 86.9v7.5m-6.8-5.3v8.5m-6.7-6.7v8.5m-6.8-7.5v8.9m-6.8-7.1v8.1m-6.7-8.1v8.9m-6.8-8.9v9.2m-6.7-9.2v9.2m-6.8-9.2v8.9M42 93.3v8.5m-6.7-9.2v8.2m-6.8-10.3v8.9m-6.8-10v7.8M15 86.9v7.9"/><ellipse class="ost1" cx="58.9" cy="77.7" rx="50.7" ry="16"/></g><path class="ost3" d="M126 68.3c.9 1.2 1.4 2.5 1.4 3.8 0 8.8-22.7 16-50.7 16S26 80.9 26 72.1c0-1.4.6-2.7 1.6-4M26 62.5v9.6m101.4-9.6v9.6"/><path class="ost4" d="M120.6 72.1v7.4m-6.7-5.3v8.5m-6.8-6.7v8.5m-6.8-7.5v8.9m-6.7-7.1v8.1m-6.8-8.1v8.9M80 78.8V88m-6.7-9.2V88m-6.8-9.2v8.9m-6.7-9.3v8.5M53 77.7v8.2m-6.8-10.3v8.9m-6.7-10v7.8m-6.8-10.2v7.8"/><ellipse class="ost3" cx="76.7" cy="62.8" rx="50.7" ry="16"/><g class="ost0"><path class="ost1" d="M118.9 53.8c.9 1.2 1.4 2.5 1.4 3.8 0 8.8-22.7 16-50.7 16s-50.7-7.1-50.7-16c0-1.4.6-2.7 1.6-4m-1.6-5.7v9.6m101.4-9.6v9.6"/><path class="ost2" d="M113.5 57.5V65m-6.7-5.4v8.6m-6.8-6.8v8.5m-6.8-7.4v8.8m-6.7-7v8.1m-6.8-8.1v8.8M73 64.3v9.2m-6.8-9.2v9.2m-6.8-9.2v8.8m-6.7-9.2v8.5m-6.8-9.2v8.1m-6.8-10.2v8.8M32.4 60v7.8m-6.8-10.3v7.8"/><ellipse class="ost1" cx="69.6" cy="48.3" rx="50.7" ry="16"/></g><g class="ost0"><path class="ost1" d="M124.9 36.7c.9 1.2 1.4 2.5 1.4 3.8 0 8.8-22.7 16-50.7 16s-50.7-7.1-50.7-16c0-1.4.6-2.7 1.6-4m-1.6-5.6v9.6m101.4-9.6v9.6"/><path class="ost2" d="M119.5 40.5v7.4m-6.7-5.3v8.5m-6.8-6.7v8.5m-6.7-7.4v8.8m-6.8-7.1v8.2m-6.8-8.2v8.9M79 47.2v9.3m-6.8-9.3v9.3m-6.7-9.3v8.9m-6.8-9.2v8.5m-6.8-9.2v8.1M45.2 44v8.9M38.4 43v7.8m-6.7-10.3v7.8"/><ellipse class="ost1" cx="75.6" cy="31.3" rx="50.7" ry="16"/></g><g class="ost0"><path class="ost3" d="M103.6 22.6c.9 1.2 1.4 2.5 1.4 3.8 0 8.8-22.7 16-50.7 16s-50.7-7.1-50.7-16c0-1.4.6-2.7 1.6-4m-1.6-5.7v9.6M105 16.7v9.6"/><path class="ost4" d="M98.3 26.3v7.5m-6.8-5.4v8.5m-6.7-6.7v8.5M78 31.3v8.8M71.2 33v8.2M64.5 33v8.9M57.7 33v9.3M50.9 33v9.3M44.2 33v8.9m-6.8-9.2v8.5M30.7 32v8.1m-6.8-10.2v8.8m-6.8-9.9v7.8m-6.7-10.3v7.8"/><ellipse class="ost3" cx="54.3" cy="17.1" rx="50.7" ry="16"/><path d="M67.5 15.7h5.3V17h-5.3c-.4 1.4-1.7 2.8-4.3 4l-2.7-1c2.4-1.1 3.6-2.5 3.6-3.8 0-1.4-1.6-2.5-4.3-2.5-3.1 0-4.2 1.1-5.5 2.9-1.5 2.1-3 4.1-8.2 4.1-4.2 0-7.4-1.3-7.7-3.7h-5.5v-1.3h5.6c.4-1.2 1.7-2.5 3.2-3.4l2.7 1c-1.7 1-2.6 2.3-2.6 3.3 0 1.4 1.5 2.3 4 2.3 2.7 0 3.7-1.2 4.9-2.8 1.7-2.4 3.2-4.2 8.8-4.2 4.5 0 7.7 1.4 8 3.8z" fill="#faf3ec"/></g></svg><svg width="77.37" height="17.89" viewBox="-1 -1 77.37 17.89" id="tagline" x="375.99" y="408.6" xmlns="http://www.w3.org/2000/svg"><g data-name="Layer 2"><path d="M6.33.7h2a.36.36 0 0 1 .37.37v10.39a.36.36 0 0 1-.37.37h-2a.36.36 0 0 1-.33-.37v-.24a2.54 2.54 0 0 1-2 .84 4 4 0 0 1-4-4.19 4 4 0 0 1 3.91-4.15A2.62 2.62 0 0 1 6 4.51V1.06A.37.37 0 0 1 6.33.7zm-2 5.58A1.62 1.62 0 1 0 5.94 7.9a1.6 1.6 0 0 0-1.59-1.62zm13.8 1.63a4.24 4.24 0 0 1-4.35 4.15 4.24 4.24 0 0 1-4.36-4.15 4.27 4.27 0 0 1 4.35-4.2 4.27 4.27 0 0 1 4.36 4.2zm-2.77 0a1.59 1.59 0 1 0-1.59 1.6 1.6 1.6 0 0 0 1.6-1.61zM23.44 0a1.7 1.7 0 1 1-1.7 1.7 1.7 1.7 0 0 1 1.7-1.7zm1 11.82h-2a.39.39 0 0 1-.38-.38V4.32a.37.37 0 0 1 .38-.32h2a.36.36 0 0 1 .37.37v7.12a.37.37 0 0 1-.37.33zm2.34-5.51h-1a.37.37 0 0 1-.37-.38V4.32a.36.36 0 0 1 .4-.32h1V2a.37.37 0 0 1 .38-.37h2a.36.36 0 0 1 .37.37v2h2.21a.37.37 0 0 1 .38.37v1.56a.39.39 0 0 1-.38.38h-2.24v2.35c0 .72.48.73.62.73a1 1 0 0 0 .59-.19.64.64 0 0 1 .37-.2.41.41 0 0 1 .35.18l.87 1.22a.63.63 0 0 1 .13.33.51.51 0 0 1-.16.33 3.67 3.67 0 0 1-2.56.87 2.74 2.74 0 0 1-3-3zm12.12 5.18a.37.37 0 0 1-.38.33h-2a.36.36 0 0 1-.37-.37V4.32a.36.36 0 0 1 .37-.32h1.89a.37.37 0 0 1 .38.33v.44a2.47 2.47 0 0 1 2-.92H41c.17 0 .43.06.43.48v2a.46.46 0 0 1-.49.49h-.62c-1 0-1.46.27-1.46 1.18zM43.51 0a1.7 1.7 0 1 1-1.7 1.7 1.7 1.7 0 0 1 1.7-1.7zm1 11.82h-2a.39.39 0 0 1-.38-.38V4.32a.37.37 0 0 1 .38-.32h2a.36.36 0 0 1 .37.37v7.12a.37.37 0 0 1-.37.33zm5.55 1.71a1.35 1.35 0 0 0 1.54-1.4v-.86a2.53 2.53 0 0 1-2 .72 3.9 3.9 0 0 1-4-4.12 3.91 3.91 0 0 1 3.9-4.15 2.57 2.57 0 0 1 2.1.84v-.24A.37.37 0 0 1 52 4h2a.36.36 0 0 1 .37.37v8c0 2.3-1.7 3.53-4.31 3.53a5 5 0 0 1-2.83-.73 3 3 0 0 1-1.33-2.51v-.13a.35.35 0 0 1 .35-.35h2.1a.36.36 0 0 1 .4.33c0 .32.16 1.02 1.31 1.02zM50 6.28a1.62 1.62 0 1 0 1.58 1.62A1.6 1.6 0 0 0 50 6.28zm11.15 1.6a1.47 1.47 0 0 0-1.51-1.62 1.5 1.5 0 0 0-1.54 1.62v3.61a.37.37 0 0 1-.38.33h-2a.36.36 0 0 1-.37-.37V1.06a.36.36 0 0 1 .36-.36h2a.37.37 0 0 1 .39.3v3.58a3.24 3.24 0 0 1 2.37-.86c2.48 0 3.43 1.81 3.43 3.94v3.83a.37.37 0 0 1-.38.33h-2a.37.37 0 0 1-.38-.33zm4.51-1.57h-1a.37.37 0 0 1-.37-.38V4.32a.36.36 0 0 1 .4-.32h1V2a.37.37 0 0 1 .31-.35h2a.36.36 0 0 1 .37.37V4h2.21a.37.37 0 0 1 .38.37v1.56a.39.39 0 0 1-.38.38h-2.17v2.35c0 .72.48.73.62.73a1 1 0 0 0 .59-.19A.64.64 0 0 1 70 9a.41.41 0 0 1 .35.18l.87 1.22a.63.63 0 0 1 .13.33.51.51 0 0 1-.16.33 3.67 3.67 0 0 1-2.56.87 2.74 2.74 0 0 1-3-3zm7.95 2.22a1.76 1.76 0 1 1-1.76 1.76 1.77 1.77 0 0 1 1.76-1.76z" data-name="Layer 1" fill="#cf477f"/></g></svg></svg>