<svg width="211" height="66" viewBox="0 0 211 66" xmlns="http://www.w3.org/2000/svg" xmlns:xlink="http://www.w3.org/1999/xlink"><svg width="89" height="14.98" viewBox="-1 -1 89 14.98" y="50.05" xmlns="http://www.w3.org/2000/svg"><title>branding_1</title><g data-name="Layer 2"><path d="M3.31 3.5a1.47 1.47 0 0 1 0-.64 1 1 0 0 1 1.14-.82 1 1 0 0 1 1.16 1.1v.76h3.1v-.84C8.69.42 6.25 0 4.49 0 2.28 0 .48.71.15 2.69a4.08 4.08 0 0 0 0 1.63c.54 2.48 5 3.19 5.6 4.76a1.53 1.53 0 0 1 0 .89 1.07 1.07 0 0 1-1.22.82A1.1 1.1 0 0 1 3.34 9.7V8.53H0v.93C0 12.17 2.18 13 4.52 13s4.09-.75 4.39-2.77a5.87 5.87 0 0 0 0-2c-.53-2.55-5.25-3.3-5.6-4.73zm40.45 0a1.58 1.58 0 0 1 0-.63 1 1 0 0 1 1.13-.81A1 1 0 0 1 46 3.19v.74h3.07v-.84c0-2.61-2.4-3-4.14-3-2.19 0-4 .7-4.31 2.67a3.94 3.94 0 0 0 0 1.62c.53 2.45 4.91 3.16 5.55 4.71a1.6 1.6 0 0 1 0 .89 1.05 1.05 0 0 1-1.2.81 1.09 1.09 0 0 1-1.24-1.09V8.51h-3.3v.92c0 2.68 2.15 3.49 4.47 3.49s4.06-.74 4.35-2.74a5.75 5.75 0 0 0 0-2c-.48-2.48-5.14-3.24-5.5-4.64zM72 10.14L69.07.39h-4.62v12h3.05l-.17-10.08 3.15 10.07h4.42V.39h-3.07zM13.32.39L11 12.5h3.36l1.75-11.21L17.8 12.5h3.34L18.84.39zm18.78 0l-1.57 9.47L29 .39h-5.11l-.27 12.11h3.11l.08-11.21L29 12.5h3.15l2.1-11.21.08 11.21h3.12L37.17.39H32.1zm28.9 0h-3.14v9a2.08 2.08 0 0 1 0 .46 1.25 1.25 0 0 1-2.38 0 1.91 1.91 0 0 1 0-.46v-9h-3.21v9.48c.22 2.26 2 3 4.34 3s4.12-.73 4.34-3a6.16 6.16 0 0 0 0-.8V.39zM82.6 5.7v1.77h1.27v1.75a2.16 2.16 0 0 1 0 .46 1.36 1.36 0 0 1-2.54 0 2.93 2.93 0 0 1 0-.46V3.68a2.42 2.42 0 0 1 .05-.57 1.32 1.32 0 0 1 2.48 0 3.11 3.11 0 0 1 0 .47v.67H87v-.4a7.09 7.09 0 0 0 0-.8c-.23-2.27-2.16-3-4.36-3s-4.09.73-4.37 3c0 .21-.06.58-.06.8v5.1a6.71 6.71 0 0 0 0 .8c.2 2.21 2.17 3 4.37 3s4.17-.78 4.37-3V5.7H82.6z" data-name="Layer 1"/></g></svg><svg width="211" height="31" viewBox="-1 -1 211 31" xmlns="http://www.w3.org/2000/svg"><title>logo</title><g data-name="Layer 2"><path d="M35.5 8.47a6.74 6.74 0 0 0-5.24-2.29 8.07 8.07 0 0 0-8.09 8.51 8.17 8.17 0 0 0 8 8.48 6.7 6.7 0 0 0 5.3-2.48v2.15h3.77V6.52H35.5zm-4.69 11.25a4.94 4.94 0 0 1-4.94-5.08 4.91 4.91 0 1 1 9.82 0 4.91 4.91 0 0 1-4.88 5.08zM60.94 8.47a6.75 6.75 0 0 0-5.24-2.29 8.07 8.07 0 0 0-8.09 8.51 8.17 8.17 0 0 0 8 8.48 6.7 6.7 0 0 0 5.3-2.48v2.15h3.79V6.52h-3.76zm-4.69 11.25a4.94 4.94 0 0 1-4.94-5.08 4.91 4.91 0 1 1 9.82 0 4.92 4.92 0 0 1-4.88 5.08zm35.15-2.21L86.85 6.52h-4.02l6.7 15.45L86.6 29h3.88l9.17-22.48h-3.96L91.4 17.51zM82.42 6.52h-4.47l-3.68 5.16-3.71-5.16h-4.6l5.91 8.01-6.13 8.31h4.6l3.88-5.44 3.98 5.44h4.61l-6.25-8.29 5.86-8.03zM41.86 2.2h3.79v20.64h-3.79zM10 15.07h6.5a5.76 5.76 0 0 1-5.89 4.41 6.65 6.65 0 0 1-6.84-6.78 6.67 6.67 0 0 1 6.67-6.78 6.3 6.3 0 0 1 5.89 3.54l3.35-2a10.39 10.39 0 0 0-9.28-5.22A10.24 10.24 0 0 0 0 12.7a10.28 10.28 0 0 0 10.57 10.46c6.08 0 10-4.71 10-10.21v-1.51H10zm103.85-4.27c-2.2-.73-4.16-1.26-4.16-2.87 0-1.31 1-2.31 2.85-2.31a4.17 4.17 0 0 1 3.68 2l3.12-2.37a8.71 8.71 0 0 0-6.83-3c-3.9 0-6.75 2.57-6.75 5.83 0 3.88 3 4.94 5.77 5.8 2.17.67 4.24 1.2 4.24 2.93a2.8 2.8 0 0 1-3.1 2.73 5.14 5.14 0 0 1-4.46-2.76l-3.46 2.73a10 10 0 0 0 7.95 3.65c4.46 0 7-3.12 7-6.33.03-3.91-3.09-5.13-5.85-6.03zm14.3-8.56c-4 0-7.22 2.79-7.22 6.94a6.56 6.56 0 0 0 6.53 6.82 4.26 4.26 0 0 0 1.17-.17l-4.49 7h4.46l5.24-8.45a9.84 9.84 0 0 0 1.56-5.27 6.93 6.93 0 0 0-7.25-6.87zm.06 10.54a3.59 3.59 0 0 1-3.54-3.57 3.66 3.66 0 0 1 3.54-3.62 3.6 3.6 0 0 1 0 7.19zm47.27-1.98c-2.2-.73-4.16-1.26-4.16-2.87 0-1.31 1-2.31 2.84-2.31a4.17 4.17 0 0 1 3.68 2L181 5.2a8.7 8.7 0 0 0-6.83-3c-3.9 0-6.75 2.57-6.75 5.83 0 3.88 3 4.94 5.77 5.8 2.17.67 4.24 1.2 4.24 2.93a2.8 2.8 0 0 1-3.1 2.73 5.14 5.14 0 0 1-4.46-2.76l-3.46 2.73a10 10 0 0 0 7.95 3.65c4.46 0 7-3.12 7-6.33 0-3.86-3.12-5.08-5.88-5.98zm14.3-8.56c-4 0-7.22 2.79-7.22 6.94a6.56 6.56 0 0 0 6.53 6.82 4.26 4.26 0 0 0 1.17-.17l-4.49 7h4.46l5.24-8.45A9.84 9.84 0 0 0 197 9.16a6.93 6.93 0 0 0-7.22-6.92zm.06 10.54a3.59 3.59 0 0 1-3.54-3.57 3.66 3.66 0 0 1 3.54-3.62 3.6 3.6 0 0 1 0 7.19zm15.59-1.67V7.57h-3.15v3.54h-3.6v3.21h3.6v3.57h3.15v-3.57H209v-3.21h-3.57zM150.09 0h1.61v26.1h-1.61z" data-name="Layer 3"/></g></svg><svg width="101.62" height="19.05" viewBox="-1 -1 101.62 19.05" y="31" xmlns="http://www.w3.org/2000/svg"><title>text_1</title><g data-name="Layer 2"><g data-name="Layer 1"><path fill="#fff" d="M0 0h99.62v17.05H0z"/><path d="M3 3.31H0v-2h8.2v2h-3v9.34H3zm6.21-2.18h2.1v3.5A3.41 3.41 0 0 1 14 3.36c2.24 0 3.61 1.46 3.61 3.89v5.4H15.5V7.48c0-1.42-.68-2.3-2.05-2.3a2.18 2.18 0 0 0-2.12 2.47v5H9.21zm9.34 6.99a4.7 4.7 0 0 1 4.73-4.76A4.55 4.55 0 0 1 28 8v.79h-7.45a2.85 2.85 0 0 0 5.32.54l1.73 1a4.61 4.61 0 0 1-4.25 2.46 4.62 4.62 0 0 1-4.8-4.67zm2.12-1h5.17a2.42 2.42 0 0 0-2.55-1.87 2.7 2.7 0 0 0-2.63 1.83zM32.44 7a5.83 5.83 0 0 1 10.81-3L41.4 5.13a3.4 3.4 0 0 0-3.13-1.91A3.66 3.66 0 0 0 34.54 7a3.64 3.64 0 0 0 3.69 3.72 3.53 3.53 0 0 0 3.27-2.13l1.93 1a5.78 5.78 0 0 1-5.15 3.24A5.66 5.66 0 0 1 32.44 7zm11.45 1.1a4.5 4.5 0 0 1 4.51-4.74 3.82 3.82 0 0 1 2.93 1.28V3.55h2.1v9.1h-2.1v-1.18a3.77 3.77 0 0 1-3 1.37 4.56 4.56 0 0 1-4.44-4.74zm7.55 0a2.74 2.74 0 1 0-5.48 0 2.74 2.74 0 1 0 5.48 0zm3.18-4.55h2.08V4.6a3.46 3.46 0 0 1 5.55.33 3.51 3.51 0 0 1 3-1.57c2.44 0 3.7 1.46 3.7 3.81v5.48h-2.14V7.34a1.9 1.9 0 0 0-2-2.16c-1.14 0-2 .79-2 2.38v5.09h-2.12V7.28c0-1.29-.65-2.1-1.91-2.1s-2.06.82-2.06 2.43v5h-2.1zm15.24 4.57a4.7 4.7 0 0 1 4.73-4.76A4.55 4.55 0 0 1 79.27 8v.79h-7.41a2.85 2.85 0 0 0 5.32.54l1.73 1a4.84 4.84 0 0 1-9.05-2.26zm2.12-1h5.17a2.42 2.42 0 0 0-2.55-1.87A2.7 2.7 0 0 0 72 7.08zm8.22-3.57h2.08V4.9a2.32 2.32 0 0 1 2.33-1.35 3.21 3.21 0 0 1 1.6.39l-.79 2a2.13 2.13 0 0 0-1.26-.36c-1.21 0-1.87.65-1.87 2.22v4.85H80.2zm6.41 4.55a4.5 4.5 0 0 1 4.51-4.75A3.81 3.81 0 0 1 94 4.63V3.55h2.1v9.1H94v-1.18a3.77 3.77 0 0 1-3 1.37 4.56 4.56 0 0 1-4.39-4.74zm7.55 0a2.74 2.74 0 1 0-5.48 0 2.74 2.74 0 1 0 5.48 0zm4.2 2.2a1.18 1.18 0 0 1 1.26 1.28 1.27 1.27 0 0 1-2.54 0 1.2 1.2 0 0 1 1.28-1.28z"/></g></g></svg><svg width="96.58" height="19.05" viewBox="-1 -1 96.58 19.05" x="101.62" y="31" xmlns="http://www.w3.org/2000/svg"><title>text_2</title><g data-name="Layer 2"><g data-name="Layer 1"><path fill="#fff" d="M0 0h94.58v17.05H0z"/><path d="M0 12.65V1.29h3.64c2.69 0 4.25 1.6 4.25 4A3.72 3.72 0 0 1 6 8.56l2.27 4.09H5.83L4 9.18H2.12v3.47zm3.45-5.41c1.74 0 2.32-.95 2.32-2.07s-.7-1.9-2.32-1.9H2.12v4zm5.29.88a4.7 4.7 0 0 1 4.73-4.76A4.55 4.55 0 0 1 18.16 8v.79h-7.41a2.7 2.7 0 0 0 2.8 2.21 2.69 2.69 0 0 0 2.52-1.6l1.73 1a4.61 4.61 0 0 1-4.25 2.46 4.62 4.62 0 0 1-4.81-4.74zm2.12-1H16a2.42 2.42 0 0 0-2.55-1.87 2.7 2.7 0 0 0-2.59 1.83zM20.15 0a1.23 1.23 0 0 1 1.32 1.32 1.32 1.32 0 0 1-2.64 0A1.24 1.24 0 0 1 20.15 0zm-1.06 3.55h2.12v9.1h-2.12zm3.33 0h2.08v1.06a3.17 3.17 0 0 1 2.6-1.24 3.16 3.16 0 0 1 3 1.57 3.51 3.51 0 0 1 3-1.57c2.44 0 3.7 1.46 3.7 3.81v5.48h-2.2V7.34a1.9 1.9 0 0 0-2-2.16c-1.14 0-2 .79-2 2.38v5.09h-2.11V7.28c0-1.29-.65-2.1-1.91-2.1s-2.06.82-2.06 2.43v5h-2.1zm15.23 4.56a4.5 4.5 0 0 1 4.51-4.75 3.81 3.81 0 0 1 2.93 1.28V3.55h2.1v9.1h-2.1v-1.18a3.77 3.77 0 0 1-3 1.37 4.56 4.56 0 0 1-4.44-4.73zm7.55 0a2.74 2.74 0 1 0-5.48 0 2.74 2.74 0 1 0 5.48 0zm10.34 3.33a3.76 3.76 0 0 1-3 1.4 4.56 4.56 0 0 1-4.48-4.73 4.5 4.5 0 0 1 4.54-4.75 3.72 3.72 0 0 1 2.93 1.35V3.55h2.1v8.87a4.39 4.39 0 0 1-4.7 4.64 5 5 0 0 1-4.67-2.61l1.87-1.14A2.88 2.88 0 0 0 53 15.12a2.55 2.55 0 0 0 2.58-2.63zm.09-3.36a2.74 2.74 0 1 0-5.48 0 2.74 2.74 0 1 0 5.48 0zM59.91 0a1.23 1.23 0 0 1 1.32 1.32 1.32 1.32 0 0 1-2.64 0A1.24 1.24 0 0 1 59.91 0zm-1.05 3.55H61v9.1h-2.14zm3.32 0h2.08v1.12A3.35 3.35 0 0 1 67 3.36c2.24 0 3.61 1.46 3.61 3.89v5.4h-2.14V7.47c0-1.4-.68-2.29-2.05-2.29a2.18 2.18 0 0 0-2.13 2.47v5h-2.1zm9.34 4.57a4.7 4.7 0 0 1 4.73-4.76A4.55 4.55 0 0 1 80.93 8v.79h-7.4a2.85 2.85 0 0 0 5.32.54l1.73 1a4.84 4.84 0 0 1-9.05-2.26zm2.12-1h5.16a2.42 2.42 0 0 0-2.55-1.87 2.7 2.7 0 0 0-2.61 1.83zm7.93.99a4.5 4.5 0 0 1 4.51-4.75A3.79 3.79 0 0 1 89 4.62V1.14h2.12v11.51H89v-1.18a3.77 3.77 0 0 1-3 1.37 4.56 4.56 0 0 1-4.43-4.73zm7.55 0a2.74 2.74 0 1 0-5.48 0 2.74 2.74 0 1 0 5.48 0zm4.2 2.19a1.18 1.18 0 0 1 1.26 1.28 1.27 1.27 0 0 1-2.54 0 1.2 1.2 0 0 1 1.28-1.28z"/></g></g></svg></svg>