<svg width="89" height="33" viewBox="0 0 89 33" xmlns="http://www.w3.org/2000/svg" xmlns:xlink="http://www.w3.org/1999/xlink"><svg width="87.97" height="15.19" viewBox="-1 -1 87.97 15.19" id="branding" y="17.75" xmlns="http://www.w3.org/2000/svg"><defs><style>.acls-1{fill:#fff;fill-rule:evenodd}</style></defs><path id="abranding" class="acls-1" d="M23.265 23.565a1.528 1.528 0 0 1-.012-.646 1.013 1.013 0 0 1 1.125-.828 1.05 1.05 0 0 1 1.142 1.116v.761h3.066V23.1c0-2.674-2.411-3.1-4.148-3.1-2.183 0-3.967.725-4.294 2.732a4.247 4.247 0 0 0 .024 1.657c.532 2.513 4.9 3.239 5.536 4.83a1.587 1.587 0 0 1 .024.907 1.064 1.064 0 0 1-1.2.83 1.1 1.1 0 0 1-1.228-1.115v-1.183H20v.942c0 2.748 2.158 3.575 4.468 3.575 2.221 0 4.044-.757 4.342-2.814a6.109 6.109 0 0 0-.013-2.012c-.521-2.582-5.182-3.349-5.532-4.784zm39.973.03a1.647 1.647 0 0 1-.011-.636 1.008 1.008 0 0 1 1.114-.823 1.037 1.037 0 0 1 1.126 1.107V24H68.5v-.862c0-2.648-2.374-3.064-4.093-3.064-2.165 0-3.933.714-4.256 2.706a4.105 4.105 0 0 0 .029 1.638c.52 2.482 4.85 3.206 5.477 4.782a1.66 1.66 0 0 1 .022.9 1.043 1.043 0 0 1-1.184.82 1.088 1.088 0 0 1-1.225-1.1v-1.18h-3.262v.938c0 2.717 2.128 3.537 4.42 3.537 2.2 0 4.008-.75 4.3-2.784a5.989 5.989 0 0 0-.022-1.993c-.506-2.554-5.119-3.321-5.468-4.743zm27.91 6.7l-2.895-9.9h-4.561v12.164h3.017l-.175-10.213 3.109 10.212h4.374V20.4H90.98zM33.157 20.4L30.88 32.687h3.32l1.716-11.378 1.674 11.378h3.3L38.62 20.4h-5.463zm18.565 0L50.171 30l-1.549-9.6h-5.015l-.266 12.287h3.072l.087-11.378 2.11 11.378h3.117l2.116-11.378.084 11.378h3.08L56.731 20.4h-5.009zm28.562 0h-3.109v9.093a2.163 2.163 0 0 1-.027.467 1.222 1.222 0 0 1-2.353 0 1.989 1.989 0 0 1-.031-.467V20.4h-3.108v8.811c0 .227.014.691.027.813.215 2.3 2.024 3.041 4.283 3.041s4.072-.745 4.291-3.041a6.4 6.4 0 0 0 .026-.812V20.4zm21.343 5.392v1.793h1.26v1.779a2.263 2.263 0 0 1-.032.467 1.328 1.328 0 0 1-2.512 0 3.126 3.126 0 0 1-.032-.467v-5.622a2.522 2.522 0 0 1 .056-.581 1.288 1.288 0 0 1 2.45 0 3.2 3.2 0 0 1 .038.474v.682h3.095v-.4a7.412 7.412 0 0 0-.023-.813c-.233-2.306-2.133-3.035-4.311-3.035S97.573 20.8 97.3 23.1c-.025.21-.062.588-.062.813v5.168a7 7 0 0 0 .049.811c.2 2.242 2.145 3.037 4.318 3.037s4.117-.795 4.323-3.037c.036-.411.04-.585.045-.811v-3.293h-4.348z" transform="translate(-20 -20)"/></svg><svg width="88.53" height="17.75" viewBox="-1 -1 88.53 17.75" id="logo" xmlns="http://www.w3.org/2000/svg"><defs><style>.bcls-1{fill:#fff;fill-rule:evenodd}</style></defs><path id="blogo" class="bcls-1" d="M217.306 23.684a3.959 3.959 0 0 0-3.079-1.343 4.741 4.741 0 0 0-4.751 5 4.8 4.8 0 0 0 4.718 4.98 3.934 3.934 0 0 0 3.112-1.459v1.258h2.212v-9.583h-2.212v1.147zm-2.751 6.6a2.967 2.967 0 1 1 2.865-2.984 2.9 2.9 0 0 1-2.865 2.982m17.691-6.6a3.963 3.963 0 0 0-3.079-1.343 4.741 4.741 0 0 0-4.751 5 4.8 4.8 0 0 0 4.717 4.98 3.936 3.936 0 0 0 3.113-1.459v1.26h2.211v-9.583h-2.211v1.147zm-2.753 6.6a2.967 2.967 0 1 1 2.868-2.982 2.9 2.9 0 0 1-2.868 2.982m20.641-1.295l-2.67-6.454H245.1l3.933 9.075-1.721 4.128h2.278l5.388-13.2h-2.326zm-5.275-6.454h-2.62l-2.163 3.031-2.176-3.027h-2.7l3.474 4.7-3.6 4.881h2.7l2.277-3.195 2.343 3.195h2.7l-3.67-4.866zm-23.818 9.587h2.227V20h-2.227v12.12zm-18.734-4.562h3.817a3.384 3.384 0 0 1-3.457 2.587 3.98 3.98 0 0 1-.081-7.96 3.7 3.7 0 0 1 3.456 2.081l1.965-1.179a6.1 6.1 0 0 0-5.438-3.063 6.143 6.143 0 1 0 .1 12.285 5.762 5.762 0 0 0 5.848-6v-.88h-6.208v2.129zm61.01-2.506c-1.294-.426-2.44-.737-2.44-1.687a1.437 1.437 0 0 1 1.67-1.359 2.452 2.452 0 0 1 2.162 1.146l1.834-1.392a5.112 5.112 0 0 0-4.012-1.736c-2.293 0-3.964 1.507-3.964 3.423 0 2.277 1.786 2.9 3.391 3.407 1.277.393 2.489.7 2.489 1.719a1.647 1.647 0 0 1-1.818 1.6 3.019 3.019 0 0 1-2.621-1.621l-2.03 1.6a5.881 5.881 0 0 0 4.668 2.145 3.833 3.833 0 0 0 4.127-3.717c0-2.293-1.835-3.013-3.456-3.537m8.4-5.028a4.029 4.029 0 0 0-4.242 4.078 3.855 3.855 0 0 0 3.833 4.029 2.5 2.5 0 0 0 .688-.1l-2.637 4.111h2.62l3.079-4.962a5.779 5.779 0 0 0 .917-3.1 4.068 4.068 0 0 0-4.258-4.062m.033 6.191a2.107 2.107 0 0 1-2.08-2.1 2.147 2.147 0 0 1 2.08-2.129 2.113 2.113 0 0 1 0 4.225m9.155-.982v-2.08h-1.85v2.08h-2.113v1.884h2.113v2.1h1.85v-2.1H283v-1.866h-2.1z" transform="translate(-196.469 -20)"/></svg></svg>