<svg xmlns="http://www.w3.org/2000/svg" xmlns:xlink="http://www.w3.org/1999/xlink" preserveAspectRatio="xMidYMid" width="117.031" height="8.687" viewBox="0 0 117.031 8.687">
  <defs>
    <style>
      .cls-1 {
        fill: #fff;
        fill-rule: evenodd;
      }
    </style>
  </defs>
  <path d="M116.567,6.405 L116.567,5.222 C116.472,5.412 116.350,5.582 116.200,5.732 C116.050,5.882 115.885,6.007 115.704,6.108 C115.524,6.208 115.332,6.284 115.129,6.336 C114.927,6.388 114.725,6.414 114.525,6.414 C114.170,6.414 113.838,6.349 113.529,6.219 C113.221,6.089 112.954,5.912 112.729,5.688 C112.504,5.463 112.328,5.202 112.200,4.905 C112.072,4.607 112.009,4.288 112.009,3.948 C112.009,3.607 112.072,3.286 112.200,2.986 C112.328,2.686 112.504,2.424 112.729,2.199 C112.954,1.975 113.221,1.798 113.529,1.668 C113.838,1.538 114.170,1.473 114.525,1.473 C114.725,1.473 114.925,1.499 115.125,1.552 C115.325,1.604 115.514,1.681 115.692,1.783 C115.870,1.885 116.034,2.009 116.184,2.155 C116.334,2.301 116.459,2.470 116.559,2.663 L116.559,0.084 L117.025,0.084 L117.025,6.405 L116.567,6.405 ZM116.459,3.159 C116.353,2.912 116.206,2.697 116.017,2.515 C115.828,2.332 115.609,2.188 115.359,2.080 C115.109,1.973 114.836,1.919 114.542,1.919 C114.259,1.919 113.992,1.972 113.742,2.076 C113.492,2.181 113.274,2.326 113.088,2.511 C112.902,2.696 112.756,2.911 112.650,3.155 C112.545,3.399 112.492,3.663 112.492,3.948 C112.492,4.227 112.545,4.489 112.650,4.736 C112.756,4.983 112.902,5.198 113.088,5.380 C113.274,5.563 113.492,5.706 113.742,5.811 C113.992,5.915 114.259,5.968 114.542,5.968 C114.836,5.968 115.109,5.915 115.359,5.811 C115.609,5.706 115.828,5.563 116.017,5.380 C116.206,5.198 116.353,4.983 116.459,4.736 C116.564,4.489 116.617,4.227 116.617,3.948 C116.617,3.668 116.564,3.406 116.459,3.159 ZM106.550,4.798 C106.656,5.039 106.800,5.247 106.984,5.421 C107.167,5.595 107.384,5.731 107.634,5.829 C107.884,5.927 108.161,5.976 108.467,5.976 C108.939,5.976 109.336,5.860 109.659,5.627 C109.981,5.394 110.223,5.073 110.384,4.663 L110.809,4.865 C110.592,5.359 110.292,5.740 109.909,6.010 C109.525,6.279 109.045,6.414 108.467,6.414 C108.073,6.414 107.717,6.350 107.400,6.223 C107.084,6.096 106.816,5.923 106.596,5.704 C106.377,5.485 106.207,5.227 106.088,4.929 C105.968,4.632 105.909,4.310 105.909,3.964 C105.909,3.612 105.973,3.285 106.100,2.982 C106.228,2.679 106.405,2.417 106.630,2.195 C106.855,1.973 107.123,1.798 107.434,1.668 C107.745,1.538 108.081,1.473 108.442,1.473 C108.798,1.473 109.127,1.531 109.430,1.646 C109.732,1.761 109.995,1.923 110.217,2.132 C110.439,2.341 110.613,2.589 110.738,2.873 C110.863,3.159 110.925,3.471 110.925,3.811 L110.925,4.015 L106.367,4.015 C106.384,4.296 106.445,4.557 106.550,4.798 ZM110.442,3.569 C110.420,3.327 110.355,3.103 110.246,2.899 C110.138,2.695 109.998,2.519 109.825,2.373 C109.653,2.226 109.450,2.113 109.217,2.032 C108.984,1.951 108.725,1.911 108.442,1.911 C108.170,1.911 107.917,1.954 107.684,2.040 C107.450,2.125 107.243,2.241 107.063,2.388 C106.882,2.534 106.732,2.708 106.613,2.910 C106.493,3.112 106.417,3.332 106.384,3.569 L110.442,3.569 ZM104.205,6.330 C103.991,6.279 103.821,6.188 103.696,6.056 C103.571,5.924 103.484,5.745 103.434,5.517 C103.384,5.290 103.359,5.000 103.359,4.646 L103.359,1.919 L102.492,1.919 L102.492,1.482 L103.359,1.482 L103.359,0.337 L103.817,0.034 L103.817,1.482 L105.100,1.482 L105.100,1.919 L103.817,1.919 L103.817,4.638 C103.817,4.918 103.835,5.146 103.871,5.320 C103.907,5.494 103.973,5.628 104.067,5.724 C104.161,5.819 104.292,5.882 104.459,5.913 C104.625,5.944 104.839,5.959 105.100,5.959 L105.100,6.405 L105.025,6.405 C104.692,6.405 104.418,6.380 104.205,6.330 ZM100.934,5.222 C100.839,5.412 100.717,5.582 100.567,5.732 C100.417,5.882 100.252,6.007 100.071,6.108 C99.891,6.208 99.699,6.284 99.496,6.336 C99.293,6.388 99.092,6.414 98.892,6.414 C98.537,6.414 98.205,6.349 97.896,6.219 C97.588,6.089 97.321,5.912 97.096,5.688 C96.871,5.463 96.695,5.202 96.567,4.905 C96.439,4.607 96.375,4.288 96.375,3.948 C96.375,3.607 96.439,3.286 96.567,2.986 C96.695,2.686 96.871,2.424 97.096,2.199 C97.321,1.975 97.588,1.798 97.896,1.668 C98.205,1.538 98.537,1.473 98.892,1.473 C99.092,1.473 99.293,1.499 99.496,1.552 C99.699,1.604 99.891,1.682 100.071,1.787 C100.252,1.892 100.417,2.019 100.567,2.171 C100.717,2.322 100.839,2.494 100.934,2.687 L100.934,1.482 L101.400,1.482 L101.400,6.405 L100.934,6.405 L100.934,5.222 ZM100.825,3.159 C100.720,2.912 100.573,2.697 100.384,2.515 C100.195,2.332 99.975,2.188 99.725,2.080 C99.475,1.973 99.203,1.919 98.909,1.919 C98.625,1.919 98.359,1.972 98.109,2.076 C97.859,2.181 97.641,2.326 97.455,2.511 C97.268,2.696 97.123,2.911 97.017,3.155 C96.912,3.399 96.859,3.663 96.859,3.948 C96.859,4.227 96.912,4.489 97.017,4.736 C97.123,4.983 97.268,5.198 97.455,5.380 C97.641,5.563 97.859,5.706 98.109,5.811 C98.359,5.915 98.625,5.968 98.909,5.968 C99.203,5.968 99.475,5.915 99.725,5.811 C99.975,5.706 100.195,5.563 100.384,5.380 C100.573,5.198 100.720,4.983 100.825,4.736 C100.931,4.489 100.984,4.227 100.984,3.948 C100.984,3.668 100.931,3.406 100.825,3.159 ZM94.592,0.177 L95.076,0.177 L95.076,6.405 L94.592,6.405 L94.592,0.177 ZM92.626,5.332 C92.464,5.651 92.223,5.911 91.901,6.112 C91.578,6.313 91.203,6.414 90.776,6.414 C90.437,6.414 90.131,6.363 89.859,6.261 C89.587,6.159 89.356,6.012 89.167,5.819 C88.978,5.626 88.834,5.393 88.734,5.121 C88.634,4.848 88.584,4.538 88.584,4.191 L88.584,1.482 L89.067,1.482 L89.067,4.195 C89.067,4.464 89.106,4.707 89.184,4.925 C89.262,5.142 89.376,5.327 89.526,5.481 C89.676,5.635 89.859,5.755 90.076,5.840 C90.292,5.925 90.537,5.968 90.809,5.968 C91.065,5.968 91.302,5.922 91.522,5.832 C91.741,5.741 91.933,5.616 92.097,5.456 C92.260,5.297 92.388,5.109 92.480,4.892 C92.572,4.674 92.617,4.439 92.617,4.186 L92.617,1.482 L93.092,1.482 L93.092,6.405 L92.626,6.405 L92.626,5.332 ZM86.659,3.585 C86.659,3.343 86.619,3.119 86.538,2.913 C86.458,2.707 86.344,2.529 86.197,2.381 C86.049,2.233 85.870,2.117 85.659,2.035 C85.448,1.952 85.212,1.911 84.951,1.911 C84.712,1.911 84.487,1.949 84.276,2.026 C84.065,2.103 83.881,2.215 83.726,2.360 C83.570,2.506 83.448,2.682 83.359,2.888 C83.270,3.094 83.226,3.327 83.226,3.585 L83.226,6.405 L82.751,6.405 L82.751,3.494 C82.751,3.258 82.712,3.042 82.634,2.847 C82.556,2.652 82.447,2.485 82.305,2.348 C82.163,2.211 81.991,2.103 81.788,2.026 C81.585,1.949 81.356,1.911 81.101,1.911 C80.851,1.911 80.620,1.953 80.409,2.039 C80.198,2.124 80.016,2.244 79.863,2.397 C79.710,2.551 79.591,2.737 79.505,2.954 C79.419,3.171 79.376,3.412 79.376,3.676 L79.376,6.405 L78.901,6.405 L78.901,1.482 L79.359,1.482 L79.359,2.549 C79.515,2.225 79.745,1.965 80.051,1.768 C80.356,1.572 80.717,1.473 81.134,1.473 C81.623,1.473 82.027,1.588 82.347,1.817 C82.666,2.046 82.890,2.350 83.017,2.728 C83.162,2.361 83.405,2.060 83.747,1.826 C84.088,1.591 84.492,1.473 84.959,1.473 C85.298,1.473 85.602,1.526 85.872,1.630 C86.141,1.735 86.369,1.881 86.555,2.068 C86.741,2.255 86.884,2.480 86.984,2.741 C87.084,3.003 87.134,3.294 87.134,3.613 L87.134,6.405 L86.659,6.405 L86.659,3.585 ZM77.159,0.817 C77.031,0.817 76.931,0.777 76.859,0.699 C76.787,0.620 76.751,0.522 76.751,0.404 C76.751,0.286 76.790,0.190 76.867,0.114 C76.945,0.038 77.042,0.000 77.159,0.000 C77.287,0.000 77.387,0.038 77.459,0.114 C77.531,0.190 77.567,0.286 77.567,0.404 C77.567,0.522 77.531,0.620 77.459,0.699 C77.387,0.777 77.287,0.817 77.159,0.817 ZM73.051,3.383 C73.179,3.450 73.324,3.507 73.488,3.553 C73.652,3.598 73.823,3.643 74.001,3.686 C74.201,3.734 74.399,3.789 74.597,3.851 C74.794,3.913 74.969,3.993 75.122,4.089 C75.274,4.186 75.399,4.307 75.497,4.453 C75.594,4.598 75.643,4.783 75.643,5.009 C75.643,5.176 75.606,5.343 75.534,5.510 C75.462,5.677 75.352,5.827 75.205,5.962 C75.058,6.096 74.870,6.205 74.643,6.289 C74.415,6.372 74.145,6.414 73.834,6.414 C73.418,6.414 73.043,6.330 72.709,6.163 C72.376,5.997 72.112,5.782 71.918,5.519 L72.293,5.230 C72.454,5.444 72.669,5.624 72.938,5.768 C73.208,5.912 73.509,5.985 73.843,5.985 C74.065,5.985 74.258,5.958 74.422,5.904 C74.585,5.850 74.723,5.778 74.834,5.686 C74.945,5.594 75.029,5.488 75.084,5.367 C75.140,5.246 75.168,5.121 75.168,4.992 C75.168,4.836 75.127,4.708 75.047,4.609 C74.966,4.509 74.859,4.426 74.726,4.358 C74.593,4.291 74.441,4.235 74.272,4.189 C74.102,4.143 73.929,4.099 73.751,4.056 C73.551,4.007 73.355,3.953 73.163,3.894 C72.972,3.835 72.801,3.758 72.651,3.664 C72.501,3.570 72.380,3.450 72.288,3.305 C72.197,3.160 72.151,2.980 72.151,2.764 C72.151,2.592 72.190,2.428 72.268,2.272 C72.345,2.116 72.458,1.979 72.605,1.861 C72.752,1.742 72.929,1.648 73.134,1.578 C73.340,1.508 73.570,1.473 73.826,1.473 C74.176,1.473 74.498,1.536 74.793,1.661 C75.087,1.786 75.331,1.960 75.526,2.182 L75.168,2.463 C75.001,2.279 74.809,2.138 74.593,2.040 C74.376,1.943 74.120,1.894 73.826,1.894 C73.443,1.894 73.147,1.978 72.938,2.144 C72.730,2.311 72.626,2.521 72.626,2.774 C72.626,2.919 72.665,3.040 72.743,3.137 C72.820,3.234 72.923,3.316 73.051,3.383 ZM66.251,3.383 C66.379,3.450 66.525,3.507 66.688,3.553 C66.852,3.598 67.023,3.643 67.201,3.686 C67.401,3.734 67.600,3.789 67.797,3.851 C67.994,3.913 68.169,3.993 68.322,4.089 C68.475,4.186 68.600,4.307 68.697,4.453 C68.794,4.598 68.843,4.783 68.843,5.009 C68.843,5.176 68.806,5.343 68.734,5.510 C68.662,5.677 68.552,5.827 68.405,5.962 C68.258,6.096 68.070,6.205 67.843,6.289 C67.615,6.372 67.345,6.414 67.034,6.414 C66.618,6.414 66.243,6.330 65.909,6.163 C65.576,5.997 65.312,5.782 65.118,5.519 L65.493,5.230 C65.654,5.444 65.869,5.624 66.138,5.768 C66.408,5.912 66.709,5.985 67.043,5.985 C67.265,5.985 67.458,5.958 67.622,5.904 C67.786,5.850 67.923,5.778 68.034,5.686 C68.145,5.594 68.229,5.488 68.284,5.367 C68.340,5.246 68.368,5.121 68.368,4.992 C68.368,4.836 68.327,4.708 68.247,4.609 C68.166,4.509 68.059,4.426 67.926,4.358 C67.793,4.291 67.641,4.235 67.472,4.189 C67.302,4.143 67.129,4.099 66.951,4.056 C66.751,4.007 66.555,3.953 66.363,3.894 C66.172,3.835 66.001,3.758 65.851,3.664 C65.701,3.570 65.580,3.450 65.488,3.305 C65.397,3.160 65.351,2.980 65.351,2.764 C65.351,2.592 65.390,2.428 65.468,2.272 C65.545,2.116 65.658,1.979 65.805,1.861 C65.952,1.742 66.129,1.648 66.334,1.578 C66.540,1.508 66.770,1.473 67.026,1.473 C67.376,1.473 67.698,1.536 67.993,1.661 C68.287,1.786 68.531,1.960 68.726,2.182 L68.368,2.463 C68.201,2.279 68.009,2.138 67.793,2.040 C67.576,1.943 67.320,1.894 67.026,1.894 C66.643,1.894 66.347,1.978 66.138,2.144 C65.930,2.311 65.826,2.521 65.826,2.774 C65.826,2.919 65.865,3.040 65.943,3.137 C66.020,3.234 66.123,3.316 66.251,3.383 ZM59.843,4.798 C59.948,5.039 60.093,5.247 60.276,5.421 C60.459,5.595 60.676,5.731 60.926,5.829 C61.176,5.927 61.454,5.976 61.759,5.976 C62.232,5.976 62.629,5.860 62.951,5.627 C63.273,5.394 63.515,5.073 63.676,4.663 L64.101,4.865 C63.884,5.359 63.584,5.740 63.201,6.010 C62.818,6.279 62.337,6.414 61.759,6.414 C61.365,6.414 61.009,6.350 60.693,6.223 C60.376,6.096 60.108,5.923 59.889,5.704 C59.669,5.485 59.500,5.227 59.380,4.929 C59.261,4.632 59.201,4.310 59.201,3.964 C59.201,3.612 59.265,3.285 59.393,2.982 C59.521,2.679 59.697,2.417 59.922,2.195 C60.147,1.973 60.415,1.798 60.726,1.668 C61.037,1.538 61.373,1.473 61.734,1.473 C62.090,1.473 62.419,1.531 62.722,1.646 C63.025,1.761 63.287,1.923 63.509,2.132 C63.732,2.341 63.905,2.589 64.030,2.873 C64.155,3.159 64.218,3.471 64.218,3.811 L64.218,4.015 L59.659,4.015 C59.676,4.296 59.737,4.557 59.843,4.798 ZM63.734,3.569 C63.712,3.327 63.647,3.103 63.539,2.899 C63.430,2.695 63.290,2.519 63.118,2.373 C62.946,2.226 62.743,2.113 62.509,2.032 C62.276,1.951 62.018,1.911 61.734,1.911 C61.462,1.911 61.209,1.954 60.976,2.040 C60.743,2.125 60.536,2.241 60.355,2.388 C60.175,2.534 60.025,2.708 59.905,2.910 C59.786,3.112 59.709,3.332 59.676,3.569 L63.734,3.569 ZM57.255,8.030 C57.041,8.240 56.784,8.404 56.484,8.520 C56.184,8.636 55.851,8.695 55.484,8.695 C55.184,8.695 54.918,8.664 54.684,8.602 C54.451,8.540 54.243,8.452 54.059,8.337 C53.876,8.222 53.714,8.082 53.572,7.916 C53.430,7.751 53.301,7.561 53.184,7.348 L53.643,7.138 C53.821,7.486 54.054,7.759 54.343,7.958 C54.632,8.157 55.012,8.257 55.484,8.257 C55.784,8.257 56.057,8.210 56.301,8.116 C56.546,8.021 56.752,7.887 56.922,7.712 C57.091,7.538 57.222,7.327 57.314,7.080 C57.405,6.834 57.451,6.558 57.451,6.253 L57.451,5.222 C57.357,5.412 57.234,5.582 57.084,5.732 C56.934,5.882 56.769,6.007 56.589,6.108 C56.408,6.208 56.216,6.284 56.014,6.336 C55.811,6.388 55.609,6.414 55.409,6.414 C55.054,6.414 54.722,6.349 54.414,6.219 C54.105,6.089 53.839,5.912 53.614,5.688 C53.389,5.463 53.212,5.202 53.084,4.905 C52.957,4.607 52.893,4.288 52.893,3.948 C52.893,3.607 52.957,3.286 53.084,2.986 C53.212,2.686 53.389,2.424 53.614,2.199 C53.839,1.975 54.105,1.798 54.414,1.668 C54.722,1.538 55.054,1.473 55.409,1.473 C55.609,1.473 55.811,1.499 56.014,1.552 C56.216,1.604 56.408,1.682 56.589,1.787 C56.769,1.892 56.934,2.019 57.084,2.171 C57.234,2.322 57.357,2.494 57.451,2.687 L57.451,1.482 L57.918,1.482 L57.918,6.243 C57.918,6.620 57.861,6.959 57.747,7.261 C57.633,7.563 57.469,7.819 57.255,8.030 ZM57.343,3.159 C57.237,2.912 57.090,2.697 56.901,2.515 C56.712,2.332 56.493,2.188 56.243,2.080 C55.993,1.973 55.721,1.919 55.426,1.919 C55.143,1.919 54.876,1.972 54.626,2.076 C54.376,2.181 54.158,2.326 53.972,2.511 C53.786,2.696 53.640,2.911 53.534,3.155 C53.429,3.399 53.376,3.663 53.376,3.948 C53.376,4.227 53.429,4.489 53.534,4.736 C53.640,4.983 53.786,5.198 53.972,5.380 C54.158,5.563 54.376,5.706 54.626,5.811 C54.876,5.915 55.143,5.968 55.426,5.968 C55.721,5.968 55.993,5.915 56.243,5.811 C56.493,5.706 56.712,5.563 56.901,5.380 C57.090,5.198 57.237,4.983 57.343,4.736 C57.448,4.489 57.501,4.227 57.501,3.948 C57.501,3.668 57.448,3.406 57.343,3.159 ZM51.143,5.222 C51.048,5.412 50.926,5.582 50.776,5.732 C50.626,5.882 50.461,6.007 50.280,6.108 C50.100,6.208 49.908,6.284 49.705,6.336 C49.503,6.388 49.301,6.414 49.101,6.414 C48.746,6.414 48.414,6.349 48.105,6.219 C47.797,6.089 47.530,5.912 47.305,5.688 C47.080,5.463 46.904,5.202 46.776,4.905 C46.648,4.607 46.585,4.288 46.585,3.948 C46.585,3.607 46.648,3.286 46.776,2.986 C46.904,2.686 47.080,2.424 47.305,2.199 C47.530,1.975 47.797,1.798 48.105,1.668 C48.414,1.538 48.746,1.473 49.101,1.473 C49.301,1.473 49.503,1.499 49.705,1.552 C49.908,1.604 50.100,1.682 50.280,1.787 C50.461,1.892 50.626,2.019 50.776,2.171 C50.926,2.322 51.048,2.494 51.143,2.687 L51.143,1.482 L51.610,1.482 L51.610,6.405 L51.143,6.405 L51.143,5.222 ZM51.035,3.159 C50.929,2.912 50.782,2.697 50.593,2.515 C50.404,2.332 50.185,2.188 49.935,2.080 C49.685,1.973 49.412,1.919 49.118,1.919 C48.835,1.919 48.568,1.972 48.318,2.076 C48.068,2.181 47.850,2.326 47.664,2.511 C47.478,2.696 47.332,2.911 47.226,3.155 C47.121,3.399 47.068,3.663 47.068,3.948 C47.068,4.227 47.121,4.489 47.226,4.736 C47.332,4.983 47.478,5.198 47.664,5.380 C47.850,5.563 48.068,5.706 48.318,5.811 C48.568,5.915 48.835,5.968 49.118,5.968 C49.412,5.968 49.685,5.915 49.935,5.811 C50.185,5.706 50.404,5.563 50.593,5.380 C50.782,5.198 50.929,4.983 51.035,4.736 C51.140,4.489 51.193,4.227 51.193,3.948 C51.193,3.668 51.140,3.406 51.035,3.159 ZM44.851,3.585 C44.851,3.343 44.811,3.119 44.730,2.913 C44.650,2.707 44.536,2.529 44.389,2.381 C44.241,2.233 44.062,2.117 43.851,2.035 C43.640,1.952 43.404,1.911 43.143,1.911 C42.904,1.911 42.679,1.949 42.468,2.026 C42.257,2.103 42.073,2.215 41.918,2.360 C41.762,2.506 41.640,2.682 41.551,2.888 C41.462,3.094 41.418,3.327 41.418,3.585 L41.418,6.405 L40.943,6.405 L40.943,3.494 C40.943,3.258 40.904,3.042 40.826,2.847 C40.748,2.652 40.639,2.485 40.497,2.348 C40.355,2.211 40.183,2.103 39.980,2.026 C39.778,1.949 39.548,1.911 39.293,1.911 C39.043,1.911 38.812,1.953 38.601,2.039 C38.390,2.124 38.208,2.244 38.055,2.397 C37.903,2.551 37.783,2.737 37.697,2.954 C37.611,3.171 37.568,3.412 37.568,3.676 L37.568,6.405 L37.093,6.405 L37.093,1.482 L37.551,1.482 L37.551,2.549 C37.707,2.225 37.937,1.965 38.243,1.768 C38.548,1.572 38.910,1.473 39.326,1.473 C39.815,1.473 40.219,1.588 40.539,1.817 C40.858,2.046 41.082,2.350 41.210,2.728 C41.354,2.361 41.597,2.060 41.939,1.826 C42.280,1.591 42.685,1.473 43.151,1.473 C43.490,1.473 43.794,1.526 44.064,1.630 C44.333,1.735 44.561,1.881 44.747,2.068 C44.933,2.255 45.076,2.480 45.176,2.741 C45.276,3.003 45.326,3.294 45.326,3.613 L45.326,6.405 L44.851,6.405 L44.851,3.585 ZM35.351,0.817 C35.223,0.817 35.123,0.777 35.051,0.699 C34.979,0.620 34.943,0.522 34.943,0.404 C34.943,0.286 34.982,0.190 35.060,0.114 C35.137,0.038 35.235,0.000 35.351,0.000 C35.479,0.000 35.579,0.038 35.651,0.114 C35.723,0.190 35.760,0.286 35.760,0.404 C35.760,0.522 35.723,0.620 35.651,0.699 C35.579,0.777 35.479,0.817 35.351,0.817 ZM30.960,3.692 C30.960,3.423 30.919,3.180 30.839,2.962 C30.758,2.745 30.643,2.560 30.493,2.406 C30.343,2.252 30.160,2.132 29.943,2.047 C29.726,1.962 29.482,1.919 29.210,1.919 C28.954,1.919 28.717,1.965 28.497,2.055 C28.278,2.146 28.088,2.271 27.926,2.431 C27.765,2.590 27.639,2.778 27.547,2.995 C27.456,3.213 27.410,3.448 27.410,3.700 L27.410,6.405 L26.935,6.405 L26.935,1.482 L27.393,1.482 L27.393,2.606 C27.554,2.271 27.799,1.999 28.126,1.789 C28.454,1.578 28.835,1.473 29.268,1.473 C29.596,1.473 29.892,1.524 30.156,1.626 C30.419,1.728 30.647,1.875 30.839,2.068 C31.031,2.261 31.178,2.494 31.281,2.766 C31.383,3.039 31.435,3.349 31.435,3.696 L31.435,6.405 L30.960,6.405 L30.960,3.692 ZM21.260,4.798 C21.365,5.039 21.510,5.247 21.693,5.421 C21.877,5.595 22.093,5.731 22.343,5.829 C22.593,5.927 22.871,5.976 23.177,5.976 C23.649,5.976 24.046,5.860 24.368,5.627 C24.690,5.394 24.932,5.073 25.093,4.663 L25.518,4.865 C25.302,5.359 25.002,5.740 24.618,6.010 C24.235,6.279 23.754,6.414 23.177,6.414 C22.782,6.414 22.427,6.350 22.110,6.223 C21.793,6.096 21.525,5.923 21.306,5.704 C21.086,5.485 20.917,5.227 20.797,4.929 C20.678,4.632 20.618,4.310 20.618,3.964 C20.618,3.612 20.682,3.285 20.810,2.982 C20.938,2.679 21.114,2.417 21.339,2.195 C21.564,1.973 21.832,1.798 22.143,1.668 C22.454,1.538 22.790,1.473 23.152,1.473 C23.507,1.473 23.836,1.531 24.139,1.646 C24.442,1.761 24.704,1.923 24.927,2.132 C25.149,2.341 25.322,2.589 25.447,2.873 C25.572,3.159 25.635,3.471 25.635,3.811 L25.635,4.015 L21.077,4.015 C21.093,4.296 21.154,4.557 21.260,4.798 ZM25.152,3.569 C25.129,3.327 25.064,3.103 24.956,2.899 C24.847,2.695 24.707,2.519 24.535,2.373 C24.363,2.226 24.160,2.113 23.927,2.032 C23.693,1.951 23.435,1.911 23.152,1.911 C22.879,1.911 22.627,1.954 22.393,2.040 C22.160,2.125 21.953,2.241 21.772,2.388 C21.592,2.534 21.442,2.708 21.322,2.910 C21.203,3.112 21.127,3.332 21.093,3.569 L25.152,3.569 ZM15.160,4.798 C15.266,5.039 15.410,5.247 15.593,5.421 C15.777,5.595 15.993,5.731 16.243,5.829 C16.493,5.927 16.771,5.976 17.077,5.976 C17.549,5.976 17.946,5.860 18.268,5.627 C18.591,5.394 18.832,5.073 18.993,4.663 L19.418,4.865 C19.202,5.359 18.902,5.740 18.518,6.010 C18.135,6.279 17.654,6.414 17.077,6.414 C16.682,6.414 16.327,6.350 16.010,6.223 C15.693,6.096 15.425,5.923 15.206,5.704 C14.986,5.485 14.817,5.227 14.698,4.929 C14.578,4.632 14.518,4.310 14.518,3.964 C14.518,3.612 14.582,3.285 14.710,2.982 C14.838,2.679 15.014,2.417 15.239,2.195 C15.464,1.973 15.732,1.798 16.043,1.668 C16.354,1.538 16.691,1.473 17.052,1.473 C17.407,1.473 17.736,1.531 18.039,1.646 C18.342,1.761 18.604,1.923 18.827,2.132 C19.049,2.341 19.223,2.589 19.348,2.873 C19.473,3.159 19.535,3.471 19.535,3.811 L19.535,4.015 L14.977,4.015 C14.993,4.296 15.054,4.557 15.160,4.798 ZM19.052,3.569 C19.029,3.327 18.964,3.103 18.856,2.899 C18.748,2.695 18.607,2.519 18.435,2.373 C18.263,2.226 18.060,2.113 17.827,2.032 C17.593,1.951 17.335,1.911 17.052,1.911 C16.779,1.911 16.527,1.954 16.293,2.040 C16.060,2.125 15.853,2.241 15.673,2.388 C15.492,2.534 15.342,2.708 15.223,2.910 C15.103,3.112 15.027,3.332 14.993,3.569 L19.052,3.569 ZM13.456,1.999 C13.342,1.952 13.207,1.928 13.052,1.928 C12.618,1.928 12.275,2.071 12.023,2.356 C11.770,2.642 11.643,3.040 11.643,3.551 L11.643,6.405 L11.168,6.405 L11.168,1.482 L11.627,1.482 L11.627,2.420 C11.754,2.119 11.941,1.887 12.185,1.725 C12.429,1.563 12.724,1.482 13.068,1.482 C13.285,1.482 13.470,1.504 13.623,1.548 C13.775,1.592 13.927,1.655 14.077,1.738 L13.793,2.196 C13.682,2.113 13.570,2.047 13.456,1.999 ZM6.139,5.380 C6.325,5.563 6.545,5.706 6.798,5.811 C7.050,5.915 7.324,5.968 7.618,5.968 C8.068,5.968 8.453,5.853 8.773,5.623 C9.092,5.393 9.330,5.096 9.485,4.732 L9.935,4.917 C9.841,5.134 9.718,5.334 9.568,5.519 C9.418,5.703 9.245,5.862 9.048,5.995 C8.850,6.128 8.631,6.231 8.389,6.304 C8.148,6.377 7.888,6.414 7.610,6.414 C7.249,6.414 6.913,6.349 6.602,6.219 C6.291,6.089 6.021,5.913 5.793,5.692 C5.566,5.470 5.386,5.209 5.256,4.909 C5.125,4.609 5.060,4.288 5.060,3.948 C5.060,3.596 5.127,3.270 5.260,2.970 C5.393,2.670 5.574,2.409 5.802,2.187 C6.030,1.965 6.298,1.791 6.606,1.664 C6.914,1.537 7.246,1.473 7.602,1.473 C7.868,1.473 8.121,1.509 8.360,1.580 C8.599,1.651 8.818,1.752 9.018,1.884 C9.218,2.015 9.395,2.171 9.548,2.352 C9.700,2.533 9.821,2.732 9.910,2.951 L9.468,3.128 C9.307,2.755 9.064,2.460 8.739,2.244 C8.414,2.027 8.035,1.919 7.602,1.919 C7.313,1.919 7.042,1.972 6.789,2.076 C6.536,2.181 6.318,2.326 6.135,2.511 C5.952,2.696 5.807,2.911 5.702,3.155 C5.596,3.399 5.543,3.663 5.543,3.948 C5.543,4.227 5.596,4.489 5.702,4.736 C5.807,4.983 5.953,5.198 6.139,5.380 ZM1.165,2.597 C1.306,2.687 1.469,2.765 1.652,2.830 C1.835,2.896 2.024,2.962 2.219,3.027 C2.430,3.098 2.640,3.175 2.848,3.257 C3.056,3.339 3.242,3.444 3.406,3.572 C3.570,3.701 3.702,3.857 3.802,4.040 C3.902,4.223 3.952,4.449 3.952,4.716 C3.952,4.951 3.905,5.172 3.810,5.377 C3.716,5.582 3.583,5.761 3.410,5.914 C3.238,6.067 3.033,6.188 2.794,6.278 C2.555,6.369 2.294,6.414 2.010,6.414 C1.560,6.414 1.167,6.324 0.831,6.145 C0.495,5.966 0.213,5.725 -0.015,5.421 L0.385,5.120 C0.580,5.397 0.813,5.608 1.085,5.752 C1.358,5.896 1.666,5.968 2.010,5.968 C2.216,5.968 2.408,5.938 2.585,5.877 C2.763,5.817 2.917,5.733 3.048,5.623 C3.178,5.514 3.281,5.381 3.356,5.226 C3.431,5.070 3.469,4.896 3.469,4.705 C3.469,4.503 3.426,4.332 3.340,4.193 C3.253,4.053 3.138,3.934 2.994,3.836 C2.849,3.738 2.684,3.654 2.498,3.586 C2.312,3.517 2.119,3.451 1.919,3.385 C1.708,3.319 1.501,3.246 1.298,3.163 C1.095,3.082 0.913,2.980 0.752,2.860 C0.591,2.740 0.460,2.592 0.360,2.417 C0.260,2.243 0.210,2.027 0.210,1.770 C0.210,1.551 0.258,1.349 0.352,1.163 C0.446,0.977 0.574,0.817 0.735,0.683 C0.896,0.549 1.087,0.444 1.306,0.368 C1.526,0.291 1.763,0.253 2.019,0.253 C2.430,0.253 2.781,0.329 3.073,0.482 C3.365,0.634 3.610,0.840 3.810,1.100 L3.435,1.385 C3.274,1.156 3.078,0.982 2.848,0.862 C2.617,0.742 2.341,0.682 2.019,0.682 C1.835,0.682 1.663,0.709 1.502,0.764 C1.341,0.819 1.201,0.894 1.081,0.989 C0.962,1.085 0.869,1.200 0.802,1.334 C0.735,1.468 0.702,1.617 0.702,1.781 C0.702,1.972 0.744,2.133 0.827,2.265 C0.910,2.396 1.023,2.506 1.165,2.597 ZM35.585,6.405 L35.110,6.405 L35.110,1.482 L35.585,1.482 L35.585,6.405 ZM77.392,6.405 L76.917,6.405 L76.917,1.482 L77.392,1.482 L77.392,6.405 Z" class="cls-1"/>
</svg>
