<?xml version="1.0" encoding="utf-8"?><svg width="272" height="233" viewBox="0 0 272 233" xmlns="http://www.w3.org/2000/svg" xmlns:xlink="http://www.w3.org/1999/xlink"><svg data-name="Layer 1" viewBox="-1 -1 271.39 186.95" width="271.39" height="186.95" id="headline"><title>headline</title><path d="M61.61 46.74h-6.75l-1 9h-9.72L51.85 0h13l8.43 55.74H62.65zm-5.62-10h4.42l-2.25-18.71zM74.62 0h14.22l3.61 29.08L96.14 0h13.33v55.74h-9.92V22.81l-4 32.93h-7.23l-4.1-32.93v32.93h-9.56V0zM128.19 46.74h-6.74l-1 9h-9.72L118.44 0h13l8.43 55.74h-10.63zm-5.62-10h4.42l-2.25-18.71zM151.41 0l7.55 28V0h9.72v55.74h-9.24l-8.51-30.12v30.12h-9.72V0h10.2zM197.11 0v10.28h-7.71v45.46h-11V10.28h-7.85V0h26.59zM221.85 0v10.36h-12v11.25h9.4v10.68h-9.4v12.85h12.61v10.6h-23.5V0h22.89zM0 64.21h14.38c8.92 0 13.17 3.53 13.17 13.33v28.59c0 9.32-3.77 13.82-13.09 13.82H0V64.21zm10.92 46h1.63c2.81 0 3.69-1.53 3.69-4.9v-27.1c0-3.45-1-4.66-3.45-4.66h-1.85v36.66zM53.41 64.21v10.36h-12v11.25h9.4V96.5h-9.4v12.85h12.61v10.6H30.55V64.21h22.89zM75.9 64.21v45.14h11.57v10.6H64.98V64.21H75.9zM105.78 110.94h-6.75l-1 9h-9.68l7.71-55.73h13l8.49 55.73h-10.72zm-5.62-10h4.39l-2.22-18.73zM138.55 64.21v45.14h11.57v10.6h-22.49V64.21h10.92zM168.43 110.94h-6.75l-1 9h-9.72l7.75-55.73h13l8.43 55.74h-10.66zm-5.62-10h4.42l-2.25-18.73zM198.95 119.94l-4.9-23.73h-1.69v23.7h-10.92v-55.7h15c9.4 0 12.21 3.86 12.21 11.73v7.15c0 5.06-1.45 8.43-4.1 10.28l5.54 26.59h-11.14zm-6.59-33.09h1.93c2.73 0 3.29-1.37 3.29-3.86v-6.1c0-2.49-.56-3.69-3.29-3.69h-1.93v13.65zM222.55 120.66c-7.39 0-11.57-5.3-11.57-12.29V77.69c0-8 3.61-14.14 13.17-14.14h1.69c10.52 0 12.85 6.35 12.85 13.57v5.62h-10.66v-5.62c0-2.49-.64-3.86-2.73-3.86s-2.73 1.45-2.73 4v29.24c0 2.57 1 4 2.89 4 2.09 0 3.29-1.45 3.29-3.94V95.92h-4.1v-9.71h14.62v33.74h-6.67c-.08-.4-.56-2.41-1.12-4.1a9.7 9.7 0 0 1-8.76 4.82h-.17zM257.67 110.94h-6.75l-1 9h-9.72l7.75-55.73h13l8.43 55.74h-10.67zm-5.62-10h4.42l-2.26-18.73zM20.64 128.4h14.38c8.92 0 13.17 3.53 13.17 13.33v28.59c0 9.32-3.78 13.82-13.09 13.82H20.64V128.4zm10.92 46h1.61c2.81 0 3.69-1.53 3.69-4.9v-27.13c0-3.45-1-4.66-3.45-4.66h-1.86v36.71zM62.09 184.14H51.16V128.4h10.92v55.74zM80.96 146.63v-7.07c0-1.85-.56-3-2.41-3s-2.41 1.37-2.41 3.21v1.61a7.26 7.26 0 0 0 2.33 5.38l7.87 8c4.58 4.58 6.1 8.11 6.1 13.82v2.33c0 8.76-5.3 13.9-13.82 13.9h-1.61c-8.35 0-12.77-4.18-12.77-12.13v-8.76h10.84v7.63c0 2.25.8 3.53 2.65 3.53h.24c1.85 0 2.49-1.53 2.49-3.69v-1.29c0-3.37-.32-4.5-3.53-7.71l-6.35-6.35c-3.94-3.94-5.54-7.07-5.54-14v-1.93c0-8.27 4.9-12.37 12.61-12.37h1.77c8.43 0 12 4.18 12 11.41v7.47H80.96zM119.55 128.4v10.28h-7.71v45.46h-11v-45.46h-7.87V128.4h26.58zM133.65 175.14h-6.75l-1 9h-9.72l7.71-55.74h13l8.43 55.74H134.7zm-5.62-10h4.42l-2.25-18.71zM156.87 128.4l7.55 28v-28h9.72v55.74h-9.24l-8.51-30.12v30.12h-9.72V128.4h10.2zM204.82 149.36h-10.84v-8.15c0-2.25-.64-3.7-2.89-3.7-2 0-2.57 1.37-2.57 3.7v30c0 2.17.72 3.61 2.73 3.61s2.73-1.61 2.73-3.61v-11.57h10.84v11.33c0 8-3.29 14-12.77 14h-2.17c-9.56 0-12.93-5.86-12.93-14.54v-28.7c0-8.27 4-14.06 12.93-14.06h2.17c10 0 12.77 5.7 12.77 13.41v8.27zM218.31 184.14h-10.92V128.4h10.92v55.74zM237.03 175.14h-6.75l-1 9h-9.73l7.71-55.74h13l8.43 55.74h-10.62zm-5.62-10h4.42l-2.28-18.75z" fill="#231f20"/></svg><svg data-name="Layer 1" viewBox="-1 -1 206.35 20.64" width="206.35" height="20.64" id="subline" y="186.95"><title>subline</title><path d="M16.2.18h4.19c1.65 0 2.6.6 2.6 1.8a1.81 1.81 0 0 1-1.74 1.66 1.54 1.54 0 0 1 1.35.6c.33.63.37 2.07.66 2.79h-2.12c-.22-.67-.19-1.65-.38-2.13-.12-.31-.43-.48-1.23-.48H18.2v2.6h-2V.16zm2 2.93h1.59c.91 0 1.21-.29 1.21-.81s-.52-.79-1.48-.79h-1.31v1.6zM24.8.18h5.89v1.41h-3.9v1.27h3.69v1.41h-3.69v1.37h4v1.41h-6V.19zM37.71 2.43a1.27 1.27 0 0 0-1.48-1A1.89 1.89 0 0 0 34.3 3.6c0 1.22.52 2.24 1.87 2.24a1.29 1.29 0 0 0 1.52-1.1h2.11c-.09 2-1.76 2.51-3.83 2.51s-3.73-1-3.73-3.6 1.6-3.62 4-3.62c1.75 0 3.44.62 3.47 2.43h-2.05zM44.92-.01C47.79-.01 49 1.53 49 3.6s-1.21 3.61-4.08 3.61-4.08-1.54-4.08-3.61 1.21-3.61 4.08-3.61zm0 5.82a2.21 2.21 0 1 0-2-2.21 1.9 1.9 0 0 0 2 2.21zM50.6.18h4.19c1.65 0 2.6.6 2.6 1.8a1.81 1.81 0 0 1-1.74 1.66 1.54 1.54 0 0 1 1.35.6c.33.63.37 2.07.66 2.79h-2.12c-.22-.67-.19-1.65-.38-2.13-.12-.31-.43-.48-1.23-.48H52.6v2.6h-2V.16zm2 2.93h1.59c.91 0 1.21-.29 1.21-.81s-.52-.79-1.48-.79h-1.31v1.6zM59.2.18h4.19c1.65 0 2.6.6 2.6 1.8a1.81 1.81 0 0 1-1.74 1.66 1.54 1.54 0 0 1 1.35.6c.33.63.37 2.07.66 2.79h-2.12c-.22-.67-.19-1.65-.38-2.13-.12-.31-.43-.48-1.23-.48H61.2v2.6h-2V.16zm2 2.93h1.59c.91 0 1.21-.29 1.21-.81s-.52-.79-1.48-.79h-1.31v1.6zM67.8.18h5.89v1.41h-3.9v1.27h3.69v1.41h-3.69v1.37h4v1.41h-6V.19zM81.28 1.58h-2.64V.17h7.28v1.41h-2.64v5.46h-2V1.58zM90.53-.01c2.87 0 4.08 1.54 4.08 3.61s-1.21 3.61-4.08 3.61-4.08-1.54-4.08-3.61 1.21-3.61 4.08-3.61zm0 5.82a2.21 2.21 0 1 0-2-2.21 1.9 1.9 0 0 0 2 2.21zM96.21.18h3.81a4.45 4.45 0 0 1 2.47.57 3.24 3.24 0 0 1 1.42 2.79 3.41 3.41 0 0 1-1.09 2.67 4.44 4.44 0 0 1-2.94.83h-3.67V.18zm2 5.53h.9c1.62 0 2.75-.25 2.75-2.13 0-1.62-.94-2.07-2.41-2.07h-1.24v4.2zM109.15-.01c2.87 0 4.08 1.54 4.08 3.61s-1.21 3.61-4.08 3.61-4.08-1.54-4.08-3.61 1.21-3.61 4.08-3.61zm0 5.82a2.21 2.21 0 1 0-2-2.21 1.9 1.9 0 0 0 2 2.21zM118.49.18h5.89v1.41h-3.9v1.27h3.69v1.41h-3.69v1.37h4v1.41h-6V.19zM126.38.18h2v5.46h3.88v1.41h-5.87V.19zM142.25 2.43a1.27 1.27 0 0 0-1.48-1 1.89 1.89 0 0 0-1.93 2.17c0 1.22.52 2.24 1.87 2.24a1.29 1.29 0 0 0 1.52-1.1h2.11c-.09 2-1.76 2.51-3.83 2.51s-3.73-1-3.73-3.6 1.6-3.62 4-3.62c1.75 0 3.44.62 3.47 2.43h-2.05zM148.66.18h2.39l3.56 6.86h-2.23l-.65-1.36h-4l-.67 1.36h-2.04zm1.1 1.33l-1.41 2.9h2.77zM155.76.18h3.08l2 5.09 2.14-5.09h3v6.86h-1.88V1.45l-2.27 5.59h-2.05l-2.28-5.59v5.59h-1.69V.18zM167.77.18h2v6.86h-2V.18zM171.48.18h2.62l3.13 4.94V.18H179v6.86h-2.64l-3.11-4.94v4.94h-1.77V.18zM184.55-.01c2.87 0 4.08 1.54 4.08 3.61s-1.21 3.61-4.08 3.61-4.08-1.54-4.08-3.61 1.21-3.61 4.08-3.61zm0 5.82a2.21 2.21 0 1 0-2-2.21 1.9 1.9 0 0 0 2 2.21zM5.46 13.84a1.27 1.27 0 0 0-1.48-1 1.89 1.89 0 0 0-1.93 2.17c0 1.22.52 2.24 1.87 2.24a1.29 1.29 0 0 0 1.52-1.1h2.11c-.09 2-1.76 2.51-3.83 2.51s-3.73-1-3.73-3.6 1.6-3.62 4-3.62c1.75 0 3.44.62 3.47 2.43H5.41zM12.67 11.41c2.87 0 4.08 1.54 4.08 3.61s-1.21 3.61-4.08 3.61-4.08-1.54-4.08-3.61 1.21-3.61 4.08-3.61zm0 5.82a2.21 2.21 0 1 0-2-2.21 1.9 1.9 0 0 0 2 2.21zM18.21 11.59h2.62l3.13 4.94v-4.94h1.77v6.86h-2.64l-3.11-4.94v4.94h-1.77v-6.86zM31.17 11.59h2.62l3.13 4.94v-4.94h1.77v6.86h-2.64l-3.13-4.94v4.94h-1.77v-6.86zM40.43 11.59h2v6.86h-2v-6.86zM44.28 11.59h2v3l2.78-3h2.41l-3 3.08 3.22 3.78H49.1l-2.79-3.54v3.54h-2v-6.86zM52.92 11.59h5.89v1.4h-3.89v1.27h3.69v1.41h-3.69v1.37h4v1.41h-6v-6.86zM67.26 11.59h2.39l3.56 6.86h-2.23l-.65-1.36h-4l-.67 1.36h-2.04zm1.1 1.33l-1.41 2.9h2.77zM74.25 11.59h2v6.86h-2v-6.86zM78.1 11.59h4.19c1.65 0 2.6.6 2.6 1.8a1.81 1.81 0 0 1-1.74 1.66 1.54 1.54 0 0 1 1.35.6c.33.63.37 2.07.66 2.79h-2.12c-.22-.67-.19-1.65-.38-2.13-.12-.31-.43-.47-1.23-.47H80.1v2.6h-2v-6.85zm2 2.93h1.59c.91 0 1.21-.29 1.21-.81s-.52-.79-1.48-.79h-1.31v1.6zM89.92 16.69L94.21 13h-4v-1.41h6.39v1.83l-4.24 3.63h4.34v1.41h-6.78v-1.77zM101.92 11.41c2.87 0 4.08 1.54 4.08 3.61s-1.21 3.61-4.08 3.61-4.08-1.54-4.08-3.61 1.17-3.61 4.08-3.61zm0 5.82a2.21 2.21 0 1 0-2-2.21 1.9 1.9 0 0 0 2 2.21zM111.2 11.41c2.87 0 4.08 1.54 4.08 3.61s-1.21 3.61-4.08 3.61-4.08-1.54-4.08-3.61 1.21-3.61 4.08-3.61zm0 5.82a2.21 2.21 0 1 0-2-2.21 1.9 1.9 0 0 0 2 2.21zM116.8 11.59h3.12l2 5.09 2.14-5.09h3v6.86h-1.88v-5.59l-2.27 5.59h-2.05l-2.28-5.59v5.59h-1.69v-6.86zM137.13 18.45h-2.4l-2.9-6.86H134l2 5.59 2.08-5.59h1.94zM144.36 11.41c2.87 0 4.08 1.54 4.08 3.61s-1.21 3.61-4.08 3.61-4.08-1.54-4.08-3.61 1.21-3.61 4.08-3.61zm0 5.82a2.21 2.21 0 1 0-2-2.21 1.9 1.9 0 0 0 2 2.21zM149.92 11.59H153l2 5.09 2.14-5.09h3v6.86h-1.88v-5.59l-2.27 5.59h-2.07l-2.28-5.59v5.59h-1.72v-6.86zM162.16 11.59h5.89v1.4h-3.9v1.27h3.69v1.41h-3.69v1.37h4v1.41h-6v-6.86zM170.05 11.59h4.19c1.65 0 2.6.6 2.6 1.8a1.81 1.81 0 0 1-1.74 1.66 1.54 1.54 0 0 1 1.35.6c.33.63.37 2.07.66 2.79h-2.12c-.22-.67-.19-1.65-.38-2.13-.12-.31-.43-.47-1.23-.47h-1.33v2.6h-2v-6.85zm2 2.93h1.59c.91 0 1.21-.29 1.21-.81s-.52-.79-1.48-.79h-1.31v1.6zM182.28 11.41c2.87 0 4.08 1.54 4.08 3.61s-1.21 3.61-4.08 3.61-4.08-1.54-4.08-3.61 1.21-3.61 4.08-3.61zm0 5.82a2.21 2.21 0 1 0-2-2.21 1.9 1.9 0 0 0 2 2.21zM193.8 13.61a6.51 6.51 0 0 1-1.89.85v-1.59a10 10 0 0 0 2.22-1h1.56v6.64h-1.88v-4.85zM198.4 17.05c1.76-1.1 4-2.11 4-3.3a.84.84 0 0 0-.92-.84.91.91 0 0 0-1 1h-1.88c0-1.57 1.1-2.23 2.81-2.23s3 .76 3 2.12c0 1.64-2.3 2.83-3.54 3.35h3.57v1.33h-6v-1.41z" fill="#231f20"/></svg><svg data-name="Layer 1" viewBox="-1 -1 66.07 24.45" width="66.07" height="24.45" id="tilde" y="207.58999999999997"><title>tilde</title><path d="M17.17 19.99c-5.05 2.13-13 4.58-16.28-.72-1.84-2.94-.67-7.52 2-11.7A60.7 60.7 0 0 1 9.07 0c-1.24 2-4.72 8.69-.16 12 1.77 1.28 4.9 1.41 8.78.4L64.02.16z" fill="#231f20"/></svg></svg>