<svg width="519" height="573" xmlns="http://www.w3.org/2000/svg" xmlns:xlink="http://www.w3.org/1999/xlink"><svg width="85.23" height="24.06" viewBox="-1 -1 85.23 24.06" x="370" y="293.51" xmlns="http://www.w3.org/2000/svg"><defs><clipPath id="a"><path d="M32.34 4.33h-3.28a.12.12 0 0 0-.12.12v10.32a.12.12 0 0 1-.12.12h-1.17a.12.12 0 0 0-.12.12l-.32 1.63a.12.12 0 0 0 .12.12h3.18a2.2 2.2 0 0 0 1-.2 1.62 1.62 0 0 0 .59-.49 1.68 1.68 0 0 0 .28-.63 4.18 4.18 0 0 0 .07-.52V4.46a.12.12 0 0 0-.11-.13zm9.33 1.88h-3.3a.12.12 0 0 0-.12.12v7.13a.12.12 0 0 1-.12.12h-.83a.12.12 0 0 1-.12-.12V6.34a.12.12 0 0 0-.18-.12h-3.23a.12.12 0 0 0-.12.12v7.31a3 3 0 0 0 .07.62 1.47 1.47 0 0 0 .25.56 1.42 1.42 0 0 0 .52.43 1.9 1.9 0 0 0 .87.2h4.74a1.89 1.89 0 0 0 .88-.19 1.44 1.44 0 0 0 .52-.44 1.46 1.46 0 0 0 .24-.56 4 4 0 0 0 .05-.45V6.34a.12.12 0 0 0-.12-.12zm9.39 0h-2.74a.12.12 0 0 0-.12.12v4.37c0 .07 0 .12-.06.12s-.08-.05-.1-.12l-1.27-4.36a.17.17 0 0 0-.15-.12h-3.53a.12.12 0 0 0-.12.12v9a.12.12 0 0 0 .12.12h2.75a.12.12 0 0 0 .12-.12v-4.93c0-.07 0-.12.05-.12s.07.05.09.12l1.51 4.94a.17.17 0 0 0 .16.12h3.28a.12.12 0 0 0 .12-.12v-9a.12.12 0 0 0-.11-.13zm13.51.51a1.56 1.56 0 0 0-.57-.35 1.89 1.89 0 0 0-.75-.15h-4.68a1.89 1.89 0 0 0-.75.15 1.55 1.55 0 0 0-.53.36 1.47 1.47 0 0 0-.31.5 2.2 2.2 0 0 0-.09.47v6.14a1.69 1.69 0 0 0 .37 1.16 1.58 1.58 0 0 0 1.26.48h4.82a1.84 1.84 0 0 0 .75-.16 1.48 1.48 0 0 0 .51-.35 1.43 1.43 0 0 0 .29-.5A2.46 2.46 0 0 0 65 14V7.83a1.7 1.7 0 0 0-.1-.6 1.5 1.5 0 0 0-.33-.5zm-3.09 6.74a.12.12 0 0 1-.12.12h-.86a.12.12 0 0 1-.12-.12V8.22a.12.12 0 0 1 .12-.12h.86a.12.12 0 0 1 .12.12zm12.64-1.56a1.48 1.48 0 0 0-.28-.56 1.14 1.14 0 0 0-.48-.33 3.15 3.15 0 0 0-.71-.16 2.9 2.9 0 0 0 .91-.27 1.42 1.42 0 0 0 .51-.43 1.31 1.31 0 0 0 .21-.54V8.1a2.12 2.12 0 0 0-.12-.73 1.66 1.66 0 0 0-.37-.6 1.79 1.79 0 0 0-.62-.41 3.23 3.23 0 0 0-.72-.14h-6.18a.12.12 0 0 0-.12.12v9a.12.12 0 0 0 .12.12h3.25a.12.12 0 0 0 .12-.12v-3.56a.12.12 0 0 1 .12-.12h.3a.78.78 0 0 1 .51.12 1 1 0 0 1 .13.38v.24l.17 2.94a.13.13 0 0 0 .13.12h3.25a.11.11 0 0 0 .11-.12l-.15-2.55a4.08 4.08 0 0 0-.09-.89zm-3.33-2.07a.12.12 0 0 1-.12.12h-.91a.12.12 0 0 1-.12-.12V8.05a.12.12 0 0 1 .12-.12h.91a.12.12 0 0 1 .12.12zM55.34 7.62v-.35a.06.06 0 0 0-.06-.06h-.92a.06.06 0 0 0-.06.06v.35h-.62v-.35a.06.06 0 0 0-.06-.06h-.92a.06.06 0 0 0-.06.06v.35h-.27a.06.06 0 0 0-.06.06v7.72a.06.06 0 0 0 .06.06h3.23a.06.06 0 0 0 .06-.06V7.68a.06.06 0 0 0-.06-.06zM56 4.46v-.34A.06.06 0 0 0 56 4l-.9-.18a.06.06 0 0 0-.07 0l-.07.34-.61-.12.07-.34a.06.06 0 0 0 0-.07l-.9-.18a.06.06 0 0 0-.07 0l-.07.34-.26-.05a.06.06 0 0 0-.07 0l-.38 1.87a.06.06 0 0 0 0 .07l3.16.64a.06.06 0 0 0 .07 0l.38-1.87a.06.06 0 0 0 0-.07zm24.74 5.69l-1.9-1.37c-.16-.12-.24-.23-.24-.35s.11-.38.32-.38h2.22c.18 0 .26.07.31-.1s.26-1.32.33-1.55-.14-.19-.25-.19H77.6a2.22 2.22 0 0 0-1.81.89 3 3 0 0 0-.64 1.9 2.59 2.59 0 0 0 1.12 2.2q1.57 1.06 2.38 1.57c.21.15.31.29.31.41s-.11.4-.33.4h-3.27c-.12 0-.21.11-.21.29v1.44a.46.46 0 0 0 .27.11h4.48a2.22 2.22 0 0 0 1.79-.86 2.79 2.79 0 0 0 .67-1.85 3.27 3.27 0 0 0-1.67-2.56z" fill="none"/></clipPath></defs><g data-name="Layer 2"><g data-name="JUNIORS LOGO"><g opacity=".3" style="mix-blend-mode:multiply" fill="#2e2a25"><path d="M27.55 17.74a.84.84 0 0 1-.83-.83l.28-1.73a.83.83 0 0 1 .83-.73h.56V4.73a.84.84 0 0 1 .83-.83h3.28a.84.84 0 0 1 .83.83V6a1.09 1.09 0 0 1 .6-.21h3.28a.83.83 0 0 1 .64.3 1 1 0 0 1 .67-.3h3.3a.84.84 0 0 1 .68.35 1 1 0 0 1 .71-.35h3.59a.89.89 0 0 1 .84.63.93.93 0 0 1 .85-.63h2.74a.84.84 0 0 1 .83.83v.66a1 1 0 0 1 .57-.45 1.15 1.15 0 0 1-.4-.34.76.76 0 0 1-.11-.58L52.51 4a.77.77 0 0 1 .49-.53.8.8 0 0 1 .67-.38h.15l.9.18a.77.77 0 0 1 .33.16h.39l.91.19a.77.77 0 0 1 .61.65l.11.14a.77.77 0 0 1 .11.58l-.32 1.56a3.1 3.1 0 0 1 .86-.55 2.61 2.61 0 0 1 1-.21h4.71a2.61 2.61 0 0 1 1 .21 2.29 2.29 0 0 1 .77.53 2.25 2.25 0 0 1 .35.49v-.39a.84.84 0 0 1 .83-.83h6.3a3.72 3.72 0 0 1 .93.19 2.51 2.51 0 0 1 .85.57 2.37 2.37 0 0 1 .5.77c.11-.12.19-.25.29-.37a2.92 2.92 0 0 1 2.38-1.17h3.88a.92.92 0 0 1 .81.33.85.85 0 0 1 .12.77c0 .08-.11.52-.16.76-.1.5-.14.69-.17.79a.83.83 0 0 1-.8.63H80.2l1 .8a3.94 3.94 0 0 1 2 3.15 3.49 3.49 0 0 1-.83 2.31A2.9 2.9 0 0 1 80 16.41h-4.45a1.06 1.06 0 0 1-.53-.15 1 1 0 0 1-.52.17h-3.25a.84.84 0 0 1-.74-.44.94.94 0 0 1-.77.44h-3.26a.84.84 0 0 1-.83-.83v-.35c-.13.16-.23.31-.35.44a2.19 2.19 0 0 1-.75.53 2.51 2.51 0 0 1-1 .22H58.7a2.25 2.25 0 0 1-1.8-.73 2.35 2.35 0 0 1-.26-.38v.33a.77.77 0 0 1-.77.77H52.6a.77.77 0 0 1-.65-.36 1 1 0 0 1-.72.36H48a.88.88 0 0 1-.84-.62l-.22-.7v.49a.84.84 0 0 1-.83.83h-2.84a.84.84 0 0 1-.83-.83v-.25a.49.49 0 0 0-.15.16 2.15 2.15 0 0 1-.77.66 2.57 2.57 0 0 1-1.22.27h-4.73a2.59 2.59 0 0 1-1.19-.27 2.12 2.12 0 0 1-.77-.65 2.17 2.17 0 0 1-.18-.3 5.35 5.35 0 0 0-.12.64 2.4 2.4 0 0 1-.4.9 2.31 2.31 0 0 1-.84.71 2.84 2.84 0 0 1-1.33.28z"/><path d="M53.73 3.11h.08l.9.18a.75.75 0 0 1 .33.15.74.74 0 0 1 .21 0h.14l.91.18a.75.75 0 0 1 .59.63l.1.12a.74.74 0 0 1 .11.56l-.32 1.56v.16l.11-.12a2.25 2.25 0 0 1 .84-.53 2.58 2.58 0 0 1 1-.21h4.71a2.59 2.59 0 0 1 1 .21 2.26 2.26 0 0 1 .76.52 2.22 2.22 0 0 1 .34.49l.08.15v-.55a.81.81 0 0 1 .81-.81h6.3a3.71 3.71 0 0 1 .92.19 2.5 2.5 0 0 1 .85.56 2.36 2.36 0 0 1 .49.76v.08-.07a3.81 3.81 0 0 1 .38-.32 2.9 2.9 0 0 1 2.37-1.17h4a.81.81 0 0 1 .82 1.08c0 .08-.1.44-.16.76-.09.45-.13.65-.16.76a.81.81 0 0 1-.78.61h-1.39l.11.08 1.06.76a3.92 3.92 0 0 1 2 3.13 3.47 3.47 0 0 1-.83 2.29A2.89 2.89 0 0 1 80 16.39h-4.45a1.05 1.05 0 0 1-.52-.14.81.81 0 0 1-.49.17h-3.29a.82.82 0 0 1-.72-.43v-.07.07a.81.81 0 0 1-.72.43h-3.33a.81.81 0 0 1-.81-.81v-.52l-.08.16a2.09 2.09 0 0 1-.31.45 2.16 2.16 0 0 1-.75.52 2.49 2.49 0 0 1-1 .22H58.7a2.23 2.23 0 0 1-1.78-.73 2.3 2.3 0 0 1-.26-.38l-.08-.14v.49a.75.75 0 0 1-.75.75H52.6a.75.75 0 0 1-.63-.35v-.05.05a.81.81 0 0 1-.67.35H48a.86.86 0 0 1-.82-.6l-.22-.7-.08-.27v.77a.81.81 0 0 1-.81.81h-2.8a.81.81 0 0 1-.81-.81v-.41l-.08.14-.1.17a2.12 2.12 0 0 1-.76.65 2.55 2.55 0 0 1-1.21.27h-4.74a2.58 2.58 0 0 1-1.18-.27 2.1 2.1 0 0 1-.77-.64 2.17 2.17 0 0 1-.18-.3l-.07-.14v.16a4.71 4.71 0 0 1-.08.62 2.38 2.38 0 0 1-.39.89 2.3 2.3 0 0 1-.84.7 2.84 2.84 0 0 1-1.32.27h-3.19a.81.81 0 0 1-.81-.81v-.06l.32-1.67a.8.8 0 0 1 .81-.71h.6V4.73a.81.81 0 0 1 .81-.81h3.28a.81.81 0 0 1 .81.81v1.35l.07-.08a.81.81 0 0 1 .56-.2h3.28a.81.81 0 0 1 .62.29.81.81 0 0 1 .62-.29h3.3a.82.82 0 0 1 .66.34.82.82 0 0 1 .66-.34h3.66a.87.87 0 0 1 .82.62v.16-.16a.81.81 0 0 1 .79-.62h2.74a.81.81 0 0 1 .81.81v.91l.08-.23a.79.79 0 0 1 .51-.44h.12-.12a.74.74 0 0 1-.49-.86L52.53 4a.74.74 0 0 1 .47-.51.76.76 0 0 1 .64-.36h.07m2.7 4.39v-.18l-.09.05.05.06m-2.63-4.38h-.07a.8.8 0 0 0-.68.38.79.79 0 0 0-.5.58l-.38 1.87a.79.79 0 0 0 .52.91.84.84 0 0 0-.54.47v-.67a.86.86 0 0 0-.86-.86h-2.74a.86.86 0 0 0-.83.65.91.91 0 0 0-.86-.65h-3.53a.85.85 0 0 0-.69.36.85.85 0 0 0-.69-.36h-3.3a.85.85 0 0 0-.66.31.85.85 0 0 0-.66-.31H34a.85.85 0 0 0-.58.23V4.73a.86.86 0 0 0-.86-.86h-3.28a.86.86 0 0 0-.86.86v9.7h-.56a.85.85 0 0 0-.85.75l-.32 1.67v.07a.86.86 0 0 0 .86.86h3.18a2.88 2.88 0 0 0 1.34-.28 2.35 2.35 0 0 0 .85-.72 2.43 2.43 0 0 0 .4-.91 4.77 4.77 0 0 0 .08-.63 2.21 2.21 0 0 0 .18.3 2.14 2.14 0 0 0 .78.65 2.62 2.62 0 0 0 1.2.28h4.74a2.59 2.59 0 0 0 1.23-.27 2.16 2.16 0 0 0 .77-.67l.11-.17v.25a.86.86 0 0 0 .86.86H46a.86.86 0 0 0 .86-.86v-.48l.22.7a.91.91 0 0 0 .86.63h3.28a.85.85 0 0 0 .7-.37.79.79 0 0 0 .67.37h3.22a.79.79 0 0 0 .79-.79v-.32a2.33 2.33 0 0 0 .27.39 2.27 2.27 0 0 0 1.81.74h4.82a2.54 2.54 0 0 0 1-.23 2.2 2.2 0 0 0 .76-.53 2.12 2.12 0 0 0 .31-.46v.35a.86.86 0 0 0 .86.86h3.25a.86.86 0 0 0 .75-.45.86.86 0 0 0 .76.45h3.31a.85.85 0 0 0 .51-.17 1.1 1.1 0 0 0 .54.15H80a2.93 2.93 0 0 0 2.35-1.12 3.51 3.51 0 0 0 .88-2.33 4 4 0 0 0-2-3.17l-1.03-.77h1.21a.85.85 0 0 0 .82-.64c0-.1.07-.29.16-.76 0-.23.14-.7.17-.79a.86.86 0 0 0-.86-1.13h-4a2.94 2.94 0 0 0-2.4 1.18 3.9 3.9 0 0 0-.25.37 2.4 2.4 0 0 0-.5-.77 2.55 2.55 0 0 0-.83-.52 3.72 3.72 0 0 0-.93-.19h-6.3a.86.86 0 0 0-.86.86V7a2.25 2.25 0 0 0-.35-.49A2.3 2.3 0 0 0 64.5 6a2.63 2.63 0 0 0-1-.21h-4.75a2.62 2.62 0 0 0-1 .21 2.29 2.29 0 0 0-.78.53l-.05.06L57.2 5a.78.78 0 0 0-.12-.6L57 4.27a.8.8 0 0 0-.63-.67l-.91-.18h-.15a.78.78 0 0 0-.22 0 .79.79 0 0 0-.34-.16l-.9-.18h-.08zm2.67 4.35z"/></g><path d="M27.32 17.52a.84.84 0 0 1-.83-.83l.32-1.69a.83.83 0 0 1 .83-.73h.56V4.55a.84.84 0 0 1 .83-.83h3.28a.84.84 0 0 1 .83.83v1.2a1.09 1.09 0 0 1 .6-.21H37a.83.83 0 0 1 .64.3 1 1 0 0 1 .67-.3h3.3a.84.84 0 0 1 .68.35 1 1 0 0 1 .71-.34h3.53a.89.89 0 0 1 .84.63.93.93 0 0 1 .85-.63H51a.84.84 0 0 1 .83.83V7a1 1 0 0 1 .57-.45 1.15 1.15 0 0 1-.4-.34.76.76 0 0 1-.11-.58l.38-1.86a.77.77 0 0 1 .48-.57.8.8 0 0 1 .67-.38h.15l.9.18a.77.77 0 0 1 .33.16h.39l.91.19a.77.77 0 0 1 .61.65l.11.14a.77.77 0 0 1 .11.58l-.32 1.56a3.1 3.1 0 0 1 .86-.57 2.61 2.61 0 0 1 1-.21h4.71a2.61 2.61 0 0 1 1 .21 2.29 2.29 0 0 1 .77.53 2.25 2.25 0 0 1 .35.49v-.39a.84.84 0 0 1 .83-.83h6.3a3.72 3.72 0 0 1 .93.19 2.51 2.51 0 0 1 .85.57 2.37 2.37 0 0 1 .5.77c.11-.12.19-.25.29-.37a2.92 2.92 0 0 1 2.38-1.17h3.88a.92.92 0 0 1 .81.33.85.85 0 0 1 .12.77c0 .08-.11.52-.16.76-.1.5-.14.69-.17.79a.83.83 0 0 1-.8.63H80l1 .8a3.94 3.94 0 0 1 2 3.15 3.49 3.49 0 0 1-.83 2.31 2.9 2.9 0 0 1-2.33 1.12h-4.51a1.06 1.06 0 0 1-.53-.16 1 1 0 0 1-.52.17H71a.84.84 0 0 1-.74-.44.94.94 0 0 1-.77.44h-3.23a.84.84 0 0 1-.83-.83V15c-.13.16-.23.31-.35.44a2.19 2.19 0 0 1-.75.53 2.51 2.51 0 0 1-1 .22h-4.86a2.25 2.25 0 0 1-1.8-.73 2.35 2.35 0 0 1-.26-.38v.33a.77.77 0 0 1-.77.77h-3.27a.77.77 0 0 1-.65-.36 1 1 0 0 1-.72.36h-3.27a.88.88 0 0 1-.84-.62l-.22-.7v.49a.84.84 0 0 1-.83.83H43a.84.84 0 0 1-.83-.83v-.25a.49.49 0 0 0-.15.16 2.15 2.15 0 0 1-.77.66 2.57 2.57 0 0 1-1.22.27h-4.69a2.59 2.59 0 0 1-1.19-.27 2.12 2.12 0 0 1-.77-.65 2.17 2.17 0 0 1-.18-.3 5.35 5.35 0 0 0-.12.64 2.4 2.4 0 0 1-.4.9 2.31 2.31 0 0 1-.84.71 2.84 2.84 0 0 1-1.33.28z" fill="#2e2a25"/><path d="M53.51 2.88h.08l.9.18a.75.75 0 0 1 .33.15.74.74 0 0 1 .21 0h.14l.91.18a.75.75 0 0 1 .59.63l.1.12a.74.74 0 0 1 .11.56l-.32 1.56v.16l.11-.12a2.25 2.25 0 0 1 .76-.52 2.58 2.58 0 0 1 1-.21h4.71a2.59 2.59 0 0 1 1 .21 2.26 2.26 0 0 1 .86.52 2.22 2.22 0 0 1 .34.49l.08.15v-.56a.81.81 0 0 1 .81-.81h6.3a3.71 3.71 0 0 1 .92.19 2.5 2.5 0 0 1 .85.56 2.36 2.36 0 0 1 .49.76v.08-.07a3.81 3.81 0 0 1 .25-.37 2.9 2.9 0 0 1 2.37-1.17h4a.81.81 0 0 1 .82 1.08c0 .08-.1.44-.16.76-.09.45-.13.65-.16.76a.81.81 0 0 1-.78.61h-1.29l.11.08 1.05.79a3.92 3.92 0 0 1 2 3.13 3.47 3.47 0 0 1-.83 2.29 2.89 2.89 0 0 1-2.32 1.11h-4.52a1.05 1.05 0 0 1-.52-.14.81.81 0 0 1-.49.17H71a.82.82 0 0 1-.72-.43v-.07.07a.81.81 0 0 1-.72.43h-3.3a.81.81 0 0 1-.81-.81v-.52l-.08.16a2.09 2.09 0 0 1-.31.45 2.16 2.16 0 0 1-.75.52 2.49 2.49 0 0 1-1 .22h-4.84a2.23 2.23 0 0 1-1.78-.73 2.3 2.3 0 0 1-.26-.38l-.08-.1v.49a.75.75 0 0 1-.75.75h-3.23a.75.75 0 0 1-.63-.35v-.05.05a.81.81 0 0 1-.67.35h-3.34a.86.86 0 0 1-.82-.6l-.22-.7-.08-.27v.77a.81.81 0 0 1-.81.81H43a.81.81 0 0 1-.81-.81V15l-.08.14-.1.17a2.12 2.12 0 0 1-.76.65 2.55 2.55 0 0 1-1.21.27h-4.7a2.58 2.58 0 0 1-1.18-.27 2.1 2.1 0 0 1-.77-.64 2.17 2.17 0 0 1-.18-.3l-.07-.14V15a4.71 4.71 0 0 1-.08.62 2.38 2.38 0 0 1-.39.89 2.3 2.3 0 0 1-.84.7 2.84 2.84 0 0 1-1.32.27h-3.19a.81.81 0 0 1-.81-.81v-.06l.32-1.61a.8.8 0 0 1 .81-.71h.6V4.5a.81.81 0 0 1 .81-.81h3.28a.81.81 0 0 1 .81.81v1.35l.07-.07a.81.81 0 0 1 .55-.22H37a.81.81 0 0 1 .62.29.81.81 0 0 1 .62-.29h3.3a.82.82 0 0 1 .66.34.82.82 0 0 1 .8-.33h3.53a.87.87 0 0 1 .82.62v.16-.16a.81.81 0 0 1 .79-.62H51a.81.81 0 0 1 .81.81v.91l.08-.23a.79.79 0 0 1 .51-.44h.12-.12a.74.74 0 0 1-.49-.86l.38-1.86a.74.74 0 0 1 .47-.55.76.76 0 0 1 .64-.36h.07m2.7 4.39V7.2l-.09.05.05.06m-2.62-4.47h-.07a.8.8 0 0 0-.68.38.79.79 0 0 0-.5.58l-.38 1.86a.79.79 0 0 0 .52.91.84.84 0 0 0-.54.47v-.66a.86.86 0 0 0-.86-.85h-2.73a.86.86 0 0 0-.83.65.91.91 0 0 0-.86-.65H43a.85.85 0 0 0-.69.36.85.85 0 0 0-.69-.36h-3.3a.85.85 0 0 0-.66.31.85.85 0 0 0-.66-.31h-3.24a.85.85 0 0 0-.58.23V4.5a.86.86 0 0 0-.86-.86h-3.27a.86.86 0 0 0-.86.86v9.7h-.56a.85.85 0 0 0-.85.75l-.32 1.67v.07a.86.86 0 0 0 .86.86h3.18a2.88 2.88 0 0 0 1.34-.28 2.35 2.35 0 0 0 .85-.72 2.43 2.43 0 0 0 .4-.91 4.77 4.77 0 0 0 .08-.63 2.21 2.21 0 0 0 .18.3 2.14 2.14 0 0 0 .78.65 2.62 2.62 0 0 0 1.2.28h4.74a2.59 2.59 0 0 0 1.24-.24 2.16 2.16 0 0 0 .77-.67l.11-.17v.25a.86.86 0 0 0 .86.86h2.75a.86.86 0 0 0 .86-.86v-.51l.22.7a.91.91 0 0 0 .86.63H51a.85.85 0 0 0 .7-.37.79.79 0 0 0 .67.37h3.23a.79.79 0 0 0 .79-.79v-.32a2.33 2.33 0 0 0 .27.39 2.27 2.27 0 0 0 1.81.74h4.82a2.54 2.54 0 0 0 1-.23 2.2 2.2 0 0 0 .76-.53 2.12 2.12 0 0 0 .35-.49v.35a.86.86 0 0 0 .86.86h3.25a.86.86 0 0 0 .75-.45.86.86 0 0 0 .76.45h3.25a.85.85 0 0 0 .51-.17 1.1 1.1 0 0 0 .54.15h4.48a2.93 2.93 0 0 0 2.35-1.12 3.51 3.51 0 0 0 .85-2.31 4 4 0 0 0-2-3.16l-1-.77h1.21a.85.85 0 0 0 .79-.62c0-.1.07-.29.16-.76 0-.23.14-.7.17-.79a.86.86 0 0 0-.86-1.13h-4a2.94 2.94 0 0 0-2.4 1.18 3.9 3.9 0 0 0-.25.37 2.4 2.4 0 0 0-.5-.77 2.55 2.55 0 0 0-.86-.57 3.72 3.72 0 0 0-.93-.19h-6.3a.86.86 0 0 0-.86.86v.38a2.25 2.25 0 0 0-.35-.49 2.3 2.3 0 0 0-.78-.53 2.63 2.63 0 0 0-1-.21h-4.72a2.62 2.62 0 0 0-1 .21 2.29 2.29 0 0 0-.78.53l-.05.06.31-1.59a.78.78 0 0 0-.12-.6L56.75 4a.8.8 0 0 0-.63-.67l-.91-.18h-.15a.78.78 0 0 0-.22 0A.79.79 0 0 0 54.5 3l-.9-.18h-.08zm2.67 4.35z" fill="#2e2a25"/><path d="M32.34 4.33h-3.28a.12.12 0 0 0-.12.12v10.32a.12.12 0 0 1-.12.12h-1.17a.12.12 0 0 0-.12.12l-.32 1.63a.12.12 0 0 0 .12.12h3.18a2.2 2.2 0 0 0 1-.2 1.62 1.62 0 0 0 .59-.49 1.68 1.68 0 0 0 .28-.63 4.18 4.18 0 0 0 .07-.52V4.46a.12.12 0 0 0-.11-.13zm9.33 1.88h-3.3a.12.12 0 0 0-.12.12v7.13a.12.12 0 0 1-.12.12h-.83a.12.12 0 0 1-.12-.12V6.34a.12.12 0 0 0-.18-.12h-3.23a.12.12 0 0 0-.12.12v7.31a3 3 0 0 0 .07.62 1.47 1.47 0 0 0 .25.56 1.42 1.42 0 0 0 .52.43 1.9 1.9 0 0 0 .87.2h4.74a1.89 1.89 0 0 0 .88-.19 1.44 1.44 0 0 0 .52-.44 1.46 1.46 0 0 0 .24-.56 4 4 0 0 0 .05-.45V6.34a.12.12 0 0 0-.12-.12zm9.39 0h-2.74a.12.12 0 0 0-.12.12v4.37c0 .07 0 .12-.06.12s-.08-.05-.1-.12l-1.27-4.36a.17.17 0 0 0-.15-.12h-3.53a.12.12 0 0 0-.12.12v9a.12.12 0 0 0 .12.12h2.75a.12.12 0 0 0 .12-.12v-4.93c0-.07 0-.12.05-.12s.07.05.09.12l1.51 4.94a.17.17 0 0 0 .16.12h3.28a.12.12 0 0 0 .12-.12v-9a.12.12 0 0 0-.11-.13zm13.51.51a1.56 1.56 0 0 0-.57-.35 1.89 1.89 0 0 0-.75-.15h-4.68a1.89 1.89 0 0 0-.75.15 1.55 1.55 0 0 0-.53.36 1.47 1.47 0 0 0-.31.5 2.2 2.2 0 0 0-.09.47v6.14a1.69 1.69 0 0 0 .37 1.16 1.58 1.58 0 0 0 1.26.48h4.82a1.84 1.84 0 0 0 .75-.16 1.48 1.48 0 0 0 .51-.35 1.43 1.43 0 0 0 .29-.5A2.46 2.46 0 0 0 65 14V7.83a1.7 1.7 0 0 0-.1-.6 1.5 1.5 0 0 0-.33-.5zm-3.09 6.74a.12.12 0 0 1-.12.12h-.86a.12.12 0 0 1-.12-.12V8.22a.12.12 0 0 1 .12-.12h.86a.12.12 0 0 1 .12.12zm12.64-1.56a1.48 1.48 0 0 0-.28-.56 1.14 1.14 0 0 0-.48-.33 3.15 3.15 0 0 0-.71-.16 2.9 2.9 0 0 0 .91-.27 1.42 1.42 0 0 0 .51-.43 1.31 1.31 0 0 0 .21-.54V8.1a2.12 2.12 0 0 0-.12-.73 1.66 1.66 0 0 0-.37-.6 1.79 1.79 0 0 0-.62-.41 3.23 3.23 0 0 0-.72-.14h-6.18a.12.12 0 0 0-.12.12v9a.12.12 0 0 0 .12.12h3.25a.12.12 0 0 0 .12-.12v-3.56a.12.12 0 0 1 .12-.12h.3a.78.78 0 0 1 .51.12 1 1 0 0 1 .13.38v.24l.17 2.94a.13.13 0 0 0 .13.12h3.25a.11.11 0 0 0 .11-.12l-.15-2.55a4.08 4.08 0 0 0-.09-.89zm-3.33-2.07a.12.12 0 0 1-.12.12h-.91a.12.12 0 0 1-.12-.12V8.05a.12.12 0 0 1 .12-.12h.91a.12.12 0 0 1 .12.12zM55.34 7.62v-.35a.06.06 0 0 0-.06-.06h-.92a.06.06 0 0 0-.06.06v.35h-.62v-.35a.06.06 0 0 0-.06-.06h-.92a.06.06 0 0 0-.06.06v.35h-.27a.06.06 0 0 0-.06.06v7.72a.06.06 0 0 0 .06.06h3.23a.06.06 0 0 0 .06-.06V7.68a.06.06 0 0 0-.06-.06zM56 4.46v-.34A.06.06 0 0 0 56 4l-.9-.18a.06.06 0 0 0-.07 0l-.07.34-.61-.12.07-.34a.06.06 0 0 0 0-.07l-.9-.18a.06.06 0 0 0-.07 0l-.07.34-.26-.05a.06.06 0 0 0-.07 0l-.38 1.87a.06.06 0 0 0 0 .07l3.16.64a.06.06 0 0 0 .07 0l.38-1.87a.06.06 0 0 0 0-.07zm24.74 5.69l-1.9-1.37c-.16-.12-.24-.23-.24-.35s.11-.38.32-.38h2.22c.18 0 .26.07.31-.1s.26-1.32.33-1.55-.14-.19-.25-.19H77.6a2.22 2.22 0 0 0-1.81.89 3 3 0 0 0-.64 1.9 2.59 2.59 0 0 0 1.12 2.2q1.57 1.06 2.38 1.57c.21.15.31.29.31.41s-.11.4-.33.4h-3.27c-.12 0-.21.11-.21.29v1.44a.46.46 0 0 0 .27.11h4.48a2.22 2.22 0 0 0 1.79-.86 2.79 2.79 0 0 0 .67-1.85 3.27 3.27 0 0 0-1.67-2.56z" fill="#57c9e8"/><g clip-path="url(#a)"><path d="M32.09 4.09h-3.27a.12.12 0 0 0-.12.12v10.31a.12.12 0 0 1-.12.12H27.4a.12.12 0 0 0-.12.12l-.33 2c0 .07.56-.29.62-.29h2.69a2.21 2.21 0 0 0 1-.2 1.62 1.62 0 0 0 .59-.49 1.69 1.69 0 0 0 .28-.63 4.22 4.22 0 0 0 .07-.52V4.64c.01-.07.73-.57-.11-.55zm5.9 2v7.13a.12.12 0 0 1-.12.12l-.59.24c-.07 0-.37.14-.37.07V6.53c0-.07.59-.53.52-.53h-3.9a.12.12 0 0 0-.12.12v7.31a3 3 0 0 0 .07.62 1.48 1.48 0 0 0 .25.56 1.4 1.4 0 0 0 .52.43 1.9 1.9 0 0 0 .87.2h4.74a1.88 1.88 0 0 0 .88-.19 1.43 1.43 0 0 0 .52-.44 1.46 1.46 0 0 0 .24-.56 3.86 3.86 0 0 0 .05-.45V6.53c0-.07.41-.38.35-.38L38.12 6a.12.12 0 0 0-.12.09zm10 0l.24 4.61a.33.33 0 0 1-.08.18c-.09.09-.23.15-.25.08l-1.33-4.4c0-.06.44-.51.37-.51L42.85 6a.12.12 0 0 0-.12.12v9.63c0 .07.5-.52.56-.52h2.31a.12.12 0 0 0 .12-.12v-5c0-.07 0-.12.05-.12s.23.28.25.34l1.43 5.4c0 .06.34-.47.4-.47h3a.12.12 0 0 0 .12-.12V6.58c0-.07.44-.59.37-.59L48.07 6a.12.12 0 0 0-.12.09zm16.37.39a1.56 1.56 0 0 0-.53-.36A1.9 1.9 0 0 0 63 6h-4.67a1.9 1.9 0 0 0-.75.15 1.56 1.56 0 0 0-.53.36 1.49 1.49 0 0 0-.31.5 2.22 2.22 0 0 0-.09.47v6.14a1.69 1.69 0 0 0 .35 1.12 1.58 1.58 0 0 0 1.26.48h4.82a1.83 1.83 0 0 0 .75-.16 1.48 1.48 0 0 0 .51-.35 1.43 1.43 0 0 0 .29-.5 2.46 2.46 0 0 0 .09-.48V7.58a1.7 1.7 0 0 0-.1-.6 1.49 1.49 0 0 0-.3-.5zM61.4 8.2l-.17 5a.12.12 0 0 1-.12.12l-.61.24c-.07 0-.37.21-.37.15V8a.12.12 0 0 1 .12-.12h1.35c.07-.02-.2.25-.2.32zm9.11 3.58zm3.36-.12a1.47 1.47 0 0 0-.28-.56 1.34 1.34 0 0 0-.84-.25c-.25 0 .34-.4.57-.52a1.41 1.41 0 0 0 .51-.43 1.3 1.3 0 0 0 .17-.54v-1.5a2.12 2.12 0 0 0 0-.73 1.67 1.67 0 0 0-.37-.6 1.8 1.8 0 0 0-.63-.41 3.22 3.22 0 0 0-.74-.12H66a.12.12 0 0 0-.12.12v9.49c0 .07.54-.37.61-.37h2.76a.12.12 0 0 0 .12-.12v-3.58a.12.12 0 0 1 .12-.12h.3c.26 0 .79.29.7.36s0 .31 0 .38l.16 3.43c0 .07.56-.37.62-.37H74a.11.11 0 0 0 .11-.12L74 12.54a4 4 0 0 0-.12-.88zM70.76 8l-.22 1.58a.12.12 0 0 1-.12.12l-.71.2c-.07 0-.32.29-.32.22V7.81a.12.12 0 0 1 .12-.12h1.4c.09 0-.15.25-.15.31zm-16.7-1l-.29.59h-.33v-.3s.46-.29.43-.29h-1.41a.06.06 0 0 0-.06.06v.35h-.27a.06.06 0 0 0-.06.06v8.29s.52-.51.55-.51h2.73a.09.09 0 0 0 .06 0v-7.4c0-.2 0-.13-.06-.13h-.25v-.35a5.36 5.36 0 0 0 .43-.4h-1.41a.06.06 0 0 0-.06.03zm2.28-3l-1.51-.4a.06.06 0 0 0-.07 0l-.31.45-.39-.05.05-.25s.64-.08.61-.09l-1.51-.4a.06.06 0 0 0-.07 0l-.07.34-.26-.05a.06.06 0 0 0-.07 0l-.34 2.39s.46-.28.49-.27l2.67.57a.06.06 0 0 0 .07 0L56 4.43h-.06l-.27-.07.05-.28s.66-.08.63-.08zm24 6l-1.9-1.37q-.25-.18-.25-.35a.47.47 0 0 1 .42-.48h2.22c.18 0 .26.07.31-.1s.18-.93.25-1.15S82.16 6 82 6h-4.65a2.21 2.21 0 0 0-1.81.89 3 3 0 0 0-.63 1.9A2.42 2.42 0 0 0 76 10.87c1 .71 2.09 1.43 2.62 1.77a.83.83 0 0 1 .31.56c0 .26-.35.15-.57.15h-3.24c-.12 0-.21.11-.21.29s.06 1.87.06 2 .46-.4.6-.4h4.09a2.22 2.22 0 0 0 1.79-.86 2.46 2.46 0 0 0 .55-1.8A3.27 3.27 0 0 0 80.35 10z" fill="#fff"/></g></g><g data-name="LEGO LOGO"><path d="M.15.15v21.77h21.77V.15z" fill="#fff"/><path d="M18.21 6a3.76 3.76 0 0 0-2.36.74A3.5 3.5 0 0 0 13.41 6a4.23 4.23 0 0 0-2.15.53A2.85 2.85 0 0 0 9.45 6a4.13 4.13 0 0 0-2.58.65C6.59 6.22 6.08 6 5.23 6a2.66 2.66 0 0 0-2.36 1.39c-.62 1-2.15 4.23-2.11 6a2.39 2.39 0 0 0 2.53 2.35h.13a3.72 3.72 0 0 0 2-.5 3.27 3.27 0 0 0 1.84.52 4 4 0 0 0 2.17-.59 3.24 3.24 0 0 0 1.95.59 4.08 4.08 0 0 0 2.62-.89 3.17 3.17 0 0 0 2.43.92c2.2 0 3.22-1.53 3.87-2.86a12.54 12.54 0 0 0 .92-2.93 3.69 3.69 0 0 0-.44-2.89A3 3 0 0 0 18.21 6zM20 11.28c-.74 2.28-1.62 3.72-3.68 3.72a2.06 2.06 0 0 1-2.07-1.24l-.09-.26-.17.21A3.35 3.35 0 0 1 11.36 15a2.24 2.24 0 0 1-1.82-.76l-.11-.14-.12.13a2.79 2.79 0 0 1-2.08.77 2.26 2.26 0 0 1-1.69-.67l-.11-.12-.11.11a2.66 2.66 0 0 1-2 .65 1.57 1.57 0 0 1-1.72-1.58c0-1.49 1.41-4.61 2-5.56a1.79 1.79 0 0 1 1.62-.94 1.34 1.34 0 0 1 1 .31.94.94 0 0 1 .23.73v.49L6.73 8a2.86 2.86 0 0 1 2.72-1.18 1.88 1.88 0 0 1 1.6.68l.09.15.13-.11a3.26 3.26 0 0 1 2.12-.7 2.52 2.52 0 0 1 2 .67 1.26 1.26 0 0 1 .23.35l.1.21.15-.18a2.93 2.93 0 0 1 2.35-1 2.31 2.31 0 0 1 1.75.61 2.33 2.33 0 0 1 .53 1.74 8.73 8.73 0 0 1-.5 2.04z" fill="gold"/><path d="M.15.15v21.77h21.77V.15zM21.08 10a12.44 12.44 0 0 1-.92 2.85c-.76 1.57-1.78 2.78-3.75 2.78a3 3 0 0 1-2.42-1 4 4 0 0 1-2.64 1A3.08 3.08 0 0 1 9.42 15a3.77 3.77 0 0 1-2.17.62 3.11 3.11 0 0 1-1.84-.55 3.63 3.63 0 0 1-2.11.53 2.27 2.27 0 0 1-2.41-2.18c0-1.72 1.41-4.87 2.09-6a2.54 2.54 0 0 1 2.25-1.25c1 0 1.41.3 1.6.67a3.92 3.92 0 0 1 2.62-.72 2.68 2.68 0 0 1 1.8.58 4.08 4.08 0 0 1 2.16-.56 3.29 3.29 0 0 1 2.43.8 3.61 3.61 0 0 1 2.37-.79 2.84 2.84 0 0 1 2.46 1.08 3.59 3.59 0 0 1 .41 2.77z" fill="#e2231a"/><path d="M0 0v22.06h22.06V0zm21.76.3v21.46H.3V.3z" fill="#2e2a25"/><path d="M21 6.62v-.15h.1c.07 0 .11 0 .11.07s0 .08-.1.08zm.37.31l-.06-.11c-.06-.1-.07-.11-.12-.13a.15.15 0 0 0 .15-.15c0-.09-.06-.15-.17-.15h-.27v.55h.1v-.23a.11.11 0 0 1 .09 0 .5.5 0 0 1 .07.11v.09zm-.27-.7a.42.42 0 1 1-.42.42.43.43 0 0 1 .39-.42zm0-.1a.53.53 0 1 0 .53.53.53.53 0 0 0-.56-.53zm-2.9.56a3.07 3.07 0 0 0-2.46 1.08 1.4 1.4 0 0 0-.25-.38 2.65 2.65 0 0 0-2.08-.72 3.39 3.39 0 0 0-2.22.74 2 2 0 0 0-1.73-.75 3 3 0 0 0-2.85 1.23 1.09 1.09 0 0 0-.27-.83 1.51 1.51 0 0 0-1.12-.36 1.93 1.93 0 0 0-1.75 1c-.6 1-2.06 4.12-2 5.65a1.72 1.72 0 0 0 1.84 1.75 2.8 2.8 0 0 0 2.12-.69 2.4 2.4 0 0 0 1.81.71 3 3 0 0 0 2.19-.81 2.39 2.39 0 0 0 1.94.82 3.5 3.5 0 0 0 2.74-1.35 2.17 2.17 0 0 0 2.22 1.34c2.13 0 3.07-1.47 3.85-3.79a8.88 8.88 0 0 0 .45-2.13 2.18 2.18 0 0 0-2.43-2.51zM4 12.53c1.1-.19 1.38.21 1.35.58-.1 1.11-1.12 1.35-2 1.33-.64 0-1.21-.31-1.23-1.05 0-1.3 1.3-4.3 1.92-5.3a1.29 1.29 0 0 1 1.2-.71c.53 0 .66.27.65.6-.03.87-1.43 3.52-1.89 4.55zm3.6-1c-.07.2-.21.61-.32 1.05a3.6 3.6 0 0 1 1.1-.14c.53 0 .87.23.87.67 0 1.06-1.18 1.38-2 1.38A1.52 1.52 0 0 1 5.57 13a10.78 10.78 0 0 1 1.21-4 2.48 2.48 0 0 1 2.7-1.69c.55 0 1.19.24 1.19.76 0 .73-.61 1-1.22 1a8.59 8.59 0 0 1-.9 0 5.11 5.11 0 0 0-.42.86c1.13-.16 1.61.1 1.42.75-.26.94-1.02 1-1.96.83zm5.55-2.74a.8.8 0 0 0-.65.4 11.61 11.61 0 0 0-1.15 3.06c-.08.52.15.62.39.62s.83-.42 1-1.1c0 0-.75 0-.54-.68s.58-.78 1.21-.81c1.24-.05 1.12.86 1 1.35a3.25 3.25 0 0 1-3 2.86 1.59 1.59 0 0 1-1.77-1.72A8.61 8.61 0 0 1 10.3 10c.66-1.55 1.36-2.64 3.14-2.64 1.06 0 1.9.38 1.78 1.38a1.19 1.19 0 0 1-1.12 1.21c-.19 0-.95 0-.7-.73.08-.22.12-.46-.25-.46zm6.7 1.31a10.71 10.71 0 0 1-1.07 2.86 2.52 2.52 0 0 1-2.45 1.52c-.79 0-1.69-.3-1.69-1.52a9.15 9.15 0 0 1 .7-2.93c.56-1.47 1.13-2.67 2.94-2.65 2.11 0 1.72 1.88 1.57 2.69zm-1.79-1.31a.5.5 0 0 0-.48.25 13.08 13.08 0 0 0-1.24 3.47.32.32 0 0 0 .33.34c.26 0 .4-.18.53-.39a14.8 14.8 0 0 0 1.14-3.32c.01-.14-.02-.34-.28-.35z" fill="#2e2a25"/></g></g></svg><svg viewBox="-1 -1 234.38 131.2" width="234.38" height="131.2" x="284" xmlns="http://www.w3.org/2000/svg"><g data-name="Layer 2"><g data-name="Layer 1" stroke="#464647" stroke-miterlimit="10" stroke-width=".2"><path fill="#8d8d8f" d="M100.38 43.89l-19-20.76-30.85-7.63 7.15 20.74 16.02 7.92 12.13 17.8 1.75 20.49-7.14 16.85 8.22 4.59 5.93 19.28 8.89-19.69 4.05-33.3-7.15-26.29z"/><path fill="#cacacc" d="M80.44 99.3l-7.58-4.22L71 94.04l-7.54-.9v2.79L34.89 99.3l-22.24-2.42v-3.77l-1.62.12-7 9.85-3.91 20.09 18.06 5.26 49.45.67 26.96-5.93-5.93-19.28-8.22-4.59z"/><path fill="#8d8d8f" d="M51.66 86.75l-22 .52-17.01-3.07v12.68l22.24 2.42 28.57-3.37V82.85l-11.8 3.9z"/><path fill="#cacacc" d="M50.53 15.5h0l-.09-.27-3.41-9.87H30.71l-3.4 9.87-7.24 21.01-2.13 33.1H59.8l-1.94-30.27-.18-2.83-7.15-20.74z"/><path fill="#4c4c4c" d="M59.97 71.97h1.24v-2.63H16.54v2.63h43.43zm25.86-10.01L73.7 44.16l-16.02-7.92.18 2.83 14.36 9.4 7.29 17.26V81.1l-6.65 13.98 7.58 4.22 7.14-16.85-1.75-20.49zM20.2 82.05l-7.55 2.15 17.01 3.07 22-.52 11.8-3.9-26.01-2.02-17.25 1.22zM47.03 5.36L50.54.1H27.21l3.5 5.26h16.32z"/><path fill="none" d="M215.94 105.78h-.13l-3.9 4.11h-7.81l-3.9-4.11h-.13V56.36h-11.59v49.42h-.13l-3.9 4.11h-7.8l-3.91-4.11h-.12V56.36h-11.6v49.42h-.12l-3.91 4.11h-7.8l-3.91-4.11h-.12V56.36h-15.31v59.83h94.44V56.36h-8.35v49.42z"/><path fill="#4c4c4c" d="M129.85 116.19l-7.83 7.07h102.27v-7.07h-94.44zm70.22-66.22v.76l15.87.25v-1.01h1.55v-.69h-18.97v.69h1.55zm-27.45 0v.76l15.76.25.1.05v-1.06h1.55v-.69h-18.97v.69h1.56zm-27.46 0v.76l15.86.25v-1.01h1.55v-.69h-18.96v.69h1.55z"/><path fill="#8d8d8f" d="M224.29 56.36v66.9l7.83-7.07V49.28l-7.83 7.08zm-24.22-11.81h-1.55v4.73h18.97v-4.73h-17.42zm0 61.23h.13l3.9 4.11h7.8l3.9-4.11h.13V56.36h-15.86zm1.42-23h13v22.35l-3.22 3.39h-6.59l-3.22-3.39zm-1.42-29.79l3.75 2.32h8.38l3.74-2.32v-2.01l-15.87-.25v2.26zm-27.45-8.44h-1.56v4.73h18.97v-4.73h-17.41zm0 61.23h.13l3.9 4.11h7.81l3.9-4.11h.13V56.36h-15.87zM174 68.63h13v36.45l-3.22 3.39h-6.59l-3.19-3.39zm-1.38-17.9v2.33l3.64 2.25h8.38l3.84-2.38v-1.9l-.1-.05-15.76-.25zm-27.46-6.18h-1.55v4.73h18.96v-4.73h-17.41zm0 61.23h.13l3.9 4.11H157l3.9-4.11h.1V56.36h-15.84zm1.42-30.07h13v29.37l-3.22 3.39h-6.59l-3.22-3.39zm-1.42-22.72l3.74 2.32h8.38l3.74-2.32v-2.01l-15.86-.25v2.26zm-23.14 70.27l7.83-7.07V56.36h-7.83v66.9z"/><path fill="#cacacc" d="M217.49 49.28v.69h-1.55v1.01l.59.25v1.4l-.59.36-3.74 2.32h-8.38l-3.75-2.32-.58-.36v-1.4l.58-.5v-.76h-1.55v-.69h-8.49v.69h-1.55v1.06l.49.2v1.4l-.49.3-3.84 2.38h-8.38l-3.64-2.25-.69-.43v-1.4l.58-.5h.11v-.76h-1.56v-.69h-8.49v.69h-1.55v1.01l.59.25v1.4l-.59.36-3.74 2.32h-8.38l-3.74-2.32-.59-.36v-1.4l.59-.5v-.76h-1.55v-.69h-13.76l-7.83 7.08h102.27l7.83-7.08h-14.63zm-16 55.8l3.22 3.39h6.59l3.23-3.39V82.73h-13.04v22.35zm-27.46 0l3.22 3.39h6.59l3.23-3.39V68.63h-13.04v36.45zm-27.46 0l3.22 3.39h6.59l3.23-3.39V75.71h-13.04v29.37z"/></g></g></svg><svg viewBox="-1 -1 284 573" width="284" height="573" xmlns="http://www.w3.org/2000/svg"><g data-name="Layer 2"><path d="M281.28 328.79l.09-4.59-1.07-37.1.27-153.35-.14-15.75-.17-15.73L282 86.41l-.72-15.75.3-15.82L280 39.1l.1-15.72-4.35-1.71v-.63L276 4.6l-16.56.73-1.47-3.59L241.6.31l-16.52.27-8.66.08-5 .82L194.93.24 172.23 0l-37 1.5L103.16.31 86.65.58 78 .66l-5 .82L56.5.24 40 .06 23.09.18l-2.25 5.55L6.4 5 7 20.37.59 23l1.35 16.11-.1 15.75L0 70.69l.89 15.77.69 15.74L.8 118l1 15.74-.64 158.77.78 4.73L1.85 313 0 328.82l.89 15.78.69 123.8-.78 15.82 1 15.74-.71 15.77-1 15.81.57 16 5.75 2.29-.25 15.56 15 .88 1.71 4.73 17.13-.2 16.49-.88 16.53.6h5l8.69-.14 16.49-.33 91.77-.16 16.53.6h5l8.69-.14 16.49-.33 17.06.79 2.1-5.12 15-.44-.2-15 6.12-2.51-1.08-16.32-.3-15.77.3-15.79-.13-15.78-.17-15.73 1.62-123.8zm-6-323.47L275 21v.36l-10.74-4.23L259.69 6zm-.61 112.85l.77 16.16.31 151.31-1.57 27.56 1.21 13.67-.25 17-.14 124.28-.32 16.19.77 16.16.35 16.16-.41 16.18-.53 16.22v.81l-10 4.11-4.53 11h-1.23l-16.61.07-16.63-.6-14.43.48h-28.15l-79.54.13-2.92-.13-13.37-.45h-.05l-14.43.48h-.15l-16.54.36-16.57-1.9h-.21l-16.58 2.2-1.26-.07-4.36-12.06-10.2-4.06v-.28l1-16.18v-.14l-2.19-16.1 1.66-16.1v-.13l-1.41-16.17-.33-16.12L7.38 344v-.06l.25-16.18v-.05l-.93-16.14.06-11.57-.67-9 1.52-156.57v-.13l-1.45-16.17L5.83 102l1.55-16.13v-.06l.25-16.18v-.05L6.7 53.43l.07-16.15.9-16.19v-.29L17 16.87l4.27-10.42 1.63.09h.1l16.61-.73 16.61.57h.07l16.55-1.1 14.52.47L104 6.1l47.74.9 43-.5-.11-.1h.07l16.59-1.09 14.52.47 16.63.35L259 6l4.79 11.64 11.3 4.45 1.1 15.1-.62 16.16-.2 16.18-.24 16.19-.13 16.23-.32 16.19zM23.54.85L40 .73l16.47.18L73 2.14l5-.82 8.67-.08L103.14 1l32.11 1.5 37-1.5L194.9.91l16.55 1.24 5-.82 8.67-.08L241.57 1l15.9 1.4 1.22 3-16.27.06-16.64-.35-14.51-.47-16.63 1.04-38.4.32L104 5.41l-16.65-.35-14.51-.47L56.2 5.68l-16.63-.57-16.63.73-1.39-.07zM7.12 5.69l13.44.72-4 10-8.92 3.68zM1.3 547.12l-.55-15.57 1-15.78.74-15.77-1-15.74.78-15.81-.71-123.89-.89-15.72L2.51 313l.1-15.81-.78-4.59.66-158.87L1.47 118l.78-15.81-.69-15.76-.89-15.72 1.84-15.82.1-15.81L1.3 23.47 7 21.09l-.9 16.15L6 53.43l.93 16.19-.24 16.18L5.14 102l.33 16.18 1.45 16.18L5.39 291l.67 9.14L6 311.57l.93 16.19-.25 16.18-1.54 124.25.33 16.18 1.45 16.18-1.67 16.19 2.2 16.19-1 16.18v.05zm5.56 17.66l.23-14.63 9.68 3.85 4.16 11.6zm251.35 5.39l-16.61-.77-16.51.33-13.62.11-16.55-.6-91.76.16-16.51.33-13.65.12-16.55-.6-16.5.88-16.65.19-1.43-4 1 .06 16.64-2.21 16.64 1.91 16.61-.37 14.54-.47 16.63.6 90.65.24 16.61-.37 14.54-.47 16.63.6 16.63-.07h.94zm16.79-5.54l-14 .37 4.31-10.51 9.49-3.9zm4.9-64.63l-.3 15.79.3 15.8 1.05 15.86-5.43 2.23v-.53l.48-16.25.41-16.19-.35-16.19-.77-16.18.32-16.19.14-124.25.25-17-1.13-13.85 1.5-27.22-.31-151.51-.77-16.18.32-16.19.14-16.18.25-16.18.2-16.18.62-16.19-1.08-14.81 3.62 1.43-.1 15.29 1.6 15.73-.3 15.8.72 15.72-1.74 15.82.3 31.54-.27 153.58 1.07 36.88-.09 4.6.72 15.72-1.74 123.88z" fill="#fff" data-name="Layer 1"/></g></svg><svg viewBox="-1 -1 213.26 162.31" width="213.26" height="162.31" x="284" y="131.2" xmlns="http://www.w3.org/2000/svg"><g data-name="Layer 2"><g data-name="Layer 1"><g data-name="Layer 2"><g data-name="Isolation Mode" stroke="#464647" stroke-miterlimit="10" stroke-width=".25"><path fill="none" d="M128.94 91.7l-1.95-1.39-2.54-1.06-1.03 1.6 5.52.85zm-15.1-9.77l-22.86-10.2 39.97 17.92-17.11-7.72zm49.43 29.43l.19 2.29 2.39.18a13.51 13.51 0 0 1 1.91-3.11l-1.82-.52z"/><path fill="#e8e8ea" d="M202.61 110.44l-14.63 6.37-3.25 1.41 2.01 11.57.7 4.08 4.19 1.61 19.06-8.94.44-4.32-8.52-11.78zm2.51-11.26l-1.64-8.87-17.11-9.38-8.18-1.21-2.61 2.23-2.36-2.75 1.67-1.44-3.79-2.71-1.4 1.4-2.57-2.57.98-.98-4.32-3.1-1.36 1.16-2.36-2.77.67-.57-4.03-2.9-1.75 1.5-2.37-2.76 1.08-.91-1.18-.85-2.89-2.58-2.16 1.56-2.14-2.95 1.53-1.1-3.56-3.19-2.06 1.5-2.14-2.95 1.42-1.03-2.31-2.08-1.08-2.21-1.81.81-1.49-3.31 1.72-.77-2.12-4.36-1.39.46-1.14-3.46 1.34-.44-.18-4.72-2.72.72-.93-3.52 3.5-.93-.18-4.48-3.68.98-.93-3.51 3.79-1.01-3.71-5.1-8.52 1.46-9.75 1.66h-8.55l-3.94 25.32-6.58 15.78 1.15 13.48 22.86 10.2 17.11 7.72 14.79 8.88 24.52 5.1h30.58l4.28-4.45z"/><path d="M183.24 115.13l-15.45-4.41a13.51 13.51 0 0 0-1.91 3.11h0l.26 3.29a14.8 14.8 0 0 1 9.33 11.88 14.08 14.08 0 0 1-.44 6.3 10.15 10.15 0 0 0 3.83.14 11.12 11.12 0 0 0 7.85-5.66l-2-11.58z" fill="#4c4c4c"/><ellipse cx="157.68" cy="132.96" rx="2.07" ry="2.49" transform="rotate(-8.83 157.62 132.884)" fill="#4c4c4c"/><path d="M126.34 104.25a14.94 14.94 0 0 1 2.66 6.55 13.73 13.73 0 0 1-3.42 11.76 9.42 9.42 0 0 1-5.28 2.75h-.24c1.52 0 11.22-3.4 12.22-4.41 3.28-3.3 5.88-7.83 5-13.25a15 15 0 0 0-.43-1.84l-10.45-1.7z" fill="#686868"/><path fill="#fff" d="M182.62 71.15l-1.28 1.09-2.18 1.87-4.27 3.65-1.67 1.44 2.36 2.75 2.61-2.23 3.77-3.22 2.13-1.83.9-.76-2.37-2.76zm-5.54-2.07l.85-.86-2.57-2.56-1.23 1.22-1.5 1.48-4.52 4.54-.98.98 2.57 2.57 1.4-1.4 4.27-4.28 1.71-1.69zm-6.66-4.96l.4-.35-2.36-2.76-1.03.87-1.09.96-5.6 4.78-.67.57 2.36 2.77 1.36-1.16 5.3-4.55 1.33-1.13zm-6.93-5.19l.86-.76-2.36-2.75-.76.65-1.02.87-6.54 5.61-1.08.91 2.37 2.76 1.75-1.5 5.97-5.11.81-.68zm-4.9-6.32l.84-.62-2.13-2.95-.93.67-1.35.98-8.19 5.94-1.53 1.1 2.14 2.95 2.16-1.56 7.75-5.62 1.24-.89zm-5.06-6.62l1.13-.8-2.14-2.95-1.2.87-1.62 1.17-9.21 6.68-1.42 1.03 2.14 2.95 2.06-1.5 8.75-6.35 1.51-1.1zm-3.82-5l.92-.41-1.5-3.31-.73.32-1.47.66-11.41 5.15-1.72.77 1.49 3.31 1.81-.81 10.84-4.88 1.77-.8zm-2.24-6.58l1.27-.43-1.13-3.45-1.15.38-1.49.49-12.76 4.2-1.34.44 1.14 3.46 1.39-.46 12.57-4.14 1.5-.49zm-3.55-6.69l1.48-.39.94-.24-.94-3.53-1.02.28-1.45.39-11.05 2.92-3.5.93.93 3.52 2.72-.72 11.89-3.16zm-2.2-7.71l1.43-.38 1.9-.5-.93-3.51-2 .52-1.4.38-9.84 2.61-3.79 1.01.93 3.51 3.68-.98 10.02-2.66z"/><path fill="#686868" d="M128.94 91.7l-5.52-.85-9.58 4.25 9.02 1.31 7.76 1.12 7.91 1.14.04-.06-9.63-6.91z"/><path d="M124.45 105.28v2.29l2.29 1.65v4.14l-1.65 8.82.49.44a13.73 13.73 0 0 0 3.42-11.77 14.94 14.94 0 0 0-2.68-6.55l-1.88 1z" fill="#4c4c4c"/><path d="M125.6 122.56l-.49-.44-6.77 1.4-3.89-1A13.88 13.88 0 0 1 114 124a9.52 9.52 0 0 0 6.05 1.26h.24a9.42 9.42 0 0 0 5.31-2.7zm-1.15-33.31l-12.75-5.36v12.17l2.14-.96 9.58-4.25 1.03-1.6zm-12.33 22.37l.49-3.64 3.2-1 1-2.78-3.34-2.27-1.68-.21a12.06 12.06 0 0 0-3.77 6 13.44 13.44 0 0 1 4.1 3.9z" fill="#4c4c4c"/><path fill="#8d8d8f" d="M200.68 108.72h-31.74l-23.36-5.09-7.01-5.02-.04.06-7.91-1.14-7.76-1.12-9.02-1.31-2.14.96-13.99-3.44 4.61 7.96 9.4 1.15 1.7.21 3.35 2.26 4.3 2.92 3.38-1.84 1.89-1.03.16-.09 10.45 1.7 12.99 2.12 4.81 4.32h6.41l2.15-.94 2.66-1.16 1.82.52 15.45 4.41 1.49 3.09 3.25-1.41 14.63-6.37 1.11-4.42-3.04 2.7zm-14.31-27.79l-.39-1.08h-.01l-4.01-3.35-3.77 3.22 8.18 1.21zm-11.48-3.17l4.27-3.65-3.79-3.34-4.27 4.28 3.79 2.71zm-8.71 39.39a12.53 12.53 0 0 0-1.26-.37 11.54 11.54 0 0 0-4.41-.18l-6.22 2.73-3.44 1.51a9.81 9.81 0 0 1 2-.53c6.34-1 12.45 4.41 13.63 12.05s-3 14.64-9.34 15.62h-.26c1.65 0 12.08-3.65 13.15-4.75a19.52 19.52 0 0 0 5-8 14.08 14.08 0 0 0 .44-6.3 14.8 14.8 0 0 0-9.29-11.78zm1.93-44.25l4.52-4.54-3.54-3.11-5.3 4.55 4.32 3.1zm-7.37-5.28l5.6-4.78-3.66-3.23-5.97 5.11 4.03 2.9zm-8.25-5.92l1.18.85 6.54-5.61-2.86-3.44-7.75 5.62 2.89 2.58zm-5.66-5.07l8.19-5.94-3-3.6-8.75 6.35 3.56 3.19zm-8.65-7.75l2.31 2.08 9.21-6.68-1.6-1.9-.16-.59-10.84 4.88 1.08 2.21zm-2.66-5.48l11.41-5.15-.96-3.35-12.57 4.14 2.12 4.36zm-3.31-7.8l12.76-4.2-1.05-3.68-11.89 3.16.18 4.72zm-.33-8.45l11.05-2.92-1.21-4.22-10.02 2.66.18 4.48zm-1-8.02l9.84-2.61-3.39-7.63-.47-1.05-3.94-7.65-11.11 7.79-1.06 2.53-2.1 4.98 8.52-1.46 3.71 5.1zm-18.76 92.5h0a13.44 13.44 0 0 0-4.11-3.94 11.28 11.28 0 0 0-7.61-1.59l-9.11 4a9.29 9.29 0 0 1 1.88-.5c6-.93 11.76 4.17 12.87 11.34s-2.84 13.85-8.79 14.75H97c1.54 0 11.4-3.45 12.42-4.47a18.62 18.62 0 0 0 4.62-7.24 13.88 13.88 0 0 0 .41-1.57 13.33 13.33 0 0 0 .09-4.65 15.14 15.14 0 0 0-2.42-6.13z"/><path fill="#707072" d="M200.84 103.63h-30.58l-24.52-5.1-14.79-8.88-39.97-17.92v19.24l6.73 1.65 13.99 3.44V83.89l12.75 5.36 2.54 1.06 1.95 1.39 9.63 6.91 7.01 5.02 23.36 5.09h31.74l3.04-2.7 1.4-1.24v-5.6l-4.28 4.45zm-16.75-28.96l-2.13 1.83 4.01 3.35-1.88-5.18zm-2.75-2.43l-4.26-3.16-1.71 1.69 3.79 3.34 2.18-1.87zm-7.21-5.36l-3.71-2.76-1.33 1.13 3.54 3.11 1.5-1.48zm-6.7-5l-3.94-2.95-.81.68 3.66 3.23 1.09-.96zm-14.54 58.43a9.81 9.81 0 0 0-2 .53c-5.2 2-8.4 8.28-7.35 15.11 1.17 7.56 7.12 12.88 13.38 12.09h.26c6.34-1 10.52-8 9.34-15.62s-7.29-13.1-13.63-12.11zm5.19 15.11a2.52 2.52 0 1 1 1.67-2.78 2.32 2.32 0 0 1-1.68 2.78zm-3.76-16.1l6.22-2.73a11.54 11.54 0 0 1 4.41.18 12.53 12.53 0 0 1 1.26.37l-.26-3.29h0l-2.39-.18-.28-2.3-2.15.93h-6.42l-.43 2.71-2 1.11 1.26 3.21zm6.91-63.25l-2.64-3.46-1.24.89 2.86 3.44 1.02-.87zm-4.86-6.36l-2.84-3.72-1.51 1.1 3 3.6 1.35-.98zm-8.27-7.33l1.6 1.9 1.62-1.17-1.61-2.12-1.77.8.16.59zm-1.17-4.13l1.47-.66-.93-3.18-1.5.49.96 3.35zm-1.96-6.85l1.49-.49-1.06-3.58-1.48.39 1.05 3.68zm-2.04-7.17l1.45-.39-1.23-4.21-1.43.38 1.21 4.22zm-.81-8.09l-2.13-6.56-2.66-.69 3.39 7.63 1.4-.38zm-17.67 89.14h0l-3.38 1.79-4.27-2.86-1 2.8-3.2 1-.49 3.64h0a15.14 15.14 0 0 1 2.42 6.2 13.33 13.33 0 0 1-.09 4.65l3.89 1 6.77-1.4 1.65-8.82v-4.09l-2.35-1.64zm-5.8-89.79l2.1-4.98-9.87 1.21-10.53 5.43h8.55l9.75-1.66zm-25.47 94.1a9.29 9.29 0 0 0-1.88.5c-4.91 1.88-7.94 7.82-6.95 14.25 1.11 7.12 6.73 12.18 12.63 11.42h.25c6-.93 9.95-7.56 8.79-14.75s-6.8-12.34-12.84-11.42zm4.9 14.28a2.41 2.41 0 1 1 1.57-2.63 2.19 2.19 0 0 1-1.57 2.64z"/><ellipse cx="97.72" cy="121.53" rx="1.96" ry="2.37" transform="rotate(-8.75 97.66 121.458)" fill="#4c4c4c"/><path fill="none" d="M44.9 103.77l-1.95-1.4-2.53-1.07-1.05 1.6 5.53.87zm-15.1-9.79L6.93 83.79l39.98 17.93-17.11-7.74zm49.48 29.46l.19 2.29 2.39.18a13.51 13.51 0 0 1 1.91-3.11l-1.82-.52z"/><path fill="#e8e8ea" d="M118.57 122.51l-14.63 6.36-3.25 1.41 2.01 11.56.7 4.1 4.2 1.6 19.05-8.95.44-4.3-8.52-11.78zm2.52-11.26l-1.65-8.88L102.33 93l-8.17-1.21-2.61 2.23-2.38-2.77 1.69-1.42-3.8-2.72-1.4 1.39-2.57-2.57.98-.98-4.33-3.1-1.34 1.16-2.37-2.76.67-.58-4.03-2.88-1.75 1.5-2.37-2.76 1.08-.92-1.18-.84-2.89-2.6-2.16 1.58-2.13-2.95 1.53-1.11-3.57-3.19-2.06 1.49-2.13-2.95 1.41-1.03-2.31-2.06-1.08-2.22-1.8.82-1.5-3.32 1.71-.78-2.11-4.34-1.38.45-1.15-3.45 1.35-.44-.19-4.74-2.71.73-.94-3.52 3.5-.92-.18-4.49-3.68.97-.94-3.51 3.81-1.01-3.73-5.1-8.52 1.46-9.73 1.68h-8.55l-3.95 25.31-6.58 15.79 1.14 13.47L29.8 93.98l17.11 7.74 14.79 8.88 24.51 5.08h30.59l4.29-4.43z"/><path d="M99.22 127.22l-15.45-4.41a13.51 13.51 0 0 0-1.91 3.11h0l.26 3.29a14.8 14.8 0 0 1 9.32 11.86 14.08 14.08 0 0 1-.44 6.3 10.15 10.15 0 0 0 3.83.14 11.12 11.12 0 0 0 7.85-5.66l-2-11.58z" fill="#4c4c4c"/><ellipse cx="73.64" cy="145.03" rx="2.07" ry="2.49" transform="rotate(-8.83 73.626 144.965)" fill="#4c4c4c"/><path d="M42.3 116.31a14.94 14.94 0 0 1 2.7 6.55 13.73 13.73 0 0 1-3.4 11.76 9.42 9.42 0 0 1-5.28 2.75h-.24c1.52 0 11.22-3.4 12.22-4.41 3.28-3.3 5.88-7.83 5-13.25a15 15 0 0 0-.4-1.83l-10.45-1.7z" fill="#686868"/><path fill="#fff" d="M98.58 83.2l-1.29 1.11-2.16 1.85-4.27 3.67-1.69 1.42 2.38 2.77 2.61-2.23 3.77-3.22 2.12-1.83.9-.77-2.37-2.77zm-5.54-2.06l.85-.85-2.57-2.58-1.23 1.22-1.5 1.5-4.52 4.52-.98.98 2.57 2.57 1.4-1.39 4.27-4.27 1.71-1.7zm-6.66-4.97l.41-.34-2.37-2.76-1.03.87-1.09.95-5.6 4.78-.67.58 2.37 2.76 1.34-1.16 5.31-4.53 1.33-1.15zm-6.93-5.19l.87-.74-2.36-2.77-.77.66-1.02.86-6.54 5.62-1.08.92 2.37 2.76 1.75-1.5 5.98-5.11.8-.7zm-4.9-6.32l.84-.6-2.13-2.95-.93.67-1.34.98-8.19 5.93-1.53 1.11 2.13 2.95 2.16-1.58 7.75-5.61 1.24-.9zm-5.06-6.6l1.13-.82-2.13-2.94-1.21.86-1.62 1.19-9.21 6.66-1.41 1.03 2.13 2.95 2.06-1.49 8.75-6.36 1.51-1.08zm-3.83-5l.93-.41-1.49-3.33-.74.33-1.46.66-11.43 5.14-1.71.78 1.5 3.32 1.8-.82 10.84-4.88 1.76-.79zm-2.22-6.6l1.27-.41-1.13-3.47-1.17.39-1.47.49-12.76 4.21-1.35.44 1.15 3.45 1.38-.45 12.57-4.16 1.51-.49zm-3.56-6.68l1.49-.38.93-.26-.93-3.51-1.02.28-1.47.37-11.04 2.94-3.5.92.94 3.52 2.71-.73 11.89-3.15zm-2.19-7.7l1.43-.38 1.89-.5-.94-3.52-1.98.53-1.41.37-9.83 2.6-3.81 1.01.94 3.51 3.68-.97 10.03-2.65z"/><path fill="#686868" d="M44.9 103.77l-5.53-.87-9.57 4.27 9.02 1.3 7.76 1.12 7.92 1.14.03-.06-9.63-6.9z"/><path d="M40.42 117.33v2.33l2.29 1.61v4.11l-1.65 8.82.49.44A13.73 13.73 0 0 0 45 122.88a14.94 14.94 0 0 0-2.68-6.55l-1.88 1z" fill="#4c4c4c"/><path d="M41.56 134.61l-.49-.44-6.77 1.4-3.89-1a13.89 13.89 0 0 1-.41 1.53 9.52 9.52 0 0 0 6 1.26h.24a9.42 9.42 0 0 0 5.32-2.75zm-1.14-33.31l-12.76-5.34v12.17l2.14-.96 9.57-4.27 1.05-1.6zm-12.34 22.38l.49-3.64 3.2-1 1-2.8-3.38-2.24-1.76-.2a12.06 12.06 0 0 0-3.71 5.94 13.44 13.44 0 0 1 4.16 3.94z" fill="#4c4c4c"/><path fill="#8d8d8f" d="M116.64 120.78H84.9l-23.36-5.1-7.01-5.01-.03.06-7.92-1.14-7.76-1.12-9.02-1.3-2.14.96-13.98-3.44 4.61 7.96 9.39 1.15 1.71.2 3.34 2.26 4.31 2.93 3.38-1.86 1.88-1.02.16-.08 10.45 1.7 12.99 2.11 4.81 4.32h6.42l2.15-.94 2.66-1.16 1.82.53 15.45 4.41 1.48 3.08 3.25-1.41 14.63-6.36 1.11-4.42-3.04 2.69zM102.33 93l-.4-1.08h0l-4-3.35-3.77 3.22 8.17 1.21zm-11.47-3.17l4.27-3.67-3.8-3.32-4.27 4.27 3.8 2.72zm-8.72 39.36a12.53 12.53 0 0 0-1.26-.37 11.54 11.54 0 0 0-4.41-.18l-6.14 2.75-3.44 1.51a9.81 9.81 0 0 1 2-.53c6.34-1 12.45 4.41 13.63 12.05s-3 14.64-9.34 15.62h-.26c1.65 0 12.08-3.65 13.15-4.75a19.52 19.52 0 0 0 5-8 14.08 14.08 0 0 0 .44-6.3 14.8 14.8 0 0 0-9.37-11.8zm1.93-44.24l4.52-4.52-3.54-3.11-5.31 4.53 4.33 3.1zm-7.37-5.28l5.6-4.78-3.65-3.21-5.98 5.11 4.03 2.88zm-8.25-5.9l1.18.84 6.54-5.62-2.86-3.43-7.75 5.61 2.89 2.6zm-5.65-5.08l8.19-5.93-3.01-3.62-8.75 6.36 3.57 3.19zm-8.66-7.74l2.31 2.06 9.21-6.66-1.59-1.92-.17-.58-10.84 4.88 1.08 2.22zm-2.67-5.5l11.43-5.14-.97-3.36-12.57 4.16 2.11 4.34zm-3.29-7.78l12.76-4.21-1.06-3.68-11.89 3.15.19 4.74zm-.34-8.45l11.04-2.94-1.19-4.2-10.03 2.65.18 4.49zm-.99-8.04l9.83-2.6-3.39-7.63-.46-1.05-3.95-7.65-11.1 7.8-1.07 2.52-2.11 4.97 8.52-1.46 3.73 5.1zm-18.77 92.5h0a13.44 13.44 0 0 0-4.08-3.94 11.28 11.28 0 0 0-7.66-1.59l-9.08 4a9.29 9.29 0 0 1 1.88-.5c6-.93 11.76 4.17 12.87 11.34s-2.84 13.85-8.79 14.75H13c1.54 0 11.4-3.45 12.42-4.47a18.62 18.62 0 0 0 4.58-7.22 13.89 13.89 0 0 0 .41-1.57 13.33 13.33 0 0 0 .09-4.65 15.14 15.14 0 0 0-2.42-6.15z"/><path fill="#707072" d="M116.8 115.68H86.21L61.7 110.6l-14.79-8.88L6.93 83.79v19.24l6.75 1.66 13.98 3.44V95.96l12.76 5.34 2.53 1.07 1.95 1.4 9.63 6.9 7.01 5.01 23.36 5.1h31.74l3.04-2.69 1.41-1.25v-5.59l-4.29 4.43zm-16.75-28.94l-2.12 1.83 4 3.35-1.88-5.18zm-2.76-2.43l-4.25-3.17-1.71 1.7 3.8 3.32 2.16-1.85zm-7.2-5.38l-3.71-2.76-1.33 1.15 3.54 3.11 1.5-1.5zm-6.7-4.99l-3.94-2.96-.8.7 3.65 3.21 1.09-.95zm-14.55 58.43a9.81 9.81 0 0 0-2 .53c-5.2 2-8.4 8.28-7.35 15.11 1.17 7.56 7.12 12.88 13.38 12.09h.26c6.34-1 10.52-8 9.34-15.62s-7.28-13.09-13.63-12.11zM74 147.49a2.52 2.52 0 1 1 1.67-2.78 2.32 2.32 0 0 1-1.67 2.78zm-3.67-16.1l6.22-2.73a11.54 11.54 0 0 1 4.41.18 12.53 12.53 0 0 1 1.26.37l-.34-3.21h0l-2.39-.18-.21-2.34-2.15.93h-6.42l-.38 2.7-2 1.11 1.26 3.21zm6.86-63.26l-2.64-3.47-1.24.9 2.86 3.43 1.02-.86zm-4.86-6.35l-2.84-3.72-1.51 1.08 3.01 3.62 1.34-.98zm-8.26-7.35l1.59 1.92 1.62-1.19-1.62-2.1-1.76.79.17.58zm-1.17-4.12l1.46-.66-.92-3.19-1.51.49.97 3.36zm-1.96-6.85l1.47-.49-1.04-3.57-1.49.38 1.06 3.68zm-2.06-7.18l1.47-.37-1.23-4.21-1.43.38 1.19 4.2zm-.79-8.07l-2.14-6.56-2.66-.7 3.39 7.63 1.41-.37zm-17.67 89.12h0L37 119.17l-4.31-2.91-1 2.8-3.2 1-.49 3.64h0a15.14 15.14 0 0 1 2.42 6.2 13.33 13.33 0 0 1-.09 4.65l3.89 1 6.77-1.4 1.65-8.82v-4.08l-2.31-1.61zM34.6 27.54l2.11-4.97-9.87 1.22-10.52 5.43h8.55l9.73-1.68zM9.14 121.65a9.29 9.29 0 0 0-1.88.5C2.35 124-.68 130 .31 136.4c1.11 7.12 6.73 12.18 12.63 11.42h.25c6-.93 9.95-7.56 8.79-14.75s-6.91-12.35-12.84-11.42zM14 135.94a2.41 2.41 0 0 1-.73-4.67 2.41 2.41 0 0 1 .73 4.67z"/><ellipse cx="13.68" cy="133.61" rx="1.96" ry="2.37" transform="rotate(-8.75 13.643 133.568)" fill="#4c4c4c"/></g></g></g></g></svg><svg viewBox="-1 -1 86 104" width="86" height="104" x="284" y="293.51" xmlns="http://www.w3.org/2000/svg"><g data-name="Layer 2"><path d="M71.89 14.7Q59.78 0 42 0T12.11 14.7Q0 29.4 0 51t12.11 36.3Q24.22 102 42 102t29.89-14.7Q84 72.6 84 51T71.89 14.7zM62 91.9q1-1.54 1.9-3.27c4.77-9.14 7.18-21.8 7.18-37.63s-2.42-28.49-7.18-37.63Q63 11.63 62 10.1a41.4 41.4 0 0 1 7.1 6.9c7.49 9.09 11.28 20.53 11.28 34S76.59 75.92 69.1 85a41.4 41.4 0 0 1-7.1 6.9zM21.8 10.27q-.91 1.44-1.75 3C15.33 22.4 12.94 35.08 12.94 51s2.39 28.6 7.11 37.69q.83 1.61 1.75 3A41.61 41.61 0 0 1 14.9 85C7.41 75.92 3.61 64.48 3.61 51s3.8-24.92 11.29-34a41.6 41.6 0 0 1 6.9-6.73zM23.26 87q-6.7-12.92-6.7-36t6.7-36Q30 2.05 42 2.05T60.67 15q6.77 13 6.77 36t-6.77 36Q53.9 100 42 100T23.26 87z" fill="#fff" data-name="Layer 1"/></g></svg></svg>