<?xml version="1.0" encoding="utf-8"?><svg width="221" height="124" viewBox="0 0 221 124" xmlns="http://www.w3.org/2000/svg" xmlns:xlink="http://www.w3.org/1999/xlink"><svg id="cta_arrow" width="32" height="32" viewBox="-1 -1 32 32" x="147.28" y="86.81"><style>.ast0{fill:#fff}</style><path class="ast0" d="M13.3 21.1l-.7-.7 5.3-5.3-5.3-5.4.7-.7 6.1 6.1z" id="aArrow"/></svg><svg id="cta_border" width="34" height="34" viewBox="-1 -1 34 34" x="163.28" y="52.81"><style>.bst0{fill:#fff}</style><title>cta_border</title><path class="bst0" d="M16 1C7.7 1 1 7.7 1 16s6.7 15 15 15 15-6.7 15-15S24.3 1 16 1zm0 28.9C8.3 29.9 2.1 23.7 2.1 16S8.3 2.1 16 2.1 29.9 8.3 29.9 16 23.7 29.9 16 29.9z"/></svg><svg id="cta_border_left" width="18" height="34" viewBox="-1 -1 18 34" x="129.28" y="86.81"><style>.cst0{fill:#fff}</style><path class="cst0" d="M16 29.9C8.4 29.9 2.1 23.6 2.1 16S8.4 2.1 16 2.1V1C7.7 1 1 7.7 1 16s6.7 15 15 15v-1.1z"/></svg><svg id="cta_border_right" width="18" height="34" viewBox="-1 -1 18 34" x="197.28" y="52.81"><style>.dst0{fill:#fff}</style><path class="dst0" d="M0 2.1c7.6 0 13.9 6.3 13.9 13.9S7.6 29.9 0 29.9V31c8.3 0 15-6.7 15-15S8.3 1 0 1v1.1z"/></svg><svg id="cta_over" width="34" height="34" viewBox="-1 -1 34 34" x="129.28" y="52.81"><style>.est0{fill:#fff}</style><path class="est0" d="M16 31.5C7.4 31.5.5 24.6.5 16S7.4.5 16 .5 31.5 7.4 31.5 16 24.6 31.5 16 31.5zm0 0C7.4 31.5.5 24.6.5 16S7.4.5 16 .5 31.5 7.4 31.5 16 24.6 31.5 16 31.5z" id="eCircle"/><path d="M14.7 23.1l-.7-.7 5.3-5.3-5.3-5.4.7-.7 6.1 6.1z" id="eArrow"/></svg><svg width="129.28" height="57.59" viewBox="-1 -1 129.28 57.59" id="headline1"><defs><style>.fcls-1{fill:#fff;fill-rule:evenodd}</style></defs><path id="fheadline1.svg" class="fcls-1" d="M14.34 110.487h2.484l2.754-9.363 2.754 9.363h2.43l3.708-13.272H26l-2.466 9.254-2.734-9.254h-2.41l-2.754 9.29-2.484-9.29H10.6zm15.3 0h2.448v-5.7a3.6 3.6 0 0 1 .189-1.208 2.5 2.5 0 0 1 .522-.888 2.225 2.225 0 0 1 .783-.542 2.454 2.454 0 0 1 .954-.187 2.2 2.2 0 0 1 1.782.7 2.89 2.89 0 0 1 .594 1.927v5.9H39.4v-6.193a4.606 4.606 0 0 0-1.107-3.283 4.48 4.48 0 0 0-4.878-.778 3.886 3.886 0 0 0-1.341 1.091v-4.29H29.64v13.453zm19.539-.773a5.484 5.484 0 0 0 1.917-2.082l-2-1.163a3.075 3.075 0 0 1-2.916 1.872 3.278 3.278 0 0 1-2.142-.69 3.165 3.165 0 0 1-1.1-1.818h8.568v-.87a5.1 5.1 0 0 0-.405-2.045 4.96 4.96 0 0 0-1.125-1.628 5.075 5.075 0 0 0-1.719-1.073 6 6 0 0 0-2.169-.384 5.547 5.547 0 0 0-3.888 1.56 5.281 5.281 0 0 0-1.584 3.8 5.348 5.348 0 0 0 .405 2.077 5.1 5.1 0 0 0 1.134 1.691 5.246 5.246 0 0 0 1.755 1.13 6.028 6.028 0 0 0 2.268.412 5.439 5.439 0 0 0 3-.789zM48 102.449a2.254 2.254 0 0 1 1.044 1.329h-5.977a2.666 2.666 0 0 1 1.125-1.291 3.564 3.564 0 0 1 1.9-.49 3.732 3.732 0 0 1 1.908.452zm4.77 8.038h2.43v-5.7a2.877 2.877 0 0 1 .711-2.1 2.354 2.354 0 0 1 1.755-.729 2.2 2.2 0 0 1 1.782.7 2.86 2.86 0 0 1 .594 1.909v5.916h2.466v-6.193a4.606 4.606 0 0 0-1.107-3.283 4.5 4.5 0 0 0-4.9-.775 3.865 3.865 0 0 0-1.323 1.068v-1.449h-2.409v10.636zm17.424 4.89h2.466l6.282-15.526h-2.557l-2.772 7.276-2.934-7.276h-2.592l4.32 10.176zm16.128-5.284a5.474 5.474 0 0 0 1.737-1.139 5.285 5.285 0 0 0 1.17-1.7 5.35 5.35 0 0 0 0-4.17 5.307 5.307 0 0 0-1.17-1.7 5.63 5.63 0 0 0-5.994-1.139 5.32 5.32 0 0 0-2.9 2.839 5.35 5.35 0 0 0 0 4.17 5.32 5.32 0 0 0 2.9 2.839 5.533 5.533 0 0 0 2.133.412 5.467 5.467 0 0 0 2.123-.412zm-3.339-2.136a2.968 2.968 0 0 1-.972-.648 3.031 3.031 0 0 1-.639-.963 2.973 2.973 0 0 1-.234-1.168 3.043 3.043 0 0 1 .873-2.149 2.968 2.968 0 0 1 .972-.648 3.1 3.1 0 0 1 1.215-.239 3.037 3.037 0 0 1 1.206.239 3.1 3.1 0 0 1 .972.648 2.964 2.964 0 0 1 .648.963 3.024 3.024 0 0 1 .234 1.186 3 3 0 0 1-.882 2.131 3.1 3.1 0 0 1-.972.648 3.037 3.037 0 0 1-1.206.239 3.1 3.1 0 0 1-1.216-.239zm17.4-8.106h-2.43v5.7a3 3 0 0 1-.666 2.1 2.172 2.172 0 0 1-1.674.729 2.025 2.025 0 0 1-1.7-.7 3.017 3.017 0 0 1-.549-1.909v-5.92h-2.471v6.193a4.651 4.651 0 0 0 1.089 3.283 3.835 3.835 0 0 0 2.961 1.178 4.076 4.076 0 0 0 1.764-.359 3.508 3.508 0 0 0 1.26-.992v1.333h2.412V99.851zM16.95 130.193a4.119 4.119 0 0 0 1.341-.806 3.235 3.235 0 0 0 .783-1.076 2.8 2.8 0 0 0 .252-1.118 2.45 2.45 0 0 0-.333-1.327 2.74 2.74 0 0 0-.873-.866 4.973 4.973 0 0 0-1.2-.537 12.291 12.291 0 0 0-1.3-.321 14.3 14.3 0 0 1-1.8-.46.761.761 0 0 1-.612-.719.96.96 0 0 1 .414-.763 2.036 2.036 0 0 1 1.278-.33 2.765 2.765 0 0 1 1.332.311 2.316 2.316 0 0 1 .9.846l2.07-.988a4.444 4.444 0 0 0-1.665-1.612 5.32 5.32 0 0 0-2.637-.593 5.415 5.415 0 0 0-1.7.252 4.1 4.1 0 0 0-1.3.684 3.17 3.17 0 0 0-.837 1 2.659 2.659 0 0 0 .027 2.495 2.693 2.693 0 0 0 .846.867 4.394 4.394 0 0 0 1.179.529q.657.191 1.341.329l.936.191a4.608 4.608 0 0 1 .783.216 1.931 1.931 0 0 1 .54.3.56.56 0 0 1 .207.45 1.087 1.087 0 0 1-.45.867 2.114 2.114 0 0 1-1.35.364A2.965 2.965 0 0 1 13.6 128a2.684 2.684 0 0 1-1.026-1.074l-2.25 1.023a4.439 4.439 0 0 0 1.782 1.9 5.8 5.8 0 0 0 2.9.656 5.413 5.413 0 0 0 1.944-.312zm11.817-.479a5.484 5.484 0 0 0 1.917-2.082l-2-1.163a3.075 3.075 0 0 1-2.916 1.872 3.278 3.278 0 0 1-2.142-.69 3.165 3.165 0 0 1-1.1-1.818H31.1v-.87a5.1 5.1 0 0 0-.405-2.045 4.96 4.96 0 0 0-1.125-1.628 5.075 5.075 0 0 0-1.719-1.073 6 6 0 0 0-2.169-.384 5.548 5.548 0 0 0-3.888 1.56 5.281 5.281 0 0 0-1.584 3.8 5.348 5.348 0 0 0 .405 2.077 5.1 5.1 0 0 0 1.134 1.691 5.246 5.246 0 0 0 1.755 1.13 6.028 6.028 0 0 0 2.268.412 5.439 5.439 0 0 0 2.995-.789zm-1.179-7.265a2.254 2.254 0 0 1 1.044 1.329h-5.976a2.666 2.666 0 0 1 1.125-1.291 3.564 3.564 0 0 1 1.9-.49 3.732 3.732 0 0 1 1.907.452zm12.987 7.265a5.484 5.484 0 0 0 1.917-2.082l-2-1.163a3.075 3.075 0 0 1-2.916 1.872 3.278 3.278 0 0 1-2.142-.69 3.165 3.165 0 0 1-1.1-1.818h8.568v-.87a5.1 5.1 0 0 0-.405-2.045 4.96 4.96 0 0 0-1.125-1.628 5.075 5.075 0 0 0-1.719-1.073 6 6 0 0 0-2.169-.384 5.548 5.548 0 0 0-3.888 1.56 5.281 5.281 0 0 0-1.584 3.8 5.348 5.348 0 0 0 .4 2.077 5.1 5.1 0 0 0 1.134 1.691 5.246 5.246 0 0 0 1.755 1.13 6.028 6.028 0 0 0 2.268.412 5.439 5.439 0 0 0 3.006-.789zm-1.175-7.265a2.254 2.254 0 0 1 1.044 1.329h-5.98a2.666 2.666 0 0 1 1.125-1.291 3.564 3.564 0 0 1 1.9-.49 3.732 3.732 0 0 1 1.911.452zm17.577 7.265a5.484 5.484 0 0 0 1.917-2.082l-2-1.163a3.075 3.075 0 0 1-2.916 1.872 3.278 3.278 0 0 1-2.142-.69 3.165 3.165 0 0 1-1.1-1.818H59.3v-.87a5.1 5.1 0 0 0-.405-2.045 4.96 4.96 0 0 0-1.125-1.628 5.075 5.075 0 0 0-1.719-1.073 6 6 0 0 0-2.169-.384 5.548 5.548 0 0 0-3.882 1.56 5.281 5.281 0 0 0-1.584 3.8 5.348 5.348 0 0 0 .405 2.077 5.1 5.1 0 0 0 1.134 1.691 5.246 5.246 0 0 0 1.755 1.13 6.028 6.028 0 0 0 2.268.412 5.439 5.439 0 0 0 2.994-.789zm-1.179-7.265a2.254 2.254 0 0 1 1.044 1.329h-5.981a2.666 2.666 0 0 1 1.125-1.291 3.564 3.564 0 0 1 1.9-.49 3.732 3.732 0 0 1 1.907.452zm7.524 8.038h2.448l3.96-10.636h-2.5l-2.664 7.491-2.718-7.491H59.3zm14.9-.773a5.484 5.484 0 0 0 1.917-2.082l-2-1.163a3.075 3.075 0 0 1-2.916 1.872 3.279 3.279 0 0 1-2.142-.69 3.166 3.166 0 0 1-1.1-1.818h8.568v-.87a5.1 5.1 0 0 0-.405-2.045 4.959 4.959 0 0 0-1.125-1.628 5.074 5.074 0 0 0-1.719-1.073 6 6 0 0 0-2.169-.384 5.549 5.549 0 0 0-3.888 1.56 5.282 5.282 0 0 0-1.584 3.8 5.348 5.348 0 0 0 .405 2.077 5.1 5.1 0 0 0 1.134 1.691 5.245 5.245 0 0 0 1.755 1.13 6.028 6.028 0 0 0 2.268.412 5.439 5.439 0 0 0 2.991-.789zm-1.179-7.265a2.254 2.254 0 0 1 1.044 1.329H72.1a2.666 2.666 0 0 1 1.125-1.291 3.564 3.564 0 0 1 1.9-.49 3.732 3.732 0 0 1 1.908.452zm4.77 8.038h2.43v-5.672a2.937 2.937 0 0 1 .549-1.991 2.058 2.058 0 0 1 1.611-.609 2.6 2.6 0 0 1 .855.118 2.7 2.7 0 0 1 .6.3l.918-2.327a3.766 3.766 0 0 0-.819-.327 3.869 3.869 0 0 0-1.035-.128 2.714 2.714 0 0 0-2.7 1.582v-1.582H81.8v10.636zm9.63 4.89H93.9l6.282-15.526h-2.557l-2.772 7.276-2.934-7.276h-2.592l4.32 10.176zM16.95 150.193a4.119 4.119 0 0 0 1.341-.806 3.235 3.235 0 0 0 .783-1.076 2.806 2.806 0 0 0 .252-1.118 2.45 2.45 0 0 0-.333-1.327 2.74 2.74 0 0 0-.873-.866 4.973 4.973 0 0 0-1.2-.537 12.291 12.291 0 0 0-1.3-.321 14.3 14.3 0 0 1-1.8-.46.761.761 0 0 1-.612-.719.96.96 0 0 1 .414-.763 2.036 2.036 0 0 1 1.278-.33 2.765 2.765 0 0 1 1.332.311 2.316 2.316 0 0 1 .9.846l2.07-.988a4.454 4.454 0 0 0-1.665-1.613 5.331 5.331 0 0 0-2.637-.592 5.415 5.415 0 0 0-1.7.252 4.1 4.1 0 0 0-1.3.684 3.17 3.17 0 0 0-.837 1 2.659 2.659 0 0 0 .027 2.5 2.693 2.693 0 0 0 .846.867 4.394 4.394 0 0 0 1.179.529q.657.19 1.341.329l.936.191a4.608 4.608 0 0 1 .783.216 1.931 1.931 0 0 1 .54.3.56.56 0 0 1 .207.45 1.087 1.087 0 0 1-.45.867 2.114 2.114 0 0 1-1.35.364A2.965 2.965 0 0 1 13.6 148a2.684 2.684 0 0 1-1.026-1.074l-2.25 1.023a4.439 4.439 0 0 0 1.782 1.9 5.8 5.8 0 0 0 2.9.656 5.413 5.413 0 0 0 1.944-.312zm3.6.294H23v-5.7a3.6 3.6 0 0 1 .189-1.208 2.5 2.5 0 0 1 .522-.888 2.225 2.225 0 0 1 .783-.542 2.454 2.454 0 0 1 .954-.187 2.2 2.2 0 0 1 1.782.7 2.89 2.89 0 0 1 .594 1.927v5.9h2.484v-6.193a4.606 4.606 0 0 0-1.107-3.283 4.008 4.008 0 0 0-3.069-1.178 4 4 0 0 0-1.809.4 3.886 3.886 0 0 0-1.341 1.091v-4.29H20.55v13.453zm18.108-.391a3.973 3.973 0 0 0 1.476-1.121v1.512h2.43v-10.636h-2.43v1.4a4.037 4.037 0 0 0-1.458-1.04 4.806 4.806 0 0 0-1.926-.381 5.393 5.393 0 0 0-1.935.36 5.027 5.027 0 0 0-1.674 1.042 5.118 5.118 0 0 0-1.17 1.674 5.52 5.52 0 0 0-.441 2.269 5.389 5.389 0 0 0 .45 2.252 5.212 5.212 0 0 0 4.734 3.075 4.639 4.639 0 0 0 1.943-.402zm-2.8-2.084a3.176 3.176 0 0 1-1.017-.658 2.992 2.992 0 0 1-.675-.99 3.088 3.088 0 0 1-.243-1.221 3.027 3.027 0 0 1 .243-1.212 2.926 2.926 0 0 1 .675-.974 3.369 3.369 0 0 1 3.528-.648 2.979 2.979 0 0 1 .99.657 3.159 3.159 0 0 1 .657.982 2.983 2.983 0 0 1 .243 1.195 3.023 3.023 0 0 1-.243 1.212 3.272 3.272 0 0 1-.657.991 2.941 2.941 0 0 1-.99.666 3.417 3.417 0 0 1-2.511 0zm15.057 2.088a3.972 3.972 0 0 0 1.476-1.121v1.512h2.43v-13.457h-2.448v4.272a3.948 3.948 0 0 0-1.458-1.082 4.666 4.666 0 0 0-1.908-.391 5.393 5.393 0 0 0-1.935.36 5.027 5.027 0 0 0-1.674 1.042 5.118 5.118 0 0 0-1.17 1.674 5.52 5.52 0 0 0-.441 2.269 5.389 5.389 0 0 0 .45 2.252 5.212 5.212 0 0 0 4.734 3.075 4.639 4.639 0 0 0 1.944-.405zm-2.8-2.084a3.176 3.176 0 0 1-1.017-.658 2.992 2.992 0 0 1-.675-.99 3.088 3.088 0 0 1-.243-1.221 3.027 3.027 0 0 1 .243-1.212 2.926 2.926 0 0 1 .675-.974 3.369 3.369 0 0 1 3.528-.648 2.978 2.978 0 0 1 .99.657 3.159 3.159 0 0 1 .657.982 2.983 2.983 0 0 1 .243 1.195 3.023 3.023 0 0 1-.243 1.212 3.272 3.272 0 0 1-.657.991 2.94 2.94 0 0 1-.99.666 3.417 3.417 0 0 1-2.51-.004zm16.488 1.7a5.483 5.483 0 0 0 1.917-2.082l-2-1.163a3.075 3.075 0 0 1-2.916 1.872 3.278 3.278 0 0 1-2.142-.69 3.165 3.165 0 0 1-1.1-1.818h8.568v-.87a5.1 5.1 0 0 0-.405-2.045 4.959 4.959 0 0 0-1.125-1.63 5.075 5.075 0 0 0-1.719-1.073 6 6 0 0 0-2.169-.384 5.548 5.548 0 0 0-3.888 1.56 5.281 5.281 0 0 0-1.584 3.8 5.348 5.348 0 0 0 .405 2.077 5.1 5.1 0 0 0 1.134 1.691 5.246 5.246 0 0 0 1.755 1.13 6.028 6.028 0 0 0 2.268.412 5.439 5.439 0 0 0 2.998-.789zm-1.179-7.265a2.254 2.254 0 0 1 1.044 1.329h-5.975a2.666 2.666 0 0 1 1.125-1.291 3.564 3.564 0 0 1 1.9-.49 3.732 3.732 0 0 1 1.907.45zm16.6 7.644a5.474 5.474 0 0 0 1.737-1.139 5.283 5.283 0 0 0 1.17-1.7 5.35 5.35 0 0 0 0-4.17 5.3 5.3 0 0 0-1.17-1.7 5.488 5.488 0 0 0-3.861-1.551 5.551 5.551 0 0 0-2.133.412 5.32 5.32 0 0 0-2.9 2.839 5.35 5.35 0 0 0 0 4.17 5.32 5.32 0 0 0 2.9 2.839 5.533 5.533 0 0 0 2.133.412 5.467 5.467 0 0 0 2.121-.414zm-3.339-2.136a2.968 2.968 0 0 1-.972-.648 3.033 3.033 0 0 1-.639-.963 2.973 2.973 0 0 1-.234-1.168 3.043 3.043 0 0 1 .873-2.149 2.968 2.968 0 0 1 .972-.648 3.1 3.1 0 0 1 1.215-.239 3.037 3.037 0 0 1 1.206.239 3.1 3.1 0 0 1 .972.648 2.964 2.964 0 0 1 .648.963 3.022 3.022 0 0 1 .234 1.186 3 3 0 0 1-.882 2.131 3.1 3.1 0 0 1-.972.648 3.037 3.037 0 0 1-1.206.239 3.1 3.1 0 0 1-1.218-.241zm7.155-5.906h1.782v8.436h2.466v-8.436h2.16v-2.2h-2.16a6.059 6.059 0 0 1 .063-.963 1.134 1.134 0 0 1 .288-.618 1.223 1.223 0 0 1 .657-.327 5.79 5.79 0 0 1 1.152-.091v-2.273h-.219a7.637 7.637 0 0 0-2.043.236 3.126 3.126 0 0 0-1.359.746 3.006 3.006 0 0 0-.765 1.318 6.855 6.855 0 0 0-.243 1.954v.018h-1.782v2.2zm19.944 8.095a5.116 5.116 0 0 0 1.647-1.043 5.228 5.228 0 0 0 1.179-1.673 5.406 5.406 0 0 0 .45-2.252 5.524 5.524 0 0 0-.441-2.269 5.22 5.22 0 0 0-1.161-1.674 4.96 4.96 0 0 0-1.656-1.042 5.326 5.326 0 0 0-1.926-.36 4.469 4.469 0 0 0-1.953.427 4.018 4.018 0 0 0-1.449 1.137v-4.363h-2.43v13.453h2.412v-1.512a3.809 3.809 0 0 0 1.476 1.13 4.819 4.819 0 0 0 1.98.4 5.107 5.107 0 0 0 1.869-.361zm-3.528-2.134a3.026 3.026 0 0 1-1.656-1.657 3.122 3.122 0 0 1-.234-1.212 3.081 3.081 0 0 1 .234-1.195 2.958 2.958 0 0 1 .657-.982 3.071 3.071 0 0 1 1-.657 3.334 3.334 0 0 1 2.484 0 3.266 3.266 0 0 1 1.008.648 2.926 2.926 0 0 1 .675.974 3.027 3.027 0 0 1 .243 1.212 3.088 3.088 0 0 1-.243 1.221 2.992 2.992 0 0 1-.675.99 3.3 3.3 0 0 1-3.496.656zm7.992 2.475h2.448v-13.455h-2.448v13.453zm13.517-10.636h-2.43v5.7a3 3 0 0 1-.666 2.1 2.171 2.171 0 0 1-1.674.729 2.026 2.026 0 0 1-1.7-.7 3.018 3.018 0 0 1-.549-1.909v-5.916h-2.466v6.193a4.652 4.652 0 0 0 1.089 3.283 3.836 3.836 0 0 0 2.961 1.178 4.076 4.076 0 0 0 1.764-.359 3.507 3.507 0 0 0 1.26-.992v1.333h2.412v-10.642zm9.8 9.863a5.481 5.481 0 0 0 1.917-2.082l-2-1.163a3.075 3.075 0 0 1-2.916 1.872 3.279 3.279 0 0 1-2.142-.69 3.166 3.166 0 0 1-1.1-1.818h8.568v-.87a5.1 5.1 0 0 0-.405-2.045 4.957 4.957 0 0 0-1.125-1.628 5.074 5.074 0 0 0-1.719-1.073 6 6 0 0 0-2.169-.384 5.548 5.548 0 0 0-3.888 1.56A5.281 5.281 0 0 0 123 145.2a5.348 5.348 0 0 0 .405 2.077 5.1 5.1 0 0 0 1.134 1.691 5.246 5.246 0 0 0 1.755 1.13 6.028 6.028 0 0 0 2.268.412 5.438 5.438 0 0 0 3.001-.796zm-1.179-7.265a2.254 2.254 0 0 1 1.044 1.329h-5.976a2.666 2.666 0 0 1 1.125-1.291 3.565 3.565 0 0 1 1.9-.49 3.732 3.732 0 0 1 1.905.45zm4.446 10.165h1.512l1.26-3.709h-2.144z" transform="translate(-10.313 -97.031)"/></svg><svg width="91.06" height="40.84" viewBox="-1 -1 91.06 40.84" id="headline2" x="129.28"><defs><style>.gcls-1{fill:#fff;fill-rule:evenodd}</style></defs><path id="gheadline2.svg" class="gcls-1" d="M12.668 112.051h1.8v4a9.094 9.094 0 0 0 .207 2.118 2.985 2.985 0 0 0 .693 1.363 2.689 2.689 0 0 0 1.3.737 8.1 8.1 0 0 0 2.043.218h.342v-2.309a6.859 6.859 0 0 1-1.125-.073 1.155 1.155 0 0 1-.648-.3 1.177 1.177 0 0 1-.3-.654 6.98 6.98 0 0 1-.072-1.118v-3.982h2.142v-2.2h-2.134v-3.308l-2.448 1.69v1.618h-1.8v2.2zm7.74 8.436h2.448v-5.7a3.6 3.6 0 0 1 .189-1.208 2.5 2.5 0 0 1 .522-.888 2.225 2.225 0 0 1 .783-.542 2.454 2.454 0 0 1 .954-.187 2.2 2.2 0 0 1 1.782.7 2.89 2.89 0 0 1 .594 1.927v5.9h2.484v-6.193a4.606 4.606 0 0 0-1.107-3.283 4.008 4.008 0 0 0-3.069-1.178 4 4 0 0 0-1.809.4 3.886 3.886 0 0 0-1.341 1.091v-4.29h-2.43v13.453zm19.539-.773a5.484 5.484 0 0 0 1.917-2.082l-2-1.163a3.075 3.075 0 0 1-2.916 1.872 3.278 3.278 0 0 1-2.142-.69 3.165 3.165 0 0 1-1.1-1.818h8.568v-.87a5.1 5.1 0 0 0-.4-2.045 4.96 4.96 0 0 0-1.125-1.628 5.075 5.075 0 0 0-1.719-1.073 6 6 0 0 0-2.169-.384 5.548 5.548 0 0 0-3.888 1.56 5.281 5.281 0 0 0-1.584 3.8 5.348 5.348 0 0 0 .405 2.077 5.1 5.1 0 0 0 1.134 1.691 5.246 5.246 0 0 0 1.755 1.13 6.028 6.028 0 0 0 2.268.412 5.439 5.439 0 0 0 2.995-.789zm-1.179-7.265a2.254 2.254 0 0 1 1.044 1.329h-5.977a2.666 2.666 0 0 1 1.125-1.291 3.564 3.564 0 0 1 1.9-.49 3.732 3.732 0 0 1 1.907.452zm16.145 7.651a3.973 3.973 0 0 0 1.476-1.121v1.512h2.43v-13.457h-2.448v4.272a3.949 3.949 0 0 0-1.458-1.082 4.666 4.666 0 0 0-1.908-.391 5.393 5.393 0 0 0-1.935.36 5.027 5.027 0 0 0-1.674 1.042 5.118 5.118 0 0 0-1.17 1.674 5.52 5.52 0 0 0-.441 2.269 5.389 5.389 0 0 0 .45 2.252 5.212 5.212 0 0 0 4.734 3.075 4.639 4.639 0 0 0 1.944-.405zm-2.8-2.084a3.176 3.176 0 0 1-1.017-.658 2.992 2.992 0 0 1-.675-.99 3.088 3.088 0 0 1-.243-1.221 3.027 3.027 0 0 1 .243-1.212 2.926 2.926 0 0 1 .675-.974 3.369 3.369 0 0 1 3.528-.648 2.979 2.979 0 0 1 .99.657 3.159 3.159 0 0 1 .657.982 2.983 2.983 0 0 1 .243 1.2 3.023 3.023 0 0 1-.243 1.212 3.272 3.272 0 0 1-.657.991 2.941 2.941 0 0 1-.99.666 3.417 3.417 0 0 1-2.51-.009zm16.488 1.7a5.484 5.484 0 0 0 1.917-2.082l-2-1.163a3.075 3.075 0 0 1-2.916 1.872 3.278 3.278 0 0 1-2.142-.69 3.165 3.165 0 0 1-1.1-1.818h8.568v-.87a5.1 5.1 0 0 0-.405-2.045 4.96 4.96 0 0 0-1.123-1.63 5.075 5.075 0 0 0-1.719-1.073 6 6 0 0 0-2.169-.384 5.548 5.548 0 0 0-3.888 1.56 5.281 5.281 0 0 0-1.584 3.8 5.348 5.348 0 0 0 .4 2.077 5.1 5.1 0 0 0 1.134 1.691 5.246 5.246 0 0 0 1.755 1.13 6.028 6.028 0 0 0 2.268.412 5.439 5.439 0 0 0 3.003-.789zm-1.179-7.265a2.254 2.254 0 0 1 1.044 1.329h-5.975a2.666 2.666 0 0 1 1.125-1.291 3.564 3.564 0 0 1 1.9-.49 3.732 3.732 0 0 1 1.907.45zm12.987 7.265a5.484 5.484 0 0 0 1.917-2.082l-2-1.163a3.075 3.075 0 0 1-2.916 1.872 3.278 3.278 0 0 1-2.142-.69 3.165 3.165 0 0 1-1.1-1.818h8.568v-.87a5.1 5.1 0 0 0-.4-2.045 4.96 4.96 0 0 0-1.125-1.628 5.075 5.075 0 0 0-1.719-1.073 6 6 0 0 0-2.169-.384 5.548 5.548 0 0 0-3.888 1.56 5.281 5.281 0 0 0-1.584 3.8 5.348 5.348 0 0 0 .4 2.077 5.1 5.1 0 0 0 1.134 1.691 5.246 5.246 0 0 0 1.755 1.13 6.028 6.028 0 0 0 2.268.412 5.439 5.439 0 0 0 3.002-.791zm-1.179-7.265a2.254 2.254 0 0 1 1.044 1.329H74.3a2.666 2.666 0 0 1 1.125-1.291 3.564 3.564 0 0 1 1.9-.49 3.732 3.732 0 0 1 1.906.45zm12.5 7.7a5.093 5.093 0 0 0 1.656-1.043 5.23 5.23 0 0 0 1.179-1.673 5.393 5.393 0 0 0 .45-2.252 5.525 5.525 0 0 0-.441-2.269 5.2 5.2 0 0 0-1.161-1.674 4.953 4.953 0 0 0-1.656-1.042 5.323 5.323 0 0 0-1.926-.36 4.484 4.484 0 0 0-1.971.43 4 4 0 0 0-1.449 1.15v-1.562H84v15.526h2.412v-6.344a3.6 3.6 0 0 0 1.458 1.09 5.011 5.011 0 0 0 1.98.382 5.178 5.178 0 0 0 1.882-.364zm-3.537-2.134a2.936 2.936 0 0 1-.99-.666 3.133 3.133 0 0 1-.882-2.2 3.081 3.081 0 0 1 .234-1.2 3.026 3.026 0 0 1 .648-.982 2.973 2.973 0 0 1 .99-.657 3.243 3.243 0 0 1 1.26-.24 3.2 3.2 0 0 1 1.242.24 3.267 3.267 0 0 1 1.008.648 2.926 2.926 0 0 1 .675.974 3.027 3.027 0 0 1 .243 1.212 3.088 3.088 0 0 1-.243 1.221 2.992 2.992 0 0 1-.675.99 3.2 3.2 0 0 1-2.25.9 3.261 3.261 0 0 1-1.258-.245zm-75.147 22.47h2.448v-10.636h-2.448v10.636zm.09-12.126a1.486 1.486 0 0 0 1.134.418 1.493 1.493 0 0 0 1.125-.418 1.528 1.528 0 0 0 .4-1.109 1.558 1.558 0 0 0-.4-1.118 1.476 1.476 0 0 0-1.125-.428 1.482 1.482 0 0 0-1.116.428 1.733 1.733 0 0 0-.018 2.227zm9.846 11.832a4.119 4.119 0 0 0 1.341-.806 3.235 3.235 0 0 0 .783-1.076 2.8 2.8 0 0 0 .252-1.118 2.45 2.45 0 0 0-.333-1.327 2.74 2.74 0 0 0-.873-.866 4.973 4.973 0 0 0-1.2-.537 12.291 12.291 0 0 0-1.3-.321 14.3 14.3 0 0 1-1.8-.46.761.761 0 0 1-.612-.719.96.96 0 0 1 .414-.763 2.036 2.036 0 0 1 1.278-.33 2.765 2.765 0 0 1 1.332.311 2.316 2.316 0 0 1 .9.846l2.07-.988a4.444 4.444 0 0 0-1.665-1.612 5.32 5.32 0 0 0-2.637-.593 5.415 5.415 0 0 0-1.7.252 4.1 4.1 0 0 0-1.3.684 3.17 3.17 0 0 0-.837 1 2.659 2.659 0 0 0 .027 2.5 2.693 2.693 0 0 0 .846.867 4.394 4.394 0 0 0 1.179.529q.657.19 1.341.329l.936.191a4.608 4.608 0 0 1 .783.216 1.931 1.931 0 0 1 .54.3.56.56 0 0 1 .207.45 1.087 1.087 0 0 1-.45.867 2.114 2.114 0 0 1-1.35.364 2.965 2.965 0 0 1-1.52-.383 2.684 2.684 0 0 1-1.026-1.074l-2.25 1.023a4.438 4.438 0 0 0 1.782 1.9 5.8 5.8 0 0 0 2.9.656 5.413 5.413 0 0 0 1.942-.312zm14.976-.1a3.981 3.981 0 0 0 1.476-1.12v1.511h2.43v-13.45h-2.449v4.272a3.949 3.949 0 0 0-1.458-1.082 4.666 4.666 0 0 0-1.908-.391 5.393 5.393 0 0 0-1.935.36 5.027 5.027 0 0 0-1.674 1.042 5.118 5.118 0 0 0-1.17 1.674 5.52 5.52 0 0 0-.441 2.269 5.389 5.389 0 0 0 .45 2.252 5.212 5.212 0 0 0 4.734 3.075 4.639 4.639 0 0 0 1.944-.405zm-2.8-2.084a3.176 3.176 0 0 1-1.017-.658 2.992 2.992 0 0 1-.675-.99 3.088 3.088 0 0 1-.243-1.221 3.027 3.027 0 0 1 .243-1.212 2.926 2.926 0 0 1 .675-.974 3.369 3.369 0 0 1 3.528-.648 2.979 2.979 0 0 1 .99.657 3.159 3.159 0 0 1 .657.982 2.983 2.983 0 0 1 .243 1.195 3.023 3.023 0 0 1-.243 1.212 3.272 3.272 0 0 1-.657.991 2.941 2.941 0 0 1-.99.666 3.417 3.417 0 0 1-2.511.003zm16.488 1.7a5.484 5.484 0 0 0 1.917-2.082l-2-1.163a3.075 3.075 0 0 1-2.916 1.872 3.278 3.278 0 0 1-2.142-.69 3.165 3.165 0 0 1-1.1-1.818h8.568v-.87a5.1 5.1 0 0 0-.405-2.045 4.96 4.96 0 0 0-1.125-1.628 5.075 5.075 0 0 0-1.719-1.073 6 6 0 0 0-2.169-.384 5.548 5.548 0 0 0-3.888 1.56 5.281 5.281 0 0 0-1.584 3.8 5.348 5.348 0 0 0 .405 2.077 5.1 5.1 0 0 0 1.134 1.691 5.246 5.246 0 0 0 1.755 1.13 6.028 6.028 0 0 0 2.268.412 5.439 5.439 0 0 0 3.001-.784zm-1.179-7.265a2.254 2.254 0 0 1 1.044 1.329h-5.976a2.666 2.666 0 0 1 1.125-1.291 3.564 3.564 0 0 1 1.9-.49 3.732 3.732 0 0 1 1.907.457zm12.987 7.265a5.484 5.484 0 0 0 1.917-2.082l-2-1.163a3.075 3.075 0 0 1-2.916 1.872 3.278 3.278 0 0 1-2.142-.69 3.165 3.165 0 0 1-1.1-1.818h8.568v-.87a5.1 5.1 0 0 0-.405-2.045 4.96 4.96 0 0 0-1.125-1.628 5.075 5.075 0 0 0-1.719-1.073 6 6 0 0 0-2.169-.384 5.548 5.548 0 0 0-3.888 1.56 5.281 5.281 0 0 0-1.584 3.8 5.348 5.348 0 0 0 .4 2.077 5.1 5.1 0 0 0 1.134 1.691 5.246 5.246 0 0 0 1.755 1.13 6.028 6.028 0 0 0 2.268.412 5.439 5.439 0 0 0 3.006-.784zm-1.179-7.265a2.254 2.254 0 0 1 1.044 1.329h-5.976a2.666 2.666 0 0 1 1.125-1.291 3.564 3.564 0 0 1 1.9-.49 3.732 3.732 0 0 1 1.907.457zm12.5 7.7a5.093 5.093 0 0 0 1.656-1.043 5.23 5.23 0 0 0 1.179-1.673 5.393 5.393 0 0 0 .45-2.252 5.525 5.525 0 0 0-.441-2.269 5.2 5.2 0 0 0-1.161-1.674 4.953 4.953 0 0 0-1.656-1.042 5.323 5.323 0 0 0-1.926-.36 4.484 4.484 0 0 0-1.971.43 4 4 0 0 0-1.449 1.15v-1.562h-2.411v15.526h2.412v-6.344a3.6 3.6 0 0 0 1.458 1.09 5.011 5.011 0 0 0 1.98.382 5.178 5.178 0 0 0 1.881-.357zm-3.537-2.134a2.936 2.936 0 0 1-.99-.666 3.133 3.133 0 0 1-.882-2.2 3.081 3.081 0 0 1 .234-1.195 3.026 3.026 0 0 1 .648-.982 2.973 2.973 0 0 1 .99-.657 3.243 3.243 0 0 1 1.26-.24 3.2 3.2 0 0 1 1.242.24 3.267 3.267 0 0 1 1.008.648 2.926 2.926 0 0 1 .675.974 3.027 3.027 0 0 1 .243 1.212 3.088 3.088 0 0 1-.243 1.221 2.992 2.992 0 0 1-.675.99 3.2 3.2 0 0 1-2.25.9 3.261 3.261 0 0 1-1.259-.243zm16.317 1.7a5.484 5.484 0 0 0 1.917-2.082l-2-1.163a3.075 3.075 0 0 1-2.916 1.872 3.278 3.278 0 0 1-2.142-.69 3.165 3.165 0 0 1-1.1-1.818h8.568v-.87a5.1 5.1 0 0 0-.405-2.045 4.96 4.96 0 0 0-1.125-1.628 5.075 5.075 0 0 0-1.719-1.073 6 6 0 0 0-2.169-.384 5.548 5.548 0 0 0-3.888 1.56A5.281 5.281 0 0 0 79 135.2a5.348 5.348 0 0 0 .405 2.077 5.1 5.1 0 0 0 1.134 1.691 5.246 5.246 0 0 0 1.755 1.13 6.028 6.028 0 0 0 2.268.412 5.439 5.439 0 0 0 2.994-.796zm-1.179-7.265a2.254 2.254 0 0 1 1.044 1.329h-5.975a2.666 2.666 0 0 1 1.125-1.291 3.564 3.564 0 0 1 1.9-.49 3.732 3.732 0 0 1 1.907.456zm4.77 8.038h2.43v-5.672a2.937 2.937 0 0 1 .549-1.991 2.058 2.058 0 0 1 1.611-.609 2.6 2.6 0 0 1 .855.118 2.7 2.7 0 0 1 .6.3l.918-2.327a3.766 3.766 0 0 0-.819-.327 3.869 3.869 0 0 0-1.035-.128 2.714 2.714 0 0 0-2.7 1.582v-1.582h-2.408v10.636zm8.019-.391a1.4 1.4 0 0 0 1.071.409 1.435 1.435 0 0 0 1.08-.409 1.469 1.469 0 0 0 .4-1.064 1.511 1.511 0 0 0-.387-1.081 1.405 1.405 0 0 0-1.071-.409 1.432 1.432 0 0 0-1.08.409 1.665 1.665 0 0 0-.012 2.153z" transform="translate(-12.656 -106.531)"/></svg><svg width="127.88" height="18.63" viewBox="-1 -1 127.88 18.63" id="headline_ef" y="57.59"><defs><style>.hcls-1{fill:#fff;fill-rule:evenodd}</style></defs><path id="hheadline_ef.svg" class="hcls-1" d="M720.266 204.05h2.157l.684-1.99h4.3l.684 1.99h2.157l-3.95-11.178h-2.082zm5-8.223l1.458 4.242h-2.917zm10.94 7.976a3.487 3.487 0 0 0 1.132-.679 2.742 2.742 0 0 0 .661-.906 2.37 2.37 0 0 0 .212-.942 2.051 2.051 0 0 0-.281-1.117 2.3 2.3 0 0 0-.737-.731 4.194 4.194 0 0 0-1.01-.453 10.841 10.841 0 0 0-1.1-.27 12.059 12.059 0 0 1-1.519-.387.641.641 0 0 1-.517-.606.811.811 0 0 1 .35-.643 1.728 1.728 0 0 1 1.078-.277 2.331 2.331 0 0 1 1.125.262 1.954 1.954 0 0 1 .76.712l1.747-.832a3.75 3.75 0 0 0-1.406-1.358 4.492 4.492 0 0 0-2.226-.5 4.562 4.562 0 0 0-1.435.212 3.476 3.476 0 0 0-1.1.576 2.687 2.687 0 0 0-.707.84 2.08 2.08 0 0 0-.25.985 2.1 2.1 0 0 0 .273 1.117 2.283 2.283 0 0 0 .714.73 3.733 3.733 0 0 0 1 .445q.553.16 1.132.277c.273.059.536.112.79.161a3.867 3.867 0 0 1 .661.183 1.628 1.628 0 0 1 .456.255.472.472 0 0 1 .174.38.916.916 0 0 1-.38.73 1.79 1.79 0 0 1-1.139.306 2.507 2.507 0 0 1-1.277-.316 2.267 2.267 0 0 1-.866-.9l-1.9.861a3.745 3.745 0 0 0 1.5 1.6 4.9 4.9 0 0 0 2.447.553 4.584 4.584 0 0 0 1.637-.271zm6.913.247h2.051v-4.777a2.465 2.465 0 0 1 .464-1.677 1.737 1.737 0 0 1 1.359-.513 2.208 2.208 0 0 1 .722.1 2.282 2.282 0 0 1 .509.253l.775-1.96a3.213 3.213 0 0 0-.691-.276 3.3 3.3 0 0 0-.874-.107 2.29 2.29 0 0 0-2.279 1.332v-1.332h-2.036v8.958zm13.333-.65a4.63 4.63 0 0 0 1.618-1.754l-1.686-.98a2.592 2.592 0 0 1-2.462 1.577 2.768 2.768 0 0 1-1.808-.581 2.667 2.667 0 0 1-.927-1.532h7.233v-.73a4.292 4.292 0 0 0-.342-1.723 4.18 4.18 0 0 0-.95-1.371 4.3 4.3 0 0 0-1.451-.9 5.081 5.081 0 0 0-1.831-.323 4.64 4.64 0 0 0-1.815.354 4.69 4.69 0 0 0-1.467.959 4.444 4.444 0 0 0-1.337 3.2 4.5 4.5 0 0 0 .342 1.749 4.294 4.294 0 0 0 .957 1.424 4.444 4.444 0 0 0 1.482.952 5.106 5.106 0 0 0 1.914.347 4.6 4.6 0 0 0 2.529-.668zm-1-6.119a1.9 1.9 0 0 1 .881 1.119h-5.044a2.245 2.245 0 0 1 .949-1.088 3.019 3.019 0 0 1 1.6-.413 3.144 3.144 0 0 1 1.618.382zm9.755 6.441a3.364 3.364 0 0 0 1.246-.945v1.273h2.051v-8.958h-2.051v1.182a3.4 3.4 0 0 0-1.231-.876 4.061 4.061 0 0 0-1.626-.321 4.564 4.564 0 0 0-1.633.3 4.238 4.238 0 0 0-1.413.878 4.282 4.282 0 0 0-.988 1.409 4.649 4.649 0 0 0-.372 1.912 4.515 4.515 0 0 0 .38 1.9 4.4 4.4 0 0 0 4 2.591 3.94 3.94 0 0 0 1.641-.345zm-2.363-1.756a2.685 2.685 0 0 1-.858-.554 2.511 2.511 0 0 1-.57-.834 2.593 2.593 0 0 1-.2-1.029 2.544 2.544 0 0 1 .2-1.021 2.463 2.463 0 0 1 .57-.82 2.734 2.734 0 0 1 .858-.546 2.882 2.882 0 0 1 2.12 0 2.514 2.514 0 0 1 .835.554 2.648 2.648 0 0 1 .555.827 2.5 2.5 0 0 1 .205 1.006 2.537 2.537 0 0 1-.205 1.021 2.757 2.757 0 0 1-.555.835 2.486 2.486 0 0 1-.835.561 2.9 2.9 0 0 1-2.116 0zm6.982 2.084h2.074v-11.331h-2.07v11.331zm13.006-.328a3.356 3.356 0 0 0 1.246-.945v1.273h2.051v-8.958h-2.051v1.182a3.4 3.4 0 0 0-1.231-.876 4.061 4.061 0 0 0-1.626-.321 4.564 4.564 0 0 0-1.633.3 4.238 4.238 0 0 0-1.413.878 4.3 4.3 0 0 0-.988 1.409 4.649 4.649 0 0 0-.372 1.912 4.515 4.515 0 0 0 .38 1.9 4.4 4.4 0 0 0 4 2.591 3.94 3.94 0 0 0 1.641-.345zm-2.363-1.756a2.685 2.685 0 0 1-.858-.554 2.526 2.526 0 0 1-.57-.834 2.593 2.593 0 0 1-.2-1.029 2.544 2.544 0 0 1 .2-1.021 2.478 2.478 0 0 1 .57-.82 2.734 2.734 0 0 1 .858-.546 2.882 2.882 0 0 1 2.12 0 2.528 2.528 0 0 1 .836.554 2.663 2.663 0 0 1 .554.827 2.5 2.5 0 0 1 .205 1.006 2.537 2.537 0 0 1-.205 1.021 2.772 2.772 0 0 1-.554.835 2.5 2.5 0 0 1-.836.561 2.9 2.9 0 0 1-2.116 0zm11.966 1.837a3.477 3.477 0 0 0 1.132-.679 2.742 2.742 0 0 0 .661-.906 2.37 2.37 0 0 0 .212-.942 2.051 2.051 0 0 0-.281-1.117 2.3 2.3 0 0 0-.737-.731 4.177 4.177 0 0 0-1.01-.453 10.841 10.841 0 0 0-1.1-.27 12.059 12.059 0 0 1-1.519-.387.641.641 0 0 1-.517-.606.811.811 0 0 1 .35-.643 1.729 1.729 0 0 1 1.079-.277 2.329 2.329 0 0 1 1.124.262 1.954 1.954 0 0 1 .76.712l1.747-.832a3.747 3.747 0 0 0-1.4-1.358 4.5 4.5 0 0 0-2.226-.5 4.564 4.564 0 0 0-1.436.212 3.476 3.476 0 0 0-1.1.576 2.67 2.67 0 0 0-.706.84 2.07 2.07 0 0 0-.251.985 2.1 2.1 0 0 0 .273 1.117 2.294 2.294 0 0 0 .714.73 3.733 3.733 0 0 0 1 .445q.553.16 1.132.277c.273.059.536.112.79.161a3.867 3.867 0 0 1 .661.183 1.628 1.628 0 0 1 .456.255.472.472 0 0 1 .174.38.913.913 0 0 1-.38.73 1.79 1.79 0 0 1-1.139.306 2.5 2.5 0 0 1-1.276-.316 2.263 2.263 0 0 1-.867-.9l-1.9.861a3.745 3.745 0 0 0 1.5 1.6 4.906 4.906 0 0 0 2.447.553 4.584 4.584 0 0 0 1.637-.271zm6.913.247h2.066v-8.958h-2.066v8.958zm.076-10.214a1.464 1.464 0 0 0 1.907 0 1.282 1.282 0 0 0 .342-.934 1.311 1.311 0 0 0-.342-.941 1.423 1.423 0 0 0-1.892 0 1.458 1.458 0 0 0-.011 1.875zm3.008 3.109h1.52v3.369a7.675 7.675 0 0 0 .174 1.784 2.521 2.521 0 0 0 .585 1.148 2.279 2.279 0 0 0 1.1.621 6.869 6.869 0 0 0 1.725.183h.288v-1.944a5.817 5.817 0 0 1-.949-.062.978.978 0 0 1-.547-.252.994.994 0 0 1-.251-.552 5.794 5.794 0 0 1-.061-.941v-3.354h1.808v-1.853h-1.808v-2.787l-2.066 1.424v1.363h-1.52v1.853zm17.4 6.784a2.824 2.824 0 0 1-.175.98 2.394 2.394 0 0 1-1.3 1.393 2.5 2.5 0 0 1-1.049.215 2.782 2.782 0 0 1-1.671-.444 3.961 3.961 0 0 1-1.094-1.348l-1.823 1.118a5.1 5.1 0 0 0 .729 1.034 4.524 4.524 0 0 0 .988.811 4.817 4.817 0 0 0 1.268.536 6 6 0 0 0 1.573.192 5.152 5.152 0 0 0 1.983-.356 3.993 3.993 0 0 0 2.309-2.4 5.1 5.1 0 0 0 .3-1.754v-8.618h-2.051v1.265a3.467 3.467 0 0 0-1.231-.934 3.81 3.81 0 0 0-1.626-.346 4.56 4.56 0 0 0-1.633.3 4.252 4.252 0 0 0-1.414.878 4.3 4.3 0 0 0-.987 1.409 4.633 4.633 0 0 0-.372 1.912 4.53 4.53 0 0 0 .379 1.9 4.406 4.406 0 0 0 4 2.591 3.756 3.756 0 0 0 1.656-.368 3.386 3.386 0 0 0 1.246-1.01v1.041zm-3.624-1.763a2.69 2.69 0 0 1-.859-.554 2.508 2.508 0 0 1-.569-.834 2.594 2.594 0 0 1-.206-1.029 2.545 2.545 0 0 1 .206-1.021 2.46 2.46 0 0 1 .569-.82 2.739 2.739 0 0 1 .859-.546 2.88 2.88 0 0 1 2.119 0 2.508 2.508 0 0 1 .836.554 2.648 2.648 0 0 1 .555.827 2.521 2.521 0 0 1 .2 1.006 2.554 2.554 0 0 1-.2 1.021 2.757 2.757 0 0 1-.555.835 2.48 2.48 0 0 1-.836.561 2.893 2.893 0 0 1-2.117 0zm13.948 1.434a4.63 4.63 0 0 0 1.618-1.754l-1.686-.98a2.592 2.592 0 0 1-2.462 1.577 2.768 2.768 0 0 1-1.808-.581 2.667 2.667 0 0 1-.927-1.532h7.233v-.73a4.292 4.292 0 0 0-.342-1.723 4.18 4.18 0 0 0-.95-1.371 4.3 4.3 0 0 0-1.451-.9 5.081 5.081 0 0 0-1.831-.323 4.64 4.64 0 0 0-1.815.354 4.69 4.69 0 0 0-1.467.959 4.444 4.444 0 0 0-1.337 3.2 4.5 4.5 0 0 0 .342 1.749 4.294 4.294 0 0 0 .957 1.424 4.444 4.444 0 0 0 1.482.952 5.106 5.106 0 0 0 1.914.347 4.6 4.6 0 0 0 2.532-.668zm-1-6.119a1.9 1.9 0 0 1 .881 1.119H825a2.245 2.245 0 0 1 .949-1.088 3.019 3.019 0 0 1 1.6-.413 3.144 3.144 0 0 1 1.614.382zm3.328-.336h1.519v3.369a7.615 7.615 0 0 0 .175 1.784 2.5 2.5 0 0 0 .585 1.148 2.271 2.271 0 0 0 1.1.621 6.869 6.869 0 0 0 1.725.183h.289v-1.944a5.831 5.831 0 0 1-.95-.062.981.981 0 0 1-.547-.252 1 1 0 0 1-.251-.552 5.91 5.91 0 0 1-.061-.941v-3.354h1.809v-1.853h-1.809v-2.787l-2.066 1.424v1.363h-1.519v1.853zm11.676 6.855a3.477 3.477 0 0 0 1.132-.679 2.742 2.742 0 0 0 .661-.906 2.37 2.37 0 0 0 .212-.942 2.051 2.051 0 0 0-.281-1.117 2.3 2.3 0 0 0-.737-.731 4.177 4.177 0 0 0-1.01-.453 10.841 10.841 0 0 0-1.1-.27 12.059 12.059 0 0 1-1.519-.387.641.641 0 0 1-.517-.606.811.811 0 0 1 .35-.643 1.728 1.728 0 0 1 1.078-.277 2.331 2.331 0 0 1 1.125.262 1.954 1.954 0 0 1 .76.712l1.747-.832a3.742 3.742 0 0 0-1.406-1.358 4.492 4.492 0 0 0-2.226-.5 4.562 4.562 0 0 0-1.435.212 3.476 3.476 0 0 0-1.1.576 2.687 2.687 0 0 0-.707.84 2.08 2.08 0 0 0-.25.985 2.1 2.1 0 0 0 .273 1.117 2.283 2.283 0 0 0 .714.73 3.733 3.733 0 0 0 1 .445q.553.16 1.132.277c.273.059.536.112.79.161a3.867 3.867 0 0 1 .661.183 1.628 1.628 0 0 1 .456.255.472.472 0 0 1 .174.38.913.913 0 0 1-.38.73 1.79 1.79 0 0 1-1.139.306 2.5 2.5 0 0 1-1.276-.316 2.263 2.263 0 0 1-.867-.9l-1.9.861a3.745 3.745 0 0 0 1.5 1.6 4.9 4.9 0 0 0 2.447.553 4.584 4.584 0 0 0 1.638-.268z" transform="translate(-720.281 -191.594)"/></svg><svg id="legal" width="102" height="11" viewBox="-1 -1 102 11" y="76.22"><style>.ist0{fill:#fff}</style><path class="ist0" d="M2.9 3.5l-.7-.2c-.3-.1-.6-.3-.9-.5-.3-.4-.3-1.1.1-1.6.3-.1.6-.3.9-.3h.1c.6.1 1.1.2 1.6.4h.1c.1 0 .1 0 .2-.1l.1-.3V.7L4.3.6C4 .5 3.7.4 3.4.4 3.1.3 2.8.3 2.5.3h-.1c-.5 0-1 .2-1.4.5-.5.3-.7.8-.6 1.3 0 .4.1.9.4 1.2.3.3.7.6 1.2.7l.7.2c.3 0 .6.2.9.4.4.5.3 1.2-.1 1.6-.3.2-.6.3-1 .3h-.1c-.6 0-1.2-.2-1.7-.4H.6.5c-.1 0-.1.1-.1.1l-.1.3c0 .1 0 .2.1.3l.9.3c.3.1.7.1 1 .1h.1c.5 0 1-.2 1.4-.5.4-.4.6-.9.6-1.4 0-.4-.1-.9-.4-1.2-.2-.3-.6-.5-1.1-.6zM37.8 2.4c-.2-.2-.6-.4-1-.4-.6 0-1.1.2-1.5.7-.1-.2-.2-.3-.4-.4-.3-.2-.6-.3-1-.3-.5 0-.9.2-1.3.5v-.2c0-.1-.1-.2-.2-.2h-.3c-.1 0-.2.1-.2.2V7c0 .1.1.2.2.2h.3c.1 0 .2-.1.2-.2V3.3c.2-.2.4-.3.7-.5.2-.1.4-.2.7-.2.2 0 .4.1.5.2.2.2.2.5.2.8V7c0 .1.1.2.2.2h.3c.1 0 .2-.1.2-.2V3.6v-.3c.2-.2.4-.3.6-.5.2-.1.4-.2.7-.2.2 0 .4.1.5.2.2.2.2.5.2.8V7c0 .1.1.2.2.2h.4c.1 0 .2-.1.2-.2V3.7c.1-.5-.1-.9-.4-1.3zM30.1.5c-.1 0-.2.1-.3.1-.1.1-.1.2-.1.3 0 .1 0 .3.1.4.1.1.2.1.3.1.1 0 .2-.1.3-.1.1-.1.1-.2.1-.3 0-.1 0-.3-.1-.4-.1-.1-.2-.1-.3-.1zM42.4 2.4c-.3-.2-.7-.4-1.2-.4-.2 0-.5 0-.7.1-.2.1-.4.1-.6.2-.1 0-.1.2-.1.2l.1.3c0 .1.1.1.1.1h.2c.3-.2.7-.3 1.1-.3.2 0 .5.1.6.2.2.2.3.5.3.8v.2h-.1c-.7 0-1.4.1-2 .4-.5.3-.8.8-.8 1.4 0 .4.1.8.4 1.1.3.3.7.4 1.1.4h.1c.5 0 .9-.2 1.3-.5V7c0 .1.1.2.2.2h.3c.1 0 .2-.1.2-.2V3.7c0-.5-.2-.9-.5-1.3zm-1.6 4.2c-.3 0-.5-.1-.7-.2-.1-.2-.2-.4-.2-.7 0-.4.2-.7.5-.8.5-.2 1.1-.3 1.7-.3V6c-.2.2-.4.4-.6.5-.2 0-.4.1-.7.1zM14.7 2h-.1c-.6 0-1.1.3-1.4.7-.4.6-.5 1.2-.5 1.9s.2 1.4.6 1.9c.4.5.9.7 1.5.7h.1c.3 0 .5 0 .8-.1.2-.1.5-.2.7-.4.1-.1.1-.2 0-.3l-.1-.2-.1-.1h-.1c-.3.2-.7.4-1.2.4-.4 0-.7-.2-1-.5-.3-.4-.4-.8-.4-1.3h3c.1 0 .2-.1.2-.2v-.3c0-.6-.1-1.2-.5-1.8-.5-.2-.9-.4-1.5-.4zm-.1.7h.1c.3 0 .6.1.8.4.2.3.3.7.4 1.1h-2.5c0-.4.2-.8.4-1.1.1-.3.4-.4.8-.4zM30.2 2.1h-.3c-.1 0-.2.1-.2.2V7c0 .1.1.2.2.2h.3c.1 0 .2-.1.2-.2V2.3c0-.1 0-.2-.2-.2zM8.6 6.4l-.1-.1h-.1c-.4.2-.7.3-1.2.3-.4 0-.7-.2-.9-.5-.3-.5-.4-1-.4-1.6 0-.5.1-1 .4-1.4.2-.3.5-.5.9-.5.4.1.8.2 1.1.4h.2l.1-.1.1-.2c0-.1 0-.2-.1-.3L8 2.1C7.7 2 7.5 2 7.2 2c-.4 0-.7.1-1 .3-.4.3-.6.6-.8.9-.1.5-.2.9-.2 1.3 0 .7.1 1.4.5 2 .4.5.9.8 1.5.8h.1c.3 0 .5 0 .7-.1.3-.1.5-.2.7-.3.1-.1.1-.2.1-.3l-.2-.2zM19.4 2h-.1c-.6 0-1.1.3-1.4.7-.4.6-.5 1.2-.5 1.9s.2 1.4.6 1.9c.4.5.9.7 1.5.7h.1c.3 0 .5 0 .8-.1.2-.1.5-.2.7-.4.1-.1.1-.2 0-.3l-.1-.2-.1-.1h-.1c-.3.2-.7.4-1.2.4-.4 0-.7-.2-1-.5-.4-.3-.6-.7-.6-1.1h3c.1 0 .2-.1.2-.2v-.3c0-.6-.1-1.2-.5-1.8-.3-.4-.8-.6-1.3-.6zm-.2.7h.1c.3 0 .6.1.8.4.2.3.3.7.4 1.1H18c0-.4.2-.8.4-1.1.2-.3.5-.4.8-.4zM25.5 2.4c-.3-.2-.6-.4-1.1-.4-.3 0-.6.1-.9.2-.2.1-.3.2-.4.3v-.2c0-.1-.1-.2-.2-.2h-.3c-.1 0-.2.1-.2.2V7c0 .1.1.2.2.2h.3c.1 0 .1-.1.1-.2V3.3c.2-.2.4-.3.6-.5.2-.1.4-.2.7-.2.2 0 .4.1.6.2.2.2.3.5.2.8V7c0 .1.1.2.2.2h.3c.1 0 .2-.1.2-.2V3.7c.2-.5 0-.9-.3-1.3zM12.2 2.1c-.2 0-.4-.1-.7-.1-.3 0-.5.1-.8.2-.1.1-.2.1-.3.2v-.1c0-.1-.1-.2-.2-.2h-.3c-.1 0-.2.1-.2.2V7c0 .1.1.2.2.2h.3c.1 0 .2-.1.2-.2V3.4c.1-.2.3-.4.5-.6.2-.1.3-.2.5-.2s.3 0 .5.1h.2l.1-.1.1-.3c.1 0 0-.1-.1-.2zM84.3 2.4c-.3-.3-.7-.4-1.2-.4-.2 0-.5 0-.7.1-.2.1-.4.1-.7.2-.1 0-.1.2-.1.2l.1.3c0 .1.1.1.1.1h.1l.1.1c.3-.2.7-.3 1.1-.3.2 0 .5.1.6.2.2.2.3.5.3.8v.2h-.1c-.7 0-1.4.1-2 .4-.5.3-.8.8-.8 1.4 0 .4.1.8.4 1.1.3.3.7.4 1.1.4h.1c.5 0 .9-.2 1.3-.5V7c0 .1.1.2.2.2h.3c.1 0 .2-.1.2-.2V3.7c.1-.5-.1-.9-.4-1.3zm-1.6 4.2c-.2 0-.4-.1-.6-.2-.2-.2-.2-.4-.2-.6 0-.4.2-.7.5-.8.5-.2 1.1-.3 1.7-.3V6c-.2.2-.4.4-.6.5-.3 0-.5.1-.8.1zM80.5 6.5H79.9c0-.1-.1-.1-.1-.2V.2c0-.2-.1-.2-.2-.2h-.3c-.1 0-.2.1-.2.2v6.1c0 .2.1.5.2.7.2.2.4.2.6.2h.1c.2 0 .3 0 .5-.1.1 0 .2-.1.1-.2v-.3l-.1-.1zM88.3 6.5h-.1-.1c-.2 0-.3.1-.5.1s-.3-.1-.4-.2c-.1-.2-.2-.4-.1-.6v-3h1.2c.1 0 .2-.1.2-.2v-.3c0-.1-.1-.2-.2-.2h-1.2V.9c0-.1-.1-.2-.2-.2h-.3c-.1 0-.2.1-.2.2v1.2h-.6c-.1 0-.2.1-.2.2v.3c0 .1.1.2.2.2h.6v3c0 .4.1.7.4 1 .2.2.5.4.9.4h.1c.2 0 .4 0 .7-.1.1 0 .2-.1.1-.2l-.1-.3c-.1 0-.2-.1-.2-.1zM99.6 6.4c-.1-.1-.2-.1-.4-.1-.1 0-.3.1-.4.2-.2.2-.2.5 0 .7.1.1.2.1.3.1.1 0 .3-.1.4-.2.1-.1.1-.2.1-.4.1-.1.1-.2 0-.3zM77.5 2.1h-.3c-.1 0-.2.1-.2.2v3.6c-.2.2-.4.4-.6.5-.2.1-.4.2-.7.2-.2 0-.4-.1-.6-.2-.2-.2-.2-.5-.2-.8V2.3c0-.1-.1-.2-.2-.2h-.3c-.1 0-.2.1-.2.2v3.3c0 .4.1.9.4 1.2.3.3.7.4 1.1.4h.1c.5 0 .9-.2 1.3-.5V7c0 .1.1.2.2.2h.3c.1 0 .2-.1.2-.2V2.3c-.1-.1-.2-.2-.3-.2zM91 2h-.1c-.6 0-1.1.3-1.4.7-.4.6-.5 1.2-.5 1.9s.2 1.4.6 1.9c.2.5.8.8 1.4.8h.1c.3 0 .5 0 .8-.1.2-.1.5-.2.7-.4.1-.1.1-.2 0-.3l-.1-.2-.1-.1h-.1c-.3.2-.7.4-1.2.4-.4 0-.7-.2-1-.5-.3-.4-.4-.8-.4-1.3h3c.1 0 .2-.1.2-.2v-.3c0-.6-.1-1.2-.5-1.8-.4-.3-.9-.5-1.4-.5zm-.2.7h.2c.3 0 .6.1.8.4.2.3.3.7.4 1.1h-2.5c0-.4.2-.8.4-1.1.1-.3.4-.4.7-.4zM97.3 0H97h-.1c-.1 0-.2.1-.2.2v2.3c-.3-.4-.7-.5-1.3-.5-.5 0-1.1.3-1.4.7-.3.6-.5 1.2-.5 1.9s.1 1.3.5 1.9c.3.5.8.7 1.4.7h.1c.5 0 .9-.2 1.3-.5V7c0 .1.1.2.2.2h.3c.1 0 .2-.1.2-.2V.2c0-.1-.1-.2-.2-.2zm-1.1 6.4c-.2.1-.4.2-.6.2h-.1c-.3 0-.7-.2-.8-.5-.3-.5-.4-1-.3-1.5 0-.5.1-1 .3-1.5.2-.3.5-.4.9-.4.2 0 .5.1.7.2.2.1.4.3.5.5v2.5c-.2.2-.4.4-.6.5zM64.6.5c-.1 0-.2.1-.3.1-.1.1-.1.2-.1.3 0 .1 0 .3.1.4.1.1.2.1.3.1.1 0 .2-.1.3-.1.1-.1.2-.2.2-.3 0-.1 0-.3-.1-.4-.1-.1-.3-.1-.4-.1zM55.6 4.3l-.6-.2c-.2 0-.4-.1-.5-.3-.1-.1-.2-.3-.2-.5s.1-.4.2-.5c.2-.1.4-.2.7-.2.4 0 .8.1 1.2.3h.2c.1 0 .1-.1.1-.1l.1-.3c0-.1 0-.2-.1-.3-.5-.1-1-.2-1.5-.2h-.1c-.4 0-.8.1-1.1.4-.3.3-.5.7-.4 1.1 0 .3.1.6.3.9.3.2.6.4.9.5l.6.1c.2 0 .4.1.5.3.1.1.2.3.2.5s-.1.4-.2.6c-.2.1-.4.2-.7.2v.2l-.1-.2c-.4 0-.9-.1-1.2-.4h-.1-.1c-.1 0-.1.1-.1.1l-.1.3c0 .1 0 .2.1.2.2.2.4.3.7.4.3.1.6.1.8.1h.1c.4 0 .8-.1 1.1-.4.3-.3.5-.7.5-1.1 0-.3-.1-.7-.3-1-.3-.3-.6-.4-.9-.5zM72.3 2.4c-.2-.2-.6-.4-1.1-.4-.6 0-1.1.3-1.5.7-.1-.2-.2-.3-.4-.4-.2-.2-.5-.3-.8-.3-.5 0-.9.2-1.3.5v-.2c0-.1-.1-.2-.2-.2h-.3c-.1 0-.2.1-.2.2V7c0 .1.1.2.2.2h.3c.1 0 .2-.1.2-.2V3.3c.2-.2.4-.3.6-.5.2-.1.4-.2.7-.2.2 0 .4.1.5.2.2.2.2.5.2.8V7c0 .1.1.2.2.2h.3c.2 0 .3-.1.3-.2V3.6v-.3c.2-.2.4-.3.6-.5.2-.1.4-.2.7-.2.2 0 .4.1.5.2.2.3.3.6.2.9V7c0 .1.1.2.2.2h.3c.1 0 .2-.1.2-.2V3.7c.1-.5-.1-.9-.4-1.3zM51 2h-.1c-.6 0-1.1.3-1.4.7-.5.6-.6 1.3-.6 1.9 0 .7.2 1.4.6 1.9.3.5.9.8 1.5.8h.1c.3 0 .5 0 .8-.1.2-.1.5-.2.7-.4.1-.1.1-.2 0-.3l-.1-.2c0-.1-.1-.1-.1-.1h-.1c-.3.2-.7.4-1.2.4-.4 0-.7-.2-1-.5-.3-.4-.4-.8-.4-1.3h3c.1 0 .2-.1.2-.2v-.3c0-.6-.1-1.2-.5-1.8-.4-.3-.9-.5-1.4-.5zm-.2.7h.1c.3 0 .6.1.8.4.2.3.3.7.4 1.1h-2.5c0-.4.2-.8.4-1.1.2-.3.5-.4.8-.4zM61.9 4.3l-.6-.2c-.2 0-.4-.1-.5-.3-.1-.1-.2-.3-.2-.5s.1-.4.2-.5c.2-.1.4-.2.7-.2.4 0 .8.1 1.2.3h.2c.1 0 .1-.1.1-.1v-.1c0-.1 0-.2-.1-.3-.4-.3-.9-.4-1.4-.4h-.1c-.4 0-.8.1-1.1.4-.3.3-.5.7-.4 1.1 0 .3.1.6.3.9.3.2.6.4.9.5l.6.1c.2 0 .4.1.5.3.1.1.2.3.2.5s-.1.4-.2.6c-.2.1-.4.2-.7.2v.2l-.1-.2c-.4 0-.9-.1-1.2-.4h-.1-.1c-.1 0-.1.1-.1.1l-.1.3c0 .1 0 .2.1.2.2.2.5.3.7.3.3.1.6.1.8.1h.1c.4 0 .8-.1 1.1-.4.3-.3.5-.7.5-1.1 0-.3-.1-.7-.3-1-.3-.2-.6-.3-.9-.4zM64.7 2.1h-.3c-.1 0-.2.1-.2.2V7c0 .1.1.2.2.2h.3c.1 0 .2-.1.2-.2V2.3c0-.1 0-.2-.2-.2zM47.6 2.1h-.4c-.1 0-.1.1-.1.2v.1c-.4-.2-.8-.4-1.3-.4s-1.1.3-1.4.7c-.4.5-.5 1.2-.5 1.8 0 .7.1 1.3.5 1.9.3.4.8.7 1.4.7.5 0 .9-.2 1.3-.5V7c0 .4-.1.7-.3 1-.3.2-.6.4-.9.4v.2l-.1-.2c-.3 0-.7-.1-.9-.2h-.1-.1c-.1 0-.1.1-.1.1l-.1.3c0 .1 0 .2.1.2 0 .1.2.1.4.2H45.8c.5 0 1-.2 1.4-.5.4-.4.6-1 .6-1.5V2.3c0-.1-.1-.2-.2-.2zm-1.1 4.1c-.2.1-.4.2-.6.2h-.1c-.3 0-.6-.2-.8-.4-.3-.4-.4-.9-.3-1.5 0-.5.1-1 .3-1.4.2-.3.5-.4.8-.4h.1c.2 0 .5.1.7.2.2.1.4.3.5.5v2.4c-.2.1-.4.3-.6.4z"/></svg><svg width="64.91" height="11.97" viewBox="-1 -1 64.91 11.97" id="samsung_logo" x="129.28" y="40.84"><defs><style>.jcls-1{fill:#333;fill-rule:evenodd;filter:url(#jfilter)}</style><filter id="jfilter" x="720.094" y="78.75" width="62.906" height="9.969" filterUnits="userSpaceOnUse"><feFlood result="flood" flood-color="#fff"/><feComposite result="composite" operator="in" in2="SourceGraphic"/><feBlend result="blend" in2="SourceGraphic"/></filter></defs><path id="jsamsung_logo.svg" class="jcls-1" d="M760.942 88.647c-1.676 0-3.015-.545-3.182-2.3a5.03 5.03 0 0 1-.023-.613V79.06h2.273v6.886a2.039 2.039 0 0 0 .022.354.952.952 0 0 0 1.821 0 2.146 2.146 0 0 0 .02-.354V79.06h2.365v6.673a5.061 5.061 0 0 1-.024.613c-.166 1.754-1.597 2.301-3.272 2.301zm-36.637-2.775c-.066-1.132-4.066-1.683-4.136-3.88a5.454 5.454 0 0 1-.008-1.008c.149-1.678 1.538-2.208 3.133-2.223 1.271-.011 3.031.127 3.048 2.152l.007.83h-2.242s0-.394-.006-.565a.776.776 0 0 0-.84-.835.727.727 0 0 0-.818.7c0 .1-.007.21 0 .306.011 1.178 4.045 1.712 4.117 4a6.284 6.284 0 0 1 .009 1.073c-.148 1.746-1.547 2.3-3.175 2.312-1.742.017-3.269-.466-3.287-2.578l-.006-.823h2.409s0 .228.007.821a.88.88 0 0 0 .9.908.811.811 0 0 0 .868-.572 1.953 1.953 0 0 0 .02-.618zm29.1-.022c-.063-1.121-4.023-1.665-4.093-3.841a5.7 5.7 0 0 1-.01-1c.149-1.661 1.524-2.186 3.1-2.2 1.258-.012 3 .126 3.018 2.132v.82h-2.221V81.2a.771.771 0 0 0-.832-.826.721.721 0 0 0-.81.692v.3c.011 1.168 4 1.7 4.072 3.959a6.158 6.158 0 0 1 .009 1.063c-.146 1.727-1.53 2.273-3.142 2.287-1.723.016-3.236-.461-3.255-2.552v-.816h2.378s0 .228.007.814a.871.871 0 0 0 .893.9.806.806 0 0 0 .862-.566 1.973 1.973 0 0 0 .024-.605zm25.441-4.256a2.39 2.39 0 0 1 .037-.439.865.865 0 0 1 .912-.676.819.819 0 0 1 .88.676 2.009 2.009 0 0 1 .03.354v.523h2.265v-.311a5.669 5.669 0 0 0-.021-.614c-.16-1.753-1.56-2.3-3.154-2.3s-2.994.545-3.153 2.3c-.021.261-.042.442-.038.614v3.917c0 .171.017.353.038.614.159 1.755 1.56 2.3 3.153 2.3s2.994-.544 3.154-2.3c.021-.261.042-.442.038-.614v-2.5h-3.181V84.5h.92v1.333a2.262 2.262 0 0 1-.021.355.867.867 0 0 1-.9.676.894.894 0 0 1-.923-.676 1.974 1.974 0 0 1-.037-.441v-4.152zm-6.687 4.963s-.118-7.3-.126-7.49h2.226v9.206h-3.278c-.043-.125-2.191-7.529-2.191-7.529s.12 7.337.127 7.529h-2.209v-9.206h3.354c.044.127 2.097 7.49 2.097 7.49zm-39.224 1.813h2.413c-.038-.222-1.628-9.15-1.656-9.3h-4l-1.664 9.3h2.428c.022-.162 1.251-8.611 1.251-8.611s1.203 8.45 1.228 8.611zm9.154-2.558s-1-6.584-1.022-6.745H737.3c0 .183-.194 9.111-.2 9.3h2.245c0-.189.059-8.328.059-8.328s1.518 8.172 1.544 8.328h2.279c.027-.156 1.545-8.328 1.545-8.328l.06 8.328h2.245c0-.192-.192-9.12-.2-9.3h-3.772l-1.024 6.745z" transform="translate(-720.094 -78.75)"/></svg><svg id="suhd_logo" width="102" height="36.5" viewBox="-1 -1 102 36.5" y="87.22"><style>.kst0{fill:#fff}</style><title>suhd_logo</title><path class="kst0" d="M7.9 28.8c.1-1.3-.3-2.5-1-3.5-.7-.7-1.6-1.2-2.6-1.1-1 0-1.9.4-2.6 1.1-.7 1-1.1 2.2-1 3.5-.1 1.2.3 2.5 1 3.5.7.7 1.6 1.2 2.6 1.1.4 0 .8-.1 1.2-.2l1.2 1.3h1.8l-1.8-2c.7-.8 1.2-2 1.2-3.7zm-3.7-3.3c1.5 0 2.2 1.2 2.2 3.3s-.8 3.3-2.2 3.3S2 30.9 2 28.8s.8-3.3 2.2-3.3zM12.6 32c-.3.1-.7.2-1.1.2-1 0-1.5-.4-1.5-1.2v-4.3H8.8V31c0 1.1.5 2.3 2.7 2.3.8 0 1.5-.2 2.2-.5l.1-.1v-6.2h-1.3V32h.1zM17.3 26.5c-.7 0-1.3.1-1.9.4l-.2.1.3 1.2.2-.1c.5-.2 1-.3 1.5-.3.3 0 .7.1 1 .3.1.2.2.4.2.6v.3c-1.5 0-2.5.3-3.1.7-.5.4-.7.9-.7 1.5s.3 1.2.7 1.6c.6.4 1.4.6 2.1.6.7 0 1.4-.1 2.1-.4h.1v-4.4c.1-1.4-.8-2.1-2.3-2.1zm1.1 3.6V32c-.3.1-.6.1-.9.1-1.1 0-1.6-.3-1.6-1s.6-.9 2.5-1zM23.1 26.4c-.8 0-1.5.2-2.2.5h-.1v6.2H22v-5.4c.3-.1.7-.2 1.1-.2 1 0 1.5.4 1.5 1.2V33h1.3v-4.4c0-.9-.5-2.2-2.8-2.2zM30.1 32c-.2.1-.4.1-.6.1-.6 0-.8-.2-.8-.9v-3.4h1.8v-1.2h-1.8v-1.9h-1.3v1.9h-1.1v1.2h1.1v3.5c-.1 1 .6 1.9 1.6 2h.4c.3 0 .7 0 1-.1l.2-.1-.2-1.2-.3.1zM35 32c-.3.1-.7.2-1.1.2-1 0-1.5-.4-1.5-1.2v-4.3h-1.3V31c0 1.1.5 2.3 2.7 2.3.8 0 1.5-.2 2.2-.5l.1-.1v-6.2H35V32zM43.5 26.4c-.7 0-1.4.2-2 .6-.5-.4-1.2-.6-1.8-.6-.8 0-1.5.2-2.2.5l-.1.1v6.2h1.3v-5.4c.3-.1.6-.2 1-.2 1 0 1.5.5 1.5 1.4v4.1h1.3v-3.9c0-.4 0-.9-.2-1.3.4-.2.8-.3 1.2-.3.9 0 1.3.4 1.3 1.2v4.3h1.3v-4.4c0-.7-.2-1.3-.7-1.8-.5-.3-1.2-.5-1.9-.5zM52.7 26.7c-.4-.2-.8-.3-1.2-.3-1.8 0-2.9 1.3-2.9 3.5-.1.9.2 1.8.8 2.5.6.6 1.5 1 2.4.9.7 0 1.4-.2 2-.4l.1-.1v-9h-1.3v2.9zm0 5.3c-.3.1-.6.1-.9.1-1.6 0-1.9-1.2-1.9-2.2 0-1.4.6-2.2 1.7-2.2.4 0 .8.1 1.1.4V32zM57.7 26.4c-1.8 0-2.8 1.2-2.8 3.5s1 3.5 2.8 3.5c1.8 0 2.8-1.2 2.8-3.5.1-.9-.2-1.8-.7-2.6-.6-.6-1.3-.9-2.1-.9zm0 1.3c1 0 1.5.8 1.5 2.2 0 1.5-.5 2.2-1.5 2.2s-1.5-.8-1.5-2.2c0-1.5.5-2.2 1.5-2.2zM64.4 32c-.2.1-.4.1-.6.1-.6 0-.8-.2-.8-.9v-3.4h1.8v-1.2H63v-1.9h-1.3v1.9h-1.1v1.2h1.1v3.5c-.1 1 .6 1.9 1.6 2h.4c.3 0 .7 0 1-.1l.2-.1-.2-1.2-.3.1z"/><g><path class="kst0" d="M1.4 15.4c1.5 1 3.3 1.5 5.2 1.5 2 0 3.3-.9 3.3-2.6 0-1.1-.4-2-2-2.4l-2.8-.8C1.3 10 .4 8.2.4 5.7.3 2.1 3 0 6.9 0c2.2 0 4.4.6 5.7 1.5l-1.1 3c-1.4-.8-3-1.2-4.6-1.2-2.2 0-3.3 1.1-3.3 2.5 0 .9.3 1.8 2.8 2.5l2.1.6c3.7 1 4.7 3 4.7 5.5 0 4-3 5.8-6.6 5.8-2.3 0-4.6-.7-6.6-2l1.4-2.8zM22.7 16.9c2.7 0 3.7-1.9 3.7-4.5V.4h3.2v12.3c0 4.4-2.1 7.5-6.9 7.5s-6.9-3.1-6.9-7.5V.4H19v12.1c.1 2.5 1 4.4 3.7 4.4zM32.9.4h3.2v7.7h7.8V.4h3.2v19.4h-3.2v-8.6h-7.8v8.6h-3.2V.4zM55.9 19.8h-5.5V.4h5.5c5.6 0 9.2 3.3 9.2 9.7s-3.5 9.7-9.2 9.7zm-2.3-3.2h2.1c4.7 0 6-2.9 6-6.6s-1.3-6.5-6-6.5h-2.1v13.1zM69.2.4h13.4v3.1h-5.1v16.3h-3.2V3.5h-5.1V.4zM93.6 19.8h-3.5L83.7.4h3.5l4.7 15 4.6-15h3.5l-6.4 19.4z"/></g></svg></svg>