<svg xmlns="http://www.w3.org/2000/svg" xmlns:xlink="http://www.w3.org/1999/xlink" width="54.99" height="11" viewBox="0 0 54.99 11"><defs><linearGradient id="linear-gradient" x1="5.06" y1="747.67" x2="-2.12" y2="754.85" gradientTransform="translate(0 -747)" gradientUnits="userSpaceOnUse"><stop offset="0" stop-color="#00a0ff"/><stop offset="0.01" stop-color="#00a1ff"/><stop offset="0.26" stop-color="#00beff"/><stop offset="0.51" stop-color="#00d2ff"/><stop offset="0.76" stop-color="#00dfff"/><stop offset="1" stop-color="#00e3ff"/></linearGradient><linearGradient id="linear-gradient-2" x1="10.2" y1="752.5" x2="-0.14" y2="752.5" gradientTransform="translate(0 -747)" gradientUnits="userSpaceOnUse"><stop offset="0" stop-color="#ffe000"/><stop offset="0.41" stop-color="#ffbd00"/><stop offset="0.78" stop-color="orange"/><stop offset="1" stop-color="#ff9c00"/></linearGradient><linearGradient id="linear-gradient-3" x1="6.35" y1="753.48" x2="-3.38" y2="763.22" gradientTransform="translate(0 -747)" gradientUnits="userSpaceOnUse"><stop offset="0" stop-color="#ff3a44"/><stop offset="1" stop-color="#c31162"/></linearGradient><linearGradient id="linear-gradient-4" x1="-1.15" y1="744.02" x2="3.2" y2="748.37" gradientTransform="translate(0 -747)" gradientUnits="userSpaceOnUse"><stop offset="0" stop-color="#32a071"/><stop offset="0.07" stop-color="#2da771"/><stop offset="0.48" stop-color="#15cf74"/><stop offset="0.8" stop-color="#06e775"/><stop offset="1" stop-color="#00f076"/></linearGradient></defs><title>logo-gpo_1</title><g id="Layer_2" data-name="Layer 2"><g id="Layer_1-2" data-name="Layer 1"><g id="Layer_1-2-2" data-name="Layer 1-2"><path d="M26.32,4.41a2.11,2.11,0,1,0,2.12,2.11,2.07,2.07,0,0,0-2.05-2.11Zm0,3.39a1.22,1.22,0,0,1-1.19-1.25v0a1.2,1.2,0,0,1,2.39-.23v.23A1.23,1.23,0,0,1,26.34,7.8ZM32,4.88h0a1.47,1.47,0,0,0-1.11-.47,2.11,2.11,0,0,0,0,4.22A1.43,1.43,0,0,0,32,8.15h0v.3c0,.81-.43,1.24-1.13,1.24a1.14,1.14,0,0,1-1.06-.75L29,9.27a2,2,0,0,0,1.87,1.25,1.94,1.94,0,0,0,2-2.2V4.54H32ZM30.94,7.8a1.22,1.22,0,0,1-1.16-1.27h0a1.22,1.22,0,0,1,1.16-1.29,1.18,1.18,0,0,1,1.12,1.24v0A1.17,1.17,0,0,1,31,7.8ZM21.68,4.41a2.09,2.09,0,1,0,.07,0h-.07Zm0,3.39a1.22,1.22,0,0,1-1.2-1.25v0a1.2,1.2,0,1,1,2.39-.23.88.88,0,0,1,0,.23A1.22,1.22,0,0,1,21.71,7.8h0ZM16.21,5.06V6h2.14a1.93,1.93,0,0,1-.49,1.16,2.21,2.21,0,0,1-1.65.63,2.36,2.36,0,0,1-2.36-2.36v0A2.36,2.36,0,0,1,16.18,3h0a2.28,2.28,0,0,1,1.61.63L18.45,3a3.13,3.13,0,0,0-2.24-.9,3.32,3.32,0,0,0-3.33,3.28,3.32,3.32,0,0,0,3.33,3.28,2.91,2.91,0,0,0,3.09-3A3.9,3.9,0,0,0,19.25,5Zm22.49.69a2,2,0,0,0-1.81-1.34,2,2,0,0,0-2,2v.09a2.07,2.07,0,0,0,2,2.11H37a2.09,2.09,0,0,0,1.73-.93L38,7.22a1.18,1.18,0,0,1-1,.57,1.06,1.06,0,0,1-1-.64L38.77,6Zm-2.89.7a1.14,1.14,0,0,1,1.07-1.23h0a.82.82,0,0,1,.78.45ZM33.49,8.5h.93V2.32h-.93ZM43,2.32H40.82V8.5h.92V6.15H43a2,2,0,0,0,2-1.91v0a2,2,0,0,0-2-1.9Zm0,3h-1.3V3.16h1.32a1.07,1.07,0,1,1,0,2.13Zm2.52,3.21h.93V2.32h-.93Zm3.2-4.1a1.72,1.72,0,0,0-1.64,1l.82.34a.87.87,0,0,1,.87-.5.89.89,0,0,1,1,.8V6.1a1.94,1.94,0,0,0-1-.24c-.88,0-1.79.48-1.79,1.4a1.44,1.44,0,0,0,1.51,1.36h0A1.34,1.34,0,0,0,49.73,8h0v.47h.89V6.11A1.63,1.63,0,0,0,48.79,4.4Zm-.11,3.4c-.3,0-.72-.15-.72-.53s.52-.66,1-.66a1.64,1.64,0,0,1,.84.21,1.1,1.1,0,0,1-1.07,1Zm5.26-3.27L52.85,7.24h0l-1.1-2.69h-1l1.65,3.77-.94,2.09h1L55,4.53Z" opacity="0.54" style="isolation:isolate"/><path d="M.2.17A.82.82,0,0,0,0,.75v9.48a.82.82,0,0,0,.2.58l0,0,5.3-5.27V5.44L.23.14Z" fill="url(#linear-gradient)"/><path d="M7.29,7.33,5.56,5.57V5.44L7.29,3.67h0L9.42,4.86a.65.65,0,0,1,0,1.24L7.33,7.26Z" fill="url(#linear-gradient-2)"/><path d="M7.33,7.31,5.53,5.5.2,10.83a.68.68,0,0,0,.89,0L7.33,7.29" fill="url(#linear-gradient-3)"/><path d="M7.33,3.7,1.09.15A.69.69,0,0,0,.2.17L5.53,5.5Z" fill="url(#linear-gradient-4)"/><path d="M7.29,7.27l-6.2,3.52a.72.72,0,0,1-.86,0h0l0,0h0l0,0h0a.72.72,0,0,0,.86,0L7.33,7.31Z" opacity="0.2" style="isolation:isolate"/><path d="M.2,10.77a.82.82,0,0,1-.2-.58v.06a.81.81,0,0,0,.2.58l0,0Z" opacity="0.12" style="isolation:isolate"/><path d="M9.42,6.06,7.29,7.27l0,0L9.42,6.15a.75.75,0,0,0,.45-.62h0A.8.8,0,0,1,9.42,6.06Z" opacity="0.12" style="isolation:isolate"/><path d="M1.09.21,9.42,5a.79.79,0,0,1,.45.58h0a.74.74,0,0,0-.45-.62L1.09.15C.49-.19,0,.09,0,.77V.84C0,.15.49-.13,1.09.21Z" fill="#fff" opacity="0.25" style="isolation:isolate"/></g></g></g></svg>