<svg width="248" height="228" viewBox="0 0 248 228" xmlns="http://www.w3.org/2000/svg" xmlns:xlink="http://www.w3.org/1999/xlink"><svg width="89.41" height="13.25" viewBox="-1 -1 89.41 13.25" id="cta_txt" x="155.06" y="196.94" xmlns="http://www.w3.org/2000/svg"><defs><style>.acls-1{fill:#fff;fill-rule:evenodd}</style></defs><path id="acta_txt.svg" class="acls-1" d="M1247.47 472.842a6.135 6.135 0 0 1-1.19-.473l-.69 1.925q.225.125.54.264a5.689 5.689 0 0 0 .77.264 7.9 7.9 0 0 0 1.02.21 9.05 9.05 0 0 0 1.3.085 5.157 5.157 0 0 0 3.2-.831 2.788 2.788 0 0 0 1.06-2.337 3.926 3.926 0 0 0-.2-1.32 2.581 2.581 0 0 0-.62-.947 3.787 3.787 0 0 0-1.04-.706 15.007 15.007 0 0 0-1.47-.614c-.27-.093-.51-.183-.74-.271a3.605 3.605 0 0 1-.59-.3 1.359 1.359 0 0 1-.4-.365.876.876 0 0 1-.14-.5.821.821 0 0 1 .38-.738 2.5 2.5 0 0 1 1.26-.24 4.425 4.425 0 0 1 1.34.178 6.409 6.409 0 0 1 1 .412l.71-1.91a6.713 6.713 0 0 0-3.21-.746 5.627 5.627 0 0 0-1.65.226 3.606 3.606 0 0 0-1.25.644 2.837 2.837 0 0 0-.8 1.017 3.081 3.081 0 0 0-.28 1.343 2.856 2.856 0 0 0 .26 1.266 2.966 2.966 0 0 0 .69.885 3.823 3.823 0 0 0 .96.6c.35.161.7.3 1.06.427a7.385 7.385 0 0 1 1.72.754 1.045 1.045 0 0 1 .5.877 1.279 1.279 0 0 1-.08.45.8.8 0 0 1-.28.35 1.646 1.646 0 0 1-.54.232 3.573 3.573 0 0 1-.85.086 6.3 6.3 0 0 1-1.75-.197zm14.81-4.588h-4.09v-4.115h-2.44V474.9h2.44v-4.566h4.09v4.566h2.44v-10.761h-2.44v4.115zm7.57-.163a3.332 3.332 0 0 1 .56-1.1 2.664 2.664 0 0 1 .9-.714 2.788 2.788 0 0 1 1.22-.256 2.86 2.86 0 0 1 1.21.248 2.52 2.52 0 0 1 .91.707 3.327 3.327 0 0 1 .56 1.1 4.948 4.948 0 0 1 .2 1.436 4.865 4.865 0 0 1-.2 1.429 3.329 3.329 0 0 1-.56 1.1 2.517 2.517 0 0 1-.91.706 3.089 3.089 0 0 1-2.43 0 2.57 2.57 0 0 1-.9-.706 3.329 3.329 0 0 1-.56-1.1 5.435 5.435 0 0 1 0-2.85zm7.65-1.01a5.039 5.039 0 0 0-1.16-1.762 4.788 4.788 0 0 0-1.71-1.071 6.144 6.144 0 0 0-2.1-.358 5.9 5.9 0 0 0-2.05.358 4.743 4.743 0 0 0-1.72 1.071 5.083 5.083 0 0 0-1.18 1.762 6.3 6.3 0 0 0-.44 2.43 6.5 6.5 0 0 0 .42 2.431 4.96 4.96 0 0 0 1.16 1.754 4.8 4.8 0 0 0 1.72 1.064 6.045 6.045 0 0 0 2.09.357 6.233 6.233 0 0 0 2.13-.357 4.629 4.629 0 0 0 1.72-1.064 5.182 5.182 0 0 0 1.13-1.754 6.717 6.717 0 0 0 .41-2.431 6.5 6.5 0 0 0-.42-2.43zm4.53-3a14.268 14.268 0 0 0-1.69.217V474.9h2.44v-3.6h.77a6.845 6.845 0 0 0 3.75-.862 3.111 3.111 0 0 0 1.31-2.8 3.051 3.051 0 0 0-1.3-2.772 6.792 6.792 0 0 0-3.72-.846q-.66-.005-1.56.057zm2.69 2.073a2.087 2.087 0 0 1 .74.248 1.2 1.2 0 0 1 .47.474 1.514 1.514 0 0 1 .16.745 1.3 1.3 0 0 1-.64 1.273 4.129 4.129 0 0 1-1.9.342h-.77v-3.106c.13-.01.28-.02.45-.031s.34-.015.52-.015a6.156 6.156 0 0 1 .97.066zm19.53 8.75v-10.765h-2.42v6.351c-.37-.559-.78-1.142-1.2-1.747s-.86-1.19-1.29-1.755-.86-1.094-1.28-1.591a15.87 15.87 0 0 0-1.14-1.258h-1.98V474.9h2.41v-7.05a37.782 37.782 0 0 1 2.59 3.4c.81 1.2 1.57 2.417 2.27 3.649h2.04zm5.14-6.809a3.154 3.154 0 0 1 .56-1.1 2.484 2.484 0 0 1 .9-.714 2.758 2.758 0 0 1 1.22-.256 2.893 2.893 0 0 1 1.21.248 2.4 2.4 0 0 1 .9.707 3.164 3.164 0 0 1 .57 1.1 4.958 4.958 0 0 1 .19 1.436 4.876 4.876 0 0 1-.19 1.429 3.166 3.166 0 0 1-.57 1.1 2.4 2.4 0 0 1-.9.706 2.878 2.878 0 0 1-1.21.249 2.828 2.828 0 0 1-1.22-.249 2.4 2.4 0 0 1-.9-.706 3.15 3.15 0 0 1-.56-1.1 5.173 5.173 0 0 1 0-2.854zm7.65-1.01a5.181 5.181 0 0 0-1.16-1.762 4.743 4.743 0 0 0-1.72-1.071 6.087 6.087 0 0 0-2.09-.358 5.958 5.958 0 0 0-2.06.358 4.917 4.917 0 0 0-1.72 1.071 5.225 5.225 0 0 0-1.18 1.762 6.3 6.3 0 0 0-.44 2.43 6.5 6.5 0 0 0 .43 2.431 4.939 4.939 0 0 0 1.15 1.754 4.882 4.882 0 0 0 1.72 1.064 6.143 6.143 0 0 0 2.1.357 6.233 6.233 0 0 0 2.13-.357 4.67 4.67 0 0 0 1.71-1.064 4.9 4.9 0 0 0 1.13-1.754 7.243 7.243 0 0 0 0-4.865zm7.88-1.793c-.11.414-.24.885-.38 1.413s-.3 1.077-.46 1.646-.34 1.139-.52 1.708-.36 1.108-.55 1.615c-.14-.528-.29-1.1-.43-1.724s-.28-1.263-.42-1.925-.26-1.322-.39-1.98-.24-1.291-.34-1.9h-2.64q.54 2.7 1.26 5.481c.47 1.853.99 3.613 1.54 5.28h2.23q.555-1.491 1.05-3.129c.33-1.092.67-2.187 1-3.284q.5 1.645 1.02 3.284c.34 1.092.69 2.135 1.06 3.129h2.23c.55-1.667 1.07-3.427 1.54-5.28s.9-3.68 1.27-5.481h-2.53c-.11.611-.22 1.245-.34 1.9s-.24 1.317-.37 1.98-.26 1.3-.4 1.925-.28 1.2-.42 1.724q-.24-.731-.51-1.584c-.18-.569-.35-1.139-.52-1.708s-.34-1.12-.49-1.654-.29-1.011-.41-1.436h-2.08z" transform="translate(-1245.59 -463.875)"/></svg><svg width="16.88" height="23.19" viewBox="-1 -1 16.88 23.19" id="ef1" x="210.69" y="69.66" xmlns="http://www.w3.org/2000/svg"><defs><style>.bcls-1{fill:#fff;fill-rule:evenodd}</style></defs><path id="bef1.svg" class="bcls-1" d="M3.513 18.869a11.6 11.6 0 0 1-2.259-.894l-1.3 3.634a10.9 10.9 0 0 0 1.019.5 11.11 11.11 0 0 0 1.447.5 15.983 15.983 0 0 0 1.934.4 16.928 16.928 0 0 0 2.451.161q4.045 0 6.053-1.568a5.274 5.274 0 0 0 2.008-4.41 7.142 7.142 0 0 0-.384-2.491 4.835 4.835 0 0 0-1.166-1.788 7.429 7.429 0 0 0-1.964-1.333q-1.181-.58-2.775-1.166-.768-.264-1.4-.513a6.609 6.609 0 0 1-1.122-.557 2.573 2.573 0 0 1-.755-.688 1.6 1.6 0 0 1-.266-.938 1.53 1.53 0 0 1 .723-1.392 4.662 4.662 0 0 1 2.377-.454 8.317 8.317 0 0 1 2.525.337 12.683 12.683 0 0 1 1.9.777l1.329-3.6a12.592 12.592 0 0 0-6.049-1.412 10.687 10.687 0 0 0-3.13.425 6.91 6.91 0 0 0-2.363 1.216A5.42 5.42 0 0 0 .84 5.535 5.877 5.877 0 0 0 .309 8.07a5.2 5.2 0 0 0 .5 2.388 5.463 5.463 0 0 0 1.3 1.67 7.393 7.393 0 0 0 1.8 1.143q1 .455 2.008.806a13.57 13.57 0 0 1 3.25 1.423 1.961 1.961 0 0 1 .945 1.656 2.338 2.338 0 0 1-.148.85 1.476 1.476 0 0 1-.532.659 2.968 2.968 0 0 1-1.019.44 6.687 6.687 0 0 1-1.609.161 11.8 11.8 0 0 1-3.291-.397z" transform="translate(0 -1.969)"/></svg><svg width="15.41" height="24.75" viewBox="-1 -1 15.41 24.75" id="ef2" x="195.28" y="69.66" xmlns="http://www.w3.org/2000/svg"><defs><style>.ccls-1{fill:#fff;fill-rule:evenodd}</style></defs><path id="cef2.svg" class="ccls-1" d="M21.038 22.752V11.03q.413-.117.93-.22a5.694 5.694 0 0 1 1.107-.1 2.191 2.191 0 0 1 2.023.879 5.984 5.984 0 0 1 .546 2.989v8.176h4.4v-8.7a12.3 12.3 0 0 0-.31-2.872 5.593 5.593 0 0 0-1.063-2.227A4.885 4.885 0 0 0 26.663 7.5a8.37 8.37 0 0 0-3.145-.513 7.189 7.189 0 0 0-1.344.132 9.19 9.19 0 0 0-1.137.278V.011l-4.4.7v22.041h4.4z" transform="translate(-16.625)"/></svg><svg width="15.38" height="18.13" viewBox="-1 -1 15.38 18.13" id="ef3" x="195.12" y="94.41" xmlns="http://www.w3.org/2000/svg"><defs><style>.dcls-1{fill:#fff;fill-rule:evenodd}</style></defs><path id="def3.svg" class="dcls-1" d="M36.584 19.309a1.494 1.494 0 0 1-.694-1.421 1.541 1.541 0 0 1 .236-.879 1.641 1.641 0 0 1 .65-.557 3.074 3.074 0 0 1 .96-.278A8.843 8.843 0 0 1 38.9 16.1a8.989 8.989 0 0 1 .974.059q.531.059.8.117v3.312a8.535 8.535 0 0 1-.945.088q-.591.03-1.24.029a3.858 3.858 0 0 1-1.905-.396zM36.614 7q-.753.074-1.432.176t-1.255.234q-.576.132-.96.249l.561 3.517a9.6 9.6 0 0 1 1.89-.454 15.2 15.2 0 0 1 2.215-.161 3.307 3.307 0 0 1 2.362.674 2.408 2.408 0 0 1 .679 1.788v.41a6.881 6.881 0 0 0-1.078-.191 14.112 14.112 0 0 0-1.521-.073 11.862 11.862 0 0 0-2.451.249 6.642 6.642 0 0 0-2.1.806 4.186 4.186 0 0 0-1.462 1.495A4.469 4.469 0 0 0 31.52 18a5.373 5.373 0 0 0 .473 2.374 3.959 3.959 0 0 0 1.358 1.568 5.947 5.947 0 0 0 2.111.864 13.007 13.007 0 0 0 2.731.264 25.465 25.465 0 0 0 4.075-.278q1.683-.278 2.628-.484v-9.08a9.768 9.768 0 0 0-.325-2.608 4.63 4.63 0 0 0-1.107-1.993 5.056 5.056 0 0 0-2.082-1.26 10.262 10.262 0 0 0-3.248-.44q-.768 0-1.52.073z" transform="translate(-31.531 -6.938)"/></svg><svg width="16.75" height="24.75" viewBox="-1 -1 16.75 24.75" id="ef4" x="178.53" y="69.66" xmlns="http://www.w3.org/2000/svg"><defs><style>.ecls-1{fill:#fff;fill-rule:evenodd}</style></defs><path id="eef4.svg" class="ecls-1" d="M51.806.011l-4.4.7v22.041h4.4V16a11.981 11.981 0 0 1 1.488 1.44q.752.852 1.429 1.777t1.282 1.85q.6.926 1.076 1.689h5.059q-.5-.968-1.24-2.143t-1.624-2.348q-.886-1.174-1.831-2.275a20.249 20.249 0 0 0-1.831-1.893q1.772-1.725 3.263-3.348t3.056-3.407H56.7q-.413.5-.988 1.165T54.49 9.916q-.649.743-1.342 1.5t-1.342 1.457V.011z" transform="translate(-47.406)"/></svg><svg width="16.59" height="18.22" viewBox="-1 -1 16.59 18.22" id="ef5" x="178.53" y="94.41" xmlns="http://www.w3.org/2000/svg"><defs><style>.fcls-1{fill:#fff;fill-rule:evenodd}</style></defs><path id="fef5.svg" class="fcls-1" d="M61.713 18.327a6.675 6.675 0 0 0 1.506 2.535 7.1 7.1 0 0 0 2.569 1.685 9.854 9.854 0 0 0 3.647.615 15.637 15.637 0 0 0 1.654-.088q.826-.088 1.55-.22a12.473 12.473 0 0 0 1.314-.308 6.108 6.108 0 0 0 .947-.346l-.591-3.546a9.01 9.01 0 0 1-1.9.542 12.8 12.8 0 0 1-2.377.22 5.132 5.132 0 0 1-3.012-.791 2.9 2.9 0 0 1-1.27-2.139h9.981q.029-.352.059-.806t.029-.835q0-3.9-1.919-5.905a6.891 6.891 0 0 0-5.226-2.007 7.492 7.492 0 0 0-2.761.527 6.943 6.943 0 0 0-2.377 1.553 7.688 7.688 0 0 0-1.668 2.564 9.36 9.36 0 0 0-.635 3.59 9.971 9.971 0 0 0 .48 3.16zm4.031-4.835a6.2 6.2 0 0 1 .281-1.1 2.947 2.947 0 0 1 .546-.952 2.627 2.627 0 0 1 .886-.659 2.975 2.975 0 0 1 1.27-.249 2.808 2.808 0 0 1 1.284.264 2.676 2.676 0 0 1 .856.674 2.711 2.711 0 0 1 .5.938 4.5 4.5 0 0 1 .192 1.084h-5.816z" transform="translate(-61.219 -6.938)"/></svg><svg width="15.41" height="17.75" viewBox="-1 -1 15.41 17.75" id="ef6" x="210.5" y="94.41" xmlns="http://www.w3.org/2000/svg"><defs><style>.gcls-1{fill:#fff;fill-rule:evenodd}</style></defs><path id="gef6.svg" class="gcls-1" d="M96.6 7.337h-4.4v11.9q-.414.059-.945.1t-1 .044a2.237 2.237 0 0 1-2.1-.938 6.2 6.2 0 0 1-.561-3.048V7.337h-4.4v8.587a12.11 12.11 0 0 0 .325 2.9 5.75 5.75 0 0 0 1.093 2.276 4.993 4.993 0 0 0 2.082 1.48 8.892 8.892 0 0 0 3.292.527 23.981 23.981 0 0 0 3.721-.278 24.612 24.612 0 0 0 2.894-.6V7.337z" transform="translate(-83.188 -7.344)"/></svg><svg width="16.44" height="23.19" viewBox="-1 -1 16.44 23.19" id="ef7" x="227.57" y="69.66" xmlns="http://www.w3.org/2000/svg"><defs><style>.hcls-1{fill:#fff;fill-rule:evenodd}</style></defs><path id="hef7.svg" class="hcls-1" d="M106.079 19.353a5.234 5.234 0 0 1-1.344-.176 3.845 3.845 0 0 1-1.078-.44v-7.883c.217-.039.492-.073.827-.1s.7-.044 1.093-.044a3.186 3.186 0 0 1 2.716 1.216 5.257 5.257 0 0 1 .916 3.238q0 4.191-3.13 4.191zm7.072-7.649a6.915 6.915 0 0 0-1.58-2.535 7.048 7.048 0 0 0-2.539-1.612 9.607 9.607 0 0 0-3.426-.571c-.531 0-1.088.025-1.668.073s-1.152.113-1.713.19-1.1.171-1.609.278-.965.22-1.358.337v20.31h4.4v-5.8a8.261 8.261 0 0 0 1.536.5 7.939 7.939 0 0 0 1.713.176 6.909 6.909 0 0 0 2.923-.586 5.862 5.862 0 0 0 2.126-1.641 7.289 7.289 0 0 0 1.3-2.52 11.189 11.189 0 0 0 .443-3.253 9.681 9.681 0 0 0-.548-3.35z" transform="translate(-99.25 -7)"/></svg><svg width="155.06" height="30.16" viewBox="-1 -1 155.06 30.16" id="ef8" y="196.94" xmlns="http://www.w3.org/2000/svg"><defs><style>.icls-1{fill:#fff;fill-rule:evenodd}</style></defs><path id="ief8.svg" class="icls-1" d="M20.748 35.789h-4.4v15.53h4.4v-15.53zm-.369-6.389a2.8 2.8 0 0 0-3.691 0 2.708 2.708 0 0 0 0 3.808 2.8 2.8 0 0 0 3.691 0 2.708 2.708 0 0 0 0-3.808zm10.97 21.921h4.4v-8.475q0-.856-.059-1.609a6.746 6.746 0 0 0-.266-1.432 3.854 3.854 0 0 1 1.048-.443 3.967 3.967 0 0 1 .989-.177 2.026 2.026 0 0 1 1.875.886 6.068 6.068 0 0 1 .546 3.011v8.237h4.4V42.55a14.478 14.478 0 0 0-.266-2.893 5.532 5.532 0 0 0-.974-2.244 4.608 4.608 0 0 0-1.9-1.461 7.765 7.765 0 0 0-3.056-.517 8.228 8.228 0 0 0-4.429 1.447 6.178 6.178 0 0 0-1.727-1.019 7.33 7.33 0 0 0-2.731-.428q-.857 0-1.742.074t-1.727.207q-.841.133-1.594.3t-1.314.31v15h4.4V39.332q.413-.059.856-.1t.856-.044a2.026 2.026 0 0 1 1.875.886 6.067 6.067 0 0 1 .546 3.011v8.237zm19.473-3.471a1.508 1.508 0 0 1-.694-1.432 1.56 1.56 0 0 1 .236-.886 1.644 1.644 0 0 1 .65-.561 3.057 3.057 0 0 1 .96-.281 8.772 8.772 0 0 1 1.166-.074 8.922 8.922 0 0 1 .974.059q.531.06.8.118v3.337a8.459 8.459 0 0 1-.945.088q-.591.03-1.24.03a3.834 3.834 0 0 1-1.907-.398zm.029-12.4q-.753.074-1.432.177t-1.255.236q-.576.133-.96.251l.561 3.543a9.532 9.532 0 0 1 1.89-.458 15.074 15.074 0 0 1 2.215-.162 3.29 3.29 0 0 1 2.362.679 2.435 2.435 0 0 1 .679 1.8v.414a6.824 6.824 0 0 0-1.078-.192 14 14 0 0 0-1.521-.074 11.781 11.781 0 0 0-2.451.251 6.616 6.616 0 0 0-2.1.812 4.2 4.2 0 0 0-1.461 1.506 4.529 4.529 0 0 0-.546 2.3 5.449 5.449 0 0 0 .472 2.391 3.982 3.982 0 0 0 1.358 1.579 5.925 5.925 0 0 0 2.111.871 12.915 12.915 0 0 0 2.731.266 25.279 25.279 0 0 0 4.075-.281q1.683-.28 2.628-.487v-9.148a9.91 9.91 0 0 0-.319-2.624 4.676 4.676 0 0 0-1.11-2.012 5.051 5.051 0 0 0-2.082-1.27 10.193 10.193 0 0 0-3.248-.443q-.77.001-1.518.075zm15.4 4.679a3.028 3.028 0 0 1 2.6-1.151q.59 0 1.034.044t.768.1v7.026a4.816 4.816 0 0 1-1 .413 4.4 4.4 0 0 1-1.27.177q-2.983 0-2.982-3.69a4.764 4.764 0 0 1 .85-2.919zm8.8-3.809q-.591-.177-1.343-.34t-1.58-.28q-.827-.118-1.668-.192t-1.639-.074a9.573 9.573 0 0 0-3.337.546 6.927 6.927 0 0 0-2.5 1.55 6.631 6.631 0 0 0-1.55 2.406 8.727 8.727 0 0 0-.532 3.115 7.688 7.688 0 0 0 1.713 5.329 6.289 6.289 0 0 0 4.931 1.9 7.765 7.765 0 0 0 1.639-.162 7.046 7.046 0 0 0 1.462-.487v.569a2.968 2.968 0 0 1-.782 2.126 3.576 3.576 0 0 1-2.672.827 12.779 12.779 0 0 1-2.584-.236 12.935 12.935 0 0 1-2.17-.65l-.768 3.691a17.694 17.694 0 0 0 2.628.664 16.261 16.261 0 0 0 2.835.251q4.045 0 5.98-1.845t1.936-5.658V36.321zm6.467-.531h-4.4v15.53h4.4v-15.53zm-.37-6.389a2.8 2.8 0 0 0-3.691 0 2.708 2.708 0 0 0 0 3.808 2.8 2.8 0 0 0 3.691 0 2.708 2.708 0 0 0 0-3.808zm2.436 21.921h4.4V39.332q.413-.059.945-.1t1-.044a2.289 2.289 0 0 1 2.1.886 5.933 5.933 0 0 1 .561 3.011v8.237h4.4V42.55a11.945 11.945 0 0 0-.325-2.893 5.7 5.7 0 0 0-1.093-2.244 4.952 4.952 0 0 0-2.082-1.461 9.073 9.073 0 0 0-3.293-.517 23.806 23.806 0 0 0-3.721.281 24.63 24.63 0 0 0-2.894.605v15zm19.946-3.471a1.508 1.508 0 0 1-.694-1.432 1.559 1.559 0 0 1 .236-.886 1.649 1.649 0 0 1 .65-.561 3.051 3.051 0 0 1 .96-.281 8.758 8.758 0 0 1 1.166-.074 8.912 8.912 0 0 1 .974.059c.355.04.62.079.8.118v3.337a8.495 8.495 0 0 1-.945.088q-.591.03-1.241.03a3.832 3.832 0 0 1-1.906-.398zm.029-12.4q-.753.074-1.432.177t-1.255.236q-.576.133-.959.251l.561 3.543a9.517 9.517 0 0 1 1.89-.458 15.067 15.067 0 0 1 2.214-.162 3.29 3.29 0 0 1 2.362.679 2.434 2.434 0 0 1 .68 1.8v.414a6.829 6.829 0 0 0-1.078-.192 14 14 0 0 0-1.521-.074 11.778 11.778 0 0 0-2.451.251 6.618 6.618 0 0 0-2.1.812 4.2 4.2 0 0 0-1.462 1.506 4.529 4.529 0 0 0-.546 2.3 5.449 5.449 0 0 0 .472 2.391 3.979 3.979 0 0 0 1.359 1.579 5.919 5.919 0 0 0 2.111.871 12.907 12.907 0 0 0 2.731.266 25.274 25.274 0 0 0 4.075-.281q1.683-.28 2.628-.487v-9.148a9.885 9.885 0 0 0-.325-2.628 4.67 4.67 0 0 0-1.107-2.008 5.054 5.054 0 0 0-2.082-1.27 10.191 10.191 0 0 0-3.248-.443q-.764.001-1.517.075zm10.055 9.521a12.462 12.462 0 0 0 .28 2.746 5.059 5.059 0 0 0 .989 2.111 4.683 4.683 0 0 0 1.89 1.358 7.875 7.875 0 0 0 2.983.487 10.322 10.322 0 0 0 2.391-.236 12.429 12.429 0 0 0 1.772-.561l-.62-3.425a7.5 7.5 0 0 1-1.373.369 8.4 8.4 0 0 1-1.462.133 2.09 2.09 0 0 1-1.963-.827 4.341 4.341 0 0 1-.488-2.214V39.45h5.287v-3.661h-5.286v-4.576l-4.4.709v13.049zm16.181-9.182h-4.4v15.53h4.4v-15.53zm-.369-6.389a2.8 2.8 0 0 0-3.691 0 2.707 2.707 0 0 0 0 3.808 2.8 2.8 0 0 0 3.691 0 2.71 2.71 0 0 0 0-3.808zm16.993 10.791a7.507 7.507 0 0 0-1.565-2.568 7.014 7.014 0 0 0-2.406-1.653 7.882 7.882 0 0 0-3.086-.59 7.793 7.793 0 0 0-3.056.59 7.156 7.156 0 0 0-2.422 1.653 7.568 7.568 0 0 0-1.594 2.569 9.27 9.27 0 0 0-.576 3.336 9.612 9.612 0 0 0 .561 3.351 7.638 7.638 0 0 0 1.565 2.6 6.9 6.9 0 0 0 2.407 1.668 7.95 7.95 0 0 0 3.115.59 8.041 8.041 0 0 0 3.145-.59 6.909 6.909 0 0 0 2.406-1.668 7.291 7.291 0 0 0 1.536-2.6 10.1 10.1 0 0 0 .531-3.351 9.492 9.492 0 0 0-.561-3.34zm-4.739 6.569a2.636 2.636 0 0 1-2.318 1.2 2.672 2.672 0 0 1-2.333-1.2 5.6 5.6 0 0 1-.827-3.233 5.456 5.456 0 0 1 .827-3.2 2.693 2.693 0 0 1 2.333-1.166 2.657 2.657 0 0 1 2.318 1.166 5.533 5.533 0 0 1 .812 3.2 5.678 5.678 0 0 1-.812 3.23zm7.072 4.561h4.4V39.332q.413-.059.944-.1c.355-.03.689-.044 1-.044a2.289 2.289 0 0 1 2.1.886 5.93 5.93 0 0 1 .561 3.011v8.237h4.4V42.55a11.964 11.964 0 0 0-.325-2.893 5.7 5.7 0 0 0-1.093-2.244 4.953 4.953 0 0 0-2.081-1.461 9.078 9.078 0 0 0-3.293-.517 23.8 23.8 0 0 0-3.72.281 24.6 24.6 0 0 0-2.894.605v15zm19.385-4.355a2.961 2.961 0 0 0-3.809 0 2.85 2.85 0 0 0 0 4.045 2.961 2.961 0 0 0 3.809 0 2.85 2.85 0 0 0 0-4.047z" transform="translate(-15.906 -28.719)"/></svg><svg width="247.22" height="69.66" viewBox="-1 -1 247.22 69.66" id="txt1" xmlns="http://www.w3.org/2000/svg"><defs><style>.jcls-1{fill:#fefefe;fill-rule:evenodd}</style></defs><path id="jtxt1.svg" class="jcls-1" d="M38.559 318.2a13.857 13.857 0 0 1 2.474.991l1.514-4.2q-.27-.166-.892-.47a10.667 10.667 0 0 0-1.582-.588 18.979 18.979 0 0 0-2.289-.5 18.551 18.551 0 0 0-2.979-.218 12.8 12.8 0 0 0-4.561.806 10.5 10.5 0 0 0-3.719 2.369 11.139 11.139 0 0 0-2.491 3.813 13.745 13.745 0 0 0-.909 5.175 14.882 14.882 0 0 0 .825 5.141 10.487 10.487 0 0 0 2.339 3.8 9.94 9.94 0 0 0 3.652 2.352 13.392 13.392 0 0 0 4.762.807 26.652 26.652 0 0 0 5.15-.42 19.735 19.735 0 0 0 3.029-.79v-11.531h-5.25v8.1a7.1 7.1 0 0 1-1.094.134q-.623.035-1.5.034a6.745 6.745 0 0 1-2.827-.554 5.461 5.461 0 0 1-2.019-1.563 6.825 6.825 0 0 1-1.212-2.4 11.153 11.153 0 0 1-.4-3.108 8.642 8.642 0 0 1 1.632-5.561q1.632-2.033 5.3-2.033a10.541 10.541 0 0 1 3.047.414zm12.2 1.159h-5.015v17.674h5.015v-17.672zm-.421-7.274a3.2 3.2 0 0 0-4.207 0 3.078 3.078 0 0 0 0 4.334 3.2 3.2 0 0 0 4.207 0 3.078 3.078 0 0 0 0-4.332zm11.912 24.95q1.721-3.36 3.494-7.862t3.359-9.812h-5.187q-.338 1.311-.794 2.84t-.946 3.091q-.49 1.562-1 3.041t-.946 2.688q-.473-1.211-.964-2.688t-.98-3.041q-.491-1.563-.947-3.091t-.795-2.84H51.23q1.587 5.31 3.361 9.812t3.5 7.862h4.159zm7.071-5.074a7.663 7.663 0 0 0 1.717 2.907 8.1 8.1 0 0 0 2.928 1.932 11.181 11.181 0 0 0 4.157.7 17.768 17.768 0 0 0 1.885-.1q.942-.1 1.767-.252a14.287 14.287 0 0 0 1.5-.353 7.049 7.049 0 0 0 1.077-.4l-.673-4.066a10.208 10.208 0 0 1-2.171.622 14.52 14.52 0 0 1-2.709.252 5.822 5.822 0 0 1-3.433-.908 3.322 3.322 0 0 1-1.447-2.452h11.372q.033-.4.067-.924c.022-.347.034-.667.034-.958q0-4.469-2.188-6.77a7.831 7.831 0 0 0-5.957-2.3 8.5 8.5 0 0 0-3.147.6 7.9 7.9 0 0 0-2.709 1.781 8.816 8.816 0 0 0-1.9 2.94 10.787 10.787 0 0 0-.724 4.116 11.487 11.487 0 0 0 .554 3.633zm4.594-5.544a7.159 7.159 0 0 1 .32-1.26 3.387 3.387 0 0 1 .623-1.092 3.007 3.007 0 0 1 1.01-.756 3.374 3.374 0 0 1 1.447-.285 3.193 3.193 0 0 1 1.464.3 3.067 3.067 0 0 1 .976.773 3.115 3.115 0 0 1 .572 1.075 5.185 5.185 0 0 1 .219 1.243h-6.63zm19.891 3.394a14.145 14.145 0 0 0 .32 3.125 5.74 5.74 0 0 0 1.128 2.4 5.334 5.334 0 0 0 2.154 1.546 9 9 0 0 0 3.4.554 11.8 11.8 0 0 0 2.726-.269 14.162 14.162 0 0 0 2.019-.638l-.706-3.9a8.48 8.48 0 0 1-1.566.42 9.575 9.575 0 0 1-1.666.152 2.385 2.385 0 0 1-2.238-.941 4.936 4.936 0 0 1-.555-2.52v-6.216h6.025v-4.167h-6.026v-5.208l-5.015.807v14.851zm18.444 7.224V323.6q.471-.134 1.06-.252a6.465 6.465 0 0 1 1.262-.118 2.49 2.49 0 0 1 2.3 1.008 6.9 6.9 0 0 1 .623 3.428v9.374h5.015v-9.979a14.217 14.217 0 0 0-.353-3.293 6.447 6.447 0 0 0-1.212-2.554 5.569 5.569 0 0 0-2.289-1.663 9.5 9.5 0 0 0-3.584-.588 8.219 8.219 0 0 0-1.532.151 10.4 10.4 0 0 0-1.3.32v-8.468l-5.015.807v25.267h5.015zm12.839-5.074a7.675 7.675 0 0 0 1.717 2.907 8.1 8.1 0 0 0 2.928 1.932 11.181 11.181 0 0 0 4.157.7 17.779 17.779 0 0 0 1.885-.1q.942-.1 1.767-.252a14.3 14.3 0 0 0 1.5-.353 7.019 7.019 0 0 0 1.077-.4l-.673-4.066a10.211 10.211 0 0 1-2.171.622 14.509 14.509 0 0 1-2.709.252 5.822 5.822 0 0 1-3.433-.908 3.322 3.322 0 0 1-1.447-2.452h11.373q.033-.4.067-.924c.022-.347.034-.667.034-.958q0-4.469-2.188-6.77a7.831 7.831 0 0 0-5.957-2.3 8.5 8.5 0 0 0-3.147.6 7.908 7.908 0 0 0-2.71 1.781 8.821 8.821 0 0 0-1.9 2.94 10.781 10.781 0 0 0-.724 4.116 11.493 11.493 0 0 0 .554 3.633zm4.595-5.544a7.139 7.139 0 0 1 .319-1.26 3.4 3.4 0 0 1 .623-1.092 3 3 0 0 1 1.01-.756 3.374 3.374 0 0 1 1.447-.285 3.194 3.194 0 0 1 1.464.3 3.066 3.066 0 0 1 .976.773 3.1 3.1 0 0 1 .572 1.075 5.16 5.16 0 0 1 .219 1.243h-6.63zm25.31-2.116a3.451 3.451 0 0 1 2.961-1.311q.673 0 1.178.051c.337.033.628.073.875.117v8a5.428 5.428 0 0 1-1.144.47 5 5 0 0 1-1.447.2q-3.4 0-3.4-4.2a5.408 5.408 0 0 1 .977-3.328zm10.029-4.335q-.673-.2-1.531-.386t-1.8-.319q-.942-.135-1.9-.219t-1.868-.084a10.933 10.933 0 0 0-3.8.622 7.912 7.912 0 0 0-2.844 1.764 7.554 7.554 0 0 0-1.767 2.738 9.94 9.94 0 0 0-.605 3.545 8.74 8.74 0 0 0 1.952 6.065 7.173 7.173 0 0 0 5.62 2.167 8.815 8.815 0 0 0 1.868-.185 8.007 8.007 0 0 0 1.666-.554v.638a3.374 3.374 0 0 1-.891 2.419 4.081 4.081 0 0 1-3.046.941 13.928 13.928 0 0 1-5.419-1.008l-.875 4.2a20.028 20.028 0 0 0 3 .756 18.566 18.566 0 0 0 3.231.286q4.611 0 6.816-2.1t2.2-6.435v-14.851zm8.044-.605h-5.015v17.674h5.015v-17.674zm-.421-7.274a3.2 3.2 0 0 0-4.207 0 3.078 3.078 0 0 0 0 4.334 3.2 3.2 0 0 0 4.207 0 3.078 3.078 0 0 0 0-4.334zm5.385.89a7.533 7.533 0 0 0-1.935 5.444v18.614h5.015v-13.507h6.189v-4.167h-6.193v-.873a5.39 5.39 0 0 1 .151-1.311 2.663 2.663 0 0 1 .5-1.041 2.369 2.369 0 0 1 .976-.689 4.1 4.1 0 0 1 1.532-.252 7.827 7.827 0 0 1 1.464.151 6.569 6.569 0 0 1 1.464.454l.976-4a12.74 12.74 0 0 0-1.818-.554 11.013 11.013 0 0 0-2.591-.286 7.6 7.6 0 0 0-5.73 2.017zm10.417 16.834a14.114 14.114 0 0 0 .32 3.125 5.745 5.745 0 0 0 1.127 2.4 5.341 5.341 0 0 0 2.154 1.546 9 9 0 0 0 3.4.554 11.8 11.8 0 0 0 2.726-.269 14.2 14.2 0 0 0 2.019-.638l-.706-3.9a8.48 8.48 0 0 1-1.566.42 9.575 9.575 0 0 1-1.666.152 2.385 2.385 0 0 1-2.238-.941 4.94 4.94 0 0 1-.555-2.52v-6.216h6.025v-4.167h-6.025v-5.208l-5.015.807v14.851zm19.655 0a14.114 14.114 0 0 0 .32 3.125 5.745 5.745 0 0 0 1.127 2.4 5.341 5.341 0 0 0 2.154 1.546 9 9 0 0 0 3.4.554 11.8 11.8 0 0 0 2.726-.269 14.2 14.2 0 0 0 2.019-.638l-.707-3.9a8.448 8.448 0 0 1-1.565.42 9.575 9.575 0 0 1-1.666.152 2.385 2.385 0 0 1-2.238-.941 4.94 4.94 0 0 1-.555-2.52v-6.216h6.024v-4.167h-6.024v-5.208l-5.015.807v14.851zm18.444 7.224V323.6q.47-.134 1.06-.252a6.465 6.465 0 0 1 1.262-.118 2.49 2.49 0 0 1 2.305 1.008 6.9 6.9 0 0 1 .623 3.428v9.374h5.015v-9.979a14.217 14.217 0 0 0-.353-3.293 6.447 6.447 0 0 0-1.212-2.554 5.569 5.569 0 0 0-2.289-1.663 9.5 9.5 0 0 0-3.584-.588 8.219 8.219 0 0 0-1.532.151 10.4 10.4 0 0 0-1.3.32v-8.468l-5.015.807v25.267h5.015zm17.72-3.948a1.714 1.714 0 0 1-.791-1.63 1.774 1.774 0 0 1 .269-1.008 1.879 1.879 0 0 1 .74-.638 3.5 3.5 0 0 1 1.094-.319 9.965 9.965 0 0 1 1.33-.084 10.068 10.068 0 0 1 1.11.067q.606.067.909.134v3.8a9.683 9.683 0 0 1-1.077.1q-.674.034-1.413.034a4.378 4.378 0 0 1-2.171-.456zm.033-14.112q-.858.084-1.632.2t-1.43.268q-.657.151-1.094.286l.639 4.032a10.905 10.905 0 0 1 2.154-.521 17.2 17.2 0 0 1 2.525-.185 3.753 3.753 0 0 1 2.692.773 2.771 2.771 0 0 1 .774 2.05v.47a7.789 7.789 0 0 0-1.228-.218 15.9 15.9 0 0 0-1.734-.084 13.445 13.445 0 0 0-2.793.285 7.557 7.557 0 0 0-2.39.924 4.786 4.786 0 0 0-1.666 1.714 5.154 5.154 0 0 0-.623 2.621 6.193 6.193 0 0 0 .539 2.721 4.533 4.533 0 0 0 1.548 1.8 6.751 6.751 0 0 0 2.407.991 14.72 14.72 0 0 0 3.113.3 28.808 28.808 0 0 0 4.645-.32q1.918-.318 3-.554v-10.413a11.245 11.245 0 0 0-.37-2.99 5.315 5.315 0 0 0-1.262-2.285 5.759 5.759 0 0 0-2.373-1.445 11.633 11.633 0 0 0-3.7-.5q-.883-.004-1.741.08zm12.134 10.836a14.176 14.176 0 0 0 .319 3.125 5.734 5.734 0 0 0 1.128 2.4 5.328 5.328 0 0 0 2.154 1.546 9 9 0 0 0 3.4.554 11.791 11.791 0 0 0 2.726-.269 14.177 14.177 0 0 0 2.02-.638l-.707-3.9a8.469 8.469 0 0 1-1.565.42 9.575 9.575 0 0 1-1.666.152 2.385 2.385 0 0 1-2.238-.941 4.939 4.939 0 0 1-.556-2.52v-6.216h6.025v-4.167h-6.025v-5.208l-5.014.807v14.851zM23.48 367.157a7.648 7.648 0 0 0 1.649 2.94 7.851 7.851 0 0 0 2.878 1.966 10.922 10.922 0 0 0 4.174.722 14.472 14.472 0 0 0 2.895-.268 11.8 11.8 0 0 0 2.188-.639l-.707-4.1a8.292 8.292 0 0 1-1.918.538 12.321 12.321 0 0 1-1.952.168 4.3 4.3 0 0 1-3.585-1.311 5.863 5.863 0 0 1-1.027-3.7 5.667 5.667 0 0 1 1.094-3.629 3.976 3.976 0 0 1 3.315-1.377 8.131 8.131 0 0 1 1.885.2 12.815 12.815 0 0 1 1.548.471l1.043-4a12.68 12.68 0 0 0-2.289-.722 12.407 12.407 0 0 0-2.592-.252 9.466 9.466 0 0 0-3.837.739 8.458 8.458 0 0 0-4.661 4.956 10.4 10.4 0 0 0-.623 3.612 12.445 12.445 0 0 0 .522 3.686zm19.219 1.21a1.715 1.715 0 0 1-.791-1.63 1.774 1.774 0 0 1 .269-1.008 1.879 1.879 0 0 1 .74-.638 3.494 3.494 0 0 1 1.094-.319 9.955 9.955 0 0 1 1.329-.084 10.086 10.086 0 0 1 1.111.067q.606.067.909.134v3.8a9.7 9.7 0 0 1-1.077.1q-.674.035-1.414.034a4.379 4.379 0 0 1-2.169-.456zm.034-14.112q-.858.084-1.632.2t-1.43.268q-.656.151-1.094.286l.639 4.032a10.9 10.9 0 0 1 2.154-.521 17.2 17.2 0 0 1 2.524-.185 3.754 3.754 0 0 1 2.693.773 2.771 2.771 0 0 1 .774 2.05v.47a7.81 7.81 0 0 0-1.229-.218 15.888 15.888 0 0 0-1.733-.084 13.452 13.452 0 0 0-2.794.285 7.559 7.559 0 0 0-2.39.924 4.788 4.788 0 0 0-1.666 1.714 5.15 5.15 0 0 0-.623 2.621 6.19 6.19 0 0 0 .538 2.721 4.53 4.53 0 0 0 1.548 1.8 6.755 6.755 0 0 0 2.407.991 14.719 14.719 0 0 0 3.113.3 28.8 28.8 0 0 0 4.645-.32q1.919-.318 3-.554V361.4a11.261 11.261 0 0 0-.37-2.99 5.314 5.314 0 0 0-1.262-2.285 5.756 5.756 0 0 0-2.373-1.445 11.633 11.633 0 0 0-3.7-.5q-.882-.009-1.74.075zm12.3 18.06h5.015v-13.642c.314-.044.673-.084 1.077-.117s.785-.051 1.144-.051a2.611 2.611 0 0 1 2.39 1.008 6.745 6.745 0 0 1 .639 3.428v9.374h5.015v-9.979a13.577 13.577 0 0 0-.37-3.293 6.5 6.5 0 0 0-1.245-2.554 5.647 5.647 0 0 0-2.373-1.663 10.369 10.369 0 0 0-3.753-.588 27.248 27.248 0 0 0-4.241.319 28.312 28.312 0 0 0-3.3.689v17.069zm34.835-5.242a3.606 3.606 0 0 1-3.1 1.412q-.674 0-1.245-.051t-.942-.117v-9.106a4.337 4.337 0 0 1 1.228-.5 5.945 5.945 0 0 1 1.531-.2q3.567 0 3.568 4.839a6.126 6.126 0 0 1-1.04 3.723zm5.654-7.375a8.37 8.37 0 0 0-1.481-2.906 6.526 6.526 0 0 0-2.423-1.865 8 8 0 0 0-3.332-.655 9.027 9.027 0 0 0-1.952.2 9.4 9.4 0 0 0-1.75.572v-8.8l-5.015.807v24.7q.673.2 1.548.386t1.834.319q.959.135 1.952.219t1.9.084a10.908 10.908 0 0 0 3.9-.655 7.925 7.925 0 0 0 2.895-1.865 8.1 8.1 0 0 0 1.8-2.923 11.165 11.165 0 0 0 .623-3.831 13.237 13.237 0 0 0-.498-3.785zm2.406 7.543a7.663 7.663 0 0 0 1.716 2.907 8.1 8.1 0 0 0 2.928 1.932 11.185 11.185 0 0 0 4.157.705 17.779 17.779 0 0 0 1.885-.1q.942-.1 1.767-.252a14.384 14.384 0 0 0 1.5-.353 7.1 7.1 0 0 0 1.077-.4l-.674-4.066a10.2 10.2 0 0 1-2.17.622 14.528 14.528 0 0 1-2.71.252 5.824 5.824 0 0 1-3.433-.908 3.322 3.322 0 0 1-1.447-2.452H113.9c.022-.269.045-.577.067-.924s.034-.667.034-.958q0-4.469-2.188-6.77a7.83 7.83 0 0 0-5.957-2.3 8.5 8.5 0 0 0-3.147.605 7.91 7.91 0 0 0-2.709 1.776 8.814 8.814 0 0 0-1.9 2.94 10.785 10.785 0 0 0-.724 4.116 11.487 11.487 0 0 0 .553 3.628zm4.594-5.544a7.056 7.056 0 0 1 .32-1.26 3.377 3.377 0 0 1 .622-1.092 3.013 3.013 0 0 1 1.01-.756 3.374 3.374 0 0 1 1.447-.285 3.188 3.188 0 0 1 1.464.3 3.055 3.055 0 0 1 .976.773 3.119 3.119 0 0 1 .573 1.075 5.159 5.159 0 0 1 .218 1.243h-6.63zm24.653 6.67a1.716 1.716 0 0 1-.79-1.63 1.774 1.774 0 0 1 .269-1.008 1.879 1.879 0 0 1 .74-.638 3.5 3.5 0 0 1 1.094-.319 9.955 9.955 0 0 1 1.33-.084 10.082 10.082 0 0 1 1.11.067q.606.067.909.134v3.8a9.683 9.683 0 0 1-1.077.1q-.673.035-1.414.034a4.381 4.381 0 0 1-2.17-.456zm.034-14.112q-.858.084-1.632.2a18.468 18.468 0 0 0-2.525.554l.64 4.032a10.905 10.905 0 0 1 2.154-.521 17.191 17.191 0 0 1 2.524-.185 3.756 3.756 0 0 1 2.693.773 2.771 2.771 0 0 1 .774 2.05v.47a7.826 7.826 0 0 0-1.229-.218 15.865 15.865 0 0 0-1.733-.084 13.445 13.445 0 0 0-2.793.285 7.557 7.557 0 0 0-2.39.924 4.786 4.786 0 0 0-1.666 1.714 5.144 5.144 0 0 0-.623 2.621 6.193 6.193 0 0 0 .539 2.721 4.525 4.525 0 0 0 1.548 1.8 6.753 6.753 0 0 0 2.406.991 14.723 14.723 0 0 0 3.114.3 28.8 28.8 0 0 0 4.644-.32q1.918-.318 3-.554V361.4a11.286 11.286 0 0 0-.37-2.99 5.315 5.315 0 0 0-1.262-2.285 5.759 5.759 0 0 0-2.373-1.445 11.639 11.639 0 0 0-3.7-.5q-.88-.009-1.739.075zm12.3 18.06h5.015v-13.642c.313-.044.673-.084 1.077-.117s.785-.051 1.144-.051a2.613 2.613 0 0 1 2.39 1.008 6.746 6.746 0 0 1 .639 3.428v9.374h5.015v-9.979a13.607 13.607 0 0 0-.37-3.293 6.485 6.485 0 0 0-1.246-2.554 5.641 5.641 0 0 0-2.372-1.663 10.371 10.371 0 0 0-3.753-.588 27.246 27.246 0 0 0-4.241.319 28.293 28.293 0 0 0-3.3.689v17.069zm28.168-17.674q-.339 1.311-.76 2.84t-.879 3.091q-.456 1.562-.93 3.041t-.908 2.687q-.473-1.21-1-2.688t-1.03-3.041q-.507-1.563-.964-3.091t-.794-2.84H155.1a93.769 93.769 0 0 0 3.232 9.392q1.718 4.182 3.435 7.543a5.821 5.821 0 0 1-1.229 2 2.809 2.809 0 0 1-2.071.722 7.825 7.825 0 0 1-1.28-.1 8.67 8.67 0 0 1-1.38-.37l-.875 4a9.706 9.706 0 0 0 1.634.488 10.183 10.183 0 0 0 2.175.218 8.665 8.665 0 0 0 2.477-.319 5.477 5.477 0 0 0 1.9-1.008 7.993 7.993 0 0 0 1.551-1.747 19.77 19.77 0 0 0 1.415-2.571q1.958-4.2 3.611-8.669t3.172-9.576h-5.187zm5.993 10.45a14.174 14.174 0 0 0 .32 3.125 5.734 5.734 0 0 0 1.128 2.4 5.328 5.328 0 0 0 2.154 1.546 9 9 0 0 0 3.4.554 11.791 11.791 0 0 0 2.726-.269 14.177 14.177 0 0 0 2.02-.638l-.707-3.9a8.469 8.469 0 0 1-1.565.42 9.583 9.583 0 0 1-1.666.152 2.385 2.385 0 0 1-2.238-.941 4.929 4.929 0 0 1-.556-2.52v-6.216h6.025v-4.167h-6.025v-5.208l-5.015.807v14.851zm18.444 7.224v-13.44q.471-.134 1.06-.252a6.472 6.472 0 0 1 1.262-.118 2.492 2.492 0 0 1 2.306 1.008 6.9 6.9 0 0 1 .623 3.428v9.374h5.015v-9.979a14.16 14.16 0 0 0-.354-3.293 6.42 6.42 0 0 0-1.212-2.554 5.572 5.572 0 0 0-2.288-1.663 9.5 9.5 0 0 0-3.585-.588 8.209 8.209 0 0 0-1.531.151 10.42 10.42 0 0 0-1.3.32v-8.468l-5.015.807v25.267h5.015zm18.141-17.674h-5.015v17.674h5.015v-17.674zm-.421-7.274a3.2 3.2 0 0 0-4.207 0 3.078 3.078 0 0 0 0 4.334 3.2 3.2 0 0 0 4.207 0 3.078 3.078 0 0 0 .003-4.334zm3.45 24.948h5.016v-13.642c.313-.044.673-.084 1.077-.117s.785-.051 1.144-.051a2.613 2.613 0 0 1 2.39 1.008 6.746 6.746 0 0 1 .639 3.428v9.374h5.015v-9.979a13.607 13.607 0 0 0-.37-3.293 6.485 6.485 0 0 0-1.246-2.554 5.641 5.641 0 0 0-2.372-1.663 10.371 10.371 0 0 0-3.753-.588 27.246 27.246 0 0 0-4.241.319 28.293 28.293 0 0 0-3.3.689v17.069zm23.391-12.734a3.453 3.453 0 0 1 2.962-1.311q.672 0 1.178.051c.336.033.628.073.875.117v8a5.472 5.472 0 0 1-1.144.47 5.013 5.013 0 0 1-1.448.2q-3.4 0-3.4-4.2a5.414 5.414 0 0 1 .98-3.327zm10.03-4.335q-.674-.2-1.532-.386t-1.8-.319q-.944-.135-1.9-.219t-1.868-.084a10.932 10.932 0 0 0-3.8.622 7.9 7.9 0 0 0-2.844 1.764 7.554 7.554 0 0 0-1.767 2.738 9.918 9.918 0 0 0-.606 3.545 8.744 8.744 0 0 0 1.952 6.065 7.174 7.174 0 0 0 5.621 2.167 8.822 8.822 0 0 0 1.868-.185 8.046 8.046 0 0 0 1.666-.554v.638a3.375 3.375 0 0 1-.892 2.419 4.079 4.079 0 0 1-3.046.941 13.928 13.928 0 0 1-5.419-1.008l-.875 4.2a20.073 20.073 0 0 0 3 .756 18.566 18.566 0 0 0 3.231.286q4.611 0 6.815-2.1t2.205-6.435v-14.851zm6.983 12.113a3.377 3.377 0 0 0-4.341 0 3.239 3.239 0 0 0 0 4.6 3.377 3.377 0 0 0 4.341 0 3.239 3.239 0 0 0 .003-4.6z" transform="translate(-22.969 -310.969)"/></svg><svg width="178.53" height="63.81" viewBox="-1 -1 178.53 63.81" id="txt2" y="69.66" xmlns="http://www.w3.org/2000/svg"><defs><style>.kcls-1{fill:#fefefe;fill-rule:evenodd}</style></defs><path id="ktxt2.svg" class="kcls-1" d="M431.108 337.1v-9.61h9.223v-4.4h-9.223v-4.872h10.367v-4.4h-15.617V337.1h5.25zM454 319.724a5.417 5.417 0 0 0-.976-.286q-.573-.117-1.144-.2t-1.144-.135q-.573-.049-.976-.05a18.36 18.36 0 0 0-4.09.42 30.258 30.258 0 0 0-3.18.89V337.1h5.01v-13.512a6.655 6.655 0 0 1 .992-.185 9.074 9.074 0 0 1 1.128-.084 9.81 9.81 0 0 1 1.952.185q.909.184 1.582.353zm16.593 4.7a8.534 8.534 0 0 0-1.783-2.923 7.987 7.987 0 0 0-2.743-1.882 8.992 8.992 0 0 0-3.518-.672 8.892 8.892 0 0 0-3.483.672 8.153 8.153 0 0 0-2.76 1.882 8.607 8.607 0 0 0-1.818 2.923 10.548 10.548 0 0 0-.656 3.8 10.9 10.9 0 0 0 .64 3.813A8.673 8.673 0 0 0 456.25 335a7.86 7.86 0 0 0 2.744 1.9 9.071 9.071 0 0 0 3.55.672 9.17 9.17 0 0 0 3.585-.672 7.865 7.865 0 0 0 2.743-1.9 8.289 8.289 0 0 0 1.75-2.957 11.465 11.465 0 0 0 .606-3.813 10.792 10.792 0 0 0-.64-3.802zm-5.4 7.476a3.005 3.005 0 0 1-2.642 1.361 3.048 3.048 0 0 1-2.659-1.361 6.365 6.365 0 0 1-.942-3.679 6.2 6.2 0 0 1 .942-3.646 3.071 3.071 0 0 1 2.659-1.327 3.027 3.027 0 0 1 2.642 1.327 6.287 6.287 0 0 1 .926 3.646 6.451 6.451 0 0 1-.933 3.679zm17.956 5.191h5.015v-9.643q0-.975-.067-1.831a7.634 7.634 0 0 0-.3-1.63 4.369 4.369 0 0 1 1.2-.5 4.543 4.543 0 0 1 1.127-.2 2.312 2.312 0 0 1 2.138 1.008 6.9 6.9 0 0 1 .622 3.428v9.377h5.015v-9.979a16.45 16.45 0 0 0-.3-3.293 6.308 6.308 0 0 0-1.11-2.554 5.263 5.263 0 0 0-2.171-1.663 8.876 8.876 0 0 0-3.484-.588 9.381 9.381 0 0 0-5.048 1.647 7.054 7.054 0 0 0-1.969-1.16 8.381 8.381 0 0 0-3.114-.487q-.977 0-1.985.084t-1.969.235q-.96.151-1.818.336t-1.5.353V337.1h5.015v-13.647c.314-.044.64-.084.976-.117a9.724 9.724 0 0 1 .976-.051 2.312 2.312 0 0 1 2.138 1.008 6.9 6.9 0 0 1 .622 3.428v9.379zm31.772-3.9a5.943 5.943 0 0 1-1.531-.2 4.4 4.4 0 0 1-1.229-.5v-9.039c.247-.044.561-.084.943-.117s.8-.051 1.245-.051a3.626 3.626 0 0 1 3.1 1.395 6.055 6.055 0 0 1 1.043 3.713q0 4.8-3.568 4.8zm8.061-8.769a7.926 7.926 0 0 0-1.8-2.907 8.055 8.055 0 0 0-2.895-1.848 10.907 10.907 0 0 0-3.9-.655q-.909 0-1.9.084t-1.952.219q-.959.134-1.834.319t-1.548.386v23.285h5.014v-6.653a9.338 9.338 0 0 0 1.751.571 8.956 8.956 0 0 0 1.952.2 7.833 7.833 0 0 0 3.332-.672 6.687 6.687 0 0 0 2.423-1.882 8.383 8.383 0 0 0 1.481-2.889 12.914 12.914 0 0 0 .5-3.73 11.153 11.153 0 0 0-.631-3.822zm10.585 8.87a4.491 4.491 0 0 1-1.447-.3 2.054 2.054 0 0 1-.825-.6 2.078 2.078 0 0 1-.387-.907 6.607 6.607 0 0 1-.1-1.21v-19.254l-5.015.807v19.454a10.3 10.3 0 0 0 .286 2.537 4.066 4.066 0 0 0 1.077 1.915 5.256 5.256 0 0 0 2.154 1.227 12.616 12.616 0 0 0 3.551.47zm6.277-.151a1.714 1.714 0 0 1-.791-1.63 1.774 1.774 0 0 1 .269-1.008 1.882 1.882 0 0 1 .741-.638 3.491 3.491 0 0 1 1.094-.319 9.939 9.939 0 0 1 1.329-.084 10.085 10.085 0 0 1 1.111.067c.4.045.706.09.908.134v3.8a9.683 9.683 0 0 1-1.077.1q-.674.034-1.413.034a4.378 4.378 0 0 1-2.178-.45zm.034-14.112q-.859.084-1.633.2t-1.43.268q-.657.151-1.094.286l.639 4.032a10.905 10.905 0 0 1 2.154-.521 17.2 17.2 0 0 1 2.525-.185 3.752 3.752 0 0 1 2.692.773 2.771 2.771 0 0 1 .774 2.05v.47a7.789 7.789 0 0 0-1.228-.218 15.891 15.891 0 0 0-1.733-.084 13.454 13.454 0 0 0-2.794.285 7.566 7.566 0 0 0-2.39.924 4.794 4.794 0 0 0-1.666 1.714 5.154 5.154 0 0 0-.622 2.621 6.193 6.193 0 0 0 .538 2.721 4.533 4.533 0 0 0 1.548 1.8 6.766 6.766 0 0 0 2.407.991 14.72 14.72 0 0 0 3.113.3 28.8 28.8 0 0 0 4.645-.32q1.918-.318 3-.554v-10.407a11.245 11.245 0 0 0-.37-2.99 5.315 5.315 0 0 0-1.262-2.285 5.759 5.759 0 0 0-2.373-1.445 11.628 11.628 0 0 0-3.7-.5q-.89-.004-1.747.08zm12.3 18.06h5.015v-13.636c.314-.044.673-.084 1.077-.117s.785-.051 1.144-.051a2.612 2.612 0 0 1 2.39 1.008 6.746 6.746 0 0 1 .639 3.428v9.379h5.015v-9.979a13.558 13.558 0 0 0-.37-3.293 6.5 6.5 0 0 0-1.245-2.554 5.651 5.651 0 0 0-2.373-1.663 10.371 10.371 0 0 0-3.753-.588 27.256 27.256 0 0 0-4.241.319 28.338 28.338 0 0 0-3.3.689V337.1zm17.855-5.074a7.661 7.661 0 0 0 1.716 2.907 8.1 8.1 0 0 0 2.928 1.932 11.185 11.185 0 0 0 4.157.7 17.779 17.779 0 0 0 1.885-.1q.942-.1 1.767-.252a14.323 14.323 0 0 0 1.5-.353 7.1 7.1 0 0 0 1.077-.4l-.673-4.066a10.228 10.228 0 0 1-2.171.622 14.528 14.528 0 0 1-2.71.252 5.824 5.824 0 0 1-3.433-.908 3.322 3.322 0 0 1-1.447-2.452H586c.022-.269.045-.577.067-.924s.034-.667.034-.958q0-4.469-2.188-6.77a7.828 7.828 0 0 0-5.957-2.3 8.5 8.5 0 0 0-3.147.6 7.9 7.9 0 0 0-2.709 1.781 8.807 8.807 0 0 0-1.9 2.94 10.781 10.781 0 0 0-.724 4.116 11.493 11.493 0 0 0 .551 3.639zm4.594-5.544a7.143 7.143 0 0 1 .32-1.26 3.377 3.377 0 0 1 .622-1.092 3.013 3.013 0 0 1 1.01-.756 3.374 3.374 0 0 1 1.447-.285 3.188 3.188 0 0 1 1.464.3 3.07 3.07 0 0 1 .977.773 3.134 3.134 0 0 1 .572 1.075 5.159 5.159 0 0 1 .218 1.243h-6.63zm16.088 6.737a16.391 16.391 0 0 1-2.625-.789l-.842 4.065a15.855 15.855 0 0 0 2.171.672 16.033 16.033 0 0 0 3.921.4 9.843 9.843 0 0 0 5.571-1.34 4.481 4.481 0 0 0 1.969-3.957 6.77 6.77 0 0 0-.253-1.944 3.955 3.955 0 0 0-.875-1.526 6.544 6.544 0 0 0-1.7-1.28 20.723 20.723 0 0 0-2.726-1.2q-.807-.3-1.329-.559a5.674 5.674 0 0 1-.825-.472 1.155 1.155 0 0 1-.4-.454 1.355 1.355 0 0 1-.1-.538q0-1.309 2.356-1.31a10.406 10.406 0 0 1 2.306.235 18.37 18.37 0 0 1 1.9.538l.875-3.9a14.465 14.465 0 0 0-2.356-.621 16.35 16.35 0 0 0-3.1-.286 8.062 8.062 0 0 0-5.082 1.445 4.717 4.717 0 0 0-1.851 3.931 5.77 5.77 0 0 0 .37 2.184 4.525 4.525 0 0 0 1.043 1.562 6.263 6.263 0 0 0 1.633 1.126 22.831 22.831 0 0 0 2.137.907 14.137 14.137 0 0 1 2.255 1.025 1.276 1.276 0 0 1 .74 1.058 1.038 1.038 0 0 1-.572 1.042 5 5 0 0 1-1.952.269 12.745 12.745 0 0 1-2.665-.277zm-160.599 35.219a1.714 1.714 0 0 1-.791-1.63 1.774 1.774 0 0 1 .269-1.008 1.879 1.879 0 0 1 .74-.638 3.5 3.5 0 0 1 1.094-.319 9.955 9.955 0 0 1 1.33-.084 10.082 10.082 0 0 1 1.11.067q.606.068.909.134v3.8a9.683 9.683 0 0 1-1.077.1q-.674.035-1.414.034a4.374 4.374 0 0 1-2.17-.456zm.033-14.112q-.858.084-1.632.2a18.207 18.207 0 0 0-2.524.554l.639 4.032a10.905 10.905 0 0 1 2.154-.521 17.191 17.191 0 0 1 2.524-.185 3.755 3.755 0 0 1 2.693.773 2.771 2.771 0 0 1 .774 2.05v.47a7.81 7.81 0 0 0-1.228-.218 15.9 15.9 0 0 0-1.734-.084 13.445 13.445 0 0 0-2.793.285 7.557 7.557 0 0 0-2.39.924 4.786 4.786 0 0 0-1.666 1.714 5.154 5.154 0 0 0-.623 2.621 6.193 6.193 0 0 0 .539 2.721 4.533 4.533 0 0 0 1.548 1.8 6.751 6.751 0 0 0 2.407.991 14.713 14.713 0 0 0 3.113.3 28.808 28.808 0 0 0 4.645-.32q1.918-.318 2.995-.554v-10.413a11.286 11.286 0 0 0-.37-2.99 5.315 5.315 0 0 0-1.262-2.285 5.759 5.759 0 0 0-2.373-1.445 11.637 11.637 0 0 0-3.7-.5q-.878-.004-1.736.08zm12.3 18.06h5.015v-13.642c.314-.044.673-.084 1.077-.117s.785-.051 1.144-.051a2.613 2.613 0 0 1 2.39 1.008 6.746 6.746 0 0 1 .639 3.428v9.374h5.015V362.4a13.607 13.607 0 0 0-.37-3.293 6.5 6.5 0 0 0-1.245-2.554 5.651 5.651 0 0 0-2.373-1.663 10.371 10.371 0 0 0-3.753-.588 27.246 27.246 0 0 0-4.241.319 28.293 28.293 0 0 0-3.3.689v17.069zm25.983-13.81a5.945 5.945 0 0 1 1.531.2 4.351 4.351 0 0 1 1.229.5v9.106q-.372.068-.943.117t-1.245.051a3.607 3.607 0 0 1-3.1-1.412 6.128 6.128 0 0 1-1.043-3.729q0-4.839 3.568-4.839zm7.774-12.264l-5.014.807v8a10.183 10.183 0 0 0-1.666-.572 7.923 7.923 0 0 0-1.868-.2 8.315 8.315 0 0 0-3.349.638 6.634 6.634 0 0 0-2.474 1.848 8.437 8.437 0 0 0-1.548 2.94 13.007 13.007 0 0 0-.539 3.881 10.992 10.992 0 0 0 .623 3.814 7.944 7.944 0 0 0 1.8 2.889 7.837 7.837 0 0 0 2.895 1.831 11.134 11.134 0 0 0 3.9.639q.909 0 1.9-.084t1.952-.219q.958-.134 1.834-.319t1.548-.386V346.3zm9.255 18.85a14.174 14.174 0 0 0 .32 3.125 5.734 5.734 0 0 0 1.128 2.4 5.328 5.328 0 0 0 2.154 1.546 9 9 0 0 0 3.4.554 11.791 11.791 0 0 0 2.726-.269 14.177 14.177 0 0 0 2.02-.638l-.707-3.9a8.469 8.469 0 0 1-1.565.42 9.583 9.583 0 0 1-1.666.152 2.385 2.385 0 0 1-2.238-.941 4.939 4.939 0 0 1-.556-2.52v-6.216h6.023V354.7h-6.025v-5.208l-5.015.807v14.851zM510.4 355a5.442 5.442 0 0 0-.976-.286q-.573-.117-1.144-.2t-1.145-.135q-.573-.05-.976-.05a18.35 18.35 0 0 0-4.089.42 30.282 30.282 0 0 0-3.181.89v16.733h5.015v-13.504a6.648 6.648 0 0 1 .993-.185 9.073 9.073 0 0 1 1.127-.084 9.813 9.813 0 0 1 1.953.185q.907.184 1.581.353zm5.267 13.423a1.716 1.716 0 0 1-.791-1.63 1.774 1.774 0 0 1 .27-1.008 1.879 1.879 0 0 1 .74-.638 3.5 3.5 0 0 1 1.094-.319 9.95 9.95 0 0 1 1.329-.084 10.085 10.085 0 0 1 1.111.067q.606.068.909.134v3.8a9.707 9.707 0 0 1-1.077.1q-.673.035-1.414.034a4.381 4.381 0 0 1-2.168-.452zm.034-14.112q-.858.084-1.632.2a18.468 18.468 0 0 0-2.525.554l.64 4.032a10.905 10.905 0 0 1 2.154-.521 17.191 17.191 0 0 1 2.524-.185 3.756 3.756 0 0 1 2.693.773 2.771 2.771 0 0 1 .774 2.05v.47a7.826 7.826 0 0 0-1.229-.218 15.865 15.865 0 0 0-1.733-.084 13.461 13.461 0 0 0-2.794.285 7.56 7.56 0 0 0-2.389.924 4.786 4.786 0 0 0-1.666 1.714 5.144 5.144 0 0 0-.623 2.621 6.179 6.179 0 0 0 .539 2.721 4.525 4.525 0 0 0 1.548 1.8 6.753 6.753 0 0 0 2.406.991 14.723 14.723 0 0 0 3.114.3 28.8 28.8 0 0 0 4.644-.32q1.918-.318 3-.554v-10.409a11.286 11.286 0 0 0-.37-2.99 5.317 5.317 0 0 0-1.263-2.285 5.748 5.748 0 0 0-2.372-1.445 11.639 11.639 0 0 0-3.7-.5q-.878-.004-1.741.08zm17.319.389h-5.015v17.674h5.015V354.7zm-.42-7.274a3.2 3.2 0 0 0-4.207 0 3.078 3.078 0 0 0 0 4.334 3.2 3.2 0 0 0 4.207 0 3.078 3.078 0 0 0 0-4.333zm3.449 24.948h5.015v-13.641c.314-.044.673-.084 1.077-.117s.785-.051 1.144-.051a2.61 2.61 0 0 1 2.39 1.008 6.745 6.745 0 0 1 .64 3.428v9.374h5.014V362.4a13.558 13.558 0 0 0-.37-3.293 6.5 6.5 0 0 0-1.245-2.554 5.651 5.651 0 0 0-2.373-1.663 10.371 10.371 0 0 0-3.753-.588 27.256 27.256 0 0 0-4.241.319 28.338 28.338 0 0 0-3.3.689v17.069zm20.564-3.881a16.421 16.421 0 0 1-2.625-.789l-.841 4.065a15.782 15.782 0 0 0 2.17.672 16.036 16.036 0 0 0 3.922.4 9.842 9.842 0 0 0 5.57-1.34 4.481 4.481 0 0 0 1.969-3.957 6.735 6.735 0 0 0-.253-1.944 3.955 3.955 0 0 0-.875-1.526 6.555 6.555 0 0 0-1.7-1.28 20.8 20.8 0 0 0-2.727-1.2q-.807-.3-1.329-.559a5.674 5.674 0 0 1-.825-.472 1.155 1.155 0 0 1-.4-.454 1.355 1.355 0 0 1-.1-.538q0-1.309 2.356-1.31a10.406 10.406 0 0 1 2.306.235 18.463 18.463 0 0 1 1.9.538l.875-3.9a14.522 14.522 0 0 0-2.356-.621 16.368 16.368 0 0 0-3.1-.286 8.062 8.062 0 0 0-5.082 1.445 4.72 4.72 0 0 0-1.851 3.931 5.77 5.77 0 0 0 .37 2.184 4.539 4.539 0 0 0 1.043 1.562 6.263 6.263 0 0 0 1.633 1.126 22.831 22.831 0 0 0 2.137.907 14.137 14.137 0 0 1 2.255 1.025 1.276 1.276 0 0 1 .74 1.058 1.037 1.037 0 0 1-.572 1.042 5 5 0 0 1-1.952.269 12.745 12.745 0 0 1-2.658-.282z" transform="translate(-424.344 -311.031)"/></svg><svg width="171.78" height="63.47" viewBox="-1 -1 171.78 63.47" id="txt3" y="133.47" xmlns="http://www.w3.org/2000/svg"><defs><style>.lcls-1{fill:#fefefe;fill-rule:evenodd}</style></defs><path id="ltxt3.svg" class="lcls-1" d="M823.97 328.811a14.114 14.114 0 0 0 .32 3.125 5.745 5.745 0 0 0 1.127 2.4 5.335 5.335 0 0 0 2.154 1.546 9 9 0 0 0 3.4.554 11.8 11.8 0 0 0 2.726-.269 14.2 14.2 0 0 0 2.019-.638l-.707-3.9a8.448 8.448 0 0 1-1.565.42 9.575 9.575 0 0 1-1.666.152 2.385 2.385 0 0 1-2.238-.941 4.94 4.94 0 0 1-.555-2.52v-6.216h6.024v-4.167h-6.024v-5.208l-5.015.807v14.851zm28.676-5.443a8.551 8.551 0 0 0-1.784-2.923 7.987 7.987 0 0 0-2.743-1.882 9.453 9.453 0 0 0-7 0 8.153 8.153 0 0 0-2.76 1.882 8.59 8.59 0 0 0-1.817 2.923 10.527 10.527 0 0 0-.657 3.8 10.9 10.9 0 0 0 .64 3.813 8.675 8.675 0 0 0 1.784 2.957 7.847 7.847 0 0 0 2.743 1.9 9.073 9.073 0 0 0 3.551.672 9.169 9.169 0 0 0 3.584-.672 7.856 7.856 0 0 0 2.743-1.9 8.275 8.275 0 0 0 1.75-2.957 11.465 11.465 0 0 0 .606-3.813 10.792 10.792 0 0 0-.64-3.8zm-5.4 7.476a3.007 3.007 0 0 1-2.642 1.361 3.047 3.047 0 0 1-2.659-1.361 6.357 6.357 0 0 1-.943-3.679 6.2 6.2 0 0 1 .943-3.646 3.069 3.069 0 0 1 2.659-1.327 3.029 3.029 0 0 1 2.642 1.327 6.287 6.287 0 0 1 .925 3.646 6.452 6.452 0 0 1-.927 3.679zm14.623 5.191h5.015v-13.642c.314-.044.673-.084 1.077-.117s.785-.051 1.144-.051a2.61 2.61 0 0 1 2.39 1.008 6.745 6.745 0 0 1 .64 3.428v9.374h5.015v-9.979a13.556 13.556 0 0 0-.371-3.293 6.5 6.5 0 0 0-1.245-2.554 5.651 5.651 0 0 0-2.373-1.663 10.371 10.371 0 0 0-3.753-.588 27.233 27.233 0 0 0-4.24.319 28.316 28.316 0 0 0-3.3.689v17.069zm23.156-17.674h-5.015v17.674h5.015v-17.674zm-.421-7.274a3.2 3.2 0 0 0-4.207 0 3.078 3.078 0 0 0 0 4.334 3.2 3.2 0 0 0 4.207 0 3.078 3.078 0 0 0-.004-4.334zm3.45 24.948h5.015v-13.642c.314-.044.673-.084 1.077-.117s.785-.051 1.144-.051a2.613 2.613 0 0 1 2.39 1.008 6.746 6.746 0 0 1 .639 3.428v9.374h5.015v-9.979a13.607 13.607 0 0 0-.37-3.293 6.485 6.485 0 0 0-1.246-2.554 5.641 5.641 0 0 0-2.372-1.663 10.371 10.371 0 0 0-3.753-.588 27.246 27.246 0 0 0-4.241.319 28.293 28.293 0 0 0-3.3.689v17.069zm21.439 4.536q1.716-1.68 1.716-5.174v-17.036h-5.015v16.9a3.7 3.7 0 0 1-.471 2.05 1.836 1.836 0 0 1-1.649.7 6.9 6.9 0 0 1-1.06-.067 5.965 5.965 0 0 1-.926-.235l-.673 4.066a8.353 8.353 0 0 0 1.733.369q.927.1 1.4.1a6.786 6.786 0 0 0 4.943-1.673zm1.3-29.484a3.2 3.2 0 0 0-4.207 0 3.078 3.078 0 0 0 0 4.334 3.2 3.2 0 0 0 4.207 0 3.078 3.078 0 0 0-.006-4.334zm8.043 21a1.716 1.716 0 0 1-.791-1.63 1.774 1.774 0 0 1 .27-1.008 1.879 1.879 0 0 1 .74-.638 3.491 3.491 0 0 1 1.094-.319 9.95 9.95 0 0 1 1.329-.084 10.085 10.085 0 0 1 1.111.067q.606.067.909.134v3.8a9.707 9.707 0 0 1-1.077.1q-.673.034-1.414.034a4.381 4.381 0 0 1-2.177-.456zm.034-14.112q-.858.084-1.632.2a18.468 18.468 0 0 0-2.525.554l.64 4.032a10.888 10.888 0 0 1 2.154-.521 17.191 17.191 0 0 1 2.524-.185 3.756 3.756 0 0 1 2.693.773 2.771 2.771 0 0 1 .774 2.05v.47a7.826 7.826 0 0 0-1.229-.218 15.891 15.891 0 0 0-1.733-.084 13.461 13.461 0 0 0-2.794.285 7.56 7.56 0 0 0-2.389.924 4.786 4.786 0 0 0-1.666 1.714 5.144 5.144 0 0 0-.623 2.621 6.179 6.179 0 0 0 .539 2.721 4.525 4.525 0 0 0 1.548 1.8 6.753 6.753 0 0 0 2.406.991 14.723 14.723 0 0 0 3.114.3 28.8 28.8 0 0 0 4.644-.32q1.918-.318 3-.554v-10.413a11.286 11.286 0 0 0-.37-2.99 5.317 5.317 0 0 0-1.263-2.285 5.748 5.748 0 0 0-2.382-1.44 11.639 11.639 0 0 0-3.7-.5q-.877-.009-1.736.075zm-90.132 49.392a1.716 1.716 0 0 1-.791-1.63 1.774 1.774 0 0 1 .27-1.008 1.879 1.879 0 0 1 .74-.638 3.5 3.5 0 0 1 1.094-.319 9.95 9.95 0 0 1 1.329-.084 10.085 10.085 0 0 1 1.111.067q.606.067.909.134v3.8a9.707 9.707 0 0 1-1.077.1q-.673.035-1.414.034a4.381 4.381 0 0 1-2.177-.456zm.034-14.112q-.858.084-1.632.2a18.468 18.468 0 0 0-2.525.554l.64 4.032a10.905 10.905 0 0 1 2.154-.521 17.191 17.191 0 0 1 2.524-.185 3.756 3.756 0 0 1 2.693.773 2.771 2.771 0 0 1 .774 2.05v.47a7.826 7.826 0 0 0-1.229-.218 15.865 15.865 0 0 0-1.733-.084 13.461 13.461 0 0 0-2.794.285 7.56 7.56 0 0 0-2.389.924 4.786 4.786 0 0 0-1.666 1.714 5.144 5.144 0 0 0-.623 2.621 6.179 6.179 0 0 0 .539 2.721 4.525 4.525 0 0 0 1.548 1.8 6.753 6.753 0 0 0 2.406.991 14.723 14.723 0 0 0 3.114.3 28.8 28.8 0 0 0 4.644-.32q1.918-.318 3-.554V360.4a11.286 11.286 0 0 0-.37-2.99 5.317 5.317 0 0 0-1.263-2.285 5.748 5.748 0 0 0-2.372-1.445 11.639 11.639 0 0 0-3.7-.5q-.887-.009-1.746.075zm20.144 4.25a5.945 5.945 0 0 1 1.531.2 4.331 4.331 0 0 1 1.228.5v9.106q-.37.067-.942.117t-1.245.051a3.607 3.607 0 0 1-3.1-1.412 6.128 6.128 0 0 1-1.043-3.729q0-4.839 3.568-4.839zm7.774-12.264l-5.015.807v8a10.119 10.119 0 0 0-1.666-.572 7.911 7.911 0 0 0-1.868-.2 8.313 8.313 0 0 0-3.348.638 6.634 6.634 0 0 0-2.474 1.848 8.437 8.437 0 0 0-1.548 2.94 13.007 13.007 0 0 0-.539 3.881 10.992 10.992 0 0 0 .623 3.814 7.944 7.944 0 0 0 1.8 2.889 7.837 7.837 0 0 0 2.895 1.831 11.134 11.134 0 0 0 3.9.639q.909 0 1.9-.084t1.952-.219q.959-.133 1.834-.319t1.548-.386v-25.5zm11.491 26.074q1.722-3.36 3.494-7.862t3.358-9.812h-5.186q-.337 1.311-.794 2.84t-.946 3.091q-.49 1.562-1 3.041t-.945 2.688q-.474-1.21-.964-2.688t-.98-3.041q-.492-1.563-.947-3.091t-.8-2.84h-5.317q1.587 5.31 3.361 9.812t3.5 7.862h4.162zm7.071-5.074a7.663 7.663 0 0 0 1.717 2.907 8.1 8.1 0 0 0 2.928 1.932 11.179 11.179 0 0 0 4.156.705 17.765 17.765 0 0 0 1.885-.1q.942-.1 1.767-.252a14.263 14.263 0 0 0 1.5-.353 7.019 7.019 0 0 0 1.077-.4l-.673-4.066a10.211 10.211 0 0 1-2.171.622 14.525 14.525 0 0 1-2.709.252 5.82 5.82 0 0 1-3.433-.908 3.323 3.323 0 0 1-1.448-2.452h11.376c.023-.269.045-.577.068-.924s.033-.667.033-.958q0-4.469-2.187-6.77a7.832 7.832 0 0 0-5.958-2.3 8.5 8.5 0 0 0-3.147.605 7.9 7.9 0 0 0-2.709 1.781 8.823 8.823 0 0 0-1.9 2.94 10.8 10.8 0 0 0-.723 4.116 11.493 11.493 0 0 0 .545 3.623zm4.594-5.544a7.231 7.231 0 0 1 .32-1.26 3.379 3.379 0 0 1 .623-1.092 3.009 3.009 0 0 1 1.009-.756 3.378 3.378 0 0 1 1.448-.285 3.194 3.194 0 0 1 1.464.3 3.066 3.066 0 0 1 .976.773 3.117 3.117 0 0 1 .572 1.075 5.21 5.21 0 0 1 .219 1.243h-6.637zm13.665 10.618h5.015v-13.642c.314-.044.673-.084 1.077-.117s.785-.051 1.144-.051a2.61 2.61 0 0 1 2.39 1.008 6.745 6.745 0 0 1 .64 3.428v9.374h5.014v-9.979a13.558 13.558 0 0 0-.37-3.293 6.5 6.5 0 0 0-1.245-2.554 5.651 5.651 0 0 0-2.373-1.663 10.371 10.371 0 0 0-3.753-.588 27.233 27.233 0 0 0-4.24.319 28.316 28.316 0 0 0-3.3.689v17.069zm17.973-7.224a14.176 14.176 0 0 0 .319 3.125 5.734 5.734 0 0 0 1.128 2.4 5.328 5.328 0 0 0 2.154 1.546 9 9 0 0 0 3.4.554 11.807 11.807 0 0 0 2.727-.269 14.2 14.2 0 0 0 2.019-.638l-.707-3.9a8.469 8.469 0 0 1-1.565.42 9.575 9.575 0 0 1-1.666.152 2.385 2.385 0 0 1-2.238-.941 4.94 4.94 0 0 1-.555-2.52v-6.216h6.024v-4.167H916.5v-5.208l-5.015.807v14.851zm28.54-10.45H935v13.642q-.473.067-1.078.118c-.4.033-.785.05-1.144.05a2.545 2.545 0 0 1-2.39-1.075 7.158 7.158 0 0 1-.639-3.5v-9.24h-5.015v9.845a13.977 13.977 0 0 0 .37 3.327 6.613 6.613 0 0 0 1.246 2.6 5.691 5.691 0 0 0 2.372 1.7 10.073 10.073 0 0 0 3.753.605 27.125 27.125 0 0 0 4.241-.319 27.926 27.926 0 0 0 3.3-.689v-17.064zm14.54.3a5.442 5.442 0 0 0-.976-.286q-.573-.117-1.144-.2t-1.145-.135q-.573-.05-.976-.05a18.357 18.357 0 0 0-4.089.42 30.282 30.282 0 0 0-3.181.89v16.733h5.015v-13.505a6.648 6.648 0 0 1 .993-.185 9.074 9.074 0 0 1 1.128-.084 9.81 9.81 0 0 1 1.952.185q.908.185 1.582.353zm.387 12.3a7.663 7.663 0 0 0 1.717 2.907 8.1 8.1 0 0 0 2.928 1.932 11.179 11.179 0 0 0 4.156.705 17.765 17.765 0 0 0 1.885-.1q.942-.1 1.767-.252a14.263 14.263 0 0 0 1.5-.353 7.019 7.019 0 0 0 1.077-.4l-.673-4.066a10.211 10.211 0 0 1-2.171.622 14.525 14.525 0 0 1-2.709.252 5.82 5.82 0 0 1-3.433-.908 3.323 3.323 0 0 1-1.448-2.452h11.376c.023-.269.045-.577.068-.924s.033-.667.033-.958q0-4.469-2.187-6.77a7.832 7.832 0 0 0-5.958-2.3 8.5 8.5 0 0 0-3.147.605 7.9 7.9 0 0 0-2.709 1.781 8.823 8.823 0 0 0-1.9 2.94 10.8 10.8 0 0 0-.723 4.116 11.493 11.493 0 0 0 .545 3.623zm4.594-5.544a7.231 7.231 0 0 1 .32-1.26 3.379 3.379 0 0 1 .623-1.092 3.009 3.009 0 0 1 1.009-.756 3.378 3.378 0 0 1 1.448-.285 3.194 3.194 0 0 1 1.464.3 3.066 3.066 0 0 1 .976.773 3.117 3.117 0 0 1 .572 1.075 5.21 5.21 0 0 1 .219 1.243h-6.631zm16.088 6.737a16.452 16.452 0 0 1-2.625-.789l-.841 4.065a15.808 15.808 0 0 0 2.171.672 16.022 16.022 0 0 0 3.921.4 9.842 9.842 0 0 0 5.57-1.34 4.479 4.479 0 0 0 1.969-3.957 6.735 6.735 0 0 0-.253-1.944 3.955 3.955 0 0 0-.875-1.526 6.538 6.538 0 0 0-1.7-1.28 20.743 20.743 0 0 0-2.727-1.2q-.807-.3-1.329-.559a5.674 5.674 0 0 1-.825-.472 1.144 1.144 0 0 1-.4-.454 1.338 1.338 0 0 1-.1-.538q0-1.31 2.356-1.31a10.4 10.4 0 0 1 2.3.235 18.463 18.463 0 0 1 1.9.538l.875-3.9a14.522 14.522 0 0 0-2.356-.621 16.368 16.368 0 0 0-3.1-.286 8.062 8.062 0 0 0-5.082 1.445 4.72 4.72 0 0 0-1.851 3.931 5.77 5.77 0 0 0 .37 2.184 4.528 4.528 0 0 0 1.044 1.562 6.24 6.24 0 0 0 1.632 1.126 22.831 22.831 0 0 0 2.137.907 14.137 14.137 0 0 1 2.255 1.025 1.277 1.277 0 0 1 .741 1.058 1.038 1.038 0 0 1-.573 1.042 5 5 0 0 1-1.952.269 12.752 12.752 0 0 1-2.658-.283zm16.172-1.075a3.378 3.378 0 0 0-4.342 0 3.241 3.241 0 0 0 0 4.6 3.378 3.378 0 0 0 4.342 0 3.241 3.241 0 0 0-.005-4.6z" transform="translate(-822.969 -310.312)"/></svg></svg>