<svg width="72" height="22" xmlns="http://www.w3.org/2000/svg" xmlns:xlink="http://www.w3.org/1999/xlink"><svg width="72" height="22" viewBox="-1 -1 72 22" xmlns="http://www.w3.org/2000/svg"><g data-name="Layer 2"><g data-name="Layer 1"><path fill="#fdf5ed" d="M13.31 0h3.5v15.65h-3.5V0zm5.2 0H22v15.65h-3.49V0zm16.56 4.35L29.19 20h-3.72l1.86-4.51-4.35-11.14h3.74l2.35 6.8h.04l2.24-6.8h3.72zm-23.36 5.74a5.65 5.65 0 00-5.86-5.71A5.64 5.64 0 000 10.09a5.63 5.63 0 005.3 5.7l3-3.24H5.91a2.46 2.46 0 110-4.91 2.48 2.48 0 012.55 2.45v5.51h3.25v-5.51z"/><path d="M43.26 12.75a1.1 1.1 0 00-1.12-1.21A1.12 1.12 0 0041 12.75v2.68a.27.27 0 01-.28.24h-1.5a.26.26 0 01-.22-.27V7.68a.27.27 0 01.27-.27h1.49a.27.27 0 01.28.25v2.63a2.41 2.41 0 011.76-.64c1.84 0 2.55 1.35 2.55 2.93v2.85a.27.27 0 01-.28.24h-1.53a.27.27 0 01-.28-.24z" fill="#cf477e"/><path d="M52.26 12.77A3.24 3.24 0 1149 9.65a3.15 3.15 0 013.26 3.12zm-2 0A1.18 1.18 0 1049 14a1.19 1.19 0 001.21-1.24zm13.21-.19v2.85a.24.24 0 01-.27.24h-1.51a.25.25 0 01-.26-.24v-2.68a1.13 1.13 0 10-2.26-.05v2.73a.25.25 0 01-.26.24H57.4a.26.26 0 01-.28-.24v-2.68A1.1 1.1 0 0056 11.54a1.12 1.12 0 00-1.14 1.21v2.68a.25.25 0 01-.26.24h-1.52a.25.25 0 01-.26-.27v-5.3a.26.26 0 01.27-.27h1.48a.28.28 0 01.29.25v.21a2.41 2.41 0 011.71-.64 2.26 2.26 0 012 1 2.75 2.75 0 012.22-1c1.88 0 2.68 1.35 2.68 2.93zm4.71.96c.06-.08.17-.23.32-.23a.45.45 0 01.2.06l1 .63a.3.3 0 01.19.26.38.38 0 01-.06.19A3.2 3.2 0 0164 12.79a3.05 3.05 0 013.09-3.14A2.88 2.88 0 0170 12.57v.25a.3.3 0 01-.32.34H66a1 1 0 001.09 1 1.29 1.29 0 001.09-.62zm-2.1-1.48H68a1 1 0 00-1.94 0z" fill="#cf477e"/></g></g></svg></svg>