<svg xmlns="http://www.w3.org/2000/svg" xmlns:xlink="http://www.w3.org/1999/xlink" width="99.98" height="20" viewBox="0 0 99.98 20"><defs><linearGradient id="linear-gradient" x1="9.2" y1="748.23" x2="-3.85" y2="761.28" gradientTransform="translate(0 -747)" gradientUnits="userSpaceOnUse"><stop offset="0" stop-color="#00a0ff"/><stop offset="0.01" stop-color="#00a1ff"/><stop offset="0.26" stop-color="#00beff"/><stop offset="0.51" stop-color="#00d2ff"/><stop offset="0.76" stop-color="#00dfff"/><stop offset="1" stop-color="#00e3ff"/></linearGradient><linearGradient id="linear-gradient-2" x1="18.55" y1="757.01" x2="-0.26" y2="757.01" gradientTransform="translate(0 -747)" gradientUnits="userSpaceOnUse"><stop offset="0" stop-color="#ffe000"/><stop offset="0.41" stop-color="#ffbd00"/><stop offset="0.78" stop-color="orange"/><stop offset="1" stop-color="#ff9c00"/></linearGradient><linearGradient id="linear-gradient-3" x1="11.55" y1="758.79" x2="-6.14" y2="776.49" gradientTransform="translate(0 -747)" gradientUnits="userSpaceOnUse"><stop offset="0" stop-color="#ff3a44"/><stop offset="1" stop-color="#c31162"/></linearGradient><linearGradient id="linear-gradient-4" x1="-2.08" y1="741.59" x2="5.82" y2="749.49" gradientTransform="translate(0 -747)" gradientUnits="userSpaceOnUse"><stop offset="0" stop-color="#32a071"/><stop offset="0.07" stop-color="#2da771"/><stop offset="0.48" stop-color="#15cf74"/><stop offset="0.8" stop-color="#06e775"/><stop offset="1" stop-color="#00f076"/></linearGradient></defs><title>logo-gpo</title><g id="Layer_2" data-name="Layer 2"><g id="Layer_1-2" data-name="Layer 1"><g id="Layer_1-2-2" data-name="Layer 1-2"><path d="M47.86,8a3.84,3.84,0,1,0,3.85,3.83A3.77,3.77,0,0,0,48,8Zm0,6.16a2.22,2.22,0,0,1-2.17-2.27v-.05A2.18,2.18,0,0,1,50,11.43a3.09,3.09,0,0,1,0,.43,2.23,2.23,0,0,1-2.13,2.32ZM58.18,8.87h-.06a2.65,2.65,0,0,0-2-.85,3.84,3.84,0,0,0,0,7.67,2.6,2.6,0,0,0,2-.88h.06v.56a2,2,0,0,1-2,2.25,2.09,2.09,0,0,1-1.93-1.36l-1.48.59a3.67,3.67,0,0,0,3.41,2.27c2,0,3.65-1.17,3.65-4V8.25h-1.6Zm-1.93,5.31a2.2,2.2,0,0,1-2.1-2.31h0a2.23,2.23,0,0,1,2.1-2.35,2.16,2.16,0,0,1,2,2.26s0,.06,0,.09a2.09,2.09,0,0,1-1.88,2.3ZM39.41,8a3.84,3.84,0,1,0,3.85,3.83A3.77,3.77,0,0,0,39.54,8h-.13Zm0,6.16a2.22,2.22,0,0,1-2.17-2.27v-.05a2.18,2.18,0,0,1,4.34-.43,3.09,3.09,0,0,1,0,.43,2.22,2.22,0,0,1-2.11,2.32h-.06Zm-9.94-5v1.63h3.89a3.42,3.42,0,0,1-.88,2.1,4,4,0,0,1-3,1.15,4.29,4.29,0,0,1-4.29-4.29v0A4.29,4.29,0,0,1,29.41,5.4h.06A4.2,4.2,0,0,1,32.4,6.55l1.15-1.14a5.73,5.73,0,0,0-4.08-1.65,6,6,0,0,0-6,6,6,6,0,0,0,6,6A5.43,5.43,0,0,0,33.68,14a5.38,5.38,0,0,0,1.41-3.8A6.23,6.23,0,0,0,35,9.15Zm40.89,1.27A3.54,3.54,0,0,0,67.08,8a3.65,3.65,0,0,0-3.63,3.67c0,.06,0,.11,0,.17a3.74,3.74,0,0,0,3.66,3.83h.15A3.83,3.83,0,0,0,70.43,14l-1.32-.87a2.18,2.18,0,0,1-1.88,1.05A2,2,0,0,1,65.36,13l5.14-2.1ZM65.1,11.73a2.11,2.11,0,0,1,2-2.25h.07a1.49,1.49,0,0,1,1.43.81Zm-4.21,3.73h1.68V4.22H60.89ZM78.26,4.22H74.21V15.46H75.9V11.18h2.36A3.59,3.59,0,0,0,82,7.71v0a3.57,3.57,0,0,0-3.69-3.46Zm0,5.44H75.9V5.74h2.4a1.94,1.94,0,0,1,0,3.88Zm4.58,5.84h1.69V4.22H82.84ZM88.66,8a3.15,3.15,0,0,0-3,1.72l1.5.62a1.58,1.58,0,0,1,1.58-.9,1.61,1.61,0,0,1,1.76,1.44v.17a3.55,3.55,0,0,0-1.75-.44c-1.61,0-3.25.88-3.25,2.54a2.61,2.61,0,0,0,2.73,2.48h.08a2.4,2.4,0,0,0,2.1-1.06h0v.87H92V11.11c.1-2-1.4-3.11-3.33-3.11Zm-.2,6.17c-.55,0-1.32-.27-1.32-1,0-.87,1-1.2,1.79-1.2a2.85,2.85,0,0,1,1.53.38,2,2,0,0,1-1.95,1.73ZM98,8.28l-1.94,4.89H96L94,8.28H92.25l3,6.84-1.7,3.8h1.74L100,8.24Z" opacity="0.54" style="isolation:isolate"/><path d="M.36.31A1.62,1.62,0,0,0,0,1.37V18.6a1.62,1.62,0,0,0,.36,1.06l.06.05,9.63-9.59V9.89L.42.26Z" fill="url(#linear-gradient)"/><path d="M13.26,13.33,10.1,10.12V9.89l3.16-3.21h.07l3.8,2.16a1.19,1.19,0,0,1,.75,1.51,1.2,1.2,0,0,1-.75.74l-3.8,2.1Z" fill="url(#linear-gradient-2)"/><path d="M13.33,13.29,10.05,10,.36,19.7A1.27,1.27,0,0,0,2,19.7l11.35-6.45" fill="url(#linear-gradient-3)"/><path d="M13.33,6.72,2,.27A1.27,1.27,0,0,0,.36.31L10.05,10Z" fill="url(#linear-gradient-4)"/><path d="M13.26,13.21,2,19.62a1.29,1.29,0,0,1-1.56,0h0l-.06.07h0l.06,0h0a1.29,1.29,0,0,0,1.56,0l11.35-6.45Z" opacity="0.2" style="isolation:isolate"/><path d="M.36,19.58a1.6,1.6,0,0,1-.36-1v.12A1.61,1.61,0,0,0,.36,19.7l.06-.07Z" opacity="0.12" style="isolation:isolate"/><path d="M17.13,11l-3.87,2.19.07.08,3.8-2.11A1.37,1.37,0,0,0,18,10.06h0A1.48,1.48,0,0,1,17.13,11Z" opacity="0.12" style="isolation:isolate"/><path d="M2,.39,17.13,9A1.5,1.5,0,0,1,18,10.05h0a1.37,1.37,0,0,0-.82-1.13L2,.27C.9-.35,0,.17,0,1.41v.11C0,.28.88-.23,2,.39Z" fill="#fff" opacity="0.25" style="isolation:isolate"/></g></g></g></svg>