<svg width="416" height="136" xmlns="http://www.w3.org/2000/svg" xmlns:xlink="http://www.w3.org/1999/xlink"><svg width="61.54" height="36" viewBox="-1 -1 61.54 36" x="204.32" y="57.86" xmlns="http://www.w3.org/2000/svg"><g data-name="Layer 2"><path d="M7.83 7.46a10 10 0 0 0-6.9 14 9.92 9.92 0 0 0 8 5.65c1-1.11 4.22-4.51 5.28-5.67C9.87 21.45 9 21.56 8 21a4.27 4.27 0 0 1 .61-7.93 4.32 4.32 0 0 1 5.54 4.41v9.2h5.74v-9.63A10 10 0 0 0 7.83 7.46zM31.42 0h5.96v26.73h-5.96zm-8.84 0h5.96v26.73h-5.96zm30.73 7.5l-3.89 11.77L45.34 7.5h-6.22l7.26 19.23-3 7.27h6.2l9.96-26.5h-6.23z" data-name="Layer 1" fill="#fff"/></g></svg><svg width="9" height="14" viewBox="-1 -1 9 14" x="281.69" y="39.97" xmlns="http://www.w3.org/2000/svg"><path d="M-.007 10.806L4.669 6-.007 1.194l1.169-1.2L7.007 6l-5.845 6.007z" fill="#fbfbfb" fill-rule="evenodd"/></svg><svg width="12.98" height="34.57" viewBox="-1 -1 12.98 34.57" x="265.86" y="57.86" xmlns="http://www.w3.org/2000/svg"><g data-name="Layer 2"><g data-name="Layer 1"><path fill="none" stroke="#faf3ec" stroke-linecap="round" stroke-miterlimit="10" stroke-width=".73" d="M3.96 19V.37m2.87 18.78V6.63"/><circle cx="5.49" cy="27.08" r="5.49" fill="#faf3ec"/></g></g></svg><svg width="105.3" height="95.48" viewBox="-1 -1 105.3 95.48" y="39.97" xmlns="http://www.w3.org/2000/svg"><g data-name="Layer 2"><g data-name="Layer 1" fill="none" stroke="#faf3ec" stroke-linejoin="round"><path d="M56.84 25.84L1.26 82.39a2.35 2.35 0 0 0 .14 3.3l6.52 6.41a2.35 2.35 0 0 0 3.31.08l55.58-56.55" stroke-linecap="square" stroke-width="1.29"/><path stroke-linecap="round" stroke-width=".86" d="M33.17 63.99L22.31 75.04 12.03 85.5"/><path d="M57.25 26.25l9.4 9.24a2 2 0 0 0 2.85-.11c.72-.83 4-4 7.51-7.44a19.3 19.3 0 0 1 5.32 3.78 20.6 20.6 0 0 1 3.11 3.86 2.46 2.46 0 0 0 .65 2.42l4.36 4.28a2.46 2.46 0 0 0 3.48 0l8-8.15a2.46 2.46 0 0 0 0-3.48l-4.36-4.28a2.46 2.46 0 0 0-2.4-.61 30.66 30.66 0 0 1-3.93-3.05c-4.53-3.83-4.1-7.64-4.58-8.34C82.14 7.83 75.69 5.55 72.8 4.18 69 2.4 57-1.65 45.3 2.36c0 0-8.9 2.59-9.57 5.52a73.94 73.94 0 0 1 15.47.84c5 1 12.45 5 9.42 9.81-1.56 2.46-2.76 4.1-3.55 5.11a2 2 0 0 0 .18 2.61z" stroke-linecap="round" stroke-width="1.29"/><path stroke-linecap="round" stroke-width=".86" d="M94.18 38.44l4.29-4.3"/></g></g></svg><svg width="99.02" height="89.33" viewBox="-1 -1 99.02 89.33" x="105.3" y="39.97" xmlns="http://www.w3.org/2000/svg"><g data-name="Layer 2"><g data-name="Layer 1"><circle cx="23.55" cy="27.33" r="2.2" fill="#faf3ec"/><path fill="none" stroke="#faf3ec" stroke-linecap="round" stroke-miterlimit="10" stroke-width=".73" d="M4.89 36.48v11.71m25.37 35.87h-3.41m44.16 0h-3.42"/><path d="M45.66 11.93a50.56 50.56 0 0 1 7.53.06A44.44 44.44 0 0 1 63 13.94" fill="none" stroke="#faf3ec" stroke-linecap="round" stroke-linejoin="round" stroke-width="1.46"/><path d="M47.22 15q1.51-.05 3 0t3 .16q1.26.11 2.51.28" fill="none" stroke="#faf3ec" stroke-linecap="round" stroke-miterlimit="10" stroke-width=".73"/><path d="M90.41 39s5.12-1 5.86-4.15c0 0 .73 8.78-5.75 11.47l-.3.36q-.11.78-.26 1.55a33.93 33.93 0 0 1-4.3 11 34.29 34.29 0 0 1-8.14 9.34 4.89 4.89 0 0 0-1.63 3.49c-.73 4.55-1.49 9.09-2.25 13.63a8.13 8.13 0 0 1-.24.87h-8.2L64.42 82c-.2-1.15-.37-2.31-.6-3.45a1.83 1.83 0 0 0-2.4-1.46 49 49 0 0 1-17.09 1.65 66.09 66.09 0 0 1-7.12-1.11c-1.85-.36-2.7.17-3 2-.37 2.3-.78 4.6-1.18 6.92h-8.24c-.27-1.54-.56-3.1-.82-4.66-.55-3.29-1-6.6-1.67-9.88a3.22 3.22 0 0 0-1.3-1.62 36.7 36.7 0 0 1-9.57-9.93 61.64 61.64 0 0 1-3.15-5.92 3.24 3.24 0 0 0-2.19-1.79 26.85 26.85 0 0 0-3.5-.75 2 2 0 0 1-1.85-2.16v-15.1a2 2 0 0 1 1.91-2.07 23 23 0 0 0 3.88-.88A2.58 2.58 0 0 0 8 30.49a37.08 37.08 0 0 1 10.19-14c.76-.65.6-2.38.6-2.38A28.77 28.77 0 0 0 16.23.73c9 .24 10.27 6.09 13.14 7.73a2.4 2.4 0 0 0 2.19.25 47.28 47.28 0 0 1 19.79-2.83 45 45 0 0 1 24.28 8.67c7.27 5.38 12.3 12.33 14.18 21.3.19 1.03.6 3.15.6 3.15z" fill="none" stroke="#faf3ec" stroke-linecap="round" stroke-linejoin="round" stroke-width="1.46"/></g></g></svg><svg width="77.37" height="17.89" viewBox="-1 -1 77.37 17.89" x="204.32" y="39.97" xmlns="http://www.w3.org/2000/svg"><g data-name="Layer 2"><path d="M6.33.7h2a.36.36 0 0 1 .37.37v10.39a.36.36 0 0 1-.37.37h-2a.36.36 0 0 1-.33-.37v-.24a2.54 2.54 0 0 1-2 .84 4 4 0 0 1-4-4.19 4 4 0 0 1 3.91-4.15A2.62 2.62 0 0 1 6 4.51V1.06A.37.37 0 0 1 6.33.7zm-2 5.58A1.62 1.62 0 1 0 5.94 7.9a1.6 1.6 0 0 0-1.59-1.62zm13.8 1.63a4.24 4.24 0 0 1-4.35 4.15 4.24 4.24 0 0 1-4.36-4.15 4.27 4.27 0 0 1 4.35-4.2 4.27 4.27 0 0 1 4.36 4.2zm-2.77 0a1.59 1.59 0 1 0-1.59 1.6 1.6 1.6 0 0 0 1.6-1.61zM23.44 0a1.7 1.7 0 1 1-1.7 1.7 1.7 1.7 0 0 1 1.7-1.7zm1 11.82h-2a.39.39 0 0 1-.38-.38V4.32a.37.37 0 0 1 .38-.32h2a.36.36 0 0 1 .37.37v7.12a.37.37 0 0 1-.37.33zm2.34-5.51h-1a.37.37 0 0 1-.37-.38V4.32a.36.36 0 0 1 .4-.32h1V2a.37.37 0 0 1 .38-.37h2a.36.36 0 0 1 .37.37v2h2.21a.37.37 0 0 1 .38.37v1.56a.39.39 0 0 1-.38.38h-2.24v2.35c0 .72.48.73.62.73a1 1 0 0 0 .59-.19.64.64 0 0 1 .37-.2.41.41 0 0 1 .35.18l.87 1.22a.63.63 0 0 1 .13.33.51.51 0 0 1-.16.33 3.67 3.67 0 0 1-2.56.87 2.74 2.74 0 0 1-3-3zm12.12 5.18a.37.37 0 0 1-.38.33h-2a.36.36 0 0 1-.37-.37V4.32a.36.36 0 0 1 .37-.32h1.89a.37.37 0 0 1 .38.33v.44a2.47 2.47 0 0 1 2-.92H41c.17 0 .43.06.43.48v2a.46.46 0 0 1-.49.49h-.62c-1 0-1.46.27-1.46 1.18zM43.51 0a1.7 1.7 0 1 1-1.7 1.7 1.7 1.7 0 0 1 1.7-1.7zm1 11.82h-2a.39.39 0 0 1-.38-.38V4.32a.37.37 0 0 1 .38-.32h2a.36.36 0 0 1 .37.37v7.12a.37.37 0 0 1-.37.33zm5.55 1.71a1.35 1.35 0 0 0 1.54-1.4v-.86a2.53 2.53 0 0 1-2 .72 3.9 3.9 0 0 1-4-4.12 3.91 3.91 0 0 1 3.9-4.15 2.57 2.57 0 0 1 2.1.84v-.24A.37.37 0 0 1 52 4h2a.36.36 0 0 1 .37.37v8c0 2.3-1.7 3.53-4.31 3.53a5 5 0 0 1-2.83-.73 3 3 0 0 1-1.33-2.51v-.13a.35.35 0 0 1 .35-.35h2.1a.36.36 0 0 1 .4.33c0 .32.16 1.02 1.31 1.02zM50 6.28a1.62 1.62 0 1 0 1.58 1.62A1.6 1.6 0 0 0 50 6.28zm11.15 1.6a1.47 1.47 0 0 0-1.51-1.62 1.5 1.5 0 0 0-1.54 1.62v3.61a.37.37 0 0 1-.38.33h-2a.36.36 0 0 1-.37-.37V1.06a.36.36 0 0 1 .36-.36h2a.37.37 0 0 1 .39.3v3.58a3.24 3.24 0 0 1 2.37-.86c2.48 0 3.43 1.81 3.43 3.94v3.83a.37.37 0 0 1-.38.33h-2a.37.37 0 0 1-.38-.33zm4.51-1.57h-1a.37.37 0 0 1-.37-.38V4.32a.36.36 0 0 1 .4-.32h1V2a.37.37 0 0 1 .31-.35h2a.36.36 0 0 1 .37.37V4h2.21a.37.37 0 0 1 .38.37v1.56a.39.39 0 0 1-.38.38h-2.17v2.35c0 .72.48.73.62.73a1 1 0 0 0 .59-.19A.64.64 0 0 1 70 9a.41.41 0 0 1 .35.18l.87 1.22a.63.63 0 0 1 .13.33.51.51 0 0 1-.16.33 3.67 3.67 0 0 1-2.56.87 2.74 2.74 0 0 1-3-3zm7.95 2.22a1.76 1.76 0 1 1-1.76 1.76 1.77 1.77 0 0 1 1.76-1.76z" data-name="Layer 1" fill="#cf477f"/></g></svg><svg width="415.6" height="39.97" viewBox="-1 -1 415.6 39.97" xmlns="http://www.w3.org/2000/svg"><g data-name="Layer 2"><g data-name="Layer 1"><path fill="none" stroke="#faf3ec" stroke-linecap="round" stroke-miterlimit="10" stroke-width="1.95" d="M285.96 26.3V37M45.84 26.3V37m40.02-10.7V37m40.02-10.7V37m40.02-10.7V37m40.02-10.7V37m120.06-10.7V37"/><path fill="none" stroke="#faf3ec" stroke-linecap="round" stroke-linejoin="round" stroke-width="1.95" d="M406.04 26.3V37H5.82V26.3"/><path fill="none" stroke="#faf3ec" stroke-linecap="round" stroke-miterlimit="10" stroke-width="1.95" d="M366 26.3V37m0-10.7V37M245.94 26.3V37"/><path d="M404 .23a7.93 7.93 0 0 0-5.4 11.07 7.83 7.83 0 0 0 6.28 4.46c.81-.88 3.34-3.56 4.17-4.48-3.39 0-4.1.09-4.84-.32a3.37 3.37 0 0 1 .48-6.26 3.41 3.41 0 0 1 4.38 3.48v7.27h4.54V7.81A7.91 7.91 0 0 0 404 .23zM4 4.09L1.41 6 0 3.78 4.57.49H7v15.17H4zm36.87 9.6l4.7-5c1.24-1.28 2-2.3 2-3.51a2 2 0 0 0-2-2.05 3 3 0 0 0-2.65 1.61L40.8 3.2a5.39 5.39 0 0 1 5-2.87 4.54 4.54 0 0 1 4.84 4.48c0 1.72-.55 3.07-2.52 5.1l-2.83 3v.07h5.45v2.72h-9.83zm39.65-1.19l2.58-1.08a2.57 2.57 0 0 0 2.63 1.72 2.07 2.07 0 0 0 2.25-2c0-1.1-.84-2.05-2.52-2.05h-1.05V6.65h1.33a1.73 1.73 0 0 0 1.94-1.79 1.87 1.87 0 0 0-2-1.83 2.33 2.33 0 0 0-2.21 1.28L81.07 3A5 5 0 0 1 85.76.31c2.69 0 4.88 1.48 4.88 4.06a3.85 3.85 0 0 1-2 3.4v.07a3.89 3.89 0 0 1 2.41 3.69c0 2.63-2.19 4.33-5.12 4.33a5.57 5.57 0 0 1-5.41-3.36zm46.06.66h-6.4v-1.9l7-10.78h2.41V10.6h2v2.56h-2v2.5h-3zm.2-2.43V5.34l-3.33 5.39zm44.22.02c0 3-2.21 5.1-5.41 5.1a6.6 6.6 0 0 1-5.26-2.41l2.16-1.72a3.43 3.43 0 0 0 2.8 1.39 2.41 2.41 0 1 0 .07-4.79 3.49 3.49 0 0 0-2.3.77l-1.61-.57.46-8h8.3v2.7h-5.65l-.18 3a7.19 7.19 0 0 1 1.88-.31 4.62 4.62 0 0 1 4.74 4.84zm40.73.07c0 3-2.36 5-5.48 5s-5.45-2.45-5.45-6.16a9.66 9.66 0 0 1 8-9.7l.88 2.43c-2.72.77-4.55 2-5.43 4.15a5.87 5.87 0 0 1 2.76-.68 4.53 4.53 0 0 1 4.72 4.96zm-2.94-.07a2.28 2.28 0 0 0-2.5-2.3 3.46 3.46 0 0 0-2.63 1.37V10a2.86 2.86 0 0 0 2.72 3.14 2.33 2.33 0 0 0 2.42-2.39zM252.17.49v2L246.89 16l-3-.55 5-12.23h-6.14V.49zm29.2 10.99a4.15 4.15 0 0 1 2.63-4 3.53 3.53 0 0 1-1.86-3.16c0-2.56 2.05-4 4.7-4s4.73 1.46 4.73 4a3.52 3.52 0 0 1-1.85 3.16 4.08 4.08 0 0 1 2.63 4c0 2.69-2.43 4.35-5.5 4.35s-5.48-1.74-5.48-4.35zm7.93-.4a2.46 2.46 0 0 0-4.9 0 2.47 2.47 0 0 0 4.9 0zm-.51-6.54a1.81 1.81 0 0 0-1.94-1.74 1.79 1.79 0 0 0-1.92 1.74 1.75 1.75 0 0 0 1.92 1.7 1.77 1.77 0 0 0 1.95-1.69zm42.35 1.86a9.77 9.77 0 0 1-8.08 9.81l-.91-2.43c2.74-.75 4.62-2 5.52-4.22a5.75 5.75 0 0 1-2.8.71 4.56 4.56 0 0 1-4.64-4.9c0-3 2.38-5 5.45-5s5.46 2.39 5.46 6.03zm-5.5 1.3a3.54 3.54 0 0 0 2.63-1.35v-.21c0-1.88-1.08-3.11-2.56-3.11a2.39 2.39 0 0 0-2.54 2.38 2.25 2.25 0 0 0 2.47 2.3zm33.63-3.61L356.74 6l-1.41-2.23 4.56-3.28h2.41v15.17h-3zm5.79 3.99c0-4.64 2.25-7.77 5.92-7.77 3.51 0 5.92 2.85 5.92 7.77 0 4.64-2.23 7.77-5.92 7.77-3.51.01-5.92-2.85-5.92-7.77zm8.77 0c0-3.09-1-5-2.85-5s-2.85 1.77-2.85 5c0 3 1.08 5 2.85 5s2.85-1.77 2.85-5z" fill="#faf3ec"/></g></g></svg></svg>