<?xml version="1.0" encoding="utf-8"?><svg width="185" height="150" viewBox="0 0 185 150" xmlns="http://www.w3.org/2000/svg" xmlns:xlink="http://www.w3.org/1999/xlink"><svg data-name="Capa 1" viewBox="-1 -1 184.58 150" width="184.58" height="150" id="txt"><title>txt</title><path d="M24.52 39.13l-8.79 1.21-8-30.94 9.05-1.25 1.57 8.93 1 5.45q.51 2.84.81 6.08.29-3.32.81-6.29l1-5.73 1.57-9.33 9.1-1.25zM33.99 37.82v-32l16.07-2.21v7.53l-7.44 1v4.72l6.66-.92v7.2l-6.66.92v4.89l7.44-1v7.66zM52.91 35.22v-32l8.25-1.13 4.5 11.15q.35.84.65 1.83l.64 1.93q.33.91.58 1.81l.47 1.64q-.22-3.32-.54-6.24t-.28-4.82V1.16L75.51.01v32l-8.31 1.15-4.35-11.14q-1.33-3.51-2.21-6.41.25 3.32.39 5.84t.13 4.42v8.16zM32.78 73.76l-8.89 1.22-.72-4-5.74.79-.72 4.18-8.93 1.23 7.4-33.06 10.28-1.41zM22.16 64.3l-1.24-8.46q-.14-.79-.25-1.88l-.35-2.89q-.21 1.85-.32 3t-.22 1.91l-1.33 8.81zM59.26 69.11a15.86 15.86 0 0 1-5.18 1.87 11.62 11.62 0 0 1-5.33-.4 9.63 9.63 0 0 1-4.14-2.66 13.33 13.33 0 0 1-2.66-4.84 21.59 21.59 0 0 1-1-6.84 23 23 0 0 1 1-6.89 18.29 18.29 0 0 1 2.83-5.64 15.68 15.68 0 0 1 4.46-4 15.24 15.24 0 0 1 5.85-2 10.58 10.58 0 0 1 2.15-.08 15.68 15.68 0 0 1 2.15.29v9.14a5.09 5.09 0 0 0-4-1.33 5.53 5.53 0 0 0-4.21 2.88 12.85 12.85 0 0 0-1.4 6.48 10.18 10.18 0 0 0 1.4 5.86 4 4 0 0 0 4.08 1.63 7.88 7.88 0 0 0 4.52-2.67zM85.87 50.05a26 26 0 0 1-.87 6.88 19 19 0 0 1-2.49 5.58 14 14 0 0 1-3.86 3.92 11.75 11.75 0 0 1-5 1.88 9.77 9.77 0 0 1-5-.51 9.41 9.41 0 0 1-3.87-2.84 13.8 13.8 0 0 1-2.49-4.9 23.35 23.35 0 0 1-.87-6.66 25.93 25.93 0 0 1 .91-6.89 19 19 0 0 1 2.45-5.58A14.33 14.33 0 0 1 68.63 37a11.55 11.55 0 0 1 5-1.89 9.65 9.65 0 0 1 5 .53 9.54 9.54 0 0 1 3.88 2.87 13.83 13.83 0 0 1 2.49 4.9 23.37 23.37 0 0 1 .87 6.64zm-9 1.24a17.32 17.32 0 0 0-.85-6.22q-.85-2.09-2.39-1.88a3.29 3.29 0 0 0-2.39 2.53 19.45 19.45 0 0 0-.85 6.45 17.16 17.16 0 0 0 .85 6.2q.85 2.08 2.39 1.87a3.28 3.28 0 0 0 2.39-2.52 19.27 19.27 0 0 0 .88-6.43zM111.5 62.51l-9.32 1.37-4.8-12.47v13.1l-8.6 1.23v-32l8.33-1.23a19 19 0 0 1 5.93 0 9 9 0 0 1 4 1.64 6.84 6.84 0 0 1 2.23 3.08 12.13 12.13 0 0 1 .7 4.28 9.45 9.45 0 0 1-4.89 8.7zM97.35 47.16l.6-.08a3.82 3.82 0 0 0 2.6-1.33 4.6 4.6 0 0 0 .89-2.94 3.57 3.57 0 0 0-.89-2.66 3 3 0 0 0-2.6-.63l-.6.08v7.57zM136.31 59.14l-9.32 1.37-4.8-12.47v13.07l-8.63 1.19v-32l8.37-1.15a19 19 0 0 1 5.93 0 9 9 0 0 1 4 1.64 6.84 6.84 0 0 1 2.23 3.08 12.13 12.13 0 0 1 .71 4.26 9.45 9.45 0 0 1-4.89 8.7zm-14.15-15.35l.6-.08a3.82 3.82 0 0 0 2.6-1.33 4.6 4.6 0 0 0 .89-2.94 3.57 3.57 0 0 0-.89-2.66 3 3 0 0 0-2.6-.63l-.6.08v7.57zM138.35 58.86V26.81l16.07-2.21v7.53l-7.44 1v4.72l6.66-.92v7.22l-6.66.92v4.89l7.44-1v7.69zM180.06 53.12l-9.28 1.33-4.8-12.47v13.14l-8.63 1.19V24.2l8.37-1.15a19 19 0 0 1 5.93 0 9 9 0 0 1 4 1.64 6.84 6.84 0 0 1 2.13 3.08 12.12 12.12 0 0 1 .71 4.26 9.45 9.45 0 0 1-4.89 8.7zm-14.15-15.39l.6-.08a3.82 3.82 0 0 0 2.6-1.33 4.6 4.6 0 0 0 .89-2.94 3.57 3.57 0 0 0-.89-2.66 3 3 0 0 0-2.6-.63l-.6.08v7.57zM102.86 98.05a15.86 15.86 0 0 1-5.18 1.87 11.6 11.6 0 0 1-5.33-.4 9.63 9.63 0 0 1-4.14-2.66 13.33 13.33 0 0 1-2.66-4.84 21.57 21.57 0 0 1-1-6.84 23 23 0 0 1 1-6.89 18.29 18.29 0 0 1 2.85-5.64 15.68 15.68 0 0 1 4.46-4 15.24 15.24 0 0 1 5.85-2 10.58 10.58 0 0 1 2.15-.08 15.68 15.68 0 0 1 2.15.29V76a5.09 5.09 0 0 0-4-1.33 5.53 5.53 0 0 0-4.23 2.84A12.85 12.85 0 0 0 93.34 84a10.18 10.18 0 0 0 1.44 5.9 4 4 0 0 0 4.06 1.61 7.88 7.88 0 0 0 4.5-2.66zM129.41 78.97a26 26 0 0 1-.87 6.88 19 19 0 0 1-2.49 5.6 14 14 0 0 1-3.86 3.92 11.75 11.75 0 0 1-5 1.88 9.77 9.77 0 0 1-5-.51 9.41 9.41 0 0 1-3.85-2.85 13.79 13.79 0 0 1-2.49-4.9 23.35 23.35 0 0 1-.87-6.66 25.93 25.93 0 0 1 .87-6.88 19 19 0 0 1 2.49-5.6 14.34 14.34 0 0 1 3.85-3.93 11.54 11.54 0 0 1 5-1.89 9.65 9.65 0 0 1 5 .53 9.54 9.54 0 0 1 3.86 2.86 13.83 13.83 0 0 1 2.49 4.9 23.37 23.37 0 0 1 .87 6.65zm-9 1.24a17.32 17.32 0 0 0-.85-6.21q-.78-2.09-2.35-1.88a3.29 3.29 0 0 0-2.43 2.53 19.45 19.45 0 0 0-.85 6.45 17.16 17.16 0 0 0 .85 6.2q.85 2.08 2.39 1.87a3.28 3.28 0 0 0 2.39-2.52 19.27 19.27 0 0 0 .84-6.45zM132.25 94.6V62.51l8.25-1.13 4.5 11.15q.35.84.65 1.83l.64 1.93q.32 1 .57 1.85l.47 1.64q-.25-3.27-.55-6.19t-.28-4.82v-8.16l8.35-1.1v32l-8.31 1.15-4.35-11.15q-1.33-3.47-2.21-6.41.25 3.32.39 5.84t.13 4.42v8.15zM0 148v-32l8.25-1.13 4.5 11.15q.35.84.65 1.83l.64 1.93q.32 1 .57 1.85l.47 1.64q-.25-3.32-.53-6.24t-.28-4.82v-8.2l8.33-1.15v32l-8.31 1.15-4.34-11.18q-1.33-3.47-2.21-6.41.25 3.32.39 5.84t.13 4.42v8.16zM49.78 125.07a26 26 0 0 1-.87 6.88 19 19 0 0 1-2.49 5.6 14 14 0 0 1-3.83 3.96 11.75 11.75 0 0 1-5 1.88 9.77 9.77 0 0 1-5-.51 9.41 9.41 0 0 1-3.81-2.9 13.8 13.8 0 0 1-2.49-4.9 23.35 23.35 0 0 1-.87-6.66 25.93 25.93 0 0 1 .86-6.91 19 19 0 0 1 2.5-5.56 14.33 14.33 0 0 1 3.84-3.94 11.55 11.55 0 0 1 5-1.89 9.65 9.65 0 0 1 5 .53 9.54 9.54 0 0 1 3.83 2.86 13.83 13.83 0 0 1 2.49 4.9 23.36 23.36 0 0 1 .84 6.66zm-9 1.24a17.32 17.32 0 0 0-.85-6.22q-.85-2.09-2.39-1.88a3.29 3.29 0 0 0-2.39 2.53 19.45 19.45 0 0 0-.85 6.45 17.16 17.16 0 0 0 .85 6.2q.85 2.08 2.39 1.87a3.28 3.28 0 0 0 2.39-2.52 19.25 19.25 0 0 0 .85-6.33v-.1zM51.98 130.02q2.6 3.13 5.53 2.66a3.09 3.09 0 0 0 1.81-.84 2.16 2.16 0 0 0 .71-1.59 2.84 2.84 0 0 0-1.53-2.29l-1.4-.91a12.57 12.57 0 0 1-4-3.72 8.53 8.53 0 0 1-1.21-4.61 12.1 12.1 0 0 1 .74-4.21 12.46 12.46 0 0 1 2.07-3.62 12 12 0 0 1 3.08-2.67 10 10 0 0 1 3.82-1.33 12.27 12.27 0 0 1 6.21.8v9.82a7.79 7.79 0 0 0-2.4-2.24 4.11 4.11 0 0 0-2.63-.63 2.76 2.76 0 0 0-1.64.8 2.05 2.05 0 0 0-.65 1.47 2.86 2.86 0 0 0 1.75 2.31l1.4.83a11.37 11.37 0 0 1 3.9 3.52 8.61 8.61 0 0 1 1.19 4.66 12.83 12.83 0 0 1-.76 4.46 13 13 0 0 1-2.11 3.73 11.22 11.22 0 0 1-3.22 2.66 11.44 11.44 0 0 1-4.1 1.33 16.79 16.79 0 0 1-6.5-.47v-10zM94.86 118.93a26 26 0 0 1-.87 6.88 19 19 0 0 1-2.49 5.6 14 14 0 0 1-3.86 3.92 11.75 11.75 0 0 1-5 1.88 9.77 9.77 0 0 1-5-.51 9.41 9.41 0 0 1-3.86-2.86 13.79 13.79 0 0 1-2.49-4.9 23.35 23.35 0 0 1-.87-6.66 25.93 25.93 0 0 1 .87-6.88 19 19 0 0 1 2.49-5.6 14.33 14.33 0 0 1 3.85-3.93 11.54 11.54 0 0 1 5-1.89 9.34 9.34 0 0 1 8.83 3.4 13.83 13.83 0 0 1 2.49 4.9 23.37 23.37 0 0 1 .91 6.65zm-9 1.24a17.32 17.32 0 0 0-.85-6.21q-.85-2.09-2.39-1.88a3.29 3.29 0 0 0-2.39 2.53 19.44 19.44 0 0 0-.85 6.45 17.16 17.16 0 0 0 .85 6.2q.85 2.08 2.39 1.87a3.28 3.28 0 0 0 2.39-2.52 19.27 19.27 0 0 0 .81-6.44zM108.98 133.07l-8.67 1.2v-24.36l-4.89.67v-7.69l18.44-2.53v7.69l-4.89.67v24.36zM138.05 129.07l-9.33 1.33-4.8-12.47v13.14l-8.63 1.19v-32l8.37-1.15a19 19 0 0 1 5.93 0 9 9 0 0 1 4 1.64 6.84 6.84 0 0 1 2.19 3.03 12.13 12.13 0 0 1 .71 4.26 9.45 9.45 0 0 1-4.89 8.7zm-14.15-15.39l.6-.08a3.82 3.82 0 0 0 2.6-1.33 4.6 4.6 0 0 0 .89-2.94 3.57 3.57 0 0 0-.89-2.66 3 3 0 0 0-2.6-.63l-.6.08v7.57zM163.68 109.46a26 26 0 0 1-.87 6.88 19 19 0 0 1-2.49 5.6 14 14 0 0 1-3.86 3.92 11.75 11.75 0 0 1-5 1.88 9.77 9.77 0 0 1-5-.51 9.41 9.41 0 0 1-3.85-2.85 13.79 13.79 0 0 1-2.49-4.9 23.35 23.35 0 0 1-.87-6.66 25.93 25.93 0 0 1 .87-6.88 19 19 0 0 1 2.49-5.6 14.34 14.34 0 0 1 3.85-3.93 11.54 11.54 0 0 1 5-1.89 9.65 9.65 0 0 1 5 .53 9.54 9.54 0 0 1 3.86 2.86 13.83 13.83 0 0 1 2.46 4.9 23.36 23.36 0 0 1 .9 6.65zm-9 1.24a17.32 17.32 0 0 0-.85-6.21q-.85-2.09-2.39-1.88a3.29 3.29 0 0 0-2.39 2.53 19.45 19.45 0 0 0-.85 6.45 17.16 17.16 0 0 0 .85 6.2q.85 2.08 2.39 1.87a3.28 3.28 0 0 0 2.39-2.52 19.27 19.27 0 0 0 .85-6.44zM165.84 114.41q2.6 3.13 5.53 2.66a3.09 3.09 0 0 0 1.81-.84 2.17 2.17 0 0 0 .71-1.59 2.84 2.84 0 0 0-1.53-2.29l-1.4-.91a12.55 12.55 0 0 1-4-3.72 8.53 8.53 0 0 1-1.18-4.59 12.1 12.1 0 0 1 .75-4.22 12.44 12.44 0 0 1 2.07-3.62 12 12 0 0 1 3.1-2.66 10 10 0 0 1 3.82-1.33 12.27 12.27 0 0 1 6.21.8v9.78a7.81 7.81 0 0 0-2.4-2.24 4.11 4.11 0 0 0-2.66-.59 2.77 2.77 0 0 0-1.64.8 2.05 2.05 0 0 0-.65 1.47 2.86 2.86 0 0 0 1.75 2.31l1.4.83a11.35 11.35 0 0 1 3.9 3.52 8.61 8.61 0 0 1 1.19 4.66 12.83 12.83 0 0 1-.76 4.46 13 13 0 0 1-2.11 3.73 11.2 11.2 0 0 1-3.22 2.66 11.43 11.43 0 0 1-4.1 1.33 16.79 16.79 0 0 1-6.5-.47v-9.94z" fill="#1d1d1b"/></svg></svg>