<?xml version="1.0" encoding="utf-8"?><svg width="250" height="76" viewBox="0 0 250 76" xmlns="http://www.w3.org/2000/svg" xmlns:xlink="http://www.w3.org/1999/xlink"><svg data-name="Layer 1" viewBox="-1 -1 67.32 10.16" width="67.32" height="10.16" id="cta_txt" x="118.31" y="35.19"><title>cta_txt</title><path d="M2.75 2.76v-.62a.77.77 0 0 0-.66-1c-.55 0-.73.29-.73.88v4c0 .59.18.88.73.88a.64.64 0 0 0 .66-.8v-1h1.36v.91a2.06 2.06 0 0 1-4.11 0V2.03a1.91 1.91 0 0 1 2.09-2 2 2 0 0 1 2 2.18v.58H2.73zM5.25 2.03a2.09 2.09 0 0 1 4.18 0v4.09a2.09 2.09 0 0 1-4.18 0V2.03zm1.36 4.06c0 .59.18.88.73.88s.73-.29.73-.88v-4c0-.59-.18-.88-.73-.88s-.73.29-.73.88v4zM16.04.11v7.94h-1.19V1.84l-1.23 6.21h-.66l-1.23-6.21v6.21h-1.22V.11h1.79l1 4.64 1-4.64h1.79zM17.14 8.05V.11h2c1.68 0 2.46.65 2.46 2.34s-.78 2.34-2.46 2.34h-.63v3.26h-1.36zm1.37-4.42h.53c.89 0 1.17-.27 1.17-1.22s-.28-1.22-1.17-1.22h-.53v2.44zM23.9 8.05h-1.39V.11h1.91c1.53 0 2.31.65 2.31 2.34a1.93 1.93 0 0 1-1 2l1.16 3.6H25.5l-1-3.29a6.73 6.73 0 0 1-.7 0v3.26zm0-4.38h.48c.74 0 1-.27 1-1.22s-.28-1.22-1-1.22h-.48v2.4zM28.98 8.05h-1.32L29.12.11h1.69l1.46 7.94h-1.32l-.24-1.76h-1.5zm.44-2.95h1.09l-.54-3.41zM34.51 8.05h-1.4V.11h1.91c1.53 0 2.31.65 2.31 2.34a1.93 1.93 0 0 1-1 2l1.16 3.6H36.1l-1-3.29a6.73 6.73 0 0 1-.7 0v3.26zm0-4.38h.48c.74 0 1-.27 1-1.22s-.28-1.22-1-1.22h-.48v2.4zM40.86 8.05h-1.35L40.97.11h1.69l1.46 7.94H42.8l-.24-1.76h-1.5zm.44-2.95h1.1l-.54-3.41zM44.99 8.05V.11h1.36v3.23h1.45V.11h1.36v7.94h-1.35V4.53h-1.45v3.52H45zM50.28 2.03a2.09 2.09 0 0 1 4.18 0v4.09a2.09 2.09 0 0 1-4.18 0V2.03zm1.36 4.06c0 .59.18.88.73.88s.73-.29.73-.88v-4c0-.59-.18-.88-.73-.88s-.73.29-.73.88v4zM56.94 8.05h-1.36V.11h1.93c1.53 0 2.31.65 2.31 2.34a1.93 1.93 0 0 1-1 2l1.16 3.6h-1.37l-1-3.29a6.73 6.73 0 0 1-.7 0v3.26zm0-4.38h.48c.74 0 1-.27 1-1.22s-.28-1.22-1-1.22h-.48v2.4zM62.02 8.05H60.7L62.16.11h1.69l1.46 7.94h-1.32l-.24-1.76h-1.5zm.44-2.95h1.1l-.54-3.41z" fill="#fff"/></svg><svg data-name="Layer 1" viewBox="-1 -1 7.59 11.06" width="7.59" height="11.06" id="flecha" x="57" y="53.849999999999994"><title>flecha</title><path fill="none" stroke="#fff" stroke-miterlimit="10" stroke-width="1.5" d="M.53 8.53l4-4-4-4"/></svg><svg data-name="Layer 1" viewBox="-1 -1 57 21.27" width="57" height="21.27" id="tilde" y="53.849999999999994"><title>tilde</title><path d="M14.71 17.15c-4.35 1.84-11.13 3.93-13.97-.62-1.52-2.52-.58-6.46 1.76-10A52.1 52.1 0 0 1 7.79 0c-1.06 1.71-4.05 7.46-.13 10.28 1.52 1.09 4.2 1.21 7.58.35L55 .18z" fill="#231f20"/></svg><svg width="249.66" height="35.19" viewBox="-1 -1 249.66 35.19" id="txt1"><defs><style>.dcls-1{fill-rule:evenodd}</style></defs><path id="dtxt1" class="dcls-1" d="M25.752 140.7a15.687 15.687 0 0 0 6.316 1.319c6.06 0 11.011-4.765 11.949-10.721a8.462 8.462 0 0 0-.683-5.573 13.072 13.072 0 0 0-3.67-3.913A13.155 13.155 0 0 1 38.3 120.5a2.264 2.264 0 0 1-.555-1.787 2.591 2.591 0 0 1 2.561-1.957c2.006 0 3.8 1.83 4.566 3.446l1.536-9.742a12.128 12.128 0 0 0-5.932-1.616c-7.426 0-10.882 6.806-11.48 10.55a8.4 8.4 0 0 0 .853 5.606 17.22 17.22 0 0 0 3.67 4.084 4.861 4.861 0 0 1 1.238 1.234 2.081 2.081 0 0 1 .427 1.787 2.842 2.842 0 0 1-2.9 2.127c-2.219 0-4.012-1.787-4.95-3.574zm27.823.766l5.078-32.076h-8.705l-5.078 32.076h8.706zm3.413 0h16.174l1.195-7.573h-7.468l.768-4.893h6.7l1.238-7.572h-6.7l.683-4.467h7.468l1.195-7.572H62.066zm19.587 0h8.364l1.494-9.4c.469-3.02.555-6 .853-9.019l.085-.085 3.542 18.506h8.365l5.079-32.076h-8.365l-1.28 8.168c-.6 3.7-.512 7.359-.768 11.06l-.085.085-3.926-19.313h-8.28zm38.022 0l3.841-24.249h4.993l1.238-7.827H106.19l-1.238 7.827h4.78l-3.841 24.249h8.709zm6.784 0h16.174l1.195-7.573h-7.468l.768-4.893h6.7l1.238-7.572h-6.7l.683-4.467h7.468l1.195-7.572H126.46zm31.494 0l3.84-24.249h4.994l1.237-7.827h-18.479l-1.237 7.827h4.779l-3.84 24.249h8.706zm6.784 0h16.174l1.195-7.573h-7.468l.768-4.893h6.7l1.238-7.572h-6.7l.683-4.467h7.469l1.194-7.572h-16.175zm42.229 0l13.827-32.076h-9.431l-4.484 13.189c-.853 2.6-1.408 5.148-2.219 7.743h-.081c.085-2.595.3-5.148.3-7.743l.043-13.187h-9.133l2.305 32.076h8.876zm18.307 0l5.078-32.076h-8.706l-5.078 32.076h8.711zm17.112 0l13.827-32.076H241.7l-4.481 13.187c-.853 2.6-1.408 5.148-2.219 7.743h-.085c.085-2.595.3-5.148.3-7.743l.042-13.187h-9.132l2.3 32.076h8.877zm11.179-16.038c-1.237 7.827.811 16.591 9.645 16.591s13.7-8.764 14.937-16.591-.854-16.591-9.688-16.591-13.656 8.763-14.894 16.593zm8.877 0c.3-2 1.451-8.509 4.737-8.509s2.39 6.509 2.091 8.509c-.341 2-1.494 8.508-4.78 8.508s-2.389-6.507-2.048-8.506z" transform="translate(-25.75 -108.844)"/></svg><svg width="118.31" height="18.66" viewBox="-1 -1 118.31 18.66" id="txt2" y="35.19"><defs><style>.ecls-1{fill-rule:evenodd}</style></defs><path id="etxt2" class="ecls-1" d="M93.859 150.463a2.6 2.6 0 0 0-.96-.166c-.914 0-3.055.525-3.055 3.635 0 2.374 1.311 3.542 2.852 3.542a2.679 2.679 0 0 0 1.135-.248l.111-1.941a1.372 1.372 0 0 1-1 .441c-.942 0-1.181-1.03-1.181-1.84 0-.764.24-1.84 1.218-1.84a1.146 1.146 0 0 1 .877.405v-1.988zm.534 3.423c0 1.693.748 3.588 2.658 3.588s2.658-1.895 2.658-3.588-.748-3.589-2.658-3.589-2.658 1.896-2.658 3.589zm1.92 0c0-.433.028-1.84.738-1.84s.738 1.407.738 1.84-.028 1.84-.738 1.84-.738-1.408-.738-1.84zm8.886 3.469l-1.4-2.889a1.749 1.749 0 0 0 1.08-1.739c0-1.831-1.181-2.31-2.815-2.31h-1.818v6.938h1.883v-1.85c0-.34-.019-.681-.028-1.021l.018-.018 1.043 2.889h2.04zm-3.073-3.736v-1.711a.759.759 0 0 1 .886.837.8.8 0 0 1-.766.883zm8.277 3.736l-1.4-2.889a1.749 1.749 0 0 0 1.08-1.739c0-1.831-1.182-2.31-2.815-2.31h-1.819v6.938h1.883v-1.85c0-.34-.018-.681-.027-1.021l.018-.018 1.043 2.889h2.04zm-3.074-3.736v-1.711a.759.759 0 0 1 .886.837.8.8 0 0 1-.766.883zm3.321 3.736h3.5v-1.638h-1.615v-1.058h1.449v-1.638h-1.449v-.966h1.615v-1.638h-3.5v6.938zm9.981-6.892a2.6 2.6 0 0 0-.96-.166c-.914 0-3.055.525-3.055 3.635 0 2.374 1.31 3.542 2.852 3.542a2.677 2.677 0 0 0 1.135-.248l.111-1.941a1.373 1.373 0 0 1-1 .441c-.941 0-1.181-1.03-1.181-1.84 0-.764.24-1.84 1.218-1.84a1.147 1.147 0 0 1 .877.405v-1.988zm.533 3.423c0 1.693.748 3.588 2.659 3.588s2.658-1.895 2.658-3.588-.748-3.589-2.658-3.589-2.659 1.896-2.659 3.589zm1.92 0c0-.433.028-1.84.739-1.84s.738 1.407.738 1.84-.027 1.84-.738 1.84-.739-1.408-.739-1.84zm10.853 3.469l-.674-6.938h-2.317l-.452 2.4c-.083.432-.129.855-.185 1.288h-.018l-.535-3.69h-2.345l-.812 6.938h2.021l.157-2.825c.028-.515.019-1.021.028-1.537h.018l.656 4.362h1.532l.535-2.843c.093-.506.157-1.013.24-1.519h.019l.175 4.362h1.957zm.108-3.469c0 1.693.747 3.588 2.658 3.588s2.658-1.895 2.658-3.588-.747-3.589-2.658-3.589-2.658 1.896-2.658 3.589zm1.92 0c0-.433.027-1.84.738-1.84s.738 1.407.738 1.84-.027 1.84-.738 1.84-.738-1.408-.738-1.84zm11.014 3.607l-.822-.957a4.389 4.389 0 0 0 .776-2.65c0-1.693-.748-3.589-2.659-3.589s-2.658 1.9-2.658 3.589.748 3.588 2.658 3.588c.093 0 .185-.009.277-.018a2.335 2.335 0 0 0 .268-.064l.646.929zm-2.705-5.447c.711 0 .739 1.407.739 1.84s-.028 1.84-.739 1.84-.738-1.408-.738-1.84.027-1.84.738-1.84zm5.988-1.629v4.371a2.279 2.279 0 0 1-.046.607.4.4 0 0 1-.434.331.416.416 0 0 1-.433-.34 2.231 2.231 0 0 1-.047-.608v-4.361h-1.883v4.536a2.368 2.368 0 1 0 4.726 0v-4.536h-1.883zm4.456 6.938v-6.938h-1.883v6.938h1.883zm.738 0h3.5v-1.638h-1.615v-1.058h1.449v-1.638h-1.449v-.966h1.615v-1.638h-3.5v6.938zm9.191 0l-1.4-2.889a1.749 1.749 0 0 0 1.08-1.739c0-1.831-1.181-2.31-2.815-2.31h-1.818v6.938h1.883v-1.85c0-.34-.019-.681-.028-1.021l.018-.018 1.043 2.889h2.04zm-3.073-3.736v-1.711a.759.759 0 0 1 .886.837.8.8 0 0 1-.766.883zm8.286 3.736l-1.477-6.938h-2.3l-1.671 6.938h1.939l.157-.893h1.264l.139.893h1.947zm-3.1-2.365l.258-1.61c.074-.433.12-.874.176-1.307h.018c.046.433.083.874.139 1.307l.2 1.61h-.794zm3.173 2.2a3.72 3.72 0 0 0 1.412.285 2.21 2.21 0 0 0 2.216-2.318 1.967 1.967 0 0 0-.342-1.206 3.461 3.461 0 0 0-.923-.846 3.186 3.186 0 0 1-.342-.285.594.594 0 0 1-.184-.387.467.467 0 0 1 .489-.423 1.533 1.533 0 0 1 1.108.745v-2.107a2.966 2.966 0 0 0-1.339-.35 2.18 2.18 0 0 0-2.123 2.282 2.005 2.005 0 0 0 .379 1.215 4.516 4.516 0 0 0 .932.883 1.509 1.509 0 0 1 .314.267.544.544 0 0 1 .148.387.509.509 0 0 1-.554.46 1.594 1.594 0 0 1-1.191-.773v2.171zm9.907-6.726a2.6 2.6 0 0 0-.96-.166c-.914 0-3.055.525-3.055 3.635 0 2.374 1.311 3.542 2.852 3.542a2.677 2.677 0 0 0 1.135-.248l.111-1.941a1.371 1.371 0 0 1-1 .441c-.941 0-1.181-1.03-1.181-1.84 0-.764.24-1.84 1.218-1.84a1.147 1.147 0 0 1 .877.405v-1.988zm.534 3.423c0 1.693.747 3.588 2.658 3.588s2.658-1.895 2.658-3.588-.747-3.589-2.658-3.589-2.659 1.895-2.659 3.588zm1.92 0c0-.433.027-1.84.738-1.84s.738 1.407.738 1.84-.027 1.84-.738 1.84-.739-1.409-.739-1.841zm3.929 3.469h1.809v-2.034c0-.653-.083-1.3-.129-1.95l.019-.019 1.4 4h1.809v-6.938h-1.809v1.767c0 .8.138 1.592.212 2.392l-.018.018-1.5-4.177h-1.791v6.938zm10.876 0v-1.638h-1.412v-5.3H193.8v6.938h3.3zm5.361 0l-1.477-6.938h-2.3l-1.671 6.938h1.939l.157-.893h1.264l.139.893h1.947zm-3.1-2.365l.258-1.61c.074-.433.12-.874.176-1.307h.018c.046.433.083.874.139 1.307l.2 1.61h-.794zm3.173 2.2a3.72 3.72 0 0 0 1.412.285 2.21 2.21 0 0 0 2.216-2.318 1.967 1.967 0 0 0-.342-1.206 3.461 3.461 0 0 0-.923-.846 3.186 3.186 0 0 1-.342-.285.594.594 0 0 1-.184-.387.467.467 0 0 1 .489-.423 1.533 1.533 0 0 1 1.108.745v-2.107a2.966 2.966 0 0 0-1.339-.35 2.18 2.18 0 0 0-2.123 2.282 2.005 2.005 0 0 0 .379 1.215 4.516 4.516 0 0 0 .932.883 1.509 1.509 0 0 1 .314.267.544.544 0 0 1 .148.387.509.509 0 0 1-.554.46 1.594 1.594 0 0 1-1.191-.773v2.171zm-106.655 9.664h1.809v-2.034c0-.653-.083-1.3-.129-1.95l.019-.019 1.4 4h1.809v-6.938H98.98v1.767c0 .8.138 1.591.212 2.392l-.019.018-1.5-4.177h-1.795v6.938zm7.53 0v-6.938h-1.883v6.938h1.883zm3.663-6.938l-1.033 2.954h-.01v-2.954h-1.883v6.938h1.883v-3.184h.01l1.172 3.184h2.021l-1.68-3.589 1.5-3.349h-1.985zm2.555 6.938h3.5v-1.638h-1.615v-1.058h1.449v-1.638h-1.449v-.966h1.615v-1.638h-3.5v6.938zm8.052 0V164.2h1.347v-1.638h-1.347v-1h1.44v-1.638H115.8v6.938h1.883zm7.142 0l-1.4-2.889a1.749 1.749 0 0 0 1.08-1.74c0-1.831-1.181-2.309-2.815-2.309h-1.819v6.938h1.883v-1.85c0-.34-.018-.681-.027-1.021l.018-.018 1.043 2.889h2.04zm-3.074-3.736v-1.711a.76.76 0 0 1 .887.837.8.8 0 0 1-.767.883zm3.321 3.736h3.5v-1.638h-1.617v-1.058h1.45v-1.638h-1.45v-.966h1.616v-1.638h-3.5v6.938zm4.235 0h3.5v-1.638h-1.615v-1.058h1.449v-1.638h-1.449v-.966h1.613v-1.638h-3.5v6.938zm11.126 0l-1.4-2.889a1.75 1.75 0 0 0 1.08-1.74c0-1.831-1.182-2.309-2.816-2.309h-1.818v6.938h1.883v-1.85c0-.34-.019-.681-.028-1.021l.019-.018 1.043 2.889h2.04zm-3.074-3.736v-1.711a.759.759 0 0 1 .886.837.8.8 0 0 1-.766.883zm3.321 3.736h1.809v-2.034c0-.653-.083-1.3-.129-1.95l.018-.019 1.4 4h1.809v-6.938h-1.809v1.767c0 .8.139 1.591.212 2.392l-.018.018-1.5-4.177h-1.79v6.938zm9.463 0V164.2h1.348v-1.638h-1.348v-1h1.44v-1.638h-3.323v6.938h1.883zm5.481 0v-1.638h-1.412v-5.3h-1.883v6.938h3.295zm2.833 0v-2.945l1.624-3.993h-1.947l-.656 2.144h-.018l-.646-2.144h-1.957l1.717 3.993v2.945h1.883zm4.8-6.938l-1.033 2.954h-.01v-2.954h-1.883v6.938h1.883v-3.184h.01l1.172 3.184h2.021l-1.68-3.589 1.5-3.349h-1.985zm2.555 6.938h1.809v-2.034c0-.653-.083-1.3-.129-1.95l.018-.019 1.4 4h1.81v-6.938h-1.81v1.767c0 .8.139 1.591.213 2.392l-.019.018-1.5-4.177H165.8v6.938zm7.53 0v-6.938h-1.883v6.938h1.883zm3.312 0v-5.245h1.08v-1.693h-4v1.693h1.034v5.245h1.883zm3.529-4.408h1.819v-.257c0-.286.046-.847.452-.847a.532.532 0 0 1 .434.617 4.627 4.627 0 0 1-1.209 2.456l-1.837 2.439h4.8v-1.6h-.775c-.314 0-.628.046-.941.064l-.021-.019a4.667 4.667 0 0 0 1.819-3.23 2.157 2.157 0 0 0-2.2-2.273 2.274 2.274 0 0 0-2.354 2.4zm7.308-2.65c-1.938 0-2.464 2.052-2.464 3.589s.526 3.588 2.464 3.588 2.465-2.052 2.465-3.588-.529-3.586-2.468-3.586zm0 1.6c.573 0 .61 1.206.61 1.988s-.037 1.987-.61 1.987-.609-1.2-.609-1.987.034-1.985.606-1.985zm6.4 5.457v-6.938h-2.631v1.6H192v5.337h1.883zm3.653 0l3.138-6.938h-4.947v1.6h2.363l-2.575 5.337h2.021z" transform="translate(-89.844 -150.312)"/></svg></svg>