<svg width="96" height="81" xmlns="http://www.w3.org/2000/svg" xmlns:xlink="http://www.w3.org/1999/xlink"><svg viewBox="-1 -1 30 30" width="30" height="30" y="51" xmlns="http://www.w3.org/2000/svg"><g data-name="Layer 2"><g data-name="Layer 1"><g data-name="Layer 1-2"><circle cx="14" cy="14" r="14"/><path d="M13 19.3a.37.37 0 01-.26-.62l4.52-4.52-4.53-4.52a.37.37 0 010-.52.36.36 0 01.51 0l5 5-5 5a.36.36 0 01-.24.18z" fill="#fff"/></g></g></g></svg><svg viewBox="-1 -1 30 30" width="30" height="30" x="30" y="51" xmlns="http://www.w3.org/2000/svg"><g data-name="Layer 2"><g data-name="Layer 1"><g data-name="Layer 1-2"><path d="M14 28a14 14 0 1114-14 14 14 0 01-14 14zm0-27a13 13 0 1013 13A13 13 0 0014 1z"/><path d="M13 19.3a.37.37 0 01-.26-.62l4.52-4.52-4.53-4.52a.37.37 0 010-.52.36.36 0 01.51 0l5 5-5 5a.36.36 0 01-.24.18z"/></g></g></g></svg><svg viewBox="-1 -1 96 15" width="96" height="15" xmlns="http://www.w3.org/2000/svg"><g data-name="Layer 2"><g data-name="Layer 1"><path d="M3.57 3.51a1.38 1.38 0 010-.64 1.12 1.12 0 011.24-.82A1.11 1.11 0 016 3a.43.43 0 010 .16v.74h3.4v-.85C9.4.42 6.71 0 4.85 0 2.47 0 .52.72.16 2.69a3.78 3.78 0 000 1.64c.61 2.48 5.39 3.2 6.08 4.77a1.53 1.53 0 010 .9 1.17 1.17 0 01-1.34.82 1.16 1.16 0 01-1.34-.94.43.43 0 010-.16V8.54H0v.94C0 12.18 2.36 13 4.89 13s4.41-.74 4.74-2.78a5.49 5.49 0 000-2C9.05 5.68 4 4.94 3.57 3.51zm43.69 0a1.72 1.72 0 010-.64 1.08 1.08 0 011.21-.8A1.11 1.11 0 0149.7 3v.9H53v-.81c0-2.6-2.6-3-4.47-3-2.38 0-4.24.71-4.66 2.67a3.65 3.65 0 000 1.61c.58 2.46 5.3 3.16 6 4.72a1.36 1.36 0 010 .89 1.12 1.12 0 01-1.34.8 1.16 1.16 0 01-1.35-.92V8.51h-3.44v.93c0 2.69 2.33 3.49 4.82 3.49s4.39-.74 4.7-2.75a5.38 5.38 0 000-2c-.57-2.51-5.61-3.27-6-4.67zm30.52 6.64L74.61.39h-5v12h3.29l-.17-10.08 3.4 10.08h4.78v-12h-3.32zM14.38.39L11.9 12.52h3.62L17.45 1.3l1.83 11.23h3.54L20.35.39zm20.3 0L33 9.87 31.3.39h-5.49l-.3 12.13h3.36L29 1.3l2.31 11.22h3.4L37 1.3l.08 11.23h3.37L40.16.39zm31.22 0h-3.4v9a1.69 1.69 0 010 .45 1.38 1.38 0 01-2.58 0 1.7 1.7 0 010-.45v-9h-3.45v9.5c.23 2.28 2.22 3 4.69 3s4.44-.73 4.68-3a5.21 5.21 0 000-.79zm23.33 5.32v1.76h1.34v1.76a1.85 1.85 0 010 .47 1.49 1.49 0 01-1.86.8 1.36 1.36 0 01-.87-.8 1.85 1.85 0 010-.47V3.69a1.82 1.82 0 010-.57 1.47 1.47 0 011.79-.82 1.31 1.31 0 01.89.82 3.69 3.69 0 010 .47v.66H94V3.9a3.66 3.66 0 000-.81C93.68.78 91.59 0 89.22 0s-4.42.78-4.71 3.05V9a5.34 5.34 0 000 .8c.21 2.21 2.33 3 4.71 3s4.51-.78 4.72-3a5.34 5.34 0 000-.8V5.71z" fill-rule="evenodd" data-name="Layer 1-2"/></g></g></svg><svg viewBox="-1 -1 96 15" width="96" height="15" y="15" xmlns="http://www.w3.org/2000/svg"><g data-name="Layer 2"><g data-name="Layer 1"><g data-name="Layer 1-2"><path d="M3.57 3.51a1.72 1.72 0 010-.64 1.12 1.12 0 011.24-.82A1.11 1.11 0 016 3v.9h3.4v-.85C9.4.42 6.71 0 4.85 0 2.47 0 .52.72.16 2.69a3.78 3.78 0 000 1.64c.61 2.48 5.38 3.2 6.08 4.77a1.39 1.39 0 010 .9 1.17 1.17 0 01-1.34.82 1.16 1.16 0 01-1.34-.94v-1.3H0v.94C0 12.18 2.36 13 4.89 13s4.41-.74 4.74-2.78a5.49 5.49 0 000-2C9.05 5.68 4 4.94 3.57 3.51zm43.69 0a1.72 1.72 0 010-.64 1.07 1.07 0 011.21-.8 1.12 1.12 0 011.21.93v.9H53v-.81c0-2.6-2.6-3-4.47-3-2.35 0-4.22.71-4.63 2.67a3.65 3.65 0 000 1.61c.58 2.46 5.37 3.16 6 4.72a1.5 1.5 0 010 .89 1.13 1.13 0 01-1.35.8 1.16 1.16 0 01-1.34-.92V8.54h-3.47v.92c0 2.69 2.32 3.5 4.82 3.5s4.39-.74 4.7-2.76a5.38 5.38 0 000-2c-.58-2.51-5.61-3.26-6-4.67zm30.52 6.64L74.61.39h-5v12h3.28l-.16-10.08 3.39 10.08h4.78v-12h-3.31zM14.38.39L11.9 12.52h3.62L17.45 1.3l1.83 11.23h3.54L20.35.39zm20.3 0L33 9.87 31.3.39h-5.5l-.29 12.13h3.36L29 1.3l2.31 11.22h3.4L37 1.3l.08 11.23h3.37L40.16.39zm31.21 0H62.5v9a1.69 1.69 0 010 .45 1.36 1.36 0 01-1.67.84 1.32 1.32 0 01-.91-.84 1.14 1.14 0 010-.45v-9h-3.45v9.5c.23 2.28 2.21 3 4.68 3s4.45-.73 4.64-3V9.1zm23.34 5.32v1.77h1.34v1.75a3.69 3.69 0 010 .47 1.51 1.51 0 01-1.87.8 1.36 1.36 0 01-.87-.8 3.69 3.69 0 010-.47V3.69a1.82 1.82 0 010-.57 1.48 1.48 0 011.8-.82 1.35 1.35 0 01.89.82 3.69 3.69 0 010 .47v.66H94V3.9a3.66 3.66 0 000-.81C93.67.78 91.59 0 89.21 0S84.8.78 84.5 3.05v6.71c.22 2.21 2.34 3 4.71 3s4.51-.78 4.73-3v-4z" fill="#fff" fill-rule="evenodd" data-name="Layer 1-2-2"/></g></g></g></svg><svg viewBox="-1 -1 87 21" width="87" height="21" y="30" xmlns="http://www.w3.org/2000/svg"><g data-name="Layer 2"><g data-name="Layer 1"><path fill="#d52b1e" d="M83.12 0l-4.63 10.03-1.74-3.82h-1.91l2.88 6.23h1.54L85 0h-1.88z"/><path d="M63.2 18.6h3.74v-6.89A2.4 2.4 0 0169 9h.21c1.29 0 2 .92 2 2.22v7.35h3.74v-8.14c0-2.71-1.63-4.66-4.26-4.66a4.18 4.18 0 00-3.79 2.14h-.08v-1.7H63.2zM55.87 5.87A6.31 6.31 0 0049.35 12v.48a6.53 6.53 0 0013.06 0 6.29 6.29 0 00-6-6.56zm0 10.34c-1.77 0-2.75-1.5-2.75-3.77s1-3.78 2.75-3.78 2.74 1.47 2.74 3.78-1 3.84-2.77 3.84zM38.69 18.6h10.5v-3h-5.94l5.68-6.44v-3H38.69v3h5.76l-5.76 6.48zm-4.8 0h3.77V6.21h-3.77zm-8.73 0h3.74v-5.68a3.07 3.07 0 012.59-3.5 3 3 0 011.3.08V6.24a2.15 2.15 0 00-.79-.09 3.57 3.57 0 00-3.24 2.13V6.21h-3.6zm-6.86-2.36a2.74 2.74 0 01-2.85-2.6v-.11h8.86a8 8 0 00-2.14-6.12 5.76 5.76 0 00-4.11-1.49A6.19 6.19 0 0011.74 12v.4a6.21 6.21 0 005.82 6.6h.69A6.34 6.34 0 0022 17.88a4.94 4.94 0 002.07-3h-3.59a2.21 2.21 0 01-2.21 1.36zm-.19-7.68A2.43 2.43 0 0120.48 11h-5c.29-1.5 1.07-2.44 2.63-2.44zM4.26 18.6h4l4.22-12.39H8.71l-2.4 8-2.44-8H0zM33.89 1.82h3.77v3.36h-3.77z"/></g></g></svg></svg>