<svg width="172" height="43" xmlns="http://www.w3.org/2000/svg" xmlns:xlink="http://www.w3.org/1999/xlink"><svg width="87.97" height="15.19" viewBox="-1 -1 87.97 15.19" y="27.35" xmlns="http://www.w3.org/2000/svg"><path d="M3.265 3.565a1.528 1.528 0 0 1-.012-.646 1.013 1.013 0 0 1 1.125-.828A1.05 1.05 0 0 1 5.52 3.207v.761h3.066V3.1C8.586.426 6.175 0 4.438 0 2.255 0 .471.725.144 2.732a4.247 4.247 0 0 0 .024 1.657c.532 2.513 4.9 3.239 5.536 4.83a1.587 1.587 0 0 1 .024.907 1.064 1.064 0 0 1-1.2.83A1.1 1.1 0 0 1 3.3 9.841V8.658H0V9.6c0 2.748 2.158 3.575 4.468 3.575 2.221 0 4.044-.757 4.342-2.814a6.109 6.109 0 0 0-.013-2.012C8.276 5.767 3.615 5 3.265 3.565zm39.973.03a1.647 1.647 0 0 1-.011-.636 1.008 1.008 0 0 1 1.114-.823 1.037 1.037 0 0 1 1.126 1.107V4H48.5v-.862C48.5.49 46.126.074 44.407.074c-2.165 0-3.933.714-4.256 2.706a4.105 4.105 0 0 0 .029 1.638C40.7 6.9 45.03 7.624 45.657 9.2a1.66 1.66 0 0 1 .022.9 1.043 1.043 0 0 1-1.184.82 1.088 1.088 0 0 1-1.225-1.1V8.64h-3.262v.938c0 2.717 2.128 3.537 4.42 3.537 2.2 0 4.008-.75 4.3-2.784a5.989 5.989 0 0 0-.022-1.993c-.506-2.554-5.119-3.321-5.468-4.743zm27.91 6.7l-2.895-9.9h-4.561v12.164h3.017l-.175-10.213 3.109 10.212h4.374V.4H70.98zM13.157.4L10.88 12.687h3.32l1.716-11.378 1.674 11.378h3.3L18.62.4h-5.463zm18.565 0L30.171 10 28.622.4h-5.015l-.266 12.287h3.072L26.5 1.309l2.11 11.378h3.117l2.116-11.378.084 11.378h3.08L36.731.4h-5.009zm28.562 0h-3.109v9.093a2.163 2.163 0 0 1-.027.467 1.222 1.222 0 0 1-2.353 0 1.989 1.989 0 0 1-.031-.467V.4h-3.108v8.811c0 .227.014.691.027.813.215 2.3 2.024 3.041 4.283 3.041s4.072-.745 4.291-3.041a6.4 6.4 0 0 0 .026-.812V.4zm21.343 5.392v1.793h1.26v1.779a2.263 2.263 0 0 1-.032.467 1.328 1.328 0 0 1-2.512 0 3.126 3.126 0 0 1-.032-.467V3.742a2.522 2.522 0 0 1 .056-.581 1.288 1.288 0 0 1 2.45 0 3.2 3.2 0 0 1 .038.474v.682h3.095v-.4a7.412 7.412 0 0 0-.023-.813C85.694.798 83.794.069 81.616.069S77.573.8 77.3 3.1c-.025.21-.062.588-.062.813v5.168a7 7 0 0 0 .049.811c.2 2.242 2.145 3.037 4.318 3.037s4.117-.795 4.323-3.037c.036-.411.04-.585.045-.811V5.788h-4.348z" fill="#fff" fill-rule="evenodd"/></svg><svg width="172" height="27.35" viewBox="-1 -1 172 27.35" xmlns="http://www.w3.org/2000/svg"><g data-name="Layer 2"><g data-name="Layer 1"><g data-name="Layer 2"><g data-name="Layer 1-2"><path d="M109.54 13.72L101.43.95h-3.94v18.76h3.48V6.52l8.34 13.19h3.72V.95h-3.49v12.77zm12.85-9.35a7.75 7.75 0 0 0-7.77 7.73v.1a7.77 7.77 0 0 0 15.54 0 7.77 7.77 0 0 0-7.7-7.84h-.07zm0 12.38a4.41 4.41 0 0 1-4.39-4.43v-.11a4.36 4.36 0 1 1 8.72-.36v.36a4.47 4.47 0 0 1-4.33 4.54zM136.41 0l-3.49 2.39v2.28h-2.56v3.11h2.56v5.64c0 4.78 1.41 6.27 6.05 6.27h.45v-3.24c-2.69 0-3-.41-3-3V7.78h3V4.67h-3zm11.51 4.37a7.75 7.75 0 0 0-7.79 7.7v.16A8 8 0 0 0 155 16l-2.85-1.65a4.69 4.69 0 0 1-8.76-.89h12.21V12.1a7.5 7.5 0 0 0-7.26-7.73zm-4.31 6.14a4.47 4.47 0 0 1 4.31-3.06 4 4 0 0 1 4.21 3.09zM163.33.69a6.31 6.31 0 0 0-6.63 6v.43a6 6 0 0 0 5.67 6.32h.3a3.91 3.91 0 0 0 1.08-.16l-4.13 6.45h4.1l4.85-7.78A9.08 9.08 0 0 0 170 7.07a6.38 6.38 0 0 0-6.37-6.39zm.05 9.69a3.3 3.3 0 0 1-3.26-3.29 3.37 3.37 0 0 1 3.26-3.34 3.29 3.29 0 0 1 3.23 3.32 3.27 3.27 0 0 1-3.18 3.36zM32.64 6.43a6.2 6.2 0 0 0-4.82-2.1 7.45 7.45 0 0 0-7.47 7.43v.41A7.52 7.52 0 0 0 27.56 20h.21a6.16 6.16 0 0 0 4.87-2.29v2h3.46v-15h-3.46zm-4.3 10.36a4.55 4.55 0 0 1-4.54-4.55v-.12a4.51 4.51 0 0 1 9 0 4.53 4.53 0 0 1-4.37 4.67zM56 6.43a6.2 6.2 0 0 0-4.82-2.1 7.45 7.45 0 0 0-7.47 7.43v.41A7.52 7.52 0 0 0 50.92 20h.27A6.15 6.15 0 0 0 56 17.69v2h3.46v-15H56zm-4.28 10.36a4.55 4.55 0 0 1-4.54-4.55v-.12a4.51 4.51 0 1 1 9 0 4.53 4.53 0 0 1-4.37 4.67zm32.31-2.03L79.85 4.64h-3.69l6.15 14.24-2.69 6.47h3.56l8.44-20.71h-3.64l-3.95 10.12zM75.77 4.64h-4.1l-3.39 4.75-3.41-4.75h-4.23l5.44 7.37-5.64 7.66h4.23l3.56-5.01 3.67 5.01h4.24l-5.75-7.64 5.38-7.39zM38.48.66h3.48v19.02h-3.48zM9.16 12.51h6a5.29 5.29 0 0 1-5.46 4.06 6.12 6.12 0 0 1-6.26-6v-.28a6.14 6.14 0 0 1 6-6.24h.08A5.79 5.79 0 0 1 15 7.36l3.08-1.85A9.54 9.54 0 0 0 9.57.69 9.42 9.42 0 0 0 0 10v.39A9.46 9.46 0 0 0 9.27 20h.43c5.59 0 9.16-4.34 9.16-9.4V9.17h-9.7z" fill="#fff" data-name="Layer 2-2"/></g></g></g></g></svg></svg>